<svg version="1.1" width="36" height="36"  viewBox="0 0 36 36" preserveAspectRatio="xMidYMid meet" xmlns="http://www.w3.org/2000/svg" xmlns:xlink="http://www.w3.org/1999/xlink">
                <title>analytics-line</title>
                <path class="clr-i-outline clr-i-outline-path-1" d="M32,5H4A2,2,0,0,0,2,7V29a2,2,0,0,0,2,2H32a2,2,0,0,0,2-2V7A2,2,0,0,0,32,5ZM4,29V7H32V29Z"></path><polygon class="clr-i-outline clr-i-outline-path-2" points="22.28 25.5 15.61 15.56 9.65 24.28 5.42 20.53 6.75 19.04 9.28 21.28 15.63 12 22.38 22.06 28.97 13.35 30.57 14.55 22.28 25.5"></polygon>
                <rect x="0" y="0" width="36" height="36" fill-opacity="0"/>
            </svg>