<svg version="1.1" width="36" height="36"  viewBox="0 0 36 36" preserveAspectRatio="xMidYMid meet" xmlns="http://www.w3.org/2000/svg" xmlns:xlink="http://www.w3.org/1999/xlink">
    <title>justify-text-line</title>
    <path d="M6,10.2H31.75a1.1,1.1,0,1,0,0-2.2H6a1.1,1.1,0,1,0,0,2.2Z" class="clr-i-outline clr-i-outline-path-1"></path><path d="M31.75,14H6a1.1,1.1,0,1,0,0,2.2H31.75a1.1,1.1,0,1,0,0-2.2Z" class="clr-i-outline clr-i-outline-path-2"></path><path d="M31.12,20H6.62a1.1,1.1,0,1,0,0,2.2h24.5a1.1,1.1,0,1,0,0-2.2Z" class="clr-i-outline clr-i-outline-path-3"></path><path d="M30.45,25.83H6.6a1.1,1.1,0,0,0,0,2.2H30.45a1.1,1.1,0,0,0,0-2.2Z" class="clr-i-outline clr-i-outline-path-4"></path>
    <rect x="0" y="0" width="36" height="36" fill-opacity="0"/>
</svg>