<svg version="1.1" width="36" height="36"  viewBox="0 0 36 36" preserveAspectRatio="xMidYMid meet" xmlns="http://www.w3.org/2000/svg" xmlns:xlink="http://www.w3.org/1999/xlink">
    <title>cloud-outline-alerted</title>
    <path class="clr-i-outline--alerted clr-i-outline-path-1--alerted" d="M29,16.66a10.14,10.14,0,0,0,.2-1.3h-2a8.28,8.28,0,0,1-.37,1.72l-.39,1.13,1.18.18a6.31,6.31,0,0,1,5.37,6.26C32.95,28,30.16,31,27.09,31H10.57c-3.84,0-7.62-3.91-7.62-7.9a7.94,7.94,0,0,1,7-7.89l.86-.1,0-.87A8.16,8.16,0,0,1,21,6.47l1-1.8A10.19,10.19,0,0,0,8.91,13.36a10,10,0,0,0-8,9.75c0,5.09,4.67,9.9,9.62,9.9H27.09c4.19,0,7.86-3.9,7.86-8.35A8.29,8.29,0,0,0,29,16.66Z"></path><path class="clr-i-outline--alerted clr-i-outline-path-2--alerted clr-i-alert" d="M26.85,1.14,21.13,11A1.28,1.28,0,0,0,22.23,13H33.68A1.28,1.28,0,0,0,34.78,11L29.06,1.14A1.28,1.28,0,0,0,26.85,1.14Z"></path>
    <rect x="0" y="0" width="36" height="36" fill-opacity="0"/>
</svg>