<svg version="1.1" width="36" height="36"  viewBox="0 0 36 36" preserveAspectRatio="xMidYMid meet" xmlns="http://www.w3.org/2000/svg" xmlns:xlink="http://www.w3.org/1999/xlink">
    <title>folder-line</title>
    <path class="clr-i-outline clr-i-outline-path-1" d="M30,9H16.42L14.11,5.82A2,2,0,0,0,12.49,5H6A2,2,0,0,0,4,7V29a2,2,0,0,0,2,2H30a2,2,0,0,0,2-2V11A2,2,0,0,0,30,9Zm0,20H6V13h7.31a2,2,0,0,0,2-2H6V7h6.49l2.61,3.59a1,1,0,0,0,.81.41H30Z"></path>
    <rect x="0" y="0" width="36" height="36" fill-opacity="0"/>
</svg>