<svg version="1.1" width="36" height="36"  viewBox="0 0 36 36" preserveAspectRatio="xMidYMid meet" xmlns="http://www.w3.org/2000/svg" xmlns:xlink="http://www.w3.org/1999/xlink">
    <title>folder-solid-alerted</title>
    <path class="clr-i-solid--alerted clr-i-solid-path-1--alerted" d="M22.23,15.4A3.68,3.68,0,0,1,19,9.89L19.56,9H16.42L14.11,5.82A2,2,0,0,0,12.49,5H6A2,2,0,0,0,4,7V29a2,2,0,0,0,2,2H30a2,2,0,0,0,2-2V15.4ZM6,11V7h6.49l2.72,4Z"></path><path class="clr-i-solid--alerted clr-i-solid-path-2--alerted clr-i-alert" d="M26.85,1.14,21.13,11A1.28,1.28,0,0,0,22.23,13H33.68A1.28,1.28,0,0,0,34.78,11L29.06,1.14A1.28,1.28,0,0,0,26.85,1.14Z"></path>
    <rect x="0" y="0" width="36" height="36" fill-opacity="0"/>
</svg>