<svg version="1.1" width="36" height="36"  viewBox="0 0 36 36" preserveAspectRatio="xMidYMid meet" xmlns="http://www.w3.org/2000/svg" xmlns:xlink="http://www.w3.org/1999/xlink">
    <title>warning-standard-line</title>
    <circle class="clr-i-outline clr-i-outline-path-1" cx="18" cy="26.06" r="1.33"></circle><path class="clr-i-outline clr-i-outline-path-2" d="M18,22.61a1,1,0,0,1-1-1v-12a1,1,0,1,1,2,0v12A1,1,0,0,1,18,22.61Z"></path><path class="clr-i-outline clr-i-outline-path-3" d="M15.0620782,1.681196 C15.6298819,0.649266355 16.7109091,0.0102219396 17.885,0.0102219396 C19.0590909,0.0102219396 20.1401181,0.649266355 20.7086433,1.68252129 L34.598644,27.2425225 C35.1407746,28.2401397 35.1174345,29.4495373 34.5372161,30.4254943 C33.9569977,31.4014514 32.905671,31.9996984 31.77,32 L4.02239323,31.9997492 C2.87409009,32.0254699 1.79902843,31.4375753 1.20106335,30.4569126 C0.603098265,29.4762499 0.572777899,28.2513179 1.12207818,27.241196 L15.0620782,1.681196 Z M2.87850767,28.1977282 C2.67060966,28.5800376 2.6820975,29.0441423 2.9086557,29.4156977 C3.1352139,29.7872532 3.5425354,30.0099959 4,30 L31.7697344,30 C32.1999191,29.9998858 32.5982478,29.7732208 32.8180821,29.4034482 C33.0379164,29.0336757 33.0467595,28.5754567 32.8413567,28.1974787 L18.9538739,2.64208195 C18.7394236,2.25234436 18.3298419,2.01022194 17.885,2.01022194 C17.4406889,2.01022194 17.0315538,2.25176692 16.8168946,2.64068753 L2.87850767,28.1977282 Z"></path>
    <rect x="0" y="0" width="36" height="36" fill-opacity="0"/>
</svg>