<svg version="1.1" width="36" height="36"  viewBox="0 0 36 36" preserveAspectRatio="xMidYMid meet" xmlns="http://www.w3.org/2000/svg" xmlns:xlink="http://www.w3.org/1999/xlink">
    <title>building-outline-alerted</title>
    <rect x="8" y="8" width="2" height="2" class="clr-i-outline--alerted clr-i-outline-path-1--alerted"></rect><rect x="12" y="8" width="2" height="2" class="clr-i-outline--alerted clr-i-outline-path-2--alerted"></rect><rect x="16" y="8" width="2" height="2" class="clr-i-outline--alerted clr-i-outline-path-3--alerted"></rect><rect x="8" y="13" width="2" height="2" class="clr-i-outline--alerted clr-i-outline-path-4--alerted"></rect><rect x="12" y="13" width="2" height="2" class="clr-i-outline--alerted clr-i-outline-path-5--alerted"></rect><rect x="16" y="13" width="2" height="2" class="clr-i-outline--alerted clr-i-outline-path-6--alerted"></rect><rect x="8" y="18" width="2" height="2" class="clr-i-outline--alerted clr-i-outline-path-7--alerted"></rect><rect x="12" y="18" width="2" height="2" class="clr-i-outline--alerted clr-i-outline-path-8--alerted"></rect><rect x="16" y="18" width="2" height="2" class="clr-i-outline--alerted clr-i-outline-path-9--alerted"></rect><rect x="8" y="23" width="2" height="2" class="clr-i-outline--alerted clr-i-outline-path-10--alerted"></rect><rect x="12" y="23" width="2" height="2" class="clr-i-outline--alerted clr-i-outline-path-11--alerted"></rect><rect x="16" y="23" width="2" height="2" class="clr-i-outline--alerted clr-i-outline-path-12--alerted"></rect><rect x="23" y="18" width="2" height="2" class="clr-i-outline--alerted clr-i-outline-path-13--alerted"></rect><rect x="27" y="18" width="2" height="2" class="clr-i-outline--alerted clr-i-outline-path-14--alerted"></rect><rect x="23" y="23" width="2" height="2" class="clr-i-outline--alerted clr-i-outline-path-15--alerted"></rect><rect x="27" y="23" width="2" height="2" class="clr-i-outline--alerted clr-i-outline-path-16--alerted"></rect><path d="M20,31H17V28H9v3H6V5.12A.12.12,0,0,1,6.12,5H19.88a.12.12,0,0,1,.12.12V8.24l2-3.41A2.12,2.12,0,0,0,19.88,3H6.12A2.12,2.12,0,0,0,4,5.12V33H22V15.38a3.68,3.68,0,0,1-2-.74Z" class="clr-i-outline--alerted clr-i-outline-path-17--alerted"></path><polygon points="31 15.4 31 31 23 31 23 33 33 33 33 15.4 31 15.4" class="clr-i-outline--alerted clr-i-outline-path-18--alerted"></polygon><path d="M26.85,1.14,21.13,11A1.28,1.28,0,0,0,22.23,13H33.68A1.28,1.28,0,0,0,34.78,11L29.06,1.14A1.28,1.28,0,0,0,26.85,1.14Z" class="clr-i-outline--alerted clr-i-outline-path-19--alerted clr-i-alert"></path>
    <rect x="0" y="0" width="36" height="36" fill-opacity="0"/>
</svg>