<svg version="1.1" width="36" height="36"  viewBox="0 0 36 36" preserveAspectRatio="xMidYMid meet" xmlns="http://www.w3.org/2000/svg" xmlns:xlink="http://www.w3.org/1999/xlink">
    <title>cluster-solid</title>
    <path d="M31.36,8H27.5V32H33V9.67A1.65,1.65,0,0,0,31.36,8Z" class="clr-i-solid clr-i-solid-path-1"></path><path d="M3,9.67V32H8.5V8H4.64A1.65,1.65,0,0,0,3,9.67Z" class="clr-i-solid clr-i-solid-path-2"></path><path d="M24.32,4H11.68A1.68,1.68,0,0,0,10,5.68V32H26V5.68A1.68,1.68,0,0,0,24.32,4ZM18,27.79A1.79,1.79,0,1,1,19.81,26,1.8,1.8,0,0,1,18,27.79ZM23,10.6H13V9H23Z" class="clr-i-solid clr-i-solid-path-3"></path>
    <rect x="0" y="0" width="36" height="36" fill-opacity="0"/>
</svg>