<svg version="1.1" width="36" height="36"  viewBox="0 0 36 36" preserveAspectRatio="xMidYMid meet" xmlns="http://www.w3.org/2000/svg" xmlns:xlink="http://www.w3.org/1999/xlink">
    <title>cluster-solid-alerted</title>
    <path d="M3,9.67V32H8.5V8H4.64A1.65,1.65,0,0,0,3,9.67Z" class="clr-i-solid--alerted clr-i-solid-path-1--alerted"></path><rect x="27.5" y="15.4" width="5.5" height="16.6" class="clr-i-solid--alerted clr-i-solid-path-2--alerted"></rect><path d="M19,13.56a3.68,3.68,0,0,1-.31-3H13V9h6.56l2.89-5H11.68A1.68,1.68,0,0,0,10,5.68V32H26V15.4H22.23A3.69,3.69,0,0,1,19,13.56ZM18,27.79A1.79,1.79,0,1,1,19.81,26,1.8,1.8,0,0,1,18,27.79Z" class="clr-i-solid--alerted clr-i-solid-path-3--alerted"></path><path d="M26.85,1.14,21.13,11A1.28,1.28,0,0,0,22.23,13H33.68A1.28,1.28,0,0,0,34.78,11L29.06,1.14A1.28,1.28,0,0,0,26.85,1.14Z" class="clr-i-solid--alerted clr-i-solid-path-4--alerted clr-i-alert"></path>
    <rect x="0" y="0" width="36" height="36" fill-opacity="0"/>
</svg>