<svg version="1.1" width="36" height="36"  viewBox="0 0 36 36" preserveAspectRatio="xMidYMid meet" xmlns="http://www.w3.org/2000/svg" xmlns:xlink="http://www.w3.org/1999/xlink">
    <title>command-line</title>
    <path d="M32,5H4A2,2,0,0,0,2,7V29a2,2,0,0,0,2,2H32a2,2,0,0,0,2-2V7A2,2,0,0,0,32,5ZM4,7H32V9.2H4ZM4,29V10.8H32V29Z" class="clr-i-outline clr-i-outline-path-1"></path><rect x="17" y="23" width="6" height="2" class="clr-i-outline clr-i-outline-path-2"></rect><polygon points="7 15.68 13.79 18.8 7 21.91 7 24.11 16.6 19.7 16.6 17.89 7 13.48 7 15.68" class="clr-i-outline clr-i-outline-path-3"></polygon>
    <rect x="0" y="0" width="36" height="36" fill-opacity="0"/>
</svg>