<svg version="1.1" width="36" height="36"  viewBox="0 0 36 36" preserveAspectRatio="xMidYMid meet" xmlns="http://www.w3.org/2000/svg" xmlns:xlink="http://www.w3.org/1999/xlink">
    <title>dashboard-solid</title>
    <path class="clr-i-solid clr-i-solid-path-1" d="M18,4.25A16.49,16.49,0,0,0,5.4,31.4l.3.35H30.3l.3-.35A16.49,16.49,0,0,0,18,4.25Zm8.6,9.48-5.92,5.81a3,3,0,1,1-1.41-1.42l5.91-5.81Zm-23,6.17H7v2H3.56c0-.39-.05-.77-.05-1.17S3.53,20.18,3.55,19.9Zm4.88-10,2.46,2.46L9.47,13.74,7,11.29A14.57,14.57,0,0,1,8.43,9.87ZM19,9.79H17V6.29c.32,0,.63,0,1,0s.7,0,1,.05ZM32.49,20.74c0,.39,0,.79-.05,1.17H28.92v-2h3.53C32.47,20.18,32.49,20.46,32.49,20.74Z"></path>
    <rect x="0" y="0" width="36" height="36" fill-opacity="0"/>
</svg>