<svg version="1.1" width="36" height="36"  viewBox="0 0 36 36" preserveAspectRatio="xMidYMid meet" xmlns="http://www.w3.org/2000/svg" xmlns:xlink="http://www.w3.org/1999/xlink">
    <title>display-solid</title>
    <path d="M26,32H24.26a3.61,3.61,0,0,1-1.5-2.52V28.13H13.24V29.5A3.61,3.61,0,0,1,11.74,32H9.94a1,1,0,1,0,0,2H26.06a.92.92,0,0,0,1-1A1,1,0,0,0,26,32Z" class="clr-i-solid clr-i-solid-path-1"></path><path d="M32.5,3H3.5A1.5,1.5,0,0,0,2,4.5v21A1.5,1.5,0,0,0,3.5,27h29A1.5,1.5,0,0,0,34,25.5V4.5A1.5,1.5,0,0,0,32.5,3ZM31,21.83H5V7H31Z" class="clr-i-solid clr-i-solid-path-2"></path>
    <rect x="0" y="0" width="36" height="36" fill-opacity="0"/>
</svg>