<svg version="1.1" width="36" height="36"  viewBox="0 0 36 36" preserveAspectRatio="xMidYMid meet" xmlns="http://www.w3.org/2000/svg" xmlns:xlink="http://www.w3.org/1999/xlink">
    <title>floppy-outline-alerted</title>
    <path d="M30,15.4V30H27V22a2,2,0,0,0-2-2H11a2,2,0,0,0-2,2v8H6V6h4v6a2,2,0,0,0,2,2h7.35a3.54,3.54,0,0,1-.77-2H12V6h9.29l1.15-2H6A2,2,0,0,0,4,6V30a2,2,0,0,0,2,2H30a2,2,0,0,0,2-2V15.4ZM25,30H11V22H25Z" class="clr-i-outline--alerted clr-i-outline-path-1--alerted"></path><path d="M26.85,1.14,21.13,11A1.28,1.28,0,0,0,22.23,13H33.68A1.28,1.28,0,0,0,34.78,11L29.06,1.14A1.28,1.28,0,0,0,26.85,1.14Z" class="clr-i-outline--alerted clr-i-outline-path-2--alerted clr-i-alert"></path>
    <rect x="0" y="0" width="36" height="36" fill-opacity="0"/>
</svg>