<svg version="1.1" width="36" height="36"  viewBox="0 0 36 36" preserveAspectRatio="xMidYMid meet" xmlns="http://www.w3.org/2000/svg" xmlns:xlink="http://www.w3.org/1999/xlink">
    <title>floppy-line</title>
    <path d="M27.36,4H6A2,2,0,0,0,4,6V30a2,2,0,0,0,2,2H30a2,2,0,0,0,2-2V8.78ZM25,30H11V22H25Zm5,0H27V22a2,2,0,0,0-2-2H11a2,2,0,0,0-2,2v8H6V6h4v6a2,2,0,0,0,2,2H24a2,2,0,0,0,2-2H12V6H26.51L30,9.59Z" class="clr-i-outline clr-i-outline-path-1"></path>
    <rect x="0" y="0" width="36" height="36" fill-opacity="0"/>
</svg>