<svg version="1.1" width="36" height="36"  viewBox="0 0 36 36" preserveAspectRatio="xMidYMid meet" xmlns="http://www.w3.org/2000/svg" xmlns:xlink="http://www.w3.org/1999/xlink">
    <title>hard-disk-outline-alerted</title>
    <rect class="clr-i-outline--alerted clr-i-outline-path-1--alerted" x="6" y="20" width="24" height="2"></rect><rect class="clr-i-outline--alerted clr-i-outline-path-2--alerted" x="26" y="24" width="4" height="2"></rect><path class="clr-i-outline--alerted clr-i-outline-path-3--alerted" d="M34,21.08l-1.4-5.68H30.51l1.49,6V29H4V21.44L7.06,9h12.5l1.15-2H7.06A2,2,0,0,0,5.13,8.47L2,21.08a1,1,0,0,0,0,.24V29a2,2,0,0,0,2,2H32a2,2,0,0,0,2-2V21.31A1,1,0,0,0,34,21.08Z"></path><path class="clr-i-outline--alerted clr-i-outline-path-4--alerted clr-i-alert" d="M26.85,1.14,21.13,11A1.28,1.28,0,0,0,22.23,13H33.68A1.28,1.28,0,0,0,34.78,11L29.06,1.14A1.28,1.28,0,0,0,26.85,1.14Z"></path>
    <rect x="0" y="0" width="36" height="36" fill-opacity="0"/>
</svg>