<svg version="1.1" width="36" height="36"  viewBox="0 0 36 36" preserveAspectRatio="xMidYMid meet" xmlns="http://www.w3.org/2000/svg" xmlns:xlink="http://www.w3.org/1999/xlink">
    <title>host-solid</title>
    <path class="clr-i-solid clr-i-solid-path-1" d="M26.5,2h-17C8.7,2,8,2.7,8,3.5V34h20V3.5C28,2.7,27.3,2,26.5,2z M18,30.5c-1.5,0-2.8-1.2-2.8-2.8S16.5,25,18,25s2.8,1.2,2.8,2.8S19.5,30.5,18,30.5z M23,22.6H13V21h10V22.6z M24,11.6H12V10h12V11.6z M24,7.6H12V6h12V7.6z"></path><circle class="clr-i-solid clr-i-solid-path-2" cx="18" cy="27.8" r="1.2"></circle>
    <rect x="0" y="0" width="36" height="36" fill-opacity="0"/>
</svg>