<svg version="1.1" width="36" height="36"  viewBox="0 0 36 36" preserveAspectRatio="xMidYMid meet" xmlns="http://www.w3.org/2000/svg" xmlns:xlink="http://www.w3.org/1999/xlink">
    <title>import-outline-alerted</title>
    <path d="M11.94,26.28a1,1,0,1,0,1.41,1.41L19,22l-5.68-5.68a1,1,0,0,0-1.41,1.41L15.2,21H3a1,1,0,1,0,0,2H15.23Z" class="clr-i-outline--alerted clr-i-outline-path-1--alerted"></path><path d="M28,15.4V30H8a2,2,0,0,0,2,2H28a2,2,0,0,0,2-2V15.4Z" class="clr-i-outline--alerted clr-i-outline-path-2--alerted"></path><path d="M10,13.61h7.61V6h3.68l1.15-2H14.87L8,10.86V15h2Zm0-1.92L15.7,6H16v6H10Z" class="clr-i-outline--alerted clr-i-outline-path-3--alerted"></path><path d="M26.85,1.14,21.13,11A1.28,1.28,0,0,0,22.23,13H33.68A1.28,1.28,0,0,0,34.78,11L29.06,1.14A1.28,1.28,0,0,0,26.85,1.14Z" class="clr-i-outline--alerted clr-i-outline-path-4--alerted clr-i-alert"></path>
    <rect x="0" y="0" width="36" height="36" fill-opacity="0"/>
</svg>