<svg version="1.1" width="36" height="36"  viewBox="0 0 36 36" preserveAspectRatio="xMidYMid meet" xmlns="http://www.w3.org/2000/svg" xmlns:xlink="http://www.w3.org/1999/xlink">
    <title>keyboard-solid</title>
    <path class="clr-i-solid clr-i-solid-path-1" d="M32,8H4a2,2,0,0,0-2,2V26a2,2,0,0,0,2,2H32a2,2,0,0,0,2-2V10A2,2,0,0,0,32,8ZM19,13h2v2H19Zm0,4h2v2H19Zm-4-4h2v2H15Zm0,4h2v2H15Zm-4-4h2v2H11ZM9,24H7V22H9Zm0-5H7V17H9Zm0-4H7V13H9Zm2,2h2v2H11Zm13.88,7H11.13V22H24.88ZM25,19H23V17h2Zm0-4H23V13h2Zm3.94,9H27V22h1.94ZM29,19H27V17h2Zm0-4H27V13h2Z"></path>
    <rect x="0" y="0" width="36" height="36" fill-opacity="0"/>
</svg>