<svg version="1.1" width="36" height="36"  viewBox="0 0 36 36" preserveAspectRatio="xMidYMid meet" xmlns="http://www.w3.org/2000/svg" xmlns:xlink="http://www.w3.org/1999/xlink">
    <title>network-globe-solid-alerted</title>
    <path d="M26.58,32h-18a1,1,0,1,0,0,2h18a1,1,0,0,0,0-2Z" class="clr-i-solid--alerted clr-i-solid-path-1--alerted"></path><path d="M31.73,15.4H25.56a18.87,18.87,0,0,1-1.62,2.52,2.33,2.33,0,0,1,.33,1.19,22,22,0,0,0,5,.45,11.88,11.88,0,0,1-.61,1.53H28.1a17.41,17.41,0,0,1-4.32-.56,2.29,2.29,0,0,1-3,.62,18.43,18.43,0,0,1-7,3.5,2.34,2.34,0,0,1-1.57,1.79l-.29.06a11.93,11.93,0,0,1-3.39-2.8l.66,0a2.33,2.33,0,0,1,4.37-.58A16.94,16.94,0,0,0,19.78,20a2.32,2.32,0,0,1-.18-1.17c-.42-.24-.84-.49-1.25-.76A17.53,17.53,0,0,1,13,12.47a2.31,2.31,0,0,1-2.28-.63,27.31,27.31,0,0,0-5,4.74c0-.2,0-.39,0-.57a12,12,0,0,1,.14-1.73,18.75,18.75,0,0,1,4.2-3.8,2.28,2.28,0,0,1,1.1-2.25c-.12-.43-.24-.86-.33-1.3,0-.14,0-.29-.11-.64a12,12,0,0,1,1.37-.87c.1.59.14.9.21,1.21s.2.85.32,1.27l.25,0A2.33,2.33,0,0,1,14,8.53a18.59,18.59,0,0,1,6.39-1L23,3A14,14,0,0,0,3.75,16c0,.45,0,.89.07,1.33l0,0h0A14,14,0,0,0,31.76,16C31.76,15.8,31.74,15.6,31.73,15.4Z" class="clr-i-solid--alerted clr-i-solid-path-2--alerted"></path><path d="M14.26,11.64a16,16,0,0,0,4.93,5.23c.34.23.69.43,1,.63a2.28,2.28,0,0,1,2.58-.57,17.29,17.29,0,0,0,1-1.54h-1.6A3.68,3.68,0,0,1,19,9.89L19.56,9a17.08,17.08,0,0,0-4.84.88,2.25,2.25,0,0,1-.47,1.77Z" class="clr-i-solid--alerted clr-i-solid-path-3--alerted"></path><path d="M26.85,1.14,21.13,11A1.28,1.28,0,0,0,22.23,13H33.68A1.28,1.28,0,0,0,34.78,11L29.06,1.14A1.28,1.28,0,0,0,26.85,1.14Z" class="clr-i-solid--alerted clr-i-solid-path-4--alerted clr-i-alert"></path>
    <rect x="0" y="0" width="36" height="36" fill-opacity="0"/>
</svg>