<svg version="1.1" width="36" height="36"  viewBox="0 0 36 36" preserveAspectRatio="xMidYMid meet" xmlns="http://www.w3.org/2000/svg" xmlns:xlink="http://www.w3.org/1999/xlink">
    <title>network-globe-line</title>
    <path d="M26.58,32h-18a1,1,0,1,0,0,2h18a1,1,0,0,0,0-2Z" class="clr-i-outline clr-i-outline-path-1"></path><path d="M17.75,2a14,14,0,0,0-14,14c0,.45,0,.89.07,1.33l0,0h0A14,14,0,1,0,17.75,2Zm0,2a12,12,0,0,1,8.44,3.48c0,.33,0,.66,0,1A18.51,18.51,0,0,0,14,8.53a2.33,2.33,0,0,0-1.14-.61l-.25,0c-.12-.42-.23-.84-.32-1.27s-.14-.81-.19-1.22A11.92,11.92,0,0,1,17.75,4Zm-3,5.87A17,17,0,0,1,25.92,10a16.9,16.9,0,0,1-3.11,7,2.28,2.28,0,0,0-2.58.57c-.35-.2-.7-.4-1-.63a16,16,0,0,1-4.93-5.23,2.25,2.25,0,0,0,.47-1.77Zm-4-3.6c0,.21.06.43.1.64.09.44.21.87.33,1.3a2.28,2.28,0,0,0-1.1,2.25A18.32,18.32,0,0,0,5.9,14.22,12,12,0,0,1,10.76,6.27Zm0,15.71A2.34,2.34,0,0,0,9.2,23.74l-.64,0A11.94,11.94,0,0,1,5.8,16.92l.11-.19a16.9,16.9,0,0,1,4.81-4.89,2.31,2.31,0,0,0,2.28.63,17.53,17.53,0,0,0,5.35,5.65c.41.27.83.52,1.25.76A2.32,2.32,0,0,0,19.78,20a16.94,16.94,0,0,1-6.2,3.11A2.34,2.34,0,0,0,10.76,22Zm7,6a11.92,11.92,0,0,1-5.81-1.51l.28-.06a2.34,2.34,0,0,0,1.57-1.79,18.43,18.43,0,0,0,7-3.5,2.29,2.29,0,0,0,3-.62,17.41,17.41,0,0,0,4.32.56l.53,0A12,12,0,0,1,17.75,28Zm6.51-8.9a2.33,2.33,0,0,0-.33-1.19,18.4,18.4,0,0,0,3.39-7.37q.75.35,1.48.78a12,12,0,0,1,.42,8.2A16,16,0,0,1,24.27,19.11Z" class="clr-i-outline clr-i-outline-path-2"></path>
    <rect x="0" y="0" width="36" height="36" fill-opacity="0"/>
</svg>