<svg version="1.1" width="36" height="36"  viewBox="0 0 36 36" preserveAspectRatio="xMidYMid meet" xmlns="http://www.w3.org/2000/svg" xmlns:xlink="http://www.w3.org/1999/xlink">
    <title>vm-outline-alerted</title>
    <path d="M11,5H21.87L23,3H11A2,2,0,0,0,9,5v6.85h2Z" class="clr-i-outline--alerted clr-i-outline-path-1--alerted"></path><rect x="25.01" y="15.4" width="1.99" height="2.6" class="clr-i-outline--alerted clr-i-outline-path-2--alerted"></rect><path d="M30,15.4V26H22V17a2,2,0,0,0-2-2H6a2,2,0,0,0-2,2V31a2,2,0,0,0,2,2H20a2,2,0,0,0,2-2V28h8a2,2,0,0,0,2-2V15.4ZM6,31V17H20v9H16V20H14v6a2,2,0,0,0,2,2h4v3Z" class="clr-i-outline--alerted clr-i-outline-path-3--alerted"></path><path d="M17,10v2h1.57A3.67,3.67,0,0,1,19,10Z" class="clr-i-outline--alerted clr-i-outline-path-4--alerted"></path><path d="M26.85,1.14,21.13,11A1.28,1.28,0,0,0,22.23,13H33.68A1.28,1.28,0,0,0,34.78,11L29.06,1.14A1.28,1.28,0,0,0,26.85,1.14Z" class="clr-i-outline--alerted clr-i-outline-path-5--alerted clr-i-alert"></path>
    <rect x="0" y="0" width="36" height="36" fill-opacity="0"/>
</svg>