<?xml version="1.0" encoding="UTF-8"?>
<svg width="142px" height="334px" viewBox="0 0 142 334" version="1.1" xmlns="http://www.w3.org/2000/svg" xmlns:xlink="http://www.w3.org/1999/xlink">
    <!-- Generator: Sketch 42 (36781) - http://www.bohemiancoding.com/sketch -->
    <title>example_tree_icons</title>
    <desc>Created with Sketch.</desc>
    <defs>
        <polygon id="path-1" points="16 13.9998 16 0 0.0002 0 0.0002 13.9998 16 13.9998"></polygon>
        <polygon id="path-3" points="16 13.9998 16 0 0.0002 0 0.0002 13.9998 16 13.9998"></polygon>
        <polygon id="path-5" points="16 13.9998 16 0 0.0002 0 0.0002 13.9998 16 13.9998"></polygon>
    </defs>
    <g id="Page-1-New-Layout" stroke="none" stroke-width="1" fill="none" fill-rule="evenodd">
        <g id="Outlined-Text" transform="translate(-707.000000, -835.000000)">
            <g id="example_tree_icons" transform="translate(695.000000, 826.000000)">
                <g id="calendar" transform="translate(59.000000, 41.000000)">
                    <g id="icons" fill-rule="nonzero" fill="#747474">
                        <path d="M14.6666667,1.93939394 L13.0909091,1.93939394 L13.0909091,2.90909091 L14.5454545,2.90909091 L14.5454545,13.5757576 L0.96969697,13.5757576 L0.96969697,2.90909091 L2.42424242,2.90909091 L2.42424242,1.93939394 L0.848484848,1.93939394 C0.619584468,1.94321929 0.401582731,2.03783501 0.242454027,2.20241956 C0.0833253219,2.3670041 -0.00389037242,2.58807041 1.32313404e-13,2.8169697 L1.32313404e-13,13.6678788 C-0.00389037242,13.8967781 0.0833253219,14.1178444 0.242454027,14.2824289 C0.401582731,14.4470135 0.619584468,14.5416292 0.848484848,14.5454545 L14.6666667,14.5454545 C14.895567,14.5416292 15.1135688,14.4470135 15.2726975,14.2824289 C15.4318262,14.1178444 15.5190419,13.8967781 15.5151515,13.6678788 L15.5151515,2.8169697 C15.5190419,2.58807041 15.4318262,2.3670041 15.2726975,2.20241956 C15.1135688,2.03783501 14.895567,1.94321929 14.6666667,1.93939394 L14.6666667,1.93939394 Z" id="Shape"></path>
                        <rect id="Rectangle-path" x="2.90909091" y="5.81818182" width="0.96969697" height="0.96969697"></rect>
                        <rect id="Rectangle-path" x="5.81818182" y="5.81818182" width="0.96969697" height="0.96969697"></rect>
                        <rect id="Rectangle-path" x="8.72727273" y="5.81818182" width="0.96969697" height="0.96969697"></rect>
                        <rect id="Rectangle-path" x="11.6363636" y="5.81818182" width="0.96969697" height="0.96969697"></rect>
                        <rect id="Rectangle-path" x="2.90909091" y="8.24242424" width="0.96969697" height="0.96969697"></rect>
                        <rect id="Rectangle-path" x="5.81818182" y="8.24242424" width="0.96969697" height="0.96969697"></rect>
                        <rect id="Rectangle-path" x="8.72727273" y="8.24242424" width="0.96969697" height="0.96969697"></rect>
                        <rect id="Rectangle-path" x="11.6363636" y="8.24242424" width="0.96969697" height="0.96969697"></rect>
                        <rect id="Rectangle-path" x="2.90909091" y="10.6666667" width="0.96969697" height="0.96969697"></rect>
                        <rect id="Rectangle-path" x="5.81818182" y="10.6666667" width="0.96969697" height="0.96969697"></rect>
                        <rect id="Rectangle-path" x="8.72727273" y="10.6666667" width="0.96969697" height="0.96969697"></rect>
                        <rect id="Rectangle-path" x="11.6363636" y="10.6666667" width="0.96969697" height="0.96969697"></rect>
                        <path d="M3.87878788,3.87878788 C4.1465623,3.87878788 4.36363636,3.66171382 4.36363636,3.39393939 L4.36363636,0.484848485 C4.36363636,0.217074061 4.1465623,0 3.87878788,0 C3.61101345,0 3.39393939,0.217074061 3.39393939,0.484848485 L3.39393939,3.39393939 C3.39393939,3.66171382 3.61101345,3.87878788 3.87878788,3.87878788 Z" id="Shape"></path>
                        <path d="M11.6363636,3.87878788 C11.9041381,3.87878788 12.1212121,3.66171382 12.1212121,3.39393939 L12.1212121,0.484848485 C12.1212121,0.217074061 11.9041381,0 11.6363636,0 C11.3685892,0 11.1515152,0.217074061 11.1515152,0.484848485 L11.1515152,3.39393939 C11.1515152,3.66171382 11.3685892,3.87878788 11.6363636,3.87878788 Z" id="Shape"></path>
                        <rect id="Rectangle-path" x="5.33333333" y="1.93939394" width="4.84848485" height="0.96969697"></rect>
                    </g>
                    <path d="M27.656,11.168 C28.986,11.168 30.218,10.594 31.114,9.698 L30.372,8.942 C29.672,9.684 28.706,10.16 27.656,10.16 C25.584,10.16 23.834,8.34 23.834,6.184 C23.834,4.042 25.584,2.222 27.656,2.222 C28.706,2.222 29.672,2.698 30.372,3.44 L31.114,2.684 C30.218,1.774 28.986,1.214 27.656,1.214 C24.996,1.214 22.728,3.482 22.728,6.184 C22.728,8.886 24.996,11.168 27.656,11.168 Z M35.524,3.594 C37.498,3.594 38.464,4.84 38.464,6.59 L38.464,11 L37.414,11 L37.414,9.866 C36.896,10.72 35.818,11.168 34.866,11.168 C33.34,11.168 32.22,10.286 32.22,8.858 C32.22,7.416 33.508,6.45 35.062,6.45 C35.846,6.45 36.672,6.618 37.414,6.856 L37.414,6.59 C37.414,5.61 37.022,4.49 35.454,4.49 C34.726,4.49 33.998,4.812 33.34,5.148 L32.92,4.294 C33.956,3.776 34.824,3.594 35.524,3.594 Z M35.048,10.244 C36,10.244 37.134,9.754 37.414,8.732 L37.414,7.626 C36.756,7.444 36.014,7.332 35.23,7.332 C34.152,7.332 33.242,7.948 33.242,8.816 C33.242,9.712 34.026,10.244 35.048,10.244 Z M40.606,11 L41.656,11 L41.656,1.214 L40.606,1.214 L40.606,11 Z M47.046,10.23 C47.9,10.23 48.88,9.852 49.328,9.362 L49.972,10.048 C49.342,10.734 48.068,11.168 47.06,11.168 C45.128,11.168 43.392,9.586 43.392,7.36 C43.392,5.204 45.016,3.594 46.962,3.594 C49.146,3.594 50.392,5.246 50.392,7.78 L44.47,7.78 C44.624,9.194 45.618,10.23 47.046,10.23 Z M47.004,4.532 C45.716,4.532 44.68,5.442 44.484,6.842 L49.356,6.842 C49.216,5.54 48.446,4.532 47.004,4.532 Z M55.558,3.594 C54.536,3.594 53.598,4.154 53.178,4.924 L53.178,3.762 L52.128,3.762 L52.128,11 L53.178,11 L53.178,6.394 C53.178,5.386 54.2,4.532 55.418,4.532 C56.482,4.532 57.224,5.358 57.224,6.534 L57.224,11 L58.274,11 L58.274,6.394 C58.274,4.756 57.154,3.594 55.558,3.594 Z M66.058,1.214 L67.108,1.214 L67.108,11 L66.058,11 L66.058,9.642 C65.512,10.594 64.588,11.168 63.426,11.168 C61.522,11.168 60.094,9.6 60.094,7.374 C60.094,5.162 61.522,3.594 63.426,3.594 C64.588,3.594 65.512,4.168 66.058,5.12 L66.058,1.214 Z M63.622,10.23 C65.05,10.23 66.058,9.04 66.058,7.374 C66.058,5.708 65.05,4.532 63.622,4.532 C62.208,4.532 61.2,5.708 61.2,7.374 C61.2,9.04 62.208,10.23 63.622,10.23 Z M72.274,3.594 C74.248,3.594 75.214,4.84 75.214,6.59 L75.214,11 L74.164,11 L74.164,9.866 C73.646,10.72 72.568,11.168 71.616,11.168 C70.09,11.168 68.97,10.286 68.97,8.858 C68.97,7.416 70.258,6.45 71.812,6.45 C72.596,6.45 73.422,6.618 74.164,6.856 L74.164,6.59 C74.164,5.61 73.772,4.49 72.204,4.49 C71.476,4.49 70.748,4.812 70.09,5.148 L69.67,4.294 C70.706,3.776 71.574,3.594 72.274,3.594 Z M71.798,10.244 C72.75,10.244 73.884,9.754 74.164,8.732 L74.164,7.626 C73.506,7.444 72.764,7.332 71.98,7.332 C70.902,7.332 69.992,7.948 69.992,8.816 C69.992,9.712 70.776,10.244 71.798,10.244 Z M78.504,5.176 L78.504,3.762 L77.454,3.762 L77.454,11 L78.504,11 L78.504,6.954 C78.504,5.54 79.666,4.532 81.304,4.532 L81.304,3.594 C79.974,3.594 78.938,4.21 78.504,5.176 Z" id="Calendar" fill="#565656"></path>
                </g>
                <g id="charts" transform="translate(59.000000, 74.000000)">
                    <g id="line_chart" fill-rule="nonzero" fill="#747474">
                        <g id="icons">
                            <path d="M15,0 L1,0 C0.44771525,0 0,0.44771525 0,1 L0,12 C0,12.5522847 0.44771525,13 1,13 L15,13 C15.5522847,13 16,12.5522847 16,12 L16,1 C16,0.44771525 15.5522847,0 15,0 Z M1,12 L1,1 L15,1 L15,12 L1,12 Z" id="Shape"></path>
                            <polygon id="Shape" points="10.14 10.25 6.805 5.28 3.825 9.64 1.71 7.765 2.375 7.02 3.64 8.14 6.815 3.5 10.19 8.53 13.485 4.175 14.285 4.775"></polygon>
                        </g>
                    </g>
                    <path d="M27.656,10.168 C28.986,10.168 30.218,9.594 31.114,8.698 L30.372,7.942 C29.672,8.684 28.706,9.16 27.656,9.16 C25.584,9.16 23.834,7.34 23.834,5.184 C23.834,3.042 25.584,1.222 27.656,1.222 C28.706,1.222 29.672,1.698 30.372,2.44 L31.114,1.684 C30.218,0.774 28.986,0.214 27.656,0.214 C24.996,0.214 22.728,2.482 22.728,5.184 C22.728,7.886 24.996,10.168 27.656,10.168 Z M36.028,2.594 C35.006,2.594 34.068,3.154 33.648,3.924 L33.648,0.214 L32.598,0.214 L32.598,10 L33.648,10 L33.648,5.394 C33.648,4.386 34.67,3.532 35.888,3.532 C36.952,3.532 37.694,4.358 37.694,5.534 L37.694,10 L38.744,10 L38.744,5.394 C38.744,3.756 37.624,2.594 36.028,2.594 Z M43.812,2.594 C45.786,2.594 46.752,3.84 46.752,5.59 L46.752,10 L45.702,10 L45.702,8.866 C45.184,9.72 44.106,10.168 43.154,10.168 C41.628,10.168 40.508,9.286 40.508,7.858 C40.508,6.416 41.796,5.45 43.35,5.45 C44.134,5.45 44.96,5.618 45.702,5.856 L45.702,5.59 C45.702,4.61 45.31,3.49 43.742,3.49 C43.014,3.49 42.286,3.812 41.628,4.148 L41.208,3.294 C42.244,2.776 43.112,2.594 43.812,2.594 Z M43.336,9.244 C44.288,9.244 45.422,8.754 45.702,7.732 L45.702,6.626 C45.044,6.444 44.302,6.332 43.518,6.332 C42.44,6.332 41.53,6.948 41.53,7.816 C41.53,8.712 42.314,9.244 43.336,9.244 Z M50.042,4.176 L50.042,2.762 L48.992,2.762 L48.992,10 L50.042,10 L50.042,5.954 C50.042,4.54 51.204,3.532 52.842,3.532 L52.842,2.594 C51.512,2.594 50.476,3.21 50.042,4.176 Z M57.476,8.936 C57.322,9.104 57.042,9.23 56.72,9.23 C56.3,9.23 55.936,8.852 55.936,8.32 L55.936,3.7 L57.714,3.7 L57.714,2.762 L55.936,2.762 L55.936,0.774 L54.886,0.774 L54.886,2.762 L53.752,2.762 L53.752,3.7 L54.886,3.7 L54.886,8.32 C54.886,9.398 55.614,10.168 56.65,10.168 C57.14,10.168 57.616,10 57.994,9.706 L57.476,8.936 Z M62.04,10.168 C63.538,10.168 64.686,9.314 64.686,7.984 C64.686,6.612 63.482,6.22 62.32,5.856 C60.976,5.422 60.444,5.226 60.444,4.596 C60.444,3.896 61.116,3.532 61.928,3.532 C62.572,3.532 63.286,3.756 64.014,4.218 L64.518,3.406 C63.748,2.902 62.824,2.594 61.928,2.594 C60.486,2.594 59.394,3.406 59.394,4.722 C59.394,5.758 60.066,6.276 61.816,6.78 C62.796,7.06 63.636,7.312 63.636,8.096 C63.636,8.782 62.992,9.23 62.04,9.23 C61.242,9.23 60.416,8.922 59.59,8.32 L59.044,9.09 C59.912,9.79 61.032,10.168 62.04,10.168 Z" id="Charts" fill="#565656"></path>
                </g>
                <g id="dashboard" transform="translate(59.000000, 105.000000)">
                    <g id="dashboard_line" fill-rule="nonzero" fill="#747474">
                        <g id="9a809e94-f62f-48dc-aff1-59dd84251427">
                            <g>
                                <path d="M11.3788235,3.91529412 L8.59764706,6.64941176 C7.97823501,6.3510446 7.23395646,6.54227442 6.83508674,7.10227191 C6.43621701,7.66226941 6.49875773,8.42817284 6.9831923,8.91604311 C7.46762686,9.40391338 8.23306919,9.47186522 8.79587153,9.07696298 C9.35867387,8.68206075 9.55515877,7.93915221 9.26117647,7.31764706 L12.0470588,4.58352941 L11.3788235,3.91529412 Z" id="Shape"></path>
                                <path d="M8,0.117647059 C4.97588645,0.114182371 2.22523344,1.86785426 0.952189486,4.61096087 C-0.320854465,7.35406748 0.115639519,10.5868573 2.07058824,12.8941176 L2.21176471,13.0588235 L13.7882353,13.0588235 L13.9294118,12.8941176 C15.8843605,10.5868573 16.3208545,7.35406748 15.0478105,4.61096087 C13.7747666,1.86785426 11.0241136,0.114182371 8,0.117647059 L8,0.117647059 Z M13.3364706,12.1176471 L2.66352941,12.1176471 C1.81914299,11.061041 1.30952638,9.77634833 1.2,8.42823529 L2.82352941,8.42823529 L2.82352941,7.48705882 L1.2,7.48705882 C1.2788076,5.99281243 1.84962775,4.56658933 2.82352941,3.43058824 L3.97647059,4.58352941 L4.64,3.92 L3.49647059,2.76235294 C4.61800732,1.77107558 6.03600675,1.17872576 7.52941176,1.07764706 L7.52941176,2.72470588 L8.47058824,2.72470588 L8.47058824,1.08235294 C11.883106,1.32983156 14.5820826,4.0711056 14.7764706,7.48705882 L13.1388235,7.48705882 L13.1388235,8.42823529 L14.8,8.42823529 C14.6904736,9.77634833 14.180857,11.061041 13.3364706,12.1176471 Z" id="Shape"></path>
                            </g>
                        </g>
                    </g>
                    <path d="M23.316,11 L23.316,1.382 L26.564,1.382 C29.616,1.382 31.772,3.37 31.772,6.184 C31.772,8.998 29.616,11 26.564,11 L23.316,11 Z M24.408,10.006 L26.564,10.006 C28.972,10.006 30.666,8.424 30.666,6.184 C30.666,3.958 28.972,2.376 26.564,2.376 L24.408,2.376 L24.408,10.006 Z M36.672,3.594 C38.646,3.594 39.612,4.84 39.612,6.59 L39.612,11 L38.562,11 L38.562,9.866 C38.044,10.72 36.966,11.168 36.014,11.168 C34.488,11.168 33.368,10.286 33.368,8.858 C33.368,7.416 34.656,6.45 36.21,6.45 C36.994,6.45 37.82,6.618 38.562,6.856 L38.562,6.59 C38.562,5.61 38.17,4.49 36.602,4.49 C35.874,4.49 35.146,4.812 34.488,5.148 L34.068,4.294 C35.104,3.776 35.972,3.594 36.672,3.594 Z M36.196,10.244 C37.148,10.244 38.282,9.754 38.562,8.732 L38.562,7.626 C37.904,7.444 37.162,7.332 36.378,7.332 C35.3,7.332 34.39,7.948 34.39,8.816 C34.39,9.712 35.174,10.244 36.196,10.244 Z M44.316,11.168 C45.814,11.168 46.962,10.314 46.962,8.984 C46.962,7.612 45.758,7.22 44.596,6.856 C43.252,6.422 42.72,6.226 42.72,5.596 C42.72,4.896 43.392,4.532 44.204,4.532 C44.848,4.532 45.562,4.756 46.29,5.218 L46.794,4.406 C46.024,3.902 45.1,3.594 44.204,3.594 C42.762,3.594 41.67,4.406 41.67,5.722 C41.67,6.758 42.342,7.276 44.092,7.78 C45.072,8.06 45.912,8.312 45.912,9.096 C45.912,9.782 45.268,10.23 44.316,10.23 C43.518,10.23 42.692,9.922 41.866,9.32 L41.32,10.09 C42.188,10.79 43.308,11.168 44.316,11.168 Z M52.142,3.594 C51.12,3.594 50.182,4.154 49.762,4.924 L49.762,1.214 L48.712,1.214 L48.712,11 L49.762,11 L49.762,6.394 C49.762,5.386 50.784,4.532 52.002,4.532 C53.066,4.532 53.808,5.358 53.808,6.534 L53.808,11 L54.858,11 L54.858,6.394 C54.858,4.756 53.738,3.594 52.142,3.594 Z M60.766,3.594 C62.67,3.594 64.098,5.162 64.098,7.374 C64.098,9.6 62.67,11.168 60.766,11.168 C59.604,11.168 58.68,10.594 58.134,9.642 L58.134,11 L57.084,11 L57.084,1.214 L58.134,1.214 L58.134,5.12 C58.68,4.168 59.604,3.594 60.766,3.594 Z M60.57,10.23 C61.984,10.23 62.992,9.04 62.992,7.374 C62.992,5.708 61.984,4.532 60.57,4.532 C59.142,4.532 58.134,5.708 58.134,7.374 C58.134,9.04 59.142,10.23 60.57,10.23 Z M69.278,11.168 C67.248,11.168 65.526,9.432 65.526,7.374 C65.526,5.316 67.248,3.594 69.278,3.594 C71.308,3.594 73.016,5.316 73.016,7.374 C73.016,9.432 71.308,11.168 69.278,11.168 Z M69.278,10.23 C70.706,10.23 71.91,8.928 71.91,7.374 C71.91,5.834 70.706,4.532 69.278,4.532 C67.836,4.532 66.632,5.834 66.632,7.374 C66.632,8.928 67.836,10.23 69.278,10.23 Z M77.692,3.594 C79.666,3.594 80.632,4.84 80.632,6.59 L80.632,11 L79.582,11 L79.582,9.866 C79.064,10.72 77.986,11.168 77.034,11.168 C75.508,11.168 74.388,10.286 74.388,8.858 C74.388,7.416 75.676,6.45 77.23,6.45 C78.014,6.45 78.84,6.618 79.582,6.856 L79.582,6.59 C79.582,5.61 79.19,4.49 77.622,4.49 C76.894,4.49 76.166,4.812 75.508,5.148 L75.088,4.294 C76.124,3.776 76.992,3.594 77.692,3.594 Z M77.216,10.244 C78.168,10.244 79.302,9.754 79.582,8.732 L79.582,7.626 C78.924,7.444 78.182,7.332 77.398,7.332 C76.32,7.332 75.41,7.948 75.41,8.816 C75.41,9.712 76.194,10.244 77.216,10.244 Z M83.922,5.176 L83.922,3.762 L82.872,3.762 L82.872,11 L83.922,11 L83.922,6.954 C83.922,5.54 85.084,4.532 86.722,4.532 L86.722,3.594 C85.392,3.594 84.356,4.21 83.922,5.176 Z M93.834,1.214 L94.884,1.214 L94.884,11 L93.834,11 L93.834,9.642 C93.288,10.594 92.364,11.168 91.202,11.168 C89.298,11.168 87.87,9.6 87.87,7.374 C87.87,5.162 89.298,3.594 91.202,3.594 C92.364,3.594 93.288,4.168 93.834,5.12 L93.834,1.214 Z M91.398,10.23 C92.826,10.23 93.834,9.04 93.834,7.374 C93.834,5.708 92.826,4.532 91.398,4.532 C89.984,4.532 88.976,5.708 88.976,7.374 C88.976,9.04 89.984,10.23 91.398,10.23 Z" id="Dashboard" fill="#565656"></path>
                </g>
                <g id="maps" transform="translate(61.000000, 136.000000)">
                    <g id="location" fill-rule="nonzero" fill="#747474">
                        <g id="icons">
                            <path d="M5.75058824,8.07058824 C4.26136865,8.07058824 3.05411765,6.86333723 3.05411765,5.37411765 C3.05411765,3.88489806 4.26136865,2.67764706 5.75058824,2.67764706 C7.23980782,2.67764706 8.44705882,3.88489806 8.44705882,5.37411765 C8.44705882,6.08926611 8.1629672,6.77512396 7.65728087,7.28081029 C7.15159454,7.78649661 6.4657367,8.07058824 5.75058824,8.07058824 Z M5.75058824,3.61882353 C4.78116606,3.61882353 3.99529412,4.40469547 3.99529412,5.37411765 C3.99529412,6.34353982 4.78116606,7.12941176 5.75058824,7.12941176 C6.72001041,7.12941176 7.50588235,6.34353982 7.50588235,5.37411765 C7.50588235,4.40469547 6.72001041,3.61882353 5.75058824,3.61882353 L5.75058824,3.61882353 Z" id="Shape"></path>
                            <path d="M5.75058824,15.7835294 L5.39294118,15.3647059 C4.36685716,14.1593946 3.40248433,12.9028828 2.50352941,11.6 L2.35294118,11.3552941 C1.45411765,10.0141176 0.216470588,8.17882353 0.216470588,5.97647059 C0.216470588,2.91486383 2.69839325,0.432941176 5.76,0.432941176 C8.82160675,0.432941176 11.3035294,2.91486383 11.3035294,5.97647059 C11.3035294,8.17411765 10.0705882,10.0094118 9.17176471,11.3505882 L9.00705882,11.6 C8.10796741,12.9027834 7.14359978,14.1592885 6.11764706,15.3647059 L5.75058824,15.7835294 Z M5.75058824,1.37882353 C3.2098541,1.38141744 1.15082921,3.44044234 1.14823529,5.98117647 C1.14823529,7.89176471 2.28705882,9.59529412 3.12470588,10.8329412 L3.28941176,11.0823529 C4.09882353,12.2964706 5.17176471,13.6564706 5.75058824,14.3294118 C6.30588235,13.6564706 7.40235294,12.2964706 8.21176471,11.0823529 L8.38117647,10.8329412 C9.21411765,9.59058824 10.3529412,7.89176471 10.3529412,5.98117647 C10.3503473,3.44044234 8.29132237,1.38141744 5.75058824,1.37882353 L5.75058824,1.37882353 Z" id="Shape"></path>
                        </g>
                    </g>
                    <path d="M21.316,12 L22.408,12 L22.408,4.734 L25.978,11.44 L29.548,4.734 L29.548,12 L30.64,12 L30.64,2.382 L29.548,2.382 L25.978,9.088 L22.408,2.382 L21.316,2.382 L21.316,12 Z M35.96,4.594 C37.934,4.594 38.9,5.84 38.9,7.59 L38.9,12 L37.85,12 L37.85,10.866 C37.332,11.72 36.254,12.168 35.302,12.168 C33.776,12.168 32.656,11.286 32.656,9.858 C32.656,8.416 33.944,7.45 35.498,7.45 C36.282,7.45 37.108,7.618 37.85,7.856 L37.85,7.59 C37.85,6.61 37.458,5.49 35.89,5.49 C35.162,5.49 34.434,5.812 33.776,6.148 L33.356,5.294 C34.392,4.776 35.26,4.594 35.96,4.594 Z M35.484,11.244 C36.436,11.244 37.57,10.754 37.85,9.732 L37.85,8.626 C37.192,8.444 36.45,8.332 35.666,8.332 C34.588,8.332 33.678,8.948 33.678,9.816 C33.678,10.712 34.462,11.244 35.484,11.244 Z M44.822,4.594 C46.726,4.594 48.154,6.162 48.154,8.374 C48.154,10.6 46.726,12.168 44.822,12.168 C43.66,12.168 42.736,11.594 42.19,10.642 L42.19,14.408 L41.14,14.408 L41.14,4.762 L42.19,4.762 L42.19,6.12 C42.736,5.168 43.66,4.594 44.822,4.594 Z M44.626,11.23 C46.04,11.23 47.048,10.04 47.048,8.374 C47.048,6.708 46.04,5.532 44.626,5.532 C43.198,5.532 42.19,6.708 42.19,8.374 C42.19,10.04 43.198,11.23 44.626,11.23 Z M52.536,12.168 C54.034,12.168 55.182,11.314 55.182,9.984 C55.182,8.612 53.978,8.22 52.816,7.856 C51.472,7.422 50.94,7.226 50.94,6.596 C50.94,5.896 51.612,5.532 52.424,5.532 C53.068,5.532 53.782,5.756 54.51,6.218 L55.014,5.406 C54.244,4.902 53.32,4.594 52.424,4.594 C50.982,4.594 49.89,5.406 49.89,6.722 C49.89,7.758 50.562,8.276 52.312,8.78 C53.292,9.06 54.132,9.312 54.132,10.096 C54.132,10.782 53.488,11.23 52.536,11.23 C51.738,11.23 50.912,10.922 50.086,10.32 L49.54,11.09 C50.408,11.79 51.528,12.168 52.536,12.168 Z" id="Maps" fill="#565656"></path>
                </g>
                <g id="mail" transform="translate(60.000000, 170.000000)">
                    <g id="email" fill-rule="nonzero" fill="#747474">
                        <g id="icons">
                            <path d="M15,0 L1,0 C0.44771525,0 0,0.44771525 0,1 L0,11 C0,11.5522847 0.44771525,12 1,12 L15,12 C15.5522847,12 16,11.5522847 16,11 L16,1 C16,0.44771525 15.5522847,0 15,0 Z M14.23,11 L1.83,11 L5.33,7.38 L4.61,6.685 L1,10.42 L1,1.76 L7.215,7.945 C7.60503745,8.33272359 8.23496255,8.33272359 8.625,7.945 L15,1.605 L15,10.355 L11.32,6.675 L10.615,7.38 L14.23,11 Z M1.655,1 L14.19,1 L7.92,7.235 L1.655,1 Z" id="Shape"></path>
                        </g>
                    </g>
                    <path d="M22.316,10 L23.408,10 L23.408,2.734 L26.978,9.44 L30.548,2.734 L30.548,10 L31.64,10 L31.64,0.382 L30.548,0.382 L26.978,7.088 L23.408,0.382 L22.316,0.382 L22.316,10 Z M36.96,2.594 C38.934,2.594 39.9,3.84 39.9,5.59 L39.9,10 L38.85,10 L38.85,8.866 C38.332,9.72 37.254,10.168 36.302,10.168 C34.776,10.168 33.656,9.286 33.656,7.858 C33.656,6.416 34.944,5.45 36.498,5.45 C37.282,5.45 38.108,5.618 38.85,5.856 L38.85,5.59 C38.85,4.61 38.458,3.49 36.89,3.49 C36.162,3.49 35.434,3.812 34.776,4.148 L34.356,3.294 C35.392,2.776 36.26,2.594 36.96,2.594 Z M36.484,9.244 C37.436,9.244 38.57,8.754 38.85,7.732 L38.85,6.626 C38.192,6.444 37.45,6.332 36.666,6.332 C35.588,6.332 34.678,6.948 34.678,7.816 C34.678,8.712 35.462,9.244 36.484,9.244 Z M42.56,1.446 C42.938,1.446 43.246,1.124 43.246,0.746 C43.246,0.382 42.938,0.06 42.56,0.06 C42.168,0.06 41.86,0.382 41.86,0.746 C41.86,1.124 42.168,1.446 42.56,1.446 Z M42.028,10 L43.078,10 L43.078,2.762 L42.028,2.762 L42.028,10 Z M45.192,10 L46.242,10 L46.242,0.214 L45.192,0.214 L45.192,10 Z" id="Mail" fill="#565656"></path>
                </g>
                <g id="numbers" transform="translate(60.000000, 201.000000)">
                    <g id="bar_chart" fill-rule="nonzero" fill="#747474">
                        <g id="icons">
                            <path d="M15.5,12.5 L15,12.5 L15,1 C15,0.44771525 14.5522847,0 14,0 L12,0 C11.4477153,0 11,0.44771525 11,1 L11,12.5 L10,12.5 L10,3.5 C10,2.94771525 9.55228475,2.5 9,2.5 L7,2.5 C6.44771525,2.5 6,2.94771525 6,3.5 L6,12.5 L5,12.5 L5,6.5 C5,5.94771525 4.55228475,5.5 4,5.5 L2,5.5 C1.44771525,5.5 1,5.94771525 1,6.5 L1,12.5 L0.5,12.5 C0.223857625,12.5 0,12.7238576 0,13 C0,13.2761424 0.223857625,13.5 0.5,13.5 L15.5,13.5 C15.7761424,13.5 16,13.2761424 16,13 C16,12.7238576 15.7761424,12.5 15.5,12.5 Z M4,12.5 L2,12.5 L2,6.5 L4,6.5 L4,12.5 Z M9,12.5 L7,12.5 L7,3.5 L9,3.5 L9,12.5 Z M14,12.5 L12,12.5 L12,1 L14,1 L14,12.5 Z" id="Shape"></path>
                        </g>
                    </g>
                    <path d="M22.316,11 L23.408,11 L23.408,3.174 L29.372,11 L30.464,11 L30.464,1.382 L29.372,1.382 L29.372,9.208 L23.408,1.382 L22.316,1.382 L22.316,11 Z M37.94,3.762 L37.94,8.368 C37.94,9.376 36.918,10.23 35.7,10.23 C34.636,10.23 33.894,9.404 33.894,8.228 L33.894,3.762 L32.844,3.762 L32.844,8.368 C32.844,10.006 33.964,11.168 35.56,11.168 C36.582,11.168 37.52,10.608 37.94,9.838 L37.94,11 L38.99,11 L38.99,3.762 L37.94,3.762 Z M48.958,3.594 C47.866,3.594 46.914,4.196 46.62,5.134 C46.228,4.196 45.374,3.594 44.282,3.594 C43.33,3.594 42.546,4.07 42.182,4.826 L42.182,3.762 L41.132,3.762 L41.132,11 L42.182,11 L42.182,6.394 C42.182,5.302 42.994,4.532 44.142,4.532 C45.122,4.532 45.808,5.358 45.808,6.534 L45.808,11 L46.858,11 L46.858,6.394 C46.858,5.302 47.67,4.532 48.818,4.532 C49.798,4.532 50.484,5.358 50.484,6.534 L50.484,11 L51.534,11 L51.534,6.394 C51.534,4.756 50.47,3.594 48.958,3.594 Z M57.442,3.594 C59.346,3.594 60.774,5.162 60.774,7.374 C60.774,9.6 59.346,11.168 57.442,11.168 C56.28,11.168 55.356,10.594 54.81,9.642 L54.81,11 L53.76,11 L53.76,1.214 L54.81,1.214 L54.81,5.12 C55.356,4.168 56.28,3.594 57.442,3.594 Z M57.246,10.23 C58.66,10.23 59.668,9.04 59.668,7.374 C59.668,5.708 58.66,4.532 57.246,4.532 C55.818,4.532 54.81,5.708 54.81,7.374 C54.81,9.04 55.818,10.23 57.246,10.23 Z M65.856,10.23 C66.71,10.23 67.69,9.852 68.138,9.362 L68.782,10.048 C68.152,10.734 66.878,11.168 65.87,11.168 C63.938,11.168 62.202,9.586 62.202,7.36 C62.202,5.204 63.826,3.594 65.772,3.594 C67.956,3.594 69.202,5.246 69.202,7.78 L63.28,7.78 C63.434,9.194 64.428,10.23 65.856,10.23 Z M65.814,4.532 C64.526,4.532 63.49,5.442 63.294,6.842 L68.166,6.842 C68.026,5.54 67.256,4.532 65.814,4.532 Z M72.072,5.176 L72.072,3.762 L71.022,3.762 L71.022,11 L72.072,11 L72.072,6.954 C72.072,5.54 73.234,4.532 74.872,4.532 L74.872,3.594 C73.542,3.594 72.506,4.21 72.072,5.176 Z M78.89,11.168 C80.388,11.168 81.536,10.314 81.536,8.984 C81.536,7.612 80.332,7.22 79.17,6.856 C77.826,6.422 77.294,6.226 77.294,5.596 C77.294,4.896 77.966,4.532 78.778,4.532 C79.422,4.532 80.136,4.756 80.864,5.218 L81.368,4.406 C80.598,3.902 79.674,3.594 78.778,3.594 C77.336,3.594 76.244,4.406 76.244,5.722 C76.244,6.758 76.916,7.276 78.666,7.78 C79.646,8.06 80.486,8.312 80.486,9.096 C80.486,9.782 79.842,10.23 78.89,10.23 C78.092,10.23 77.266,9.922 76.44,9.32 L75.894,10.09 C76.762,10.79 77.882,11.168 78.89,11.168 Z" id="Numbers" fill="#565656"></path>
                </g>
                <g id="tasks" transform="translate(62.000000, 232.000000)">
                    <g id="icons" fill-rule="nonzero" fill="#747474">
                        <g>
                            <path d="M11.7769697,16 L0.829090909,16 C0.610487089,16.0012897 0.400324792,15.9156846 0.244839261,15.7620176 C0.0893537299,15.6083506 0.00128212288,15.3992099 0,15.1806061 L0,2.75878788 C0.0058211668,2.51618228 0.115243892,2.28768022 0.300604409,2.13105058 C0.485964926,1.97442095 0.729520673,1.90465619 0.96969697,1.93939394 L1.93939394,1.93939394 L1.93939394,2.90909091 L0.96969697,2.90909091 L0.96969697,15.030303 L11.6363636,15.030303 L11.6363636,2.90909091 L10.6666667,2.90909091 L10.6666667,1.93939394 L11.7575758,1.93939394 C11.9795091,1.93286036 12.1946925,2.01613983 12.3544051,2.1703766 C12.5141178,2.32461337 12.6048507,2.53676166 12.6060606,2.75878788 L12.6060606,15.1806061 C12.6047785,15.3992099 12.5167069,15.6083506 12.3612213,15.7620176 C12.2057358,15.9156846 11.9955735,16.0012897 11.7769697,16 Z" id="Shape"></path>
                            <path d="M5.65333333,12.0048485 L3.05454545,9.40606061 C2.89107139,9.21253532 2.904138,8.92578038 3.08453486,8.74792432 C3.26493173,8.57006826 3.55184315,8.56107021 3.7430303,8.72727273 L5.65333333,10.6375758 L9.84242424,6.44848485 C10.0347929,6.28374458 10.3215487,6.29482072 10.5006367,6.47390874 C10.6797247,6.65299677 10.6908009,6.93975259 10.5260606,7.13212121 L5.65333333,12.0048485 Z" id="Shape"></path>
                            <path d="M10.1818182,4.84848485 L2.42424242,4.84848485 L2.42424242,3.06909091 C2.42689837,2.44627995 2.93112843,1.94204989 3.55393939,1.93939394 L4.42181818,1.93939394 C4.64153687,1.08125342 5.41478359,0.481045693 6.30060606,0.481045693 C7.18642853,0.481045693 7.95967525,1.08125342 8.17939394,1.93939394 L9.04727273,1.93939394 C9.6719763,1.93938823 10.1791485,2.44439304 10.1818182,3.06909091 L10.1818182,4.84848485 Z M3.39393939,3.87878788 L9.21212121,3.87878788 L9.21212121,3.06909091 C9.21212121,2.98072535 9.14048677,2.90909091 9.05212121,2.90909091 L7.27272727,2.90909091 L7.27272727,2.42424242 C7.27272727,1.88869358 6.83857915,1.45454545 6.3030303,1.45454545 C5.76748145,1.45454545 5.33333333,1.88869358 5.33333333,2.42424242 L5.33333333,2.90909091 L3.55393939,2.90909091 C3.51150476,2.90909091 3.47080813,2.925948 3.44080231,2.95595382 C3.41079649,2.98595964 3.39393939,3.02665627 3.39393939,3.06909091 L3.39393939,3.87878788 Z" id="Shape"></path>
                        </g>
                    </g>
                    <path d="M22.864,12 L23.956,12 L23.956,3.418 L27.19,3.418 L27.19,2.382 L19.63,2.382 L19.63,3.418 L22.864,3.418 L22.864,12 Z M31.824,4.594 C33.798,4.594 34.764,5.84 34.764,7.59 L34.764,12 L33.714,12 L33.714,10.866 C33.196,11.72 32.118,12.168 31.166,12.168 C29.64,12.168 28.52,11.286 28.52,9.858 C28.52,8.416 29.808,7.45 31.362,7.45 C32.146,7.45 32.972,7.618 33.714,7.856 L33.714,7.59 C33.714,6.61 33.322,5.49 31.754,5.49 C31.026,5.49 30.298,5.812 29.64,6.148 L29.22,5.294 C30.256,4.776 31.124,4.594 31.824,4.594 Z M31.348,11.244 C32.3,11.244 33.434,10.754 33.714,9.732 L33.714,8.626 C33.056,8.444 32.314,8.332 31.53,8.332 C30.452,8.332 29.542,8.948 29.542,9.816 C29.542,10.712 30.326,11.244 31.348,11.244 Z M39.468,12.168 C40.966,12.168 42.114,11.314 42.114,9.984 C42.114,8.612 40.91,8.22 39.748,7.856 C38.404,7.422 37.872,7.226 37.872,6.596 C37.872,5.896 38.544,5.532 39.356,5.532 C40,5.532 40.714,5.756 41.442,6.218 L41.946,5.406 C41.176,4.902 40.252,4.594 39.356,4.594 C37.914,4.594 36.822,5.406 36.822,6.722 C36.822,7.758 37.494,8.276 39.244,8.78 C40.224,9.06 41.064,9.312 41.064,10.096 C41.064,10.782 40.42,11.23 39.468,11.23 C38.67,11.23 37.844,10.922 37.018,10.32 L36.472,11.09 C37.34,11.79 38.46,12.168 39.468,12.168 Z M50.192,4.762 L48.848,4.762 L44.886,8.766 L44.886,2.214 L43.836,2.214 L43.836,12 L44.886,12 L44.886,10.082 L46.188,8.794 L48.694,12 L50.01,12 L46.93,8.08 L50.192,4.762 Z M54.014,12.168 C55.512,12.168 56.66,11.314 56.66,9.984 C56.66,8.612 55.456,8.22 54.294,7.856 C52.95,7.422 52.418,7.226 52.418,6.596 C52.418,5.896 53.09,5.532 53.902,5.532 C54.546,5.532 55.26,5.756 55.988,6.218 L56.492,5.406 C55.722,4.902 54.798,4.594 53.902,4.594 C52.46,4.594 51.368,5.406 51.368,6.722 C51.368,7.758 52.04,8.276 53.79,8.78 C54.77,9.06 55.61,9.312 55.61,10.096 C55.61,10.782 54.966,11.23 54.014,11.23 C53.216,11.23 52.39,10.922 51.564,10.32 L51.018,11.09 C51.886,11.79 53.006,12.168 54.014,12.168 Z" id="Tasks" fill="#565656"></path>
                </g>
                <g id="reminders" transform="translate(62.000000, 264.000000)">
                    <g id="flag" fill-rule="nonzero" fill="#747474">
                        <g id="icons">
                            <path d="M0.5,16 C0.223857625,16 0,15.7761424 0,15.5 L0,0.5 C0,0.223857625 0.223857625,0 0.5,0 C0.776142375,0 1,0.223857625 1,0.5 L1,15.5 C1,15.7761424 0.776142375,16 0.5,16 Z" id="Shape"></path>
                            <path d="M12.775,0.91 C12.6202995,0.820683603 12.4297005,0.820683603 12.275,0.91 C11.3057093,1.31745507 10.2611484,1.51512075 9.21,1.49 C8.30438467,1.42373802 7.42241365,1.17004365 6.62,0.745 C5.84523688,0.334363721 4.99425015,0.0875775709 4.12,0.02 C3.39335222,0.0117806474 2.67244683,0.14950078 2,0.425 L2,1.54 C2.65141968,1.18357361 3.38244861,0.997806258 4.125,1 C4.86031795,1.07294946 5.5739804,1.29044659 6.225,1.64 C7.15506862,2.12566468 8.17756392,2.40855504 9.225,2.47 C10.1653273,2.47327603 11.1007966,2.33506255 12,2.06 L12,8.475 C11.1045747,8.79283839 10.1601067,8.95024972 9.21,8.94 C8.30438467,8.87373802 7.42241365,8.62004365 6.62,8.195 C5.84523688,7.78436372 4.99425015,7.53757757 4.12,7.47 C3.39198815,7.46811728 2.67103099,7.61264878 2,7.895 L2,9 C2.65141968,8.64357361 3.38244861,8.45780626 4.125,8.46 C4.86031795,8.53294946 5.5739804,8.75044659 6.225,9.1 C7.15506862,9.58566468 8.17756392,9.86855504 9.225,9.93 C10.427262,9.95497651 11.6208591,9.72137251 12.725,9.245 C12.8931398,9.16027488 12.9994293,8.98827911 13,8.8 L13,1.335 C13.0025219,1.16419994 12.917674,1.00393165 12.775,0.91 L12.775,0.91 Z" id="Shape"></path>
                        </g>
                    </g>
                    <path d="M27.554,5.462 C27.554,6.974 26.462,8.122 24.936,8.444 L27.428,12 L26.182,12 L23.746,8.542 L21.198,8.542 L21.198,12 L20.106,12 L20.106,2.382 L24.012,2.382 C26,2.382 27.554,3.656 27.554,5.462 Z M21.198,3.418 L21.198,7.506 L23.816,7.506 C25.384,7.506 26.448,6.75 26.448,5.462 C26.448,4.174 25.384,3.418 23.816,3.418 L21.198,3.418 Z M32.426,11.23 C33.28,11.23 34.26,10.852 34.708,10.362 L35.352,11.048 C34.722,11.734 33.448,12.168 32.44,12.168 C30.508,12.168 28.772,10.586 28.772,8.36 C28.772,6.204 30.396,4.594 32.342,4.594 C34.526,4.594 35.772,6.246 35.772,8.78 L29.85,8.78 C30.004,10.194 30.998,11.23 32.426,11.23 Z M32.384,5.532 C31.096,5.532 30.06,6.442 29.864,7.842 L34.736,7.842 C34.596,6.54 33.826,5.532 32.384,5.532 Z M45.32,4.594 C44.228,4.594 43.276,5.196 42.982,6.134 C42.59,5.196 41.736,4.594 40.644,4.594 C39.692,4.594 38.908,5.07 38.544,5.826 L38.544,4.762 L37.494,4.762 L37.494,12 L38.544,12 L38.544,7.394 C38.544,6.302 39.356,5.532 40.504,5.532 C41.484,5.532 42.17,6.358 42.17,7.534 L42.17,12 L43.22,12 L43.22,7.394 C43.22,6.302 44.032,5.532 45.18,5.532 C46.16,5.532 46.846,6.358 46.846,7.534 L46.846,12 L47.896,12 L47.896,7.394 C47.896,5.756 46.832,4.594 45.32,4.594 Z M50.542,3.446 C50.92,3.446 51.228,3.124 51.228,2.746 C51.228,2.382 50.92,2.06 50.542,2.06 C50.15,2.06 49.842,2.382 49.842,2.746 C49.842,3.124 50.15,3.446 50.542,3.446 Z M50.01,12 L51.06,12 L51.06,4.762 L50.01,4.762 L50.01,12 Z M56.618,4.594 C55.596,4.594 54.658,5.154 54.238,5.924 L54.238,4.762 L53.188,4.762 L53.188,12 L54.238,12 L54.238,7.394 C54.238,6.386 55.26,5.532 56.478,5.532 C57.542,5.532 58.284,6.358 58.284,7.534 L58.284,12 L59.334,12 L59.334,7.394 C59.334,5.756 58.214,4.594 56.618,4.594 Z M67.118,2.214 L68.168,2.214 L68.168,12 L67.118,12 L67.118,10.642 C66.572,11.594 65.648,12.168 64.486,12.168 C62.582,12.168 61.154,10.6 61.154,8.374 C61.154,6.162 62.582,4.594 64.486,4.594 C65.648,4.594 66.572,5.168 67.118,6.12 L67.118,2.214 Z M64.682,11.23 C66.11,11.23 67.118,10.04 67.118,8.374 C67.118,6.708 66.11,5.532 64.682,5.532 C63.268,5.532 62.26,6.708 62.26,8.374 C62.26,10.04 63.268,11.23 64.682,11.23 Z M73.656,11.23 C74.51,11.23 75.49,10.852 75.938,10.362 L76.582,11.048 C75.952,11.734 74.678,12.168 73.67,12.168 C71.738,12.168 70.002,10.586 70.002,8.36 C70.002,6.204 71.626,4.594 73.572,4.594 C75.756,4.594 77.002,6.246 77.002,8.78 L71.08,8.78 C71.234,10.194 72.228,11.23 73.656,11.23 Z M73.614,5.532 C72.326,5.532 71.29,6.442 71.094,7.842 L75.966,7.842 C75.826,6.54 75.056,5.532 73.614,5.532 Z M79.872,6.176 L79.872,4.762 L78.822,4.762 L78.822,12 L79.872,12 L79.872,7.954 C79.872,6.54 81.034,5.532 82.672,5.532 L82.672,4.594 C81.342,4.594 80.306,5.21 79.872,6.176 Z M86.69,12.168 C88.188,12.168 89.336,11.314 89.336,9.984 C89.336,8.612 88.132,8.22 86.97,7.856 C85.626,7.422 85.094,7.226 85.094,6.596 C85.094,5.896 85.766,5.532 86.578,5.532 C87.222,5.532 87.936,5.756 88.664,6.218 L89.168,5.406 C88.398,4.902 87.474,4.594 86.578,4.594 C85.136,4.594 84.044,5.406 84.044,6.722 C84.044,7.758 84.716,8.276 86.466,8.78 C87.446,9.06 88.286,9.312 88.286,10.096 C88.286,10.782 87.642,11.23 86.69,11.23 C85.892,11.23 85.066,10.922 84.24,10.32 L83.694,11.09 C84.562,11.79 85.682,12.168 86.69,12.168 Z" id="Reminders" fill="#565656"></path>
                </g>
                <g id="Applications" transform="translate(4.000000, 0.000000)">
                    <path d="M62.932,20 L61.966,17.816 L56.604,17.816 L55.638,20 L54.448,20 L58.69,10.382 L59.88,10.382 L64.122,20 L62.932,20 Z M57.052,16.78 L61.518,16.78 L59.292,11.726 L57.052,16.78 Z M69.414,12.594 C71.318,12.594 72.746,14.162 72.746,16.374 C72.746,18.6 71.318,20.168 69.414,20.168 C68.252,20.168 67.328,19.594 66.782,18.642 L66.782,22.408 L65.732,22.408 L65.732,12.762 L66.782,12.762 L66.782,14.12 C67.328,13.168 68.252,12.594 69.414,12.594 Z M69.218,19.23 C70.632,19.23 71.64,18.04 71.64,16.374 C71.64,14.708 70.632,13.532 69.218,13.532 C67.79,13.532 66.782,14.708 66.782,16.374 C66.782,18.04 67.79,19.23 69.218,19.23 Z M78.346,12.594 C80.25,12.594 81.678,14.162 81.678,16.374 C81.678,18.6 80.25,20.168 78.346,20.168 C77.184,20.168 76.26,19.594 75.714,18.642 L75.714,22.408 L74.664,22.408 L74.664,12.762 L75.714,12.762 L75.714,14.12 C76.26,13.168 77.184,12.594 78.346,12.594 Z M78.15,19.23 C79.564,19.23 80.572,18.04 80.572,16.374 C80.572,14.708 79.564,13.532 78.15,13.532 C76.722,13.532 75.714,14.708 75.714,16.374 C75.714,18.04 76.722,19.23 78.15,19.23 Z M83.498,20 L84.548,20 L84.548,10.214 L83.498,10.214 L83.498,20 Z M87.194,11.446 C87.572,11.446 87.88,11.124 87.88,10.746 C87.88,10.382 87.572,10.06 87.194,10.06 C86.802,10.06 86.494,10.382 86.494,10.746 C86.494,11.124 86.802,11.446 87.194,11.446 Z M86.662,20 L87.712,20 L87.712,12.762 L86.662,12.762 L86.662,20 Z M93.186,20.168 C94.194,20.168 95.118,19.748 95.804,19.062 L95.076,18.348 C94.586,18.894 93.914,19.23 93.186,19.23 C91.744,19.23 90.54,17.928 90.54,16.374 C90.54,14.834 91.744,13.532 93.186,13.532 C93.9,13.532 94.558,13.854 95.034,14.372 L95.762,13.658 C95.076,13 94.166,12.594 93.186,12.594 C91.156,12.594 89.434,14.316 89.434,16.374 C89.434,18.432 91.156,20.168 93.186,20.168 Z M100.354,12.594 C102.328,12.594 103.294,13.84 103.294,15.59 L103.294,20 L102.244,20 L102.244,18.866 C101.726,19.72 100.648,20.168 99.696,20.168 C98.17,20.168 97.05,19.286 97.05,17.858 C97.05,16.416 98.338,15.45 99.892,15.45 C100.676,15.45 101.502,15.618 102.244,15.856 L102.244,15.59 C102.244,14.61 101.852,13.49 100.284,13.49 C99.556,13.49 98.828,13.812 98.17,14.148 L97.75,13.294 C98.786,12.776 99.654,12.594 100.354,12.594 Z M99.878,19.244 C100.83,19.244 101.964,18.754 102.244,17.732 L102.244,16.626 C101.586,16.444 100.844,16.332 100.06,16.332 C98.982,16.332 98.072,16.948 98.072,17.816 C98.072,18.712 98.856,19.244 99.878,19.244 Z M108.614,18.936 C108.46,19.104 108.18,19.23 107.858,19.23 C107.438,19.23 107.074,18.852 107.074,18.32 L107.074,13.7 L108.852,13.7 L108.852,12.762 L107.074,12.762 L107.074,10.774 L106.024,10.774 L106.024,12.762 L104.89,12.762 L104.89,13.7 L106.024,13.7 L106.024,18.32 C106.024,19.398 106.752,20.168 107.788,20.168 C108.278,20.168 108.754,20 109.132,19.706 L108.614,18.936 Z M111.134,11.446 C111.512,11.446 111.82,11.124 111.82,10.746 C111.82,10.382 111.512,10.06 111.134,10.06 C110.742,10.06 110.434,10.382 110.434,10.746 C110.434,11.124 110.742,11.446 111.134,11.446 Z M110.602,20 L111.652,20 L111.652,12.762 L110.602,12.762 L110.602,20 Z M117.126,20.168 C115.096,20.168 113.374,18.432 113.374,16.374 C113.374,14.316 115.096,12.594 117.126,12.594 C119.156,12.594 120.864,14.316 120.864,16.374 C120.864,18.432 119.156,20.168 117.126,20.168 Z M117.126,19.23 C118.554,19.23 119.758,17.928 119.758,16.374 C119.758,14.834 118.554,13.532 117.126,13.532 C115.684,13.532 114.48,14.834 114.48,16.374 C114.48,17.928 115.684,19.23 117.126,19.23 Z M126.044,12.594 C125.022,12.594 124.084,13.154 123.664,13.924 L123.664,12.762 L122.614,12.762 L122.614,20 L123.664,20 L123.664,15.394 C123.664,14.386 124.686,13.532 125.904,13.532 C126.968,13.532 127.71,14.358 127.71,15.534 L127.71,20 L128.76,20 L128.76,15.394 C128.76,13.756 127.64,12.594 126.044,12.594 Z M133.45,20.168 C134.948,20.168 136.096,19.314 136.096,17.984 C136.096,16.612 134.892,16.22 133.73,15.856 C132.386,15.422 131.854,15.226 131.854,14.596 C131.854,13.896 132.526,13.532 133.338,13.532 C133.982,13.532 134.696,13.756 135.424,14.218 L135.928,13.406 C135.158,12.902 134.234,12.594 133.338,12.594 C131.896,12.594 130.804,13.406 130.804,14.722 C130.804,15.758 131.476,16.276 133.226,16.78 C134.206,17.06 135.046,17.312 135.046,18.096 C135.046,18.782 134.402,19.23 133.45,19.23 C132.652,19.23 131.826,18.922 131,18.32 L130.454,19.09 C131.322,19.79 132.442,20.168 133.45,20.168 Z" fill="#565656"></path>
                    <g id="ic_folder" transform="translate(32.000000, 8.000000)">
                        <g id="folder" transform="translate(0.000000, 1.000000)">
                            <mask id="mask-2" fill="white">
                                <use xlink:href="#path-1"></use>
                            </mask>
                            <g id="Clip-2"></g>
                            <path d="M15.0002,12.9998 L1.0002,12.9998 L1.0002,3.9998 L5.5002,3.9998 L6.5002,2.9998 L1.0002,2.9998 L1.0002,0.9998 L5.5002,0.9998 L6.6492,2.4998 L15.0002,2.4998 L15.0002,12.9998 Z M15.0002,1.4998 L7.1402,1.4998 L6.0002,-0.0002 L1.0002,-0.0002 C0.4472,-0.0002 0.0002,0.4478 0.0002,0.9998 L0.0002,12.9998 C0.0002,13.5528 0.4472,13.9998 1.0002,13.9998 L15.0002,13.9998 C15.5522,13.9998 16.0002,13.5528 16.0002,12.9998 L16.0002,2.4998 C16.0002,1.9478 15.5522,1.4998 15.0002,1.4998 L15.0002,1.4998 Z" id="Fill-1" fill="#747474" mask="url(#mask-2)"></path>
                        </g>
                    </g>
                    <g id="caret-open-32" stroke="#9A9A9A" stroke-linecap="round" stroke-linejoin="round">
                        <g id="caret-open-copy" transform="translate(10.666667, 13.866667)">
                            <polyline id="Rectangle-11" stroke-width="1.5" points="10.6666667 1.11022302e-15 5.26827145 5.33333333 2.77555756e-15 0.128555501"></polyline>
                        </g>
                    </g>
                </g>
                <g id="Files" transform="translate(0.000000, 288.000000)">
                    <path d="M62.008,11.418 L62.008,10.382 L55.106,10.382 L55.106,20 L56.212,20 L56.212,15.618 L61.434,15.618 L61.434,14.582 L56.212,14.582 L56.212,11.418 L62.008,11.418 Z M64.108,11.446 C64.486,11.446 64.794,11.124 64.794,10.746 C64.794,10.382 64.486,10.06 64.108,10.06 C63.716,10.06 63.408,10.382 63.408,10.746 C63.408,11.124 63.716,11.446 64.108,11.446 Z M63.576,20 L64.626,20 L64.626,12.762 L63.576,12.762 L63.576,20 Z M66.74,20 L67.79,20 L67.79,10.214 L66.74,10.214 L66.74,20 Z M73.18,19.23 C74.034,19.23 75.014,18.852 75.462,18.362 L76.106,19.048 C75.476,19.734 74.202,20.168 73.194,20.168 C71.262,20.168 69.526,18.586 69.526,16.36 C69.526,14.204 71.15,12.594 73.096,12.594 C75.28,12.594 76.526,14.246 76.526,16.78 L70.604,16.78 C70.758,18.194 71.752,19.23 73.18,19.23 Z M73.138,13.532 C71.85,13.532 70.814,14.442 70.618,15.842 L75.49,15.842 C75.35,14.54 74.58,13.532 73.138,13.532 Z M80.81,20.168 C82.308,20.168 83.456,19.314 83.456,17.984 C83.456,16.612 82.252,16.22 81.09,15.856 C79.746,15.422 79.214,15.226 79.214,14.596 C79.214,13.896 79.886,13.532 80.698,13.532 C81.342,13.532 82.056,13.756 82.784,14.218 L83.288,13.406 C82.518,12.902 81.594,12.594 80.698,12.594 C79.256,12.594 78.164,13.406 78.164,14.722 C78.164,15.758 78.836,16.276 80.586,16.78 C81.566,17.06 82.406,17.312 82.406,18.096 C82.406,18.782 81.762,19.23 80.81,19.23 C80.012,19.23 79.186,18.922 78.36,18.32 L77.814,19.09 C78.682,19.79 79.802,20.168 80.81,20.168 Z" fill="#565656"></path>
                    <g id="ic_folder" transform="translate(32.000000, 8.000000)">
                        <g id="folder" transform="translate(0.000000, 1.000000)">
                            <mask id="mask-4" fill="white">
                                <use xlink:href="#path-3"></use>
                            </mask>
                            <g id="Clip-2"></g>
                            <path d="M15.0002,12.9998 L1.0002,12.9998 L1.0002,3.9998 L5.5002,3.9998 L6.5002,2.9998 L1.0002,2.9998 L1.0002,0.9998 L5.5002,0.9998 L6.6492,2.4998 L15.0002,2.4998 L15.0002,12.9998 Z M15.0002,1.4998 L7.1402,1.4998 L6.0002,-0.0002 L1.0002,-0.0002 C0.4472,-0.0002 0.0002,0.4478 0.0002,0.9998 L0.0002,12.9998 C0.0002,13.5528 0.4472,13.9998 1.0002,13.9998 L15.0002,13.9998 C15.5522,13.9998 16.0002,13.5528 16.0002,12.9998 L16.0002,2.4998 C16.0002,1.9478 15.5522,1.4998 15.0002,1.4998 L15.0002,1.4998 Z" id="Fill-1" fill="#747474" mask="url(#mask-4)"></path>
                        </g>
                    </g>
                    <g id="caret-close-32" stroke="#9A9A9A" stroke-linecap="round" stroke-linejoin="round">
                        <g id="caret-open-copy" transform="translate(16.000000, 16.533333) rotate(-90.000000) translate(-16.000000, -16.533333) translate(10.666667, 13.866667)">
                            <polyline id="Rectangle-11" stroke-width="1.5" points="10.6666667 -1.4235505e-14 5.26827145 5.33333333 2.22044605e-15 0.128555501"></polyline>
                        </g>
                    </g>
                </g>
                <g id="Images" transform="translate(0.000000, 320.000000)">
                    <path d="M55.106,20 L56.198,20 L56.198,10.382 L55.106,10.382 L55.106,20 Z M66.194,12.594 C65.102,12.594 64.15,13.196 63.856,14.134 C63.464,13.196 62.61,12.594 61.518,12.594 C60.566,12.594 59.782,13.07 59.418,13.826 L59.418,12.762 L58.368,12.762 L58.368,20 L59.418,20 L59.418,15.394 C59.418,14.302 60.23,13.532 61.378,13.532 C62.358,13.532 63.044,14.358 63.044,15.534 L63.044,20 L64.094,20 L64.094,15.394 C64.094,14.302 64.906,13.532 66.054,13.532 C67.034,13.532 67.72,14.358 67.72,15.534 L67.72,20 L68.77,20 L68.77,15.394 C68.77,13.756 67.706,12.594 66.194,12.594 Z M73.838,12.594 C75.812,12.594 76.778,13.84 76.778,15.59 L76.778,20 L75.728,20 L75.728,18.866 C75.21,19.72 74.132,20.168 73.18,20.168 C71.654,20.168 70.534,19.286 70.534,17.858 C70.534,16.416 71.822,15.45 73.376,15.45 C74.16,15.45 74.986,15.618 75.728,15.856 L75.728,15.59 C75.728,14.61 75.336,13.49 73.768,13.49 C73.04,13.49 72.312,13.812 71.654,14.148 L71.234,13.294 C72.27,12.776 73.138,12.594 73.838,12.594 Z M73.362,19.244 C74.314,19.244 75.448,18.754 75.728,17.732 L75.728,16.626 C75.07,16.444 74.328,16.332 73.544,16.332 C72.466,16.332 71.556,16.948 71.556,17.816 C71.556,18.712 72.34,19.244 73.362,19.244 Z M84.548,12.762 L85.598,12.762 L85.598,19.23 C85.598,21.092 84.128,22.408 82.042,22.408 C80.866,22.408 79.774,22.002 79.116,21.442 L79.578,20.616 C80.138,21.148 81.006,21.47 81.902,21.47 C83.568,21.47 84.548,20.644 84.548,19.23 L84.548,18.054 C83.988,18.936 83.064,19.468 81.916,19.468 C79.97,19.468 78.584,18.04 78.584,16.024 C78.584,14.008 79.97,12.594 81.916,12.594 C83.064,12.594 83.988,13.126 84.548,14.008 L84.548,12.762 Z M82.112,18.53 C83.54,18.53 84.548,17.494 84.548,16.024 C84.548,14.568 83.54,13.532 82.112,13.532 C80.698,13.532 79.69,14.568 79.69,16.024 C79.69,17.494 80.698,18.53 82.112,18.53 Z M91.086,19.23 C91.94,19.23 92.92,18.852 93.368,18.362 L94.012,19.048 C93.382,19.734 92.108,20.168 91.1,20.168 C89.168,20.168 87.432,18.586 87.432,16.36 C87.432,14.204 89.056,12.594 91.002,12.594 C93.186,12.594 94.432,14.246 94.432,16.78 L88.51,16.78 C88.664,18.194 89.658,19.23 91.086,19.23 Z M91.044,13.532 C89.756,13.532 88.72,14.442 88.524,15.842 L93.396,15.842 C93.256,14.54 92.486,13.532 91.044,13.532 Z M98.716,20.168 C100.214,20.168 101.362,19.314 101.362,17.984 C101.362,16.612 100.158,16.22 98.996,15.856 C97.652,15.422 97.12,15.226 97.12,14.596 C97.12,13.896 97.792,13.532 98.604,13.532 C99.248,13.532 99.962,13.756 100.69,14.218 L101.194,13.406 C100.424,12.902 99.5,12.594 98.604,12.594 C97.162,12.594 96.07,13.406 96.07,14.722 C96.07,15.758 96.742,16.276 98.492,16.78 C99.472,17.06 100.312,17.312 100.312,18.096 C100.312,18.782 99.668,19.23 98.716,19.23 C97.918,19.23 97.092,18.922 96.266,18.32 L95.72,19.09 C96.588,19.79 97.708,20.168 98.716,20.168 Z" fill="#565656"></path>
                    <g id="ic_folder" transform="translate(32.000000, 8.000000)">
                        <g id="folder" transform="translate(0.000000, 1.000000)">
                            <mask id="mask-6" fill="white">
                                <use xlink:href="#path-5"></use>
                            </mask>
                            <g id="Clip-2"></g>
                            <path d="M15.0002,12.9998 L1.0002,12.9998 L1.0002,3.9998 L5.5002,3.9998 L6.5002,2.9998 L1.0002,2.9998 L1.0002,0.9998 L5.5002,0.9998 L6.6492,2.4998 L15.0002,2.4998 L15.0002,12.9998 Z M15.0002,1.4998 L7.1402,1.4998 L6.0002,-0.0002 L1.0002,-0.0002 C0.4472,-0.0002 0.0002,0.4478 0.0002,0.9998 L0.0002,12.9998 C0.0002,13.5528 0.4472,13.9998 1.0002,13.9998 L15.0002,13.9998 C15.5522,13.9998 16.0002,13.5528 16.0002,12.9998 L16.0002,2.4998 C16.0002,1.9478 15.5522,1.4998 15.0002,1.4998 L15.0002,1.4998 Z" id="Fill-1" fill="#747474" mask="url(#mask-6)"></path>
                        </g>
                    </g>
                    <g id="caret-close-32" stroke="#9A9A9A" stroke-linecap="round" stroke-linejoin="round">
                        <g id="caret-open-copy" transform="translate(16.000000, 16.533333) rotate(-90.000000) translate(-16.000000, -16.533333) translate(10.666667, 13.866667)">
                            <polyline id="Rectangle-11" stroke-width="1.5" points="10.6666667 -1.4235505e-14 5.26827145 5.33333333 2.22044605e-15 0.128555501"></polyline>
                        </g>
                    </g>
                </g>
            </g>
        </g>
    </g>
</svg>