<svg version="1.1" width="36" height="36"  viewBox="0 0 36 36" preserveAspectRatio="xMidYMid meet" xmlns="http://www.w3.org/2000/svg" xmlns:xlink="http://www.w3.org/1999/xlink">
    <title>inbox-line</title>
    <path d="M12.23,13.09a1,1,0,0,0,0,1.41L18,20.3l5.79-5.79a1,1,0,0,0-1.41-1.41L19,16.47V2A1,1,0,0,0,18,1a1,1,0,0,0-1,1v14.5l-3.38-3.38A1,1,0,0,0,12.23,13.09Z" class="clr-i-outline clr-i-outline-path-1"></path><path d="M29.5,5H22V7h7V21H23.61l-.1.89a5.42,5.42,0,0,1-10.77,0l-.1-.89H7V7h7V5H6.5A1.5,1.5,0,0,0,5,6.5v25A1.5,1.5,0,0,0,6.5,33h23A1.5,1.5,0,0,0,31,31.5V6.5A1.5,1.5,0,0,0,29.5,5ZM29,31H7V23h3.91a7.42,7.42,0,0,0,14.44,0H29Z" class="clr-i-outline clr-i-outline-path-2"></path>
    <rect x="0" y="0" width="36" height="36" fill-opacity="0"/>
</svg>