<!--
  ~ Copyright (c) 2016-2017 VMWare, Inc. All Rights Reserved.
  ~ This software is released under MIT License.
  ~ The full license information can be found in LICENSE in the root directory of this project.
  -->

<svg xmlns="http://www.w3.org/2000/svg" xmlns:xlink="http://www.w3.org/1999/xlink" viewBox="0 0 408 296"><defs><clipPath id="d22515ed-0dcd-4c07-a4e3-036ff856c0f0"><path d="M391.64-1000.5H379.28a8.34,8.34,0,0,0-8.31,8.31v24.92a8.34,8.34,0,0,0,8.31,8.31h4.15v12.46L395.89-959h20.77a8.34,8.34,0,0,0,8.31-8.31v-7.56a4.58,4.58,0,0,1-.83.08" fill="none" clip-rule="evenodd"/></clipPath></defs><title>Row5 Box L</title><g id="cb21fe57-6ca4-42a8-b9f2-f3b5bf0a258d" data-name="Layer 1"><rect width="408" height="296" fill="#eee"/></g><g id="3f121178-8a02-4354-8ff7-8641f0e81c57" data-name="Layer 2"><rect x="24.5" y="23.5" width="359" height="251" fill="#fff"/><path d="M383,24V274H25V24H383m1-1H24V275H384V23Z" fill="#737373"/><rect x="25" y="51" width="89" height="224" fill="#5c637a"/><rect x="25" y="24" width="358" height="27" fill="#313131"/><rect x="37" y="32" width="72" height="9" fill="#797b7c"/><circle cx="367.5" cy="36.25" r="6" fill="#797b7c"/><rect x="37" y="62" width="67" height="6" fill="#9faac1"/><rect x="37" y="79" width="67" height="6" fill="#9faac1"/><rect x="37" y="96" width="67" height="6" fill="#9faac1"/><rect x="37" y="113" width="67" height="6" fill="#9faac1"/><rect x="37" y="130" width="67" height="6" fill="#9faac1"/><rect x="37" y="147" width="67" height="6" fill="#9faac1"/><rect x="37" y="164" width="67" height="6" fill="#9faac1"/><rect x="126" y="60" width="56" height="9" fill="#adadad"/><rect x="114" y="51" width="1" height="223" fill="#8f9ba3"/><path d="M127.63,191.5H367.37a3.13,3.13,0,0,1,3.13,3.13V209.5a0,0,0,0,1,0,0h-246a0,0,0,0,1,0,0V194.63a3.13,3.13,0,0,1,3.13-3.13Z" fill="#f7f7f7" stroke="#ccc" stroke-miterlimit="10"/><rect x="138" y="198" width="61" height="4" fill="#ccc"/><rect x="232" y="198" width="34" height="4" fill="#ccc"/><rect x="318" y="198" width="35" height="4" fill="#ccc"/><rect x="124.5" y="209.5" width="246" height="18" fill="#fff" stroke="#ccc" stroke-miterlimit="10"/><rect x="138" y="216" width="61" height="4" fill="#ccc"/><rect x="232" y="216" width="34" height="4" fill="#ccc"/><rect x="318" y="216" width="35" height="4" fill="#ccc"/><rect x="124.5" y="227.5" width="246" height="18" fill="#fff" stroke="#ccc" stroke-miterlimit="10"/><rect x="138" y="234" width="61" height="4" fill="#ccc"/><rect x="232" y="234" width="34" height="4" fill="#ccc"/><rect x="318" y="234" width="35" height="4" fill="#ccc"/><rect x="124.5" y="245.5" width="246" height="18" fill="#fff" stroke="#ccc" stroke-miterlimit="10"/><rect x="138" y="252" width="61" height="4" fill="#ccc"/><rect x="232" y="252" width="34" height="4" fill="#ccc"/><rect x="318" y="252" width="35" height="4" fill="#ccc"/><rect x="252.5" y="80.5" width="117" height="99" rx="3" ry="3" fill="#a3acb2" stroke="#a3acb2" stroke-miterlimit="10"/><rect x="124.5" y="80.5" width="117" height="99" rx="3" ry="3" fill="#a3acb2" stroke="#a3acb2" stroke-miterlimit="10"/><rect x="252.5" y="79.5" width="117" height="99" rx="3" ry="3" fill="#fff" stroke="#a3acb2" stroke-miterlimit="10"/><rect x="262" y="89" width="66" height="6" fill="#adadad"/><rect x="311" y="113" width="46" height="4" fill="#ccc"/><rect x="311" y="123" width="33" height="4" fill="#ccc"/><path d="M271.42,137.49a14.82,14.82,0,1,1,20.95-.45" fill="none" stroke="#3179af" stroke-miterlimit="10" stroke-width="4" fill-rule="evenodd"/><rect x="262" y="159" width="33" height="12" rx="1.5" ry="1.5" fill="#7a45ce"/><rect x="300" y="159" width="33" height="12" rx="1.5" ry="1.5" fill="#7a45ce"/><rect x="124.5" y="79.5" width="117" height="99" rx="3" ry="3" fill="#fff" stroke="#a3acb2" stroke-miterlimit="10"/><rect x="134" y="89" width="66" height="6" fill="#adadad"/><rect x="183" y="113" width="46" height="4" fill="#ccc"/><rect x="183" y="123" width="33" height="4" fill="#ccc"/><path d="M143.42,137.49a14.82,14.82,0,1,1,21-.45" fill="none" stroke="#3179af" stroke-miterlimit="10" stroke-width="4" fill-rule="evenodd"/><rect x="134" y="159" width="33" height="12" rx="1.5" ry="1.5" fill="#7a45ce"/><rect x="172" y="159" width="33" height="12" rx="1.5" ry="1.5" fill="#7a45ce"/></g></svg>