<!--
  ~ Copyright (c) 2016-2017 VMWare, Inc. All Rights Reserved.
  ~ This software is released under MIT License.
  ~ The full license information can be found in LICENSE in the root directory of this project.
  -->

<svg xmlns="http://www.w3.org/2000/svg" xmlns:xlink="http://www.w3.org/1999/xlink" viewBox="0 0 408 297"><defs><clipPath id="2e85fd85-a509-43db-acaf-b62fb552cac3"><path d="M-78.36-560.5H-90.72A8.34,8.34,0,0,0-99-552.19v24.92A8.34,8.34,0,0,0-90.72-519h4.15v12.46L-74.11-519h20.77A8.34,8.34,0,0,0-45-527.27v-7.56a4.58,4.58,0,0,1-.83.08" fill="none" clip-rule="evenodd"/></clipPath></defs><title>Row3 Box R</title><g id="20130f52-7b7a-45f0-9877-00afd8597e8b" data-name="Layer 1"><rect width="408" height="296" fill="#eee"/></g><g id="7d2c9831-769b-4230-abcc-9f673e2351ca" data-name="Layer 2"><rect x="45" y="37.5" width="318" height="222" fill="#fff"/><path d="M362.5,38V259H45.5V38h317m1-1H44.5V260h319V37Z" fill="#737373"/><rect x="45.5" y="62" width="79" height="197" fill="#f4f4f4"/><rect x="45.5" y="38" width="317" height="24" fill="#ccc"/><rect x="55.5" y="45" width="64" height="8" fill="#9e9e9e"/><circle cx="348.38" cy="50.59" r="7.12" fill="#e24ba8"/><rect x="55.5" y="72" width="59" height="5" fill="#ccc"/><rect x="55.5" y="87" width="59" height="5" fill="#ccc"/><rect x="55.5" y="102" width="59" height="5" fill="#ccc"/><rect x="55.5" y="117" width="59" height="5" fill="#ccc"/><rect x="55.5" y="132" width="59" height="5" fill="#ccc"/><rect x="55.5" y="147" width="59" height="5" fill="#ccc"/><rect x="55.5" y="162" width="59" height="5" fill="#ccc"/><rect x="134.5" y="70" width="50" height="8" fill="#ccc"/><rect x="123.5" y="62" width="1" height="197" fill="#8f9ba3"/><path d="M135.78,186.5H348.22a2.78,2.78,0,0,1,2.78,2.78V202.5a0,0,0,0,1,0,0H133a0,0,0,0,1,0,0V189.28A2.78,2.78,0,0,1,135.78,186.5Z" fill="#f7f7f7" stroke="#ccc" stroke-miterlimit="10"/><rect x="156.5" y="192" width="43" height="4" fill="#ccc"/><rect x="228.5" y="192" width="30" height="4" fill="#ccc"/><rect x="304.5" y="192" width="31" height="4" fill="#ccc"/><rect x="133" y="202.5" width="218" height="16" fill="#fff" stroke="#ccc" stroke-miterlimit="10"/><rect x="156.5" y="208" width="43" height="4" fill="#ccc"/><rect x="228.5" y="208" width="30" height="4" fill="#ccc"/><rect x="304.5" y="208" width="31" height="4" fill="#ccc"/><rect x="133" y="218.5" width="218" height="16" fill="#fff" stroke="#ccc" stroke-miterlimit="10"/><rect x="156.5" y="224" width="43" height="4" fill="#ccc"/><rect x="228.5" y="224" width="30" height="4" fill="#ccc"/><rect x="304.5" y="224" width="31" height="4" fill="#ccc"/><rect x="133" y="233.5" width="218" height="16" fill="#fff" stroke="#ccc" stroke-miterlimit="10"/><rect x="156.5" y="240" width="43" height="4" fill="#ccc"/><rect x="228.5" y="240" width="30" height="4" fill="#ccc"/><rect x="304.5" y="240" width="31" height="4" fill="#ccc"/><rect x="246" y="87.5" width="104" height="88" rx="2.66" ry="2.66" fill="#a3acb2" stroke="#a3acb2" stroke-miterlimit="10"/><rect x="133" y="87.5" width="104" height="88" rx="2.66" ry="2.66" fill="#a3acb2" stroke="#a3acb2" stroke-miterlimit="10"/><rect x="246" y="86.5" width="104" height="88" rx="2.66" ry="2.66" fill="#fff" stroke="#a3acb2" stroke-miterlimit="10"/><rect x="255.5" y="95" width="58" height="5" fill="#ccc"/><rect x="298.5" y="116" width="41" height="4" fill="#ccc"/><rect x="298.5" y="125" width="29" height="4" fill="#ccc"/><path d="M263.24,138.3a13.14,13.14,0,1,1,18.57-.4" fill="none" stroke="#ff8b2c" stroke-miterlimit="10" stroke-width="4" fill-rule="evenodd"/><rect x="255.5" y="157" width="29" height="11" rx="1.35" ry="1.35" fill="#007cbb"/><rect x="288.5" y="157" width="29" height="11" rx="1.35" ry="1.35" fill="#007cbb"/><rect x="133" y="86.5" width="104" height="88" rx="2.66" ry="2.66" fill="#fff" stroke="#a3acb2" stroke-miterlimit="10"/><rect x="141.5" y="95" width="58" height="5" fill="#ccc"/><rect x="184.5" y="116" width="41" height="4" fill="#ccc"/><rect x="185.5" y="125" width="29" height="4" fill="#ccc"/><path d="M149.82,138.3a13.13,13.13,0,1,1,18.56-.4" fill="none" stroke="#ff8b2c" stroke-miterlimit="10" stroke-width="4" fill-rule="evenodd"/><rect x="141.5" y="157" width="29" height="11" rx="1.35" ry="1.35" fill="#007cbb"/><rect x="175.5" y="157" width="29" height="11" rx="1.35" ry="1.35" fill="#007cbb"/><rect x="141.5" y="206" width="8" height="8" fill="#e24ba8"/><rect x="141.5" y="222" width="8" height="8" fill="#e24ba8"/><rect x="141.5" y="238" width="8" height="8" fill="#e24ba8"/><path d="M371.14,58c-4.15,0-12.51-7.51-12.51-7.51s8.36-7.5,12.51-7.5a7.51,7.51,0,0,1,0,15Z" fill="#7a53b1" stroke="#fff" stroke-miterlimit="10" fill-rule="evenodd"/><path d="M138.86,264.64c0-4.15,7.5-12.51,7.5-12.51s7.51,8.36,7.51,12.51a7.51,7.51,0,0,1-15,0Z" fill="#7a53b1" stroke="#fff" stroke-miterlimit="10" fill-rule="evenodd"/></g></svg>