<!--
  ~ Copyright (c) 2016-2017 VMWare, Inc. All Rights Reserved.
  ~ This software is released under MIT License.
  ~ The full license information can be found in LICENSE in the root directory of this project.
  -->

<svg xmlns="http://www.w3.org/2000/svg" xmlns:xlink="http://www.w3.org/1999/xlink" viewBox="0 0 408 296"><defs><clipPath id="3b46b644-8afd-4e8e-bc00-56c45aa01e98"><path d="M-69.36-160.5H-81.72A8.34,8.34,0,0,0-90-152.19v24.92A8.34,8.34,0,0,0-81.72-119h4.15v12.46L-65.11-119h20.77A8.34,8.34,0,0,0-36-127.27v-7.56a4.58,4.58,0,0,1-.83.08" fill="none" clip-rule="evenodd"/></clipPath></defs><title>row2 Box R</title><g id="e6167bc1-c968-43c7-923d-f42bac07ecd3" data-name="Layer 1"><rect width="408" height="296" fill="#eee"/></g><g id="43cda763-65a3-4f3e-9975-2c6643dcbc13" data-name="Layer 2"><rect x="24" y="22" width="360" height="252" fill="#17242b"/><rect x="25" y="50" width="89" height="223" fill="#17242b"/><rect x="25" y="23" width="358" height="27" fill="#404e60"/><rect x="37" y="31" width="72" height="9" fill="#6f849e"/><circle cx="367.5" cy="35.25" r="6" fill="#6f849e"/><rect x="37" y="61" width="67" height="6" fill="#597784"/><rect x="37" y="78" width="67" height="6" fill="#597784"/><rect x="37" y="95" width="67" height="6" fill="#597784"/><rect x="37" y="112" width="67" height="6" fill="#597784"/><rect x="37" y="129" width="67" height="6" fill="#597784"/><rect x="37" y="146" width="67" height="6" fill="#597784"/><rect x="37" y="163" width="67" height="6" fill="#597784"/><rect x="126" y="59" width="56" height="9" fill="#597784"/><rect x="114" y="50" width="1" height="223" fill="#506972"/><path d="M127.63,190.5H367.37a3.13,3.13,0,0,1,3.13,3.13V208.5a0,0,0,0,1,0,0h-246a0,0,0,0,1,0,0V193.63a3.13,3.13,0,0,1,3.13-3.13Z" fill="none" stroke="#6b7a8a" stroke-miterlimit="10"/><rect x="138" y="197" width="61" height="4" fill="#597784"/><rect x="232" y="197" width="34" height="4" fill="#597784"/><rect x="318" y="197" width="35" height="4" fill="#597784"/><rect x="124.5" y="208.5" width="246" height="18" fill="#2a3e46" stroke="#6b7a8a" stroke-miterlimit="10"/><rect x="138" y="215" width="61" height="4" fill="#597784"/><rect x="232" y="215" width="34" height="4" fill="#597784"/><rect x="318" y="215" width="35" height="4" fill="#597784"/><rect x="124.5" y="226.5" width="246" height="18" fill="#2a3e46" stroke="#6b7a8a" stroke-miterlimit="10"/><rect x="138" y="233" width="61" height="4" fill="#597784"/><rect x="232" y="233" width="34" height="4" fill="#597784"/><rect x="318" y="233" width="35" height="4" fill="#597784"/><rect x="124.5" y="244.5" width="246" height="18" fill="#2a3e46" stroke="#6b7a8a" stroke-miterlimit="10"/><rect x="138" y="251" width="61" height="4" fill="#597784"/><rect x="232" y="251" width="34" height="4" fill="#597784"/><rect x="318" y="251" width="35" height="4" fill="#597784"/><rect x="252.5" y="79.5" width="117" height="99" rx="3" ry="3" stroke="#000" stroke-miterlimit="10"/><rect x="124.5" y="79.5" width="117" height="99" rx="3" ry="3" stroke="#000" stroke-miterlimit="10"/><rect x="252.5" y="78.5" width="117" height="99" rx="3" ry="3" fill="#2a3e46" stroke="#000" stroke-miterlimit="10"/><rect x="262" y="88" width="66" height="6" fill="#597784"/><rect x="311" y="112" width="46" height="4" fill="#597784"/><rect x="311" y="122" width="33" height="4" fill="#597784"/><path d="M271.42,136.49a14.82,14.82,0,1,1,20.95-.45" fill="none" stroke="#60b515" stroke-miterlimit="10" stroke-width="4" fill-rule="evenodd"/><rect x="262" y="158" width="33" height="12" rx="1.5" ry="1.5" fill="#49afd9"/><rect x="300" y="158" width="33" height="12" rx="1.5" ry="1.5" fill="#49afd9"/><rect x="124.5" y="78.5" width="117" height="99" rx="3" ry="3" fill="#2a3e46" stroke="#000" stroke-miterlimit="10"/><rect x="134" y="88" width="66" height="6" fill="#597784"/><rect x="183" y="112" width="46" height="4" fill="#597784"/><rect x="183" y="122" width="33" height="4" fill="#597784"/><path d="M143.42,136.49a14.82,14.82,0,1,1,21-.45" fill="none" stroke="#f54f47" stroke-miterlimit="10" stroke-width="4" fill-rule="evenodd"/><rect x="134" y="158" width="33" height="12" rx="1.5" ry="1.5" fill="#49afd9"/><rect x="172" y="158" width="33" height="12" rx="1.5" ry="1.5" fill="#49afd9"/></g></svg>