<svg version="1.1" width="36" height="36"  viewBox="0 0 36 36" preserveAspectRatio="xMidYMid meet" xmlns="http://www.w3.org/2000/svg" xmlns:xlink="http://www.w3.org/1999/xlink">
    <title>cog-solid-alerted</title>
    <path class="clr-i-solid--alerted clr-i-solid-path-1--alerted" d="M32.57,15.72,31.5,15.4H22.85A5.5,5.5,0,1,1,18,12.5a5.53,5.53,0,0,1,.65,0A3.68,3.68,0,0,1,19,9.89l2.09-3.62-.86-2.83A.61.61,0,0,0,19.69,3H16.31a.61.61,0,0,0-.58.43l-1,3.3a11.63,11.63,0,0,0-2.38,1l-3-1.62a.61.61,0,0,0-.72.11L6.2,8.59a.61.61,0,0,0-.11.72l1.62,3a11.63,11.63,0,0,0-1,2.37l-3.31,1a.61.61,0,0,0-.43.58v3.38a.61.61,0,0,0,.43.58l3.33,1a11.62,11.62,0,0,0,1,2.33L6.09,26.69a.61.61,0,0,0,.11.72L8.59,29.8a.61.61,0,0,0,.72.11l3.09-1.65a11.65,11.65,0,0,0,2.3.94l1,3.37a.61.61,0,0,0,.58.43h3.38a.61.61,0,0,0,.58-.43l1-3.38a11.63,11.63,0,0,0,2.28-.94l3.11,1.66a.61.61,0,0,0,.72-.11l2.39-2.39a.61.61,0,0,0,.11-.72l-1.66-3.1a11.63,11.63,0,0,0,.95-2.29l3.37-1a.61.61,0,0,0,.43-.58V16.31A.61.61,0,0,0,32.57,15.72Z"></path><path class="clr-i-solid--alerted clr-i-solid-path-2--alerted clr-i-alert" d="M26.85,1.14,21.13,11A1.28,1.28,0,0,0,22.23,13H33.68A1.28,1.28,0,0,0,34.78,11L29.06,1.14A1.28,1.28,0,0,0,26.85,1.14Z"></path>
    <rect x="0" y="0" width="36" height="36" fill-opacity="0"/>
</svg>