<svg version="1.1" width="36" height="36"  viewBox="0 0 36 36" preserveAspectRatio="xMidYMid meet" xmlns="http://www.w3.org/2000/svg" xmlns:xlink="http://www.w3.org/1999/xlink">
    <title>info-solid</title>
    <path class="clr-i-solid clr-i-solid-path-1" d="M18,6A12,12,0,1,0,30,18,12,12,0,0,0,18,6Zm-2,5.15a2,2,0,1,1,2,2A2,2,0,0,1,15.9,11.15ZM23,24a1,1,0,0,1-1,1H15a1,1,0,1,1,0-2h2V17H16a1,1,0,0,1,0-2h4v8h2A1,1,0,0,1,23,24Z"></path>
    <rect x="0" y="0" width="36" height="36" fill-opacity="0"/>
</svg>