<svg version="1.1" width="36" height="36"  viewBox="0 0 36 36" preserveAspectRatio="xMidYMid meet" xmlns="http://www.w3.org/2000/svg" xmlns:xlink="http://www.w3.org/1999/xlink">
    <title>settings-outline-alerted</title>
    <path class="clr-i-outline--alerted clr-i-outline-path-1--alerted" d="M33.7,15.4h-5.3v0.1l3.6,1.1v2.8l-3.6,1.1L28.3,21c-0.3,0.7-0.6,1.4-0.9,2.1l-0.3,0.5l1.8,3.3l-2,2l-3.3-1.8l-0.5,0.3c-0.7,0.4-1.4,0.7-2.1,0.9l-0.5,0.1L19.4,32h-2.8l-1.1-3.6L15,28.3c-0.7-0.3-1.4-0.6-2.1-0.9l-0.5-0.3l-3.3,1.8l-2-2l1.8-3.3l-0.3-0.5c-0.4-0.7-0.7-1.4-0.9-2.1l-0.1-0.5L4,19.4v-2.8l3.4-1l0.2-0.5c0.2-0.8,0.5-1.5,0.9-2.2l0.3-0.5L7.1,9.1l2-2l3.2,1.8l0.5-0.3c0.7-0.4,1.4-0.7,2.2-0.9l0.5-0.2L16.6,4h2.8l1.1,3.4l1.4-2.3l-0.6-2C21,2.4,20.4,2,19.7,2h-3.4c-0.7,0-1.3,0.5-1.4,1.2L14,6c-0.6,0.1-1.1,0.3-1.6,0.6L9.8,5.2C9.2,4.9,8.4,5,7.9,5.5L5.5,7.9C5,8.4,4.9,9.2,5.2,9.8l1.3,2.5c-0.2,0.5-0.4,1.1-0.6,1.6l-2.8,0.9C2.5,15,2,15.6,2,16.3v3.4c0,0.7,0.5,1.3,1.2,1.5L6,22.1l0.6,1.5l-1.4,2.6c-0.3,0.6-0.2,1.4,0.3,1.9l2.4,2.4c0.5,0.5,1.3,0.6,1.9,0.3l2.6-1.4l1.5,0.6l0.9,2.9c0.2,0.6,0.8,1.1,1.5,1.1h3.4c0.7,0,1.3-0.5,1.5-1.1l0.9-2.9l1.5-0.6l2.6,1.4c0.6,0.3,1.4,0.2,1.9-0.3l2.4-2.4c0.5-0.5,0.6-1.3,0.3-1.9l-1.4-2.6l0.6-1.5l2.9-0.9c0.6-0.2,1.1-0.8,1.1-1.5v-3.4C34,16,33.9,15.7,33.7,15.4z"></path><path class="clr-i-outline--alerted clr-i-outline-path-2--alerted" d="M18.1,23c-2.8,0-5-2.2-5-5s2.2-5,5-5c0.2,0,0.5,0,0.7,0.1c-0.2-0.6-0.3-1.3-0.2-2h-0.5c-3.9,0-7,3.1-7,7c0,3.9,3.1,7,7,7c3.9,0,7-3.1,7-7c0-0.9-0.2-1.8-0.5-2.6h-2.2c0.5,0.8,0.7,1.6,0.7,2.5C23.1,20.8,20.9,23,18.1,23z"></path><path class="clr-i-outline--alerted clr-i-outline-path-3--alerted clr-i-alert" d="M26.9,1.1L21.1,11c-0.4,0.6-0.2,1.4,0.3,1.8c0.2,0.2,0.5,0.2,0.8,0.2h11.5c0.7,0,1.3-0.5,1.3-1.2c0-0.3-0.1-0.5-0.2-0.8l-5.7-9.9c-0.4-0.6-1.1-0.8-1.8-0.5C27.1,0.8,27,1,26.9,1.1z"></path>
    <rect x="0" y="0" width="36" height="36" fill-opacity="0"/>
</svg>