<?xml version="1.0" encoding="UTF-8"?>
<svg width="257px" height="32px" viewBox="0 0 257 32" version="1.1" xmlns="http://www.w3.org/2000/svg" xmlns:xlink="http://www.w3.org/1999/xlink">
    <!-- Generator: Sketch 42 (36781) - http://www.bohemiancoding.com/sketch -->
    <title>example_tree_touch</title>
    <desc>Created with Sketch.</desc>
    <defs>
        <rect id="path-1" x="0" y="0" width="17.0666667" height="17.0666667" rx="3"></rect>
        <mask id="mask-2" maskContentUnits="userSpaceOnUse" maskUnits="objectBoundingBox" x="0" y="0" width="17.0666667" height="17.0666667" fill="white">
            <use xlink:href="#path-1"></use>
        </mask>
    </defs>
    <g id="Page-1-New-Layout" stroke="none" stroke-width="1" fill="none" fill-rule="evenodd">
        <g id="Outlined-Text" transform="translate(-712.000000, -1926.000000)">
            <g id="example_tree_touch" transform="translate(712.000000, 1926.000000)">
                <rect id="Rectangle-2" fill-opacity="0.45" fill="#E6B5D0" x="0" y="0" width="32" height="32"></rect>
                <rect id="Rectangle-2-Copy" fill-opacity="0.45" fill="#E6B5D0" x="48" y="0" width="32" height="32"></rect>
                <g id="checked-32" transform="translate(48.000000, 0.000000)">
                    <g id="Group-2" transform="translate(7.466667, 7.466667)">
                        <g id="Group-3" stroke-width="2">
                            <use id="Rectangle-4-Copy" stroke="#0093D5" mask="url(#mask-2)" stroke-linecap="square" fill="#0093D5" xlink:href="#path-1"></use>
                            <polyline id="Line" stroke="#FFFFFF" stroke-linecap="round" points="4.81614583 8.24961313 8.24223944 11.2508953 13.3494792 5.7375"></polyline>
                        </g>
                    </g>
                </g>
                <g id="caret-open-32" stroke="#9A9A9A" stroke-linecap="round" stroke-linejoin="round">
                    <g id="caret-open-copy" transform="translate(10.666667, 13.866667)">
                        <polyline id="Rectangle-11" stroke-width="1.5" points="10.6666667 1.11022302e-15 5.26827145 5.33333333 2.77555756e-15 0.128555501"></polyline>
                    </g>
                </g>
                <path d="M108.06,22.168 C110.062,22.168 111.406,21.006 111.406,19.396 C111.406,18.01 110.314,17.296 109.334,17.072 C110.328,16.778 111.196,16.05 111.196,14.818 C111.196,13.278 109.852,12.214 108.018,12.214 C106.52,12.214 105.456,12.942 104.728,13.908 L105.456,14.566 C106.142,13.74 106.898,13.208 107.962,13.208 C109.166,13.208 110.09,13.936 110.09,14.944 C110.09,16.036 109.124,16.652 107.836,16.638 L106.8,16.624 L106.8,17.632 L107.822,17.632 C109.334,17.632 110.3,18.206 110.3,19.34 C110.3,20.432 109.404,21.174 108.06,21.174 C106.884,21.174 105.946,20.614 105.316,19.802 L104.56,20.516 C105.26,21.44 106.478,22.168 108.06,22.168 Z M117.034,22.168 C114.682,22.168 113.03,20.11 113.03,17.184 C113.03,14.272 114.682,12.214 117.034,12.214 C119.372,12.214 121.024,14.272 121.024,17.184 C121.024,20.11 119.372,22.168 117.034,22.168 Z M117.034,21.16 C118.728,21.16 119.918,19.508 119.918,17.184 C119.918,14.86 118.728,13.222 117.034,13.222 C115.34,13.222 114.136,14.86 114.136,17.184 C114.136,19.508 115.34,21.16 117.034,21.16 Z M133.176,22 L130.39,18.304 L133.064,14.762 L131.832,14.762 L129.774,17.492 L127.702,14.762 L126.47,14.762 L129.158,18.304 L126.358,22 L127.59,22 L129.774,19.116 L131.944,22 L133.176,22 Z M141.744,22.168 C143.746,22.168 145.09,21.006 145.09,19.396 C145.09,18.01 143.998,17.296 143.018,17.072 C144.012,16.778 144.88,16.05 144.88,14.818 C144.88,13.278 143.536,12.214 141.702,12.214 C140.204,12.214 139.14,12.942 138.412,13.908 L139.14,14.566 C139.826,13.74 140.582,13.208 141.646,13.208 C142.85,13.208 143.774,13.936 143.774,14.944 C143.774,16.036 142.808,16.652 141.52,16.638 L140.484,16.624 L140.484,17.632 L141.506,17.632 C143.018,17.632 143.984,18.206 143.984,19.34 C143.984,20.432 143.088,21.174 141.744,21.174 C140.568,21.174 139.63,20.614 139,19.802 L138.244,20.516 C138.944,21.44 140.162,22.168 141.744,22.168 Z M150.718,22.168 C148.366,22.168 146.714,20.11 146.714,17.184 C146.714,14.272 148.366,12.214 150.718,12.214 C153.056,12.214 154.708,14.272 154.708,17.184 C154.708,20.11 153.056,22.168 150.718,22.168 Z M150.718,21.16 C152.412,21.16 153.602,19.508 153.602,17.184 C153.602,14.86 152.412,13.222 150.718,13.222 C149.024,13.222 147.82,14.86 147.82,17.184 C147.82,19.508 149.024,21.16 150.718,21.16 Z M163.458,22 L164.55,22 L164.55,13.418 L167.784,13.418 L167.784,12.382 L160.224,12.382 L160.224,13.418 L163.458,13.418 L163.458,22 Z M172.838,22.168 C170.808,22.168 169.086,20.432 169.086,18.374 C169.086,16.316 170.808,14.594 172.838,14.594 C174.868,14.594 176.576,16.316 176.576,18.374 C176.576,20.432 174.868,22.168 172.838,22.168 Z M172.838,21.23 C174.266,21.23 175.47,19.928 175.47,18.374 C175.47,16.834 174.266,15.532 172.838,15.532 C171.396,15.532 170.192,16.834 170.192,18.374 C170.192,19.928 171.396,21.23 172.838,21.23 Z M183.408,14.762 L183.408,19.368 C183.408,20.376 182.386,21.23 181.168,21.23 C180.104,21.23 179.362,20.404 179.362,19.228 L179.362,14.762 L178.312,14.762 L178.312,19.368 C178.312,21.006 179.432,22.168 181.028,22.168 C182.05,22.168 182.988,21.608 183.408,20.838 L183.408,22 L184.458,22 L184.458,14.762 L183.408,14.762 Z M189.96,22.168 C190.968,22.168 191.892,21.748 192.578,21.062 L191.85,20.348 C191.36,20.894 190.688,21.23 189.96,21.23 C188.518,21.23 187.314,19.928 187.314,18.374 C187.314,16.834 188.518,15.532 189.96,15.532 C190.674,15.532 191.332,15.854 191.808,16.372 L192.536,15.658 C191.85,15 190.94,14.594 189.96,14.594 C187.93,14.594 186.208,16.316 186.208,18.374 C186.208,20.432 187.93,22.168 189.96,22.168 Z M197.632,14.594 C196.61,14.594 195.672,15.154 195.252,15.924 L195.252,12.214 L194.202,12.214 L194.202,22 L195.252,22 L195.252,17.394 C195.252,16.386 196.274,15.532 197.492,15.532 C198.556,15.532 199.298,16.358 199.298,17.534 L199.298,22 L200.348,22 L200.348,17.394 C200.348,15.756 199.228,14.594 197.632,14.594 Z M209.336,22 L210.428,22 L210.428,13.418 L213.662,13.418 L213.662,12.382 L206.102,12.382 L206.102,13.418 L209.336,13.418 L209.336,22 Z M218.296,14.594 C220.27,14.594 221.236,15.84 221.236,17.59 L221.236,22 L220.186,22 L220.186,20.866 C219.668,21.72 218.59,22.168 217.638,22.168 C216.112,22.168 214.992,21.286 214.992,19.858 C214.992,18.416 216.28,17.45 217.834,17.45 C218.618,17.45 219.444,17.618 220.186,17.856 L220.186,17.59 C220.186,16.61 219.794,15.49 218.226,15.49 C217.498,15.49 216.77,15.812 216.112,16.148 L215.692,15.294 C216.728,14.776 217.596,14.594 218.296,14.594 Z M217.82,21.244 C218.772,21.244 219.906,20.754 220.186,19.732 L220.186,18.626 C219.528,18.444 218.786,18.332 218.002,18.332 C216.924,18.332 216.014,18.948 216.014,19.816 C216.014,20.712 216.798,21.244 217.82,21.244 Z M224.526,16.176 L224.526,14.762 L223.476,14.762 L223.476,22 L224.526,22 L224.526,17.954 C224.526,16.54 225.688,15.532 227.326,15.532 L227.326,14.594 C225.996,14.594 224.96,15.21 224.526,16.176 Z M234.41,14.762 L235.46,14.762 L235.46,21.23 C235.46,23.092 233.99,24.408 231.904,24.408 C230.728,24.408 229.636,24.002 228.978,23.442 L229.44,22.616 C230,23.148 230.868,23.47 231.764,23.47 C233.43,23.47 234.41,22.644 234.41,21.23 L234.41,20.054 C233.85,20.936 232.926,21.468 231.778,21.468 C229.832,21.468 228.446,20.04 228.446,18.024 C228.446,16.008 229.832,14.594 231.778,14.594 C232.926,14.594 233.85,15.126 234.41,16.008 L234.41,14.762 Z M231.974,20.53 C233.402,20.53 234.41,19.494 234.41,18.024 C234.41,16.568 233.402,15.532 231.974,15.532 C230.56,15.532 229.552,16.568 229.552,18.024 C229.552,19.494 230.56,20.53 231.974,20.53 Z M240.948,21.23 C241.802,21.23 242.782,20.852 243.23,20.362 L243.874,21.048 C243.244,21.734 241.97,22.168 240.962,22.168 C239.03,22.168 237.294,20.586 237.294,18.36 C237.294,16.204 238.918,14.594 240.864,14.594 C243.048,14.594 244.294,16.246 244.294,18.78 L238.372,18.78 C238.526,20.194 239.52,21.23 240.948,21.23 Z M240.906,15.532 C239.618,15.532 238.582,16.442 238.386,17.842 L243.258,17.842 C243.118,16.54 242.348,15.532 240.906,15.532 Z M249.194,20.936 C249.04,21.104 248.76,21.23 248.438,21.23 C248.018,21.23 247.654,20.852 247.654,20.32 L247.654,15.7 L249.432,15.7 L249.432,14.762 L247.654,14.762 L247.654,12.774 L246.604,12.774 L246.604,14.762 L245.47,14.762 L245.47,15.7 L246.604,15.7 L246.604,20.32 C246.604,21.398 247.332,22.168 248.368,22.168 C248.858,22.168 249.334,22 249.712,21.706 L249.194,20.936 Z M253.758,22.168 C255.256,22.168 256.404,21.314 256.404,19.984 C256.404,18.612 255.2,18.22 254.038,17.856 C252.694,17.422 252.162,17.226 252.162,16.596 C252.162,15.896 252.834,15.532 253.646,15.532 C254.29,15.532 255.004,15.756 255.732,16.218 L256.236,15.406 C255.466,14.902 254.542,14.594 253.646,14.594 C252.204,14.594 251.112,15.406 251.112,16.722 C251.112,17.758 251.784,18.276 253.534,18.78 C254.514,19.06 255.354,19.312 255.354,20.096 C255.354,20.782 254.71,21.23 253.758,21.23 C252.96,21.23 252.134,20.922 251.308,20.32 L250.762,21.09 C251.63,21.79 252.75,22.168 253.758,22.168 Z" id="30-x-30-Touch-Target" fill="#565656"></path>
            </g>
        </g>
    </g>
</svg>