<svg version="1.1" width="36" height="36"  viewBox="0 0 36 36" preserveAspectRatio="xMidYMid meet" xmlns="http://www.w3.org/2000/svg" xmlns:xlink="http://www.w3.org/1999/xlink">
                <title>align-left-text-line</title>
                <path d="M20.25,26H6v2.2H20.25a1.1,1.1,0,0,0,0-2.2Z" class="clr-i-outline clr-i-outline-path-1"></path><path d="M28,20H6v2.2H28A1.1,1.1,0,0,0,28,20Z" class="clr-i-outline clr-i-outline-path-2"></path><path d="M22.6,15.1A1.1,1.1,0,0,0,21.5,14H6v2.2H21.5A1.1,1.1,0,0,0,22.6,15.1Z" class="clr-i-outline clr-i-outline-path-3"></path><path d="M29.25,8H6v2.2H29.25a1.1,1.1,0,1,0,0-2.2Z" class="clr-i-outline clr-i-outline-path-4"></path>
                <rect x="0" y="0" width="36" height="36" fill-opacity="0"/>
            </svg>