<svg version="1.1" width="36" height="36"  viewBox="0 0 36 36" preserveAspectRatio="xMidYMid meet" xmlns="http://www.w3.org/2000/svg" xmlns:xlink="http://www.w3.org/1999/xlink">
                <title>paint-roller-solid</title>
                <rect x="4" y="2" width="27" height="10" rx="1" ry="1" class="clr-i-solid clr-i-solid-path-1"></rect><path d="M33,6H32v6.24L18.71,16.45a1,1,0,0,0-.71,1V19H16V34a1,1,0,0,0,1,1h4a1,1,0,0,0,1-1V19H20v-.82L33.29,14A1,1,0,0,0,34,13V7A1,1,0,0,0,33,6Z" class="clr-i-solid clr-i-solid-path-2"></path>
                <rect x="0" y="0" width="36" height="36" fill-opacity="0"/>
            </svg>