<svg version="1.1" width="36" height="36"  viewBox="0 0 36 36" preserveAspectRatio="xMidYMid meet" xmlns="http://www.w3.org/2000/svg" xmlns:xlink="http://www.w3.org/1999/xlink">
    <title>email-line</title>
    <path class="clr-i-outline clr-i-outline-path-1" d="M32,6H4A2,2,0,0,0,2,8V28a2,2,0,0,0,2,2H32a2,2,0,0,0,2-2V8A2,2,0,0,0,32,6ZM30.46,28H5.66l7-7.24-1.44-1.39L4,26.84V9.52L16.43,21.89a2,2,0,0,0,2.82,0L32,9.21v17.5l-7.36-7.36-1.41,1.41ZM5.31,8H30.38L17.84,20.47Z"></path>
    <rect x="0" y="0" width="36" height="36" fill-opacity="0"/>
</svg>