<svg version="1.1" width="36" height="36"  viewBox="0 0 36 36" preserveAspectRatio="xMidYMid meet" xmlns="http://www.w3.org/2000/svg" xmlns:xlink="http://www.w3.org/1999/xlink">
    <title>picture-line</title>
    <path d="M32,4H4A2,2,0,0,0,2,6V30a2,2,0,0,0,2,2H32a2,2,0,0,0,2-2V6A2,2,0,0,0,32,4ZM4,30V6H32V30Z" class="clr-i-outline clr-i-outline-path-1"></path><path d="M8.92,14a3,3,0,1,0-3-3A3,3,0,0,0,8.92,14Zm0-4.6A1.6,1.6,0,1,1,7.33,11,1.6,1.6,0,0,1,8.92,9.41Z" class="clr-i-outline clr-i-outline-path-2"></path><path d="M22.78,15.37l-5.4,5.4-4-4a1,1,0,0,0-1.41,0L5.92,22.9v2.83l6.79-6.79L16,22.18l-3.75,3.75H15l8.45-8.45L30,24V21.18l-5.81-5.81A1,1,0,0,0,22.78,15.37Z" class="clr-i-outline clr-i-outline-path-3"></path>
    <rect x="0" y="0" width="36" height="36" fill-opacity="0"/>
</svg>