<svg version="1.1" width="36" height="36"  viewBox="0 0 36 36" preserveAspectRatio="xMidYMid meet" xmlns="http://www.w3.org/2000/svg" xmlns:xlink="http://www.w3.org/1999/xlink">
    <title>star-line</title>
    <path class="clr-i-outline clr-i-outline-path-1" d="M27.19,34a2.22,2.22,0,0,1-1.24-.38l-7.46-5a.22.22,0,0,0-.25,0l-7.46,5A2.22,2.22,0,0,1,7.4,31.21l2.45-8.64a.23.23,0,0,0-.08-.24L2.71,16.78a2.22,2.22,0,0,1,1.29-4l9-.34a.23.23,0,0,0,.2-.15l3.1-8.43a2.22,2.22,0,0,1,4.17,0l3.1,8.43a.23.23,0,0,0,.2.15l9,.34a2.22,2.22,0,0,1,1.29,4L27,22.33a.22.22,0,0,0-.08.24l2.45,8.64A2.23,2.23,0,0,1,27.19,34Zm-8.82-7.42A2.21,2.21,0,0,1,19.6,27l7.46,5a.22.22,0,0,0,.34-.25l-2.45-8.64a2.21,2.21,0,0,1,.77-2.35l7.06-5.55a.22.22,0,0,0-.13-.4l-9-.34a2.22,2.22,0,0,1-2-1.46l-3.1-8.43a.22.22,0,0,0-.42,0L15.06,13a2.22,2.22,0,0,1-2,1.46l-9,.34a.22.22,0,0,0-.13.4L11,20.76a2.22,2.22,0,0,1,.77,2.35L9.33,31.75a.21.21,0,0,0,.08.24.2.2,0,0,0,.26,0l7.46-5A2.22,2.22,0,0,1,18.36,26.62Z"></path>
    <rect x="0" y="0" width="36" height="36" fill-opacity="0"/>
</svg>