<svg version="1.1" width="36" height="36"  viewBox="0 0 36 36" preserveAspectRatio="xMidYMid meet" xmlns="http://www.w3.org/2000/svg" xmlns:xlink="http://www.w3.org/1999/xlink">
    <title>tasks-solid</title>
    <path class="clr-i-solid clr-i-solid-path-1" d="M29.29,4.95h-7.2a4.31,4.31,0,0,0-8.17,0H7A1.75,1.75,0,0,0,5,6.64V32.26a1.7,1.7,0,0,0,1.71,1.69H29.29A1.7,1.7,0,0,0,31,32.26V6.64A1.7,1.7,0,0,0,29.29,4.95Zm-18,3a1,1,0,0,1,1-1h3.44V6.32a2.31,2.31,0,0,1,4.63,0V7h3.44a1,1,0,0,1,1,1V9.8H11.25Zm14.52,9.23-9.12,9.12-5.24-5.24a1.4,1.4,0,0,1,2-2l3.26,3.26,7.14-7.14a1.4,1.4,0,1,1,2,2Z"></path>
    <rect x="0" y="0" width="36" height="36" fill-opacity="0"/>
</svg>