<svg version="1.1" width="36" height="36"  viewBox="0 0 36 36" preserveAspectRatio="xMidYMid meet" xmlns="http://www.w3.org/2000/svg" xmlns:xlink="http://www.w3.org/1999/xlink">
    <title>thumbs-up-solid</title>
    <path d="M19.63,12.12C17.51,9.28,14.88,2,14.88,2S12,2.83,12,5.25V15H2.23a29.46,29.46,0,0,0,1.44,9.74C5.61,30.27,7.8,32,7.8,32h6.86C16.9,32,21,30.06,24,28.31V15.51A10.84,10.84,0,0,1,19.63,12.12Z" class="clr-i-solid clr-i-solid-path-1"></path><path d="M27,13a1,1,0,0,0-1,1V30a1,1,0,0,0,1,1h7V13Z" class="clr-i-solid clr-i-solid-path-2"></path>
    <rect x="0" y="0" width="36" height="36" fill-opacity="0"/>
</svg>