<svg version="1.1" width="36" height="36"  viewBox="0 0 36 36" preserveAspectRatio="xMidYMid meet" xmlns="http://www.w3.org/2000/svg" xmlns:xlink="http://www.w3.org/1999/xlink">
    <title>dollar-line</title>
    <path class="clr-i-outline clr-i-outline-path-1" d="M26,21.15a6.91,6.91,0,0,0-4.38-3.32A26,26,0,0,0,19,17.19V8.12A10.05,10.05,0,0,1,23.86,10a1,1,0,0,0,1.33-1.5A11.75,11.75,0,0,0,19,6.1V3a1,1,0,0,0-2,0V6c-4.4.1-6.83,2.29-7.57,4.18A5.56,5.56,0,0,0,11.66,17,13.2,13.2,0,0,0,17,18.84V28a12.3,12.3,0,0,1-7.14-2.74A1,1,0,1,0,8.49,26.7,14.09,14.09,0,0,0,17,30v3a1,1,0,0,0,2,0V30c2.82-.19,6.07-1.09,7.3-4.76A5.33,5.33,0,0,0,26,21.15ZM12.79,15.32a3.57,3.57,0,0,1-1.49-4.39C11.41,10.63,12.53,8.12,17,8v8.8A10.7,10.7,0,0,1,12.79,15.32ZM24.4,24.56c-.72,2.14-2.32,3.17-5.4,3.4V19.23c.64.14,1.3.3,2,.51a5,5,0,0,1,3.19,2.32A3.34,3.34,0,0,1,24.4,24.56Z"></path>
    <rect x="0" y="0" width="36" height="36" fill-opacity="0"/>
</svg>