<svg version="1.1" width="36" height="36"  viewBox="0 0 36 36" preserveAspectRatio="xMidYMid meet" xmlns="http://www.w3.org/2000/svg" xmlns:xlink="http://www.w3.org/1999/xlink">
    <title>ruble-line</title>
    <path d="M20.57,20A8.23,8.23,0,0,0,29,12a8.23,8.23,0,0,0-8.43-8H12a1,1,0,0,0-1,1V18H9a1,1,0,0,0,0,2h2v2H9a1,1,0,0,0,0,2h2v7a1,1,0,0,0,2,0V24h9a1,1,0,0,0,0-2H13V20ZM13,6h7.57A6.24,6.24,0,0,1,27,12a6.23,6.23,0,0,1-6.43,6H13Z" class="clr-i-outline clr-i-outline-path-1"></path>
    <rect x="0" y="0" width="36" height="36" fill-opacity="0"/>
</svg>