<svg version="1.1" width="36" height="36"  viewBox="0 0 36 36" preserveAspectRatio="xMidYMid meet" xmlns="http://www.w3.org/2000/svg" xmlns:xlink="http://www.w3.org/1999/xlink">
    <title>rupee-line</title>
    <path class="clr-i-outline clr-i-outline-path-1" d="M28,8H24.14A7.52,7.52,0,0,0,22.6,6H28a1,1,0,0,0,0-2H10a1,1,0,0,0,0,2h7.55a5.42,5.42,0,0,1,4.2,2H10a1,1,0,0,0,0,2H22.79A5.54,5.54,0,0,1,23,11.51,5.48,5.48,0,0,1,17.55,17H11.14a1,1,0,0,0-.75,1.66L22.06,32a1,1,0,1,0,1.5-1.32L13.35,19h4.21a7.51,7.51,0,0,0,7.3-9H28a1,1,0,0,0,0-2Z"></path>
    <rect x="0" y="0" width="36" height="36" fill-opacity="0"/>
</svg>