<svg version="1.1" width="36" height="36"  viewBox="0 0 36 36" preserveAspectRatio="xMidYMid meet" xmlns="http://www.w3.org/2000/svg" xmlns:xlink="http://www.w3.org/1999/xlink">
    <title>shopping-bag-line</title>
    <path class="clr-i-outline clr-i-outline-path-1" d="M25,12V9.05a7,7,0,1,0-14,0v7a1,1,0,0,0,2,0V14h8V12H13V9.05a5,5,0,1,1,10,0V16a1,1,0,1,0,2,0V14h5V32H6V14H9V12H4V32.09A1.91,1.91,0,0,0,5.91,34H30.09A1.91,1.91,0,0,0,32,32.09V12Z"></path>
    <rect x="0" y="0" width="36" height="36" fill-opacity="0"/>
</svg>