<svg version="1.1" width="36" height="36"  viewBox="0 0 36 36" preserveAspectRatio="xMidYMid meet" xmlns="http://www.w3.org/2000/svg" xmlns:xlink="http://www.w3.org/1999/xlink">
    <title>shopping-cart-solid-alerted</title>
    <circle cx="13.5" cy="29.5" r="2.5" class="clr-i-solid--alerted clr-i-solid-path-1--alerted"></circle><circle cx="26.5" cy="29.5" r="2.5" class="clr-i-solid--alerted clr-i-solid-path-2--alerted"></circle><path d="M22.23,15.4A3.68,3.68,0,0,1,19,9.89L21.29,6H9.21L8.76,4.57a1,1,0,0,0-.66-.65L4,2.66a1,1,0,1,0-.59,1.92L7,5.68l4.58,14.47L9.95,21.49l-.13.13A2.66,2.66,0,0,0,9.74,25,2.75,2.75,0,0,0,12,26H28.69a1,1,0,0,0,0-2H11.84a.67.67,0,0,1-.56-1l2.41-2H29.12a1,1,0,0,0,1-.76l1.19-4.84Z" class="clr-i-solid--alerted clr-i-solid-path-3--alerted"></path><path d="M26.85,1.14,21.13,11A1.28,1.28,0,0,0,22.23,13H33.68A1.28,1.28,0,0,0,34.78,11L29.06,1.14A1.28,1.28,0,0,0,26.85,1.14Z" class="clr-i-solid--alerted clr-i-solid-path-4--alerted clr-i-alert"></path>
    <rect x="0" y="0" width="36" height="36" fill-opacity="0"/>
</svg>