<svg version="1.1" width="36" height="36"  viewBox="0 0 36 36" preserveAspectRatio="xMidYMid meet" xmlns="http://www.w3.org/2000/svg" xmlns:xlink="http://www.w3.org/1999/xlink">
    <title>shopping-cart-line</title>
    <circle cx="13.33" cy="29.75" r="2.25" class="clr-i-outline clr-i-outline-path-1"></circle><circle cx="27" cy="29.75" r="2.25" class="clr-i-outline clr-i-outline-path-2"></circle><path d="M33.08,5.37A1,1,0,0,0,32.31,5H11.49l.65,2H31L28.33,19h-15L8.76,4.53a1,1,0,0,0-.66-.65L4,2.62a1,1,0,1,0-.59,1.92L7,5.64l4.59,14.5L9.95,21.48l-.13.13A2.66,2.66,0,0,0,9.74,25,2.75,2.75,0,0,0,12,26H28.69a1,1,0,0,0,0-2H11.84a.67.67,0,0,1-.56-1l2.41-2H29.13a1,1,0,0,0,1-.78l3.17-14A1,1,0,0,0,33.08,5.37Z" class="clr-i-outline clr-i-outline-path-3"></path>
    <rect x="0" y="0" width="36" height="36" fill-opacity="0"/>
</svg>