<svg version="1.1" width="36" height="36"  viewBox="0 0 36 36" preserveAspectRatio="xMidYMid meet" xmlns="http://www.w3.org/2000/svg" xmlns:xlink="http://www.w3.org/1999/xlink">
    <title>backup-solid</title>
    <path class="clr-i-solid clr-i-solid-path-1" d="M18,19.84l6.38-6.35A1,1,0,1,0,23,12.08L19,16V4a1,1,0,1,0-2,0V16l-4-3.95a1,1,0,0,0-1.41,1.42Z"></path><path class="clr-i-solid clr-i-solid-path-2" d="M19.41,21.26l-.74.74H33.93c-.17-.57-.79-2.31-3.09-8.63A1.94,1.94,0,0,0,28.93,12H26.55a3,3,0,0,1-.76,2.92Z"></path><path class="clr-i-solid clr-i-solid-path-3" d="M16.58,21.26,10.2,14.91A3,3,0,0,1,9.44,12H7.07a1.92,1.92,0,0,0-1.9,1.32C2.86,19.68,2.24,21.43,2.07,22H17.33Z"></path><path class="clr-i-solid clr-i-solid-path-4" d="M2,24v6a2,2,0,0,0,2,2H32a2,2,0,0,0,2-2V24Zm28,4H26V26h4Z"></path>
    <rect x="0" y="0" width="36" height="36" fill-opacity="0"/>
</svg>