<svg version="1.1" width="36" height="36"  viewBox="0 0 36 36" preserveAspectRatio="xMidYMid meet" xmlns="http://www.w3.org/2000/svg" xmlns:xlink="http://www.w3.org/1999/xlink">
    <title>battery-outline-alerted</title>
    <path d="M18.59,11.77a1,1,0,0,0-1.73,1l2.5,4.34-6.07-1,5.29,10.59a1,1,0,0,0,1.79-.89l-3.53-7.08,6.38,1.06Z" class="clr-i-outline--alerted clr-i-outline-path-1--alerted"></path><path d="M26.85,1.14,21.13,11A1.28,1.28,0,0,0,22.23,13H33.68A1.28,1.28,0,0,0,34.78,11L29.06,1.14A1.28,1.28,0,0,0,26.85,1.14Z" class="clr-i-outline--alerted clr-i-outline-path-2--alerted clr-i-alert"></path><path d="M25,15.4V32H11V6h4V4h6V6h.28l1.64-2.85A1.57,1.57,0,0,0,21.42,2H14.58A1.58,1.58,0,0,0,13,3.58V4H10.88A1.88,1.88,0,0,0,9,5.88V32.12A1.88,1.88,0,0,0,10.88,34H25.12A1.88,1.88,0,0,0,27,32.12V15.4Z" class="clr-i-outline--alerted clr-i-outline-path-3--alerted"></path>
    <rect x="0" y="0" width="36" height="36" fill-opacity="0"/>
</svg>