<svg version="1.1" width="36" height="36"  viewBox="0 0 36 36" preserveAspectRatio="xMidYMid meet" xmlns="http://www.w3.org/2000/svg" xmlns:xlink="http://www.w3.org/1999/xlink">
    <title>blocks-group-solid</title>
    <path class="clr-i-solid clr-i-solid-path-1" d="M33.53,18.76,26.6,15.57V6.43A1,1,0,0,0,26,5.53l-7.5-3.45a1,1,0,0,0-.84,0l-7.5,3.45a1,1,0,0,0-.58.91v9.14L2.68,18.76a1,1,0,0,0-.58.91v9.78h0a1,1,0,0,0,.58.91l7.5,3.45a1,1,0,0,0,.84,0l7.08-3.26,7.08,3.26a1,1,0,0,0,.84,0l7.5-3.45a1,1,0,0,0,.58-.91h0V19.67A1,1,0,0,0,33.53,18.76ZM25.61,22,20.5,19.67l5.11-2.35,5.11,2.35Zm-1-6.44-6.44,3V10.87a1,1,0,0,0,.35-.08L24.6,8v7.58ZM18.1,4.08l5.11,2.35L18.1,8.78,13,6.43ZM10.6,17.31l5.11,2.35L10.6,22,5.49,19.67Zm6.5,11.49-6.5,3h0V24.11h0A1,1,0,0,0,11,24l6.08-2.8Zm15,0-6.46,3V24.11A1,1,0,0,0,26,24l6.08-2.8Z"></path>
    <rect x="0" y="0" width="36" height="36" fill-opacity="0"/>
</svg>