<svg version="1.1" width="36" height="36"  viewBox="0 0 36 36" preserveAspectRatio="xMidYMid meet" xmlns="http://www.w3.org/2000/svg" xmlns:xlink="http://www.w3.org/1999/xlink">
    <title>computer-line</title>
    <polygon points="9.6 22.88 9.6 10.6 24.4 10.6 25.98 9 8 9 8 22.88 9.6 22.88" class="clr-i-outline clr-i-outline-path-1"></polygon><path d="M6,7H30V23h2V6.5A1.5,1.5,0,0,0,30.5,5H5.5A1.5,1.5,0,0,0,4,6.5V23H6Z" class="clr-i-outline clr-i-outline-path-2"></path><path d="M1,25v3.4A2.6,2.6,0,0,0,3.6,31H32.34a2.6,2.6,0,0,0,2.6-2.6V25Zm32,3.4a.6.6,0,0,1-.6.6H3.56a.6.6,0,0,1-.6-.6V26.53h9.95a1.64,1.64,0,0,0,1.5,1h7.13a1.64,1.64,0,0,0,1.5-1H33Z" class="clr-i-outline clr-i-outline-path-3"></path>
    <rect x="0" y="0" width="36" height="36" fill-opacity="0"/>
</svg>