<svg version="1.1" width="36" height="36"  viewBox="0 0 36 36" preserveAspectRatio="xMidYMid meet" xmlns="http://www.w3.org/2000/svg" xmlns:xlink="http://www.w3.org/1999/xlink">
    <title>floppy-solid</title>
    <path d="M27.36,4H6A2,2,0,0,0,4,6V30a2,2,0,0,0,2,2H30a2,2,0,0,0,2-2V8.78ZM26,30H10V21.5A1.5,1.5,0,0,1,11.5,20h13A1.5,1.5,0,0,1,26,21.5ZM24,14H12a2,2,0,0,1-2-2V6h2v6H26A2,2,0,0,1,24,14Z" class="clr-i-solid clr-i-solid-path-1"></path>
    <rect x="0" y="0" width="36" height="36" fill-opacity="0"/>
</svg>