<svg version="1.1" width="36" height="36"  viewBox="0 0 36 36" preserveAspectRatio="xMidYMid meet" xmlns="http://www.w3.org/2000/svg" xmlns:xlink="http://www.w3.org/1999/xlink">
    <title>import-line</title>
    <path d="M28,4H14.87L8,10.86V15h2V13.61h7.61V6H28V30H8a2,2,0,0,0,2,2H28a2,2,0,0,0,2-2V6A2,2,0,0,0,28,4ZM16,12H10v-.32L15.7,6H16Z" class="clr-i-outline clr-i-outline-path-1"></path><path d="M11.94,26.28a1,1,0,1,0,1.41,1.41L19,22l-5.68-5.68a1,1,0,0,0-1.41,1.41L15.2,21H3a1,1,0,1,0,0,2H15.23Z" class="clr-i-outline clr-i-outline-path-2"></path>
    <rect x="0" y="0" width="36" height="36" fill-opacity="0"/>
</svg>