<svg version="1.1" width="36" height="36"  viewBox="0 0 36 36" preserveAspectRatio="xMidYMid meet" xmlns="http://www.w3.org/2000/svg" xmlns:xlink="http://www.w3.org/1999/xlink">
    <title>network-switch-outline-alerted</title>
    <rect x="7.12" y="22" width="1.8" height="3" class="clr-i-outline--alerted clr-i-outline-path-1--alerted"></rect><rect x="12.12" y="22" width="1.8" height="3" class="clr-i-outline--alerted clr-i-outline-path-2--alerted"></rect><rect x="17.11" y="22" width="1.8" height="3" class="clr-i-outline--alerted clr-i-outline-path-3--alerted"></rect><rect x="22.1" y="22" width="1.8" height="3" class="clr-i-outline--alerted clr-i-outline-path-4--alerted"></rect><rect x="27.1" y="22" width="1.8" height="3" class="clr-i-outline--alerted clr-i-outline-path-5--alerted"></rect><rect x="6.23" y="18" width="23.69" height="1.4" class="clr-i-outline--alerted clr-i-outline-path-6--alerted"></rect><path d="M33.91,18.47,33,15.4H30.86L32,19.06V27H4V19.06L7.13,9H19.56l1.15-2H7.13A2,2,0,0,0,5.22,8.41L2.09,18.48a2,2,0,0,0-.09.59V27a2,2,0,0,0,2,2H32a2,2,0,0,0,2-2V19.06A2,2,0,0,0,33.91,18.47Z" class="clr-i-outline--alerted clr-i-outline-path-7--alerted"></path><path d="M26.85,1.14,21.13,11A1.28,1.28,0,0,0,22.23,13H33.68A1.28,1.28,0,0,0,34.78,11L29.06,1.14A1.28,1.28,0,0,0,26.85,1.14Z" class="clr-i-outline--alerted clr-i-outline-path-8--alerted clr-i-alert"></path>
    <rect x="0" y="0" width="36" height="36" fill-opacity="0"/>
</svg>