<svg version="1.1" width="36" height="36"  viewBox="0 0 36 36" preserveAspectRatio="xMidYMid meet" xmlns="http://www.w3.org/2000/svg" xmlns:xlink="http://www.w3.org/1999/xlink">
    <title>qr-code-line</title>
    <path d="M5.6,4A1.6,1.6,0,0,0,4,5.6V12h8V4ZM10,10H6V6h4Z" class="clr-i-outline clr-i-outline-path-1"></path><path d="M4,30.4A1.6,1.6,0,0,0,5.6,32H12V24H4ZM6,26h4v4H6Z" class="clr-i-outline clr-i-outline-path-2"></path><path d="M24,32h6.4A1.6,1.6,0,0,0,32,30.4V24H24Zm2-6h4v4H26Z" class="clr-i-outline clr-i-outline-path-3"></path><path d="M30.4,4H24v8h8V5.6A1.6,1.6,0,0,0,30.4,4ZM30,10H26V6h4Z" class="clr-i-outline clr-i-outline-path-4"></path><polygon points="20 10 20 8 16 8 16 12 18 12 18 10 20 10" class="clr-i-outline clr-i-outline-path-5"></polygon><rect x="12" y="12" width="2" height="2" class="clr-i-outline clr-i-outline-path-6"></rect><rect x="14" y="14" width="4" height="2" class="clr-i-outline clr-i-outline-path-7"></rect><polygon points="20 6 20 8 22 8 22 4 14 4 14 8 16 8 16 6 20 6" class="clr-i-outline clr-i-outline-path-8"></polygon><rect x="4" y="14" width="2" height="4" class="clr-i-outline clr-i-outline-path-9"></rect><polygon points="12 16 12 18 10 18 10 14 8 14 8 18 6 18 6 20 4 20 4 22 8 22 8 20 10 20 10 22 12 22 12 20 14 20 14 16 12 16" class="clr-i-outline clr-i-outline-path-10"></polygon><polygon points="20 16 22 16 22 18 24 18 24 16 26 16 26 14 22 14 22 10 20 10 20 12 18 12 18 14 20 14 20 16" class="clr-i-outline clr-i-outline-path-11"></polygon><polygon points="18 30 14 30 14 32 22 32 22 30 20 30 20 28 18 28 18 30" class="clr-i-outline clr-i-outline-path-12"></polygon><polygon points="22 20 22 18 20 18 20 16 18 16 18 18 16 18 16 20 18 20 18 22 20 22 20 20 22 20" class="clr-i-outline clr-i-outline-path-13"></polygon><rect x="30" y="20" width="2" height="2" class="clr-i-outline clr-i-outline-path-14"></rect><rect x="22" y="20" width="6" height="2" class="clr-i-outline clr-i-outline-path-15"></rect><polygon points="30 14 28 14 28 16 26 16 26 18 28 18 28 20 30 20 30 18 32 18 32 16 30 16 30 14" class="clr-i-outline clr-i-outline-path-16"></polygon><rect x="20" y="22" width="2" height="6" class="clr-i-outline clr-i-outline-path-17"></rect><polygon points="14 28 16 28 16 26 18 26 18 24 16 24 16 20 14 20 14 28" class="clr-i-outline clr-i-outline-path-18"></polygon>
    <rect x="0" y="0" width="36" height="36" fill-opacity="0"/>
</svg>