<svg version="1.1" width="36" height="36"  viewBox="0 0 36 36" preserveAspectRatio="xMidYMid meet" xmlns="http://www.w3.org/2000/svg" xmlns:xlink="http://www.w3.org/1999/xlink">
    <title>resource-pool-solid-alerted</title>
    <path d="M8.57,30.9A16,16,0,0,0,33.95,19H18.43Z" class="clr-i-solid--alerted clr-i-solid-path-1--alerted"></path><path d="M33.95,17a16,16,0,0,0-.18-1.61H22.23A3.68,3.68,0,0,1,19,9.89l4.06-7A16,16,0,0,0,7,29.6L17.49,17Z" class="clr-i-solid--alerted clr-i-solid-path-2--alerted"></path><path d="M26.85,1.14,21.13,11A1.28,1.28,0,0,0,22.23,13H33.68A1.28,1.28,0,0,0,34.78,11L29.06,1.14A1.28,1.28,0,0,0,26.85,1.14Z" class="clr-i-solid--alerted clr-i-solid-path-3--alerted clr-i-alert"></path>
    <rect x="0" y="0" width="36" height="36" fill-opacity="0"/>
</svg>