<svg version="1.1" width="36" height="36"  viewBox="0 0 36 36" preserveAspectRatio="xMidYMid meet" xmlns="http://www.w3.org/2000/svg" xmlns:xlink="http://www.w3.org/1999/xlink">
    <title>resource-pool-outline-alerted</title>
    <path d="M33.68,15.4H31.73a14,14,0,0,1,.22,1.6H17.49L8.3,28.07A14,14,0,0,1,22.09,4.62l1-1.76A16,16,0,1,0,34,18a16,16,0,0,0-.23-2.61ZM18,32a13.91,13.91,0,0,1-8.16-2.65L18.43,19H31.95A14,14,0,0,1,18,32Z" class="clr-i-outline--alerted clr-i-outline-path-1--alerted"></path><path d="M26.85,1.14,21.13,11A1.28,1.28,0,0,0,22.23,13H33.68A1.28,1.28,0,0,0,34.78,11L29.06,1.14A1.28,1.28,0,0,0,26.85,1.14Z" class="clr-i-outline--alerted clr-i-outline-path-2--alerted clr-i-alert"></path>
    <rect x="0" y="0" width="36" height="36" fill-opacity="0"/>
</svg>