<svg version="1.1" width="36" height="36"  viewBox="0 0 36 36" preserveAspectRatio="xMidYMid meet" xmlns="http://www.w3.org/2000/svg" xmlns:xlink="http://www.w3.org/1999/xlink">
    <title>router-outline-alerted</title>
    <path d="M18,21.13l-5.11,5.14a1,1,0,0,0,1.42,1.41L17,25v7.69a1,1,0,0,0,2,0V25l2.69,2.71a1,1,0,0,0,1.42-1.41Z" class="clr-i-outline--alerted clr-i-outline-path-1--alerted"></path><path d="M5.85,19h7.69a1,1,0,0,0,0-2H5.85l2.71-2.69a1,1,0,1,0-1.41-1.42L2,18l5.14,5.11a1,1,0,1,0,1.41-1.42Z" class="clr-i-outline--alerted clr-i-outline-path-2--alerted"></path><path d="M31.38,15.4H28.54L30.15,17H22.46a1,1,0,1,0,0,2h7.69l-2.71,2.69a1,1,0,0,0,1.41,1.42L34,18Z" class="clr-i-outline--alerted clr-i-outline-path-3--alerted"></path><path d="M18,14.87l1.15-1.16-.1-.15A3.68,3.68,0,0,1,19,10V3.33a1,1,0,0,0-2,0V11L14.31,8.32a1,1,0,1,0-1.42,1.41Z" class="clr-i-outline--alerted clr-i-outline-path-4--alerted"></path><path d="M26.85,1.14,21.13,11A1.28,1.28,0,0,0,22.23,13H33.68A1.28,1.28,0,0,0,34.78,11L29.06,1.14A1.28,1.28,0,0,0,26.85,1.14Z" class="clr-i-outline--alerted clr-i-outline-path-5--alerted clr-i-alert"></path>
    <rect x="0" y="0" width="36" height="36" fill-opacity="0"/>
</svg>