<svg version="1.1" width="36" height="36"  viewBox="0 0 36 36" preserveAspectRatio="xMidYMid meet" xmlns="http://www.w3.org/2000/svg" xmlns:xlink="http://www.w3.org/1999/xlink">
    <title>storage-line</title>
    <path class="clr-i-outline clr-i-outline-path-1" d="M33,6.69h0c-.18-3.41-9.47-4.33-15-4.33S3,3.29,3,6.78V29.37c0,3.49,9.43,4.43,15,4.43s15-.93,15-4.43V6.78s0,0,0,0S33,6.7,33,6.69Zm-2,7.56c-.33.86-5.06,2.45-13,2.45A37.45,37.45,0,0,1,7,15.34v2.08A43.32,43.32,0,0,0,18,18.7c4,0,9.93-.48,13-2v5.17c-.33.86-5.06,2.45-13,2.45A37.45,37.45,0,0,1,7,22.92V25a43.32,43.32,0,0,0,11,1.28c4,0,9.93-.48,13-2v5.1c-.35.86-5.08,2.45-13,2.45S5.3,30.2,5,29.37V6.82C5.3,6,10,4.36,18,4.36c7.77,0,12.46,1.53,13,2.37-.52.87-5.21,2.39-13,2.39A37.6,37.6,0,0,1,7,7.76V9.85a43.53,43.53,0,0,0,11,1.27c4,0,9.93-.48,13-2Z"></path>
    <rect x="0" y="0" width="36" height="36" fill-opacity="0"/>
</svg>