<svg version="1.1" width="36" height="36"  viewBox="0 0 36 36" preserveAspectRatio="xMidYMid meet" xmlns="http://www.w3.org/2000/svg" xmlns:xlink="http://www.w3.org/1999/xlink">
    <title>vm-line</title>
    <path d="M11,5H25V8h2V5a2,2,0,0,0-2-2H11A2,2,0,0,0,9,5v6.85h2Z" class="clr-i-outline clr-i-outline-path-1"></path><path d="M30,10H17v2h8v6h2V12h3V26H22V17a2,2,0,0,0-2-2H6a2,2,0,0,0-2,2V31a2,2,0,0,0,2,2H20a2,2,0,0,0,2-2V28h8a2,2,0,0,0,2-2V12A2,2,0,0,0,30,10ZM6,31V17H20v9H16V20H14v6a2,2,0,0,0,2,2h4v3Z" class="clr-i-outline clr-i-outline-path-2"></path>
    <rect x="0" y="0" width="36" height="36" fill-opacity="0"/>
</svg>