<svg version="1.1" width="36" height="36"  viewBox="0 0 36 36" preserveAspectRatio="xMidYMid meet" xmlns="http://www.w3.org/2000/svg" xmlns:xlink="http://www.w3.org/1999/xlink">
    <title>headphones-solid</title>
    <path class="clr-i-solid clr-i-solid-path-1" d="M18,3A14.27,14.27,0,0,0,4,17.5V31H8.2A1.74,1.74,0,0,0,10,29.33V22.67A1.74,1.74,0,0,0,8.2,21H6V17.5A12.27,12.27,0,0,1,18,5,12.27,12.27,0,0,1,30,17.5V21H27.8A1.74,1.74,0,0,0,26,22.67v6.67A1.74,1.74,0,0,0,27.8,31H32V17.5A14.27,14.27,0,0,0,18,3Z"></path>
    <rect x="0" y="0" width="36" height="36" fill-opacity="0"/>
</svg>