<svg version="1.1" width="36" height="36"  viewBox="0 0 36 36" preserveAspectRatio="xMidYMid meet" xmlns="http://www.w3.org/2000/svg" xmlns:xlink="http://www.w3.org/1999/xlink">
    <title>video-camera-line</title>
    <path class="clr-i-outline clr-i-outline-path-1" d="M34,10.34a2.11,2.11,0,0,0-1.16-1.9,2,2,0,0,0-2.13.15L26,11.6V8a2,2,0,0,0-2-2H6a4,4,0,0,0-4,4V26a4,4,0,0,0,4,4H24a2,2,0,0,0,2-2V24.4l4.64,3a2.07,2.07,0,0,0,2.2.2A2.11,2.11,0,0,0,34,25.66ZM31.93,25.77c-.06,0-.11,0-.19-.06L24,20.77V28H6a2,2,0,0,1-2-2V10A2,2,0,0,1,6,8H24v7.23l7.8-5a.11.11,0,0,1,.13,0,.11.11,0,0,1,.07.11V25.66A.11.11,0,0,1,31.93,25.77Z"></path>
    <rect x="0" y="0" width="36" height="36" fill-opacity="0"/>
</svg>