<svg version="1.1" width="36" height="36"  viewBox="0 0 36 36" preserveAspectRatio="xMidYMid meet" xmlns="http://www.w3.org/2000/svg" xmlns:xlink="http://www.w3.org/1999/xlink">
    <title>fast-forward-solid</title>
    <path class="clr-i-solid clr-i-solid-path-1" d="M17.71,32a2,2,0,0,1-.86-.2A1.77,1.77,0,0,1,16,30v-6.7L5.17,31.58a1.94,1.94,0,0,1-2.06.22A2,2,0,0,1,2,30V6A2,2,0,0,1,3.11,4.2a1.93,1.93,0,0,1,2.06.22L16,12.69V6a1.77,1.77,0,0,1,.85-1.79,1.93,1.93,0,0,1,2.06.22l15.32,12a2,2,0,0,1,0,3.15l-15.32,12A2,2,0,0,1,17.71,32Z"></path>
    <rect x="0" y="0" width="36" height="36" fill-opacity="0"/>
</svg>