<svg xmlns="http://www.w3.org/2000/svg" viewBox="0 0 690 690"><title>Clarity_logo_xmas</title><g id="ac51aeb7-43be-455b-8d15-f051873eaf94" data-name="Layer 1"><rect x="114.17" y="351.56" width="482.26" height="132.07" fill="#fafafa"/><rect x="114.17" y="229.6" width="482.26" height="143.98" fill="#a6d8e7"/><g id="a12f5969-2448-4bca-ac2b-1484dacbcae6" data-name="Page-1"><g id="8e466fa2-b805-4745-8f4d-c2536719c5dd" data-name="logo"><g id="d46078dc-0914-4acf-92fc-5f1c05c27507" data-name="large"><polygon id="9ca67f21-7fa1-4ef1-a703-06bd88153063" data-name="Fill-3" points="473.48 86.55 690 214.91 690 475.58 473.48 603.59 345.01 527.27 568.94 401.56 568.94 288.21 477.71 238.16 345.3 162.49 473.48 86.55" fill="#0095d3"/><polygon id="d3e84d39-ff68-42dc-9022-469a4be3b294" data-name="Fill-4" points="216.52 86.55 0 214.91 0 475.58 216.52 603.59 345 527.26 140.09 401.56 140.09 288.21 345.31 162.48 216.52 86.55" fill="#f38b00"/><polyline id="a65baf1b-7b1d-4a87-a8aa-7f44185df87e" data-name="Fill-5" points="344.79 526.98 219.59 450.18 344.86 376.34 477.96 452.23" fill="#004b70"/><polyline id="ca77b8b2-e2d0-465e-9982-aae7f5bd2ae9" data-name="Fill-6" points="345.06 162.42 220.13 238.94 345.3 313.54 477.09 237.88" fill="#98441e"/></g></g></g><polygon points="568.57 401.35 477.95 452.22 477.96 452.23 344.79 526.98 473.17 603.25 689.54 475.32 689.54 374.58 568.57 374.58 568.57 401.35" fill="#3ac5ef"/><polygon points="219.6 450.18 139.99 401.35 139.99 374.58 0 374.58 0 475.32 216.38 603.25 344.77 526.97 219.59 450.18 219.6 450.18" fill="#ffad4a"/><polygon points="477.37 452.22 344.28 376.34 219.02 450.18 344.2 526.97 344.19 526.97 344.21 526.98 344.21 526.98 344.21 526.98 477.37 452.22" fill="#158dbc"/><line x1="191.8" y1="280.35" x2="172.68" y2="316.32" fill="none" stroke="#fff" stroke-linecap="round" stroke-miterlimit="10" stroke-width="2.48"/><line x1="171.07" y1="281.26" x2="193.4" y2="315.41" fill="none" stroke="#fff" stroke-linecap="round" stroke-miterlimit="10" stroke-width="2.48"/><line x1="161.51" y1="299.24" x2="202.96" y2="297.43" fill="none" stroke="#fff" stroke-linecap="round" stroke-miterlimit="10" stroke-width="2.48"/><path d="M441.07,152.29l-15.8-4.06,11.42-11.65a1.69,1.69,0,1,0-2.41-2.36l-11.41,11.65-4.39-15.71a1.68,1.68,0,1,0-3.24.9l4.38,15.71-15.8-4.06A1.69,1.69,0,0,0,403,146l15.8,4.06-11.41,11.65a1.68,1.68,0,0,0,1.2,2.86,1.65,1.65,0,0,0,1.2-.5l11.42-11.65,4.38,15.71a1.7,1.7,0,0,0,1.62,1.23,1.82,1.82,0,0,0,.46-.06,1.69,1.69,0,0,0,1.17-2.08l-4.38-15.71,15.79,4.06a1.58,1.58,0,0,0,.42.06,1.69,1.69,0,0,0,.42-3.32Z" fill="#fff"/><path d="M683.1,164.56l-15.46.94,5.69-9.6a2.13,2.13,0,0,0-3.66-2.17l-7.16,12.08-8.89.54,10.93-19.75a2.13,2.13,0,0,0-3.72-2.06l-12.25,22.11L627.1,168a14.12,14.12,0,0,0-.62-3,13.81,13.81,0,0,0-4.66-6.65l9.54-19.19,24.5-2.15a2.13,2.13,0,0,0-.37-4.24l-21.91,1.93,3.94-7.91,13.53-1.6a2.12,2.12,0,1,0-.5-4.22l-10.77,1.27,6.84-13.75a2.13,2.13,0,0,0-3.81-1.89l-6.9,13.87-5.48-9.74a2.13,2.13,0,0,0-3.71,2.08L633.61,125l-4,8L618,113.58a2.13,2.13,0,0,0-3.64,2.2l13,21.71-9.3,18.7a13.69,13.69,0,0,0-11.84,1.07L594.6,139.11l10.64-22.85a2.13,2.13,0,0,0-3.86-1.8l-9.5,20.41-4.81-7.49,5.53-12.86a2.13,2.13,0,1,0-3.91-1.68l-4.39,10.21-8.36-13a2.13,2.13,0,0,0-3.58,2.3l8.31,12.94-10.9-.12h0a2.13,2.13,0,0,0,0,4.26l13.7.16L588.2,137l-22.1.4a2.13,2.13,0,0,0,0,4.26h0l24.72-.45,12,18.77a14.51,14.51,0,0,0-2,2.92,13.93,13.93,0,0,0-1.49,6.24l-23,1.16-14.39-20.53a2.13,2.13,0,0,0-3.49,2.45l12.86,18.33-8.88.45-8.32-11.15a2.13,2.13,0,1,0-3.41,2.54l6.62,8.87L542,172a2.13,2.13,0,0,0,.11,4.26h.11l15.38-.77L552,184.94a2.12,2.12,0,0,0,.74,2.91,2.06,2.06,0,0,0,1.09.3,2.13,2.13,0,0,0,1.83-1l7-11.86,8.85-.45-10.76,19.44a2.13,2.13,0,1,0,3.72,2.06l12-21.75,23.54-1.18a13.87,13.87,0,0,0,5.23,7.13l-10.87,21.24-25,2.2a2.12,2.12,0,0,0,.18,4.24h.19l22.31-2-4,7.91-13.82,1.63a2.13,2.13,0,0,0,.25,4.24l.25,0,11-1.29-7,13.75a2.13,2.13,0,0,0,.93,2.86,2.09,2.09,0,0,0,1,.23,2.12,2.12,0,0,0,1.9-1.16l7-13.7,5.37,9.55a2.12,2.12,0,0,0,1.86,1.09,2.18,2.18,0,0,0,1-.27,2.13,2.13,0,0,0,.81-2.9l-6.75-12,4-7.89,11.45,19a2.13,2.13,0,0,0,1.82,1,2.08,2.08,0,0,0,1.09-.31,2.12,2.12,0,0,0,.73-2.92l-12.81-21.3,10.95-21.37a13.63,13.63,0,0,0,4.14.66,13.86,13.86,0,0,0,4.31-.68l.2-.08L630.62,202l-10.52,22.6a2.12,2.12,0,0,0,1,2.83,2.22,2.22,0,0,0,.9.2,2.14,2.14,0,0,0,1.93-1.23l9.4-20.2,4.84,7.44-5.46,12.7a2.13,2.13,0,0,0,1.11,2.8,2.25,2.25,0,0,0,.84.17,2.11,2.11,0,0,0,1.95-1.29L641,217.9l8.41,12.92a2.13,2.13,0,0,0,1.79,1,2.18,2.18,0,0,0,1.16-.35,2.13,2.13,0,0,0,.62-2.94l-8.42-12.93,11,.13h0a2.13,2.13,0,0,0,0-4.26l-13.87-.16-4.84-7.44,22.32-.4a2.13,2.13,0,1,0-.07-4.25l-25,.44-12.6-19.33a13.66,13.66,0,0,0,4.08-4.83,13.8,13.8,0,0,0,1.16-3.24l22.33-1.35,14.15,20.19a2.13,2.13,0,1,0,3.48-2.45l-12.65-18L663,170l8.16,11a2.13,2.13,0,1,0,3.41-2.54L668,169.74l15.33-.93a2.13,2.13,0,0,0-.26-4.25Zm-61,9.1a9.87,9.87,0,1,1,.58-7.53A9.83,9.83,0,0,1,622.09,173.66Z" fill="#8de1ff"/><circle cx="227.23" cy="124.44" r="3" fill="#fff"/><circle cx="178.11" cy="184.47" r="3.9" fill="#fff"/><circle cx="613.44" cy="248.61" r="3.9" fill="#fff"/><circle cx="517.39" cy="132.54" r="3.9" fill="#fff"/><path d="M90.16,248.51a5,5,0,0,0-3.78,1.76l-22.47-5.78,15.75-16.08a4,4,0,0,0,.42.3,5,5,0,1,0-2.35-3.14L61.5,242.14l-5.92-21.21c.17-.08.33-.13.49-.22a5,5,0,1,0-3.92.45L58.25,243l-21.13-5.43s0-.07,0-.11a5,5,0,1,0-5,5,4.93,4.93,0,0,0,3.75-1.73l21.53,5.54L41.88,262.16a5,5,0,1,0,2.37,2.4l15.57-15.89,6.1,21.85a5,5,0,1,0,3.26-.86l-6.11-21.9,22.09,5.68v.07a5,5,0,1,0,5-5Z" fill="#fff"/><path d="M412.3,52.72a3.92,3.92,0,0,0-2.31.76l-17-4.37,11.69-11.92a4,4,0,1,0-1.83-5.59,4,4,0,0,0-.52,1.9L390,46.14l-4.37-15.7a4,4,0,1,0-4.37.17l4.65,16.67-15.7-4a4,4,0,1,0-3.9,4.71,3.91,3.91,0,0,0,2.29-.73l16.25,4.17L373.19,63.25a4,4,0,1,0,3,3.06l11.69-11.93,4.56,16.37a4,4,0,1,0,6.32.71,3.91,3.91,0,0,0-2.2-1.77l-4.59-16.45,16.47,4.23a4,4,0,1,0,3.89-4.75Z" fill="#8de1ff"/><circle cx="304.78" cy="168.96" r="6.5" fill="#fff"/><circle cx="131.68" cy="166.96" r="6.5" fill="#fff"/><circle cx="52.64" cy="309.04" r="6.5" fill="#fff"/><circle cx="469.87" cy="122.94" r="6.5" fill="#fff"/><circle cx="663.46" cy="267.01" r="6.5" fill="#fff"/><circle cx="170.7" cy="69.91" r="6.5" fill="#8de1ff"/><circle cx="278.76" cy="92.92" r="8.5" fill="#8de1ff"/><circle cx="540.4" cy="106.43" r="8.5" fill="#8de1ff"/><path d="M88.77,120.27a4.11,4.11,0,0,0-5.46-2A4,4,0,0,0,81.49,120l-11.28-.39,7.2-8.39a1.5,1.5,0,1,0-2.28-2l-8.76,10.21-15.12-.52,8-12.84,13.37-1.56a1.5,1.5,0,0,0-.35-3l-11,1.28,6-9.57a4.06,4.06,0,0,0,2.42-.57,4.11,4.11,0,1,0-5.64-1.4,3.34,3.34,0,0,0,.5.67l-5.8,9.28L55.08,90.8a1.5,1.5,0,0,0-2.83,1l4.46,12.69-8,12.84L41.59,104l5.33-12.36a1.5,1.5,0,1,0-2.76-1.18l-4.38,10.15-5.29-10A4.1,4.1,0,0,0,31,84.21a4.11,4.11,0,0,0,.15,8.22,4.38,4.38,0,0,0,.83-.1L37.14,102l-10.87-2a1.5,1.5,0,0,0-.56,3l13.23,2.48,7.11,13.36-15.12-.52-8-10.79a1.5,1.5,0,1,0-2.41,1.79l6.6,8.87-11.27-.39a4.1,4.1,0,1,0-.1,3.78,4,4,0,0,0,.33-.77l10.94.38-7.2,8.39a1.5,1.5,0,0,0,2.28,2l8.76-10.21,15.13.52-8,12.84-13.36,1.56a1.5,1.5,0,0,0,.17,3h.18l11-1.28-5.8,9.28a4.41,4.41,0,0,0-.82-.16,4.15,4.15,0,1,0,3.19,2l6-9.57,3.67,10.43a1.49,1.49,0,0,0,1.41,1,1.69,1.69,0,0,0,.5-.08,1.52,1.52,0,0,0,.92-1.92l-4.46-12.69,8-12.84,7.11,13.36-5.33,12.36A1.5,1.5,0,0,0,53,150.24l4.38-10.16,5.14,9.66a4.3,4.3,0,0,0-.55.64,4.12,4.12,0,1,0,3.36-1.75l-5.3-10,10.86,2,.28,0a1.5,1.5,0,0,0,.28-3l-13.23-2.48-7.11-13.36,15.13.52,8,10.8a1.52,1.52,0,0,0,1.21.6,1.51,1.51,0,0,0,1.2-2.4l-6.6-8.86,10.94.37a3.88,3.88,0,0,0,.27.79,4.11,4.11,0,1,0,7.45-3.47Z" fill="#8de1ff"/><path d="M309.28,409.94h43.36a1.5,1.5,0,0,0,0-3H309.28a1.5,1.5,0,0,0,0,3Z" fill="#8de1ff"/><path d="M364,409.94h7.34a1.5,1.5,0,0,0,0-3H364a1.5,1.5,0,0,0,0,3Z" fill="#8de1ff"/><path d="M263.25,418.94h31a1.5,1.5,0,0,0,0-3h-31a1.5,1.5,0,0,0,0,3Z" fill="#8de1ff"/><path d="M474.37,414.61H601.44a1.5,1.5,0,0,0,0-3H474.37a1.5,1.5,0,0,0,0,3Z" fill="#8de1ff"/><path d="M330,426h66.7a1.5,1.5,0,0,0,0-3H330a1.5,1.5,0,0,0,0,3Z" fill="#8de1ff"/><path d="M134.52,422.61h89.39a1.5,1.5,0,0,0,0-3H134.52a1.5,1.5,0,0,0,0,3Z" fill="#8de1ff"/><path d="M217.23,407.27h24a1.5,1.5,0,0,0,0-3h-24a1.5,1.5,0,0,0,0,3Z" fill="#8de1ff"/><path d="M201.89,407.27h6a1.5,1.5,0,0,0,0-3h-6a1.5,1.5,0,0,0,0,3Z" fill="#8de1ff"/><path d="M430,432h56.36a1.5,1.5,0,0,0,0-3H430a1.5,1.5,0,0,0,0,3Z" fill="#8de1ff"/><path d="M509.4,405.27h31.35a1.5,1.5,0,0,0,0-3H509.4a1.5,1.5,0,0,0,0,3Z" fill="#8de1ff"/><path d="M454,409.1l-18,3s5.32-5.61,8-11c2.51-5,2.4-9.74,2-14l-5,1.5c1.6,3.4-2.08,14.2-7,20.51-3.21,4.12-7.87,4.7-8.74,5.71.3,1.54,1,1.5,3,1.67,5.87.46,11.84.62,19.69.63,7.26,0,19.07-.74,19.07-.74Z" fill="#f38902"/><path d="M454,381.09c-1,12-10,22-10,22s-6-4-6-11a23.29,23.29,0,0,1,4-12.25Z" fill="#bad0e0"/><path d="M493.39,321.39c5,2.75,32.47-12.83,33.38-10.22,1.32,3.81-7.7,15.89-13.7,19.89-8.36,5.57-20.77,10.72-31,8Z" fill="#1d2026"/><path d="M396.51,399.1l-18.13-17.67s7.54,1.73,13.55,1.29c5.61-.41,9.6-2.89,13.07-5.4l-3.83-3.55c-2.11,3.11-13.28,5.43-21.22,4.41-5.18-.67-8.05-4.39-9.36-4.62-1.9,0-.62,1.18.27,3,2.58,5.29,5.33,11,9.32,17.74,3.69,6.25,4.32,5.79,4.32,5.79Z" fill="#f38902"/><path d="M516.09,272.72c-5.59-1.51-11.39-6.81-17-5.69-7.15,1.41-15.29,11.09-20.2,16.51-1.94,2.14-4.93,5.36-4.46,8.51.11.69-7.73,8.33-12,11.68-11.54,9-22.18,20.21-32.75,30.41-10.14,9.78-19.8,19.7-28.93,30.43-1.53,1.8,8.28,1.36,6.32,3.51-2.32,2.55-14.4,6.73-16,9-.44.62,1.39,3.91,6,5s12,0,12,0a37,37,0,0,0,13,6,47.4,47.4,0,0,0,31-3c20.49-9.45,34.52-29.37,41.06-49.86,3-9.54,19.75-46.63,22.17-48.29a1.39,1.39,0,0,1,.47-.24l1.33.34C520.73,286.14,519,273.49,516.09,272.72Z" fill="#fff"/><path d="M512.59,269.55c-5.07-2.79-11.39-6.8-17-5.69-7.15,1.41-15.29,11.09-20.2,16.51-1.94,2.15-4.93,5.36-4.46,8.51.11.7-7.73,8.33-12,11.68-11.54,9-22.18,20.22-32.75,30.41-10.14,9.78-19.8,19.7-28.93,30.43-1.53,1.8,8.28,1.36,6.32,3.51-2.32,2.56-14.4,6.73-16,9-.44.63,1.39,3.91,6,5s12,0,12,0a37.1,37.1,0,0,0,13,6,47.42,47.42,0,0,0,31-3c20.49-9.45,34.52-29.37,41.06-49.85,3-9.55,23.29-45,25.71-46.69C516.49,285.26,518.31,272.71,512.59,269.55Z" fill="#e9eff4"/><path d="M516.07,273s-13.71-8.15-21,2c-2.94,4.09-5.56,12.62-10,15-7.52,4-11.65,3.69-17-2,6-9,11.55-18.53,22-23a19.24,19.24,0,0,1,12.29-.86c.94.22,6.4,1.71,9.8,4A10.82,10.82,0,0,1,516.07,273Z" fill="#1d2026"/><circle cx="507.07" cy="278.03" r="2" fill="#1d2026"/><path d="M460.54,305.79s-10.66-2.46-14.92-5.18c-2.71-1.73-4.63-4.48-7.9-5.08a9.56,9.56,0,0,0-4,.36c-5.06,1-10.13,2.16-15.21,3.16-5.62,1.1-9.82,1.73-15.5,2.33-2.54.26-4.57,3.49-2.2,4.46a75.66,75.66,0,0,0,10.42,3.21,117.41,117.41,0,0,0,12.46,1.75s4.15,3.78,6.79,5.84c6.51,5.05,19.56,6.75,19.56,6.75Z" fill="#1d2026"/><path d="M516.07,281a132.14,132.14,0,0,0,14.86,9c-4.91,1.48-14.41,2.27-18.86-1Z" fill="#f38902"/><path d="M476.05,277l-7,9c-9.44,7.12-31.92,26.22-49.53,44.35-12.45,12.82-21.84,26.71-25.28,28.68s-8.09,2-12.06,2.21c-2.69.11-10.19-.51-10.19-.51s4.29,3.64,9,7.31c9,7,27,5,41-4,21.24-13.66,22.32-28.5,30-39,6.92-9.48,19.22-25.33,23-32C479.78,284.67,472.42,285.85,476.05,277Z" fill="#1d2026"/><path d="M467.05,285c4.33,2,6,6,18,10a116.89,116.89,0,0,0,25,5c.14,2.34-2.12,6.65-4,8-3.13,2.25-11,0-17-2-10.08-3.36-17-8.28-24-16.68Z" fill="#e7005a"/><path d="M463.38,289.37c-3.59-2.76,1.46-8.16,4.5-5.48,3.85,3.4-3.15,8.51-5.84,4.15Z" fill="#e7005a"/><path d="M466,290c-1.07-3.27-9.62-4.16-12-4-5.77.38-12.73.78-18.43,1.74C427.87,289.09,419.85,291,412,291c-9.49,0-17.56.69-25-7l-1.7-15.35c13.41,11,29.38,12.73,44.72,8.34a54.3,54.3,0,0,1,19-2c4,.44,15.39,4.26,16.34,10.34Z" fill="#e7005a"/><path d="M400.34,280.7c0-5.44-2.24-10.4-2.32-15.68,7.08,4.08,15.27,7.73,23.5,8.69,3.16.37,6.4.38,9.58.66a44,44,0,0,1,20.6,7Z" fill="#e7005a"/><path d="M388.15,273a20.88,20.88,0,0,1-4.86-3.28,18.3,18.3,0,0,1-3.69-3.7v-2.36a18,18,0,0,0,3.69,3.7,20.88,20.88,0,0,0,4.86,3.28Z" fill="#e7005a"/><path d="M389.15,278.72a20.88,20.88,0,0,1-4.86-3.28,18.3,18.3,0,0,1-3.69-3.7v-2.35a18.3,18.3,0,0,0,3.69,3.7,21.2,21.2,0,0,0,4.86,3.28Z" fill="#e7005a"/><path d="M390.15,284.73a21.31,21.31,0,0,1-4.85-3.28,18.16,18.16,0,0,1-3.7-3.7v-2.36a18.16,18.16,0,0,0,3.7,3.7,20.66,20.66,0,0,0,4.85,3.28Z" fill="#e7005a"/><path d="M393.14,265.13a16,16,0,0,0,6,3l.91-1.25a15.76,15.76,0,0,1-6-3Z" fill="#e7005a"/><path d="M393.55,270a15.79,15.79,0,0,0,6.59,1l.48-1.47a15.85,15.85,0,0,1-6.6-1Z" fill="#e7005a"/><path d="M394.3,273.82a16,16,0,0,0,6.59,1l.48-1.47a15.86,15.86,0,0,1-6.6-1Z" fill="#e7005a"/><path d="M409.85,381.76a37.35,37.35,0,0,0,8.77-3.58c1.5-.87,3-1.8,4.57-2.56-1.65,3.57-2.4,7.18-5.86,9.44-2.58,1.7-6-1.28-8.15-3.14Z" fill="#bad0e0"/><path d="M304.46,368.83c5.28,1.4,10.28.82,15.52-.24,3.42,3.92-14.79,12.51-19,9.75Z" fill="#1d2026"/><path d="M277,389.54c-4.64,8.77-10.59,15.37-20.49,17.91a1.52,1.52,0,0,0-.35,2.75c3.89,2.34,8.42,3.9,13,3.23,1.91-.28,1.1-3.18-.79-2.9-3.68.55-7.56-1-10.67-2.93l-.36,2.75c10.63-2.73,17.29-9.84,22.28-19.3.9-1.7-1.69-3.22-2.59-1.51Z" fill="#f38902"/><path d="M289.57,394.58c2.5,4.13,2.18,10.7-2,13.71a1.52,1.52,0,0,0,.75,2.8h14.76a1.5,1.5,0,0,0,0-3H288.36l.76,2.79c5.47-4,6.46-12.16,3-17.81-1-1.65-3.59-.14-2.59,1.51Z" fill="#f38902"/><path d="M316.88,344.82c-2.33-.83-5.25-5.75-12-3.43-2.93,1-6.54,5.67-8.65,8.46-.84,1.11-2.13,2.76-2,4.41,0,.37-3.34,4.29-5.18,6-4.94,4.61-9.52,10.38-14.06,15.62-4.36,5-8.52,10.13-12.46,15.66-.67.93,3.46.78,2.62,1.89a19.24,19.24,0,0,0-2,4.25,49.61,49.61,0,0,0,6.22,2.58c3.34,1.11,15.36,1.6,20.67-.17,9.76-3.25,16.56-11.86,19.52-22.51,1.37-5,5.75-26.27,5.75-26.27C316.5,350.87,318.08,345.25,316.88,344.82Z" fill="#fff"/><path d="M316,346s-8-6.93-14.77-4.61c-2.92,1-6.53,5.67-8.65,8.46-.84,1.11-2.13,2.76-2,4.41,0,.37-3.33,4.29-5.17,6-4.94,4.61-9.53,10.38-14.07,15.62-4.36,5-8.52,10.13-12.46,15.66-.66.93,3.46.78,2.62,1.89a19.24,19.24,0,0,0-2,4.25,50.4,50.4,0,0,0,6.22,2.58c3.34,1.11,15.37,1.6,20.68-.17,9.75-3.25,16.56-11.86,19.51-22.51,1.37-5,7.52-26.84,7.52-26.84C314.6,350.31,316,346,316,346Z" fill="#e9eff4"/><path d="M311.63,340.82s-11.71-2.48-18.51,3.5c-8.38,7.36-17.05,20.16-18.76,22.76-.33.49-6.79,12-12.51,18.51a15.45,15.45,0,0,1-6.5,4.09,12.93,12.93,0,0,1-4.91,0,.56.56,0,0,0-.31,1c1.08.7,2.68,1.92,4.22,2.78,4.59,2.58,11.21,2.55,17.18-2,9.07-7,12.75-13.45,16.08-18.89,1.74-2.82,7.59-18.18,13.68-25.84C305.75,341.12,310.29,341.57,311.63,340.82Z" fill="#1d2026"/><path d="M288.53,361.79c-.09-1.61-7.42-6.12-14.59-4.6-5.14,1.09-12.7,5.4-15.48,8.2-1.1,1.1.15,2.63.15,2.63s9.11-2,13.39-1.87c3,.11,5.79,1.72,8.6,3.59Z" fill="#1d2026"/><path d="M316,344.24A116.08,116.08,0,0,0,328.73,352c-4.19,1.26-12.3,1.94-16.11-.88Z" fill="#f38902"/><circle cx="307.37" cy="347.49" r="2" fill="#1d2026"/><path d="M312.79,340.4s-2.66-4.67-13-5c-6.3-.21-15.87,1.06-22.35.83-14.12-.49-23.75.13-36.76-3.4,1.4.64.38,1.05,1.72,1.83a177,177,0,0,0,16.53,8.41c8.28,3.78,23.76,5.75,29,7.5a40.69,40.69,0,0,0,14.84-4.67C309.83,341.9,312.79,340.4,312.79,340.4Z" fill="#60b515"/><ellipse cx="239.09" cy="333.56" rx="4.5" ry="5" fill="#60b515"/></g></svg>