<svg version="1.1" width="36" height="36"  viewBox="0 0 36 36" preserveAspectRatio="xMidYMid meet" xmlns="http://www.w3.org/2000/svg" xmlns:xlink="http://www.w3.org/1999/xlink">
    <title>event-line</title>
    <path class="clr-i-outline clr-i-outline-path-1" d="M16.17,25.86,10.81,20.5a1,1,0,0,1,1.41-1.41L16.17,23l8.64-8.64a1,1,0,0,1,1.41,1.41Z"></path><path class="clr-i-outline clr-i-outline-path-2" d="M32.25,6H29V8h3V30H4V8H7V6H3.75A1.78,1.78,0,0,0,2,7.81V30.19A1.78,1.78,0,0,0,3.75,32h28.5A1.78,1.78,0,0,0,34,30.19V7.81A1.78,1.78,0,0,0,32.25,6Z"></path><path class="clr-i-outline clr-i-outline-path-3" d="M10,10a1,1,0,0,0,1-1V3A1,1,0,0,0,9,3V9A1,1,0,0,0,10,10Z"></path><path class="clr-i-outline clr-i-outline-path-4" d="M26,10a1,1,0,0,0,1-1V3a1,1,0,0,0-2,0V9A1,1,0,0,0,26,10Z"></path><rect class="clr-i-outline clr-i-outline-path-5" x="13" y="6" width="10" height="2"></rect>
    <rect x="0" y="0" width="36" height="36" fill-opacity="0"/>
</svg>