<svg version="1.1" width="36" height="36"  viewBox="0 0 36 36" preserveAspectRatio="xMidYMid meet" xmlns="http://www.w3.org/2000/svg" xmlns:xlink="http://www.w3.org/1999/xlink">
    <title>filter-grid-solid</title>
    <path class="clr-i-solid clr-i-solid-path-1" d="M8,11v1.12a.5.5,0,0,0,.15.35l7.28,7.36a.5.5,0,0,1,.15.35v6.89a.5.5,0,0,0,.28.45l3.95,1.41a.5.5,0,0,0,.72-.45l0-8.39a.54.54,0,0,1,.18-.35l7.12-7.25a.5.5,0,0,0,.15-.35V11Z"></path>
    <rect x="0" y="0" width="36" height="36" fill-opacity="0"/>
</svg>