<?xml version="1.0" encoding="UTF-8"?>
<svg width="420px" height="286px" viewBox="0 0 420 286" version="1.1" xmlns="http://www.w3.org/2000/svg" xmlns:xlink="http://www.w3.org/1999/xlink">
    <!-- Generator: Sketch 51.1 (57501) - http://www.bohemiancoding.com/sketch -->
    <title>Group 11</title>
    <desc>Created with Sketch.</desc>
    <defs>
        <rect id="path-1" x="0" y="0" width="310" height="208" rx="4"></rect>
        <filter x="-2.3%" y="-2.4%" width="104.5%" height="106.7%" filterUnits="objectBoundingBox" id="filter-2">
            <feOffset dx="0" dy="2" in="SourceAlpha" result="shadowOffsetOuter1"></feOffset>
            <feGaussianBlur stdDeviation="2" in="shadowOffsetOuter1" result="shadowBlurOuter1"></feGaussianBlur>
            <feColorMatrix values="0 0 0 0 0.8   0 0 0 0 0.8   0 0 0 0 0.8  0 0 0 0.5 0" type="matrix" in="shadowBlurOuter1"></feColorMatrix>
        </filter>
    </defs>
    <g id="Forms-Recommended" stroke="none" stroke-width="1" fill="none" fill-rule="evenodd">
        <g id="Forms-Documentation---v2" transform="translate(-732.000000, -1254.000000)">
            <g id="Group-11" transform="translate(732.000000, 1254.000000)">
                <rect id="Rectangle-6" fill="#EEEEEE" x="142" y="67" width="46" height="6"></rect>
                <rect id="Rectangle-3" fill="#EEEEEE" x="0" y="0" width="420" height="286"></rect>
                <rect id="Rectangle-6" fill="#EEEEEE" x="79" y="66" width="46" height="6"></rect>
                <path d="M81.3246753,85 L180.728362,85" id="Line-5" stroke="#EEEEEE" stroke-width="2" stroke-linecap="square"></path>
                <rect id="Rectangle-6" fill="#EEEEEE" x="79" y="142" width="52" height="6"></rect>
                <path d="M81.2857143,161 L168.760959,161" id="Line-5" stroke="#EEEEEE" stroke-width="2" stroke-linecap="square"></path>
                <rect id="Rectangle-6" fill="#EEEEEE" x="79" y="180" width="34" height="6"></rect>
                <path d="M81.2467532,199 L156.793555,199" id="Line-5" stroke="#EEEEEE" stroke-width="2" stroke-linecap="square"></path>
                <rect id="Rectangle-6" fill="#EEEEEE" x="79" y="104" width="46" height="6"></rect>
                <path d="M81.1103896,123 L114.907643,123" id="Line-5" stroke="#EEEEEE" stroke-width="2" stroke-linecap="square"></path>
                <path d="M127.11039,123 L160.907643,123" id="Line-5" stroke="#EEEEEE" stroke-width="2" stroke-linecap="square"></path>
                <g id="Group" transform="translate(55.000000, 36.000000)">
                    <g id="Rectangle-3">
                        <use fill="black" fill-opacity="1" filter="url(#filter-2)" xlink:href="#path-1"></use>
                        <use fill="#FFFFFF" fill-rule="evenodd" xlink:href="#path-1"></use>
                    </g>
                    <rect id="Rectangle-6" fill="#EEEEEE" x="24" y="30" width="46" height="6"></rect>
                    <path d="M26.3246753,49 L125.728362,49" id="Line-5" stroke="#EEEEEE" stroke-width="2" stroke-linecap="square"></path>
                    <rect id="Rectangle-6" fill="#EEEEEE" x="24" y="106" width="52" height="6"></rect>
                    <path d="M26.2857143,125 L113.760959,125" id="Line-5" stroke="#EEEEEE" stroke-width="2" stroke-linecap="square"></path>
                    <rect id="Rectangle-6" fill="#EEEEEE" x="24" y="144" width="34" height="6"></rect>
                    <path d="M26.2467532,163 L101.793555,163" id="Line-5" stroke="#EEEEEE" stroke-width="2" stroke-linecap="square"></path>
                    <rect id="Rectangle-6" fill="#EEEEEE" x="24" y="68" width="46" height="6"></rect>
                    <path d="M26.1103896,87 L59.9076431,87" id="Line-5" stroke="#EEEEEE" stroke-width="2" stroke-linecap="square"></path>
                    <path d="M72.1103896,87 L105.907643,87" id="Line-5" stroke="#EEEEEE" stroke-width="2" stroke-linecap="square"></path>
                    <rect id="Rectangle-6" fill="#EEEEEE" x="181" y="30" width="46" height="6"></rect>
                    <path d="M183.324675,49 L282.728362,49" id="Line-5" stroke="#EEEEEE" stroke-width="2" stroke-linecap="square"></path>
                    <rect id="Rectangle-6" fill="#EEEEEE" x="181" y="106" width="52" height="6"></rect>
                    <path d="M183.285714,125 L270.760959,125" id="Line-5" stroke="#EEEEEE" stroke-width="2" stroke-linecap="square"></path>
                    <rect id="Rectangle-6" fill="#EEEEEE" x="181" y="68" width="58" height="6"></rect>
                    <path d="M183.11039,87 L216.907643,87" id="Line-5" stroke="#EEEEEE" stroke-width="2" stroke-linecap="square"></path>
                    <path d="M229.11039,87 L262.907643,87" id="Line-5" stroke="#EEEEEE" stroke-width="2" stroke-linecap="square"></path>
                    <path d="M155.5,29.5 L155.5,189.949369" id="Line-6" stroke="#EEEEEE" stroke-linecap="square"></path>
                    <rect id="Rectangle-7" fill="#007CBB" x="181" y="144" width="66" height="17" rx="2"></rect>
                </g>
            </g>
        </g>
    </g>
</svg>