<svg version="1.1" width="36" height="36"  viewBox="0 0 36 36" preserveAspectRatio="xMidYMid meet" xmlns="http://www.w3.org/2000/svg" xmlns:xlink="http://www.w3.org/1999/xlink">
    <title>avatar-outline-alerted</title>
    <path d="M30.47,24.37a17.16,17.16,0,0,0-24.93,0A2,2,0,0,0,5,25.74V31a2,2,0,0,0,2,2H29a2,2,0,0,0,2-2V25.74A2,2,0,0,0,30.47,24.37ZM29,31H7V25.73a15.17,15.17,0,0,1,22,0h0Z" class="clr-i-outline--alerted clr-i-outline-path-1--alerted"></path><path d="M18,17a7,7,0,0,0,4.45-1.6h-.22A3.68,3.68,0,0,1,20,14.6a5,5,0,1,1,1.24-8.42l1-1.76A7,7,0,1,0,18,17Z" class="clr-i-outline--alerted clr-i-outline-path-2--alerted"></path><path d="M26.85,1.14,21.13,11A1.28,1.28,0,0,0,22.23,13H33.68A1.28,1.28,0,0,0,34.78,11L29.06,1.14A1.28,1.28,0,0,0,26.85,1.14Z" class="clr-i-outline--alerted clr-i-outline-path-3--alerted clr-i-alert"></path>
    <rect x="0" y="0" width="36" height="36" fill-opacity="0"/>
</svg>