<svg version="1.1" width="36" height="36"  viewBox="0 0 36 36" preserveAspectRatio="xMidYMid meet" xmlns="http://www.w3.org/2000/svg" xmlns:xlink="http://www.w3.org/1999/xlink">
    <title>eye-hide-line</title>
    <path d="M25.19,20.4A6.78,6.78,0,0,0,25.62,18a6.86,6.86,0,0,0-6.86-6.86,6.79,6.79,0,0,0-2.37.43L18,13.23a4.78,4.78,0,0,1,.74-.06A4.87,4.87,0,0,1,23.62,18a4.79,4.79,0,0,1-.06.74Z" class="clr-i-outline clr-i-outline-path-1"></path><path d="M34.29,17.53c-3.37-6.23-9.28-10-15.82-10a16.82,16.82,0,0,0-5.24.85L14.84,10a14.78,14.78,0,0,1,3.63-.47c5.63,0,10.75,3.14,13.8,8.43a17.75,17.75,0,0,1-4.37,5.1l1.42,1.42a19.93,19.93,0,0,0,5-6l.26-.48Z" class="clr-i-outline clr-i-outline-path-2"></path><path d="M4.87,5.78l4.46,4.46a19.52,19.52,0,0,0-6.69,7.29L2.38,18l.26.48c3.37,6.23,9.28,10,15.82,10a16.93,16.93,0,0,0,7.37-1.69l5,5,1.75-1.5-26-26Zm9.75,9.75,6.65,6.65a4.81,4.81,0,0,1-2.5.72A4.87,4.87,0,0,1,13.9,18,4.81,4.81,0,0,1,14.62,15.53Zm-1.45-1.45a6.85,6.85,0,0,0,9.55,9.55l1.6,1.6a14.91,14.91,0,0,1-5.86,1.2c-5.63,0-10.75-3.14-13.8-8.43a17.29,17.29,0,0,1,6.12-6.3Z" class="clr-i-outline clr-i-outline-path-3"></path>
    <rect x="0" y="0" width="36" height="36" fill-opacity="0"/>
</svg>