<svg version="1.1" width="36" height="36"  viewBox="0 0 36 36" preserveAspectRatio="xMidYMid meet" xmlns="http://www.w3.org/2000/svg" xmlns:xlink="http://www.w3.org/1999/xlink">
    <title>home-line</title>
    <path class="clr-i-outline clr-i-outline-path-1" d="M33.71,17.29l-15-15a1,1,0,0,0-1.41,0l-15,15a1,1,0,0,0,1.41,1.41L18,4.41,32.29,18.71a1,1,0,0,0,1.41-1.41Z"></path><path class="clr-i-outline clr-i-outline-path-2" d="M28,32h-5V22H13V32H8V18L6,20V32a2,2,0,0,0,2,2h7V24h6V34h7a2,2,0,0,0,2-2V19.76l-2-2Z"></path>
    <rect x="0" y="0" width="36" height="36" fill-opacity="0"/>
</svg>