<!--
  ~ Copyright (c) 2016-2017 VMWare, Inc. All Rights Reserved.
  ~ This software is released under MIT License.
  ~ The full license information can be found in LICENSE in the root directory of this project.
  -->

<svg xmlns="http://www.w3.org/2000/svg" xmlns:xlink="http://www.w3.org/1999/xlink" viewBox="0 0 264 192"><defs><clipPath id="70fd7954-1aec-4ecb-99f0-7d27997dfac4"><path d="M385.64,116.5H373.28a8.34,8.34,0,0,0-8.31,8.31v24.92a8.34,8.34,0,0,0,8.31,8.31h4.15V170.5L389.89,158h20.77a8.34,8.34,0,0,0,8.31-8.31v-7.56a4.58,4.58,0,0,1-.83.08" fill="none" clip-rule="evenodd"/></clipPath></defs><title>row1 box L</title><g id="665e349c-9eda-4f3d-a917-97fb68dc9fa9" data-name="Layer 1"><rect width="264" height="192" fill="#eee"/></g><g id="ea240579-03a2-4dad-aa03-6cbdf7cffb43" data-name="Layer 2"><rect x="12.5" y="12.5" width="239" height="167" fill="#fff"/><path d="M251,13V179H13V13H251m1-1H12V180H252V12Z" fill="#737373"/><polygon points="13 42 13 179 150 179 13 42" fill="#aae58d" fill-rule="evenodd"/><polygon points="13 152 13 13 152 13 13 152" fill="#dce5ed" fill-rule="evenodd"/><rect x="13" y="13" width="238" height="18" fill="#2c7ac4"/><polygon points="134 31 152 13 13 13 13 31 134 31" fill="#0a4681" fill-rule="evenodd"/><rect x="21" y="19" width="48" height="6" fill="#618eba"/><circle cx="241" cy="21" r="4" fill="#85bcf2"/><polygon points="13 152 68 97 13.19 41.81 13 152" fill="#9dcad8" fill-rule="evenodd"/><rect x="21" y="38" width="44" height="4" fill="#5378b3"/><rect x="78" y="36" width="37" height="6" fill="#8c929b"/><rect x="21" y="49" width="44" height="4" fill="#5378b3"/><rect x="21" y="60" width="44" height="4" fill="#5378b3"/><rect x="21" y="71" width="44" height="4" fill="#5378b3"/><rect x="21" y="82" width="44" height="4" fill="#5378b3"/><rect x="21" y="93" width="44" height="4" fill="#5378b3"/><rect x="21" y="104" width="44" height="4" fill="#5378b3"/><rect x="72" y="31" width="1" height="148" fill="#8f9ba3"/><rect x="164.5" y="47.5" width="78" height="66" rx="2" ry="2" fill="#fff" stroke="#8f9ba3" stroke-miterlimit="10"/><path d="M186,113h54.5a1.5,1.5,0,0,0,1.5-1.5V57Z" fill="#dce5ed" fill-rule="evenodd"/><rect x="78.5" y="47.5" width="78" height="66" rx="2" ry="2" fill="#fff" stroke="#8f9ba3" stroke-miterlimit="10"/><path d="M100,113h54.5a1.5,1.5,0,0,0,1.5-1.5V57Z" fill="#d8ebe6" fill-rule="evenodd"/><rect x="85" y="54" width="44" height="4" fill="#a2badd"/><rect x="116" y="73" width="31" height="3" fill="#ccc"/><rect x="116" y="81" width="23" height="3" fill="#ccc"/><path d="M91.51,86.36A11.12,11.12,0,1,1,107.22,86" fill="#fff" stroke="#ffa417" stroke-miterlimit="10" stroke-width="3" fill-rule="evenodd"/><rect x="85" y="101" width="22" height="8" rx="1" ry="1" fill="#0079B8"/><rect x="110" y="101" width="22" height="8" rx="1" ry="1" fill="#0079B8"/><rect x="171" y="54" width="44" height="4" fill="#a2badd"/><rect x="202" y="73" width="31" height="3" fill="#ccc"/><rect x="202" y="81" width="23" height="3" fill="#ccc"/><path d="M177.51,86.36A11.12,11.12,0,1,1,193.22,86" fill="none" stroke="#737373" stroke-miterlimit="10" stroke-width="3" fill-rule="evenodd"/><rect x="171" y="101" width="22" height="8" rx="1" ry="1" fill="#0079B8"/><rect x="196" y="101" width="22" height="8" rx="1" ry="1" fill="#0079B8"/><path d="M80.59,122.5H240.41a2.09,2.09,0,0,1,2.09,2.09v9.91a0,0,0,0,1,0,0H78.5a0,0,0,0,1,0,0v-9.91A2.09,2.09,0,0,1,80.59,122.5Z" fill="#e6eef4" stroke="#ccc" stroke-miterlimit="10"/><rect x="87" y="128" width="41" height="3" fill="#ccc"/><rect x="150" y="128" width="23" height="3" fill="#ccc"/><rect x="207" y="128" width="23" height="3" fill="#ccc"/><rect x="78.5" y="134.5" width="164" height="12" fill="#fff" stroke="#ccc" stroke-miterlimit="10"/><rect x="87" y="139" width="41" height="3" fill="#ccc"/><rect x="150" y="139" width="23" height="3" fill="#ccc"/><rect x="207" y="139" width="23" height="3" fill="#ccc"/><rect x="78.5" y="146.5" width="164" height="12" fill="#fff" stroke="#ccc" stroke-miterlimit="10"/><rect x="87" y="151" width="41" height="3" fill="#ccc"/><rect x="150" y="151" width="23" height="3" fill="#ccc"/><rect x="207" y="151" width="23" height="3" fill="#ccc"/><path d="M78.5,158.5h164a0,0,0,0,1,0,0v9.91a2.09,2.09,0,0,1-2.09,2.09H80.59a2.09,2.09,0,0,1-2.09-2.09V158.5A0,0,0,0,1,78.5,158.5Z" fill="#fff" stroke="#ccc" stroke-miterlimit="10"/><rect x="87" y="163" width="41" height="3" fill="#ccc"/><rect x="150" y="163" width="23" height="3" fill="#ccc"/><rect x="207" y="163" width="23" height="3" fill="#ccc"/></g></svg>