<svg version="1.1" width="36" height="36"  viewBox="0 0 36 36" preserveAspectRatio="xMidYMid meet" xmlns="http://www.w3.org/2000/svg" xmlns:xlink="http://www.w3.org/1999/xlink">
    <title>accessibility-2-line</title>
    <path d="M30.06,11h-24a1,1,0,1,0,0,2H14v9.65s0,0,0,0l-3.75,10a1,1,0,0,0,.58,1.29,1.13,1.13,0,0,0,.36.06,1,1,0,0,0,.93-.65L15.62,24h4.76l3.52,9.35a1,1,0,0,0,.93.65,1.13,1.13,0,0,0,.36-.06,1,1,0,0,0,.58-1.29L22,22.68s0,0,0,0V13h8.06a1,1,0,1,0,0-2ZM20,22H16V13h4Z" class="clr-i-outline clr-i-outline-path-1"></path><path d="M18,10a4,4,0,1,0-4-4A4,4,0,0,0,18,10Zm0-6a2,2,0,1,1-2,2A2,2,0,0,1,18,4Z" class="clr-i-outline clr-i-outline-path-2"></path>
    <rect x="0" y="0" width="36" height="36" fill-opacity="0"/>
</svg>