<svg version="1.1" width="36" height="36"  viewBox="0 0 36 36" preserveAspectRatio="xMidYMid meet" xmlns="http://www.w3.org/2000/svg" xmlns:xlink="http://www.w3.org/1999/xlink">
    <title>collapse-card-solid</title>
    <rect x="2" y="22" width="32" height="8" rx="1" ry="1" class="clr-i-solid clr-i-solid-path-1"></rect><path d="M18,20.7l-5.79-5.79a1,1,0,0,1,0-1.41,1,1,0,0,1,1.41,0L18,17.87l4.38-4.37a1,1,0,0,1,1.41,0,1,1,0,0,1,0,1.41Z" class="clr-i-solid clr-i-solid-path-2"></path><path d="M18,14.5,12.21,8.71a1,1,0,0,1,0-1.42,1,1,0,0,1,1.41,0L18,11.67l4.38-4.38a1,1,0,0,1,1.41,0,1,1,0,0,1,0,1.42Z" class="clr-i-solid clr-i-solid-path-3"></path>
    <rect x="0" y="0" width="36" height="36" fill-opacity="0"/>
</svg>