<svg version="1.1" width="36" height="36"  viewBox="0 0 36 36" preserveAspectRatio="xMidYMid meet" xmlns="http://www.w3.org/2000/svg" xmlns:xlink="http://www.w3.org/1999/xlink">
    <title>file-group-solid</title>
    <path class="clr-i-solid clr-i-solid-path-1" d="M31,10H13a1,1,0,0,0-1,1V33a1,1,0,0,0,1,1H31a1,1,0,0,0,1-1V11A1,1,0,0,0,31,10ZM28,26H16V24H28Zm0-4H16V20H28Zm0-4H16V16H28Z"></path><path class="clr-i-solid clr-i-solid-path-2" d="M6,24V4H24V3a1,1,0,0,0-1-1H5A1,1,0,0,0,4,3V25a1,1,0,0,0,1,1H6Z"></path><path class="clr-i-solid clr-i-solid-path-3" d="M10,28V8H28V7a1,1,0,0,0-1-1H9A1,1,0,0,0,8,7V29a1,1,0,0,0,1,1h1Z"></path>
    <rect x="0" y="0" width="36" height="36" fill-opacity="0"/>
</svg>