<svg version="1.1" width="36" height="36"  viewBox="0 0 36 36" preserveAspectRatio="xMidYMid meet" xmlns="http://www.w3.org/2000/svg" xmlns:xlink="http://www.w3.org/1999/xlink">
    <title>firewall-solid</title>
    <path d="M32,6H4A2,2,0,0,0,2,8V28a2,2,0,0,0,2,2H32a2,2,0,0,0,2-2V8A2,2,0,0,0,32,6ZM14,28H12V24h2Zm10,0H22V24h2Zm8-6H4V20H7V16H9v4h8V16h2v4h8V16h2v4h3Zm0-8H4V12h8V8h2v4h8V8h2v4h8Z" class="clr-i-solid clr-i-solid-path-1"></path>
    <rect x="0" y="0" width="36" height="36" fill-opacity="0"/>
</svg>