<svg version="1.1" width="36" height="36"  viewBox="0 0 36 36" preserveAspectRatio="xMidYMid meet" xmlns="http://www.w3.org/2000/svg" xmlns:xlink="http://www.w3.org/1999/xlink">
    <title>group-solid-alerted</title>
    <path class="clr-i-solid--alerted clr-i-solid-path-1--alerted" d="M12,16.14q-.43,0-.87,0a8.67,8.67,0,0,0-6.43,2.52l-.24.28v8.28H8.54v-4.7l.55-.62.25-.29a11,11,0,0,1,4.71-2.86A6.59,6.59,0,0,1,12,16.14Z"></path><path class="clr-i-solid--alerted clr-i-solid-path-2--alerted" d="M31.34,18.63a8.67,8.67,0,0,0-6.43-2.52,10.47,10.47,0,0,0-1.09.06,6.59,6.59,0,0,1-2,2.45,10.91,10.91,0,0,1,5,3l.25.28.54.62v4.71h3.94V18.91Z"></path><path class="clr-i-solid--alerted clr-i-solid-path-3--alerted" d="M11.1,14.19c.11,0,.2,0,.31,0a6.45,6.45,0,0,1,3.11-6.29,4.09,4.09,0,1,0-3.42,6.33Z"></path><path class="clr-i-solid--alerted clr-i-solid-path-4--alerted" d="M18.11,20.3A9.69,9.69,0,0,0,11,23l-.25.28v6.33a1.57,1.57,0,0,0,1.6,1.54H23.84a1.57,1.57,0,0,0,1.6-1.54V23.3L25.2,23A9.58,9.58,0,0,0,18.11,20.3Z"></path><path class="clr-i-solid--alerted clr-i-solid-path-5--alerted" d="M17.87,17.92a4.46,4.46,0,0,0,4-2.54A3.67,3.67,0,0,1,19,9.89l.35-.61A4.42,4.42,0,0,0,17.87,9a4.47,4.47,0,1,0,0,8.93Z"></path><path class="clr-i-solid--alerted clr-i-solid-path-6--alerted clr-i-alert" d="M26.85,1.14,21.13,11A1.28,1.28,0,0,0,22.23,13H33.68A1.28,1.28,0,0,0,34.78,11L29.06,1.14A1.28,1.28,0,0,0,26.85,1.14Z"></path>
    <rect x="0" y="0" width="36" height="36" fill-opacity="0"/>
</svg>