<svg version="1.1" width="36" height="36"  viewBox="0 0 36 36" preserveAspectRatio="xMidYMid meet" xmlns="http://www.w3.org/2000/svg" xmlns:xlink="http://www.w3.org/1999/xlink">
    <title>landscape-solid</title>
    <path d="M32,6H4A2,2,0,0,0,2,8V28a2,2,0,0,0,2,2H32a2,2,0,0,0,2-2V8A2,2,0,0,0,32,6ZM27.77,21.88a1,1,0,0,1-.73.32,1,1,0,0,1-.68-.27,1,1,0,0,1-.06-1.41L27.71,19H8.29L9.7,20.52a1,1,0,0,1-.06,1.41A1,1,0,0,1,9,22.2a1,1,0,0,1-.73-.32L4.64,18l3.59-3.88A1,1,0,0,1,9.7,15.48L8.29,17H27.71L26.3,15.48a1,1,0,0,1,1.47-1.36L31.36,18Z" class="clr-i-solid clr-i-solid-path-1"></path>
    <rect x="0" y="0" width="36" height="36" fill-opacity="0"/>
</svg>