<svg version="1.1" width="36" height="36"  viewBox="0 0 36 36" preserveAspectRatio="xMidYMid meet" xmlns="http://www.w3.org/2000/svg" xmlns:xlink="http://www.w3.org/1999/xlink">
    <title>scroll-solid</title>
    <path d="M34,11.12V6.58a4.5,4.5,0,0,0-4.5-4.5h-16A4.5,4.5,0,0,0,9,6.58V24H2v5.5A4.5,4.5,0,0,0,6.5,34H25.58a4.5,4.5,0,0,0,4.5-4.5V13.13h-2V29.54a2.5,2.5,0,0,1-2.5,2.5H10.24a4.47,4.47,0,0,0,.76-2.5v-23a2.5,2.5,0,0,1,5,0v4.54Z" class="clr-i-solid clr-i-solid-path-1"></path>
    <rect x="0" y="0" width="36" height="36" fill-opacity="0"/>
</svg>