<svg version="1.1" width="36" height="36"  viewBox="0 0 36 36" preserveAspectRatio="xMidYMid meet" xmlns="http://www.w3.org/2000/svg" xmlns:xlink="http://www.w3.org/1999/xlink">
    <title>tag-outline-alerted</title>
    <circle cx="10.52" cy="10.52" r="1.43" class="clr-i-outline--alerted clr-i-outline-path-1--alerted"></circle><path d="M31.93,19.2l-3.8-3.8H25.31l5.22,5.22-9.9,9.9L6,15.91V6h9.92l3.41,3.41,1-1.78-3-3A2,2,0,0,0,15.92,4L6,4A2,2,0,0,0,4,6l0,9.92a2,2,0,0,0,.59,1.41l14.6,14.6a2,2,0,0,0,2.83,0l9.9-9.9A2,2,0,0,0,31.93,19.2Z" class="clr-i-outline--alerted clr-i-outline-path-2--alerted"></path><path d="M26.85,1.14,21.13,11A1.28,1.28,0,0,0,22.23,13H33.68A1.28,1.28,0,0,0,34.78,11L29.06,1.14A1.28,1.28,0,0,0,26.85,1.14Z" class="clr-i-outline--alerted clr-i-outline-path-3--alerted clr-i-alert"></path>
    <rect x="0" y="0" width="36" height="36" fill-opacity="0"/>
</svg>