<svg version="1.1" width="36" height="36"  viewBox="0 0 36 36" preserveAspectRatio="xMidYMid meet" xmlns="http://www.w3.org/2000/svg" xmlns:xlink="http://www.w3.org/1999/xlink">
    <title>tools-line</title>
    <path d="M20,14H16a1,1,0,0,0-1,1v6a1,1,0,0,0,1,1h4a1,1,0,0,0,1-1V15A1,1,0,0,0,20,14Zm-.4,6.6H16.4V15.4h3.2Z" class="clr-i-outline clr-i-outline-path-1"></path><path d="M33.71,12.38,29.62,8.29A1,1,0,0,0,28.92,8h-5V6.05A2,2,0,0,0,22,4H13.84A1.92,1.92,0,0,0,12,6.05V8H7.08a1,1,0,0,0-.71.29L2.29,12.38a1,1,0,0,0-.29.71V28a2,2,0,0,0,2,2H32a2,2,0,0,0,2-2V13.08A1,1,0,0,0,33.71,12.38ZM14,6h8V8H14ZM32,17H22v1.93H32V28H4V18.93H14V17H4V13.5L7.5,10h21L32,13.5Z" class="clr-i-outline clr-i-outline-path-2"></path>
    <rect x="0" y="0" width="36" height="36" fill-opacity="0"/>
</svg>