<svg version="1.1" width="36" height="36"  viewBox="0 0 36 36" preserveAspectRatio="xMidYMid meet" xmlns="http://www.w3.org/2000/svg" xmlns:xlink="http://www.w3.org/1999/xlink">
    <title>two-way-arrows-line</title>
    <path d="M23.43,16.83A1,1,0,0,0,22,18.24L25.72,22H7.83a1,1,0,0,0,0,2H25.72L22,27.7a1,1,0,1,0,1.42,1.41L29.53,23Z" class="clr-i-outline clr-i-outline-path-1"></path><path d="M13.24,18.45a1,1,0,0,0,.71-1.71L10.24,13H28.12a1,1,0,0,0,0-2H10.24l3.71-3.73a1,1,0,0,0-1.42-1.41L6.42,12l6.11,6.14A1,1,0,0,0,13.24,18.45Z" class="clr-i-outline clr-i-outline-path-2"></path>
    <rect x="0" y="0" width="36" height="36" fill-opacity="0"/>
</svg>