<svg version="1.1" width="36" height="36"  viewBox="0 0 36 36" preserveAspectRatio="xMidYMid meet" xmlns="http://www.w3.org/2000/svg" xmlns:xlink="http://www.w3.org/1999/xlink">
    <title>view-cards-line</title>
    <path class="clr-i-outline clr-i-outline-path-1" d="M15,17H4a2,2,0,0,1-2-2V8A2,2,0,0,1,4,6H15a2,2,0,0,1,2,2v7A2,2,0,0,1,15,17ZM4,8v7H15V8Z"></path><path class="clr-i-outline clr-i-outline-path-2" d="M32,17H21a2,2,0,0,1-2-2V8a2,2,0,0,1,2-2H32a2,2,0,0,1,2,2v7A2,2,0,0,1,32,17ZM21,8v7H32V8Z"></path><path class="clr-i-outline clr-i-outline-path-3" d="M15,30H4a2,2,0,0,1-2-2V21a2,2,0,0,1,2-2H15a2,2,0,0,1,2,2v7A2,2,0,0,1,15,30ZM4,21v7H15V21Z"></path><path class="clr-i-outline clr-i-outline-path-4" d="M32,30H21a2,2,0,0,1-2-2V21a2,2,0,0,1,2-2H32a2,2,0,0,1,2,2v7A2,2,0,0,1,32,30ZM21,21v7H32V21Z"></path>
    <rect x="0" y="0" width="36" height="36" fill-opacity="0"/>
</svg>