<svg width="25" height="38" xmlns="http://www.w3.org/2000/svg" xmlns:xlink="http://www.w3.org/1999/xlink"><defs><rect id="a" x="6" y="33" width="13" height="3" rx="1.5"/><mask id="b" x="0" y="0" width="13" height="3" fill="#fff"><use xlink:href="#a"/></mask></defs><g fill="none" fill-rule="evenodd"><rect fill="#E64120" x="6" y="28" width="13" height="3" rx="1.5"/><ellipse fill="#E64120" cx="12" cy="36" rx="4" ry="2"/><use stroke="#E64120" mask="url(#b)" stroke-width="10" xlink:href="#a"/><path d="M6 23.476c0-1.103.859-1.754 1.937-1.46 0 0 3.279.97 4.563.97 1.285 0 4.579-.975 4.579-.975 1.06-.293 1.921.362 1.921 1.465v.528A1.997 1.997 0 0 1 16.997 26H8.003A1.999 1.999 0 0 1 6 24.004v-.528z" fill="#E64120"/><path d="M22.024 12.523c0-5.268-4.264-9.54-9.524-9.54-5.26 0-9.524 4.272-9.524 9.54 0 5.269 4.264 9.54 9.524 9.54 5.26 0 9.524-4.271 9.524-9.54zM0 12.523C0 5.607 5.596 0 12.5 0S25 5.607 25 12.523c0 6.917-5.596 12.524-12.5 12.524S0 19.44 0 12.523z" fill="#E64120"/></g></svg>