<svg width="71" height="65" xmlns="http://www.w3.org/2000/svg"><path d="M60.94 5.38L48.536 0H22.464L10.06 5.38 0 17l35.502 48L71 17 60.94 5.38zm5.792 12.107l-9.371 7.319-7.459-10.973L60.396 8.78l6.336 8.707zm-13.906 9.49H18.174l7.1-12.733h20.452l7.1 12.733zM45.697 2.38l9.588 4.172-9.627 4.58H25.342l-9.627-4.58 9.481-4.175 20.501.003zm-35.21 6.4l10.493 5.053-7.458 10.973-9.37-7.32 6.335-8.706zM7.964 24.684l6.004 4.756 14.35 23.62L7.963 24.684zm11.043 6.173h32.986l-16.491 29.68-16.495-29.68zM42.565 53.06l14.35-23.62 6.004-4.756L42.565 53.06z" fill="#EB8D00" fill-rule="evenodd"/></svg>