<svg width="54" height="54" xmlns="http://www.w3.org/2000/svg"><g fill="none" fill-rule="evenodd"><ellipse fill="#FFF" opacity=".095" cx="26.865" cy="26.797" rx="26.865" ry="26.797"/><path d="M39.73 17.502c-.946.424-1.964.711-3.031.84a5.336 5.336 0 0 0 2.32-2.951c-1.02.61-2.148 1.055-3.353 1.293A5.24 5.24 0 0 0 31.813 15c-2.913 0-5.277 2.39-5.277 5.335 0 .419.046.825.136 1.216-4.387-.223-8.276-2.345-10.88-5.577a5.373 5.373 0 0 0-.715 2.685 5.35 5.35 0 0 0 2.348 4.441 5.24 5.24 0 0 1-2.392-.666v.066c0 2.586 1.82 4.743 4.236 5.232-.442.125-.909.187-1.39.187a5.2 5.2 0 0 1-.994-.094c.672 2.119 2.62 3.662 4.93 3.703a10.517 10.517 0 0 1-6.555 2.286c-.426 0-.848-.025-1.26-.074a14.85 14.85 0 0 0 8.092 2.395c9.71 0 15.019-8.129 15.019-15.18 0-.232-.005-.464-.014-.691a10.744 10.744 0 0 0 2.633-2.762" fill="#00AAEC"/></g></svg>