<?xml version="1.0" encoding="UTF-8" standalone="no"?>
<svg width="54px" height="54px" viewBox="0 0 54 54" version="1.1" xmlns="http://www.w3.org/2000/svg" xmlns:xlink="http://www.w3.org/1999/xlink">
    <!-- Generator: Sketch 40.3 (33839) - http://www.bohemiancoding.com/sketch -->
    <title>Twitter-color</title>
    <desc>Created with Sketch.</desc>
    <defs></defs>
    <g id="Landing-page" stroke="none" stroke-width="1" fill="none" fill-rule="evenodd">
        <g id="landing-page" transform="translate(-826.000000, -1905.000000)">
            <g id="bottom" transform="translate(0.000000, 1800.000000)">
                <g id="Twitter-color" transform="translate(826.000000, 105.000000)">
                    <ellipse id="Oval-5-Copy" fill="#FFFFFF" opacity="0.0949160448" cx="26.8648649" cy="26.7967742" rx="26.8648649" ry="26.7967742"></ellipse>
                    <g transform="translate(14.000000, 15.000000)" id="Icons" fill="#00AAEC">
                        <g>
                            <g id="Color-">
                                <path d="M25.7297297,2.50206244 C24.7843278,2.92645186 23.766435,3.21344848 22.6987049,3.34168116 C23.7890885,2.68219911 24.6257539,1.63649251 25.0199231,0.390804079 C23.9990103,1.00143568 22.870871,1.44567027 21.6657103,1.68381645 C20.7052061,0.647269438 19.3324098,0 17.8131223,0 C14.8998951,0 12.5363906,2.38909592 12.5363906,5.33539294 C12.5363906,5.75367579 12.5816974,6.1597455 12.6723111,6.55054958 C8.28510269,6.32766903 4.39626953,4.20572457 1.7911285,0.973957442 C1.33655064,1.76472519 1.07679133,2.68219911 1.07679133,3.65920957 C1.07679133,5.50942304 2.00860154,7.14286253 3.42519362,8.1000273 C2.56134421,8.07407557 1.74582166,7.83134933 1.03299505,7.43443868 L1.03299505,7.5000818 C1.03299505,10.0861065 2.85281809,12.2431623 5.26918063,12.7316673 C4.82668395,12.8568469 4.36002385,12.9194365 3.878262,12.9194365 C3.53846071,12.9194365 3.2062111,12.8873787 2.88453266,12.8247886 C3.55658355,14.9436801 5.50477597,16.4870512 7.81542256,16.5282691 C6.00919124,17.9601997 3.73176978,18.8135576 1.2595287,18.8135576 C0.833644851,18.8135576 0.412291581,18.7891324 0,18.7402819 C2.33632057,20.2515948 5.11211671,21.1354839 8.09179363,21.1354839 C17.8025506,21.1354839 23.110997,13.0064518 23.110997,5.95518413 C23.110997,5.723144 23.1064664,5.49110386 23.0974047,5.26364378 C24.1288897,4.51104038 25.0244537,3.57219426 25.7297297,2.50206244" id="Twitter"></path>
                            </g>
                        </g>
                    </g>
                </g>
            </g>
        </g>
    </g>
</svg>