<?xml version="1.0" encoding="UTF-8" standalone="no"?>
<svg width="110px" height="59px" viewBox="0 0 110 59" version="1.1" xmlns="http://www.w3.org/2000/svg" xmlns:xlink="http://www.w3.org/1999/xlink">
    <!-- Generator: Sketch 40.3 (33839) - http://www.bohemiancoding.com/sketch -->
    <title>Group 3</title>
    <desc>Created with Sketch.</desc>
    <defs>
        <rect id="path-1" x="11" y="11" width="84" height="48" rx="3"></rect>
        <mask id="mask-2" maskContentUnits="userSpaceOnUse" maskUnits="objectBoundingBox" x="0" y="0" width="84" height="48" fill="white">
            <use xlink:href="#path-1"></use>
        </mask>
        <rect id="path-3" x="19" y="33" width="33" height="16"></rect>
        <mask id="mask-4" maskContentUnits="userSpaceOnUse" maskUnits="objectBoundingBox" x="0" y="0" width="33" height="16" fill="white">
            <use xlink:href="#path-3"></use>
        </mask>
    </defs>
    <g id="Landing-page" stroke="none" stroke-width="1" fill="none" fill-rule="evenodd">
        <g id="landing-page" transform="translate(-514.000000, -726.000000)">
            <g id="02-panel" transform="translate(96.000000, 528.000000)">
                <g id="UX" transform="translate(328.000000, 168.000000)">
                    <g id="Group-3" transform="translate(90.000000, 30.000000)">
                        <use id="Rectangle-5" stroke="#0094D2" mask="url(#mask-2)" stroke-width="6" xlink:href="#path-1"></use>
                        <path d="M0,36.4570312 L42.6107184,0 L0,0 L0,36.4570312 Z M5.6161993,23.5880371 L25.8345168,6.73943916 L5.6161993,6.73943916 L5.6161993,23.5880371 Z" id="Combined-Shape" fill="#0094D2"></path>
                        <path d="M20.5,24.5 L86.5,24.5" id="Line" stroke="#0094D2" stroke-width="3" stroke-dasharray="5,1"></path>
                        <path d="M56.5,35.5 L85.5,35.5" id="Line-Copy-3" stroke="#0094D2" stroke-width="3" stroke-dasharray="5,1"></path>
                        <path d="M56.5,47.5 L85.5,47.5" id="Line-Copy-4" stroke="#0094D2" stroke-width="3" stroke-dasharray="5,1"></path>
                        <use id="Rectangle-6" stroke="#0094D2" mask="url(#mask-4)" stroke-width="6" xlink:href="#path-3"></use>
                        <polygon id="Path-6" stroke="#0094D2" stroke-width="3" points="101 26 101 50.718233 104.375 54.9335937 107.555664 50.5166016 107.555664 26"></polygon>
                    </g>
                </g>
            </g>
        </g>
    </g>
</svg>