<svg version="1.1" width="36" height="36"  viewBox="0 0 36 36" preserveAspectRatio="xMidYMid meet" xmlns="http://www.w3.org/2000/svg" xmlns:xlink="http://www.w3.org/1999/xlink">
    <title>bitcoin-line</title>
    <path d="M24.11,16.88A5.49,5.49,0,0,0,21,7V4a1,1,0,0,0-2,0V7H16V4a1,1,0,0,0-2,0V7H11a1,1,0,0,0-1,1V28a1,1,0,0,0,1,1h3v3a1,1,0,0,0,2,0V29h3v3a1,1,0,0,0,2,0V29h.08A6.07,6.07,0,0,0,27,22.81v-.62A6.25,6.25,0,0,0,24.11,16.88ZM12,9h8.69a3.59,3.59,0,0,1,3.43,2.36A3.51,3.51,0,0,1,20.79,16H12ZM25,22.81A4.08,4.08,0,0,1,21.06,27H12V18h9.06A4.08,4.08,0,0,1,25,22.19Z" class="clr-i-outline clr-i-outline-path-1"></path>
    <rect x="0" y="0" width="36" height="36" fill-opacity="0"/>
</svg>