<svg version="1.1" width="36" height="36"  viewBox="0 0 36 36" preserveAspectRatio="xMidYMid meet" xmlns="http://www.w3.org/2000/svg" xmlns:xlink="http://www.w3.org/1999/xlink">
    <title>dollar-bill-solid</title>
    <path class="clr-i-solid clr-i-solid-path-1" d="M32,8H4a2,2,0,0,0-2,2V26a2,2,0,0,0,2,2H32a2,2,0,0,0,2-2V10A2,2,0,0,0,32,8ZM4,26V21.15A5.18,5.18,0,0,1,8.79,26ZM4,14.85V10H8.79A5.18,5.18,0,0,1,4,14.85ZM18,25.15c-3.47,0-6.3-3.21-6.3-7.15s2.83-7.15,6.3-7.15,6.3,3.21,6.3,7.15S21.47,25.15,18,25.15ZM32,26H27.25A5.18,5.18,0,0,1,32,21.15Zm0-11.15A5.18,5.18,0,0,1,27.25,10H32Z"></path><ellipse class="clr-i-solid clr-i-solid-path-2" cx="18" cy="18" rx="4" ry="4.72"></ellipse>
    <rect x="0" y="0" width="36" height="36" fill-opacity="0"/>
</svg>