<svg version="1.1" width="36" height="36"  viewBox="0 0 36 36" preserveAspectRatio="xMidYMid meet" xmlns="http://www.w3.org/2000/svg" xmlns:xlink="http://www.w3.org/1999/xlink">
    <title>dollar-bill-line</title>
    <path class="clr-i-outline clr-i-outline-path-1" d="M32,8H4a2,2,0,0,0-2,2V26a2,2,0,0,0,2,2H32a2,2,0,0,0,2-2V10A2,2,0,0,0,32,8Zm0,6a4.25,4.25,0,0,1-3.9-4H32Zm0,1.62v4.83A5.87,5.87,0,0,0,26.49,26h-17A5.87,5.87,0,0,0,4,20.44V15.6A5.87,5.87,0,0,0,9.51,10h17A5.87,5.87,0,0,0,32,15.6ZM7.9,10A4.25,4.25,0,0,1,4,14V10ZM4,22.06A4.25,4.25,0,0,1,7.9,26H4ZM28.1,26A4.25,4.25,0,0,1,32,22.06V26Z"></path><path class="clr-i-outline clr-i-outline-path-2" d="M18,10.85c-3.47,0-6.3,3.21-6.3,7.15s2.83,7.15,6.3,7.15,6.3-3.21,6.3-7.15S21.47,10.85,18,10.85Zm0,12.69c-2.59,0-4.7-2.49-4.7-5.55s2.11-5.55,4.7-5.55,4.7,2.49,4.7,5.55S20.59,23.55,18,23.55Z"></path>
    <rect x="0" y="0" width="36" height="36" fill-opacity="0"/>
</svg>