<svg version="1.1" width="36" height="36"  viewBox="0 0 36 36" preserveAspectRatio="xMidYMid meet" xmlns="http://www.w3.org/2000/svg" xmlns:xlink="http://www.w3.org/1999/xlink">
    <title>piggy-bank-line</title>
    <path class="clr-i-outline clr-i-outline-path-1" d="M19.72,10.47a11.65,11.65,0,0,0-6.31.52A.8.8,0,1,0,14,12.48,10.11,10.11,0,0,1,19.44,12a.8.8,0,1,0,.28-1.57Z"></path><circle class="clr-i-outline clr-i-outline-path-2" cx="25.38" cy="16.71" r="1.36"></circle><path class="clr-i-outline clr-i-outline-path-3" d="M35.51,18.63a1,1,0,0,0-.84-.44,3.42,3.42,0,0,1-2.09-1.12,17.35,17.35,0,0,1-2.63-3.78l2.88-4.5A1.89,1.89,0,0,0,33,7a1.77,1.77,0,0,0-1.33-1,10.12,10.12,0,0,0-5.39.75,12.72,12.72,0,0,0-2.72,1.63,16.94,16.94,0,0,0-5.16-1.39C11.31,6.3,4.83,10.9,4,17H4a2.56,2.56,0,0,1-1.38-1.53,1.81,1.81,0,0,1,.14-1.4,1.19,1.19,0,0,1,.43-.43,1.08,1.08,0,0,0-1.12-1.85A3.31,3.31,0,0,0,.91,13a4,4,0,0,0-.33,3.08A4.76,4.76,0,0,0,3,18.95l.92.46a17.58,17.58,0,0,0,1.82,7l.17.38A23,23,0,0,0,9.2,31.88a1,1,0,0,0,.75.34h4.52a1,1,0,0,0,.92-1.38L15,29.94l1.18.13a20.33,20.33,0,0,0,4,0c.37.6.77,1.2,1.21,1.79a1,1,0,0,0,.8.41h4.34a1,1,0,0,0,.92-1.39c-.17-.4-.34-.83-.47-1.2-.18-.53-.32-1-.43-1.45A13.18,13.18,0,0,0,29.56,26a12.5,12.5,0,0,0,3,0,1,1,0,0,0,.78-.62l2.26-5.81A1,1,0,0,0,35.51,18.63Zm-3.78,5.44a11.37,11.37,0,0,1-2.35-.11h0a8.2,8.2,0,0,1-2.53-.87,1,1,0,0,0-.93,1.77,11.72,11.72,0,0,0,1.29.58,8,8,0,0,1-1.8,1.16l-1.06.48s.49,2.19.82,3.16H22.79c-.24-.34-1.45-2.36-1.45-2.36l-.67.09a18.53,18.53,0,0,1-4.25.12c-.66-.06-1.76-.2-2.62-.35l-1.55-.27s.63,2.43.75,2.74v0H10.42A20.57,20.57,0,0,1,7.76,26l-.18-.39A14.62,14.62,0,0,1,6,17.48c.54-5.19,6.12-9.11,12.19-8.54a15.47,15.47,0,0,1,5.08,1.48l.62.29.5-.47A10.29,10.29,0,0,1,27,8.54a8.25,8.25,0,0,1,4-.65l-3.38,5.29.25.5h0a21.16,21.16,0,0,0,3.31,4.84,6.49,6.49,0,0,0,2.14,1.39Z"></path>
    <rect x="0" y="0" width="36" height="36" fill-opacity="0"/>
</svg>