<svg version="1.1" width="36" height="36"  viewBox="0 0 36 36" preserveAspectRatio="xMidYMid meet" xmlns="http://www.w3.org/2000/svg" xmlns:xlink="http://www.w3.org/1999/xlink">
    <title>pound-line</title>
    <path class="clr-i-outline clr-i-outline-path-1" d="M27.9,30H13.4A8.45,8.45,0,0,0,15,24.65V21h4.31a1,1,0,0,0,0-2H15V11.31A5.24,5.24,0,0,1,20.21,6,5.19,5.19,0,0,1,24,7.73a1,1,0,0,0,1.48-1.35A7.19,7.19,0,0,0,13,11.31V19H8.72a1,1,0,1,0,0,2H13v3.65C13,29.38,10.12,30,10,30a1,1,0,0,0,.17,2H27.9a1,1,0,1,0,0-2Z"></path>
    <rect x="0" y="0" width="36" height="36" fill-opacity="0"/>
</svg>