<svg version="1.1" width="36" height="36"  viewBox="0 0 36 36" preserveAspectRatio="xMidYMid meet" xmlns="http://www.w3.org/2000/svg" xmlns:xlink="http://www.w3.org/1999/xlink">
    <title>piggy-bank-solid</title>
    <path class="clr-i-solid clr-i-solid-path-1" d="M35,18.87A5.83,5.83,0,0,1,33,17.61a21.63,21.63,0,0,1-3.29-4.84l3.39-5.29a.9.9,0,0,0-.54-1.38,9.67,9.67,0,0,0-5.13.72,12,12,0,0,0-3.13,2A17.37,17.37,0,0,0,18.6,7.15C11.8,6.52,5.27,10.9,4.54,17l-.14-.07A2.76,2.76,0,0,1,2.9,15.29a2,2,0,0,1,.15-1.55,1.32,1.32,0,0,1,.47-.48,1.08,1.08,0,1,0-1.12-1.85,3.45,3.45,0,0,0-1.23,1.25A4.16,4.16,0,0,0,.84,15.9a5,5,0,0,0,2.57,3l1,.54a18.62,18.62,0,0,0,2,7.3,23,23,0,0,0,3,4.79,1,1,0,0,0,.8.38h3.61a.52.52,0,0,0,.4-.75L14,30.38a11,11,0,0,1-.33-1.18c.91.16,2.08.31,2.87.38a20.07,20.07,0,0,0,3.12,0c.39.7.79,1.33,1.15,1.85a.93.93,0,0,0,.77.41h3.11a.65.65,0,0,0,.61-.85c-.23-.74-.53-1.75-.71-2.37a15.9,15.9,0,0,0,3.75-1.76c.16-.11.32-.26.48-.39a13.77,13.77,0,0,1-2.42-1,.8.8,0,0,1,.74-1.42,11.64,11.64,0,0,0,3.18,1.1,13.31,13.31,0,0,0,2.68.12,1,1,0,0,0,.9-.66l1.73-4.44A1,1,0,0,0,35,18.87ZM13.79,11.59a.86.86,0,0,1-.3.05.85.85,0,0,1-.3-1.64,12.41,12.41,0,0,1,6.69-.55.85.85,0,1,1-.3,1.67A10.75,10.75,0,0,0,13.79,11.59Zm12.52,6.12a1.44,1.44,0,1,1,1.44-1.44A1.44,1.44,0,0,1,26.32,17.72Z"></path>
    <rect x="0" y="0" width="36" height="36" fill-opacity="0"/>
</svg>