<svg version="1.1" width="36" height="36"  viewBox="0 0 36 36" preserveAspectRatio="xMidYMid meet" xmlns="http://www.w3.org/2000/svg" xmlns:xlink="http://www.w3.org/1999/xlink">
    <title>shopping-cart-solid</title>
    <circle cx="13.5" cy="29.5" r="2.5" class="clr-i-solid clr-i-solid-path-1"></circle><circle cx="26.5" cy="29.5" r="2.5" class="clr-i-solid clr-i-solid-path-2"></circle><path d="M33.1,6.39A1,1,0,0,0,32.31,6H9.21L8.76,4.57a1,1,0,0,0-.66-.65L4,2.66a1,1,0,1,0-.59,1.92L7,5.68l4.58,14.47L9.95,21.49l-.13.13A2.66,2.66,0,0,0,9.74,25,2.75,2.75,0,0,0,12,26H28.69a1,1,0,0,0,0-2H11.84a.67.67,0,0,1-.56-1l2.41-2H29.12a1,1,0,0,0,1-.76l3.2-13A1,1,0,0,0,33.1,6.39Z" class="clr-i-solid clr-i-solid-path-3"></path>
    <rect x="0" y="0" width="36" height="36" fill-opacity="0"/>
</svg>