<svg version="1.1" width="36" height="36"  viewBox="0 0 36 36" preserveAspectRatio="xMidYMid meet" xmlns="http://www.w3.org/2000/svg" xmlns:xlink="http://www.w3.org/1999/xlink">
    <title>won-line</title>
    <path class="clr-i-outline clr-i-outline-path-1" d="M33,18H28.75l.5-2H33a1,1,0,0,0,0-2H29.74l2.17-8.76A1,1,0,0,0,30,4.76L27.68,14H21.31L19,4.76a1,1,0,0,0-1.94,0L14.79,14H8.42L6.13,4.76a1,1,0,0,0-1.94.48L6.36,14H3a1,1,0,0,0,0,2H6.85l.5,2H3a1,1,0,0,0,0,2H7.84l2.79,11.24a1,1,0,0,0,1.94,0L15.36,20h5.38l2.79,11.24a1,1,0,0,0,1.94,0L28.25,20H33a1,1,0,0,0,0-2Zm-5.82-2-.5,2H22.3l-.5-2ZM18,9.16,19.25,14h-2.4ZM8.91,16h5.38l-.5,2H9.41ZM11.6,26.84,9.91,20H13.3ZM15.85,18l.5-2h3.39l.5,2Zm8.64,8.84L22.8,20h3.39Z"></path>
    <rect x="0" y="0" width="36" height="36" fill-opacity="0"/>
</svg>