<svg version="1.1" width="36" height="36"  viewBox="0 0 36 36" preserveAspectRatio="xMidYMid meet" xmlns="http://www.w3.org/2000/svg" xmlns:xlink="http://www.w3.org/1999/xlink">
    <title>happy-face-solid</title>
    <path d="M18,2A16,16,0,1,0,34,18,16,16,0,0,0,18,2ZM8.89,13.89a2,2,0,1,1,2,2A2,2,0,0,1,8.89,13.89Zm9.24,14.32a8.67,8.67,0,0,1-8.26-6H26.38A8.67,8.67,0,0,1,18.13,28.21Zm6.93-12.32a2,2,0,1,1,2-2A2,2,0,0,1,25.05,15.89Z" class="clr-i-solid clr-i-solid-path-1"></path>
    <rect x="0" y="0" width="36" height="36" fill-opacity="0"/>
</svg>