<svg version="1.1" width="36" height="36"  viewBox="0 0 36 36" preserveAspectRatio="xMidYMid meet" xmlns="http://www.w3.org/2000/svg" xmlns:xlink="http://www.w3.org/1999/xlink">
    <title>backup-restore-solid</title>
    <path class="clr-i-solid clr-i-solid-path-1" d="M2,24v6a2,2,0,0,0,2,2H32a2,2,0,0,0,2-2V24Zm28,5H26V27h4Z"></path><path class="clr-i-solid clr-i-solid-path-2" d="M30.84,13.37A1.94,1.94,0,0,0,28.93,12H21v6a3,3,0,1,1-6,0V12H7.07a1.92,1.92,0,0,0-1.9,1.32C2.86,19.68,2.24,21.43,2.07,22H33.93C33.77,21.43,33.14,19.69,30.84,13.37Z"></path><path class="clr-i-solid clr-i-solid-path-3" d="M13,9.92,17,6V18a1,1,0,1,0,2,0V6l4,3.95A1,1,0,1,0,24.38,8.5L18,2.16,11.61,8.5A1,1,0,0,0,13,9.92Z"></path>
    <rect x="0" y="0" width="36" height="36" fill-opacity="0"/>
</svg>