<svg version="1.1" width="36" height="36"  viewBox="0 0 36 36" preserveAspectRatio="xMidYMid meet" xmlns="http://www.w3.org/2000/svg" xmlns:xlink="http://www.w3.org/1999/xlink">
    <title>bluetooth-off-line</title>
    <path d="M19,3,25.22,9.4l-5.66,5.8L21,16.63l5.68-5.83a2,2,0,0,0,0-2.78L20.48,1.7A2,2,0,0,0,18.85,1,2,2,0,0,0,17,3v11.4l2,2Z" class="clr-i-outline clr-i-outline-path-1"></path><path d="M4.77,5,3.36,6.42,15.89,19,9.06,26a1,1,0,0,0,.71,1.7,1,1,0,0,0,.72-.31L17,20.68V32.94a2.08,2.08,0,0,0,.71,1.63A2,2,0,0,0,19,35a2,2,0,0,0,1.42-.6l5.41-5.54,3.54,3.53L30.77,31ZM19,33.05v-11l5.41,5.41Z" class="clr-i-outline clr-i-outline-path-2"></path>
    <rect x="0" y="0" width="36" height="36" fill-opacity="0"/>
</svg>