<svg version="1.1" width="36" height="36"  viewBox="0 0 36 36" preserveAspectRatio="xMidYMid meet" xmlns="http://www.w3.org/2000/svg" xmlns:xlink="http://www.w3.org/1999/xlink">
    <title>cd-dvd-solid</title>
    <path d="M18.17,1.92a16,16,0,1,0,16,16A16,16,0,0,0,18.17,1.92ZM26.23,18h1.54a9.61,9.61,0,0,1-9.6,9.53H18V26h.17A8.07,8.07,0,0,0,26.23,18ZM6.05,18H4.45v-.08A13.72,13.72,0,0,1,18,4.21v1.6A12.13,12.13,0,0,0,6.05,17.92Zm4.05,0H8.56v-.08A9.61,9.61,0,0,1,18,8.32V9.86a8.07,8.07,0,0,0-7.9,8.06Zm4.32-.08a3.75,3.75,0,1,1,3.75,3.75A3.75,3.75,0,0,1,14.42,17.92Zm3.75,13.71H18V30h.17A12.13,12.13,0,0,0,30.28,18h1.6A13.73,13.73,0,0,1,18.17,31.63Z" class="clr-i-solid clr-i-solid-path-1"></path>
    <rect x="0" y="0" width="36" height="36" fill-opacity="0"/>
</svg>