<svg version="1.1" width="36" height="36"  viewBox="0 0 36 36" preserveAspectRatio="xMidYMid meet" xmlns="http://www.w3.org/2000/svg" xmlns:xlink="http://www.w3.org/1999/xlink">
    <title>data-cluster-outline-alerted</title>
    <path d="M4,18.24V7.91c0-.65,2.09-1.84,5.5-1.84S15,7.27,15,7.91V9.7a18.75,18.75,0,0,1,2-.2V7.91c0-2.52-3.77-3.84-7.5-3.84S2,5.4,2,7.91V18.24C2,20.4,4.77,21.67,7.9,22V20C5.46,19.68,4,18.78,4,18.24Z" class="clr-i-outline--alerted clr-i-outline-path-1--alerted"></path><path d="M24.65,18.52c-.85,1-3.42,2-6.65,2A14.49,14.49,0,0,1,14,20v1.46a16.33,16.33,0,0,0,4,.47,12.76,12.76,0,0,0,6.65-1.56v3.12c-.85,1-3.42,2-6.65,2a14.49,14.49,0,0,1-4-.53v1.46a16.33,16.33,0,0,0,4,.47,12.76,12.76,0,0,0,6.65-1.56v2.29c0,.95-2.65,2.38-6.65,2.38s-6.65-1.43-6.65-2.38V15.23c0-.95,2.65-2.38,6.65-2.38l.75,0a3.69,3.69,0,0,1-.08-2l-.66,0c-4.93,0-8.65,1.88-8.65,4.38V27.54c0,2.5,3.72,4.38,8.65,4.38s8.65-1.88,8.65-4.38V15.4h-2Z" class="clr-i-outline--alerted clr-i-outline-path-2--alerted"></path><path d="M22,4.8c-1.75.63-3,1.68-3,3.12V9.5l.25,0Z" class="clr-i-outline--alerted clr-i-outline-path-3--alerted"></path><path d="M33.68,15.4H32v2.84c0,.54-1.46,1.44-3.9,1.73v2c3.13-.32,5.9-1.6,5.9-3.75V15.38Z" class="clr-i-outline--alerted clr-i-outline-path-4--alerted"></path><path d="M26.85,1.14,21.13,11A1.28,1.28,0,0,0,22.23,13H33.68A1.28,1.28,0,0,0,34.78,11L29.06,1.14A1.28,1.28,0,0,0,26.85,1.14Z" class="clr-i-outline--alerted clr-i-outline-path-5--alerted clr-i-alert"></path>
    <rect x="0" y="0" width="36" height="36" fill-opacity="0"/>
</svg>