<svg version="1.1" width="36" height="36"  viewBox="0 0 36 36" preserveAspectRatio="xMidYMid meet" xmlns="http://www.w3.org/2000/svg" xmlns:xlink="http://www.w3.org/1999/xlink">
    <title>dna-solid</title>
    <path class="clr-i-solid clr-i-solid-path-1" d="M32.16,19.63A5.55,5.55,0,0,0,27.42,17H10.06a4.36,4.36,0,0,1-3.67-2,4.07,4.07,0,0,1-.19-4.13l3.62-7,1.42,1.63-2.74,5.3,8.84-5.66a.91.91,0,0,1,1,1.53L7.84,13.38a2.13,2.13,0,0,0,.24.52,2.28,2.28,0,0,0,1.65,1L18.11,9.5a.91.91,0,0,1,1,1.52L13,14.94H20.8l2.41-4.82a5.6,5.6,0,0,0-5-8.12H9a1,1,0,0,0-.9.56L3.88,10.89a5.6,5.6,0,0,0,5,8.12h7.65l-3.43,6.87a5.6,5.6,0,0,0,5,8.12h9.28a1,1,0,0,0,.93-.65l4.14-8.24A5.58,5.58,0,0,0,32.16,19.63ZM17.75,25.57A.91.91,0,0,1,18,24.31l6-3.88A.91.91,0,1,1,25,22l-6,3.88a.91.91,0,0,1-1.26-.27ZM29,24.34l-9,5.78a.91.91,0,1,1-1-1.53l9-5.78a.91.91,0,1,1,1,1.53Z"></path>
    <rect x="0" y="0" width="36" height="36" fill-opacity="0"/>
</svg>