<svg version="1.1" width="36" height="36"  viewBox="0 0 36 36" preserveAspectRatio="xMidYMid meet" xmlns="http://www.w3.org/2000/svg" xmlns:xlink="http://www.w3.org/1999/xlink">
    <title>download-cloud-line</title>
    <path d="M30.31,13c0-.1,0-.21,0-.32a10.26,10.26,0,0,0-10.45-10,10.47,10.47,0,0,0-9.6,6.1A9.65,9.65,0,0,0,10.89,28a3,3,0,0,1,0-2A7.65,7.65,0,0,1,11,10.74l.67,0,.23-.63a8.43,8.43,0,0,1,8-5.4,8.26,8.26,0,0,1,8.45,8,7.75,7.75,0,0,1,0,.8l-.08.72.65.3A6,6,0,0,1,26.38,26H25.09a3,3,0,0,1,0,2h1.28a8,8,0,0,0,3.93-15Z" class="clr-i-outline clr-i-outline-path-1"></path><path d="M22.28,26.07a1,1,0,0,0-.71.29L19,28.94V16.68a1,1,0,1,0-2,0V28.94l-2.57-2.57A1,1,0,0,0,13,27.78l5,5,5-5a1,1,0,0,0-.71-1.71Z" class="clr-i-outline clr-i-outline-path-2"></path>
    <rect x="0" y="0" width="36" height="36" fill-opacity="0"/>
</svg>