<svg version="1.1" width="36" height="36"  viewBox="0 0 36 36" preserveAspectRatio="xMidYMid meet" xmlns="http://www.w3.org/2000/svg" xmlns:xlink="http://www.w3.org/1999/xlink">
    <title>hard-drive-disks-solid</title>
    <path d="M26,5.74A1.74,1.74,0,0,0,24.26,4H3.74A1.74,1.74,0,0,0,2,5.74V20.26A1.74,1.74,0,0,0,3.74,22H4V6H26Z" class="clr-i-solid clr-i-solid-path-1"></path><path d="M30,9.74A1.74,1.74,0,0,0,28.26,8H7.74A1.74,1.74,0,0,0,6,9.74V24.26A1.74,1.74,0,0,0,7.74,26H8V10H30Z" class="clr-i-solid clr-i-solid-path-2"></path><path d="M19.62,22.6A1.55,1.55,0,1,0,18,21.05,1.6,1.6,0,0,0,19.62,22.6Z" class="clr-i-solid clr-i-solid-path-3"></path><path d="M32.26,12H11.74A1.74,1.74,0,0,0,10,13.74V28.26A1.74,1.74,0,0,0,11.74,30H32.26A1.74,1.74,0,0,0,34,28.26V13.74A1.74,1.74,0,0,0,32.26,12ZM19.62,17.74a3.31,3.31,0,1,1-3.38,3.31A3.35,3.35,0,0,1,19.62,17.74Zm0,11.13a7.94,7.94,0,0,1-8-7.82,7.83,7.83,0,0,1,.11-1.29l1.75.3a5.36,5.36,0,0,0-.11,1,6.18,6.18,0,0,0,6.28,6.06,6.35,6.35,0,0,0,5-2.46h2.1A8.06,8.06,0,0,1,19.62,28.87ZM29.89,22.2H24.36V20.44h1.48A6.19,6.19,0,0,0,19.62,15a6.48,6.48,0,0,0-1.41.16l-.45-1.7a8.16,8.16,0,0,1,1.86-.22,8,8,0,0,1,8,7.21h2.26a.88.88,0,0,1,0,1.76Z" class="clr-i-solid clr-i-solid-path-4"></path>
    <rect x="0" y="0" width="36" height="36" fill-opacity="0"/>
</svg>