<svg version="1.1" width="36" height="36"  viewBox="0 0 36 36" preserveAspectRatio="xMidYMid meet" xmlns="http://www.w3.org/2000/svg" xmlns:xlink="http://www.w3.org/1999/xlink">
    <title>import-solid</title>
    <path d="M3,21a1,1,0,1,0,0,2H8V21Z" class="clr-i-solid clr-i-solid-path-1"></path><path d="M28,4H14.87L8,10.86V21H15.2l-3.25-3.25a1,1,0,0,1,1.41-1.41L19,22l-5.68,5.68a1,1,0,0,1-1.41-1.41L15.23,23H8v7a2,2,0,0,0,2,2H28a2,2,0,0,0,2-2V6A2,2,0,0,0,28,4ZM16,12H10v-.32L15.69,6H16Z" class="clr-i-solid clr-i-solid-path-2"></path>
    <rect x="0" y="0" width="36" height="36" fill-opacity="0"/>
</svg>