<svg version="1.1" width="36" height="36"  viewBox="0 0 36 36" preserveAspectRatio="xMidYMid meet" xmlns="http://www.w3.org/2000/svg" xmlns:xlink="http://www.w3.org/1999/xlink">
    <title>network-settings-solid</title>
    <path d="M34,23.63,32,23a7.06,7.06,0,0,0-.58-1.41l1-1.86a.37.37,0,0,0-.07-.44L30.9,17.86a.37.37,0,0,0-.44-.07l-1.85,1a7,7,0,0,0-1.43-.61l-.61-2a.37.37,0,0,0-.36-.25h-2a.37.37,0,0,0-.35.26l-.61,2a7,7,0,0,0-1.44.61L20,17.8a.37.37,0,0,0-.44.07L18,19.31a.37.37,0,0,0-.07.44l1,1.82A7,7,0,0,0,18.35,23l-2,.61a.37.37,0,0,0-.26.35v2a.37.37,0,0,0,.26.35l2,.61A7,7,0,0,0,19,28.37l-1,1.9a.37.37,0,0,0,.07.44l1.45,1.45a.37.37,0,0,0,.44.07l1.87-1a7.06,7.06,0,0,0,1.39.57l.61,2a.37.37,0,0,0,.35.26h2a.37.37,0,0,0,.35-.26l.61-2a7,7,0,0,0,1.38-.57l1.89,1a.37.37,0,0,0,.44-.07l1.45-1.45a.37.37,0,0,0,.07-.44l-1-1.88A7,7,0,0,0,31.95,27l2-.61a.37.37,0,0,0,.26-.35V24A.37.37,0,0,0,34,23.63Zm-8.83,4.72A3.33,3.33,0,1,1,28.53,25,3.33,3.33,0,0,1,25.19,28.34Z" class="clr-i-solid clr-i-solid-path-1"></path><path d="M10.85,27.44a2.29,2.29,0,0,0,1.74-1.68,19.71,19.71,0,0,0,1.89-.6V23.95a2,2,0,0,1,.09-.55,17.42,17.42,0,0,1-2.17.78,2.28,2.28,0,0,0-4.28.63l-.45,0h0a11.93,11.93,0,0,1-2.88-7.27,17.79,17.79,0,0,1,5-4.72,2.23,2.23,0,0,0,2.29.56,18.52,18.52,0,0,0,4.65,5.09,1.93,1.93,0,0,1,.23-.32l.89-.87a16.89,16.89,0,0,1-4.49-4.89,2.27,2.27,0,0,0,.35-1.2c0-.07,0-.14,0-.22A17.69,17.69,0,0,1,25,11a17.49,17.49,0,0,1-1.15,3.35,1.94,1.94,0,0,1,.31-.05h1.45a19.06,19.06,0,0,0,.9-2.7c.43.19.84.41,1.26.64a11.93,11.93,0,0,1,1,4.63l1-.51a2,2,0,0,1,.92-.23h.08A14,14,0,1,0,16.44,31a1.94,1.94,0,0,1,.12-1.46l.28-.53h-.07A11.91,11.91,0,0,1,10.85,27.44ZM16.76,5a12,12,0,0,1,8.61,3.66c0,.25,0,.51-.08.76a19.21,19.21,0,0,0-12.35.11A2.28,2.28,0,0,0,11.74,9a17,17,0,0,1-.61-2.53A11.92,11.92,0,0,1,16.76,5ZM9.66,7.36a18.72,18.72,0,0,0,.49,1.92,2.28,2.28,0,0,0-1.07,1.93s0,.1,0,.15A19.45,19.45,0,0,0,5,14.79,12,12,0,0,1,9.66,7.36Z" class="clr-i-solid clr-i-solid-path-2"></path>
    <rect x="0" y="0" width="36" height="36" fill-opacity="0"/>
</svg>