<svg version="1.1" width="36" height="36"  viewBox="0 0 36 36" preserveAspectRatio="xMidYMid meet" xmlns="http://www.w3.org/2000/svg" xmlns:xlink="http://www.w3.org/1999/xlink">
    <title>network-switch-line</title>
    <path d="M33.91,18.47,30.78,8.41A2,2,0,0,0,28.87,7H7.13A2,2,0,0,0,5.22,8.41L2.09,18.48a2,2,0,0,0-.09.59V27a2,2,0,0,0,2,2H32a2,2,0,0,0,2-2V19.06A2,2,0,0,0,33.91,18.47ZM32,27H4V19.06L7.13,9H28.87L32,19.06Z" class="clr-i-outline clr-i-outline-path-1"></path><rect x="7.12" y="22" width="1.8" height="3" class="clr-i-outline clr-i-outline-path-2"></rect><rect x="12.12" y="22" width="1.8" height="3" class="clr-i-outline clr-i-outline-path-3"></rect><rect x="17.11" y="22" width="1.8" height="3" class="clr-i-outline clr-i-outline-path-4"></rect><rect x="22.1" y="22" width="1.8" height="3" class="clr-i-outline clr-i-outline-path-5"></rect><rect x="27.1" y="22" width="1.8" height="3" class="clr-i-outline clr-i-outline-path-6"></rect><rect x="6.23" y="18" width="23.69" height="1.4" class="clr-i-outline clr-i-outline-path-7"></rect>
    <rect x="0" y="0" width="36" height="36" fill-opacity="0"/>
</svg>