<svg version="1.1" width="36" height="36"  viewBox="0 0 36 36" preserveAspectRatio="xMidYMid meet" xmlns="http://www.w3.org/2000/svg" xmlns:xlink="http://www.w3.org/1999/xlink">
    <title>storage-solid-alerted</title>
    <path class="clr-i-solid--alerted clr-i-solid-path-1--alerted" d="M17.91,20.28A39.4,39.4,0,0,1,6.25,18.77v-2a39.4,39.4,0,0,0,11.66,1.51c6.9,0,12.7-1.27,14.51-3H22.23a3.67,3.67,0,0,1-3.55-2.75h-.77A39.4,39.4,0,0,1,6.25,11V9a39.4,39.4,0,0,0,11.66,1.51h.82A3.64,3.64,0,0,1,19,9.75l4.17-7.22c-1.85-.18-3.68-.25-5.21-.25-5.57,0-15,.93-15,4.43V29.29c0,3.49,9.43,4.43,15,4.43s15-.93,15-4.43V24.09C32.57,26.28,26,28,17.91,28A39.4,39.4,0,0,1,6.25,26.52v-2A39.4,39.4,0,0,0,17.91,26C26,26,32.57,24.28,33,22.09V16.34C32.57,18.53,26,20.28,17.91,20.28Z"></path><path class="clr-i-solid--alerted clr-i-solid-path-2--alerted clr-i-alert" d="M26.85,1l-5.72,9.91a1.28,1.28,0,0,0,1.1,1.91H33.68a1.28,1.28,0,0,0,1.1-1.91L29.06,1A1.28,1.28,0,0,0,26.85,1Z"></path>
    <rect x="0" y="0" width="36" height="36" fill-opacity="0"/>
</svg>