<svg version="1.1" width="36" height="36"  viewBox="0 0 36 36" preserveAspectRatio="xMidYMid meet" xmlns="http://www.w3.org/2000/svg" xmlns:xlink="http://www.w3.org/1999/xlink">
    <title>terminal-outline-alerted</title>
    <rect x="17" y="23" width="6" height="2" class="clr-i-outline--alerted clr-i-outline-path-1--alerted"></rect><polygon points="7 24.11 16.6 19.7 16.6 17.89 7 13.48 7 15.68 13.79 18.8 7 21.91 7 24.11" class="clr-i-outline--alerted clr-i-outline-path-2--alerted"></polygon><path d="M33.68,15.4H32V29H4V10.8H18.68A3.66,3.66,0,0,1,19,9.89l.4-.69H4V7H20.71l1.15-2H4A2,2,0,0,0,2,7V29a2,2,0,0,0,2,2H32a2,2,0,0,0,2-2V15.38Z" class="clr-i-outline--alerted clr-i-outline-path-3--alerted"></path><path d="M26.85,1.14,21.13,11A1.28,1.28,0,0,0,22.23,13H33.68A1.28,1.28,0,0,0,34.78,11L29.06,1.14A1.28,1.28,0,0,0,26.85,1.14Z" class="clr-i-outline--alerted clr-i-outline-path-4--alerted clr-i-alert"></path>
    <rect x="0" y="0" width="36" height="36" fill-opacity="0"/>
</svg>