<svg version="1.1" width="36" height="36"  viewBox="0 0 36 36" preserveAspectRatio="xMidYMid meet" xmlns="http://www.w3.org/2000/svg" xmlns:xlink="http://www.w3.org/1999/xlink">
    <title>unlink-line</title>
    <path d="M5,5,3.59,6.41l9,9L8.1,19.79a5.91,5.91,0,0,0,0,8.39,6,6,0,0,0,8.44,0L21,23.78l8.63,8.63L31,31ZM15.13,26.76a4,4,0,0,1-5.62,0,3.92,3.92,0,0,1,0-5.55L14,16.79l5.58,5.58Z" class="clr-i-outline clr-i-outline-path-1"></path><path d="M21.53,9.22a4,4,0,0,1,5.62,0,3.92,3.92,0,0,1,0,5.55l-4.79,4.76L23.78,21l4.79-4.76a5.92,5.92,0,0,0,0-8.39,6,6,0,0,0-8.44,0l-4.76,4.74L16.78,14Z" class="clr-i-outline clr-i-outline-path-2"></path>
    <rect x="0" y="0" width="36" height="36" fill-opacity="0"/>
</svg>