<svg version="1.1" width="36" height="36"  viewBox="0 0 36 36" preserveAspectRatio="xMidYMid meet" xmlns="http://www.w3.org/2000/svg" xmlns:xlink="http://www.w3.org/1999/xlink">
    <title>archive-solid</title>
    <path d="M19.41,20.6,18,22l-1.41-1.4L16,20H5V32a2,2,0,0,0,2,2H29a2,2,0,0,0,2-2V20H20ZM22,24a1,1,0,0,1-1,1H15a1,1,0,0,1,0-2h6A1,1,0,0,1,22,24Z" class="clr-i-solid clr-i-solid-path-1"></path><path d="M30.5,12H26.66s0,.09,0,.13a3,3,0,0,1-.88,2.12L22,18H32V13.5A1.5,1.5,0,0,0,30.5,12Z" class="clr-i-solid clr-i-solid-path-2"></path><path d="M10.2,14.25a3,3,0,0,1-.88-2.12s0-.09,0-.13H5.5A1.5,1.5,0,0,0,4,13.5V18H14Z" class="clr-i-solid clr-i-solid-path-3"></path><path d="M18,19.18l6.38-6.35A1,1,0,1,0,23,11.41l-4,3.95V3a1,1,0,1,0-2,0v12.4l-4-3.95a1,1,0,0,0-1.41,1.42Z" class="clr-i-solid clr-i-solid-path-4"></path>
    <rect x="0" y="0" width="36" height="36" fill-opacity="0"/>
</svg>