<svg version="1.1" width="36" height="36"  viewBox="0 0 36 36" preserveAspectRatio="xMidYMid meet" xmlns="http://www.w3.org/2000/svg" xmlns:xlink="http://www.w3.org/1999/xlink">
    <title>bar-code-line</title>
    <path d="M5,7A1,1,0,0,0,4,8V30a1,1,0,0,0,2,0V8A1,1,0,0,0,5,7Z" class="clr-i-outline clr-i-outline-path-1"></path><path d="M9,7A1,1,0,0,0,8,8V26a1,1,0,0,0,2,0V8A1,1,0,0,0,9,7Z" class="clr-i-outline clr-i-outline-path-2"></path><path d="M13,7a1,1,0,0,0-1,1V26a1,1,0,0,0,2,0V8A1,1,0,0,0,13,7Z" class="clr-i-outline clr-i-outline-path-3"></path><path d="M17,7a1,1,0,0,0-1,1V26a1,1,0,0,0,2,0V8A1,1,0,0,0,17,7Z" class="clr-i-outline clr-i-outline-path-4"></path><path d="M21,7a1,1,0,0,0-1,1V26a1,1,0,0,0,2,0V8A1,1,0,0,0,21,7Z" class="clr-i-outline clr-i-outline-path-5"></path><path d="M25,7a1,1,0,0,0-1,1V26a1,1,0,0,0,2,0V8A1,1,0,0,0,25,7Z" class="clr-i-outline clr-i-outline-path-6"></path><path d="M29,7a1,1,0,0,0-1,1V26a1,1,0,0,0,2,0V8A1,1,0,0,0,29,7Z" class="clr-i-outline clr-i-outline-path-7"></path><path d="M33,7a1,1,0,0,0-1,1V30a1,1,0,0,0,2,0V8A1,1,0,0,0,33,7Z" class="clr-i-outline clr-i-outline-path-8"></path>
    <rect x="0" y="0" width="36" height="36" fill-opacity="0"/>
</svg>