<svg version="1.1" width="36" height="36"  viewBox="0 0 36 36" preserveAspectRatio="xMidYMid meet" xmlns="http://www.w3.org/2000/svg" xmlns:xlink="http://www.w3.org/1999/xlink">
    <title>battery-line</title>
    <path d="M18.59,11.77a1,1,0,0,0-1.73,1l2.5,4.34-6.07-1,5.29,10.59a1,1,0,0,0,1.79-.89l-3.53-7.08,6.38,1.06Z" class="clr-i-outline clr-i-outline-path-1"></path><path d="M25.12,4H23V3.58A1.58,1.58,0,0,0,21.42,2H14.58A1.58,1.58,0,0,0,13,3.58V4H10.88A1.88,1.88,0,0,0,9,5.88V32.12A1.88,1.88,0,0,0,10.88,34H25.12A1.88,1.88,0,0,0,27,32.12V5.88A1.88,1.88,0,0,0,25.12,4ZM25,32H11V6h4V4h6V6h4Z" class="clr-i-outline clr-i-outline-path-2"></path>
    <rect x="0" y="0" width="36" height="36" fill-opacity="0"/>
</svg>