<svg version="1.1" width="36" height="36"  viewBox="0 0 36 36" preserveAspectRatio="xMidYMid meet" xmlns="http://www.w3.org/2000/svg" xmlns:xlink="http://www.w3.org/1999/xlink">
    <title>cluster-outline-alerted</title>
    <path d="M5,10H8.5V8H4.64A1.65,1.65,0,0,0,3,9.67V32H8.5V30H5Z" class="clr-i-outline--alerted clr-i-outline-path-1--alerted"></path><ellipse cx="18.01" cy="25.99" rx="1.8" ry="1.79" class="clr-i-outline--alerted clr-i-outline-path-2--alerted"></ellipse><path d="M19,9.89l.39-.68H13.5v1.6h5.17A3.65,3.65,0,0,1,19,9.89Z" class="clr-i-outline--alerted clr-i-outline-path-3--alerted"></path><path d="M24,30H12V6h9.29l1.15-2H11.68A1.68,1.68,0,0,0,10,5.68V32H26V15.4H24Z" class="clr-i-outline--alerted clr-i-outline-path-4--alerted"></path><polygon points="31 15.4 31 30 27.5 30 27.5 32 33 32 33 15.4 31 15.4" class="clr-i-outline--alerted clr-i-outline-path-5--alerted"></polygon><path d="M26.85,1.14,21.13,11A1.28,1.28,0,0,0,22.23,13H33.68A1.28,1.28,0,0,0,34.78,11L29.06,1.14A1.28,1.28,0,0,0,26.85,1.14Z" class="clr-i-outline--alerted clr-i-outline-path-6--alerted clr-i-alert"></path>
    <rect x="0" y="0" width="36" height="36" fill-opacity="0"/>
</svg>