<svg version="1.1" width="36" height="36"  viewBox="0 0 36 36" preserveAspectRatio="xMidYMid meet" xmlns="http://www.w3.org/2000/svg" xmlns:xlink="http://www.w3.org/1999/xlink">
    <title>export-solid</title>
    <path d="M17,22a1,1,0,0,1,1-1h8V6a2,2,0,0,0-2-2H10.87L4,10.86V30a2,2,0,0,0,2,2H24a2,2,0,0,0,2-2V23H18A1,1,0,0,1,17,22ZM12,12H6v-.32L11.69,6H12Z" class="clr-i-solid clr-i-solid-path-1"></path><path d="M29.32,16.35a1,1,0,0,0-1.41,1.41L31.16,21H26v2h5.19l-3.28,3.28a1,1,0,1,0,1.41,1.41L35,22Z" class="clr-i-solid clr-i-solid-path-2"></path>
    <rect x="0" y="0" width="36" height="36" fill-opacity="0"/>
</svg>