<svg version="1.1" width="36" height="36"  viewBox="0 0 36 36" preserveAspectRatio="xMidYMid meet" xmlns="http://www.w3.org/2000/svg" xmlns:xlink="http://www.w3.org/1999/xlink">
    <title>license-solid-alerted</title>
    <path d="M33.83,23.59a6.37,6.37,0,1,0-10.77,4.59l-1.94,2.37.9,3.61,3.66-4.46a6.26,6.26,0,0,0,3.55,0l3.66,4.46.9-3.61-1.94-2.37A6.34,6.34,0,0,0,33.83,23.59Zm-10.74,0a4.37,4.37,0,1,1,4.37,4.31A4.35,4.35,0,0,1,23.1,23.59Z" class="clr-i-solid--alerted clr-i-solid-path-1--alerted"></path><path d="M33.68,15.4H29.25a8.36,8.36,0,0,1,4.75,3v-3Z" class="clr-i-solid--alerted clr-i-solid-path-2--alerted"></path><path d="M19.07,13.6H7V12H18.57A3.67,3.67,0,0,1,19,9.89L21.29,6H4A2,2,0,0,0,2,8V28a2,2,0,0,0,2,2H19l.57-.7.93-1.14A8.34,8.34,0,0,1,25.66,15.4H22.23A3.68,3.68,0,0,1,19.07,13.6ZM17,24.6H7V23H17Zm1-7H7V16H18Z" class="clr-i-solid--alerted clr-i-solid-path-3--alerted"></path><path d="M26.85,1.14,21.13,11A1.28,1.28,0,0,0,22.23,13H33.68A1.28,1.28,0,0,0,34.78,11L29.06,1.14A1.28,1.28,0,0,0,26.85,1.14Z" class="clr-i-solid--alerted clr-i-solid-path-4--alerted clr-i-alert"></path>
    <rect x="0" y="0" width="36" height="36" fill-opacity="0"/>
</svg>