<svg version="1.1" width="36" height="36"  viewBox="0 0 36 36" preserveAspectRatio="xMidYMid meet" xmlns="http://www.w3.org/2000/svg" xmlns:xlink="http://www.w3.org/1999/xlink">
    <title>license-solid</title>
    <path d="M19,30H4a2,2,0,0,1-2-2V8A2,2,0,0,1,4,6H32a2,2,0,0,1,2,2V18.37a8.34,8.34,0,0,0-13.49,9.79l-.93,1.14ZM7,12v1.6H24V12Zm0,5.6H18V16H7Zm0,7H17V23H7Z" class="clr-i-solid clr-i-solid-path-1"></path><path d="M33.83,23.59a6.37,6.37,0,1,0-10.77,4.59l-1.94,2.37.9,3.61,3.66-4.46a6.26,6.26,0,0,0,3.55,0l3.66,4.46.9-3.61-1.94-2.37A6.34,6.34,0,0,0,33.83,23.59Zm-10.74,0a4.37,4.37,0,1,1,4.37,4.31A4.35,4.35,0,0,1,23.1,23.59Z" class="clr-i-solid clr-i-solid-path-2"></path>
    <rect x="0" y="0" width="36" height="36" fill-opacity="0"/>
</svg>