<svg version="1.1" width="36" height="36"  viewBox="0 0 36 36" preserveAspectRatio="xMidYMid meet" xmlns="http://www.w3.org/2000/svg" xmlns:xlink="http://www.w3.org/1999/xlink">
    <title>rack-server-solid-alerted</title>
    <path class="clr-i-solid--alerted clr-i-solid-path-1--alerted" d="M2,30a2,2,0,0,0,2,2H32a2,2,0,0,0,2-2V24H2Zm8-3H24v2H10ZM6,27H8v2H6Z"></path><path class="clr-i-solid--alerted clr-i-solid-path-2--alerted" d="M19,9.89,19.56,9H10V7H20.71l1.73-3H4A2,2,0,0,0,2,6v6H18.57A3.67,3.67,0,0,1,19,9.89ZM8,9H6V7H8Z"></path><path class="clr-i-solid--alerted clr-i-solid-path-3--alerted" d="M33.68,15.4H22.23A3.69,3.69,0,0,1,19.35,14H2v8H34V15.38ZM8,19H6V17H8Zm16,0H10V17H24Z"></path><path class="clr-i-solid--alerted clr-i-solid-path-4--alerted clr-i-alert" d="M26.85,1.14,21.13,11A1.28,1.28,0,0,0,22.23,13H33.68A1.28,1.28,0,0,0,34.78,11L29.06,1.14A1.28,1.28,0,0,0,26.85,1.14Z"></path>
    <rect x="0" y="0" width="36" height="36" fill-opacity="0"/>
</svg>