<svg version="1.1" width="36" height="36"  viewBox="0 0 36 36" preserveAspectRatio="xMidYMid meet" xmlns="http://www.w3.org/2000/svg" xmlns:xlink="http://www.w3.org/1999/xlink">
    <title>rack-server-solid</title>
    <path class="clr-i-solid clr-i-solid-path-1" d="M2,22H34V14H2Zm8-5H24v2H10ZM6,17H8v2H6Z"></path><path class="clr-i-solid clr-i-solid-path-2" d="M32,4H4A2,2,0,0,0,2,6v6H34V6A2,2,0,0,0,32,4ZM8,9H6V7H8ZM24,9H10V7H24Z"></path><path class="clr-i-solid clr-i-solid-path-3" d="M2,30a2,2,0,0,0,2,2H32a2,2,0,0,0,2-2V24H2Zm8-3H24v2H10ZM6,27H8v2H6Z"></path>
    <rect x="0" y="0" width="36" height="36" fill-opacity="0"/>
</svg>