<svg version="1.1" width="36" height="36"  viewBox="0 0 36 36" preserveAspectRatio="xMidYMid meet" xmlns="http://www.w3.org/2000/svg" xmlns:xlink="http://www.w3.org/1999/xlink">
    <title>shield-x-solid</title>
    <path d="M31.25,7.4a43.79,43.79,0,0,1-6.62-2.35,45,45,0,0,1-6.08-3.21L18,1.5l-.54.35a45,45,0,0,1-6.08,3.21A43.79,43.79,0,0,1,4.75,7.4L4,7.59v8.34c0,13.39,13.53,18.4,13.66,18.45l.34.12.34-.12c.14,0,13.66-5.05,13.66-18.45V7.59ZM24.51,21.55a1.4,1.4,0,0,1-2,2L18,19l-4.53,4.53a1.43,1.43,0,0,1-2,0,1.4,1.4,0,0,1,0-2L16,17l-4.53-4.53a1.4,1.4,0,1,1,2-2L18,15l4.53-4.53a1.4,1.4,0,0,1,2,2L20,17Z" class="clr-i-solid clr-i-solid-path-1"></path>
    <rect x="0" y="0" width="36" height="36" fill-opacity="0"/>
</svg>