<svg version="1.1" width="36" height="36"  viewBox="0 0 36 36" preserveAspectRatio="xMidYMid meet" xmlns="http://www.w3.org/2000/svg" xmlns:xlink="http://www.w3.org/1999/xlink">
    <title>shield-solid-alerted</title>
    <path d="M22.23,15.4A3.68,3.68,0,0,1,19,9.89L22.43,4a41.1,41.1,0,0,1-3.89-2.18L18,1.5l-.54.35a45,45,0,0,1-6.08,3.21A43.79,43.79,0,0,1,4.75,7.4L4,7.59v8.34c0,13.39,13.53,18.4,13.66,18.45l.34.12.34-.12c.14,0,13.66-5.05,13.66-18.45V15.4Z" class="clr-i-solid--alerted clr-i-solid-path-1--alerted"></path><path d="M26.85,1.14,21.13,11A1.28,1.28,0,0,0,22.23,13H33.68A1.28,1.28,0,0,0,34.78,11L29.06,1.14A1.28,1.28,0,0,0,26.85,1.14Z" class="clr-i-solid--alerted clr-i-solid-path-2--alerted clr-i-alert"></path>
    <rect x="0" y="0" width="36" height="36" fill-opacity="0"/>
</svg>