<svg version="1.1" width="36" height="36"  viewBox="0 0 36 36" preserveAspectRatio="xMidYMid meet" xmlns="http://www.w3.org/2000/svg" xmlns:xlink="http://www.w3.org/1999/xlink">
    <title>upload-cloud-outline-alerted</title>
    <path d="M22.28,21.85A1,1,0,0,0,23,20.14l-5-5-5,5a1,1,0,0,0,1.41,1.41L17,19V31.25a1,1,0,1,0,2,0V19l2.57,2.57A1,1,0,0,0,22.28,21.85Z" class="clr-i-outline--alerted clr-i-outline-path-1--alerted"></path><path d="M3.6,18.38A7.71,7.71,0,0,1,11,10.74l.67,0,.23-.63a8.43,8.43,0,0,1,8-5.4,8.81,8.81,0,0,1,2,.25l1-1.8a10.8,10.8,0,0,0-3.07-.45,10.47,10.47,0,0,0-9.6,6.1A9.74,9.74,0,0,0,1.6,18.4,9.62,9.62,0,0,0,11.25,28H15V26H11.25A7.66,7.66,0,0,1,3.6,18.38Z" class="clr-i-outline--alerted clr-i-outline-path-2--alerted"></path><path d="M32.9,15.4H30.21A6,6,0,0,1,26.38,26H21v2h5.38A8,8,0,0,0,32.9,15.4Z" class="clr-i-outline--alerted clr-i-outline-path-3--alerted"></path><path d="M26.85,1.14,21.13,11A1.28,1.28,0,0,0,22.23,13H33.68A1.28,1.28,0,0,0,34.78,11L29.06,1.14A1.28,1.28,0,0,0,26.85,1.14Z" class="clr-i-outline--alerted clr-i-outline-path-4--alerted clr-i-alert"></path>
    <rect x="0" y="0" width="36" height="36" fill-opacity="0"/>
</svg>