<svg version="1.1" width="36" height="36"  viewBox="0 0 36 36" preserveAspectRatio="xMidYMid meet" xmlns="http://www.w3.org/2000/svg" xmlns:xlink="http://www.w3.org/1999/xlink">
    <title>trailer-solid</title>
    <path d="M33,9H2v13.1c0,0,0,0,0,0C2,24.3,3.7,26,5.9,26H7v-2H5.9c-1,0-1.8-0.8-1.9-1.9V15h22v7.1c0,1-0.8,1.8-1.9,1.9H23v2h1.1
	c0,0,0,0,0,0c2.1,0,3.8-1.7,3.8-3.9V11h5c0.6,0,1-0.4,1-1S33.6,9,33,9z" class="clr-i-solid clr-i-solid-path-1"></path><path d="M15,19.2c-3.2,0-5.8,2.6-5.8,5.8s2.6,5.8,5.8,5.8s5.8-2.6,5.8-5.8l0,0C20.8,21.8,18.2,19.2,15,19.2z M16,26h-2v-2h2V26z" class="clr-i-solid clr-i-solid-path-2"></path>
    <rect x="0" y="0" width="36" height="36" fill-opacity="0"/>
</svg>