<svg version="1.1" width="36" height="36"  viewBox="0 0 36 36" preserveAspectRatio="xMidYMid meet" xmlns="http://www.w3.org/2000/svg" xmlns:xlink="http://www.w3.org/1999/xlink">
    <title>computer-solid-alerted</title>
    <path d="M23.81,26c-.35.9-.94,1.5-1.61,1.5H13.74c-.68,0-1.26-.6-1.61-1.5H1v1.75A2.45,2.45,0,0,0,3.6,30H32.4A2.45,2.45,0,0,0,35,27.75V26Z" class="clr-i-solid--alerted clr-i-solid-path-1--alerted"></path><rect x="29" y="15.4" width="3" height="8.6" class="clr-i-solid--alerted clr-i-solid-path-2--alerted"></rect><path d="M7,10H19L19,9.89,21.29,6H5.5A1.54,1.54,0,0,0,4,7.57V24H7Z" class="clr-i-solid--alerted clr-i-solid-path-3--alerted"></path><path d="M26.85,1.14,21.13,11A1.28,1.28,0,0,0,22.23,13H33.68A1.28,1.28,0,0,0,34.78,11L29.06,1.14A1.28,1.28,0,0,0,26.85,1.14Z" class="clr-i-solid--alerted clr-i-solid-path-4--alerted clr-i-alert"></path>
    <rect x="0" y="0" width="36" height="36" fill-opacity="0"/>
</svg>