<svg version="1.1" width="36" height="36"  viewBox="0 0 36 36" preserveAspectRatio="xMidYMid meet" xmlns="http://www.w3.org/2000/svg" xmlns:xlink="http://www.w3.org/1999/xlink">
    <title>flask-solid</title>
    <path d="M31.49,27.4,23,14.94V4h1a1,1,0,0,0,0-2H12.08a1,1,0,0,0,0,2H13V14.94L4.58,27.31a4.31,4.31,0,0,0-.78,3A4.23,4.23,0,0,0,8,34H27.86A4.36,4.36,0,0,0,31,32.8,4.23,4.23,0,0,0,31.49,27.4ZM15,15.49V4h6V15.49L26.15,23H9.85Z" class="clr-i-solid clr-i-solid-path-1"></path>
    <rect x="0" y="0" width="36" height="36" fill-opacity="0"/>
</svg>