<svg version="1.1" width="36" height="36"  viewBox="0 0 36 36" preserveAspectRatio="xMidYMid meet" xmlns="http://www.w3.org/2000/svg" xmlns:xlink="http://www.w3.org/1999/xlink">
    <title>host-solid-alerted</title>
    <path class="clr-i-solid--alerted clr-i-solid-path-1--alerted" d="M22.2,15.3c-2,0-3.7-1.6-3.7-3.7H12V10h6.9c0-0.1,0.1-0.2,0.1-0.2l1.2-2.2H12V6h9.2l2.3-4h-14C8.7,2,8,2.7,8,3.5V34h20V15.3H22.2z M18,30.5c-1.5,0-2.8-1.2-2.8-2.8S16.5,25,18,25s2.8,1.2,2.8,2.8S19.5,30.5,18,30.5z M23,22.6H13V21h10V22.6z"></path><circle class="clr-i-solid--alerted clr-i-solid-path-2--alerted" cx="18" cy="27.8" r="1.2"></circle><path class="clr-i-solid--alerted clr-i-solid-path-3--alerted clr-i-alert" d="M26.9,1l-5.7,9.9c-0.3,0.6-0.1,1.4,0.5,1.7c0.2,0.1,0.4,0.2,0.6,0.2h11.4c0.7,0,1.3-0.6,1.3-1.3c0-0.2-0.1-0.4-0.2-0.6L29.1,1c-0.4-0.6-1.1-0.8-1.8-0.5C27.1,0.7,27,0.8,26.9,1z"></path>
    <rect x="0" y="0" width="36" height="36" fill-opacity="0"/>
</svg>