<svg version="1.1" width="36" height="36"  viewBox="0 0 36 36" preserveAspectRatio="xMidYMid meet" xmlns="http://www.w3.org/2000/svg" xmlns:xlink="http://www.w3.org/1999/xlink">
    <title>uninstall-outline-alerted</title>
    <path class="clr-i-outline--alerted clr-i-outline-path-1--alerted" d="M11.29,26.72a1,1,0,0,0,1.41,0L18,21.49l5.3,5.23A1,1,0,0,0,24.7,25.3l-5.28-5.21,4.75-4.69H22.23a3.65,3.65,0,0,1-.81-.1L18,18.68l-5.3-5.23a1,1,0,0,0-1.41,1.42l5.28,5.21L11.3,25.3A1,1,0,0,0,11.29,26.72Z"></path><path class="clr-i-outline--alerted clr-i-outline-path-2--alerted" d="M31,15.4V30H5V10H9.38a1,1,0,0,0,0-2H5.08A2,2,0,0,0,3,10V30a2,2,0,0,0,2.08,2H30.92A2,2,0,0,0,33,30V15.4Z"></path><path class="clr-i-outline--alerted clr-i-outline-path-3--alerted clr-i-alert" d="M26.85,1.14,21.13,11A1.28,1.28,0,0,0,22.23,13H33.68A1.28,1.28,0,0,0,34.78,11L29.06,1.14A1.28,1.28,0,0,0,26.85,1.14Z"></path>
    <rect x="0" y="0" width="36" height="36" fill-opacity="0"/>
</svg>