<svg version="1.1" width="36" height="36"  viewBox="0 0 36 36" preserveAspectRatio="xMidYMid meet" xmlns="http://www.w3.org/2000/svg" xmlns:xlink="http://www.w3.org/1999/xlink">
    <title>euro-line</title>
    <path class="clr-i-outline clr-i-outline-path-1" d="M31.48,28.49a1,1,0,0,0-1.38-.32A12,12,0,0,1,12.45,22H24.16a1,1,0,0,0,0-2H11.93a11.16,11.16,0,0,1,0-4H24.16a1,1,0,0,0,0-2H12.45A12,12,0,0,1,30.06,7.8a1,1,0,0,0,1.06-1.7A14,14,0,0,0,10.34,14H3.54a1,1,0,1,0,0,2H9.91a14,14,0,0,0-.16,2,14,14,0,0,0,.16,2H3.54a1,1,0,1,0,0,2h6.8a14,14,0,0,0,20.83,7.87A1,1,0,0,0,31.48,28.49Z"></path>
    <rect x="0" y="0" width="36" height="36" fill-opacity="0"/>
</svg>