<svg version="1.1" width="36" height="36"  viewBox="0 0 36 36" preserveAspectRatio="xMidYMid meet" xmlns="http://www.w3.org/2000/svg" xmlns:xlink="http://www.w3.org/1999/xlink">
    <title>microphone-solid</title>
    <path d="M18,24c3.9,0,7-3.1,7-7V9c0-3.9-3.1-7-7-7s-7,3.1-7,7v8C11,20.9,14.1,24,18,24z" class="clr-i-solid clr-i-solid-path-1"></path><path d="M30,17h-2c0,5.5-4.5,10-10,10S8,22.5,8,17H6c0,6.3,4.8,11.4,11,11.9V32h-3c-0.6,0-1,0.4-1,1s0.4,1,1,1h8c0.6,0,1-0.4,1-1
		s-0.4-1-1-1h-3v-3.1C25.2,28.4,30,23.3,30,17z" class="clr-i-solid clr-i-solid-path-2"></path>
    <rect x="0" y="0" width="36" height="36" fill-opacity="0"/>
</svg>