<svg version="1.1" width="36" height="36"  viewBox="0 0 36 36" preserveAspectRatio="xMidYMid meet" xmlns="http://www.w3.org/2000/svg" xmlns:xlink="http://www.w3.org/1999/xlink">
    <title>volume-down-line</title>
    <path class="clr-i-outline clr-i-outline-path-1" d="M23.41,25.11a1,1,0,0,1-.54-1.85,6.21,6.21,0,0,0-.19-10.65,1,1,0,1,1,1-1.73A8.21,8.21,0,0,1,23.94,25,1,1,0,0,1,23.41,25.11Z"></path><path class="clr-i-outline clr-i-outline-path-2" d="M18,32a2,2,0,0,1-1.42-.59L9.14,24H4a2,2,0,0,1-2-2V14a2,2,0,0,1,2-2H9.22l7.33-7.41A2,2,0,0,1,20,6V30a2,2,0,0,1-1.24,1.85A2,2,0,0,1,18,32ZM4,14v8H9.56a1,1,0,0,1,.71.28L18,30V6l-7.65,7.68a1,1,0,0,1-.71.3ZM18,6Z"></path>
    <rect x="0" y="0" width="36" height="36" fill-opacity="0"/>
</svg>