<?xml version="1.0" encoding="UTF-8"?>
<svg width="264px" height="281px" viewBox="0 0 264 281" version="1.1" xmlns="http://www.w3.org/2000/svg" xmlns:xlink="http://www.w3.org/1999/xlink">
    <!-- Generator: Sketch 42 (36781) - http://www.bohemiancoding.com/sketch -->
    <title>example_tree_checkbox_interacting</title>
    <desc>Created with Sketch.</desc>
    <defs>
        <rect id="path-1" x="7.46666667" y="7.46666667" width="17.0666667" height="17.0666667" rx="3"></rect>
        <mask id="mask-2" maskContentUnits="userSpaceOnUse" maskUnits="objectBoundingBox" x="0" y="0" width="17.0666667" height="17.0666667" fill="white">
            <use xlink:href="#path-1"></use>
        </mask>
        <rect id="path-3" x="0" y="0" width="17.0666667" height="17.0666667" rx="3"></rect>
        <mask id="mask-4" maskContentUnits="userSpaceOnUse" maskUnits="objectBoundingBox" x="0" y="0" width="17.0666667" height="17.0666667" fill="white">
            <use xlink:href="#path-3"></use>
        </mask>
        <rect id="path-5" x="0" y="0" width="17.0666667" height="17.0666667" rx="3"></rect>
        <mask id="mask-6" maskContentUnits="userSpaceOnUse" maskUnits="objectBoundingBox" x="0" y="0" width="17.0666667" height="17.0666667" fill="white">
            <use xlink:href="#path-5"></use>
        </mask>
        <rect id="path-7" x="0" y="0" width="17.0666667" height="17.0666667" rx="3"></rect>
        <mask id="mask-8" maskContentUnits="userSpaceOnUse" maskUnits="objectBoundingBox" x="0" y="0" width="17.0666667" height="17.0666667" fill="white">
            <use xlink:href="#path-7"></use>
        </mask>
        <rect id="path-9" x="7.46666667" y="7.46666667" width="17.0666667" height="17.0666667" rx="3"></rect>
        <mask id="mask-10" maskContentUnits="userSpaceOnUse" maskUnits="objectBoundingBox" x="0" y="0" width="17.0666667" height="17.0666667" fill="white">
            <use xlink:href="#path-9"></use>
        </mask>
        <rect id="path-11" x="0" y="0" width="17.0666667" height="17.0666667" rx="3"></rect>
        <mask id="mask-12" maskContentUnits="userSpaceOnUse" maskUnits="objectBoundingBox" x="0" y="0" width="17.0666667" height="17.0666667" fill="white">
            <use xlink:href="#path-11"></use>
        </mask>
        <rect id="path-13" x="0" y="0" width="17.0666667" height="17.0666667" rx="3"></rect>
        <mask id="mask-14" maskContentUnits="userSpaceOnUse" maskUnits="objectBoundingBox" x="0" y="0" width="17.0666667" height="17.0666667" fill="white">
            <use xlink:href="#path-13"></use>
        </mask>
        <rect id="path-15" x="0" y="0" width="17.0666667" height="17.0666667" rx="3"></rect>
        <mask id="mask-16" maskContentUnits="userSpaceOnUse" maskUnits="objectBoundingBox" x="0" y="0" width="17.0666667" height="17.0666667" fill="white">
            <use xlink:href="#path-15"></use>
        </mask>
        <rect id="path-17" x="0" y="0" width="17.0666667" height="17.0666667" rx="3"></rect>
        <mask id="mask-18" maskContentUnits="userSpaceOnUse" maskUnits="objectBoundingBox" x="0" y="0" width="17.0666667" height="17.0666667" fill="white">
            <use xlink:href="#path-17"></use>
        </mask>
    </defs>
    <g id="Page-1-New-Layout" stroke="none" stroke-width="1" fill="none" fill-rule="evenodd">
        <g id="Outlined-Text" transform="translate(-729.000000, -3330.000000)">
            <g id="example_tree_checkbox_interacting" transform="translate(720.000000, 3323.000000)">
                <g id="line-5" transform="translate(79.000000, 128.000000)">
                    <path d="M40.008,11.418 L40.008,10.382 L33.106,10.382 L33.106,20 L40.008,20 L40.008,18.964 L34.212,18.964 L34.212,15.618 L39.434,15.618 L39.434,14.582 L34.212,14.582 L34.212,11.418 L40.008,11.418 Z M47.498,10.214 L48.548,10.214 L48.548,20 L47.498,20 L47.498,18.642 C46.952,19.594 46.028,20.168 44.866,20.168 C42.962,20.168 41.534,18.6 41.534,16.374 C41.534,14.162 42.962,12.594 44.866,12.594 C46.028,12.594 46.952,13.168 47.498,14.12 L47.498,10.214 Z M45.062,19.23 C46.49,19.23 47.498,18.04 47.498,16.374 C47.498,14.708 46.49,13.532 45.062,13.532 C43.648,13.532 42.64,14.708 42.64,16.374 C42.64,18.04 43.648,19.23 45.062,19.23 Z M51.292,11.446 C51.67,11.446 51.978,11.124 51.978,10.746 C51.978,10.382 51.67,10.06 51.292,10.06 C50.9,10.06 50.592,10.382 50.592,10.746 C50.592,11.124 50.9,11.446 51.292,11.446 Z M50.76,20 L51.81,20 L51.81,12.762 L50.76,12.762 L50.76,20 Z M57.102,18.936 C56.948,19.104 56.668,19.23 56.346,19.23 C55.926,19.23 55.562,18.852 55.562,18.32 L55.562,13.7 L57.34,13.7 L57.34,12.762 L55.562,12.762 L55.562,10.774 L54.512,10.774 L54.512,12.762 L53.378,12.762 L53.378,13.7 L54.512,13.7 L54.512,18.32 C54.512,19.398 55.24,20.168 56.276,20.168 C56.766,20.168 57.242,20 57.62,19.706 L57.102,18.936 Z M66.538,20.154 C68.778,20.154 69.926,18.908 69.926,17.382 C69.926,15.688 68.61,15.03 66.776,14.596 C65.138,14.204 64.186,13.854 64.186,12.86 C64.186,11.978 65.054,11.194 66.244,11.194 C67.252,11.194 68.204,11.656 69.002,12.426 L69.674,11.572 C68.792,10.76 67.728,10.2 66.3,10.2 C64.452,10.2 63.08,11.404 63.08,12.944 C63.08,14.61 64.298,15.212 66.23,15.66 C67.91,16.052 68.82,16.458 68.82,17.48 C68.82,18.348 68.064,19.16 66.58,19.16 C65.236,19.16 64.242,18.586 63.43,17.774 L62.744,18.628 C63.71,19.58 64.956,20.154 66.538,20.154 Z M75.008,19.23 C75.862,19.23 76.842,18.852 77.29,18.362 L77.934,19.048 C77.304,19.734 76.03,20.168 75.022,20.168 C73.09,20.168 71.354,18.586 71.354,16.36 C71.354,14.204 72.978,12.594 74.924,12.594 C77.108,12.594 78.354,14.246 78.354,16.78 L72.432,16.78 C72.586,18.194 73.58,19.23 75.008,19.23 Z M74.966,13.532 C73.678,13.532 72.642,14.442 72.446,15.842 L77.318,15.842 C77.178,14.54 76.408,13.532 74.966,13.532 Z M83.254,18.936 C83.1,19.104 82.82,19.23 82.498,19.23 C82.078,19.23 81.714,18.852 81.714,18.32 L81.714,13.7 L83.492,13.7 L83.492,12.762 L81.714,12.762 L81.714,10.774 L80.664,10.774 L80.664,12.762 L79.53,12.762 L79.53,13.7 L80.664,13.7 L80.664,18.32 C80.664,19.398 81.392,20.168 82.428,20.168 C82.918,20.168 83.394,20 83.772,19.706 L83.254,18.936 Z M88.434,18.936 C88.28,19.104 88,19.23 87.678,19.23 C87.258,19.23 86.894,18.852 86.894,18.32 L86.894,13.7 L88.672,13.7 L88.672,12.762 L86.894,12.762 L86.894,10.774 L85.844,10.774 L85.844,12.762 L84.71,12.762 L84.71,13.7 L85.844,13.7 L85.844,18.32 C85.844,19.398 86.572,20.168 87.608,20.168 C88.098,20.168 88.574,20 88.952,19.706 L88.434,18.936 Z M90.954,11.446 C91.332,11.446 91.64,11.124 91.64,10.746 C91.64,10.382 91.332,10.06 90.954,10.06 C90.562,10.06 90.254,10.382 90.254,10.746 C90.254,11.124 90.562,11.446 90.954,11.446 Z M90.422,20 L91.472,20 L91.472,12.762 L90.422,12.762 L90.422,20 Z M97.03,12.594 C96.008,12.594 95.07,13.154 94.65,13.924 L94.65,12.762 L93.6,12.762 L93.6,20 L94.65,20 L94.65,15.394 C94.65,14.386 95.672,13.532 96.89,13.532 C97.954,13.532 98.696,14.358 98.696,15.534 L98.696,20 L99.746,20 L99.746,15.394 C99.746,13.756 98.626,12.594 97.03,12.594 Z M107.502,12.762 L108.552,12.762 L108.552,19.23 C108.552,21.092 107.082,22.408 104.996,22.408 C103.82,22.408 102.728,22.002 102.07,21.442 L102.532,20.616 C103.092,21.148 103.96,21.47 104.856,21.47 C106.522,21.47 107.502,20.644 107.502,19.23 L107.502,18.054 C106.942,18.936 106.018,19.468 104.87,19.468 C102.924,19.468 101.538,18.04 101.538,16.024 C101.538,14.008 102.924,12.594 104.87,12.594 C106.018,12.594 106.942,13.126 107.502,14.008 L107.502,12.762 Z M105.066,18.53 C106.494,18.53 107.502,17.494 107.502,16.024 C107.502,14.568 106.494,13.532 105.066,13.532 C103.652,13.532 102.644,14.568 102.644,16.024 C102.644,17.494 103.652,18.53 105.066,18.53 Z M113.34,20.168 C114.838,20.168 115.986,19.314 115.986,17.984 C115.986,16.612 114.782,16.22 113.62,15.856 C112.276,15.422 111.744,15.226 111.744,14.596 C111.744,13.896 112.416,13.532 113.228,13.532 C113.872,13.532 114.586,13.756 115.314,14.218 L115.818,13.406 C115.048,12.902 114.124,12.594 113.228,12.594 C111.786,12.594 110.694,13.406 110.694,14.722 C110.694,15.758 111.366,16.276 113.116,16.78 C114.096,17.06 114.936,17.312 114.936,18.096 C114.936,18.782 114.292,19.23 113.34,19.23 C112.542,19.23 111.716,18.922 110.89,18.32 L110.344,19.09 C111.212,19.79 112.332,20.168 113.34,20.168 Z" id="Edit-Settings" fill="#565656"></path>
                    <g id="checkbox-none-32" stroke-linecap="square" stroke="#9A9A9A" stroke-width="2">
                        <use id="Rectangle-4" mask="url(#mask-2)" xlink:href="#path-1"></use>
                    </g>
                </g>
                <g id="Group" transform="translate(55.000000, 256.000000)">
                    <path d="M28,2.99610022 C28,1.34139976 29.3407232,0 31.0035987,0 L218,0 L218,32 L31.0035987,32 C29.3447569,32 28,30.6657405 28,29.0038998 L28,2.99610022 Z" id="select-copy" fill="#D9E4EA"></path>
                    <path d="M40.932,10.382 L37.292,18.656 L33.638,10.382 L32.448,10.382 L36.69,20 L37.88,20 L42.122,10.382 L40.932,10.382 Z M44.152,11.446 C44.53,11.446 44.838,11.124 44.838,10.746 C44.838,10.382 44.53,10.06 44.152,10.06 C43.76,10.06 43.452,10.382 43.452,10.746 C43.452,11.124 43.76,11.446 44.152,11.446 Z M43.62,20 L44.67,20 L44.67,12.762 L43.62,12.762 L43.62,20 Z M50.046,19.23 C50.9,19.23 51.88,18.852 52.328,18.362 L52.972,19.048 C52.342,19.734 51.068,20.168 50.06,20.168 C48.128,20.168 46.392,18.586 46.392,16.36 C46.392,14.204 48.016,12.594 49.962,12.594 C52.146,12.594 53.392,14.246 53.392,16.78 L47.47,16.78 C47.624,18.194 48.618,19.23 50.046,19.23 Z M50.004,13.532 C48.716,13.532 47.68,14.442 47.484,15.842 L52.356,15.842 C52.216,14.54 51.446,13.532 50.004,13.532 Z M56.962,20 L57.956,20 L59.902,14.218 L61.82,20 L62.814,20 L65.25,12.762 L64.13,12.762 L62.324,18.6 L60.35,12.762 L59.44,12.762 L57.466,18.6 L55.66,12.762 L54.54,12.762 L56.962,20 Z M70.878,20 L70.878,10.382 L74.784,10.382 C76.772,10.382 78.326,11.656 78.326,13.462 C78.326,15.268 76.772,16.542 74.784,16.542 L71.97,16.542 L71.97,20 L70.878,20 Z M71.97,15.506 L74.588,15.506 C76.156,15.506 77.22,14.75 77.22,13.462 C77.22,12.174 76.156,11.418 74.588,11.418 L71.97,11.418 L71.97,15.506 Z M81,14.176 L81,12.762 L79.95,12.762 L79.95,20 L81,20 L81,15.954 C81,14.54 82.162,13.532 83.8,13.532 L83.8,12.594 C82.47,12.594 81.434,13.21 81,14.176 Z M85.774,11.446 C86.152,11.446 86.46,11.124 86.46,10.746 C86.46,10.382 86.152,10.06 85.774,10.06 C85.382,10.06 85.074,10.382 85.074,10.746 C85.074,11.124 85.382,11.446 85.774,11.446 Z M85.242,20 L86.292,20 L86.292,12.762 L85.242,12.762 L85.242,20 Z M90.8,20 L91.808,20 L94.846,12.762 L93.67,12.762 L91.304,18.768 L88.896,12.762 L87.72,12.762 L90.8,20 Z M96.806,11.446 C97.184,11.446 97.492,11.124 97.492,10.746 C97.492,10.382 97.184,10.06 96.806,10.06 C96.414,10.06 96.106,10.382 96.106,10.746 C96.106,11.124 96.414,11.446 96.806,11.446 Z M96.274,20 L97.324,20 L97.324,12.762 L96.274,12.762 L96.274,20 Z M99.438,20 L100.488,20 L100.488,10.214 L99.438,10.214 L99.438,20 Z M105.878,19.23 C106.732,19.23 107.712,18.852 108.16,18.362 L108.804,19.048 C108.174,19.734 106.9,20.168 105.892,20.168 C103.96,20.168 102.224,18.586 102.224,16.36 C102.224,14.204 103.848,12.594 105.794,12.594 C107.978,12.594 109.224,14.246 109.224,16.78 L103.302,16.78 C103.456,18.194 104.45,19.23 105.878,19.23 Z M105.836,13.532 C104.548,13.532 103.512,14.442 103.316,15.842 L108.188,15.842 C108.048,14.54 107.278,13.532 105.836,13.532 Z M116.574,12.762 L117.624,12.762 L117.624,19.23 C117.624,21.092 116.154,22.408 114.068,22.408 C112.892,22.408 111.8,22.002 111.142,21.442 L111.604,20.616 C112.164,21.148 113.032,21.47 113.928,21.47 C115.594,21.47 116.574,20.644 116.574,19.23 L116.574,18.054 C116.014,18.936 115.09,19.468 113.942,19.468 C111.996,19.468 110.61,18.04 110.61,16.024 C110.61,14.008 111.996,12.594 113.942,12.594 C115.09,12.594 116.014,13.126 116.574,14.008 L116.574,12.762 Z M114.138,18.53 C115.566,18.53 116.574,17.494 116.574,16.024 C116.574,14.568 115.566,13.532 114.138,13.532 C112.724,13.532 111.716,14.568 111.716,16.024 C111.716,17.494 112.724,18.53 114.138,18.53 Z M123.112,19.23 C123.966,19.23 124.946,18.852 125.394,18.362 L126.038,19.048 C125.408,19.734 124.134,20.168 123.126,20.168 C121.194,20.168 119.458,18.586 119.458,16.36 C119.458,14.204 121.082,12.594 123.028,12.594 C125.212,12.594 126.458,14.246 126.458,16.78 L120.536,16.78 C120.69,18.194 121.684,19.23 123.112,19.23 Z M123.07,13.532 C121.782,13.532 120.746,14.442 120.55,15.842 L125.422,15.842 C125.282,14.54 124.512,13.532 123.07,13.532 Z M130.742,20.168 C132.24,20.168 133.388,19.314 133.388,17.984 C133.388,16.612 132.184,16.22 131.022,15.856 C129.678,15.422 129.146,15.226 129.146,14.596 C129.146,13.896 129.818,13.532 130.63,13.532 C131.274,13.532 131.988,13.756 132.716,14.218 L133.22,13.406 C132.45,12.902 131.526,12.594 130.63,12.594 C129.188,12.594 128.096,13.406 128.096,14.722 C128.096,15.758 128.768,16.276 130.518,16.78 C131.498,17.06 132.338,17.312 132.338,18.096 C132.338,18.782 131.694,19.23 130.742,19.23 C129.944,19.23 129.118,18.922 128.292,18.32 L127.746,19.09 C128.614,19.79 129.734,20.168 130.742,20.168 Z" id="View-Privileges" fill="#565656"></path>
                    <g id="checked-32">
                        <g id="Group-2" transform="translate(7.466667, 7.466667)">
                            <g id="Group-3" stroke-width="2">
                                <use id="Rectangle-4-Copy" stroke="#0093D5" mask="url(#mask-4)" stroke-linecap="square" fill="#0093D5" xlink:href="#path-3"></use>
                                <polyline id="Line" stroke="#FFFFFF" stroke-linecap="round" points="4.81614583 8.24961313 8.24223944 11.2508953 13.3494792 5.7375"></polyline>
                            </g>
                        </g>
                    </g>
                </g>
                <g id="Group-2" transform="translate(79.000000, 160.000000)">
                    <path d="M40.932,20 L39.966,17.816 L34.604,17.816 L33.638,20 L32.448,20 L36.69,10.382 L37.88,10.382 L42.122,20 L40.932,20 Z M35.052,16.78 L39.518,16.78 L37.292,11.726 L35.052,16.78 Z M49.29,10.214 L50.34,10.214 L50.34,20 L49.29,20 L49.29,18.642 C48.744,19.594 47.82,20.168 46.658,20.168 C44.754,20.168 43.326,18.6 43.326,16.374 C43.326,14.162 44.754,12.594 46.658,12.594 C47.82,12.594 48.744,13.168 49.29,14.12 L49.29,10.214 Z M46.854,19.23 C48.282,19.23 49.29,18.04 49.29,16.374 C49.29,14.708 48.282,13.532 46.854,13.532 C45.44,13.532 44.432,14.708 44.432,16.374 C44.432,18.04 45.44,19.23 46.854,19.23 Z M58.222,10.214 L59.272,10.214 L59.272,20 L58.222,20 L58.222,18.642 C57.676,19.594 56.752,20.168 55.59,20.168 C53.686,20.168 52.258,18.6 52.258,16.374 C52.258,14.162 53.686,12.594 55.59,12.594 C56.752,12.594 57.676,13.168 58.222,14.12 L58.222,10.214 Z M55.786,19.23 C57.214,19.23 58.222,18.04 58.222,16.374 C58.222,14.708 57.214,13.532 55.786,13.532 C54.372,13.532 53.364,14.708 53.364,16.374 C53.364,18.04 54.372,19.23 55.786,19.23 Z M70.15,20.168 C71.48,20.168 72.712,19.594 73.608,18.698 L72.866,17.942 C72.166,18.684 71.2,19.16 70.15,19.16 C68.078,19.16 66.328,17.34 66.328,15.184 C66.328,13.042 68.078,11.222 70.15,11.222 C71.2,11.222 72.166,11.698 72.866,12.44 L73.608,11.684 C72.712,10.774 71.48,10.214 70.15,10.214 C67.49,10.214 65.222,12.482 65.222,15.184 C65.222,17.886 67.49,20.168 70.15,20.168 Z M78.438,20.168 C76.408,20.168 74.686,18.432 74.686,16.374 C74.686,14.316 76.408,12.594 78.438,12.594 C80.468,12.594 82.176,14.316 82.176,16.374 C82.176,18.432 80.468,20.168 78.438,20.168 Z M78.438,19.23 C79.866,19.23 81.07,17.928 81.07,16.374 C81.07,14.834 79.866,13.532 78.438,13.532 C76.996,13.532 75.792,14.834 75.792,16.374 C75.792,17.928 76.996,19.23 78.438,19.23 Z M91.738,12.594 C90.646,12.594 89.694,13.196 89.4,14.134 C89.008,13.196 88.154,12.594 87.062,12.594 C86.11,12.594 85.326,13.07 84.962,13.826 L84.962,12.762 L83.912,12.762 L83.912,20 L84.962,20 L84.962,15.394 C84.962,14.302 85.774,13.532 86.922,13.532 C87.902,13.532 88.588,14.358 88.588,15.534 L88.588,20 L89.638,20 L89.638,15.394 C89.638,14.302 90.45,13.532 91.598,13.532 C92.578,13.532 93.264,14.358 93.264,15.534 L93.264,20 L94.314,20 L94.314,15.394 C94.314,13.756 93.25,12.594 91.738,12.594 Z M104.268,12.594 C103.176,12.594 102.224,13.196 101.93,14.134 C101.538,13.196 100.684,12.594 99.592,12.594 C98.64,12.594 97.856,13.07 97.492,13.826 L97.492,12.762 L96.442,12.762 L96.442,20 L97.492,20 L97.492,15.394 C97.492,14.302 98.304,13.532 99.452,13.532 C100.432,13.532 101.118,14.358 101.118,15.534 L101.118,20 L102.168,20 L102.168,15.394 C102.168,14.302 102.98,13.532 104.128,13.532 C105.108,13.532 105.794,14.358 105.794,15.534 L105.794,20 L106.844,20 L106.844,15.394 C106.844,13.756 105.78,12.594 104.268,12.594 Z M112.234,19.23 C113.088,19.23 114.068,18.852 114.516,18.362 L115.16,19.048 C114.53,19.734 113.256,20.168 112.248,20.168 C110.316,20.168 108.58,18.586 108.58,16.36 C108.58,14.204 110.204,12.594 112.15,12.594 C114.334,12.594 115.58,14.246 115.58,16.78 L109.658,16.78 C109.812,18.194 110.806,19.23 112.234,19.23 Z M112.192,13.532 C110.904,13.532 109.868,14.442 109.672,15.842 L114.544,15.842 C114.404,14.54 113.634,13.532 112.192,13.532 Z M120.746,12.594 C119.724,12.594 118.786,13.154 118.366,13.924 L118.366,12.762 L117.316,12.762 L117.316,20 L118.366,20 L118.366,15.394 C118.366,14.386 119.388,13.532 120.606,13.532 C121.67,13.532 122.412,14.358 122.412,15.534 L122.412,20 L123.462,20 L123.462,15.394 C123.462,13.756 122.342,12.594 120.746,12.594 Z M128.768,18.936 C128.614,19.104 128.334,19.23 128.012,19.23 C127.592,19.23 127.228,18.852 127.228,18.32 L127.228,13.7 L129.006,13.7 L129.006,12.762 L127.228,12.762 L127.228,10.774 L126.178,10.774 L126.178,12.762 L125.044,12.762 L125.044,13.7 L126.178,13.7 L126.178,18.32 C126.178,19.398 126.906,20.168 127.942,20.168 C128.432,20.168 128.908,20 129.286,19.706 L128.768,18.936 Z M133.332,20.168 C134.83,20.168 135.978,19.314 135.978,17.984 C135.978,16.612 134.774,16.22 133.612,15.856 C132.268,15.422 131.736,15.226 131.736,14.596 C131.736,13.896 132.408,13.532 133.22,13.532 C133.864,13.532 134.578,13.756 135.306,14.218 L135.81,13.406 C135.04,12.902 134.116,12.594 133.22,12.594 C131.778,12.594 130.686,13.406 130.686,14.722 C130.686,15.758 131.358,16.276 133.108,16.78 C134.088,17.06 134.928,17.312 134.928,18.096 C134.928,18.782 134.284,19.23 133.332,19.23 C132.534,19.23 131.708,18.922 130.882,18.32 L130.336,19.09 C131.204,19.79 132.324,20.168 133.332,20.168 Z" id="Add-Comments" fill="#565656"></path>
                    <g id="checked-32">
                        <g id="Group-2" transform="translate(7.466667, 7.466667)">
                            <g id="Group-3" stroke-width="2">
                                <use id="Rectangle-4-Copy" stroke="#0093D5" mask="url(#mask-6)" stroke-linecap="square" fill="#0093D5" xlink:href="#path-5"></use>
                                <polyline id="Line" stroke="#FFFFFF" stroke-linecap="round" points="4.81614583 8.24961313 8.24223944 11.2508953 13.3494792 5.7375"></polyline>
                            </g>
                        </g>
                    </g>
                </g>
                <g id="line2" transform="translate(23.000000, 32.000000)">
                    <path d="M68.438,20.154 C70.678,20.154 71.826,18.908 71.826,17.382 C71.826,15.688 70.51,15.03 68.676,14.596 C67.038,14.204 66.086,13.854 66.086,12.86 C66.086,11.978 66.954,11.194 68.144,11.194 C69.152,11.194 70.104,11.656 70.902,12.426 L71.574,11.572 C70.692,10.76 69.628,10.2 68.2,10.2 C66.352,10.2 64.98,11.404 64.98,12.944 C64.98,14.61 66.198,15.212 68.13,15.66 C69.81,16.052 70.72,16.458 70.72,17.48 C70.72,18.348 69.964,19.16 68.48,19.16 C67.136,19.16 66.142,18.586 65.33,17.774 L64.644,18.628 C65.61,19.58 66.856,20.154 68.438,20.154 Z M74.724,22.52 C75.718,22.506 76.418,22.044 76.922,20.812 L80.226,12.762 L79.092,12.762 L76.698,18.782 L74.164,12.762 L73.002,12.762 L76.152,20.028 L75.732,20.924 C75.452,21.414 75.144,21.568 74.682,21.568 C74.374,21.568 74.08,21.512 73.828,21.386 L73.576,22.282 C73.912,22.436 74.304,22.52 74.724,22.52 Z M84.51,20.168 C86.008,20.168 87.156,19.314 87.156,17.984 C87.156,16.612 85.952,16.22 84.79,15.856 C83.446,15.422 82.914,15.226 82.914,14.596 C82.914,13.896 83.586,13.532 84.398,13.532 C85.042,13.532 85.756,13.756 86.484,14.218 L86.988,13.406 C86.218,12.902 85.294,12.594 84.398,12.594 C82.956,12.594 81.864,13.406 81.864,14.722 C81.864,15.758 82.536,16.276 84.286,16.78 C85.266,17.06 86.106,17.312 86.106,18.096 C86.106,18.782 85.462,19.23 84.51,19.23 C83.712,19.23 82.886,18.922 82.06,18.32 L81.514,19.09 C82.382,19.79 83.502,20.168 84.51,20.168 Z M92.07,18.936 C91.916,19.104 91.636,19.23 91.314,19.23 C90.894,19.23 90.53,18.852 90.53,18.32 L90.53,13.7 L92.308,13.7 L92.308,12.762 L90.53,12.762 L90.53,10.774 L89.48,10.774 L89.48,12.762 L88.346,12.762 L88.346,13.7 L89.48,13.7 L89.48,18.32 C89.48,19.398 90.208,20.168 91.244,20.168 C91.734,20.168 92.21,20 92.588,19.706 L92.07,18.936 Z M97.334,19.23 C98.188,19.23 99.168,18.852 99.616,18.362 L100.26,19.048 C99.63,19.734 98.356,20.168 97.348,20.168 C95.416,20.168 93.68,18.586 93.68,16.36 C93.68,14.204 95.304,12.594 97.25,12.594 C99.434,12.594 100.68,14.246 100.68,16.78 L94.758,16.78 C94.912,18.194 95.906,19.23 97.334,19.23 Z M97.292,13.532 C96.004,13.532 94.968,14.442 94.772,15.842 L99.644,15.842 C99.504,14.54 98.734,13.532 97.292,13.532 Z M110.228,12.594 C109.136,12.594 108.184,13.196 107.89,14.134 C107.498,13.196 106.644,12.594 105.552,12.594 C104.6,12.594 103.816,13.07 103.452,13.826 L103.452,12.762 L102.402,12.762 L102.402,20 L103.452,20 L103.452,15.394 C103.452,14.302 104.264,13.532 105.412,13.532 C106.392,13.532 107.078,14.358 107.078,15.534 L107.078,20 L108.128,20 L108.128,15.394 C108.128,14.302 108.94,13.532 110.088,13.532 C111.068,13.532 111.754,14.358 111.754,15.534 L111.754,20 L112.804,20 L112.804,15.394 C112.804,13.756 111.74,12.594 110.228,12.594 Z M119.034,20 L119.034,10.382 L122.94,10.382 C124.928,10.382 126.482,11.656 126.482,13.462 C126.482,15.268 124.928,16.542 122.94,16.542 L120.126,16.542 L120.126,20 L119.034,20 Z M120.126,15.506 L122.744,15.506 C124.312,15.506 125.376,14.75 125.376,13.462 C125.376,12.174 124.312,11.418 122.744,11.418 L120.126,11.418 L120.126,15.506 Z M129.156,14.176 L129.156,12.762 L128.106,12.762 L128.106,20 L129.156,20 L129.156,15.954 C129.156,14.54 130.318,13.532 131.956,13.532 L131.956,12.594 C130.626,12.594 129.59,13.21 129.156,14.176 Z M133.93,11.446 C134.308,11.446 134.616,11.124 134.616,10.746 C134.616,10.382 134.308,10.06 133.93,10.06 C133.538,10.06 133.23,10.382 133.23,10.746 C133.23,11.124 133.538,11.446 133.93,11.446 Z M133.398,20 L134.448,20 L134.448,12.762 L133.398,12.762 L133.398,20 Z M138.956,20 L139.964,20 L143.002,12.762 L141.826,12.762 L139.46,18.768 L137.052,12.762 L135.876,12.762 L138.956,20 Z M144.962,11.446 C145.34,11.446 145.648,11.124 145.648,10.746 C145.648,10.382 145.34,10.06 144.962,10.06 C144.57,10.06 144.262,10.382 144.262,10.746 C144.262,11.124 144.57,11.446 144.962,11.446 Z M144.43,20 L145.48,20 L145.48,12.762 L144.43,12.762 L144.43,20 Z M147.594,20 L148.644,20 L148.644,10.214 L147.594,10.214 L147.594,20 Z M154.034,19.23 C154.888,19.23 155.868,18.852 156.316,18.362 L156.96,19.048 C156.33,19.734 155.056,20.168 154.048,20.168 C152.116,20.168 150.38,18.586 150.38,16.36 C150.38,14.204 152.004,12.594 153.95,12.594 C156.134,12.594 157.38,14.246 157.38,16.78 L151.458,16.78 C151.612,18.194 152.606,19.23 154.034,19.23 Z M153.992,13.532 C152.704,13.532 151.668,14.442 151.472,15.842 L156.344,15.842 C156.204,14.54 155.434,13.532 153.992,13.532 Z M164.73,12.762 L165.78,12.762 L165.78,19.23 C165.78,21.092 164.31,22.408 162.224,22.408 C161.048,22.408 159.956,22.002 159.298,21.442 L159.76,20.616 C160.32,21.148 161.188,21.47 162.084,21.47 C163.75,21.47 164.73,20.644 164.73,19.23 L164.73,18.054 C164.17,18.936 163.246,19.468 162.098,19.468 C160.152,19.468 158.766,18.04 158.766,16.024 C158.766,14.008 160.152,12.594 162.098,12.594 C163.246,12.594 164.17,13.126 164.73,14.008 L164.73,12.762 Z M162.294,18.53 C163.722,18.53 164.73,17.494 164.73,16.024 C164.73,14.568 163.722,13.532 162.294,13.532 C160.88,13.532 159.872,14.568 159.872,16.024 C159.872,17.494 160.88,18.53 162.294,18.53 Z M171.268,19.23 C172.122,19.23 173.102,18.852 173.55,18.362 L174.194,19.048 C173.564,19.734 172.29,20.168 171.282,20.168 C169.35,20.168 167.614,18.586 167.614,16.36 C167.614,14.204 169.238,12.594 171.184,12.594 C173.368,12.594 174.614,14.246 174.614,16.78 L168.692,16.78 C168.846,18.194 169.84,19.23 171.268,19.23 Z M171.226,13.532 C169.938,13.532 168.902,14.442 168.706,15.842 L173.578,15.842 C173.438,14.54 172.668,13.532 171.226,13.532 Z M178.898,20.168 C180.396,20.168 181.544,19.314 181.544,17.984 C181.544,16.612 180.34,16.22 179.178,15.856 C177.834,15.422 177.302,15.226 177.302,14.596 C177.302,13.896 177.974,13.532 178.786,13.532 C179.43,13.532 180.144,13.756 180.872,14.218 L181.376,13.406 C180.606,12.902 179.682,12.594 178.786,12.594 C177.344,12.594 176.252,13.406 176.252,14.722 C176.252,15.758 176.924,16.276 178.674,16.78 C179.654,17.06 180.494,17.312 180.494,18.096 C180.494,18.782 179.85,19.23 178.898,19.23 C178.1,19.23 177.274,18.922 176.448,18.32 L175.902,19.09 C176.77,19.79 177.89,20.168 178.898,20.168 Z" id="System-Privileges" fill="#565656"></path>
                    <g id="checkbox-Indeterminate-32" transform="translate(32.000000, 0.000000)">
                        <g id="Group-2" transform="translate(7.466667, 7.466667)">
                            <use id="Rectangle-4-Copy" stroke="#0079B8" mask="url(#mask-8)" stroke-width="2" stroke-linecap="square" xlink:href="#path-7"></use>
                            <rect id="Rectangle-3" fill="#0079B8" x="4.26666667" y="7.46666667" width="8.53333333" height="2.13333333"></rect>
                        </g>
                    </g>
                    <g id="caret-close-32" stroke="#9A9A9A" stroke-linecap="round" stroke-linejoin="round">
                        <g id="caret-open-copy" transform="translate(16.000000, 16.533333) rotate(-90.000000) translate(-16.000000, -16.533333) translate(10.666667, 13.866667)">
                            <polyline id="Rectangle-11" stroke-width="1.5" points="10.6666667 -1.4235505e-14 5.26827145 5.33333333 2.22044605e-15 0.128555501"></polyline>
                        </g>
                    </g>
                </g>
                <g id="line2-copy-4" transform="translate(55.000000, 224.000000)">
                    <path d="M40.008,11.418 L40.008,10.382 L33.106,10.382 L33.106,20 L40.008,20 L40.008,18.964 L34.212,18.964 L34.212,15.618 L39.434,15.618 L39.434,14.582 L34.212,14.582 L34.212,11.418 L40.008,11.418 Z M47.498,10.214 L48.548,10.214 L48.548,20 L47.498,20 L47.498,18.642 C46.952,19.594 46.028,20.168 44.866,20.168 C42.962,20.168 41.534,18.6 41.534,16.374 C41.534,14.162 42.962,12.594 44.866,12.594 C46.028,12.594 46.952,13.168 47.498,14.12 L47.498,10.214 Z M45.062,19.23 C46.49,19.23 47.498,18.04 47.498,16.374 C47.498,14.708 46.49,13.532 45.062,13.532 C43.648,13.532 42.64,14.708 42.64,16.374 C42.64,18.04 43.648,19.23 45.062,19.23 Z M51.292,11.446 C51.67,11.446 51.978,11.124 51.978,10.746 C51.978,10.382 51.67,10.06 51.292,10.06 C50.9,10.06 50.592,10.382 50.592,10.746 C50.592,11.124 50.9,11.446 51.292,11.446 Z M50.76,20 L51.81,20 L51.81,12.762 L50.76,12.762 L50.76,20 Z M57.102,18.936 C56.948,19.104 56.668,19.23 56.346,19.23 C55.926,19.23 55.562,18.852 55.562,18.32 L55.562,13.7 L57.34,13.7 L57.34,12.762 L55.562,12.762 L55.562,10.774 L54.512,10.774 L54.512,12.762 L53.378,12.762 L53.378,13.7 L54.512,13.7 L54.512,18.32 C54.512,19.398 55.24,20.168 56.276,20.168 C56.766,20.168 57.242,20 57.62,19.706 L57.102,18.936 Z M63.206,20 L63.206,10.382 L67.112,10.382 C69.1,10.382 70.654,11.656 70.654,13.462 C70.654,15.268 69.1,16.542 67.112,16.542 L64.298,16.542 L64.298,20 L63.206,20 Z M64.298,15.506 L66.916,15.506 C68.484,15.506 69.548,14.75 69.548,13.462 C69.548,12.174 68.484,11.418 66.916,11.418 L64.298,11.418 L64.298,15.506 Z M73.328,14.176 L73.328,12.762 L72.278,12.762 L72.278,20 L73.328,20 L73.328,15.954 C73.328,14.54 74.49,13.532 76.128,13.532 L76.128,12.594 C74.798,12.594 73.762,13.21 73.328,14.176 Z M78.102,11.446 C78.48,11.446 78.788,11.124 78.788,10.746 C78.788,10.382 78.48,10.06 78.102,10.06 C77.71,10.06 77.402,10.382 77.402,10.746 C77.402,11.124 77.71,11.446 78.102,11.446 Z M77.57,20 L78.62,20 L78.62,12.762 L77.57,12.762 L77.57,20 Z M83.128,20 L84.136,20 L87.174,12.762 L85.998,12.762 L83.632,18.768 L81.224,12.762 L80.048,12.762 L83.128,20 Z M89.134,11.446 C89.512,11.446 89.82,11.124 89.82,10.746 C89.82,10.382 89.512,10.06 89.134,10.06 C88.742,10.06 88.434,10.382 88.434,10.746 C88.434,11.124 88.742,11.446 89.134,11.446 Z M88.602,20 L89.652,20 L89.652,12.762 L88.602,12.762 L88.602,20 Z M91.766,20 L92.816,20 L92.816,10.214 L91.766,10.214 L91.766,20 Z M98.206,19.23 C99.06,19.23 100.04,18.852 100.488,18.362 L101.132,19.048 C100.502,19.734 99.228,20.168 98.22,20.168 C96.288,20.168 94.552,18.586 94.552,16.36 C94.552,14.204 96.176,12.594 98.122,12.594 C100.306,12.594 101.552,14.246 101.552,16.78 L95.63,16.78 C95.784,18.194 96.778,19.23 98.206,19.23 Z M98.164,13.532 C96.876,13.532 95.84,14.442 95.644,15.842 L100.516,15.842 C100.376,14.54 99.606,13.532 98.164,13.532 Z M108.902,12.762 L109.952,12.762 L109.952,19.23 C109.952,21.092 108.482,22.408 106.396,22.408 C105.22,22.408 104.128,22.002 103.47,21.442 L103.932,20.616 C104.492,21.148 105.36,21.47 106.256,21.47 C107.922,21.47 108.902,20.644 108.902,19.23 L108.902,18.054 C108.342,18.936 107.418,19.468 106.27,19.468 C104.324,19.468 102.938,18.04 102.938,16.024 C102.938,14.008 104.324,12.594 106.27,12.594 C107.418,12.594 108.342,13.126 108.902,14.008 L108.902,12.762 Z M106.466,18.53 C107.894,18.53 108.902,17.494 108.902,16.024 C108.902,14.568 107.894,13.532 106.466,13.532 C105.052,13.532 104.044,14.568 104.044,16.024 C104.044,17.494 105.052,18.53 106.466,18.53 Z M115.44,19.23 C116.294,19.23 117.274,18.852 117.722,18.362 L118.366,19.048 C117.736,19.734 116.462,20.168 115.454,20.168 C113.522,20.168 111.786,18.586 111.786,16.36 C111.786,14.204 113.41,12.594 115.356,12.594 C117.54,12.594 118.786,14.246 118.786,16.78 L112.864,16.78 C113.018,18.194 114.012,19.23 115.44,19.23 Z M115.398,13.532 C114.11,13.532 113.074,14.442 112.878,15.842 L117.75,15.842 C117.61,14.54 116.84,13.532 115.398,13.532 Z M123.07,20.168 C124.568,20.168 125.716,19.314 125.716,17.984 C125.716,16.612 124.512,16.22 123.35,15.856 C122.006,15.422 121.474,15.226 121.474,14.596 C121.474,13.896 122.146,13.532 122.958,13.532 C123.602,13.532 124.316,13.756 125.044,14.218 L125.548,13.406 C124.778,12.902 123.854,12.594 122.958,12.594 C121.516,12.594 120.424,13.406 120.424,14.722 C120.424,15.758 121.096,16.276 122.846,16.78 C123.826,17.06 124.666,17.312 124.666,18.096 C124.666,18.782 124.022,19.23 123.07,19.23 C122.272,19.23 121.446,18.922 120.62,18.32 L120.074,19.09 C120.942,19.79 122.062,20.168 123.07,20.168 Z" id="Edit-Privileges" fill="#565656"></path>
                    <g id="checkbox-none-32" stroke-linecap="square" stroke="#9A9A9A" stroke-width="2">
                        <use id="Rectangle-4" mask="url(#mask-10)" xlink:href="#path-9"></use>
                    </g>
                </g>
                <g id="line2-copy-3" transform="translate(23.000000, 96.000000)">
                    <path d="M72.008,11.418 L72.008,10.382 L65.106,10.382 L65.106,20 L72.008,20 L72.008,18.964 L66.212,18.964 L66.212,15.618 L71.434,15.618 L71.434,14.582 L66.212,14.582 L66.212,11.418 L72.008,11.418 Z M79.498,10.214 L80.548,10.214 L80.548,20 L79.498,20 L79.498,18.642 C78.952,19.594 78.028,20.168 76.866,20.168 C74.962,20.168 73.534,18.6 73.534,16.374 C73.534,14.162 74.962,12.594 76.866,12.594 C78.028,12.594 78.952,13.168 79.498,14.12 L79.498,10.214 Z M77.062,19.23 C78.49,19.23 79.498,18.04 79.498,16.374 C79.498,14.708 78.49,13.532 77.062,13.532 C75.648,13.532 74.64,14.708 74.64,16.374 C74.64,18.04 75.648,19.23 77.062,19.23 Z M83.292,11.446 C83.67,11.446 83.978,11.124 83.978,10.746 C83.978,10.382 83.67,10.06 83.292,10.06 C82.9,10.06 82.592,10.382 82.592,10.746 C82.592,11.124 82.9,11.446 83.292,11.446 Z M82.76,20 L83.81,20 L83.81,12.762 L82.76,12.762 L82.76,20 Z M89.102,18.936 C88.948,19.104 88.668,19.23 88.346,19.23 C87.926,19.23 87.562,18.852 87.562,18.32 L87.562,13.7 L89.34,13.7 L89.34,12.762 L87.562,12.762 L87.562,10.774 L86.512,10.774 L86.512,12.762 L85.378,12.762 L85.378,13.7 L86.512,13.7 L86.512,18.32 C86.512,19.398 87.24,20.168 88.276,20.168 C88.766,20.168 89.242,20 89.62,19.706 L89.102,18.936 Z M95.206,20 L95.206,10.382 L99.112,10.382 C101.1,10.382 102.654,11.656 102.654,13.462 C102.654,15.268 101.1,16.542 99.112,16.542 L96.298,16.542 L96.298,20 L95.206,20 Z M96.298,15.506 L98.916,15.506 C100.484,15.506 101.548,14.75 101.548,13.462 C101.548,12.174 100.484,11.418 98.916,11.418 L96.298,11.418 L96.298,15.506 Z M105.328,14.176 L105.328,12.762 L104.278,12.762 L104.278,20 L105.328,20 L105.328,15.954 C105.328,14.54 106.49,13.532 108.128,13.532 L108.128,12.594 C106.798,12.594 105.762,13.21 105.328,14.176 Z M110.102,11.446 C110.48,11.446 110.788,11.124 110.788,10.746 C110.788,10.382 110.48,10.06 110.102,10.06 C109.71,10.06 109.402,10.382 109.402,10.746 C109.402,11.124 109.71,11.446 110.102,11.446 Z M109.57,20 L110.62,20 L110.62,12.762 L109.57,12.762 L109.57,20 Z M115.128,20 L116.136,20 L119.174,12.762 L117.998,12.762 L115.632,18.768 L113.224,12.762 L112.048,12.762 L115.128,20 Z M121.134,11.446 C121.512,11.446 121.82,11.124 121.82,10.746 C121.82,10.382 121.512,10.06 121.134,10.06 C120.742,10.06 120.434,10.382 120.434,10.746 C120.434,11.124 120.742,11.446 121.134,11.446 Z M120.602,20 L121.652,20 L121.652,12.762 L120.602,12.762 L120.602,20 Z M123.766,20 L124.816,20 L124.816,10.214 L123.766,10.214 L123.766,20 Z M130.206,19.23 C131.06,19.23 132.04,18.852 132.488,18.362 L133.132,19.048 C132.502,19.734 131.228,20.168 130.22,20.168 C128.288,20.168 126.552,18.586 126.552,16.36 C126.552,14.204 128.176,12.594 130.122,12.594 C132.306,12.594 133.552,14.246 133.552,16.78 L127.63,16.78 C127.784,18.194 128.778,19.23 130.206,19.23 Z M130.164,13.532 C128.876,13.532 127.84,14.442 127.644,15.842 L132.516,15.842 C132.376,14.54 131.606,13.532 130.164,13.532 Z M140.902,12.762 L141.952,12.762 L141.952,19.23 C141.952,21.092 140.482,22.408 138.396,22.408 C137.22,22.408 136.128,22.002 135.47,21.442 L135.932,20.616 C136.492,21.148 137.36,21.47 138.256,21.47 C139.922,21.47 140.902,20.644 140.902,19.23 L140.902,18.054 C140.342,18.936 139.418,19.468 138.27,19.468 C136.324,19.468 134.938,18.04 134.938,16.024 C134.938,14.008 136.324,12.594 138.27,12.594 C139.418,12.594 140.342,13.126 140.902,14.008 L140.902,12.762 Z M138.466,18.53 C139.894,18.53 140.902,17.494 140.902,16.024 C140.902,14.568 139.894,13.532 138.466,13.532 C137.052,13.532 136.044,14.568 136.044,16.024 C136.044,17.494 137.052,18.53 138.466,18.53 Z M147.44,19.23 C148.294,19.23 149.274,18.852 149.722,18.362 L150.366,19.048 C149.736,19.734 148.462,20.168 147.454,20.168 C145.522,20.168 143.786,18.586 143.786,16.36 C143.786,14.204 145.41,12.594 147.356,12.594 C149.54,12.594 150.786,14.246 150.786,16.78 L144.864,16.78 C145.018,18.194 146.012,19.23 147.44,19.23 Z M147.398,13.532 C146.11,13.532 145.074,14.442 144.878,15.842 L149.75,15.842 C149.61,14.54 148.84,13.532 147.398,13.532 Z M155.07,20.168 C156.568,20.168 157.716,19.314 157.716,17.984 C157.716,16.612 156.512,16.22 155.35,15.856 C154.006,15.422 153.474,15.226 153.474,14.596 C153.474,13.896 154.146,13.532 154.958,13.532 C155.602,13.532 156.316,13.756 157.044,14.218 L157.548,13.406 C156.778,12.902 155.854,12.594 154.958,12.594 C153.516,12.594 152.424,13.406 152.424,14.722 C152.424,15.758 153.096,16.276 154.846,16.78 C155.826,17.06 156.666,17.312 156.666,18.096 C156.666,18.782 156.022,19.23 155.07,19.23 C154.272,19.23 153.446,18.922 152.62,18.32 L152.074,19.09 C152.942,19.79 154.062,20.168 155.07,20.168 Z" id="Edit-Privileges" fill="#565656"></path>
                    <g id="checkbox-Indeterminate-32" transform="translate(32.000000, 0.000000)">
                        <g id="Group-2" transform="translate(7.466667, 7.466667)">
                            <use id="Rectangle-4-Copy" stroke="#0079B8" mask="url(#mask-12)" stroke-width="2" stroke-linecap="square" xlink:href="#path-11"></use>
                            <rect id="Rectangle-3" fill="#0079B8" x="4.26666667" y="7.46666667" width="8.53333333" height="2.13333333"></rect>
                        </g>
                    </g>
                    <g id="caret-open-32" stroke="#9A9A9A" stroke-linecap="round" stroke-linejoin="round">
                        <g id="caret-open-copy" transform="translate(10.666667, 13.866667)">
                            <polyline id="Rectangle-11" stroke-width="1.5" points="10.6666667 1.11022302e-15 5.26827145 5.33333333 2.77555756e-15 0.128555501"></polyline>
                        </g>
                    </g>
                </g>
                <g id="line2-copy-2" transform="translate(23.000000, 64.000000)">
                    <path d="M72.932,10.382 L69.292,18.656 L65.638,10.382 L64.448,10.382 L68.69,20 L69.88,20 L74.122,10.382 L72.932,10.382 Z M76.152,11.446 C76.53,11.446 76.838,11.124 76.838,10.746 C76.838,10.382 76.53,10.06 76.152,10.06 C75.76,10.06 75.452,10.382 75.452,10.746 C75.452,11.124 75.76,11.446 76.152,11.446 Z M75.62,20 L76.67,20 L76.67,12.762 L75.62,12.762 L75.62,20 Z M82.046,19.23 C82.9,19.23 83.88,18.852 84.328,18.362 L84.972,19.048 C84.342,19.734 83.068,20.168 82.06,20.168 C80.128,20.168 78.392,18.586 78.392,16.36 C78.392,14.204 80.016,12.594 81.962,12.594 C84.146,12.594 85.392,14.246 85.392,16.78 L79.47,16.78 C79.624,18.194 80.618,19.23 82.046,19.23 Z M82.004,13.532 C80.716,13.532 79.68,14.442 79.484,15.842 L84.356,15.842 C84.216,14.54 83.446,13.532 82.004,13.532 Z M88.962,20 L89.956,20 L91.902,14.218 L93.82,20 L94.814,20 L97.25,12.762 L96.13,12.762 L94.324,18.6 L92.35,12.762 L91.44,12.762 L89.466,18.6 L87.66,12.762 L86.54,12.762 L88.962,20 Z M99.294,11.446 C99.672,11.446 99.98,11.124 99.98,10.746 C99.98,10.382 99.672,10.06 99.294,10.06 C98.902,10.06 98.594,10.382 98.594,10.746 C98.594,11.124 98.902,11.446 99.294,11.446 Z M98.762,20 L99.812,20 L99.812,12.762 L98.762,12.762 L98.762,20 Z M105.37,12.594 C104.348,12.594 103.41,13.154 102.99,13.924 L102.99,12.762 L101.94,12.762 L101.94,20 L102.99,20 L102.99,15.394 C102.99,14.386 104.012,13.532 105.23,13.532 C106.294,13.532 107.036,14.358 107.036,15.534 L107.036,20 L108.086,20 L108.086,15.394 C108.086,13.756 106.966,12.594 105.37,12.594 Z M115.842,12.762 L116.892,12.762 L116.892,19.23 C116.892,21.092 115.422,22.408 113.336,22.408 C112.16,22.408 111.068,22.002 110.41,21.442 L110.872,20.616 C111.432,21.148 112.3,21.47 113.196,21.47 C114.862,21.47 115.842,20.644 115.842,19.23 L115.842,18.054 C115.282,18.936 114.358,19.468 113.21,19.468 C111.264,19.468 109.878,18.04 109.878,16.024 C109.878,14.008 111.264,12.594 113.21,12.594 C114.358,12.594 115.282,13.126 115.842,14.008 L115.842,12.762 Z M113.406,18.53 C114.834,18.53 115.842,17.494 115.842,16.024 C115.842,14.568 114.834,13.532 113.406,13.532 C111.992,13.532 110.984,14.568 110.984,16.024 C110.984,17.494 111.992,18.53 113.406,18.53 Z M123.22,20 L123.22,10.382 L127.126,10.382 C129.114,10.382 130.668,11.656 130.668,13.462 C130.668,15.268 129.114,16.542 127.126,16.542 L124.312,16.542 L124.312,20 L123.22,20 Z M124.312,15.506 L126.93,15.506 C128.498,15.506 129.562,14.75 129.562,13.462 C129.562,12.174 128.498,11.418 126.93,11.418 L124.312,11.418 L124.312,15.506 Z M133.342,14.176 L133.342,12.762 L132.292,12.762 L132.292,20 L133.342,20 L133.342,15.954 C133.342,14.54 134.504,13.532 136.142,13.532 L136.142,12.594 C134.812,12.594 133.776,13.21 133.342,14.176 Z M138.116,11.446 C138.494,11.446 138.802,11.124 138.802,10.746 C138.802,10.382 138.494,10.06 138.116,10.06 C137.724,10.06 137.416,10.382 137.416,10.746 C137.416,11.124 137.724,11.446 138.116,11.446 Z M137.584,20 L138.634,20 L138.634,12.762 L137.584,12.762 L137.584,20 Z M143.142,20 L144.15,20 L147.188,12.762 L146.012,12.762 L143.646,18.768 L141.238,12.762 L140.062,12.762 L143.142,20 Z M149.148,11.446 C149.526,11.446 149.834,11.124 149.834,10.746 C149.834,10.382 149.526,10.06 149.148,10.06 C148.756,10.06 148.448,10.382 148.448,10.746 C148.448,11.124 148.756,11.446 149.148,11.446 Z M148.616,20 L149.666,20 L149.666,12.762 L148.616,12.762 L148.616,20 Z M151.78,20 L152.83,20 L152.83,10.214 L151.78,10.214 L151.78,20 Z M158.22,19.23 C159.074,19.23 160.054,18.852 160.502,18.362 L161.146,19.048 C160.516,19.734 159.242,20.168 158.234,20.168 C156.302,20.168 154.566,18.586 154.566,16.36 C154.566,14.204 156.19,12.594 158.136,12.594 C160.32,12.594 161.566,14.246 161.566,16.78 L155.644,16.78 C155.798,18.194 156.792,19.23 158.22,19.23 Z M158.178,13.532 C156.89,13.532 155.854,14.442 155.658,15.842 L160.53,15.842 C160.39,14.54 159.62,13.532 158.178,13.532 Z M168.916,12.762 L169.966,12.762 L169.966,19.23 C169.966,21.092 168.496,22.408 166.41,22.408 C165.234,22.408 164.142,22.002 163.484,21.442 L163.946,20.616 C164.506,21.148 165.374,21.47 166.27,21.47 C167.936,21.47 168.916,20.644 168.916,19.23 L168.916,18.054 C168.356,18.936 167.432,19.468 166.284,19.468 C164.338,19.468 162.952,18.04 162.952,16.024 C162.952,14.008 164.338,12.594 166.284,12.594 C167.432,12.594 168.356,13.126 168.916,14.008 L168.916,12.762 Z M166.48,18.53 C167.908,18.53 168.916,17.494 168.916,16.024 C168.916,14.568 167.908,13.532 166.48,13.532 C165.066,13.532 164.058,14.568 164.058,16.024 C164.058,17.494 165.066,18.53 166.48,18.53 Z M175.454,19.23 C176.308,19.23 177.288,18.852 177.736,18.362 L178.38,19.048 C177.75,19.734 176.476,20.168 175.468,20.168 C173.536,20.168 171.8,18.586 171.8,16.36 C171.8,14.204 173.424,12.594 175.37,12.594 C177.554,12.594 178.8,14.246 178.8,16.78 L172.878,16.78 C173.032,18.194 174.026,19.23 175.454,19.23 Z M175.412,13.532 C174.124,13.532 173.088,14.442 172.892,15.842 L177.764,15.842 C177.624,14.54 176.854,13.532 175.412,13.532 Z M183.084,20.168 C184.582,20.168 185.73,19.314 185.73,17.984 C185.73,16.612 184.526,16.22 183.364,15.856 C182.02,15.422 181.488,15.226 181.488,14.596 C181.488,13.896 182.16,13.532 182.972,13.532 C183.616,13.532 184.33,13.756 185.058,14.218 L185.562,13.406 C184.792,12.902 183.868,12.594 182.972,12.594 C181.53,12.594 180.438,13.406 180.438,14.722 C180.438,15.758 181.11,16.276 182.86,16.78 C183.84,17.06 184.68,17.312 184.68,18.096 C184.68,18.782 184.036,19.23 183.084,19.23 C182.286,19.23 181.46,18.922 180.634,18.32 L180.088,19.09 C180.956,19.79 182.076,20.168 183.084,20.168 Z" id="Viewing-Privileges" fill="#565656"></path>
                    <g id="checked-32" transform="translate(32.000000, 0.000000)">
                        <g id="Group-2" transform="translate(7.466667, 7.466667)">
                            <g id="Group-3" stroke-width="2">
                                <use id="Rectangle-4-Copy" stroke="#0093D5" mask="url(#mask-14)" stroke-linecap="square" fill="#0093D5" xlink:href="#path-13"></use>
                                <polyline id="Line" stroke="#FFFFFF" stroke-linecap="round" points="4.81614583 8.24961313 8.24223944 11.2508953 13.3494792 5.7375"></polyline>
                            </g>
                        </g>
                    </g>
                    <g id="caret-close-32" stroke="#9A9A9A" stroke-linecap="round" stroke-linejoin="round">
                        <g id="caret-open-copy" transform="translate(16.000000, 16.533333) rotate(-90.000000) translate(-16.000000, -16.533333) translate(10.666667, 13.866667)">
                            <polyline id="Rectangle-11" stroke-width="1.5" points="10.6666667 -1.4235505e-14 5.26827145 5.33333333 2.22044605e-15 0.128555501"></polyline>
                        </g>
                    </g>
                </g>
                <g id="line1">
                    <path d="M72.932,20 L71.966,17.816 L66.604,17.816 L65.638,20 L64.448,20 L68.69,10.382 L69.88,10.382 L74.122,20 L72.932,20 Z M67.052,16.78 L71.518,16.78 L69.292,11.726 L67.052,16.78 Z M80.73,12.762 L80.73,17.368 C80.73,18.376 79.708,19.23 78.49,19.23 C77.426,19.23 76.684,18.404 76.684,17.228 L76.684,12.762 L75.634,12.762 L75.634,17.368 C75.634,19.006 76.754,20.168 78.35,20.168 C79.372,20.168 80.31,19.608 80.73,18.838 L80.73,20 L81.78,20 L81.78,12.762 L80.73,12.762 Z M89.578,10.214 L90.628,10.214 L90.628,20 L89.578,20 L89.578,18.642 C89.032,19.594 88.108,20.168 86.946,20.168 C85.042,20.168 83.614,18.6 83.614,16.374 C83.614,14.162 85.042,12.594 86.946,12.594 C88.108,12.594 89.032,13.168 89.578,14.12 L89.578,10.214 Z M87.142,19.23 C88.57,19.23 89.578,18.04 89.578,16.374 C89.578,14.708 88.57,13.532 87.142,13.532 C85.728,13.532 84.72,14.708 84.72,16.374 C84.72,18.04 85.728,19.23 87.142,19.23 Z M93.372,11.446 C93.75,11.446 94.058,11.124 94.058,10.746 C94.058,10.382 93.75,10.06 93.372,10.06 C92.98,10.06 92.672,10.382 92.672,10.746 C92.672,11.124 92.98,11.446 93.372,11.446 Z M92.84,20 L93.89,20 L93.89,12.762 L92.84,12.762 L92.84,20 Z M99.182,18.936 C99.028,19.104 98.748,19.23 98.426,19.23 C98.006,19.23 97.642,18.852 97.642,18.32 L97.642,13.7 L99.42,13.7 L99.42,12.762 L97.642,12.762 L97.642,10.774 L96.592,10.774 L96.592,12.762 L95.458,12.762 L95.458,13.7 L96.592,13.7 L96.592,18.32 C96.592,19.398 97.32,20.168 98.356,20.168 C98.846,20.168 99.322,20 99.7,19.706 L99.182,18.936 Z M109.402,20.168 C111.754,20.168 113.42,18.446 113.42,16.01 L113.42,10.382 L112.328,10.382 L112.328,16.01 C112.328,17.858 111.11,19.174 109.402,19.174 C107.694,19.174 106.476,17.858 106.476,16.01 L106.476,10.382 L105.384,10.382 L105.384,16.01 C105.384,18.446 107.05,20.168 109.402,20.168 Z M118.25,20.168 C119.748,20.168 120.896,19.314 120.896,17.984 C120.896,16.612 119.692,16.22 118.53,15.856 C117.186,15.422 116.654,15.226 116.654,14.596 C116.654,13.896 117.326,13.532 118.138,13.532 C118.782,13.532 119.496,13.756 120.224,14.218 L120.728,13.406 C119.958,12.902 119.034,12.594 118.138,12.594 C116.696,12.594 115.604,13.406 115.604,14.722 C115.604,15.758 116.276,16.276 118.026,16.78 C119.006,17.06 119.846,17.312 119.846,18.096 C119.846,18.782 119.202,19.23 118.25,19.23 C117.452,19.23 116.626,18.922 115.8,18.32 L115.254,19.09 C116.122,19.79 117.242,20.168 118.25,20.168 Z M125.894,19.23 C126.748,19.23 127.728,18.852 128.176,18.362 L128.82,19.048 C128.19,19.734 126.916,20.168 125.908,20.168 C123.976,20.168 122.24,18.586 122.24,16.36 C122.24,14.204 123.864,12.594 125.81,12.594 C127.994,12.594 129.24,14.246 129.24,16.78 L123.318,16.78 C123.472,18.194 124.466,19.23 125.894,19.23 Z M125.852,13.532 C124.564,13.532 123.528,14.442 123.332,15.842 L128.204,15.842 C128.064,14.54 127.294,13.532 125.852,13.532 Z M132.11,14.176 L132.11,12.762 L131.06,12.762 L131.06,20 L132.11,20 L132.11,15.954 C132.11,14.54 133.272,13.532 134.91,13.532 L134.91,12.594 C133.58,12.594 132.544,13.21 132.11,14.176 Z M140.468,20 L140.468,10.382 L144.374,10.382 C146.362,10.382 147.916,11.656 147.916,13.462 C147.916,15.268 146.362,16.542 144.374,16.542 L141.56,16.542 L141.56,20 L140.468,20 Z M141.56,15.506 L144.178,15.506 C145.746,15.506 146.81,14.75 146.81,13.462 C146.81,12.174 145.746,11.418 144.178,11.418 L141.56,11.418 L141.56,15.506 Z M150.59,14.176 L150.59,12.762 L149.54,12.762 L149.54,20 L150.59,20 L150.59,15.954 C150.59,14.54 151.752,13.532 153.39,13.532 L153.39,12.594 C152.06,12.594 151.024,13.21 150.59,14.176 Z M155.364,11.446 C155.742,11.446 156.05,11.124 156.05,10.746 C156.05,10.382 155.742,10.06 155.364,10.06 C154.972,10.06 154.664,10.382 154.664,10.746 C154.664,11.124 154.972,11.446 155.364,11.446 Z M154.832,20 L155.882,20 L155.882,12.762 L154.832,12.762 L154.832,20 Z M160.39,20 L161.398,20 L164.436,12.762 L163.26,12.762 L160.894,18.768 L158.486,12.762 L157.31,12.762 L160.39,20 Z M166.396,11.446 C166.774,11.446 167.082,11.124 167.082,10.746 C167.082,10.382 166.774,10.06 166.396,10.06 C166.004,10.06 165.696,10.382 165.696,10.746 C165.696,11.124 166.004,11.446 166.396,11.446 Z M165.864,20 L166.914,20 L166.914,12.762 L165.864,12.762 L165.864,20 Z M169.028,20 L170.078,20 L170.078,10.214 L169.028,10.214 L169.028,20 Z M175.468,19.23 C176.322,19.23 177.302,18.852 177.75,18.362 L178.394,19.048 C177.764,19.734 176.49,20.168 175.482,20.168 C173.55,20.168 171.814,18.586 171.814,16.36 C171.814,14.204 173.438,12.594 175.384,12.594 C177.568,12.594 178.814,14.246 178.814,16.78 L172.892,16.78 C173.046,18.194 174.04,19.23 175.468,19.23 Z M175.426,13.532 C174.138,13.532 173.102,14.442 172.906,15.842 L177.778,15.842 C177.638,14.54 176.868,13.532 175.426,13.532 Z M186.164,12.762 L187.214,12.762 L187.214,19.23 C187.214,21.092 185.744,22.408 183.658,22.408 C182.482,22.408 181.39,22.002 180.732,21.442 L181.194,20.616 C181.754,21.148 182.622,21.47 183.518,21.47 C185.184,21.47 186.164,20.644 186.164,19.23 L186.164,18.054 C185.604,18.936 184.68,19.468 183.532,19.468 C181.586,19.468 180.2,18.04 180.2,16.024 C180.2,14.008 181.586,12.594 183.532,12.594 C184.68,12.594 185.604,13.126 186.164,14.008 L186.164,12.762 Z M183.728,18.53 C185.156,18.53 186.164,17.494 186.164,16.024 C186.164,14.568 185.156,13.532 183.728,13.532 C182.314,13.532 181.306,14.568 181.306,16.024 C181.306,17.494 182.314,18.53 183.728,18.53 Z M192.702,19.23 C193.556,19.23 194.536,18.852 194.984,18.362 L195.628,19.048 C194.998,19.734 193.724,20.168 192.716,20.168 C190.784,20.168 189.048,18.586 189.048,16.36 C189.048,14.204 190.672,12.594 192.618,12.594 C194.802,12.594 196.048,14.246 196.048,16.78 L190.126,16.78 C190.28,18.194 191.274,19.23 192.702,19.23 Z M192.66,13.532 C191.372,13.532 190.336,14.442 190.14,15.842 L195.012,15.842 C194.872,14.54 194.102,13.532 192.66,13.532 Z M200.332,20.168 C201.83,20.168 202.978,19.314 202.978,17.984 C202.978,16.612 201.774,16.22 200.612,15.856 C199.268,15.422 198.736,15.226 198.736,14.596 C198.736,13.896 199.408,13.532 200.22,13.532 C200.864,13.532 201.578,13.756 202.306,14.218 L202.81,13.406 C202.04,12.902 201.116,12.594 200.22,12.594 C198.778,12.594 197.686,13.406 197.686,14.722 C197.686,15.758 198.358,16.276 200.108,16.78 C201.088,17.06 201.928,17.312 201.928,18.096 C201.928,18.782 201.284,19.23 200.332,19.23 C199.534,19.23 198.708,18.922 197.882,18.32 L197.336,19.09 C198.204,19.79 199.324,20.168 200.332,20.168 Z" id="Audit-User-Privilege" fill="#565656"></path>
                    <g id="checkbox-Indeterminate-32" transform="translate(32.000000, 0.000000)">
                        <g id="Group-2" transform="translate(7.466667, 7.466667)">
                            <use id="Rectangle-4-Copy" stroke="#0079B8" mask="url(#mask-16)" stroke-width="2" stroke-linecap="square" xlink:href="#path-15"></use>
                            <rect id="Rectangle-3" fill="#0079B8" x="4.26666667" y="7.46666667" width="8.53333333" height="2.13333333"></rect>
                        </g>
                    </g>
                    <g id="caret-open-32" stroke="#9A9A9A" stroke-linecap="round" stroke-linejoin="round">
                        <g id="caret-open-copy" transform="translate(10.666667, 13.866667)">
                            <polyline id="Rectangle-11" stroke-width="1.5" points="10.6666667 1.11022302e-15 5.26827145 5.33333333 2.77555756e-15 0.128555501"></polyline>
                        </g>
                    </g>
                </g>
                <g id="line1-copy" transform="translate(0.000000, 192.000000)">
                    <path d="M72.932,10.382 L69.292,18.656 L65.638,10.382 L64.448,10.382 L68.69,20 L69.88,20 L74.122,10.382 L72.932,10.382 Z M76.152,11.446 C76.53,11.446 76.838,11.124 76.838,10.746 C76.838,10.382 76.53,10.06 76.152,10.06 C75.76,10.06 75.452,10.382 75.452,10.746 C75.452,11.124 75.76,11.446 76.152,11.446 Z M75.62,20 L76.67,20 L76.67,12.762 L75.62,12.762 L75.62,20 Z M82.046,19.23 C82.9,19.23 83.88,18.852 84.328,18.362 L84.972,19.048 C84.342,19.734 83.068,20.168 82.06,20.168 C80.128,20.168 78.392,18.586 78.392,16.36 C78.392,14.204 80.016,12.594 81.962,12.594 C84.146,12.594 85.392,14.246 85.392,16.78 L79.47,16.78 C79.624,18.194 80.618,19.23 82.046,19.23 Z M82.004,13.532 C80.716,13.532 79.68,14.442 79.484,15.842 L84.356,15.842 C84.216,14.54 83.446,13.532 82.004,13.532 Z M88.962,20 L89.956,20 L91.902,14.218 L93.82,20 L94.814,20 L97.25,12.762 L96.13,12.762 L94.324,18.6 L92.35,12.762 L91.44,12.762 L89.466,18.6 L87.66,12.762 L86.54,12.762 L88.962,20 Z M107.428,20.168 C104.768,20.168 102.5,17.886 102.5,15.184 C102.5,12.482 104.768,10.214 107.428,10.214 C110.102,10.214 112.342,12.482 112.342,15.184 C112.342,17.886 110.102,20.168 107.428,20.168 Z M107.428,19.16 C109.5,19.16 111.236,17.34 111.236,15.184 C111.236,13.042 109.5,11.222 107.428,11.222 C105.356,11.222 103.606,13.042 103.606,15.184 C103.606,17.34 105.356,19.16 107.428,19.16 Z M117.578,12.594 C116.556,12.594 115.618,13.154 115.198,13.924 L115.198,12.762 L114.148,12.762 L114.148,20 L115.198,20 L115.198,15.394 C115.198,14.386 116.22,13.532 117.438,13.532 C118.502,13.532 119.244,14.358 119.244,15.534 L119.244,20 L120.294,20 L120.294,15.394 C120.294,13.756 119.174,12.594 117.578,12.594 Z M122.422,20 L123.472,20 L123.472,10.214 L122.422,10.214 L122.422,20 Z M126.678,22.52 C127.672,22.506 128.372,22.044 128.876,20.812 L132.18,12.762 L131.046,12.762 L128.652,18.782 L126.118,12.762 L124.956,12.762 L128.106,20.028 L127.686,20.924 C127.406,21.414 127.098,21.568 126.636,21.568 C126.328,21.568 126.034,21.512 125.782,21.386 L125.53,22.282 C125.866,22.436 126.258,22.52 126.678,22.52 Z M142.12,20.168 C144.472,20.168 146.138,18.446 146.138,16.01 L146.138,10.382 L145.046,10.382 L145.046,16.01 C145.046,17.858 143.828,19.174 142.12,19.174 C140.412,19.174 139.194,17.858 139.194,16.01 L139.194,10.382 L138.102,10.382 L138.102,16.01 C138.102,18.446 139.768,20.168 142.12,20.168 Z M150.968,20.168 C152.466,20.168 153.614,19.314 153.614,17.984 C153.614,16.612 152.41,16.22 151.248,15.856 C149.904,15.422 149.372,15.226 149.372,14.596 C149.372,13.896 150.044,13.532 150.856,13.532 C151.5,13.532 152.214,13.756 152.942,14.218 L153.446,13.406 C152.676,12.902 151.752,12.594 150.856,12.594 C149.414,12.594 148.322,13.406 148.322,14.722 C148.322,15.758 148.994,16.276 150.744,16.78 C151.724,17.06 152.564,17.312 152.564,18.096 C152.564,18.782 151.92,19.23 150.968,19.23 C150.17,19.23 149.344,18.922 148.518,18.32 L147.972,19.09 C148.84,19.79 149.96,20.168 150.968,20.168 Z M158.612,19.23 C159.466,19.23 160.446,18.852 160.894,18.362 L161.538,19.048 C160.908,19.734 159.634,20.168 158.626,20.168 C156.694,20.168 154.958,18.586 154.958,16.36 C154.958,14.204 156.582,12.594 158.528,12.594 C160.712,12.594 161.958,14.246 161.958,16.78 L156.036,16.78 C156.19,18.194 157.184,19.23 158.612,19.23 Z M158.57,13.532 C157.282,13.532 156.246,14.442 156.05,15.842 L160.922,15.842 C160.782,14.54 160.012,13.532 158.57,13.532 Z M164.828,14.176 L164.828,12.762 L163.778,12.762 L163.778,20 L164.828,20 L164.828,15.954 C164.828,14.54 165.99,13.532 167.628,13.532 L167.628,12.594 C166.298,12.594 165.262,13.21 164.828,14.176 Z M173.186,20 L173.186,10.382 L177.092,10.382 C179.08,10.382 180.634,11.656 180.634,13.462 C180.634,15.268 179.08,16.542 177.092,16.542 L174.278,16.542 L174.278,20 L173.186,20 Z M174.278,15.506 L176.896,15.506 C178.464,15.506 179.528,14.75 179.528,13.462 C179.528,12.174 178.464,11.418 176.896,11.418 L174.278,11.418 L174.278,15.506 Z M183.308,14.176 L183.308,12.762 L182.258,12.762 L182.258,20 L183.308,20 L183.308,15.954 C183.308,14.54 184.47,13.532 186.108,13.532 L186.108,12.594 C184.778,12.594 183.742,13.21 183.308,14.176 Z M188.082,11.446 C188.46,11.446 188.768,11.124 188.768,10.746 C188.768,10.382 188.46,10.06 188.082,10.06 C187.69,10.06 187.382,10.382 187.382,10.746 C187.382,11.124 187.69,11.446 188.082,11.446 Z M187.55,20 L188.6,20 L188.6,12.762 L187.55,12.762 L187.55,20 Z M193.108,20 L194.116,20 L197.154,12.762 L195.978,12.762 L193.612,18.768 L191.204,12.762 L190.028,12.762 L193.108,20 Z M199.114,11.446 C199.492,11.446 199.8,11.124 199.8,10.746 C199.8,10.382 199.492,10.06 199.114,10.06 C198.722,10.06 198.414,10.382 198.414,10.746 C198.414,11.124 198.722,11.446 199.114,11.446 Z M198.582,20 L199.632,20 L199.632,12.762 L198.582,12.762 L198.582,20 Z M201.746,20 L202.796,20 L202.796,10.214 L201.746,10.214 L201.746,20 Z M208.186,19.23 C209.04,19.23 210.02,18.852 210.468,18.362 L211.112,19.048 C210.482,19.734 209.208,20.168 208.2,20.168 C206.268,20.168 204.532,18.586 204.532,16.36 C204.532,14.204 206.156,12.594 208.102,12.594 C210.286,12.594 211.532,14.246 211.532,16.78 L205.61,16.78 C205.764,18.194 206.758,19.23 208.186,19.23 Z M208.144,13.532 C206.856,13.532 205.82,14.442 205.624,15.842 L210.496,15.842 C210.356,14.54 209.586,13.532 208.144,13.532 Z M218.882,12.762 L219.932,12.762 L219.932,19.23 C219.932,21.092 218.462,22.408 216.376,22.408 C215.2,22.408 214.108,22.002 213.45,21.442 L213.912,20.616 C214.472,21.148 215.34,21.47 216.236,21.47 C217.902,21.47 218.882,20.644 218.882,19.23 L218.882,18.054 C218.322,18.936 217.398,19.468 216.25,19.468 C214.304,19.468 212.918,18.04 212.918,16.024 C212.918,14.008 214.304,12.594 216.25,12.594 C217.398,12.594 218.322,13.126 218.882,14.008 L218.882,12.762 Z M216.446,18.53 C217.874,18.53 218.882,17.494 218.882,16.024 C218.882,14.568 217.874,13.532 216.446,13.532 C215.032,13.532 214.024,14.568 214.024,16.024 C214.024,17.494 215.032,18.53 216.446,18.53 Z M225.42,19.23 C226.274,19.23 227.254,18.852 227.702,18.362 L228.346,19.048 C227.716,19.734 226.442,20.168 225.434,20.168 C223.502,20.168 221.766,18.586 221.766,16.36 C221.766,14.204 223.39,12.594 225.336,12.594 C227.52,12.594 228.766,14.246 228.766,16.78 L222.844,16.78 C222.998,18.194 223.992,19.23 225.42,19.23 Z M225.378,13.532 C224.09,13.532 223.054,14.442 222.858,15.842 L227.73,15.842 C227.59,14.54 226.82,13.532 225.378,13.532 Z M233.05,20.168 C234.548,20.168 235.696,19.314 235.696,17.984 C235.696,16.612 234.492,16.22 233.33,15.856 C231.986,15.422 231.454,15.226 231.454,14.596 C231.454,13.896 232.126,13.532 232.938,13.532 C233.582,13.532 234.296,13.756 235.024,14.218 L235.528,13.406 C234.758,12.902 233.834,12.594 232.938,12.594 C231.496,12.594 230.404,13.406 230.404,14.722 C230.404,15.758 231.076,16.276 232.826,16.78 C233.806,17.06 234.646,17.312 234.646,18.096 C234.646,18.782 234.002,19.23 233.05,19.23 C232.252,19.23 231.426,18.922 230.6,18.32 L230.054,19.09 C230.922,19.79 232.042,20.168 233.05,20.168 Z" id="View-Only-User-Privi" fill="#565656"></path>
                    <g id="checkbox-Indeterminate-32" transform="translate(32.000000, 0.000000)">
                        <g id="Group-2" transform="translate(7.466667, 7.466667)">
                            <use id="Rectangle-4-Copy" stroke="#0079B8" mask="url(#mask-18)" stroke-width="2" stroke-linecap="square" xlink:href="#path-17"></use>
                            <rect id="Rectangle-3" fill="#0079B8" x="4.26666667" y="7.46666667" width="8.53333333" height="2.13333333"></rect>
                        </g>
                    </g>
                    <g id="caret-open-32" stroke="#9A9A9A" stroke-linecap="round" stroke-linejoin="round">
                        <g id="caret-open-copy" transform="translate(10.666667, 13.866667)">
                            <polyline id="Rectangle-11" stroke-width="1.5" points="10.6666667 1.11022302e-15 5.26827145 5.33333333 2.77555756e-15 0.128555501"></polyline>
                        </g>
                    </g>
                </g>
            </g>
        </g>
    </g>
</svg>