<svg id="Layer_1" data-name="Layer 1" xmlns="http://www.w3.org/2000/svg" xmlns:xlink="http://www.w3.org/1999/xlink" viewBox="0 0 444 108"><defs><style>.cls-1,.cls-8{fill:none;}.cls-2{fill:#eee;}.cls-3{clip-path:url(#clip-path);}.cls-4{fill:#002538;}.cls-5,.cls-7{fill:#fafafa;}.cls-6,.cls-9{fill:#fff;}.cls-6,.cls-8{opacity:0.15;}.cls-6,.cls-7,.cls-8{isolation:isolate;}.cls-7{opacity:0.65;}.cls-8{stroke:#fff;stroke-linecap:square;}</style><clipPath id="clip-path"><polygon id="a" class="cls-1" points="0 0 444 0 430.91 12.11 444 23.21 430.91 35.33 444 47.44 430.91 59.55 444 71.66 430.91 84.78 444 96.9 430.91 108 0 108 0 0"/></clipPath></defs><title>header_04</title><polygon id="a-2" data-name="a" class="cls-2" points="0 0 444 0 430.91 12.11 444 23.21 430.91 35.33 444 47.44 430.91 59.55 444 71.66 430.91 84.78 444 96.9 430.91 108 0 108 0 0"/><g class="cls-3"><rect class="cls-4" x="26" y="24" width="418" height="60"/></g><path class="cls-5" d="M84.74,59h1.62V50.66L92.68,59H94.3V48H92.68v8.34L86.36,48H84.74Zm16,.19a4.33,4.33,0,1,1,4.34-4.34A4.41,4.41,0,0,1,100.76,59.19Zm0-1.38a3,3,0,1,0-2.78-3A2.9,2.9,0,0,0,100.76,57.82Zm10.06-.3a1.24,1.24,0,0,1-.85.3.91.91,0,0,1-.85-1V52.07h2V50.73h-2V48.46h-1.55v2.27h-1.25v1.34h1.25v4.86a2.12,2.12,0,0,0,2.18,2.26,2.66,2.66,0,0,0,1.65-.59Zm6,.27a3.61,3.61,0,0,0,2.37-.9l1,1a5,5,0,0,1-3.34,1.28,4.25,4.25,0,0,1-4.26-4.35,4.15,4.15,0,0,1,4.13-4.3c2.53,0,4,1.92,4,4.88h-6.51A2.63,2.63,0,0,0,116.81,57.78Zm0-5.84a2.59,2.59,0,0,0-2.58,2.21h5A2.3,2.3,0,0,0,116.76,51.94Zm19,7.06-1-2.24h-5.73l-1,2.24h-1.79l4.72-11h1.79l4.72,11Zm-6.06-3.7h4.48L132,50.09Zm14-4.77c2.18,0,3.81,1.79,3.81,4.32s-1.63,4.34-3.81,4.34a3.36,3.36,0,0,1-2.94-1.63v4.19h-1.57v-11h1.57v1.42A3.38,3.38,0,0,1,143.75,50.54Zm-.38,7.28a2.68,2.68,0,0,0,2.59-3,2.6,2.6,0,1,0-5.15,0A2.68,2.68,0,0,0,143.37,57.82Zm10.7-7.28c2.18,0,3.81,1.79,3.81,4.32s-1.63,4.34-3.81,4.34a3.36,3.36,0,0,1-2.94-1.63v4.19h-1.57v-11h1.57v1.42A3.38,3.38,0,0,1,154.07,50.54Zm-.38,7.28a2.68,2.68,0,0,0,2.59-3,2.6,2.6,0,1,0-5.15,0A2.68,2.68,0,0,0,153.69,57.82Z"/><rect class="cls-6" x="270" y="24" width="141" height="60"/><path class="cls-5" d="M298.89,58.15c2.27,0,3.5-1.23,3.5-2.86s-1.33-2.37-3.25-2.81c-1.58-.38-2.41-.69-2.41-1.58a1.66,1.66,0,0,1,1.83-1.46,4.14,4.14,0,0,1,2.76,1.18l.81-1.06a5.1,5.1,0,0,0-3.51-1.36c-1.93,0-3.33,1.22-3.33,2.83s1.3,2.32,3.26,2.79c1.61.36,2.41.71,2.41,1.62s-.69,1.47-2,1.47a4.44,4.44,0,0,1-3.16-1.34l-.85,1A5.55,5.55,0,0,0,298.89,58.15Zm8.88-7.56a2.7,2.7,0,0,0-2.31,1.25V48.21h-1.37V58h1.37V53.51a1.89,1.89,0,0,1,2-1.71,1.68,1.68,0,0,1,1.67,1.83V58h1.36V53.39A2.65,2.65,0,0,0,307.76,50.59Zm7.74,0a2.8,2.8,0,0,1,3,3V58h-1.36V57a3,3,0,0,1-2.41,1.16,2.39,2.39,0,0,1-2.67-2.31c0-1.44,1.3-2.41,2.9-2.41a7,7,0,0,1,2.18.39v-.22a1.7,1.7,0,0,0-1.86-1.88,4.61,4.61,0,0,0-2,.6l-.5-1A6.14,6.14,0,0,1,315.5,50.59ZM315,57.08a2.13,2.13,0,0,0,2.14-1.34v-1a6.72,6.72,0,0,0-2-.28c-1,0-1.78.55-1.78,1.33S314.12,57.08,315,57.08Zm7-4.93V50.76H320.6V58H322V53.88a2.44,2.44,0,0,1,2.69-2.09v-1.2A2.86,2.86,0,0,0,322,52.15Zm7.36,4.79a3.16,3.16,0,0,0,2.07-.78l.87.9a4.36,4.36,0,0,1-2.93,1.12,3.72,3.72,0,0,1-3.72-3.81,3.63,3.63,0,0,1,3.61-3.77c2.21,0,3.49,1.68,3.49,4.27H327A2.3,2.3,0,0,0,329.35,56.94Zm0-5.11a2.27,2.27,0,0,0-2.25,1.93h4.34A2,2,0,0,0,329.31,51.83Zm10.61-3.61h1.37V58h-1.37V56.74a2.94,2.94,0,0,1-2.58,1.43c-1.9,0-3.33-1.57-3.33-3.79s1.43-3.78,3.33-3.78A3,3,0,0,1,339.92,52ZM337.68,57a2.6,2.6,0,1,0-2.27-2.59A2.34,2.34,0,0,0,337.68,57Zm9.91,1H349V50.71L354.54,58h1.41V48.38h-1.41v7.29L349,48.38h-1.41Zm14,.17a3.79,3.79,0,1,1,3.79-3.79A3.86,3.86,0,0,1,361.61,58.17Zm0-1.2a2.59,2.59,0,1,0-2.44-2.59A2.53,2.53,0,0,0,361.61,57Zm8.81-.27a1.08,1.08,0,0,1-.74.27.8.8,0,0,1-.74-.87V51.94h1.71V50.76h-1.71v-2h-1.36v2h-1.09v1.18h1.09v4.26a1.86,1.86,0,0,0,1.9,2,2.33,2.33,0,0,0,1.44-.52Zm5.24.24a3.16,3.16,0,0,0,2.07-.78l.87.9a4.36,4.36,0,0,1-2.93,1.12,3.72,3.72,0,0,1-3.72-3.81,3.63,3.63,0,0,1,3.61-3.77c2.21,0,3.49,1.68,3.49,4.27h-5.7A2.3,2.3,0,0,0,375.65,56.94Zm0-5.11a2.27,2.27,0,0,0-2.25,1.93h4.34A2,2,0,0,0,375.61,51.83Zm7.66,6.34c1.58,0,2.74-.87,2.74-2.24s-1.27-1.83-2.46-2.18-1.67-.55-1.67-1.11.56-.85,1.27-.85a4.05,4.05,0,0,1,2.06.67l.62-1a5,5,0,0,0-2.67-.84c-1.54,0-2.65.87-2.63,2.2,0,1.18.83,1.65,2.49,2.11.9.25,1.64.46,1.64,1.13s-.56.94-1.37.94a4.17,4.17,0,0,1-2.45-.88l-.66,1A5.07,5.07,0,0,0,383.26,58.17Z"/><path class="cls-7" d="M206.6,58H208V50.71L213.54,58H215V48.38h-1.41v7.29L208,48.38H206.6Zm14,.17a3.79,3.79,0,1,1,3.79-3.79A3.86,3.86,0,0,1,220.61,58.17Zm0-1.2a2.59,2.59,0,1,0-2.44-2.59A2.53,2.53,0,0,0,220.61,57Zm8.81-.27a1.08,1.08,0,0,1-.74.27.8.8,0,0,1-.74-.87V51.94h1.71V50.76h-1.71v-2h-1.36v2h-1.09v1.18h1.09v4.26a1.86,1.86,0,0,0,1.9,2,2.33,2.33,0,0,0,1.44-.52Zm5.24.24a3.16,3.16,0,0,0,2.07-.78l.87.9a4.36,4.36,0,0,1-2.93,1.12,3.72,3.72,0,0,1-3.72-3.81,3.63,3.63,0,0,1,3.61-3.77c2.21,0,3.49,1.68,3.49,4.27h-5.7A2.3,2.3,0,0,0,234.66,56.94Zm0-5.11a2.27,2.27,0,0,0-2.25,1.93h4.34A2,2,0,0,0,234.61,51.83Zm7.66,6.34c1.58,0,2.74-.87,2.74-2.24s-1.27-1.83-2.46-2.18-1.67-.55-1.67-1.11.56-.85,1.27-.85a4.05,4.05,0,0,1,2.06.67l.62-1a5,5,0,0,0-2.67-.84c-1.54,0-2.65.87-2.63,2.2,0,1.18.83,1.65,2.49,2.11.9.25,1.64.46,1.64,1.13s-.56.94-1.37.94a4.17,4.17,0,0,1-2.45-.88l-.66,1A5.07,5.07,0,0,0,242.27,58.17Z"/><path class="cls-8" d="M180,34V74"/><path class="cls-9" d="M61.52,41H48.63A1.63,1.63,0,0,0,47,42.67V65.33A1.62,1.62,0,0,0,48.63,67H67.39a1.63,1.63,0,0,0,1.54-1.67v-17Zm.11,2.39,5,4.92h-5Zm-13,22V42.63H60v7.31h7.31V65.38Z"/><polygon id="a-3" data-name="a" class="cls-1" points="0 0 444 0 430.91 12.11 444 23.21 430.91 35.33 444 47.44 430.91 59.55 444 71.66 430.91 84.78 444 96.9 430.91 108 0 108 0 0"/></svg>