<svg version="1.1" width="36" height="36"  viewBox="0 0 36 36" preserveAspectRatio="xMidYMid meet" xmlns="http://www.w3.org/2000/svg" xmlns:xlink="http://www.w3.org/1999/xlink">
    <title>curve-chart-solid-alerted</title>
    <path class="clr-i-solid--alerted clr-i-solid-path-1--alerted" d="M 34 29 C 34 30.105 33.105 31 32 31 L 4 31 C 2.896 31 2 30.105 2 29 L 2 7 C 2 5.896 2.896 5 4 5 L 21.958 5 L 17.625 12.395 C 17.476 12.612 17.379 12.843 17.33 13.077 C 17.262 12.948 17.192 12.82 17.118 12.691 C 16.13 10.962 14.795 10 13 10 L 7 10 C 6.448 10 6 10.448 6 11 C 6 11.552 6.448 12 7 12 L 13 12 C 14.817 12 15.674 13.499 17.039 18.275 C 17.813 20.984 18.201 22.118 18.882 23.309 C 19.87 25.038 21.205 26 23 26 L 29 26 C 29.552 26 30 25.552 30 25 C 30 24.448 29.552 24 29 24 L 23 24 C 21.183 24 20.326 22.501 18.962 17.725 C 18.64 16.598 18.385 15.744 18.147 15.044 C 18.407 15.215 18.717 15.326 19.064 15.351 C 19.134 15.357 19.201 15.359 19.27 15.357 L 34 15.357 Z"></path><path class="clr-i-solid--alerted clr-i-solid-path-2--alerted clr-i-alert" d="M 26.854 1.144 L 21.134 11.004 C 20.579 11.818 21.114 12.928 22.097 13.001 C 22.142 13.005 22.188 13.006 22.234 13.004 L 33.684 13.004 C 34.669 13.036 35.319 11.991 34.855 11.122 C 34.834 11.081 34.81 11.042 34.784 11.004 L 29.064 1.144 C 28.57 0.299 27.348 0.299 26.854 1.144 Z"></path>
    <rect x="0" y="0" width="36" height="36" fill-opacity="0"/>
</svg>