<svg id="Layer_1" data-name="Layer 1" xmlns="http://www.w3.org/2000/svg" xmlns:xlink="http://www.w3.org/1999/xlink" viewBox="0 0 444 108"><defs><style>.cls-1{fill:none;}.cls-2{fill:#eee;}.cls-3{clip-path:url(#clip-path);}.cls-4{fill:#002538;}.cls-5{fill:#fafafa;}.cls-6{fill:#fff;}</style><clipPath id="clip-path"><polygon id="a" class="cls-1" points="0 0 444 0 430.91 12.11 444 23.21 430.91 35.33 444 47.44 430.91 59.55 444 71.66 430.91 84.78 444 96.9 430.91 108 0 108 0 0"/></clipPath></defs><title>header_01</title><polygon id="a-2" data-name="a" class="cls-2" points="0 0 444 0 430.91 12.11 444 23.21 430.91 35.33 444 47.44 430.91 59.55 444 71.66 430.91 84.78 444 96.9 430.91 108 0 108 0 0"/><g class="cls-3"><rect class="cls-4" x="26" y="24" width="418" height="60"/></g><path class="cls-5" d="M84.74,59h1.62V50.66L92.68,59H94.3V48H92.68v8.34L86.36,48H84.74Zm16,.19a4.33,4.33,0,1,1,4.34-4.34A4.41,4.41,0,0,1,100.76,59.19Zm0-1.38a3,3,0,1,0-2.78-3A2.9,2.9,0,0,0,100.76,57.82Zm10.06-.3a1.24,1.24,0,0,1-.85.3.91.91,0,0,1-.85-1V52.07h2V50.73h-2V48.46h-1.55v2.27h-1.25v1.34h1.25v4.86a2.12,2.12,0,0,0,2.18,2.26,2.66,2.66,0,0,0,1.65-.59Zm6,.27a3.61,3.61,0,0,0,2.37-.9l1,1a5,5,0,0,1-3.34,1.28,4.25,4.25,0,0,1-4.26-4.35,4.15,4.15,0,0,1,4.13-4.3c2.53,0,4,1.92,4,4.88h-6.51A2.63,2.63,0,0,0,116.81,57.78Zm0-5.84a2.59,2.59,0,0,0-2.58,2.21h5A2.3,2.3,0,0,0,116.76,51.94Zm19,7.06-1-2.24h-5.73l-1,2.24h-1.79l4.72-11h1.79l4.72,11Zm-6.06-3.7h4.48L132,50.09Zm14-4.77c2.18,0,3.81,1.79,3.81,4.32s-1.63,4.34-3.81,4.34a3.36,3.36,0,0,1-2.94-1.63v4.19h-1.57v-11h1.57v1.42A3.38,3.38,0,0,1,143.75,50.54Zm-.38,7.28a2.68,2.68,0,0,0,2.59-3,2.6,2.6,0,1,0-5.15,0A2.68,2.68,0,0,0,143.37,57.82Zm10.7-7.28c2.18,0,3.81,1.79,3.81,4.32s-1.63,4.34-3.81,4.34a3.36,3.36,0,0,1-2.94-1.63v4.19h-1.57v-11h1.57v1.42A3.38,3.38,0,0,1,154.07,50.54Zm-.38,7.28a2.68,2.68,0,0,0,2.59-3,2.6,2.6,0,1,0-5.15,0A2.68,2.68,0,0,0,153.69,57.82Z"/><path class="cls-6" d="M61.52,41H48.63A1.63,1.63,0,0,0,47,42.67V65.33A1.62,1.62,0,0,0,48.63,67H67.39a1.63,1.63,0,0,0,1.54-1.67v-17Zm.11,2.39,5,4.92h-5Zm-13,22V42.63H60v7.31h7.31V65.38Z"/><polygon id="a-3" data-name="a" class="cls-1" points="0 0 444 0 430.91 12.11 444 23.21 430.91 35.33 444 47.44 430.91 59.55 444 71.66 430.91 84.78 444 96.9 430.91 108 0 108 0 0"/></svg>