<svg version="1.1" width="36" height="36"  viewBox="0 0 36 36" preserveAspectRatio="xMidYMid meet" xmlns="http://www.w3.org/2000/svg" xmlns:xlink="http://www.w3.org/1999/xlink">
    <title>briefcase-line</title>
    <path d="M32,28a0,0,0,0,1,0,0H4V21.32a7.1,7.1,0,0,1-2-1.43V28a2,2,0,0,0,2,2H32a2,2,0,0,0,2-2V19.89a6.74,6.74,0,0,1-2,1.42Z" class="clr-i-outline clr-i-outline-path-1"></path><path d="M25,22.4a1,1,0,0,0,1-1V15.94H24V18H14v2H24v1.4A1,1,0,0,0,25,22.4Z" class="clr-i-outline clr-i-outline-path-2"></path><path d="M33,6H24V4.38A2.42,2.42,0,0,0,21.55,2h-7.1A2.42,2.42,0,0,0,12,4.38V6H3A1,1,0,0,0,2,7v8a5,5,0,0,0,5,5h3v1.4a1,1,0,0,0,2,0V15.94H10V18H7a3,3,0,0,1-3-3V8H32v7a3,3,0,0,1-3,3H28v2h1a5,5,0,0,0,5-5V7A1,1,0,0,0,33,6ZM22,6H14V4.43A.45.45,0,0,1,14.45,4h7.11a.43.43,0,0,1,.44.42Z" class="clr-i-outline clr-i-outline-path-3"></path>
    <rect x="0" y="0" width="36" height="36" fill-opacity="0"/>
</svg>