<svg version="1.1" width="36" height="36"  viewBox="0 0 36 36" preserveAspectRatio="xMidYMid meet" xmlns="http://www.w3.org/2000/svg" xmlns:xlink="http://www.w3.org/1999/xlink">
    <title>briefcase-solid</title>
    <path d="M30,18A4.06,4.06,0,0,0,34,14V6H24V4.43A2.44,2.44,0,0,0,21.55,2h-7.1A2.44,2.44,0,0,0,12,4.43V6H2v8A4.06,4.06,0,0,0,6.05,18h4V15.92h2v5.7a1,1,0,1,1-2,0V20.06H6.06A6.06,6.06,0,0,1,2,18.49v9.45a2,2,0,0,0,2,2H32a2,2,0,0,0,2-2V18.49a6,6,0,0,1-4.06,1.57H28V18ZM14,4.43A.45.45,0,0,1,14.45,4h7.1a.45.45,0,0,1,.45.43V6H14ZM26,21.62a1,1,0,1,1-2,0V20.06H14V18H24V15.92h2Z" class="clr-i-solid clr-i-solid-path-1"></path>
    <rect x="0" y="0" width="36" height="36" fill-opacity="0"/>
</svg>