<svg version="1.1" width="36" height="36"  viewBox="0 0 36 36" preserveAspectRatio="xMidYMid meet" xmlns="http://www.w3.org/2000/svg" xmlns:xlink="http://www.w3.org/1999/xlink">
    <title>clipboard-solid</title>
    <path d="M29.29,5H22.17a4.45,4.45,0,0,0-4.11-3A4.46,4.46,0,0,0,14,5H7A1.75,1.75,0,0,0,5,6.69V32.31A1.7,1.7,0,0,0,6.71,34H29.29A1.7,1.7,0,0,0,31,32.31V6.69A1.7,1.7,0,0,0,29.29,5Zm-18,3a1,1,0,0,1,1-1h3.44V6.31a2.31,2.31,0,1,1,4.63,0V7h3.44a1,1,0,0,1,1,1v2H11.31ZM25,28H11V26H25Zm0-4H11V22H25Zm0-4H11V18H25Zm0-4H11V14H25Z" class="clr-i-solid clr-i-solid-path-1"></path>
    <rect x="0" y="0" width="36" height="36" fill-opacity="0"/>
</svg>