<svg version="1.1" width="36" height="36"  viewBox="0 0 36 36" preserveAspectRatio="xMidYMid meet" xmlns="http://www.w3.org/2000/svg" xmlns:xlink="http://www.w3.org/1999/xlink">
    <title>clock-outline-alerted</title>
    <path d="M18.92,10.75a1,1,0,0,0-2,0v8.72l5.9,4a1,1,0,1,0,1.11-1.66l-5-3.39Z" class="clr-i-outline--alerted clr-i-outline-path-1--alerted"></path><path d="M33.77,15.39h-2A14,14,0,1,1,22.09,4.61l1-1.76A16,16,0,1,0,34,18,16,16,0,0,0,33.77,15.39Z" class="clr-i-outline--alerted clr-i-outline-path-2--alerted"></path><path d="M18,8a9.81,9.81,0,0,1,2,.23l.85-1.46a11.55,11.55,0,1,0-5.13,22.52L16,27.7A10,10,0,0,1,18,8Z" class="clr-i-outline--alerted clr-i-outline-path-3--alerted"></path><path d="M26.85,1.14,21.13,11A1.28,1.28,0,0,0,22.23,13H33.68A1.28,1.28,0,0,0,34.78,11L29.06,1.14A1.28,1.28,0,0,0,26.85,1.14Z" class="clr-i-outline--alerted clr-i-outline-path-4--alerted clr-i-alert"></path>
    <rect x="0" y="0" width="36" height="36" fill-opacity="0"/>
</svg>