<svg version="1.1" width="36" height="36"  viewBox="0 0 36 36" preserveAspectRatio="xMidYMid meet" xmlns="http://www.w3.org/2000/svg" xmlns:xlink="http://www.w3.org/1999/xlink">
    <title>clone-solid</title>
    <path d="M24,10V6a2,2,0,0,0-2-2H6A2,2,0,0,0,4,6V22a2,2,0,0,0,2,2h4V12a2,2,0,0,1,2-2Z" class="clr-i-solid clr-i-solid-path-1"></path><path d="M30,12H14a2,2,0,0,0-2,2V30a2,2,0,0,0,2,2H30a2,2,0,0,0,2-2V14A2,2,0,0,0,30,12ZM28,23H23v5H21V23H16V21h5V16h2v5h5Z" class="clr-i-solid clr-i-solid-path-2"></path>
    <rect x="0" y="0" width="36" height="36" fill-opacity="0"/>
</svg>