<svg version="1.1" width="36" height="36"  viewBox="0 0 36 36" preserveAspectRatio="xMidYMid meet" xmlns="http://www.w3.org/2000/svg" xmlns:xlink="http://www.w3.org/1999/xlink">
    <title>color-picker-line</title>
    <path d="M33,10.05a5.07,5.07,0,0,0,.1-7.17A5.06,5.06,0,0,0,26,3L20.78,8.15a2.13,2.13,0,0,1-3,0l-.67-.67L15.72,8.92,27.08,20.28l1.42-1.42-.67-.67a2.13,2.13,0,0,1,0-3ZM26.44,13.8a4.07,4.07,0,0,0-1.08,1.92l-5.08-5.08A4.07,4.07,0,0,0,22.2,9.56l5.16-5.17a3.09,3.09,0,0,1,4.35-.1,3.09,3.09,0,0,1-.1,4.35Z" class="clr-i-outline clr-i-outline-path-1"></path><path d="M7.3,31.51a2,2,0,1,1-2.83-2.83L18.58,14.57l-1.42-1.41L3.05,27.27a4,4,0,0,0-.68,4.8L.89,33.55A1,1,0,0,0,.89,35a1,1,0,0,0,1.42,0l1.43-1.44a3.93,3.93,0,0,0,2.09.6,4.06,4.06,0,0,0,2.88-1.2L22.82,18.81,21.41,17.4Z" class="clr-i-outline clr-i-outline-path-2"></path>
    <rect x="0" y="0" width="36" height="36" fill-opacity="0"/>
</svg>