<svg version="1.1" width="36" height="36"  viewBox="0 0 36 36" preserveAspectRatio="xMidYMid meet" xmlns="http://www.w3.org/2000/svg" xmlns:xlink="http://www.w3.org/1999/xlink">
    <title>filter-solid</title>
    <path class="clr-i-solid clr-i-solid-path-1" d="M22,33V19.5L33.47,8A1.81,1.81,0,0,0,34,6.7V5a1,1,0,0,0-1-1H3A1,1,0,0,0,2,5V6.67a1.79,1.79,0,0,0,.53,1.27L14,19.58v10.2Z"></path><path d="M33.48,4h-31A.52.52,0,0,0,2,4.52V6.24a1.33,1.33,0,0,0,.39.95l12,12v10l7.25,3.61V19.17l12-12A1.35,1.35,0,0,0,34,6.26V4.52A.52.52,0,0,0,33.48,4Z" class="clr-i-solid clr-i-solid-path-1"></path>
    <rect x="0" y="0" width="36" height="36" fill-opacity="0"/>
</svg>