<svg version="1.1" width="36" height="36"  viewBox="0 0 36 36" preserveAspectRatio="xMidYMid meet" xmlns="http://www.w3.org/2000/svg" xmlns:xlink="http://www.w3.org/1999/xlink">
    <title>filter-off-line</title>
    <path d="M34,6.4C34,5.6,33.3,5,32.5,5H10.3l2,2H32v0.6l-9.6,9.6l1.4,1.4L33.4,9C33.8,8.6,34,8.1,34,7.6V6.5C34,6.5,34,6.4,34,6.4z" class="clr-i-outline clr-i-outline-path-1"></path><path d="M2.7,3l2,2h-1C2.9,4.9,2.1,5.5,2,6.3v1.1c0,0.5,0.2,1,0.6,1.4L14,20.2v10.3l1.9,0.8V19.4L4,7.5V7h2.7L20,20.3v12.9l2,0.8
		c0,0,0,0,0-0.1V22.3l10.1,10.1l1.4-1.4L4.1,1.6L2.7,3z" class="clr-i-outline clr-i-outline-path-2"></path>
    <rect x="0" y="0" width="36" height="36" fill-opacity="0"/>
</svg>