<svg version="1.1" width="36" height="36"  viewBox="0 0 36 36" preserveAspectRatio="xMidYMid meet" xmlns="http://www.w3.org/2000/svg" xmlns:xlink="http://www.w3.org/1999/xlink">
    <title>group-outline-alerted</title>
    <path class="clr-i-outline--alerted clr-i-outline-path-1--alerted" d="M11.09,14.57c.1,0,.2,0,.31,0a6.43,6.43,0,0,1,.09-2,2.09,2.09,0,1,1,1.47-3,6.58,6.58,0,0,1,1.55-1.31,4.09,4.09,0,1,0-3.42,6.33Z"></path><path class="clr-i-outline--alerted clr-i-outline-path-2--alerted" d="M13,18.14a6.53,6.53,0,0,1-1.28-2.2l-.63,0a8.67,8.67,0,0,0-6.43,2.52l-.24.28v7h2V19.51a7,7,0,0,1,4.67-1.6A8.09,8.09,0,0,1,13,18.14Z"></path><path class="clr-i-outline--alerted clr-i-outline-path-3--alerted" d="M31.35,18.42A8.59,8.59,0,0,0,25,15.91c-.32,0-.6,0-.9.06a6.53,6.53,0,0,1-1.35,2.25A7.9,7.9,0,0,1,25,17.91a6.94,6.94,0,0,1,4.64,1.58v6.27h2V18.7Z"></path><path class="clr-i-outline--alerted clr-i-outline-path-4--alerted" d="M18.1,19.73A9.69,9.69,0,0,0,11,22.47l-.25.28v7.33a1.57,1.57,0,0,0,1.61,1.54H23.83a1.57,1.57,0,0,0,1.61-1.54V22.73l-.25-.28A9.58,9.58,0,0,0,18.1,19.73Zm5.33,9.88H12.73V23.55a8.08,8.08,0,0,1,5.37-1.82,8,8,0,0,1,5.33,1.8Z"></path><path class="clr-i-outline--alerted clr-i-outline-path-5--alerted" d="M20.28,14.27a2.46,2.46,0,1,1-2.42-2.89,2.44,2.44,0,0,1,1,.24,3.67,3.67,0,0,1,.43-2,4.41,4.41,0,0,0-1.48-.27A4.47,4.47,0,1,0,22.14,15,3.69,3.69,0,0,1,20.28,14.27Z"></path><path class="clr-i-outline--alerted clr-i-outline-path-6--alerted clr-i-alert" d="M27.18.8l-5.72,9.91a1.28,1.28,0,0,0,1.1,1.91H34a1.28,1.28,0,0,0,1.1-1.91L29.39.8A1.28,1.28,0,0,0,27.18.8Z"></path>
    <rect x="0" y="0" width="36" height="36" fill-opacity="0"/>
</svg>