<svg version="1.1" width="36" height="36"  viewBox="0 0 36 36" preserveAspectRatio="xMidYMid meet" xmlns="http://www.w3.org/2000/svg" xmlns:xlink="http://www.w3.org/1999/xlink">
    <title>landscape-line</title>
    <path d="M32,6H4A2,2,0,0,0,2,8V28a2,2,0,0,0,2,2H32a2,2,0,0,0,2-2V8A2,2,0,0,0,32,6Zm0,22H4V8H32Z" class="clr-i-outline clr-i-outline-path-1"></path><path d="M9,22a.82.82,0,0,0,.55-.21.8.8,0,0,0,0-1.13L7.83,18.8H28.17l-1.72,1.86a.8.8,0,0,0,0,1.13A.82.82,0,0,0,27,22a.78.78,0,0,0,.58-.26L31.09,18l-3.47-3.74a.79.79,0,0,0-1.13,0,.8.8,0,0,0,0,1.13l1.72,1.86H7.83l1.72-1.86a.8.8,0,0,0,0-1.13.79.79,0,0,0-1.13,0L4.91,18l3.47,3.74A.78.78,0,0,0,9,22Z" class="clr-i-outline clr-i-outline-path-2"></path>
    <rect x="0" y="0" width="36" height="36" fill-opacity="0"/>
</svg>