<svg version="1.1" width="36" height="36"  viewBox="0 0 36 36" preserveAspectRatio="xMidYMid meet" xmlns="http://www.w3.org/2000/svg" xmlns:xlink="http://www.w3.org/1999/xlink">
    <title>pin-solid</title>
    <path class="clr-i-solid clr-i-solid-path-1" d="M33,16.71a1,1,0,0,1-.71-.29L19.7,3.82a1,1,0,0,1,1.41-1.41L33.71,15A1,1,0,0,1,33,16.71Z"></path><path class="clr-i-solid clr-i-solid-path-2" d="M20.44,7.59l-6.79,6.79A10.94,10.94,0,0,0,3.41,17.22a1,1,0,0,0,0,1.42L9.73,25,2.29,32.41a1,1,0,1,0,1.41,1.41l7.44-7.44,6.33,6.33a1,1,0,0,0,.71.29h0a1,1,0,0,0,.71-.3,11,11,0,0,0,2.84-10.24l6.79-6.79Z"></path>
    <rect x="0" y="0" width="36" height="36" fill-opacity="0"/>
</svg>