<svg version="1.1" width="36" height="36"  viewBox="0 0 36 36" preserveAspectRatio="xMidYMid meet" xmlns="http://www.w3.org/2000/svg" xmlns:xlink="http://www.w3.org/1999/xlink">
    <title>tree-solid</title>
    <path d="M18,2C10.8,1.7,4.8,7.3,4.5,14.5C4.2,21.7,9.8,27.7,17,28v-5.2l-5.2-5.2c-0.4-0.4-0.4-1,0-1.4c0.4-0.4,1-0.4,1.4,0
	c0,0,0,0,0,0l3.8,3.8v-6.2l-2.7-2.7c-0.4-0.4-0.4-1,0-1.4c0.4-0.4,1-0.4,1.4,0c0,0,0,0,0,0l3.3,3.3v3l3.3-3.3c0.4-0.4,1-0.4,1.4,0
	c0,0,0,0,0,0c0.4,0.4,0.4,1,0,1.4L19,18.8V28c7.2-0.3,12.8-6.3,12.5-13.5S25.2,1.7,18,2z" class="clr-i-solid clr-i-solid-path-1"></path><path d="M18,28c-0.3,0-0.6,0-1,0v5c0,0.6,0.4,1,1,1s1-0.4,1-1v-5C18.7,28,18.3,28,18,28z" class="clr-i-solid clr-i-solid-path-2"></path>
    <rect x="0" y="0" width="36" height="36" fill-opacity="0"/>
</svg>