<svg version="1.1" width="36" height="36"  viewBox="0 0 36 36" preserveAspectRatio="xMidYMid meet" xmlns="http://www.w3.org/2000/svg" xmlns:xlink="http://www.w3.org/1999/xlink">
    <title>unlock-solid</title>
    <path class="clr-i-solid clr-i-solid-path-1" d="M26,2a8.2,8.2,0,0,0-8,8.36V15H2V32a2,2,0,0,0,2,2H22a2,2,0,0,0,2-2V15H20V10.36A6.2,6.2,0,0,1,26,4a6.2,6.2,0,0,1,6,6.36v6.83a1,1,0,0,0,2,0V10.36A8.2,8.2,0,0,0,26,2ZM14,25.23V28H12V25.14a2.4,2.4,0,1,1,2,.09Z"></path>
    <rect x="0" y="0" width="36" height="36" fill-opacity="0"/>
</svg>