<svg version="1.1" width="36" height="36"  viewBox="0 0 36 36" preserveAspectRatio="xMidYMid meet" xmlns="http://www.w3.org/2000/svg" xmlns:xlink="http://www.w3.org/1999/xlink">
    <title>alert-solid</title>
    <path class="clr-i-solid clr-i-solid-path-1" d="M18,2.5c-8.82,0-16,6.28-16,14s7.18,14,16,14a18,18,0,0,0,4.88-.68l5.53,3.52a1,1,0,0,0,1.54-.84l0-6.73a13,13,0,0,0,4-9.27C34,8.78,26.82,2.5,18,2.5ZM16.93,9.13a1.41,1.41,0,1,1,2.81,0V18.9a1.41,1.41,0,1,1-2.81,0Zm1.41,17.35a1.87,1.87,0,1,1,1.87-1.87A1.87,1.87,0,0,1,18.34,26.47Z"></path>
    <rect x="0" y="0" width="36" height="36" fill-opacity="0"/>
</svg>