<svg version="1.1" width="36" height="36"  viewBox="0 0 36 36" preserveAspectRatio="xMidYMid meet" xmlns="http://www.w3.org/2000/svg" xmlns:xlink="http://www.w3.org/1999/xlink">
    <title>bullseye-line</title>
    <path d="M18,2a15.92,15.92,0,0,0-4.25.59l.77,1.86a14.07,14.07,0,1,1-10,10l-1.86-.78A16,16,0,1,0,18,2Z" class="clr-i-outline clr-i-outline-path-1"></path><path d="M7.45,15.7a10.81,10.81,0,1,0,8.3-8.26L16.37,9A9.24,9.24,0,1,1,9,16.32Z" class="clr-i-outline clr-i-outline-path-2"></path><path d="M18,22.09a4.08,4.08,0,0,1-4-3.68l-1.63-.68c0,.09,0,.18,0,.27A5.69,5.69,0,1,0,18,12.31h-.24L18.43,14A4.07,4.07,0,0,1,18,22.09Z" class="clr-i-outline clr-i-outline-path-3"></path><path d="M8.2,13.34a.5.5,0,0,0,.35.15H12.2l5.37,5.37A1,1,0,0,0,19,17.44L13.53,12V8.51a.5.5,0,0,0-.15-.35L7.79,2.57a.5.5,0,0,0-.85.35v4H3a.5.5,0,0,0-.35.85Z" class="clr-i-outline clr-i-outline-path-4"></path>
    <rect x="0" y="0" width="36" height="36" fill-opacity="0"/>
</svg>