<svg version="1.1" width="36" height="36"  viewBox="0 0 36 36" preserveAspectRatio="xMidYMid meet" xmlns="http://www.w3.org/2000/svg" xmlns:xlink="http://www.w3.org/1999/xlink">
    <title>download-outline-alerted</title>
    <path class="clr-i-outline--alerted clr-i-outline-path-1--alerted" d="M31,31H5a1,1,0,0,0,0,2H31a1,1,0,0,0,0-2Z"></path><path class="clr-i-outline--alerted clr-i-outline-path-2--alerted" d="M18,29.48,28.61,18.87a1,1,0,0,0-1.41-1.41L19,25.65V5a1,1,0,0,0-2,0V25.65L8.81,17.46a1,1,0,1,0-1.41,1.41Z"></path><path class="clr-i-outline--alerted clr-i-outline-path-3--alerted clr-i-alert" d="M26.85,1.14,21.13,11A1.28,1.28,0,0,0,22.23,13H33.68A1.28,1.28,0,0,0,34.78,11L29.06,1.14A1.28,1.28,0,0,0,26.85,1.14Z"></path>
    <rect x="0" y="0" width="36" height="36" fill-opacity="0"/>
</svg>