<svg version="1.1" width="36" height="36"  viewBox="0 0 36 36" preserveAspectRatio="xMidYMid meet" xmlns="http://www.w3.org/2000/svg" xmlns:xlink="http://www.w3.org/1999/xlink">
    <title>expand-card-line</title>
    <path d="M33,6H3A1,1,0,0,0,2,7V29a1,1,0,0,0,1,1H33a1,1,0,0,0,1-1V7A1,1,0,0,0,33,6ZM32,28H4V8H32Z" class="clr-i-outline clr-i-outline-path-1"></path><path d="M13.48,15.86,18,11.34l4.52,4.52a.77.77,0,0,0,.56.24.81.81,0,0,0,.57-1.37L18,9.08l-5.65,5.65a.8.8,0,1,0,1.13,1.13Z" class="clr-i-outline clr-i-outline-path-2"></path><path d="M13.48,21.86,18,17.34l4.52,4.52a.77.77,0,0,0,.56.24.81.81,0,0,0,.57-1.37L18,15.08l-5.65,5.65a.8.8,0,1,0,1.13,1.13Z" class="clr-i-outline clr-i-outline-path-3"></path>
    <rect x="0" y="0" width="36" height="36" fill-opacity="0"/>
</svg>