<svg version="1.1" width="36" height="36"  viewBox="0 0 36 36" preserveAspectRatio="xMidYMid meet" xmlns="http://www.w3.org/2000/svg" xmlns:xlink="http://www.w3.org/1999/xlink">
    <title>file-outline-alerted</title>
    <path class="clr-i-outline--alerted clr-i-outline-path-1--alerted" d="M28,15.4V30H8V6H20V8.25l2.25-3.9L21.89,4H7.83A1.88,1.88,0,0,0,6,5.91V30.09A1.88,1.88,0,0,0,7.83,32H28.17A1.88,1.88,0,0,0,30,30.09V15.4Z"></path><path class="clr-i-outline--alerted clr-i-outline-path-2--alerted clr-i-alert" d="M26.85,1.14,21.13,11A1.28,1.28,0,0,0,22.23,13H33.68A1.28,1.28,0,0,0,34.78,11L29.06,1.14A1.28,1.28,0,0,0,26.85,1.14Z"></path>
    <rect x="0" y="0" width="36" height="36" fill-opacity="0"/>
</svg>