<svg version="1.1" width="36" height="36"  viewBox="0 0 36 36" preserveAspectRatio="xMidYMid meet" xmlns="http://www.w3.org/2000/svg" xmlns:xlink="http://www.w3.org/1999/xlink">
    <title>filter-2-line</title>
    <path d="M33,11H3a1,1,0,0,0,0,2H33a1,1,0,0,0,0-2Z" class="clr-i-outline clr-i-outline-path-1"></path><path d="M28,17H8a1,1,0,0,0,0,2H28a1,1,0,0,0,0-2Z" class="clr-i-outline clr-i-outline-path-2"></path><path d="M23,23H13a1,1,0,0,0,0,2H23a1,1,0,0,0,0-2Z" class="clr-i-outline clr-i-outline-path-3"></path>
    <rect x="0" y="0" width="36" height="36" fill-opacity="0"/>
</svg>