<svg version="1.1" width="36" height="36"  viewBox="0 0 36 36" preserveAspectRatio="xMidYMid meet" xmlns="http://www.w3.org/2000/svg" xmlns:xlink="http://www.w3.org/1999/xlink">
    <title>firewall-outline-alerted</title>
    <path d="M33.68,15.4H32v5.68H28.92V16.27H27v4.81H18.92V16.27H17v4.81H8.9V16.27H7v4.81H4V15H20.58a3.58,3.58,0,0,1-1.76-1.92H14v-4H12v4H4V8H20.14l1.15-2H4A2,2,0,0,0,2,8V28a2,2,0,0,0,2,2H32a2,2,0,0,0,2-2V15.38ZM23.8,28V24.27H22.2V28H14V24.27h-1.6V28H4V23H32v5Z" class="clr-i-outline--alerted clr-i-outline-path-1--alerted"></path><path d="M26.85,1.14,21.13,11A1.28,1.28,0,0,0,22.23,13H33.68A1.28,1.28,0,0,0,34.78,11L29.06,1.14A1.28,1.28,0,0,0,26.85,1.14Z" class="clr-i-outline--alerted clr-i-outline-path-2--alerted clr-i-alert"></path>
    <rect x="0" y="0" width="36" height="36" fill-opacity="0"/>
</svg>