<svg version="1.1" width="36" height="36"  viewBox="0 0 36 36" preserveAspectRatio="xMidYMid meet" xmlns="http://www.w3.org/2000/svg" xmlns:xlink="http://www.w3.org/1999/xlink">
    <title>firewall-solid-alerted</title>
    <path d="M33.68,15.4H22.23A3.69,3.69,0,0,1,19.35,14H4V12h8V8h2v4h4.57A3.67,3.67,0,0,1,19,9.89L21.29,6H4A2,2,0,0,0,2,8V28a2,2,0,0,0,2,2H32a2,2,0,0,0,2-2V15.38ZM14,28H12V24h2Zm10,0H22V24h2Zm8-6H4V20H7V16H9v4h8V16h2v4h8V16h2v4h3Z" class="clr-i-solid--alerted clr-i-solid-path-1--alerted"></path><path d="M26.85,1.14,21.13,11A1.28,1.28,0,0,0,22.23,13H33.68A1.28,1.28,0,0,0,34.78,11L29.06,1.14A1.28,1.28,0,0,0,26.85,1.14Z" class="clr-i-solid--alerted clr-i-solid-path-2--alerted clr-i-alert"></path>
    <rect x="0" y="0" width="36" height="36" fill-opacity="0"/>
</svg>