<svg version="1.1" width="36" height="36"  viewBox="0 0 36 36" preserveAspectRatio="xMidYMid meet" xmlns="http://www.w3.org/2000/svg" xmlns:xlink="http://www.w3.org/1999/xlink">
    <title>pin-line</title>
    <path class="clr-i-outline clr-i-outline-path-1" d="M33,16.59a1,1,0,0,1-.71-.29L19.7,3.71a1,1,0,0,1,1.41-1.41L33.71,14.89A1,1,0,0,1,33,16.59Z"></path><path class="clr-i-outline clr-i-outline-path-2" d="M28.52,15.56l-1.41-1.41-7.2,7.2a1,1,0,0,0-.25,1,9,9,0,0,1-1.53,8.09L5.58,17.87a9,9,0,0,1,8.09-1.53,1,1,0,0,0,1-.25l7.2-7.2L20.44,7.48l-6.79,6.79A10.94,10.94,0,0,0,3.41,17.11a1,1,0,0,0,0,1.42l6.33,6.33L2.29,32.29a1,1,0,1,0,1.41,1.41l7.44-7.44,6.33,6.33a1,1,0,0,0,.71.29h0a1,1,0,0,0,.71-.3,11,11,0,0,0,2.84-10.24Z"></path>
    <rect x="0" y="0" width="36" height="36" fill-opacity="0"/>
</svg>