<svg version="1.1" width="36" height="36"  viewBox="0 0 36 36" preserveAspectRatio="xMidYMid meet" xmlns="http://www.w3.org/2000/svg" xmlns:xlink="http://www.w3.org/1999/xlink">
    <title>remove-solid</title>
    <path class="clr-i-solid clr-i-solid-path-1" d="M18,2A16,16,0,1,0,34,18,16,16,0,0,0,18,2Zm8,22.1a1.4,1.4,0,0,1-2,2l-6-6L12,26.12a1.4,1.4,0,1,1-2-2L16,18.08,9.83,11.86a1.4,1.4,0,1,1,2-2L18,16.1l6.17-6.17a1.4,1.4,0,1,1,2,2L20,18.08Z"></path>
    <rect x="0" y="0" width="36" height="36" fill-opacity="0"/>
</svg>