<svg version="1.1" width="36" height="36"  viewBox="0 0 36 36" preserveAspectRatio="xMidYMid meet" xmlns="http://www.w3.org/2000/svg" xmlns:xlink="http://www.w3.org/1999/xlink">
    <title>repeat-line</title>
    <path class="clr-i-outline clr-i-outline-path-1" d="M6,14.15A3.17,3.17,0,0,1,9.17,11H28.4l-4.28,4.54a1,1,0,1,0,1.46,1.37L32.09,10,25.58,3.09a1,1,0,1,0-1.46,1.37L28.4,9H9.17A5.17,5.17,0,0,0,4,14.15v6.1l2-2.12Z"></path><path class="clr-i-outline clr-i-outline-path-2" d="M30,21.85A3.17,3.17,0,0,1,26.83,25H7.6l4.28-4.54a1,1,0,1,0-1.46-1.37L3.91,26l6.51,6.91a1,1,0,1,0,1.46-1.37L7.6,27H26.83A5.17,5.17,0,0,0,32,21.85v-6.1l-2,2.12Z"></path>
    <rect x="0" y="0" width="36" height="36" fill-opacity="0"/>
</svg>