<svg version="1.1" width="36" height="36"  viewBox="0 0 36 36" preserveAspectRatio="xMidYMid meet" xmlns="http://www.w3.org/2000/svg" xmlns:xlink="http://www.w3.org/1999/xlink">
    <title>tag-solid-alerted</title>
    <path d="M28.46,15.73H22.23A3.68,3.68,0,0,1,19,10.22l1.43-2.47L17.33,4.6A2,2,0,0,0,15.92,4L6,4A2,2,0,0,0,4,6l0,9.92a2,2,0,0,0,.59,1.41l14.6,14.6a2,2,0,0,0,2.83,0l9.9-9.9a2,2,0,0,0,0-2.83ZM9.65,11.31a1.66,1.66,0,1,1,1.66-1.66A1.66,1.66,0,0,1,9.65,11.31Z" class="clr-i-solid--alerted clr-i-solid-path-1--alerted"></path><path d="M26.85,1.47l-5.72,9.91a1.28,1.28,0,0,0,1.1,1.91H33.68a1.28,1.28,0,0,0,1.1-1.91L29.06,1.47A1.28,1.28,0,0,0,26.85,1.47Z" class="clr-i-solid--alerted clr-i-solid-path-2--alerted clr-i-alert"></path>
    <rect x="0" y="0" width="36" height="36" fill-opacity="0"/>
</svg>