<svg version="1.1" width="36" height="36"  viewBox="0 0 36 36" preserveAspectRatio="xMidYMid meet" xmlns="http://www.w3.org/2000/svg" xmlns:xlink="http://www.w3.org/1999/xlink">
    <title>world-solid</title>
    <path d="M10.05,18a20.46,20.46,0,0,0,.62,4.93h6.48V13.45H10.58A20.55,20.55,0,0,0,10.05,18Z" class="clr-i-solid clr-i-solid-path-1"></path><path d="M18.85,13.45v9.48h6.48A20.46,20.46,0,0,0,26,18a20.55,20.55,0,0,0-.52-4.55Z" class="clr-i-solid clr-i-solid-path-2"></path><path d="M18,2A16,16,0,1,0,34,18,16,16,0,0,0,18,2ZM30.22,24.71H26.6a21.8,21.8,0,0,1-3,6,13.86,13.86,0,0,1-3,.92,20.21,20.21,0,0,0,4.18-6.94H18.86v7.15c-.29,0-.57,0-.86,0s-.55,0-.83,0V24.71H11.22a20.21,20.21,0,0,0,4.18,6.95,13.86,13.86,0,0,1-2.94-.9,21.8,21.8,0,0,1-3-6.05H5.78a13.94,13.94,0,0,1-.83-1.81h4A22.2,22.2,0,0,1,8.37,18a21.88,21.88,0,0,1,.48-4.55H4.76a13.88,13.88,0,0,1,.76-1.81H9.33A22.26,22.26,0,0,1,12.61,5a13.86,13.86,0,0,1,2.87-.84,20.13,20.13,0,0,0-4.4,7.45h6.09V4c.28,0,.55,0,.83,0s.58,0,.86,0v7.64h6.09a20.13,20.13,0,0,0-4.39-7.44A13.89,13.89,0,0,1,23.43,5a22.26,22.26,0,0,1,3.27,6.59h3.77a13.89,13.89,0,0,1,.76,1.81H27.17A21.88,21.88,0,0,1,27.66,18a22.2,22.2,0,0,1-.57,4.93h4A13.94,13.94,0,0,1,30.22,24.71Z" class="clr-i-solid clr-i-solid-path-3"></path>
    <rect x="0" y="0" width="36" height="36" fill-opacity="0"/>
</svg>