<svg version="1.1" width="36" height="36"  viewBox="0 0 36 36" preserveAspectRatio="xMidYMid meet" xmlns="http://www.w3.org/2000/svg" xmlns:xlink="http://www.w3.org/1999/xlink">
    <title>airplane-line</title>
    <path class="clr-i-outline clr-i-outline-path-1" d="M35.77,8.16a2.43,2.43,0,0,0-1.9-2L28,4.87a4.5,4.5,0,0,0-3.65.79L7,18.3,2.14,18.1A1.86,1.86,0,0,0,.91,21.41l5,3.93c.6.73,1,.59,10.93-4.82l.93,9.42a1.36,1.36,0,0,0,.85,1.18,1.43,1.43,0,0,0,.54.1,1.54,1.54,0,0,0,1-.41l2.39-2.18a1.52,1.52,0,0,0,.46-.83L25.2,15.9c3.57-2,6.95-3.88,9.36-5.25A2.43,2.43,0,0,0,35.77,8.16Zm-2.2.75c-2.5,1.42-6,3.41-9.76,5.47l-.41.23L21.07,27.28l-1.47,1.34L18.5,17.32,17.17,18C10,22,7.61,23.16,6.79,23.52l-4.3-3.41,5.08.22,18-13.06a2.51,2.51,0,0,1,2-.45l5.85,1.26a.43.43,0,0,1,.35.37A.42.42,0,0,1,33.57,8.91Z"></path><path class="clr-i-outline clr-i-outline-path-2" d="M7,12.54l3.56,1,1.64-1.19-4-1.16L10,10.09l5.47-.16,2.3-1.67L10,8.5a1.25,1.25,0,0,0-.7.17L6.67,10.2A1.28,1.28,0,0,0,7,12.54Z"></path>
    <rect x="0" y="0" width="36" height="36" fill-opacity="0"/>
</svg>