<svg version="1.1" width="36" height="36"  viewBox="0 0 36 36" preserveAspectRatio="xMidYMid meet" xmlns="http://www.w3.org/2000/svg" xmlns:xlink="http://www.w3.org/1999/xlink">
    <title>boat-line</title>
    <path d="M29.1,27.1C28,27,26.9,27.4,26,28.2c-1.1,1.1-2.9,1.1-4.1,0c-1-0.7-2.1-1.1-3.3-1.1c-1.2-0.1-2.4,0.3-3.3,1.1
		C14.7,28.7,14,29,13.2,29s-1.5-0.3-2.1-0.8c-1-0.8-2.2-1.2-3.4-1.2s-2.4,0.4-3.4,1.2C3.7,28.7,2.8,29,2,29v2
		c1.3,0.1,2.6-0.3,3.6-1.2C6.2,29.3,7.1,29,7.9,29c0.7,0,1.5,0.3,2.1,0.8c1.8,1.6,4.6,1.6,6.5,0c0.6-0.5,1.3-0.8,2.1-0.8
		c0.7,0,1.4,0.3,2,0.8c1.9,1.6,4.6,1.6,6.5,0c0.5-0.5,1.3-0.8,2-0.8c0.7,0,1.4,0.3,1.9,0.8c0.9,0.7,1.9,1.1,3,1.2v-2
		c-1,0-1.2-0.4-1.7-0.8C31.4,27.5,30.3,27.1,29.1,27.1z" class="clr-i-outline clr-i-outline-path-1"></path><path d="M6,23c0-0.6,0.5-1,1.1-1H32l-3.5,3.1h0.2c0.8,0,1.6,0.2,2.2,0.5l2.5-2.2l0.2-0.2c0.7-0.8,0.6-2.1-0.2-2.8
		C33,20.2,32.6,20,32.1,20h-25c-1.7,0-3,1.3-3,3v3.2c0.5-0.5,1.2-0.8,1.9-1.1V23z" class="clr-i-outline clr-i-outline-path-2"></path><path d="M8.9,19H15v-7.8c0-0.6-0.3-1.2-0.8-1.6C13.3,8.9,12,9.1,11.4,10l-4.1,5.9c-0.4,0.6-0.4,1.4-0.1,2.1C7.5,18.6,8.2,19,8.9,19
		z M13.1,11.2L13,17H8.9L13.1,11.2z" class="clr-i-outline clr-i-outline-path-3"></path><path d="M26,18c0.4-0.6,0.4-1.4,0-2L19.7,5.6c-0.4-0.6-1-1-1.7-1c-1.1,0-2,0.9-2,2V19h8.3C25,19,25.7,18.6,26,18z M17.9,6.6
		l6.4,10.5h-6.4V6.6z" class="clr-i-outline clr-i-outline-path-4"></path>
    <rect x="0" y="0" width="36" height="36" fill-opacity="0"/>
</svg>