<svg version="1.1" width="36" height="36"  viewBox="0 0 36 36" preserveAspectRatio="xMidYMid meet" xmlns="http://www.w3.org/2000/svg" xmlns:xlink="http://www.w3.org/1999/xlink">
    <title>peso-line</title>
    <path d="M31,13.2H27.89A6.81,6.81,0,0,0,28,12a7.85,7.85,0,0,0-.1-1.19h2.93a.8.8,0,0,0,0-1.6H27.46A8.44,8.44,0,0,0,19.57,4H11a1,1,0,0,0-1,1V9.2H7a.8.8,0,0,0,0,1.6h3v2.4H7a.8.8,0,0,0,0,1.6h3V31a1,1,0,0,0,2,0V20h7.57a8.45,8.45,0,0,0,7.89-5.2H31a.8.8,0,0,0,0-1.6ZM12,6h7.57a6.51,6.51,0,0,1,5.68,3.2H12Zm0,4.8H25.87a5.6,5.6,0,0,1,0,2.4H12ZM19.57,18H12V14.8H25.25A6.51,6.51,0,0,1,19.57,18Z" class="clr-i-outline clr-i-outline-path-1"></path>
    <rect x="0" y="0" width="36" height="36" fill-opacity="0"/>
</svg>