<svg version="1.1" width="36" height="36"  viewBox="0 0 36 36" preserveAspectRatio="xMidYMid meet" xmlns="http://www.w3.org/2000/svg" xmlns:xlink="http://www.w3.org/1999/xlink">
    <title>peso-solid</title>
    <path d="M14.18,13.8V16h9.45a5.26,5.26,0,0,0,.08-.89,4.72,4.72,0,0,0-.2-1.31Z" class="clr-i-solid clr-i-solid-path-1"></path><path d="M14.18,19.7h5.19a4.28,4.28,0,0,0,3.5-1.9H14.18Z" class="clr-i-solid clr-i-solid-path-2"></path><path d="M19.37,10.51H14.18V12h8.37A4.21,4.21,0,0,0,19.37,10.51Z" class="clr-i-solid clr-i-solid-path-3"></path><path d="M17.67,2a16,16,0,1,0,16,16A16,16,0,0,0,17.67,2Zm10.5,15.8H25.7a6.87,6.87,0,0,1-6.33,4.4H14.18v6.54a1.25,1.25,0,1,1-2.5,0V17.8H8.76a.9.9,0,1,1,0-1.8h2.92V13.8H8.76a.9.9,0,1,1,0-1.8h2.92V9.26A1.25,1.25,0,0,1,12.93,8h6.44a6.84,6.84,0,0,1,6.15,4h2.65a.9.9,0,0,1,0,1.8H26.09a6.91,6.91,0,0,1,.12,1.3,6.8,6.8,0,0,1-.06.9h2a.9.9,0,0,1,0,1.8Z" class="clr-i-solid clr-i-solid-path-4"></path>
    <rect x="0" y="0" width="36" height="36" fill-opacity="0"/>
</svg>