<svg version="1.1" width="36" height="36"  viewBox="0 0 36 36" preserveAspectRatio="xMidYMid meet" xmlns="http://www.w3.org/2000/svg" xmlns:xlink="http://www.w3.org/1999/xlink">
    <title>rupee-solid</title>
    <path class="clr-i-solid clr-i-solid-path-1" d="M18,2A16,16,0,1,0,34,18,16,16,0,0,0,18,2Zm5.88,9H26a1,1,0,0,1,0,2H24.26c0,.06,0,.12,0,.19a6.09,6.09,0,0,1-6,6.2h-2l6.82,8.06a1.25,1.25,0,0,1-1.91,1.62L12.63,18.94a1.25,1.25,0,0,1,1-2.06h4.71a3.59,3.59,0,0,0,3.48-3.69c0-.07,0-.13,0-.2h-9a1,1,0,0,1,0-2h8.32a3.41,3.41,0,0,0-2.78-1.5H12.75a1.25,1.25,0,0,1,0-2.5H26a1,1,0,0,1,0,2H22.68A6.23,6.23,0,0,1,23.88,11Z"></path>
    <rect x="0" y="0" width="36" height="36" fill-opacity="0"/>
</svg>