<svg version="1.1" width="36" height="36"  viewBox="0 0 36 36" preserveAspectRatio="xMidYMid meet" xmlns="http://www.w3.org/2000/svg" xmlns:xlink="http://www.w3.org/1999/xlink">
    <title>thumbs-up-line</title>
    <path d="M24,26c-2.92,1.82-7.3,4-9.37,4h-6a16.68,16.68,0,0,1-3.31-6.08A26.71,26.71,0,0,1,4,16h9V6a2.05,2.05,0,0,1,1.26-1.69c.77,2,2.62,6.57,4.23,8.72A11.39,11.39,0,0,0,24,16.91V14.78a9.13,9.13,0,0,1-3.91-3c-1.88-2.51-4.29-9.11-4.31-9.17A1,1,0,0,0,14.59,2C13.25,2.38,11,3.6,11,6v8H3a1,1,0,0,0-1,1,29,29,0,0,0,1.4,9.62c1.89,5.4,4.1,7.14,4.2,7.22a1,1,0,0,0,.61.21h6.42c2.43,0,6.55-2,9.37-3.63Z" class="clr-i-outline clr-i-outline-path-1"></path><path d="M34,31H27a1,1,0,0,1-1-1V14a1,1,0,0,1,1-1h7Zm-6-2h4V15H28Z" class="clr-i-outline clr-i-outline-path-2"></path>
    <rect x="0" y="0" width="36" height="36" fill-opacity="0"/>
</svg>