<svg version="1.1" width="36" height="36"  viewBox="0 0 36 36" preserveAspectRatio="xMidYMid meet" xmlns="http://www.w3.org/2000/svg" xmlns:xlink="http://www.w3.org/1999/xlink">
    <title>bar-chart-line</title>
    <path class="clr-i-outline clr-i-outline-path-1" d="M32,5H4A2,2,0,0,0,2,7V29a2,2,0,0,0,2,2H32a2,2,0,0,0,2-2V7A2,2,0,0,0,32,5ZM4,29V7H32V29Z"></path><path d="M 7 10 L 13 10 L 13 26 L 11.4 26 L 11.4 11.6 L 8.6 11.6 L 8.6 26 L 7 26 Z" class="clr-i-outline clr-i-outline-path-2"></path><path d="M 15 19 L 21 19 L 21 26 L 19.4 26 L 19.4 20.6 L 16.6 20.6 L 16.6 26 L 15 26 Z" class="clr-i-outline clr-i-outline-path-3"></path><path d="M 23 16 L 29 16 L 29 26 L 27.4 26 L 27.4 17.6 L 24.6 17.6 L 24.6 26 L 23 26 Z" class="clr-i-outline clr-i-outline-path-4"></path>
    <rect x="0" y="0" width="36" height="36" fill-opacity="0"/>
</svg>