<svg version="1.1" width="36" height="36"  viewBox="0 0 36 36" preserveAspectRatio="xMidYMid meet" xmlns="http://www.w3.org/2000/svg" xmlns:xlink="http://www.w3.org/1999/xlink">
    <title>heat-map-outline-alerted</title>
    <path class="clr-i-outline--alerted clr-i-outline-path-1--alerted" d="M 34 29 C 34 30.105 33.105 31 32 31 L 4 31 C 2.895 31 2 30.105 2 29 L 2 7 C 2 5.895 2.895 5 4 5 L 21.958 5 L 20.786 7 L 4 7 L 4 29 L 32 29 L 32 15.357 L 34 15.357 Z"></path><path d="M 8 10 L 19.028 10 L 18.091 11.6 L 15.7 11.6 L 15.7 17.2 L 20.3 17.2 L 20.3 15.357 L 21.9 15.357 L 21.9 17.2 L 26 17.2 L 26 15.357 L 28 15.357 L 28 26 L 8 26 Z M 9.6 24 L 14.1 24 L 14.1 18.8 L 9.6 18.8 Z M 14.1 11.6 L 9.6 11.6 L 9.6 17.2 L 14.1 17.2 Z M 26 24 L 26 18.8 L 21.9 18.8 L 21.9 24 Z M 15.7 24 L 20.3 24 L 20.3 18.8 L 15.7 18.8 Z" class="clr-i-outline--alerted clr-i-outline-path-2--alerted"></path><path class="clr-i-outline--alerted clr-i-outline-path-22--alerted clr-i-alert" d="M 26.854 1.144 L 21.134 11.004 C 20.579 11.818 21.114 12.928 22.097 13.001 C 22.142 13.005 22.188 13.006 22.234 13.004 L 33.684 13.004 C 34.669 13.036 35.319 11.991 34.855 11.122 C 34.834 11.081 34.81 11.042 34.784 11.004 L 29.064 1.144 C 28.57 0.299 27.348 0.299 26.854 1.144 Z"></path>
    <rect x="0" y="0" width="36" height="36" fill-opacity="0"/>
</svg>