<svg id="Layer_1" data-name="Layer 1" xmlns="http://www.w3.org/2000/svg" xmlns:xlink="http://www.w3.org/1999/xlink" viewBox="0 0 444 108"><defs><style>.cls-1,.cls-6{fill:none;}.cls-2{fill:#eee;}.cls-3{clip-path:url(#clip-path);}.cls-4{fill:#002538;}.cls-5,.cls-8,.cls-9{fill:#fafafa;}.cls-6{stroke:#fff;stroke-linecap:square;opacity:0.15;}.cls-6,.cls-9{isolation:isolate;}.cls-7{fill:#fff;}.cls-8{fill-opacity:0.65;}.cls-9{opacity:0.65;}</style><clipPath id="clip-path"><polygon id="a" class="cls-1" points="0 0 444 0 430.91 12.11 444 23.21 430.91 35.33 444 47.44 430.91 59.55 444 71.66 430.91 84.78 444 96.9 430.91 108 0 108 0 0"/></clipPath></defs><title>header_01</title><polygon id="a-2" data-name="a" class="cls-2" points="0 0 444 0 430.91 12.11 444 23.21 430.91 35.33 444 47.44 430.91 59.55 444 71.66 430.91 84.78 444 96.9 430.91 108 0 108 0 0"/><g class="cls-3"><rect class="cls-4" x="26" y="24" width="418" height="60"/></g><path class="cls-5" d="M84.74,59h1.62V50.66L92.68,59H94.3V48H92.68v8.34L86.36,48H84.74Zm16,.19a4.33,4.33,0,1,1,4.34-4.34A4.41,4.41,0,0,1,100.76,59.19Zm0-1.38a3,3,0,1,0-2.78-3A2.9,2.9,0,0,0,100.76,57.82Zm10.06-.3a1.24,1.24,0,0,1-.85.3.91.91,0,0,1-.85-1V52.07h2V50.73h-2V48.46h-1.55v2.27h-1.25v1.34h1.25v4.86a2.12,2.12,0,0,0,2.18,2.26,2.66,2.66,0,0,0,1.65-.59Zm6,.27a3.61,3.61,0,0,0,2.37-.9l1,1a5,5,0,0,1-3.34,1.28,4.25,4.25,0,0,1-4.26-4.35,4.15,4.15,0,0,1,4.13-4.3c2.53,0,4,1.92,4,4.88h-6.51A2.63,2.63,0,0,0,116.81,57.78Zm0-5.84a2.59,2.59,0,0,0-2.58,2.21h5A2.3,2.3,0,0,0,116.76,51.94Zm19,7.06-1-2.24h-5.73l-1,2.24h-1.79l4.72-11h1.79l4.72,11Zm-6.06-3.7h4.48L132,50.09Zm14-4.77c2.18,0,3.81,1.79,3.81,4.32s-1.63,4.34-3.81,4.34a3.36,3.36,0,0,1-2.94-1.63v4.19h-1.57v-11h1.57v1.42A3.38,3.38,0,0,1,143.75,50.54Zm-.38,7.28a2.68,2.68,0,0,0,2.59-3,2.6,2.6,0,1,0-5.15,0A2.68,2.68,0,0,0,143.37,57.82Zm10.7-7.28c2.18,0,3.81,1.79,3.81,4.32s-1.63,4.34-3.81,4.34a3.36,3.36,0,0,1-2.94-1.63v4.19h-1.57v-11h1.57v1.42A3.38,3.38,0,0,1,154.07,50.54Zm-.38,7.28a2.68,2.68,0,0,0,2.59-3,2.6,2.6,0,1,0-5.15,0A2.68,2.68,0,0,0,153.69,57.82Z"/><path class="cls-6" d="M180,34V74"/><path class="cls-7" d="M61.52,41H48.63A1.63,1.63,0,0,0,47,42.67V65.33A1.62,1.62,0,0,0,48.63,67H67.39a1.63,1.63,0,0,0,1.54-1.67v-17Zm.11,2.39,5,4.92h-5Zm-13,22V42.63H60v7.31h7.31V65.38Z"/><polygon id="a-3" data-name="a" class="cls-1" points="0 0 444 0 430.91 12.11 444 23.21 430.91 35.33 444 47.44 430.91 59.55 444 71.66 430.91 84.78 444 96.9 430.91 108 0 108 0 0"/><path class="cls-8" d="M222,47.06l-4.27-4.29a1.51,1.51,0,0,0-2.12,0L200.44,57.88l-1.38,6a1.5,1.5,0,0,0,1.45,1.82,1.56,1.56,0,0,0,.31,0l6-1.38L222,49.18A1.51,1.51,0,0,0,222,47.06ZM206.13,63l-5.65,1.19,1.29-5.54,11.32-11.28,4.36,4.36Zm12.3-12.33-4.36-4.36,2.53-2.52,4.29,4.36Z"/><path class="cls-9" d="M236.7,57.86a5,5,0,0,0,3.54-1.51l-1-1a3.49,3.49,0,0,1-2.55,1.16,3.68,3.68,0,0,1,0-7.35,3.49,3.49,0,0,1,2.55,1.16l1-1a4.93,4.93,0,0,0-3.54-1.51,5,5,0,1,0,0,10Zm8.36,0a3.79,3.79,0,1,1,3.79-3.79A3.86,3.86,0,0,1,245.06,57.86Zm0-1.2a2.59,2.59,0,1,0-2.44-2.59A2.53,2.53,0,0,0,245.06,56.65Zm13.51-6.37a2.41,2.41,0,0,0-2.35,1.46,2.5,2.5,0,0,0-2.32-1.46,2.23,2.23,0,0,0-2,1.18v-1h-1.39v7.24h1.39V53.17a1.65,1.65,0,0,1,1.76-1.68,1.61,1.61,0,0,1,1.54,1.81v4.4h1.36V53.17a1.65,1.65,0,0,1,1.76-1.68,1.61,1.61,0,0,1,1.54,1.81v4.4h1.36V53.08A2.61,2.61,0,0,0,258.57,50.28Zm8.61,0c1.9,0,3.33,1.57,3.33,3.78s-1.43,3.79-3.33,3.79a2.94,2.94,0,0,1-2.58-1.43V60.1h-1.37V50.45h1.37V51.7A3,3,0,0,1,267.18,50.28Zm-.34,6.37a2.61,2.61,0,1,0-2.24-2.59A2.35,2.35,0,0,0,266.84,56.65Zm8.78,1.2a3.79,3.79,0,1,1,3.79-3.79A3.86,3.86,0,0,1,275.62,57.86Zm0-1.2a2.59,2.59,0,1,0-2.44-2.59A2.53,2.53,0,0,0,275.62,56.65Zm8,1.2c1.58,0,2.74-.87,2.74-2.24s-1.27-1.83-2.46-2.18-1.67-.55-1.67-1.11.56-.85,1.27-.85a4.05,4.05,0,0,1,2.06.67l.62-1a5,5,0,0,0-2.67-.84c-1.54,0-2.65.87-2.63,2.2,0,1.18.83,1.65,2.49,2.11.9.25,1.64.46,1.64,1.13s-.56.94-1.37.94a4.17,4.17,0,0,1-2.45-.88l-.66,1A5.07,5.07,0,0,0,283.66,57.86Zm7.67-1.23a3.16,3.16,0,0,0,2.07-.78l.87.9a4.36,4.36,0,0,1-2.93,1.12A3.72,3.72,0,0,1,287.62,54a3.63,3.63,0,0,1,3.61-3.77c2.21,0,3.49,1.68,3.49,4.27H289A2.3,2.3,0,0,0,291.33,56.63Zm0-5.11A2.27,2.27,0,0,0,289,53.45h4.34A2,2,0,0,0,291.29,51.51Zm6.5.32V50.45H296.4v7.24h1.39V53.57a2.44,2.44,0,0,1,2.69-2.09v-1.2A2.86,2.86,0,0,0,297.78,51.84Z"/></svg>