<svg xmlns="http://www.w3.org/2000/svg" viewBox="0 0 768.33 60"><defs><style>.cls-1{fill:#002538;}.cls-2,.cls-4{fill:#fff;}.cls-2,.cls-3{opacity:0.15;isolation:isolate;}.cls-3{fill:none;stroke:#fff;stroke-linecap:square;}.cls-5,.cls-7{opacity:0.65;}.cls-6,.cls-7,.cls-8{fill:#fafafa;}.cls-6{fill-rule:evenodd;}</style></defs><title>header_svg</title><g id="Layer_5" data-name="Layer 5"><rect class="cls-1" x="0.17" width="768" height="60"/><rect class="cls-2" x="292.96" width="141" height="60"/><path class="cls-3" d="M205,10V50"/><path class="cls-3" d="M709.17,10V50"/><path class="cls-4" d="M45.88,17H33a1.62,1.62,0,0,0-1.62,1.67V41.33A1.62,1.62,0,0,0,33,43H51.76a1.63,1.63,0,0,0,1.54-1.67v-17ZM46,19.39l5,4.92H46Zm-13,22V18.63H44.36v7.31h7.31V41.37Z"/><g class="cls-5"><path class="cls-6" d="M691.78,39l-4.91-4.89-.95.93,4.91,4.89a.67.67,0,0,0,.64.17.66.66,0,0,0,.47-.46A.65.65,0,0,0,691.78,39Z"/><path class="cls-6" d="M679.33,19A8.57,8.57,0,1,0,688,27.57,8.62,8.62,0,0,0,679.33,19Zm0,1.35a7.3,7.3,0,0,1,6.75,4.45,7.15,7.15,0,0,1-1.58,7.86,7.36,7.36,0,0,1-8,1.57A7.21,7.21,0,0,1,672,27.57,7.29,7.29,0,0,1,679.33,20.35Z"/></g><path class="cls-7" d="M734.67,24.92a4.81,4.81,0,1,0,4.81,4.81A4.78,4.78,0,0,0,734.67,24.92Zm0,8.25a3.44,3.44,0,1,1,3.44-3.44A3.4,3.4,0,0,1,734.67,33.17Z"/><path class="cls-7" d="M744.78,27.73l-1.92-.62-.41-1,1-1.79A1.16,1.16,0,0,0,743.2,23l-1.65-1.65a1.16,1.16,0,0,0-1.31-.21l-1.79,1-1-.41-.62-1.93a1.12,1.12,0,0,0-1-.76h-2.34a1,1,0,0,0-1,.83l-.62,1.93a3,3,0,0,0-1.1.41l-1.79-1a1.16,1.16,0,0,0-1.31.21L726,23.06a1.16,1.16,0,0,0-.21,1.31l.89,1.72c-.14.34-.28.76-.41,1.1l-1.93.62a1.12,1.12,0,0,0-.76,1v2.34a1.09,1.09,0,0,0,.83,1l1.93.62.41,1-1,1.79a1.16,1.16,0,0,0,.21,1.31l1.65,1.65a1.16,1.16,0,0,0,1.31.21l1.79-1,1,.41.62,2a1.12,1.12,0,0,0,1,.76h2.34a1.12,1.12,0,0,0,1-.76l.62-2,1-.41,1.79,1a1.16,1.16,0,0,0,1.31-.21l1.65-1.65a1.16,1.16,0,0,0,.21-1.31l-1-1.79.41-1,2-.62a1.12,1.12,0,0,0,.76-1V28.83A1.18,1.18,0,0,0,744.78,27.73ZM744.23,31l-2.48.76-.07.34-.62,1.44-.21.34,1.24,2.27-1.38,1.38-2.27-1.24-.34.21a6.53,6.53,0,0,1-1.44.62l-.34.07-.76,2.48h-1.92l-.76-2.48-.34-.07-1.44-.62-.34-.21-2.27,1.24-1.38-1.38,1.24-2.27-.21-.34a6.53,6.53,0,0,1-.62-1.44l-.07-.34L725,31V29l2.34-.69.14-.34a5.84,5.84,0,0,1,.62-1.51l.21-.34-1.17-2.27,1.38-1.38,2.2,1.24.34-.21a5.84,5.84,0,0,1,1.51-.62l.34-.14.76-2.41h1.92l.76,2.41.34.14a6.53,6.53,0,0,1,1.44.62l.34.21,2.27-1.24,1.38,1.38-1.24,2.27.21.34a6.53,6.53,0,0,1,.62,1.44l.07.34,2.48.76Z"/><path class="cls-7" d="M752.69,31.77a.41.41,0,0,1-.29-.12L749.84,29a.41.41,0,0,1,.59-.57l2.27,2.35L755,28.36a.41.41,0,0,1,.59.57L753,31.64A.41.41,0,0,1,752.69,31.77Z"/><path class="cls-8" d="M317.51,33.42l1-1.25a4.59,4.59,0,0,0,3.17,1.3c1.19,0,1.81-.59,1.81-1.27s-.69-1.06-2.23-1.43c-2-.46-3.38-1-3.38-2.84S319.32,25,321.35,25A5.35,5.35,0,0,1,325,26.36l-1,1.29a4.27,4.27,0,0,0-2.76-1.13c-1,0-1.62.59-1.62,1.26s.71,1.06,2.24,1.42c2,.45,3.35,1.09,3.35,2.84S323.93,35,321.63,35A5.88,5.88,0,0,1,317.51,33.42Z"/><path class="cls-8" d="M333.42,30.21v4.61h-1.65V30.55a1.55,1.55,0,0,0-1.53-1.68,1.68,1.68,0,0,0-1.76,1.57v4.38h-1.71V25h1.71v3.54a2.72,2.72,0,0,1,4.94,1.64Z"/><path class="cls-8" d="M341.52,30.46v4.36h-1.67V34a3,3,0,0,1-2.28,1,2.42,2.42,0,0,1-2.7-2.31c0-1.43,1.33-2.41,3-2.41a5.81,5.81,0,0,1,2,.39v-.2a1.57,1.57,0,0,0-1.78-1.65,4.43,4.43,0,0,0-2,.55l-.59-1.19a6.51,6.51,0,0,1,2.88-.76A2.88,2.88,0,0,1,341.52,30.46Zm-1.67,2.09v-.81a5.52,5.52,0,0,0-1.78-.28c-.85,0-1.54.48-1.54,1.16s.6,1.12,1.42,1.12A1.89,1.89,0,0,0,339.86,32.55Z"/><path class="cls-8" d="M347.71,27.41v1.46a2.32,2.32,0,0,0-2.59,2.3v3.66h-1.71V27.58h1.71V29A2.76,2.76,0,0,1,347.71,27.41Z"/><path class="cls-8" d="M354.22,32.75l1.08,1.12A4.39,4.39,0,0,1,352.36,35a3.73,3.73,0,0,1-3.78-3.81,3.66,3.66,0,0,1,3.68-3.77c2.24,0,3.54,1.7,3.54,4.37h-5.46a2,2,0,0,0,2,1.7A2.86,2.86,0,0,0,354.22,32.75Zm-3.87-2.27h3.81a1.8,1.8,0,0,0-1.83-1.55A2,2,0,0,0,350.35,30.48Z"/><path class="cls-8" d="M364.5,25v9.79h-1.71V33.7A3,3,0,0,1,360.28,35c-1.92,0-3.32-1.57-3.32-3.8s1.4-3.78,3.32-3.78a3,3,0,0,1,2.51,1.29V25Zm-1.71,6.16a2.11,2.11,0,0,0-2-2.33,2.13,2.13,0,0,0-2.09,2.33,2.14,2.14,0,0,0,2.09,2.34A2.12,2.12,0,0,0,362.79,31.19Z"/><path class="cls-8" d="M370.56,25.2h1.75L377.39,32V25.2h1.74v9.62h-1.74l-5.08-6.77v6.77h-1.75Z"/><path class="cls-8" d="M380.8,31.19a3.88,3.88,0,1,1,3.88,3.8A3.88,3.88,0,0,1,380.8,31.19Zm6.08,0a2.21,2.21,0,1,0-2.2,2.34A2.3,2.3,0,0,0,386.88,31.19Z"/><path class="cls-8" d="M394.15,34.41a2.46,2.46,0,0,1-1.54.57,2,2,0,0,1-2-2.09V29h-1.05V27.58h1.05v-2h1.67v2h1.64V29h-1.64v3.7a.76.76,0,0,0,.71.84,1,1,0,0,0,.71-.27Z"/><path class="cls-8" d="M400.73,32.75l1.08,1.12A4.39,4.39,0,0,1,398.87,35a3.73,3.73,0,0,1-3.78-3.81,3.66,3.66,0,0,1,3.68-3.77c2.24,0,3.54,1.7,3.54,4.37h-5.46a2,2,0,0,0,2,1.7A2.86,2.86,0,0,0,400.73,32.75Zm-3.87-2.27h3.81a1.8,1.8,0,0,0-1.83-1.55A2,2,0,0,0,396.86,30.48Z"/><path class="cls-8" d="M403.3,33.89l.77-1.19a4.13,4.13,0,0,0,2.42.84c.69,0,1.16-.29,1.16-.74s-.63-.74-1.46-1c-1.57-.41-2.56-.85-2.58-2.14s1.12-2.28,2.73-2.28a5.16,5.16,0,0,1,2.77.87l-.71,1.25a4,4,0,0,0-2.06-.66c-.6,0-1.06.24-1.06.64s.38.6,1.48.92,2.54.76,2.54,2.27S408.16,35,406.47,35A5.19,5.19,0,0,1,403.3,33.89Z"/><g class="cls-5"><path class="cls-8" d="M229.89,25.1h1.75l5.08,6.77V25.1h1.74v9.62h-1.74L231.64,28v6.77h-1.75Z"/><path class="cls-8" d="M240.14,31.1A3.88,3.88,0,1,1,244,34.9,3.88,3.88,0,0,1,240.14,31.1Zm6.08,0a2.21,2.21,0,1,0-2.2,2.34A2.3,2.3,0,0,0,246.22,31.1Z"/><path class="cls-8" d="M253.49,34.32a2.46,2.46,0,0,1-1.54.57,2,2,0,0,1-2-2.09V28.9h-1.05V27.49h1.05v-2h1.67v2h1.64V28.9h-1.64v3.7a.76.76,0,0,0,.71.84,1,1,0,0,0,.71-.27Z"/><path class="cls-8" d="M260.07,32.65l1.08,1.12a4.39,4.39,0,0,1-2.94,1.12,3.73,3.73,0,0,1-3.78-3.81,3.66,3.66,0,0,1,3.68-3.77c2.24,0,3.54,1.7,3.54,4.37h-5.46a2,2,0,0,0,2,1.7A2.86,2.86,0,0,0,260.07,32.65Zm-3.87-2.27H260a1.8,1.8,0,0,0-1.83-1.55A2,2,0,0,0,256.2,30.38Z"/><path class="cls-8" d="M262.64,33.8l.77-1.19a4.13,4.13,0,0,0,2.42.84c.69,0,1.16-.29,1.16-.74s-.63-.74-1.46-1C264,31.34,263,30.89,263,29.6s1.12-2.28,2.73-2.28a5.16,5.16,0,0,1,2.77.87l-.71,1.25a4,4,0,0,0-2.06-.66c-.6,0-1.06.24-1.06.64s.38.6,1.48.92,2.54.76,2.54,2.27-1.15,2.28-2.84,2.28A5.19,5.19,0,0,1,262.64,33.8Z"/></g><path class="cls-8" d="M70.06,23.13h1.62L78,31.46V23.13h1.62v11H78l-6.32-8.34v8.34H70.06Z"/><path class="cls-8" d="M81.71,30a4.35,4.35,0,1,1,4.37,4.34A4.4,4.4,0,0,1,81.71,30Zm7.12,0a2.78,2.78,0,1,0-2.75,3A2.89,2.89,0,0,0,88.83,30Z"/><path class="cls-8" d="M96.71,33.72a2.66,2.66,0,0,1-1.65.59,2.12,2.12,0,0,1-2.18-2.26V27.19H91.64V25.85h1.25V23.57h1.55v2.27h2v1.34h-2v4.75a.91.91,0,0,0,.85,1,1.24,1.24,0,0,0,.85-.3Z"/><path class="cls-8" d="M104.49,32l1,1a5,5,0,0,1-3.35,1.28A4.25,4.25,0,0,1,97.88,30,4.15,4.15,0,0,1,102,25.65c2.53,0,4,1.92,4,4.88H99.48a2.63,2.63,0,0,0,2.64,2.37A3.62,3.62,0,0,0,104.49,32Zm-5-2.74h5a2.31,2.31,0,0,0-2.38-2.21A2.59,2.59,0,0,0,99.5,29.27Z"/><path class="cls-8" d="M120.16,31.88h-5.73l-1,2.24h-1.79l4.72-11h1.79l4.72,11h-1.79Zm-.62-1.46-2.24-5.22-2.24,5.22Z"/><path class="cls-8" d="M132.88,30c0,2.54-1.63,4.34-3.81,4.34a3.36,3.36,0,0,1-2.95-1.63v4.19h-1.57v-11h1.57v1.42a3.38,3.38,0,0,1,2.95-1.62C131.24,25.65,132.88,27.45,132.88,30Zm-1.6,0a2.6,2.6,0,1,0-5.15,0,2.6,2.6,0,1,0,5.15,0Z"/><path class="cls-8" d="M143.2,30c0,2.54-1.63,4.34-3.81,4.34a3.36,3.36,0,0,1-2.95-1.63v4.19h-1.57v-11h1.57v1.42a3.38,3.38,0,0,1,2.95-1.62C141.56,25.65,143.2,27.45,143.2,30Zm-1.6,0a2.6,2.6,0,1,0-5.15,0,2.6,2.6,0,1,0,5.15,0Z"/></g></svg>