<svg version="1.1" width="36" height="36"  viewBox="0 0 36 36" preserveAspectRatio="xMidYMid meet" xmlns="http://www.w3.org/2000/svg" xmlns:xlink="http://www.w3.org/1999/xlink">
    <title>grid-chart-solid</title>
    <path class="clr-i-solid clr-i-solid-path-1" d="M 15 17 L 4 17 C 2.895 17 2 16.105 2 15 L 2 8 C 2 6.895 2.895 6 4 6 L 15 6 C 16.105 6 17 6.895 17 8 L 17 15 C 17 16.105 16.105 17 15 17 Z"></path><path class="clr-i-solid clr-i-solid-path-2" d="M 32 17 L 21 17 C 19.895 17 19 16.105 19 15 L 19 8 C 19 6.895 19.895 6 21 6 L 32 6 C 33.105 6 34 6.895 34 8 L 34 15 C 34 16.105 33.105 17 32 17 Z"></path><path class="clr-i-solid clr-i-solid-path-3" d="M 15 30 L 4 30 C 2.895 30 2 29.105 2 28 L 2 21 C 2 19.895 2.895 19 4 19 L 15 19 C 16.105 19 17 19.895 17 21 L 17 28 C 17 29.105 16.105 30 15 30 Z"></path><path class="clr-i-solid clr-i-solid-path-4" d="M 32 30 L 21 30 C 19.895 30 19 29.105 19 28 L 19 21 C 19 19.895 19.895 19 21 19 L 32 19 C 33.105 19 34 19.895 34 21 L 34 28 C 34 29.105 33.105 30 32 30 Z"></path>
    <rect x="0" y="0" width="36" height="36" fill-opacity="0"/>
</svg>