<svg version="1.1" width="36" height="36"  viewBox="0 0 36 36" preserveAspectRatio="xMidYMid meet" xmlns="http://www.w3.org/2000/svg" xmlns:xlink="http://www.w3.org/1999/xlink">
    <title>pie-chart-solid</title>
    <path class="clr-i-solid clr-i-solid-path-1" d="M 34 7 L 34 29 C 34 30.105 33.105 31 32 31 C 32 31 2 30.105 2 29 L 2 7 C 2 5.896 2.896 5 4 5 L 32 5 C 33.105 5 34 5.896 34 7 Z M 25 19 L 17 19 L 17 11 C 12.582 11 9 14.582 9 19 C 9 23.418 12.582 27 17 27 C 21.418 27 25 23.418 25 19 Z M 19 17 L 27 17 C 27 12.582 23.418 9 19 9 Z"></path>
    <rect x="0" y="0" width="36" height="36" fill-opacity="0"/>
</svg>