<svg version="1.1" width="36" height="36"  viewBox="0 0 36 36" preserveAspectRatio="xMidYMid meet" xmlns="http://www.w3.org/2000/svg" xmlns:xlink="http://www.w3.org/1999/xlink">
    <title>align-right-text-line</title>
    <path d="M14.65,27.1a1.1,1.1,0,0,0,1.1,1.1H30V26H15.75A1.1,1.1,0,0,0,14.65,27.1Z" class="clr-i-outline clr-i-outline-path-1"></path><path d="M6.9,21.1A1.1,1.1,0,0,0,8,22.2H30V20H8A1.1,1.1,0,0,0,6.9,21.1Z" class="clr-i-outline clr-i-outline-path-2"></path><path d="M13.4,15.1a1.1,1.1,0,0,0,1.1,1.1H30V14H14.5A1.1,1.1,0,0,0,13.4,15.1Z" class="clr-i-outline clr-i-outline-path-3"></path><path d="M6.75,8a1.1,1.1,0,1,0,0,2.2H30V8Z" class="clr-i-outline clr-i-outline-path-4"></path>
    <rect x="0" y="0" width="36" height="36" fill-opacity="0"/>
</svg>