<svg version="1.1" width="36" height="36"  viewBox="0 0 36 36" preserveAspectRatio="xMidYMid meet" xmlns="http://www.w3.org/2000/svg" xmlns:xlink="http://www.w3.org/1999/xlink">
    <title>axis-chart-line</title>
    <path class="clr-i-outline clr-i-outline-path-1" d="M 32 5 L 4 5 C 2.895 5 2 5.895 2 7 L 2 29 C 2 30.105 2.895 31 4 31 L 32 31 C 33.105 31 34 30.105 34 29 L 34 7 C 34 5.895 33.105 5 32 5 Z M 4 29 L 4 7 L 32 7 L 32 29 Z"></path><path class="clr-i-outline clr-i-outline-path-2" d="M 6.007 26.731 L 27.73 26.73 C 28.49 26.67 28.91 25.8 28.47 25.17 C 28.3 24.92 28.03 24.76 27.73 24.74 L 8.001 24.736 L 8.01 11.01 C 8.01 10.23 7.17 9.75 6.5 10.14 C 6.19 10.31 6 10.65 6 11.01 L 6.007 26.731 Z"></path>
    <rect x="0" y="0" width="36" height="36" fill-opacity="0"/>
</svg>