<svg version="1.1" width="36" height="36"  viewBox="0 0 36 36" preserveAspectRatio="xMidYMid meet" xmlns="http://www.w3.org/2000/svg" xmlns:xlink="http://www.w3.org/1999/xlink">
    <title>heat-map-line</title>
    <path class="clr-i-outline clr-i-outline-path-1" d="M 32 5 L 4 5 C 2.895 5 2 5.895 2 7 L 2 29 C 2 30.105 2.895 31 4 31 L 32 31 C 33.105 31 34 30.105 34 29 L 34 7 C 34 5.895 33.105 5 32 5 Z M 4 29 L 4 7 L 32 7 L 32 29 Z"></path><path d="M 8 10 L 28 10 L 28 26 L 8 26 Z M 9.6 24 L 14.1 24 L 14.1 18.8 L 9.6 18.8 Z M 14.1 11.6 L 9.6 11.6 L 9.6 17.2 L 14.1 17.2 Z M 26 24 L 26 18.8 L 21.9 18.8 L 21.9 24 Z M 26 11.6 L 21.9 11.6 L 21.9 17.2 L 26 17.2 Z M 15.7 11.6 L 15.7 17.2 L 20.3 17.2 L 20.3 11.6 Z M 15.7 24 L 20.3 24 L 20.3 18.8 L 15.7 18.8 Z" class="clr-i-outline clr-i-outline-path-2"></path>
    <rect x="0" y="0" width="36" height="36" fill-opacity="0"/>
</svg>