<svg version="1.1" width="36" height="36"  viewBox="0 0 36 36" preserveAspectRatio="xMidYMid meet" xmlns="http://www.w3.org/2000/svg" xmlns:xlink="http://www.w3.org/1999/xlink">
    <title>tick-chart-line</title>
    <path class="clr-i-outline clr-i-outline-path-1" d="M 32 5 L 4 5 C 2.895 5 2 5.895 2 7 L 2 29 C 2 30.105 2.895 31 4 31 L 32 31 C 33.105 31 34 30.105 34 29 L 34 7 C 34 5.895 33.105 5 32 5 Z M 4 29 L 4 7 L 32 7 L 32 29 Z"></path><path class="clr-i-outline clr-i-outline-path-2" d="M 6 25 L 8 25 L 8 22 L 10 22 L 10 25 L 13 25 L 13 22 L 15 22 L 15 25 L 18 25 L 18 22 L 20 22 L 20 25 L 23 25 L 23 22 L 25 22 L 25 25 L 27.723 25 C 28.023 25.02 28.293 25.18 28.463 25.43 C 28.903 26.06 28.483 26.93 27.723 26.99 L 6 26.991 Z"></path>
    <rect x="0" y="0" width="36" height="36" fill-opacity="0"/>
</svg>