<svg version="1.1" width="36" height="36"  viewBox="0 0 36 36" preserveAspectRatio="xMidYMid meet" xmlns="http://www.w3.org/2000/svg" xmlns:xlink="http://www.w3.org/1999/xlink">
    <title>calendar-outline-alerted</title>
    <path class="clr-i-outline--alerted clr-i-outline-path-1--alerted" d="M33.68,15.4H32V30H4V8H7V6H3.75A1.78,1.78,0,0,0,2,7.81V30.19A1.78,1.78,0,0,0,3.75,32h28.5A1.78,1.78,0,0,0,34,30.19V15.38Z"></path><rect class="clr-i-outline--alerted clr-i-outline-path-2--alerted" x="8" y="14" width="2" height="2"></rect><rect class="clr-i-outline--alerted clr-i-outline-path-3--alerted" x="14" y="14" width="2" height="2"></rect><rect class="clr-i-outline--alerted clr-i-outline-path-4--alerted" x="8" y="19" width="2" height="2"></rect><rect class="clr-i-outline--alerted clr-i-outline-path-5--alerted" x="14" y="19" width="2" height="2"></rect><rect class="clr-i-outline--alerted clr-i-outline-path-6--alerted" x="20" y="19" width="2" height="2"></rect><rect class="clr-i-outline--alerted clr-i-outline-path-7--alerted" x="26" y="19" width="2" height="2"></rect><rect class="clr-i-outline--alerted clr-i-outline-path-8--alerted" x="8" y="24" width="2" height="2"></rect><rect class="clr-i-outline--alerted clr-i-outline-path-9--alerted" x="14" y="24" width="2" height="2"></rect><rect class="clr-i-outline--alerted clr-i-outline-path-10--alerted" x="20" y="24" width="2" height="2"></rect><rect class="clr-i-outline--alerted clr-i-outline-path-11--alerted" x="26" y="24" width="2" height="2"></rect><path class="clr-i-outline--alerted clr-i-outline-path-12--alerted" d="M10,10a1,1,0,0,0,1-1V3A1,1,0,0,0,9,3V9A1,1,0,0,0,10,10Z"></path><path class="clr-i-outline--alerted clr-i-outline-path-13--alerted clr-i-alert" d="M26.85,1.14,21.13,11A1.28,1.28,0,0,0,22.23,13H33.68A1.28,1.28,0,0,0,34.78,11L29.06,1.14A1.28,1.28,0,0,0,26.85,1.14Z"></path>
    <rect x="0" y="0" width="36" height="36" fill-opacity="0"/>
</svg>