<svg version="1.1" width="36" height="36"  viewBox="0 0 36 36" preserveAspectRatio="xMidYMid meet" xmlns="http://www.w3.org/2000/svg" xmlns:xlink="http://www.w3.org/1999/xlink">
    <title>date-solid-alerted</title>
    <path class="clr-i-solid--alerted clr-i-solid-path-1--alerted" d="M33.68,15.4H22.23A3.68,3.68,0,0,1,19,9.89L21.29,6H12.2V9A2.2,2.2,0,0,1,7.8,9V6h-4A1.78,1.78,0,0,0,2,7.81V30.19A1.78,1.78,0,0,0,3.75,32h28.5A1.78,1.78,0,0,0,34,30.19V15.38ZM10,26H8V24h2Zm0-5H8V19h2Zm0-5H8V14h2Zm6,10H14V24h2Zm0-5H14V19h2Zm0-5H14V14h2Zm6,10H20V24h2Zm0-5H20V19h2Zm6,5H26V24h2Zm0-5H26V19h2Z"></path><path class="clr-i-solid--alerted clr-i-solid-path-2--alerted" d="M10,10a1,1,0,0,0,1-1V3A1,1,0,0,0,9,3V9A1,1,0,0,0,10,10Z"></path><path class="clr-i-solid--alerted clr-i-solid-path-3--alerted clr-i-alert" d="M26.85,1.14,21.13,11A1.28,1.28,0,0,0,22.23,13H33.68A1.28,1.28,0,0,0,34.78,11L29.06,1.14A1.28,1.28,0,0,0,26.85,1.14Z"></path>
    <rect x="0" y="0" width="36" height="36" fill-opacity="0"/>
</svg>