<svg version="1.1" width="36" height="36"  viewBox="0 0 36 36" preserveAspectRatio="xMidYMid meet" xmlns="http://www.w3.org/2000/svg" xmlns:xlink="http://www.w3.org/1999/xlink">
    <title>tasks-solid-alerted</title>
    <path class="clr-i-solid--alerted clr-i-solid-path-1--alerted" d="M25.88,15.4a1.38,1.38,0,0,1-.11,1.81l-9.12,9.12-5.24-5.24a1.4,1.4,0,0,1,2-2l3.26,3.26,7-7H22.23A3.68,3.68,0,0,1,19,9.89l0-.09H11.25V8a1,1,0,0,1,1-1h3.44V6.32a2.31,2.31,0,0,1,4.63,0V7h.42L22,4.76a4.3,4.3,0,0,0-8.09.19H7A1.75,1.75,0,0,0,5,6.64V32.26a1.7,1.7,0,0,0,1.71,1.69H29.29A1.7,1.7,0,0,0,31,32.26V15.4Z"></path><path class="clr-i-solid--alerted clr-i-solid-path-2--alerted clr-i-alert" d="M26.85,1.14,21.13,11A1.28,1.28,0,0,0,22.23,13H33.68A1.28,1.28,0,0,0,34.78,11L29.06,1.14A1.28,1.28,0,0,0,26.85,1.14Z"></path>
    <rect x="0" y="0" width="36" height="36" fill-opacity="0"/>
</svg>