<svg version="1.1" width="36" height="36"  viewBox="0 0 36 36" preserveAspectRatio="xMidYMid meet" xmlns="http://www.w3.org/2000/svg" xmlns:xlink="http://www.w3.org/1999/xlink">
    <title>tasks-outline-alerted</title>
    <path class="clr-i-outline--alerted clr-i-outline-path-1--alerted" d="M19,9.89,19.56,9H12V7.33A.33.33,0,0,1,12.33,7H16V6a2,2,0,0,1,4,0V7h.71l1.16-2a4,4,0,0,0-7.74,0H12.33A2.34,2.34,0,0,0,10,7.33V11h8.64A3.65,3.65,0,0,1,19,9.89Z"></path><path class="clr-i-outline--alerted clr-i-outline-path-2--alerted" d="M24.19,15.4l-7.53,7.53L12.72,19A1,1,0,0,0,11.3,20.4l5.36,5.36L26.71,15.71a1,1,0,0,0,.2-.31Z"></path><path class="clr-i-outline--alerted clr-i-outline-path-3--alerted" d="M29,15.4V32H7V7H9V5H7A1.75,1.75,0,0,0,5,6.69V32.31A1.7,1.7,0,0,0,6.71,34H29.29A1.7,1.7,0,0,0,31,32.31V15.4Z"></path><path class="clr-i-outline--alerted clr-i-outline-path-4--alerted clr-i-alert" d="M26.85,1.14,21.13,11A1.28,1.28,0,0,0,22.23,13H33.68A1.28,1.28,0,0,0,34.78,11L29.06,1.14A1.28,1.28,0,0,0,26.85,1.14Z"></path>
    <rect x="0" y="0" width="36" height="36" fill-opacity="0"/>
</svg>