<svg version="1.1" width="36" height="36"  viewBox="0 0 36 36" preserveAspectRatio="xMidYMid meet" xmlns="http://www.w3.org/2000/svg" xmlns:xlink="http://www.w3.org/1999/xlink">
    <title>bitcoin-solid</title>
    <path d="M21.18,18.47H14.5v6h6.68a2.7,2.7,0,0,0,2.63-2.77v-.48A2.71,2.71,0,0,0,21.18,18.47Z" class="clr-i-solid clr-i-solid-path-1"></path><path d="M23,13.75a2.24,2.24,0,0,0-2.23-2.25H14.5V16h6.3A2.22,2.22,0,0,0,23,13.75Z" class="clr-i-solid clr-i-solid-path-2"></path><path d="M18,2A16,16,0,1,0,34,18,16,16,0,0,0,18,2Zm8.31,19.73A5.22,5.22,0,0,1,21.18,27H21v1.9a1,1,0,0,1-2,0V27H17v1.9a1,1,0,0,1-2,0V27H13.25A1.25,1.25,0,0,1,12,25.75V17.23h0v-7A1.25,1.25,0,0,1,13.25,9H15V7.07a1,1,0,0,1,2,0V9h2V7.07a1,1,0,0,1,2,0V9a4.72,4.72,0,0,1,3.2,8,5.31,5.31,0,0,1,2.11,4.24Z" class="clr-i-solid clr-i-solid-path-3"></path>
    <rect x="0" y="0" width="36" height="36" fill-opacity="0"/>
</svg>