<?xml version="1.0" encoding="UTF-8" standalone="no"?>
<svg width="318px" height="207px" viewBox="0 0 318 207" version="1.1" xmlns="http://www.w3.org/2000/svg" xmlns:xlink="http://www.w3.org/1999/xlink">
    <!-- Generator: Sketch 41.2 (35397) - http://www.bohemiancoding.com/sketch -->
    <title>Group 10</title>
    <desc>Created with Sketch.</desc>
    <defs>
        <rect id="path-1" x="0" y="0" width="78" height="36" rx="3"></rect>
        <mask id="mask-2" maskContentUnits="userSpaceOnUse" maskUnits="objectBoundingBox" x="0" y="0" width="78" height="36" fill="white">
            <use xlink:href="#path-1"></use>
        </mask>
    </defs>
    <g id="Page-1-New-Layout" stroke="none" stroke-width="1" fill="none" fill-rule="evenodd">
        <g id="Jehad's-Version" transform="translate(-750.000000, -1020.000000)">
            <g id="Group-4" transform="translate(708.000000, 974.000000)">
                <g id="Modal/Normal" transform="translate(42.000000, 46.000000)">
                    <g id="Group-10">
                        <g id="Button/Primary" transform="translate(7.000000, 168.000000)" fill="#0079B8">
                            <rect id="background" x="0" y="0" width="78" height="36" rx="3"></rect>
                        </g>
                        <g id="Button/Secondary" transform="translate(98.000000, 168.000000)" stroke="#0079B8" stroke-width="2">
                            <use id="background" mask="url(#mask-2)" xlink:href="#path-1"></use>
                        </g>
                        <g id="Group-3" opacity="0.05" transform="translate(6.000000, 0.000000)">
                            <rect id="Rectangle-6" fill="#000000" x="1" y="0" width="108" height="24"></rect>
                            <rect id="Rectangle-6" fill="#FFFFFF" x="12" y="180" width="56" height="12"></rect>
                            <rect id="Rectangle-6" fill="#0079B8" x="104" y="179" width="56" height="12"></rect>
                            <rect id="Rectangle-6" fill="#565656" x="0" y="42" width="312" height="14"></rect>
                            <rect id="Rectangle-6" fill="#565656" x="0" y="65" width="294" height="14"></rect>
                            <rect id="Rectangle-6" fill="#565656" x="0" y="89" width="221" height="14"></rect>
                        </g>
                        <g id="Group-5" transform="translate(0.000000, 4.000000)">
                            <path d="M6.5,7.5 L111.5,7.5" id="Line" stroke="#853FB3" stroke-linecap="square"></path>
                            <path d="M12.5,7.5 L63.5,7.5" id="Line" stroke="#853FB3" stroke-linecap="square" fill="#853FB3"></path>
                            <path id="Line-decoration-1" d="M63.5,7.5 L52.7,4.5 L52.7,10.5 L63.5,7.5 Z" stroke="#853FB3" stroke-linecap="square" fill="#853FB3"></path>
                            <path d="M6.5,7.5 L6.5,139.5" id="Line" stroke="#853FB3" stroke-linecap="square" fill="#853FB3"></path>
                            <path id="Line-decoration-1" d="M6.5,139.5 L9.5,128.7 L3.5,128.7 L6.5,139.5 Z" stroke="#853FB3" stroke-linecap="square" fill="#853FB3"></path>
                            <circle id="Oval-2" fill="#853FB3" cx="7" cy="7" r="7"></circle>
                            <circle id="Oval-2" fill="#853FB3" cx="115" cy="7" r="7"></circle>
                        </g>
                        <g id="Group-5" transform="translate(0.000000, 50.000000)">
                            <path d="M6.5,7.5 L76.5,7.5" id="Line" stroke="#853FB3" stroke-linecap="square"></path>
                            <circle id="Oval-2" fill="#853FB3" cx="7" cy="7" r="7"></circle>
                            <circle id="Oval-2" fill="#853FB3" cx="83" cy="7" r="7"></circle>
                        </g>
                        <g id="Group-5" transform="translate(7.000000, 105.500000) rotate(90.000000) translate(-7.000000, -105.500000) translate(-94.500000, 98.500000)">
                            <path d="M6.5,7.5 L201.5,7.5" id="Line" stroke="#853FB3" stroke-linecap="square"></path>
                            <circle id="Oval-2" fill="#853FB3" cx="7" cy="7" r="7"></circle>
                            <circle id="Oval-2" fill="#853FB3" cx="196" cy="7" r="7"></circle>
                        </g>
                        <g id="Group-5" transform="translate(0.000000, 88.000000)">
                            <path d="M6.5,7.5 L50.5,7.5" id="Line" stroke="#853FB3" stroke-linecap="square"></path>
                            <circle id="Oval-2" fill="#853FB3" cx="7" cy="7" r="7"></circle>
                            <circle id="Oval-2" fill="#853FB3" cx="54" cy="7" r="7"></circle>
                        </g>
                    </g>
                </g>
            </g>
        </g>
    </g>
</svg>