<svg version="1.1" width="36" height="36"  viewBox="0 0 36 36" preserveAspectRatio="xMidYMid meet" xmlns="http://www.w3.org/2000/svg" xmlns:xlink="http://www.w3.org/1999/xlink">
    <title>applications-solid-alerted</title>
    <rect x="4" y="4" width="6" height="6" class="clr-i-solid--alerted clr-i-solid-path-1--alerted"></rect><rect x="4" y="15" width="6" height="6" class="clr-i-solid--alerted clr-i-solid-path-2--alerted"></rect><rect x="4" y="26" width="6" height="6" class="clr-i-solid--alerted clr-i-solid-path-3--alerted"></rect><rect x="15" y="15" width="6" height="6" class="clr-i-solid--alerted clr-i-solid-path-4--alerted"></rect><rect x="15" y="26" width="6" height="6" class="clr-i-solid--alerted clr-i-solid-path-5--alerted"></rect><rect x="26" y="15" width="6" height="6" class="clr-i-solid--alerted clr-i-solid-path-6--alerted"></rect><rect x="26" y="26" width="6" height="6" class="clr-i-solid--alerted clr-i-solid-path-7--alerted"></rect><path d="M15,10h4L19,9.89,21,6.5V4H15Z" class="clr-i-solid--alerted clr-i-solid-path-8--alerted"></path><path d="M26.85,1.14,21.13,11A1.28,1.28,0,0,0,22.23,13H33.68A1.28,1.28,0,0,0,34.78,11L29.06,1.14A1.28,1.28,0,0,0,26.85,1.14Z" class="clr-i-solid--alerted clr-i-solid-path-9--alerted clr-i-alert"></path>
    <rect x="0" y="0" width="36" height="36" fill-opacity="0"/>
</svg>