<svg version="1.1" width="36" height="36"  viewBox="0 0 36 36" preserveAspectRatio="xMidYMid meet" xmlns="http://www.w3.org/2000/svg" xmlns:xlink="http://www.w3.org/1999/xlink">
    <title>computer-outline-alerted</title>
    <path d="M1,25v3.4A2.6,2.6,0,0,0,3.6,31H32.34a2.6,2.6,0,0,0,2.6-2.6V25Zm32,3.4a.6.6,0,0,1-.6.6H3.56a.6.6,0,0,1-.6-.6V26.53h9.95a1.64,1.64,0,0,0,1.5,1h7.13a1.64,1.64,0,0,0,1.5-1H33Z" class="clr-i-outline--alerted clr-i-outline-path-1--alerted"></path><path d="M9.6,22.88V10.6h9.14A3.64,3.64,0,0,1,19,9.89L19.56,9H8V22.88Z" class="clr-i-outline--alerted clr-i-outline-path-2--alerted"></path><path d="M6,7H20.71l1.15-2H5.5A1.5,1.5,0,0,0,4,6.5V23H6Z" class="clr-i-outline--alerted clr-i-outline-path-3--alerted"></path><rect x="30" y="15.4" width="2" height="7.6" class="clr-i-outline--alerted clr-i-outline-path-4--alerted"></rect><path d="M26.85,1.14,21.13,11A1.28,1.28,0,0,0,22.23,13H33.68A1.28,1.28,0,0,0,34.78,11L29.06,1.14A1.28,1.28,0,0,0,26.85,1.14Z" class="clr-i-outline--alerted clr-i-outline-path-5--alerted clr-i-alert"></path>
    <rect x="0" y="0" width="36" height="36" fill-opacity="0"/>
</svg>