<svg version="1.1" width="36" height="36"  viewBox="0 0 36 36" preserveAspectRatio="xMidYMid meet" xmlns="http://www.w3.org/2000/svg" xmlns:xlink="http://www.w3.org/1999/xlink">
    <title>disconnect-line</title>
    <path d="M12.17,6A6.21,6.21,0,0,0,6,11H2.13v2H6a6.23,6.23,0,0,0,6.21,5H17V6ZM15.1,16H12.17a4.2,4.2,0,0,1-4.31-4,4.17,4.17,0,0,1,4.31-4H15.1Z" class="clr-i-outline clr-i-outline-path-1"></path><path d="M33.92,23H30.14a6.25,6.25,0,0,0-6.21-5H19v2H14a1,1,0,1,0,0,2h5v4H14a1,1,0,0,0-1,1,1,1,0,0,0,1,1h5v2h4.94a6.23,6.23,0,0,0,6.22-5h3.76Zm-10,5H21V20h2.94a4.17,4.17,0,0,1,4.31,4A4.17,4.17,0,0,1,23.94,28Z" class="clr-i-outline clr-i-outline-path-2"></path>
    <rect x="0" y="0" width="36" height="36" fill-opacity="0"/>
</svg>