<svg version="1.1" width="36" height="36"  viewBox="0 0 36 36" preserveAspectRatio="xMidYMid meet" xmlns="http://www.w3.org/2000/svg" xmlns:xlink="http://www.w3.org/1999/xlink">
    <title>export-outline-alerted</title>
    <path d="M28.32,16.35a1,1,0,0,0-1.41,1.41L30.16,21H18a1,1,0,0,0,0,2H30.19l-3.28,3.28a1,1,0,1,0,1.41,1.41L34,22Z" class="clr-i-outline--alerted clr-i-outline-path-1--alerted"></path><path d="M6,13.61h7.61V6h7.68l1.15-2H10.87L4,10.87V30a2,2,0,0,0,2,2H24a2,2,0,0,0,2-2H6Zm0-1.92L11.69,6H12v6H6Z" class="clr-i-outline--alerted clr-i-outline-path-2--alerted"></path><path d="M26.85,1.14,21.13,11A1.28,1.28,0,0,0,22.23,13H33.68A1.28,1.28,0,0,0,34.78,11L29.06,1.14A1.28,1.28,0,0,0,26.85,1.14Z" class="clr-i-outline--alerted clr-i-outline-path-3--alerted clr-i-alert"></path>
    <rect x="0" y="0" width="36" height="36" fill-opacity="0"/>
</svg>