<svg version="1.1" width="36" height="36"  viewBox="0 0 36 36" preserveAspectRatio="xMidYMid meet" xmlns="http://www.w3.org/2000/svg" xmlns:xlink="http://www.w3.org/1999/xlink">
    <title>hard-disk-solid-alerted</title>
    <path class="clr-i-solid--alerted clr-i-solid-path-1--alerted" d="M2,22v7a2,2,0,0,0,2,2H32a2,2,0,0,0,2-2V22Zm28,5H26V25h4Z"></path><path class="clr-i-solid--alerted clr-i-solid-path-2--alerted" d="M32.58,15.4H22.23A3.68,3.68,0,0,1,19,9.89L20.71,7H7.06A2,2,0,0,0,5.13,8.47L2.29,20H33.71Z"></path><path class="clr-i-solid--alerted clr-i-solid-path-3--alerted clr-i-alert" d="M26.85,1.14,21.13,11A1.28,1.28,0,0,0,22.23,13H33.68A1.28,1.28,0,0,0,34.78,11L29.06,1.14A1.28,1.28,0,0,0,26.85,1.14Z"></path>
    <rect x="0" y="0" width="36" height="36" fill-opacity="0"/>
</svg>