<svg version="1.1" width="36" height="36"  viewBox="0 0 36 36" preserveAspectRatio="xMidYMid meet" xmlns="http://www.w3.org/2000/svg" xmlns:xlink="http://www.w3.org/1999/xlink">
    <title>network-settings-line</title>
    <path d="M10.85,27.44a2.29,2.29,0,0,0,1.74-1.68c.54-.14,1.06-.32,1.59-.51v-1.2a2.77,2.77,0,0,1,.06-.51,17.44,17.44,0,0,1-1.82.62,2.28,2.28,0,0,0-4.28.63l-.45,0h0a11.93,11.93,0,0,1-2.88-7.27,17.79,17.79,0,0,1,5-4.72,2.23,2.23,0,0,0,2.29.56,18.52,18.52,0,0,0,4.47,5,2.74,2.74,0,0,1,.21-.24l.95-.91a16.9,16.9,0,0,1-4.35-4.79,2.27,2.27,0,0,0,.35-1.2c0-.07,0-.14,0-.22A17.69,17.69,0,0,1,25,11a17.49,17.49,0,0,1-1.15,3.34l.19,0h1.56a19,19,0,0,0,.91-2.72c.43.19.84.41,1.26.64a11.94,11.94,0,0,1,1,4.09l0,0A2.77,2.77,0,0,1,30,16a2.73,2.73,0,0,1,.68.1A14,14,0,1,0,16.08,31a2.72,2.72,0,0,1,0-2A11.93,11.93,0,0,1,10.85,27.44ZM16.76,5a12,12,0,0,1,8.61,3.66c0,.25,0,.51-.08.76a19.21,19.21,0,0,0-12.35.11A2.28,2.28,0,0,0,11.74,9a17,17,0,0,1-.61-2.53A11.92,11.92,0,0,1,16.76,5ZM9.66,7.36a18.72,18.72,0,0,0,.49,1.92,2.28,2.28,0,0,0-1.07,1.93s0,.1,0,.15A19.45,19.45,0,0,0,5,14.79,12,12,0,0,1,9.66,7.36Z" class="clr-i-outline clr-i-outline-path-1"></path><path d="M25,21.19A3.84,3.84,0,1,0,28.88,25,3.87,3.87,0,0,0,25,21.19Zm0,6.08A2.24,2.24,0,1,1,27.28,25,2.26,2.26,0,0,1,25,27.27Z" class="clr-i-outline clr-i-outline-path-2"></path><path d="M34.17,24.14a1.14,1.14,0,0,0-.7-1.1l-1.56-.46q-.11-.32-.26-.63l.72-1.33a1.14,1.14,0,0,0-.21-1.34l-1.34-1.32a1.14,1.14,0,0,0-1.34-.2l-1.34.71a7.28,7.28,0,0,0-.67-.28L27,16.71a1.14,1.14,0,0,0-1.08-.76H24a1.14,1.14,0,0,0-1.08.8l-.44,1.43a7.32,7.32,0,0,0-.68.28l-1.32-.7a1.14,1.14,0,0,0-1.33.19l-1.37,1.31a1.14,1.14,0,0,0-.21,1.35l.7,1.28q-.16.32-.28.65L16.58,23a1.13,1.13,0,0,0-.81,1.09v1.87A1.14,1.14,0,0,0,16.59,27l1.47.44q.12.32.28.64l-.72,1.35a1.14,1.14,0,0,0,.2,1.35l1.34,1.32a1.14,1.14,0,0,0,1.34.2l1.37-.72q.31.14.63.26l.44,1.47a1.14,1.14,0,0,0,1.09.8h1.9A1.14,1.14,0,0,0,27,33.31l.44-1.47c.21-.07.42-.16.62-.25l1.38.73a1.14,1.14,0,0,0,1.33-.2l1.34-1.32a1.14,1.14,0,0,0,.21-1.35l-.73-1.34q.14-.3.25-.6l1.5-.44A1.13,1.13,0,0,0,34.17,26Zm-1.6,1.5-2,.58-.12.42A5.55,5.55,0,0,1,30,27.73l-.21.38,1,1.79-.86.84-1.82-1-.37.2a5.78,5.78,0,0,1-1.12.46l-.42.12-.59,2H24.38l-.59-1.95-.42-.12A5.86,5.86,0,0,1,22.24,30l-.37-.2-1.81,1-.86-.85,1-1.82-.22-.38a5.6,5.6,0,0,1-.49-1.13l-.13-.41-1.95-.58V24.42l1.94-.58.12-.41a5.53,5.53,0,0,1,.49-1.14l.22-.39-1-1.73.87-.84,1.77.94.38-.21a5.8,5.8,0,0,1,1.17-.49l.41-.12.59-1.91h1.23l.58,1.9.41.12a5.79,5.79,0,0,1,1.16.48l.38.21,1.8-.95.86.85-1,1.77.21.38a5.53,5.53,0,0,1,.47,1.13l.12.42,1.93.57Z" class="clr-i-outline clr-i-outline-path-3"></path>
    <rect x="0" y="0" width="36" height="36" fill-opacity="0"/>
</svg>