<svg version="1.1" width="36" height="36"  viewBox="0 0 36 36" preserveAspectRatio="xMidYMid meet" xmlns="http://www.w3.org/2000/svg" xmlns:xlink="http://www.w3.org/1999/xlink">
    <title>resource-pool-line</title>
    <path d="M18,2A16,16,0,1,0,34,18,16,16,0,0,0,18,2ZM4,18a14,14,0,0,1,27.95-1H17.49L8.3,28.07A14,14,0,0,1,4,18ZM18,32a13.91,13.91,0,0,1-8.16-2.65L18.43,19H31.95A14,14,0,0,1,18,32Z" class="clr-i-outline clr-i-outline-path-1"></path>
    <rect x="0" y="0" width="36" height="36" fill-opacity="0"/>
</svg>