<svg id="Layer_1" data-name="Layer 1" xmlns="http://www.w3.org/2000/svg" viewBox="0 0 16 16">
    <defs>
        <style>
            .cls-1 {
                fill: #007cbb;
                fill-rule: evenodd;
            }
        </style>
    </defs>
    <title>ic_info_16x</title>
    <path
        class="cls-1"
        d="M5,6s2.32-.37,3.7-0.48c0.44,0,1.73.48,1.43,1.13s-2.11,6.43-2.11,6.43a2.48,2.48,0,0,0-.17.72,0.38,0.38,0,0,0,.09.27,0.31,0.31,0,0,0,.24.09,1.52,1.52,0,0,0,.86-0.43,8.6,8.6,0,0,0,1.72-2l0.89,0.42q-2.24,3.4-4.92,3.4a2.12,2.12,0,0,1-1.43-.45,1.55,1.55,0,0,1-.53-1.24,3.27,3.27,0,0,1,.16-1S7,7.1,7,7a1.08,1.08,0,0,0-.58-0.48,7.79,7.79,0,0,0-1.73.2Z"/><path class="cls-1" d="M9,0.57a1.83,1.83,0,0,1,1.34.56,1.83,1.83,0,0,1,.56,1.34,1.83,1.83,0,0,1-.56,1.34,1.9,1.9,0,0,1-2.69,0,1.83,1.83,0,0,1-.56-1.34,1.83,1.83,0,0,1,.56-1.34A1.83,1.83,0,0,1,9,.57"/>
</svg>
