<?xml version="1.0" encoding="UTF-8" standalone="no"?>
<svg width="37px" height="36px" viewBox="0 0 37 36" version="1.1" xmlns="http://www.w3.org/2000/svg" xmlns:xlink="http://www.w3.org/1999/xlink">
    <!-- Generator: Sketch 3.8.3 (29802) - http://www.bohemiancoding.com/sketch -->
    <title>vm bug</title>
    <desc>Created with Sketch.</desc>
    <defs></defs>
    <g id="Headers" stroke="none" stroke-width="1" fill="none" fill-rule="evenodd">
        <g id="CL-Headers-Specs" transform="translate(-262.000000, -175.000000)">
            <g id="01" transform="translate(238.000000, 163.000000)">
                <g id="vm-bug" transform="translate(24.703125, 12.000000)">
                    <rect id="Rectangle-42" fill-opacity="0.25" fill="#DDDDDD" opacity="0.6" x="0" y="0" width="36" height="36" rx="3"></rect>
                    <path d="M7.63948376,13.8762402 C7.32265324,13.2097082 6.53978152,12.9085139 5.80923042,13.219934 C5.07771043,13.5322837 4.80932495,14.3103691 5.13972007,14.9769011 L8.20725954,21.3744923 C8.68977207,22.3784735 9.19844491,22.9037044 10.1528121,22.9037044 C11.1720955,22.9037044 11.6168209,22.3310633 12.0983646,21.3744923 C12.0983646,21.3744923 14.7744682,15.7847341 14.8015974,15.7261685 C14.8287266,15.6666733 14.9149588,15.4863286 15.1872199,15.4872582 C15.4178182,15.490047 15.6106294,15.6657437 15.6106294,15.9018652 L15.6106294,21.3698443 C15.6106294,22.212073 16.0979865,22.9037044 17.0349134,22.9037044 C17.9718403,22.9037044 18.4785754,22.212073 18.4785754,21.3698443 L18.4785754,16.8965503 C18.4785754,16.0338702 19.1219254,15.4742436 20.0007183,15.4742436 C20.8785423,15.4742436 21.4637583,16.0524624 21.4637583,16.8965503 L21.4637583,21.3698443 C21.4637583,22.212073 21.9520842,22.9037044 22.8880423,22.9037044 C23.8240003,22.9037044 24.3326731,22.212073 24.3326731,21.3698443 L24.3326731,16.8965503 C24.3326731,16.0338702 24.9750543,15.4742436 25.8538472,15.4742436 C26.7307023,15.4742436 27.3168871,16.0524624 27.3168871,16.8965503 L27.3168871,21.3698443 C27.3168871,22.212073 27.8052131,22.9037044 28.74214,22.9037044 C29.6771291,22.9037044 30.1848331,22.212073 30.1848331,21.3698443 L30.1848331,16.2783582 C30.1848331,14.4070488 28.6181207,13.0962956 26.7307023,13.0962956 C24.8452216,13.0962956 23.6651006,14.3475536 23.6651006,14.3475536 C23.037253,13.5666793 22.1720247,13.0972252 20.7089847,13.0972252 C19.164557,13.0972252 17.8129406,14.3475536 17.8129406,14.3475536 C17.1841241,13.5666793 16.1154267,13.0972252 15.2308204,13.0972252 C13.8617638,13.0972252 12.7746572,13.675444 12.1119292,15.1302871 L10.1528121,19.5608189 L7.63948376,13.8762402" id="Fill-4" fill="#FFFFFF"></path>
                </g>
            </g>
        </g>
    </g>
</svg>