<svg version="1.1" width="36" height="36"  viewBox="0 0 36 36" preserveAspectRatio="xMidYMid meet" xmlns="http://www.w3.org/2000/svg" xmlns:xlink="http://www.w3.org/1999/xlink">
    <title>analytics-solid-alerted</title>
    <path class="clr-i-solid--alerted clr-i-solid-path-1--alerted" d="M 34 29 C 34 30.105 33.105 31 32 31 L 4 31 C 2.896 31 2 30.105 2 29 L 2 7 C 2 5.896 2.896 5 4 5 L 21.958 5 L 17.625 12.395 C 16.795 13.601 17.594 15.245 19.064 15.351 C 19.134 15.357 19.201 15.359 19.27 15.357 L 27.452 15.357 L 22.38 22.06 L 15.63 12 L 9.28 21.28 L 6.75 19.04 L 5.42 20.53 L 9.65 24.28 L 15.61 15.56 L 22.28 25.5 L 29.959 15.357 L 34 15.357 Z"></path><path class="clr-i-solid--alerted clr-i-solid-path-2--alerted clr-i-alert" d="M 26.854 1.144 L 21.134 11.004 C 20.579 11.818 21.114 12.928 22.097 13.001 C 22.142 13.005 22.188 13.006 22.234 13.004 L 33.684 13.004 C 34.669 13.036 35.319 11.991 34.855 11.122 C 34.834 11.081 34.81 11.042 34.784 11.004 L 29.064 1.144 C 28.57 0.299 27.348 0.299 26.854 1.144 Z"></path>
    <rect x="0" y="0" width="36" height="36" fill-opacity="0"/>
</svg>