<svg version="1.1" width="36" height="36"  viewBox="0 0 36 36" preserveAspectRatio="xMidYMid meet" xmlns="http://www.w3.org/2000/svg" xmlns:xlink="http://www.w3.org/1999/xlink">
    <title>camera-solid</title>
    <path d="M32,8H24.7L23.64,5.28A2,2,0,0,0,21.78,4H14.22a2,2,0,0,0-1.87,1.28L11.3,8H4a2,2,0,0,0-2,2V30a2,2,0,0,0,2,2H32a2,2,0,0,0,2-2V10A2,2,0,0,0,32,8ZM6.17,13.63a.8.8,0,0,1,0-1.6h2.4a.8.8,0,0,1,0,1.6ZM18,28a9,9,0,1,1,9-9A9,9,0,0,1,18,28Z" class="clr-i-solid clr-i-solid-path-1"></path><path d="M11.11,19.06a7.07,7.07,0,0,0,4.11,6.41l1.09-1.74a5,5,0,1,1,5.22-8.39l1.09-1.76a7.06,7.06,0,0,0-11.51,5.48Z" class="clr-i-solid clr-i-solid-path-2"></path>
    <rect x="0" y="0" width="36" height="36" fill-opacity="0"/>
</svg>