<svg version="1.1" width="36" height="36"  viewBox="0 0 36 36" preserveAspectRatio="xMidYMid meet" xmlns="http://www.w3.org/2000/svg" xmlns:xlink="http://www.w3.org/1999/xlink">
    <title>headphones-line</title>
    <path class="clr-i-outline clr-i-outline-path-1" d="M18,3A14.27,14.27,0,0,0,4,17.5V31H9.2A2.74,2.74,0,0,0,12,28.33V21.67A2.74,2.74,0,0,0,9.2,19H6V17.5A12.27,12.27,0,0,1,18,5,12.27,12.27,0,0,1,30,17.5V19H26.8A2.74,2.74,0,0,0,24,21.67v6.67A2.74,2.74,0,0,0,26.8,31H32V17.5A14.27,14.27,0,0,0,18,3ZM9.2,21a.75.75,0,0,1,.8.67v6.67a.75.75,0,0,1-.8.67H6V21ZM26,28.33V21.67a.75.75,0,0,1,.8-.67H30v8H26.8A.75.75,0,0,1,26,28.33Z"></path>
    <rect x="0" y="0" width="36" height="36" fill-opacity="0"/>
</svg>