<svg version="1.1" width="36" height="36"  viewBox="0 0 36 36" preserveAspectRatio="xMidYMid meet" xmlns="http://www.w3.org/2000/svg" xmlns:xlink="http://www.w3.org/1999/xlink">
    <title>rewind-line</title>
    <path class="clr-i-outline clr-i-outline-path-1" d="M17.09,31.58l-15.32-12a2,2,0,0,1,0-3.15l15.32-12a1.93,1.93,0,0,1,2.06-.22A1.77,1.77,0,0,1,20,6v6.7L30.83,4.42a1.93,1.93,0,0,1,2.06-.22A2,2,0,0,1,34,6V30a2,2,0,0,1-1.11,1.79,1.94,1.94,0,0,1-2.06-.22L20,23.31V30a1.77,1.77,0,0,1-.85,1.79,1.94,1.94,0,0,1-2.06-.22ZM32,30l.06-24L18,16.8V6L3,18,18,30V19.2Z"></path>
    <rect x="0" y="0" width="36" height="36" fill-opacity="0"/>
</svg>