<svg version="1.1" width="36" height="36"  viewBox="0 0 36 36" preserveAspectRatio="xMidYMid meet" xmlns="http://www.w3.org/2000/svg" xmlns:xlink="http://www.w3.org/1999/xlink">
    <title>video-camera-solid</title>
    <path class="clr-i-solid clr-i-solid-path-1" d="M32.3,9.35,26,12.9V8a2,2,0,0,0-2-2H6a4,4,0,0,0-4,4V26a4,4,0,0,0,4,4H24a2,2,0,0,0,2-2V23.08l6.3,3.55A1.1,1.1,0,0,0,34,25.77V10.2A1.1,1.1,0,0,0,32.3,9.35Z"></path>
    <rect x="0" y="0" width="36" height="36" fill-opacity="0"/>
</svg>