<svg version="1.1" width="36" height="36"  viewBox="0 0 36 36" preserveAspectRatio="xMidYMid meet" xmlns="http://www.w3.org/2000/svg" xmlns:xlink="http://www.w3.org/1999/xlink">
    <title>tick-chart-solid</title>
    <path class="clr-i-solid clr-i-solid-path-1" d="M 34 7 L 34 29 C 34 30.105 33.105 31 32 31 L 4 31 C 2.896 31 2 30.105 2 29 L 2 7 C 2 5.896 2.896 5 4 5 L 32 5 C 33.105 5 34 5.896 34 7 Z M 6 26.991 L 27.723 26.99 C 28.483 26.93 28.903 26.06 28.463 25.43 C 28.293 25.18 28.023 25.02 27.723 25 L 25 25 L 25 22 L 23 22 L 23 25 L 20 25 L 20 22 L 18 22 L 18 25 L 15 25 L 15 22 L 13 22 L 13 25 L 10 25 L 10 22 L 8 22 L 8 25 L 6 25 Z"></path>
    <rect x="0" y="0" width="36" height="36" fill-opacity="0"/>
</svg>