<svg width="95" height="16" xmlns="http://www.w3.org/2000/svg"><g fill="none" fill-rule="evenodd"><path d="M41.02 13.884L36.915 2.079c-.053-.164-.13-.379-.13-.568 0-.512.418-.997 1.018-.997.524 0 .865.35 1.021.862l3.403 10.172 3.428-10.2c.156-.484.47-.835.991-.835h.106c.55 0 .89.35 1.047.835l3.4 10.2 3.456-10.225c.131-.435.417-.81.968-.81a.98.98 0 0 1 .994.97c0 .19-.08.404-.13.569l-4.133 11.832c-.212.618-.629.942-1.1.942h-.079c-.523 0-.916-.324-1.1-.942L46.7 3.852l-3.403 10.032c-.183.618-.576.942-1.098.942h-.055c-.496 0-.913-.324-1.123-.942M70.957 1.588c0-.57.446-1.056.995-1.056.58 0 1.023.46 1.023 1.056v2.396C73.97 1.657 76.177.559 77.639.559c.606 0 1 .46 1 1.055 0 .569-.366.972-.895 1.054-2.621.324-4.768 2.355-4.768 6.387v4.744c0 .568-.42 1.054-.995 1.054-.577 0-1.023-.462-1.023-1.054V1.589zM85.114 14.863c-3.648 0-6.627-2.921-6.627-7.204v-.056c0-3.989 2.697-7.202 6.37-7.202 3.927 0 6.163 3.344 6.163 7.014 0 .564-.44.968-.926.968h-9.6c.28 2.996 2.307 4.683 4.672 4.683 1.645 0 2.848-.67 3.825-1.607.155-.133.334-.24.567-.24a.88.88 0 0 1 .562 1.553c-1.257 1.258-2.748 2.09-5.006 2.09zm3.928-8.008c-.206-2.519-1.593-4.712-4.239-4.712-2.311 0-4.057 2.007-4.311 4.712h8.55zM56.652 10.48v-.054c0-2.94 2.352-4.506 5.774-4.506 1.726 0 2.953.243 4.158.595v-.487c0-2.507-1.494-3.803-4.026-3.803-1.36 0-2.15.178-3.145.636a.984.984 0 0 1-.363.082.91.91 0 0 1-.89-.89c0-.431.181-.698.55-.866 1.33-.596 2.333-.794 4.057-.794 1.906 0 3.37.51 4.361 1.537.916.944 1.387 2.292 1.387 4.073V13.7c0 .591-.418 1.024-.97 1.024-.573 0-.96-.432-.96-.97v-1.331c-.943 1.27-2.512 2.401-4.886 2.401-2.51-.002-5.047-1.484-5.047-4.343m9.957-1.08V8.053a13.743 13.743 0 0 0-3.974-.594c-2.531 0-3.944 1.134-3.944 2.886v.053c0 1.753 1.566 2.778 3.397 2.778 2.481 0 4.521-1.565 4.521-3.774M4.414 1.549C3.972.548 2.878.094 1.857.563.834 1.032.458 2.202.92 3.203l4.288 9.622c.675 1.508 1.385 2.298 2.719 2.298 1.425 0 2.046-.86 2.72-2.298 0 0 3.74-8.406 3.777-8.494a.543.543 0 0 1 .54-.358.606.606 0 0 1 .592.623v8.22c0 1.268.68 2.307 1.99 2.307 1.309 0 2.017-1.04 2.017-2.306V6.09c0-1.298.9-2.14 2.128-2.14 1.227 0 2.044.873 2.044 2.14v6.727c0 1.267.683 2.306 1.99 2.306 1.31 0 2.02-1.04 2.02-2.306V6.09c0-1.298.897-2.14 2.126-2.14 1.225 0 2.045.873 2.045 2.14v6.727c0 1.267.683 2.306 1.991 2.306 1.309 0 2.019-1.04 2.019-2.306V5.16c0-2.814-2.192-4.785-4.83-4.785-2.634 0-4.284 1.881-4.284 1.881C25.935 1.084 24.726.38 22.68.38c-2.16 0-4.049 1.878-4.049 1.878C17.756 1.084 16.262.38 15.024.38c-1.913 0-3.432.868-4.359 3.056l-2.738 6.662L4.414 1.55zM91.183 13.137v-.012c0-.941.74-1.734 1.67-1.734.943 0 1.673.784 1.673 1.727v.007c0 .945-.738 1.738-1.673 1.738-.943 0-1.67-.782-1.67-1.726m3.022-.012v-.004c0-.775-.58-1.41-1.352-1.41-.765 0-1.354.646-1.354 1.414v.01c0 .771.582 1.406 1.354 1.406.763 0 1.352-.644 1.352-1.416" fill="#696566"/><path d="M92.214 12.495c0-.103.08-.185.18-.185h.557c.21 0 .372.062.473.171a.529.529 0 0 1 .142.38v.006a.513.513 0 0 1-.323.508l.246.31c.034.047.057.085.057.141a.169.169 0 0 1-.169.17c-.079 0-.133-.042-.174-.095l-.347-.453h-.285v.364a.178.178 0 0 1-.177.183.18.18 0 0 1-.18-.183v-1.317zm.717.627c.174 0 .27-.094.27-.236v-.006c0-.155-.103-.24-.276-.24h-.356v.481h.362z" fill="#696566"/></g></svg>