<?xml version="1.0" encoding="UTF-8"?>
<svg width="201px" height="170px" viewBox="0 0 201 170" version="1.1" xmlns="http://www.w3.org/2000/svg" xmlns:xlink="http://www.w3.org/1999/xlink">
    <!-- Generator: Sketch 42 (36781) - http://www.bohemiancoding.com/sketch -->
    <title>example_tree_lazyloading</title>
    <desc>Created with Sketch.</desc>
    <defs>
        <polygon id="path-1" points="16 13.9998 16 0 0.0002 0 0.0002 13.9998 16 13.9998"></polygon>
        <polygon id="path-3" points="16 13.9998 16 0 0.0002 0 0.0002 13.9998 16 13.9998"></polygon>
        <polygon id="path-5" points="16 13.9998 16 0 0.0002 0 0.0002 13.9998 16 13.9998"></polygon>
    </defs>
    <g id="Page-1-New-Layout" stroke="none" stroke-width="1" fill="none" fill-rule="evenodd">
        <g id="Outlined-Text" transform="translate(-729.000000, -4011.000000)">
            <g id="example_tree_lazyloading" transform="translate(720.000000, 4002.000000)">
                <g>
                    <g id="dashboard" transform="translate(74.000000, 103.000000)">
                        <g id="ic_file" fill="#747474">
                            <path d="M2.0007,15.0004 L2.0007,1.0004 L8.5007,1.0004 L8.5007,5.5004 L13.0007,5.5004 L13.0007,15.0004 L2.0007,15.0004 Z M9.5007,1.4704 L12.5607,4.5004 L9.5007,4.5004 L9.5007,1.4704 Z M9.4357,0.0004 L2.0007,0.0004 C1.4477,0.0004 1.0007,0.4474 0.9997,0.9994 C0.9997,1.0084 1.0007,1.0164 1.0007,1.0244 L1.0007,14.9704 C0.9837,15.5214 1.4177,15.9824 1.9707,15.9994 C1.9797,15.9994 1.9897,16.0004 2.0007,16.0004 L13.0507,16.0004 C13.5957,15.9734 14.0177,15.5154 14.0007,14.9704 L14.0007,4.5004 L9.4357,0.0004 Z" id="Fill-1"></path>
                        </g>
                        <path d="M27.656,12.168 C28.986,12.168 30.218,11.594 31.114,10.698 L30.372,9.942 C29.672,10.684 28.706,11.16 27.656,11.16 C25.584,11.16 23.834,9.34 23.834,7.184 C23.834,5.042 25.584,3.222 27.656,3.222 C28.706,3.222 29.672,3.698 30.372,4.44 L31.114,3.684 C30.218,2.774 28.986,2.214 27.656,2.214 C24.996,2.214 22.728,4.482 22.728,7.184 C22.728,9.886 24.996,12.168 27.656,12.168 Z M35.944,12.168 C33.914,12.168 32.192,10.432 32.192,8.374 C32.192,6.316 33.914,4.594 35.944,4.594 C37.974,4.594 39.682,6.316 39.682,8.374 C39.682,10.432 37.974,12.168 35.944,12.168 Z M35.944,11.23 C37.372,11.23 38.576,9.928 38.576,8.374 C38.576,6.834 37.372,5.532 35.944,5.532 C34.502,5.532 33.298,6.834 33.298,8.374 C33.298,9.928 34.502,11.23 35.944,11.23 Z M43.812,12 L44.82,12 L47.858,4.762 L46.682,4.762 L44.316,10.768 L41.908,4.762 L40.732,4.762 L43.812,12 Z M52.562,11.23 C53.416,11.23 54.396,10.852 54.844,10.362 L55.488,11.048 C54.858,11.734 53.584,12.168 52.576,12.168 C50.644,12.168 48.908,10.586 48.908,8.36 C48.908,6.204 50.532,4.594 52.478,4.594 C54.662,4.594 55.908,6.246 55.908,8.78 L49.986,8.78 C50.14,10.194 51.134,11.23 52.562,11.23 Z M52.52,5.532 C51.232,5.532 50.196,6.442 50,7.842 L54.872,7.842 C54.732,6.54 53.962,5.532 52.52,5.532 Z M58.778,6.176 L58.778,4.762 L57.728,4.762 L57.728,12 L58.778,12 L58.778,7.954 C58.778,6.54 59.94,5.532 61.578,5.532 L61.578,4.594 C60.248,4.594 59.212,5.21 58.778,6.176 Z M62.754,8.71 L66.38,8.71 L66.38,7.688 L62.754,7.688 L62.754,8.71 Z M69.208,10.964 L69.208,2.382 L68.116,2.382 L68.116,12 L74.458,12 L74.458,10.964 L69.208,10.964 Z M79.26,11.23 C80.114,11.23 81.094,10.852 81.542,10.362 L82.186,11.048 C81.556,11.734 80.282,12.168 79.274,12.168 C77.342,12.168 75.606,10.586 75.606,8.36 C75.606,6.204 77.23,4.594 79.176,4.594 C81.36,4.594 82.606,6.246 82.606,8.78 L76.684,8.78 C76.838,10.194 77.832,11.23 79.26,11.23 Z M79.218,5.532 C77.93,5.532 76.894,6.442 76.698,7.842 L81.57,7.842 C81.43,6.54 80.66,5.532 79.218,5.532 Z M87.506,10.936 C87.352,11.104 87.072,11.23 86.75,11.23 C86.33,11.23 85.966,10.852 85.966,10.32 L85.966,5.7 L87.744,5.7 L87.744,4.762 L85.966,4.762 L85.966,2.774 L84.916,2.774 L84.916,4.762 L83.782,4.762 L83.782,5.7 L84.916,5.7 L84.916,10.32 C84.916,11.398 85.644,12.168 86.68,12.168 C87.17,12.168 87.646,12 88.024,11.706 L87.506,10.936 Z M92.686,10.936 C92.532,11.104 92.252,11.23 91.93,11.23 C91.51,11.23 91.146,10.852 91.146,10.32 L91.146,5.7 L92.924,5.7 L92.924,4.762 L91.146,4.762 L91.146,2.774 L90.096,2.774 L90.096,4.762 L88.962,4.762 L88.962,5.7 L90.096,5.7 L90.096,10.32 C90.096,11.398 90.824,12.168 91.86,12.168 C92.35,12.168 92.826,12 93.204,11.706 L92.686,10.936 Z M97.95,11.23 C98.804,11.23 99.784,10.852 100.232,10.362 L100.876,11.048 C100.246,11.734 98.972,12.168 97.964,12.168 C96.032,12.168 94.296,10.586 94.296,8.36 C94.296,6.204 95.92,4.594 97.866,4.594 C100.05,4.594 101.296,6.246 101.296,8.78 L95.374,8.78 C95.528,10.194 96.522,11.23 97.95,11.23 Z M97.908,5.532 C96.62,5.532 95.584,6.442 95.388,7.842 L100.26,7.842 C100.12,6.54 99.35,5.532 97.908,5.532 Z M104.166,6.176 L104.166,4.762 L103.116,4.762 L103.116,12 L104.166,12 L104.166,7.954 C104.166,6.54 105.328,5.532 106.966,5.532 L106.966,4.594 C105.636,4.594 104.6,5.21 104.166,6.176 Z M109.15,12.168 C109.556,12.168 109.892,11.818 109.892,11.398 C109.892,11.006 109.556,10.656 109.15,10.656 C108.716,10.656 108.38,11.006 108.38,11.398 C108.38,11.818 108.716,12.168 109.15,12.168 Z M117.62,2.214 L118.67,2.214 L118.67,12 L117.62,12 L117.62,10.642 C117.074,11.594 116.15,12.168 114.988,12.168 C113.084,12.168 111.656,10.6 111.656,8.374 C111.656,6.162 113.084,4.594 114.988,4.594 C116.15,4.594 117.074,5.168 117.62,6.12 L117.62,2.214 Z M115.184,11.23 C116.612,11.23 117.62,10.04 117.62,8.374 C117.62,6.708 116.612,5.532 115.184,5.532 C113.77,5.532 112.762,6.708 112.762,8.374 C112.762,10.04 113.77,11.23 115.184,11.23 Z M124.256,12.168 C122.226,12.168 120.504,10.432 120.504,8.374 C120.504,6.316 122.226,4.594 124.256,4.594 C126.286,4.594 127.994,6.316 127.994,8.374 C127.994,10.432 126.286,12.168 124.256,12.168 Z M124.256,11.23 C125.684,11.23 126.888,9.928 126.888,8.374 C126.888,6.834 125.684,5.532 124.256,5.532 C122.814,5.532 121.61,6.834 121.61,8.374 C121.61,9.928 122.814,11.23 124.256,11.23 Z M133.09,12.168 C134.098,12.168 135.022,11.748 135.708,11.062 L134.98,10.348 C134.49,10.894 133.818,11.23 133.09,11.23 C131.648,11.23 130.444,9.928 130.444,8.374 C130.444,6.834 131.648,5.532 133.09,5.532 C133.804,5.532 134.462,5.854 134.938,6.372 L135.666,5.658 C134.98,5 134.07,4.594 133.09,4.594 C131.06,4.594 129.338,6.316 129.338,8.374 C129.338,10.432 131.06,12.168 133.09,12.168 Z" id="Cover-Letter.doc" fill="#565656"></path>
                    </g>
                    <g id="dashboard-copy" transform="translate(74.000000, 133.000000)">
                        <g id="ic_file" fill="#747474">
                            <path d="M2.0007,15.0004 L2.0007,1.0004 L8.5007,1.0004 L8.5007,5.5004 L13.0007,5.5004 L13.0007,15.0004 L2.0007,15.0004 Z M9.5007,1.4704 L12.5607,4.5004 L9.5007,4.5004 L9.5007,1.4704 Z M9.4357,0.0004 L2.0007,0.0004 C1.4477,0.0004 1.0007,0.4474 0.9997,0.9994 C0.9997,1.0084 1.0007,1.0164 1.0007,1.0244 L1.0007,14.9704 C0.9837,15.5214 1.4177,15.9824 1.9707,15.9994 C1.9797,15.9994 1.9897,16.0004 2.0007,16.0004 L13.0507,16.0004 C13.5957,15.9734 14.0177,15.5154 14.0007,14.9704 L14.0007,4.5004 L9.4357,0.0004 Z" id="Fill-1"></path>
                        </g>
                        <path d="M23.316,12 L24.408,12 L24.408,4.174 L30.372,12 L31.464,12 L31.464,2.382 L30.372,2.382 L30.372,10.208 L24.408,2.382 L23.316,2.382 L23.316,12 Z M37.204,12.168 C35.174,12.168 33.452,10.432 33.452,8.374 C33.452,6.316 35.174,4.594 37.204,4.594 C39.234,4.594 40.942,6.316 40.942,8.374 C40.942,10.432 39.234,12.168 37.204,12.168 Z M37.204,11.23 C38.632,11.23 39.836,9.928 39.836,8.374 C39.836,6.834 38.632,5.532 37.204,5.532 C35.762,5.532 34.558,6.834 34.558,8.374 C34.558,9.928 35.762,11.23 37.204,11.23 Z M45.856,10.936 C45.702,11.104 45.422,11.23 45.1,11.23 C44.68,11.23 44.316,10.852 44.316,10.32 L44.316,5.7 L46.094,5.7 L46.094,4.762 L44.316,4.762 L44.316,2.774 L43.266,2.774 L43.266,4.762 L42.132,4.762 L42.132,5.7 L43.266,5.7 L43.266,10.32 C43.266,11.398 43.994,12.168 45.03,12.168 C45.52,12.168 45.996,12 46.374,11.706 L45.856,10.936 Z M51.12,11.23 C51.974,11.23 52.954,10.852 53.402,10.362 L54.046,11.048 C53.416,11.734 52.142,12.168 51.134,12.168 C49.202,12.168 47.466,10.586 47.466,8.36 C47.466,6.204 49.09,4.594 51.036,4.594 C53.22,4.594 54.466,6.246 54.466,8.78 L48.544,8.78 C48.698,10.194 49.692,11.23 51.12,11.23 Z M51.078,5.532 C49.79,5.532 48.754,6.442 48.558,7.842 L53.43,7.842 C53.29,6.54 52.52,5.532 51.078,5.532 Z M58.75,12.168 C60.248,12.168 61.396,11.314 61.396,9.984 C61.396,8.612 60.192,8.22 59.03,7.856 C57.686,7.422 57.154,7.226 57.154,6.596 C57.154,5.896 57.826,5.532 58.638,5.532 C59.282,5.532 59.996,5.756 60.724,6.218 L61.228,5.406 C60.458,4.902 59.534,4.594 58.638,4.594 C57.196,4.594 56.104,5.406 56.104,6.722 C56.104,7.758 56.776,8.276 58.526,8.78 C59.506,9.06 60.346,9.312 60.346,10.096 C60.346,10.782 59.702,11.23 58.75,11.23 C57.952,11.23 57.126,10.922 56.3,10.32 L55.754,11.09 C56.622,11.79 57.742,12.168 58.75,12.168 Z M63.86,12.168 C64.266,12.168 64.602,11.818 64.602,11.398 C64.602,11.006 64.266,10.656 63.86,10.656 C63.426,10.656 63.09,11.006 63.09,11.398 C63.09,11.818 63.426,12.168 63.86,12.168 Z M69.852,10.936 C69.698,11.104 69.418,11.23 69.096,11.23 C68.676,11.23 68.312,10.852 68.312,10.32 L68.312,5.7 L70.09,5.7 L70.09,4.762 L68.312,4.762 L68.312,2.774 L67.262,2.774 L67.262,4.762 L66.128,4.762 L66.128,5.7 L67.262,5.7 L67.262,10.32 C67.262,11.398 67.99,12.168 69.026,12.168 C69.516,12.168 69.992,12 70.37,11.706 L69.852,10.936 Z M78.056,12 L75.27,8.304 L77.944,4.762 L76.712,4.762 L74.654,7.492 L72.582,4.762 L71.35,4.762 L74.038,8.304 L71.238,12 L72.47,12 L74.654,9.116 L76.824,12 L78.056,12 Z M82.746,10.936 C82.592,11.104 82.312,11.23 81.99,11.23 C81.57,11.23 81.206,10.852 81.206,10.32 L81.206,5.7 L82.984,5.7 L82.984,4.762 L81.206,4.762 L81.206,2.774 L80.156,2.774 L80.156,4.762 L79.022,4.762 L79.022,5.7 L80.156,5.7 L80.156,10.32 C80.156,11.398 80.884,12.168 81.92,12.168 C82.41,12.168 82.886,12 83.264,11.706 L82.746,10.936 Z" id="Notes.txt" fill="#565656"></path>
                    </g>
                    <g id="dashboard-copy-2" transform="translate(74.000000, 163.000000)">
                        <g id="ic_file" fill="#747474">
                            <path d="M2.0007,15.0004 L2.0007,1.0004 L8.5007,1.0004 L8.5007,5.5004 L13.0007,5.5004 L13.0007,15.0004 L2.0007,15.0004 Z M9.5007,1.4704 L12.5607,4.5004 L9.5007,4.5004 L9.5007,1.4704 Z M9.4357,0.0004 L2.0007,0.0004 C1.4477,0.0004 1.0007,0.4474 0.9997,0.9994 C0.9997,1.0084 1.0007,1.0164 1.0007,1.0244 L1.0007,14.9704 C0.9837,15.5214 1.4177,15.9824 1.9707,15.9994 C1.9797,15.9994 1.9897,16.0004 2.0007,16.0004 L13.0507,16.0004 C13.5957,15.9734 14.0177,15.5154 14.0007,14.9704 L14.0007,4.5004 L9.4357,0.0004 Z" id="Fill-1"></path>
                        </g>
                        <path d="M30.554,5.462 C30.554,6.974 29.462,8.122 27.936,8.444 L30.428,12 L29.182,12 L26.746,8.542 L24.198,8.542 L24.198,12 L23.106,12 L23.106,2.382 L27.012,2.382 C29,2.382 30.554,3.656 30.554,5.462 Z M24.198,3.418 L24.198,7.506 L26.816,7.506 C28.384,7.506 29.448,6.75 29.448,5.462 C29.448,4.174 28.384,3.418 26.816,3.418 L24.198,3.418 Z M35.426,11.23 C36.28,11.23 37.26,10.852 37.708,10.362 L38.352,11.048 C37.722,11.734 36.448,12.168 35.44,12.168 C33.508,12.168 31.772,10.586 31.772,8.36 C31.772,6.204 33.396,4.594 35.342,4.594 C37.526,4.594 38.772,6.246 38.772,8.78 L32.85,8.78 C33.004,10.194 33.998,11.23 35.426,11.23 Z M35.384,5.532 C34.096,5.532 33.06,6.442 32.864,7.842 L37.736,7.842 C37.596,6.54 36.826,5.532 35.384,5.532 Z M43.056,12.168 C44.554,12.168 45.702,11.314 45.702,9.984 C45.702,8.612 44.498,8.22 43.336,7.856 C41.992,7.422 41.46,7.226 41.46,6.596 C41.46,5.896 42.132,5.532 42.944,5.532 C43.588,5.532 44.302,5.756 45.03,6.218 L45.534,5.406 C44.764,4.902 43.84,4.594 42.944,4.594 C41.502,4.594 40.41,5.406 40.41,6.722 C40.41,7.758 41.082,8.276 42.832,8.78 C43.812,9.06 44.652,9.312 44.652,10.096 C44.652,10.782 44.008,11.23 43.056,11.23 C42.258,11.23 41.432,10.922 40.606,10.32 L40.06,11.09 C40.928,11.79 42.048,12.168 43.056,12.168 Z M52.534,4.762 L52.534,9.368 C52.534,10.376 51.512,11.23 50.294,11.23 C49.23,11.23 48.488,10.404 48.488,9.228 L48.488,4.762 L47.438,4.762 L47.438,9.368 C47.438,11.006 48.558,12.168 50.154,12.168 C51.176,12.168 52.114,11.608 52.534,10.838 L52.534,12 L53.584,12 L53.584,4.762 L52.534,4.762 Z M63.552,4.594 C62.46,4.594 61.508,5.196 61.214,6.134 C60.822,5.196 59.968,4.594 58.876,4.594 C57.924,4.594 57.14,5.07 56.776,5.826 L56.776,4.762 L55.726,4.762 L55.726,12 L56.776,12 L56.776,7.394 C56.776,6.302 57.588,5.532 58.736,5.532 C59.716,5.532 60.402,6.358 60.402,7.534 L60.402,12 L61.452,12 L61.452,7.394 C61.452,6.302 62.264,5.532 63.412,5.532 C64.392,5.532 65.078,6.358 65.078,7.534 L65.078,12 L66.128,12 L66.128,7.394 C66.128,5.756 65.064,4.594 63.552,4.594 Z M71.518,11.23 C72.372,11.23 73.352,10.852 73.8,10.362 L74.444,11.048 C73.814,11.734 72.54,12.168 71.532,12.168 C69.6,12.168 67.864,10.586 67.864,8.36 C67.864,6.204 69.488,4.594 71.434,4.594 C73.618,4.594 74.864,6.246 74.864,8.78 L68.942,8.78 C69.096,10.194 70.09,11.23 71.518,11.23 Z M71.476,5.532 C70.188,5.532 69.152,6.442 68.956,7.842 L73.828,7.842 C73.688,6.54 72.918,5.532 71.476,5.532 Z M77.314,12.168 C77.72,12.168 78.056,11.818 78.056,11.398 C78.056,11.006 77.72,10.656 77.314,10.656 C76.88,10.656 76.544,11.006 76.544,11.398 C76.544,11.818 76.88,12.168 77.314,12.168 Z M85.784,2.214 L86.834,2.214 L86.834,12 L85.784,12 L85.784,10.642 C85.238,11.594 84.314,12.168 83.152,12.168 C81.248,12.168 79.82,10.6 79.82,8.374 C79.82,6.162 81.248,4.594 83.152,4.594 C84.314,4.594 85.238,5.168 85.784,6.12 L85.784,2.214 Z M83.348,11.23 C84.776,11.23 85.784,10.04 85.784,8.374 C85.784,6.708 84.776,5.532 83.348,5.532 C81.934,5.532 80.926,6.708 80.926,8.374 C80.926,10.04 81.934,11.23 83.348,11.23 Z M92.42,12.168 C90.39,12.168 88.668,10.432 88.668,8.374 C88.668,6.316 90.39,4.594 92.42,4.594 C94.45,4.594 96.158,6.316 96.158,8.374 C96.158,10.432 94.45,12.168 92.42,12.168 Z M92.42,11.23 C93.848,11.23 95.052,9.928 95.052,8.374 C95.052,6.834 93.848,5.532 92.42,5.532 C90.978,5.532 89.774,6.834 89.774,8.374 C89.774,9.928 90.978,11.23 92.42,11.23 Z M101.254,12.168 C102.262,12.168 103.186,11.748 103.872,11.062 L103.144,10.348 C102.654,10.894 101.982,11.23 101.254,11.23 C99.812,11.23 98.608,9.928 98.608,8.374 C98.608,6.834 99.812,5.532 101.254,5.532 C101.968,5.532 102.626,5.854 103.102,6.372 L103.83,5.658 C103.144,5 102.234,4.594 101.254,4.594 C99.224,4.594 97.502,6.316 97.502,8.374 C97.502,10.432 99.224,12.168 101.254,12.168 Z" id="Resume.doc" fill="#565656"></path>
                    </g>
                    <g id="Applications">
                        <path d="M55.316,20 L55.316,10.382 L58.564,10.382 C61.616,10.382 63.772,12.37 63.772,15.184 C63.772,17.998 61.616,20 58.564,20 L55.316,20 Z M56.408,19.006 L58.564,19.006 C60.972,19.006 62.666,17.424 62.666,15.184 C62.666,12.958 60.972,11.376 58.564,11.376 L56.408,11.376 L56.408,19.006 Z M68.994,19.23 C69.848,19.23 70.828,18.852 71.276,18.362 L71.92,19.048 C71.29,19.734 70.016,20.168 69.008,20.168 C67.076,20.168 65.34,18.586 65.34,16.36 C65.34,14.204 66.964,12.594 68.91,12.594 C71.094,12.594 72.34,14.246 72.34,16.78 L66.418,16.78 C66.572,18.194 67.566,19.23 68.994,19.23 Z M68.952,13.532 C67.664,13.532 66.628,14.442 66.432,15.842 L71.304,15.842 C71.164,14.54 70.394,13.532 68.952,13.532 Z M76.624,20.168 C78.122,20.168 79.27,19.314 79.27,17.984 C79.27,16.612 78.066,16.22 76.904,15.856 C75.56,15.422 75.028,15.226 75.028,14.596 C75.028,13.896 75.7,13.532 76.512,13.532 C77.156,13.532 77.87,13.756 78.598,14.218 L79.102,13.406 C78.332,12.902 77.408,12.594 76.512,12.594 C75.07,12.594 73.978,13.406 73.978,14.722 C73.978,15.758 74.65,16.276 76.4,16.78 C77.38,17.06 78.22,17.312 78.22,18.096 C78.22,18.782 77.576,19.23 76.624,19.23 C75.826,19.23 75,18.922 74.174,18.32 L73.628,19.09 C74.496,19.79 75.616,20.168 76.624,20.168 Z M87.348,12.762 L86.004,12.762 L82.042,16.766 L82.042,10.214 L80.992,10.214 L80.992,20 L82.042,20 L82.042,18.082 L83.344,16.794 L85.85,20 L87.166,20 L84.086,16.08 L87.348,12.762 Z M91.786,18.936 C91.632,19.104 91.352,19.23 91.03,19.23 C90.61,19.23 90.246,18.852 90.246,18.32 L90.246,13.7 L92.024,13.7 L92.024,12.762 L90.246,12.762 L90.246,10.774 L89.196,10.774 L89.196,12.762 L88.062,12.762 L88.062,13.7 L89.196,13.7 L89.196,18.32 C89.196,19.398 89.924,20.168 90.96,20.168 C91.45,20.168 91.926,20 92.304,19.706 L91.786,18.936 Z M97.148,20.168 C95.118,20.168 93.396,18.432 93.396,16.374 C93.396,14.316 95.118,12.594 97.148,12.594 C99.178,12.594 100.886,14.316 100.886,16.374 C100.886,18.432 99.178,20.168 97.148,20.168 Z M97.148,19.23 C98.576,19.23 99.78,17.928 99.78,16.374 C99.78,14.834 98.576,13.532 97.148,13.532 C95.706,13.532 94.502,14.834 94.502,16.374 C94.502,17.928 95.706,19.23 97.148,19.23 Z M106.402,12.594 C108.306,12.594 109.734,14.162 109.734,16.374 C109.734,18.6 108.306,20.168 106.402,20.168 C105.24,20.168 104.316,19.594 103.77,18.642 L103.77,22.408 L102.72,22.408 L102.72,12.762 L103.77,12.762 L103.77,14.12 C104.316,13.168 105.24,12.594 106.402,12.594 Z M106.206,19.23 C107.62,19.23 108.628,18.04 108.628,16.374 C108.628,14.708 107.62,13.532 106.206,13.532 C104.778,13.532 103.77,14.708 103.77,16.374 C103.77,18.04 104.778,19.23 106.206,19.23 Z" id="Desktop" fill="#565656"></path>
                        <g id="ic_folder" transform="translate(32.000000, 8.000000)">
                            <g id="folder" transform="translate(0.000000, 1.000000)">
                                <mask id="mask-2" fill="white">
                                    <use xlink:href="#path-1"></use>
                                </mask>
                                <g id="Clip-2"></g>
                                <path d="M15.0002,12.9998 L1.0002,12.9998 L1.0002,3.9998 L5.5002,3.9998 L6.5002,2.9998 L1.0002,2.9998 L1.0002,0.9998 L5.5002,0.9998 L6.6492,2.4998 L15.0002,2.4998 L15.0002,12.9998 Z M15.0002,1.4998 L7.1402,1.4998 L6.0002,-0.0002 L1.0002,-0.0002 C0.4472,-0.0002 0.0002,0.4478 0.0002,0.9998 L0.0002,12.9998 C0.0002,13.5528 0.4472,13.9998 1.0002,13.9998 L15.0002,13.9998 C15.5522,13.9998 16.0002,13.5528 16.0002,12.9998 L16.0002,2.4998 C16.0002,1.9478 15.5522,1.4998 15.0002,1.4998 L15.0002,1.4998 Z" id="Fill-1" fill="#747474" mask="url(#mask-2)"></path>
                            </g>
                        </g>
                        <g id="caret-open-32" stroke="#9A9A9A" stroke-linecap="round" stroke-linejoin="round">
                            <g id="caret-open-copy" transform="translate(10.666667, 13.866667)">
                                <polyline id="Rectangle-11" stroke-width="1.5" points="10.6666667 1.11022302e-15 5.26827145 5.33333333 2.77555756e-15 0.128555501"></polyline>
                            </g>
                        </g>
                    </g>
                    <g id="Files" transform="translate(56.000000, 41.000000)">
                        <path d="M30.932,11.766 L29.966,9.582 L24.604,9.582 L23.638,11.766 L22.448,11.766 L26.69,2.148 L27.88,2.148 L32.122,11.766 L30.932,11.766 Z M25.052,8.546 L29.518,8.546 L27.292,3.492 L25.052,8.546 Z M37.414,4.36 C39.318,4.36 40.746,5.928 40.746,8.14 C40.746,10.366 39.318,11.934 37.414,11.934 C36.252,11.934 35.328,11.36 34.782,10.408 L34.782,14.174 L33.732,14.174 L33.732,4.528 L34.782,4.528 L34.782,5.886 C35.328,4.934 36.252,4.36 37.414,4.36 Z M37.218,10.996 C38.632,10.996 39.64,9.806 39.64,8.14 C39.64,6.474 38.632,5.298 37.218,5.298 C35.79,5.298 34.782,6.474 34.782,8.14 C34.782,9.806 35.79,10.996 37.218,10.996 Z M46.346,4.36 C48.25,4.36 49.678,5.928 49.678,8.14 C49.678,10.366 48.25,11.934 46.346,11.934 C45.184,11.934 44.26,11.36 43.714,10.408 L43.714,14.174 L42.664,14.174 L42.664,4.528 L43.714,4.528 L43.714,5.886 C44.26,4.934 45.184,4.36 46.346,4.36 Z M46.15,10.996 C47.564,10.996 48.572,9.806 48.572,8.14 C48.572,6.474 47.564,5.298 46.15,5.298 C44.722,5.298 43.714,6.474 43.714,8.14 C43.714,9.806 44.722,10.996 46.15,10.996 Z M51.498,11.766 L52.548,11.766 L52.548,1.98 L51.498,1.98 L51.498,11.766 Z M55.194,3.212 C55.572,3.212 55.88,2.89 55.88,2.512 C55.88,2.148 55.572,1.826 55.194,1.826 C54.802,1.826 54.494,2.148 54.494,2.512 C54.494,2.89 54.802,3.212 55.194,3.212 Z M54.662,11.766 L55.712,11.766 L55.712,4.528 L54.662,4.528 L54.662,11.766 Z M61.186,11.934 C62.194,11.934 63.118,11.514 63.804,10.828 L63.076,10.114 C62.586,10.66 61.914,10.996 61.186,10.996 C59.744,10.996 58.54,9.694 58.54,8.14 C58.54,6.6 59.744,5.298 61.186,5.298 C61.9,5.298 62.558,5.62 63.034,6.138 L63.762,5.424 C63.076,4.766 62.166,4.36 61.186,4.36 C59.156,4.36 57.434,6.082 57.434,8.14 C57.434,10.198 59.156,11.934 61.186,11.934 Z M68.354,4.36 C70.328,4.36 71.294,5.606 71.294,7.356 L71.294,11.766 L70.244,11.766 L70.244,10.632 C69.726,11.486 68.648,11.934 67.696,11.934 C66.17,11.934 65.05,11.052 65.05,9.624 C65.05,8.182 66.338,7.216 67.892,7.216 C68.676,7.216 69.502,7.384 70.244,7.622 L70.244,7.356 C70.244,6.376 69.852,5.256 68.284,5.256 C67.556,5.256 66.828,5.578 66.17,5.914 L65.75,5.06 C66.786,4.542 67.654,4.36 68.354,4.36 Z M67.878,11.01 C68.83,11.01 69.964,10.52 70.244,9.498 L70.244,8.392 C69.586,8.21 68.844,8.098 68.06,8.098 C66.982,8.098 66.072,8.714 66.072,9.582 C66.072,10.478 66.856,11.01 67.878,11.01 Z M76.614,10.702 C76.46,10.87 76.18,10.996 75.858,10.996 C75.438,10.996 75.074,10.618 75.074,10.086 L75.074,5.466 L76.852,5.466 L76.852,4.528 L75.074,4.528 L75.074,2.54 L74.024,2.54 L74.024,4.528 L72.89,4.528 L72.89,5.466 L74.024,5.466 L74.024,10.086 C74.024,11.164 74.752,11.934 75.788,11.934 C76.278,11.934 76.754,11.766 77.132,11.472 L76.614,10.702 Z M79.134,3.212 C79.512,3.212 79.82,2.89 79.82,2.512 C79.82,2.148 79.512,1.826 79.134,1.826 C78.742,1.826 78.434,2.148 78.434,2.512 C78.434,2.89 78.742,3.212 79.134,3.212 Z M78.602,11.766 L79.652,11.766 L79.652,4.528 L78.602,4.528 L78.602,11.766 Z M85.126,11.934 C83.096,11.934 81.374,10.198 81.374,8.14 C81.374,6.082 83.096,4.36 85.126,4.36 C87.156,4.36 88.864,6.082 88.864,8.14 C88.864,10.198 87.156,11.934 85.126,11.934 Z M85.126,10.996 C86.554,10.996 87.758,9.694 87.758,8.14 C87.758,6.6 86.554,5.298 85.126,5.298 C83.684,5.298 82.48,6.6 82.48,8.14 C82.48,9.694 83.684,10.996 85.126,10.996 Z M94.044,4.36 C93.022,4.36 92.084,4.92 91.664,5.69 L91.664,4.528 L90.614,4.528 L90.614,11.766 L91.664,11.766 L91.664,7.16 C91.664,6.152 92.686,5.298 93.904,5.298 C94.968,5.298 95.71,6.124 95.71,7.3 L95.71,11.766 L96.76,11.766 L96.76,7.16 C96.76,5.522 95.64,4.36 94.044,4.36 Z M101.45,11.934 C102.948,11.934 104.096,11.08 104.096,9.75 C104.096,8.378 102.892,7.986 101.73,7.622 C100.386,7.188 99.854,6.992 99.854,6.362 C99.854,5.662 100.526,5.298 101.338,5.298 C101.982,5.298 102.696,5.522 103.424,5.984 L103.928,5.172 C103.158,4.668 102.234,4.36 101.338,4.36 C99.896,4.36 98.804,5.172 98.804,6.488 C98.804,7.524 99.476,8.042 101.226,8.546 C102.206,8.826 103.046,9.078 103.046,9.862 C103.046,10.548 102.402,10.996 101.45,10.996 C100.652,10.996 99.826,10.688 99,10.086 L98.454,10.856 C99.322,11.556 100.442,11.934 101.45,11.934 Z" id="Applications" fill="#565656"></path>
                        <g id="ic_folder">
                            <g id="folder" transform="translate(0.000000, 1.000000)">
                                <mask id="mask-4" fill="white">
                                    <use xlink:href="#path-3"></use>
                                </mask>
                                <g id="Clip-2"></g>
                                <path d="M15.0002,12.9998 L1.0002,12.9998 L1.0002,3.9998 L5.5002,3.9998 L6.5002,2.9998 L1.0002,2.9998 L1.0002,0.9998 L5.5002,0.9998 L6.6492,2.4998 L15.0002,2.4998 L15.0002,12.9998 Z M15.0002,1.4998 L7.1402,1.4998 L6.0002,-0.0002 L1.0002,-0.0002 C0.4472,-0.0002 0.0002,0.4478 0.0002,0.9998 L0.0002,12.9998 C0.0002,13.5528 0.4472,13.9998 1.0002,13.9998 L15.0002,13.9998 C15.5522,13.9998 16.0002,13.5528 16.0002,12.9998 L16.0002,2.4998 C16.0002,1.9478 15.5522,1.4998 15.0002,1.4998 L15.0002,1.4998 Z" id="Fill-1" fill="#747474" mask="url(#mask-4)"></path>
                            </g>
                        </g>
                    </g>
                    <g id="spinner" transform="translate(32.000000, 41.000000)" stroke-width="2">
                        <circle id="Oval-2" stroke="#D8D8D8" cx="8" cy="8" r="8"></circle>
                        <path d="M8,0 C3.581722,0 0,3.581722 0,8" id="Oval-2-Copy" stroke="#007CBB"></path>
                    </g>
                    <g id="Images" transform="translate(24.000000, 64.000000)">
                        <path d="M62.008,11.418 L62.008,10.382 L55.106,10.382 L55.106,20 L56.212,20 L56.212,15.618 L61.434,15.618 L61.434,14.582 L56.212,14.582 L56.212,11.418 L62.008,11.418 Z M64.108,11.446 C64.486,11.446 64.794,11.124 64.794,10.746 C64.794,10.382 64.486,10.06 64.108,10.06 C63.716,10.06 63.408,10.382 63.408,10.746 C63.408,11.124 63.716,11.446 64.108,11.446 Z M63.576,20 L64.626,20 L64.626,12.762 L63.576,12.762 L63.576,20 Z M66.74,20 L67.79,20 L67.79,10.214 L66.74,10.214 L66.74,20 Z M73.18,19.23 C74.034,19.23 75.014,18.852 75.462,18.362 L76.106,19.048 C75.476,19.734 74.202,20.168 73.194,20.168 C71.262,20.168 69.526,18.586 69.526,16.36 C69.526,14.204 71.15,12.594 73.096,12.594 C75.28,12.594 76.526,14.246 76.526,16.78 L70.604,16.78 C70.758,18.194 71.752,19.23 73.18,19.23 Z M73.138,13.532 C71.85,13.532 70.814,14.442 70.618,15.842 L75.49,15.842 C75.35,14.54 74.58,13.532 73.138,13.532 Z M80.81,20.168 C82.308,20.168 83.456,19.314 83.456,17.984 C83.456,16.612 82.252,16.22 81.09,15.856 C79.746,15.422 79.214,15.226 79.214,14.596 C79.214,13.896 79.886,13.532 80.698,13.532 C81.342,13.532 82.056,13.756 82.784,14.218 L83.288,13.406 C82.518,12.902 81.594,12.594 80.698,12.594 C79.256,12.594 78.164,13.406 78.164,14.722 C78.164,15.758 78.836,16.276 80.586,16.78 C81.566,17.06 82.406,17.312 82.406,18.096 C82.406,18.782 81.762,19.23 80.81,19.23 C80.012,19.23 79.186,18.922 78.36,18.32 L77.814,19.09 C78.682,19.79 79.802,20.168 80.81,20.168 Z" id="Files" fill="#565656"></path>
                        <g id="ic_folder" transform="translate(32.000000, 8.000000)">
                            <g id="folder" transform="translate(0.000000, 1.000000)">
                                <mask id="mask-6" fill="white">
                                    <use xlink:href="#path-5"></use>
                                </mask>
                                <g id="Clip-2"></g>
                                <path d="M15.0002,12.9998 L1.0002,12.9998 L1.0002,3.9998 L5.5002,3.9998 L6.5002,2.9998 L1.0002,2.9998 L1.0002,0.9998 L5.5002,0.9998 L6.6492,2.4998 L15.0002,2.4998 L15.0002,12.9998 Z M15.0002,1.4998 L7.1402,1.4998 L6.0002,-0.0002 L1.0002,-0.0002 C0.4472,-0.0002 0.0002,0.4478 0.0002,0.9998 L0.0002,12.9998 C0.0002,13.5528 0.4472,13.9998 1.0002,13.9998 L15.0002,13.9998 C15.5522,13.9998 16.0002,13.5528 16.0002,12.9998 L16.0002,2.4998 C16.0002,1.9478 15.5522,1.4998 15.0002,1.4998 L15.0002,1.4998 Z" id="Fill-1" fill="#747474" mask="url(#mask-6)"></path>
                            </g>
                        </g>
                        <g id="caret-open-32" stroke="#9A9A9A" stroke-linecap="round" stroke-linejoin="round">
                            <g id="caret-open-copy" transform="translate(10.666667, 13.866667)">
                                <polyline id="Rectangle-11" stroke-width="1.5" points="10.6666667 1.11022302e-15 5.26827145 5.33333333 2.77555756e-15 0.128555501"></polyline>
                            </g>
                        </g>
                    </g>
                </g>
            </g>
        </g>
    </g>
</svg>