<?xml version="1.0" encoding="UTF-8"?>
<svg width="318px" height="245px" viewBox="0 0 318 245" version="1.1" xmlns="http://www.w3.org/2000/svg" xmlns:xlink="http://www.w3.org/1999/xlink">
    <!-- Generator: Sketch 42 (36781) - http://www.bohemiancoding.com/sketch -->
    <title>labels_color</title>
    <desc>Created with Sketch.</desc>
    <defs>
        <rect id="path-1" x="0" y="0" width="39" height="22" rx="10"></rect>
        <mask id="mask-2" maskContentUnits="userSpaceOnUse" maskUnits="objectBoundingBox" x="0" y="0" width="39" height="22" fill="white">
            <use xlink:href="#path-1"></use>
        </mask>
        <rect id="path-3" x="0" y="0" width="62" height="22" rx="10"></rect>
        <mask id="mask-4" maskContentUnits="userSpaceOnUse" maskUnits="objectBoundingBox" x="0" y="0" width="62" height="22" fill="white">
            <use xlink:href="#path-3"></use>
        </mask>
        <rect id="path-5" x="0" y="0" width="46" height="22" rx="10"></rect>
        <mask id="mask-6" maskContentUnits="userSpaceOnUse" maskUnits="objectBoundingBox" x="0" y="0" width="46" height="22" fill="white">
            <use xlink:href="#path-5"></use>
        </mask>
        <rect id="path-7" x="0" y="0" width="64" height="22" rx="10"></rect>
        <mask id="mask-8" maskContentUnits="userSpaceOnUse" maskUnits="objectBoundingBox" x="0" y="0" width="64" height="22" fill="white">
            <use xlink:href="#path-7"></use>
        </mask>
    </defs>
    <g id="Page-1-New-Layout" stroke="none" stroke-width="1" fill="none" fill-rule="evenodd">
        <g id="Jehad's-Version" transform="translate(-744.000000, -853.000000)">
            <g id="labels_color" transform="translate(744.000000, 853.000000)">
                <g id="Group-2" transform="translate(208.000000, 0.000000)">
                    <use id="Rectangle-23-Copy-13" stroke="#89CBDF" mask="url(#mask-2)" stroke-width="2" fill="#E1F1F6" xlink:href="#path-1"></use>
                    <path d="M10.869,14 L11.727,14 L11.727,6.443 L10.869,6.443 L10.869,14 Z M16.3406316,8.181 C15.5376316,8.181 14.8006316,8.621 14.4706316,9.226 L14.4706316,8.313 L13.6456316,8.313 L13.6456316,14 L14.4706316,14 L14.4706316,10.381 C14.4706316,9.589 15.2736316,8.918 16.2306316,8.918 C17.0666316,8.918 17.6496316,9.567 17.6496316,10.491 L17.6496316,14 L18.4746316,14 L18.4746316,10.381 C18.4746316,9.094 17.5946316,8.181 16.3406316,8.181 Z M21.6362632,7.532 C21.6362632,7.114 21.9222632,6.817 22.2522632,6.817 C22.5052632,6.817 22.7252632,6.916 22.8462632,7.048 L23.2532632,6.443 C22.9562632,6.212 22.5822632,6.08 22.1972632,6.08 C21.3832632,6.08 20.8112632,6.685 20.8112632,7.532 L20.8112632,8.313 L19.9202632,8.313 L19.9202632,9.05 L20.8112632,9.05 L20.8112632,14 L21.6362632,14 L21.6362632,9.05 L23.0332632,9.05 L23.0332632,8.313 L21.6362632,8.313 L21.6362632,7.532 Z M27.0528947,14.132 C25.4578947,14.132 24.1048947,12.768 24.1048947,11.151 C24.1048947,9.534 25.4578947,8.181 27.0528947,8.181 C28.6478947,8.181 29.9898947,9.534 29.9898947,11.151 C29.9898947,12.768 28.6478947,14.132 27.0528947,14.132 Z M27.0528947,13.395 C28.1748947,13.395 29.1208947,12.372 29.1208947,11.151 C29.1208947,9.941 28.1748947,8.918 27.0528947,8.918 C25.9198947,8.918 24.9738947,9.941 24.9738947,11.151 C24.9738947,12.372 25.9198947,13.395 27.0528947,13.395 Z" id="Info" fill="#004A70"></path>
                </g>
                <g id="Group-3" transform="translate(134.000000, 0.000000)">
                    <use id="Rectangle-23-Copy-14" stroke="#65B500" mask="url(#mask-4)" stroke-width="2" fill="#DFF0D0" xlink:href="#path-3"></use>
                    <path d="M13.487,14.121 C15.247,14.121 16.149,13.142 16.149,11.943 C16.149,10.612 15.115,10.095 13.674,9.754 C12.387,9.446 11.639,9.171 11.639,8.39 C11.639,7.697 12.321,7.081 13.256,7.081 C14.048,7.081 14.796,7.444 15.423,8.049 L15.951,7.378 C15.258,6.74 14.422,6.3 13.3,6.3 C11.848,6.3 10.77,7.246 10.77,8.456 C10.77,9.765 11.727,10.238 13.245,10.59 C14.565,10.898 15.28,11.217 15.28,12.02 C15.28,12.702 14.686,13.34 13.52,13.34 C12.464,13.34 11.683,12.889 11.045,12.251 L10.506,12.922 C11.265,13.67 12.244,14.121 13.487,14.121 Z M21.7630595,8.313 L21.7630595,11.932 C21.7630595,12.724 20.9600595,13.395 20.0030595,13.395 C19.1670595,13.395 18.5840595,12.746 18.5840595,11.822 L18.5840595,8.313 L17.7590595,8.313 L17.7590595,11.932 C17.7590595,13.219 18.6390595,14.132 19.8930595,14.132 C20.6960595,14.132 21.4330595,13.692 21.7630595,13.087 L21.7630595,14 L22.5880595,14 L22.5880595,8.313 L21.7630595,8.313 Z M27.091119,14.132 C27.883119,14.132 28.609119,13.802 29.148119,13.263 L28.576119,12.702 C28.191119,13.131 27.663119,13.395 27.091119,13.395 C25.958119,13.395 25.012119,12.372 25.012119,11.151 C25.012119,9.941 25.958119,8.918 27.091119,8.918 C27.652119,8.918 28.169119,9.171 28.543119,9.578 L29.115119,9.017 C28.576119,8.5 27.861119,8.181 27.091119,8.181 C25.496119,8.181 24.143119,9.534 24.143119,11.151 C24.143119,12.768 25.496119,14.132 27.091119,14.132 Z M33.2331786,14.132 C34.0251786,14.132 34.7511786,13.802 35.2901786,13.263 L34.7181786,12.702 C34.3331786,13.131 33.8051786,13.395 33.2331786,13.395 C32.1001786,13.395 31.1541786,12.372 31.1541786,11.151 C31.1541786,9.941 32.1001786,8.918 33.2331786,8.918 C33.7941786,8.918 34.3111786,9.171 34.6851786,9.578 L35.2571786,9.017 C34.7181786,8.5 34.0031786,8.181 33.2331786,8.181 C31.6381786,8.181 30.2851786,9.534 30.2851786,11.151 C30.2851786,12.768 31.6381786,14.132 33.2331786,14.132 Z M39.2982381,13.395 C39.9692381,13.395 40.7392381,13.098 41.0912381,12.713 L41.5972381,13.252 C41.1022381,13.791 40.1012381,14.132 39.3092381,14.132 C37.7912381,14.132 36.4272381,12.889 36.4272381,11.14 C36.4272381,9.446 37.7032381,8.181 39.2322381,8.181 C40.9482381,8.181 41.9272381,9.479 41.9272381,11.47 L37.2742381,11.47 C37.3952381,12.581 38.1762381,13.395 39.2982381,13.395 Z M39.2652381,8.918 C38.2532381,8.918 37.4392381,9.633 37.2852381,10.733 L41.1132381,10.733 C41.0032381,9.71 40.3982381,8.918 39.2652381,8.918 Z M45.4732976,14.132 C46.6502976,14.132 47.5522976,13.461 47.5522976,12.416 C47.5522976,11.338 46.6062976,11.03 45.6932976,10.744 C44.6372976,10.403 44.2192976,10.249 44.2192976,9.754 C44.2192976,9.204 44.7472976,8.918 45.3852976,8.918 C45.8912976,8.918 46.4522976,9.094 47.0242976,9.457 L47.4202976,8.819 C46.8152976,8.423 46.0892976,8.181 45.3852976,8.181 C44.2522976,8.181 43.3942976,8.819 43.3942976,9.853 C43.3942976,10.667 43.9222976,11.074 45.2972976,11.47 C46.0672976,11.69 46.7272976,11.888 46.7272976,12.504 C46.7272976,13.043 46.2212976,13.395 45.4732976,13.395 C44.8462976,13.395 44.1972976,13.153 43.5482976,12.68 L43.1192976,13.285 C43.8012976,13.835 44.6812976,14.132 45.4732976,14.132 Z M51.1093571,14.132 C52.2863571,14.132 53.1883571,13.461 53.1883571,12.416 C53.1883571,11.338 52.2423571,11.03 51.3293571,10.744 C50.2733571,10.403 49.8553571,10.249 49.8553571,9.754 C49.8553571,9.204 50.3833571,8.918 51.0213571,8.918 C51.5273571,8.918 52.0883571,9.094 52.6603571,9.457 L53.0563571,8.819 C52.4513571,8.423 51.7253571,8.181 51.0213571,8.181 C49.8883571,8.181 49.0303571,8.819 49.0303571,9.853 C49.0303571,10.667 49.5583571,11.074 50.9333571,11.47 C51.7033571,11.69 52.3633571,11.888 52.3633571,12.504 C52.3633571,13.043 51.8573571,13.395 51.1093571,13.395 C50.4823571,13.395 49.8333571,13.153 49.1843571,12.68 L48.7553571,13.285 C49.4373571,13.835 50.3173571,14.132 51.1093571,14.132 Z" id="Success" fill="#266900"></path>
                </g>
                <g id="Group-4">
                    <use id="Rectangle-23-Copy-15" stroke="#EBAFA6" mask="url(#mask-6)" stroke-width="2" fill="#F5DBD9" xlink:href="#path-5"></use>
                    <path d="M16.292,8.257 L16.292,7.443 L10.869,7.443 L10.869,15 L16.292,15 L16.292,14.186 L11.738,14.186 L11.738,11.557 L15.841,11.557 L15.841,10.743 L11.738,10.743 L11.738,8.257 L16.292,8.257 Z M18.835,10.424 L18.835,9.313 L18.01,9.313 L18.01,15 L18.835,15 L18.835,11.821 C18.835,10.71 19.748,9.918 21.035,9.918 L21.035,9.181 C19.99,9.181 19.176,9.665 18.835,10.424 Z M23.281,10.424 L23.281,9.313 L22.456,9.313 L22.456,15 L23.281,15 L23.281,11.821 C23.281,10.71 24.194,9.918 25.481,9.918 L25.481,9.181 C24.436,9.181 23.622,9.665 23.281,10.424 Z M29.278,15.132 C27.683,15.132 26.33,13.768 26.33,12.151 C26.33,10.534 27.683,9.181 29.278,9.181 C30.873,9.181 32.215,10.534 32.215,12.151 C32.215,13.768 30.873,15.132 29.278,15.132 Z M29.278,14.395 C30.4,14.395 31.346,13.372 31.346,12.151 C31.346,10.941 30.4,9.918 29.278,9.918 C28.145,9.918 27.199,10.941 27.199,12.151 C27.199,13.372 28.145,14.395 29.278,14.395 Z M34.681,10.424 L34.681,9.313 L33.856,9.313 L33.856,15 L34.681,15 L34.681,11.821 C34.681,10.71 35.594,9.918 36.881,9.918 L36.881,9.181 C35.836,9.181 35.022,9.665 34.681,10.424 Z" id="Error" fill="#A32100"></path>
                </g>
                <g id="Group-5" transform="translate(58.000000, 0.000000)">
                    <use id="Rectangle-23-Copy-16" stroke="#EFD603" mask="url(#mask-8)" stroke-width="2" fill="#FEECB5" xlink:href="#path-7"></use>
                    <path d="M12.992,15 L13.839,15 L15.951,8.565 L18.052,15 L18.899,15 L21.484,7.443 L20.516,7.443 L18.426,13.559 L16.424,7.443 L15.467,7.443 L13.465,13.559 L11.375,7.443 L10.407,7.443 L12.992,15 Z M25.037,9.181 C26.588,9.181 27.347,10.16 27.347,11.535 L27.347,15 L26.522,15 L26.522,14.109 C26.115,14.78 25.268,15.132 24.52,15.132 C23.321,15.132 22.441,14.439 22.441,13.317 C22.441,12.184 23.453,11.425 24.674,11.425 C25.29,11.425 25.939,11.557 26.522,11.744 L26.522,11.535 C26.522,10.765 26.214,9.885 24.982,9.885 C24.41,9.885 23.838,10.138 23.321,10.402 L22.991,9.731 C23.805,9.324 24.487,9.181 25.037,9.181 Z M24.663,14.406 C25.411,14.406 26.302,14.021 26.522,13.218 L26.522,12.349 C26.005,12.206 25.422,12.118 24.806,12.118 C23.959,12.118 23.244,12.602 23.244,13.284 C23.244,13.988 23.86,14.406 24.663,14.406 Z M29.932,10.424 L29.932,9.313 L29.107,9.313 L29.107,15 L29.932,15 L29.932,11.821 C29.932,10.71 30.845,9.918 32.132,9.918 L32.132,9.181 C31.087,9.181 30.273,9.665 29.932,10.424 Z M35.982,9.181 C35.179,9.181 34.442,9.621 34.112,10.226 L34.112,9.313 L33.287,9.313 L33.287,15 L34.112,15 L34.112,11.381 C34.112,10.589 34.915,9.918 35.872,9.918 C36.708,9.918 37.291,10.567 37.291,11.491 L37.291,15 L38.116,15 L38.116,11.381 C38.116,10.094 37.236,9.181 35.982,9.181 Z M40.195,8.279 C40.492,8.279 40.734,8.026 40.734,7.729 C40.734,7.443 40.492,7.19 40.195,7.19 C39.887,7.19 39.645,7.443 39.645,7.729 C39.645,8.026 39.887,8.279 40.195,8.279 Z M39.777,15 L40.602,15 L40.602,9.313 L39.777,9.313 L39.777,15 Z M44.969,9.181 C44.166,9.181 43.429,9.621 43.099,10.226 L43.099,9.313 L42.274,9.313 L42.274,15 L43.099,15 L43.099,11.381 C43.099,10.589 43.902,9.918 44.859,9.918 C45.695,9.918 46.278,10.567 46.278,11.491 L46.278,15 L47.103,15 L47.103,11.381 C47.103,10.094 46.223,9.181 44.969,9.181 Z M53.197,9.313 L54.022,9.313 L54.022,14.395 C54.022,15.858 52.867,16.892 51.228,16.892 C50.304,16.892 49.446,16.573 48.929,16.133 L49.292,15.484 C49.732,15.902 50.414,16.155 51.118,16.155 C52.427,16.155 53.197,15.506 53.197,14.395 L53.197,13.471 C52.757,14.164 52.031,14.582 51.129,14.582 C49.6,14.582 48.511,13.46 48.511,11.876 C48.511,10.292 49.6,9.181 51.129,9.181 C52.031,9.181 52.757,9.599 53.197,10.292 L53.197,9.313 Z M51.283,13.845 C52.405,13.845 53.197,13.031 53.197,11.876 C53.197,10.732 52.405,9.918 51.283,9.918 C50.172,9.918 49.38,10.732 49.38,11.876 C49.38,13.031 50.172,13.845 51.283,13.845 Z" id="Warning" fill="#313131"></path>
                </g>
                <g id="Group-6" transform="translate(1.000000, 36.000000)">
                    <g id="Group-12" transform="translate(0.000000, 29.000000)">
                        <g id="yellow">
                            <rect id="1-1" fill="#EFD603" x="0" y="0" width="6" height="36"></rect>
                            <path d="M20.666,15.756 L19.014,15.756 L18.286,18.64 L19.938,18.64 L19.728,19.494 L18.076,19.494 L17.446,22 L16.522,22 L17.152,19.494 L15.052,19.494 L14.422,22 L13.498,22 L14.128,19.494 L12.546,19.494 L12.756,18.64 L14.338,18.64 L15.066,15.756 L13.47,15.756 L13.68,14.902 L15.29,14.902 L15.92,12.382 L16.844,12.382 L16.214,14.902 L18.314,14.902 L18.944,12.382 L19.868,12.382 L19.238,14.902 L20.876,14.902 L20.666,15.756 Z M17.362,18.64 L18.09,15.756 L15.99,15.756 L15.262,18.64 L17.362,18.64 Z M29.444,13.418 L29.444,12.382 L22.542,12.382 L22.542,22 L29.444,22 L29.444,20.964 L23.648,20.964 L23.648,17.618 L28.87,17.618 L28.87,16.582 L23.648,16.582 L23.648,13.418 L29.444,13.418 Z M38.222,13.418 L38.222,12.382 L31.32,12.382 L31.32,22 L32.426,22 L32.426,17.618 L37.648,17.618 L37.648,16.582 L32.426,16.582 L32.426,13.418 L38.222,13.418 Z M40.056,22 L40.056,12.382 L43.304,12.382 C46.356,12.382 48.512,14.37 48.512,17.184 C48.512,19.998 46.356,22 43.304,22 L40.056,22 Z M41.148,21.006 L43.304,21.006 C45.712,21.006 47.406,19.424 47.406,17.184 C47.406,14.958 45.712,13.376 43.304,13.376 L41.148,13.376 L41.148,21.006 Z M54.07,15.994 C55.82,15.994 57.29,17.086 57.29,18.99 C57.29,20.768 55.904,22.168 53.902,22.168 C51.298,22.168 50.248,20.054 50.248,17.338 C50.248,14.468 51.956,12.214 54.14,12.214 C55.316,12.214 56.156,12.676 56.87,13.362 L56.268,14.216 C55.666,13.628 55.036,13.208 54.112,13.208 C52.572,13.208 51.354,15.028 51.354,17.338 L51.354,17.464 C51.942,16.54 52.936,15.994 54.07,15.994 Z M53.888,21.23 C55.33,21.23 56.184,20.11 56.184,19.046 C56.184,17.73 55.162,16.932 53.874,16.932 C52.656,16.932 51.718,17.66 51.48,18.724 C51.76,20.18 52.544,21.23 53.888,21.23 Z M62.96,22.168 C60.608,22.168 58.956,20.11 58.956,17.184 C58.956,14.272 60.608,12.214 62.96,12.214 C65.298,12.214 66.95,14.272 66.95,17.184 C66.95,20.11 65.298,22.168 62.96,22.168 Z M62.96,21.16 C64.654,21.16 65.844,19.508 65.844,17.184 C65.844,14.86 64.654,13.222 62.96,13.222 C61.266,13.222 60.062,14.86 60.062,17.184 C60.062,19.508 61.266,21.16 62.96,21.16 Z M71.836,22.168 C73.838,22.168 75.182,21.006 75.182,19.396 C75.182,18.01 74.09,17.296 73.11,17.072 C74.104,16.778 74.972,16.05 74.972,14.818 C74.972,13.278 73.628,12.214 71.794,12.214 C70.296,12.214 69.232,12.942 68.504,13.908 L69.232,14.566 C69.918,13.74 70.674,13.208 71.738,13.208 C72.942,13.208 73.866,13.936 73.866,14.944 C73.866,16.036 72.9,16.652 71.612,16.638 L70.576,16.624 L70.576,17.632 L71.598,17.632 C73.11,17.632 74.076,18.206 74.076,19.34 C74.076,20.432 73.18,21.174 71.836,21.174 C70.66,21.174 69.722,20.614 69.092,19.802 L68.336,20.516 C69.036,21.44 70.254,22.168 71.836,22.168 Z" id="#EFD603" fill="#000000"></path>
                            <rect id="1-2" fill="#FEECB5" x="96" y="0" width="86" height="36" rx="3"></rect>
                            <path d="M115.666,15.756 L114.014,15.756 L113.286,18.64 L114.938,18.64 L114.728,19.494 L113.076,19.494 L112.446,22 L111.522,22 L112.152,19.494 L110.052,19.494 L109.422,22 L108.498,22 L109.128,19.494 L107.546,19.494 L107.756,18.64 L109.338,18.64 L110.066,15.756 L108.47,15.756 L108.68,14.902 L110.29,14.902 L110.92,12.382 L111.844,12.382 L111.214,14.902 L113.314,14.902 L113.944,12.382 L114.868,12.382 L114.238,14.902 L115.876,14.902 L115.666,15.756 Z M112.362,18.64 L113.09,15.756 L110.99,15.756 L110.262,18.64 L112.362,18.64 Z M124.444,13.418 L124.444,12.382 L117.542,12.382 L117.542,22 L118.648,22 L118.648,17.618 L123.87,17.618 L123.87,16.582 L118.648,16.582 L118.648,13.418 L124.444,13.418 Z M132.97,13.418 L132.97,12.382 L126.068,12.382 L126.068,22 L132.97,22 L132.97,20.964 L127.174,20.964 L127.174,17.618 L132.396,17.618 L132.396,16.582 L127.174,16.582 L127.174,13.418 L132.97,13.418 Z M141.748,13.418 L141.748,12.382 L134.846,12.382 L134.846,22 L141.748,22 L141.748,20.964 L135.952,20.964 L135.952,17.618 L141.174,17.618 L141.174,16.582 L135.952,16.582 L135.952,13.418 L141.748,13.418 Z M148.174,22.168 C149.504,22.168 150.736,21.594 151.632,20.698 L150.89,19.942 C150.19,20.684 149.224,21.16 148.174,21.16 C146.102,21.16 144.352,19.34 144.352,17.184 C144.352,15.042 146.102,13.222 148.174,13.222 C149.224,13.222 150.19,13.698 150.89,14.44 L151.632,13.684 C150.736,12.774 149.504,12.214 148.174,12.214 C145.514,12.214 143.246,14.482 143.246,17.184 C143.246,19.886 145.514,22.168 148.174,22.168 Z M153.354,22 L153.354,12.382 L157.764,12.382 C159.318,12.382 160.41,13.376 160.41,14.776 C160.41,15.798 159.906,16.386 159.038,16.89 C160.144,17.45 160.788,18.318 160.788,19.368 C160.788,20.908 159.598,22 157.932,22 L153.354,22 Z M154.446,16.456 L157.484,16.456 C158.548,16.456 159.304,15.812 159.304,14.916 C159.304,14.02 158.548,13.376 157.484,13.376 L154.446,13.376 L154.446,16.456 Z M154.446,21.006 L157.652,21.006 C158.842,21.006 159.682,20.264 159.682,19.228 C159.682,18.192 158.842,17.45 157.652,17.45 L154.446,17.45 L154.446,21.006 Z M165.758,22.168 C167.732,22.168 169.174,20.908 169.174,19.004 C169.174,17.1 167.732,16.008 165.996,16.008 C165.114,16.008 164.456,16.302 163.938,16.652 L164.036,13.418 L168.656,13.418 L168.656,12.382 L162.972,12.382 L162.832,17.324 L163.63,17.716 C164.232,17.268 164.946,16.974 165.772,16.974 C167.116,16.974 168.068,17.814 168.068,19.046 C168.068,20.264 167.13,21.188 165.8,21.188 C164.736,21.188 163.826,20.656 163.084,19.844 L162.37,20.642 C163.154,21.538 164.274,22.168 165.758,22.168 Z" id="#FEECB5" fill="#000000"></path>
                            <path d="M259.666,15.756 L258.014,15.756 L257.286,18.64 L258.938,18.64 L258.728,19.494 L257.076,19.494 L256.446,22 L255.522,22 L256.152,19.494 L254.052,19.494 L253.422,22 L252.498,22 L253.128,19.494 L251.546,19.494 L251.756,18.64 L253.338,18.64 L254.066,15.756 L252.47,15.756 L252.68,14.902 L254.29,14.902 L254.92,12.382 L255.844,12.382 L255.214,14.902 L257.314,14.902 L257.944,12.382 L258.868,12.382 L258.238,14.902 L259.876,14.902 L259.666,15.756 Z M256.362,18.64 L257.09,15.756 L254.99,15.756 L254.262,18.64 L256.362,18.64 Z M264.496,22.168 C266.498,22.168 267.842,21.006 267.842,19.396 C267.842,18.01 266.75,17.296 265.77,17.072 C266.764,16.778 267.632,16.05 267.632,14.818 C267.632,13.278 266.288,12.214 264.454,12.214 C262.956,12.214 261.892,12.942 261.164,13.908 L261.892,14.566 C262.578,13.74 263.334,13.208 264.398,13.208 C265.602,13.208 266.526,13.936 266.526,14.944 C266.526,16.036 265.56,16.652 264.272,16.638 L263.236,16.624 L263.236,17.632 L264.258,17.632 C265.77,17.632 266.736,18.206 266.736,19.34 C266.736,20.432 265.84,21.174 264.496,21.174 C263.32,21.174 262.382,20.614 261.752,19.802 L260.996,20.516 C261.696,21.44 262.914,22.168 264.496,22.168 Z M271.16,22 L272.252,22 L272.252,12.382 L271.37,12.382 L269.004,13.992 L269.48,14.804 L271.16,13.712 L271.16,22 Z M277.642,22.168 C279.644,22.168 280.988,21.006 280.988,19.396 C280.988,18.01 279.896,17.296 278.916,17.072 C279.91,16.778 280.778,16.05 280.778,14.818 C280.778,13.278 279.434,12.214 277.6,12.214 C276.102,12.214 275.038,12.942 274.31,13.908 L275.038,14.566 C275.724,13.74 276.48,13.208 277.544,13.208 C278.748,13.208 279.672,13.936 279.672,14.944 C279.672,16.036 278.706,16.652 277.418,16.638 L276.382,16.624 L276.382,17.632 L277.404,17.632 C278.916,17.632 279.882,18.206 279.882,19.34 C279.882,20.432 278.986,21.174 277.642,21.174 C276.466,21.174 275.528,20.614 274.898,19.802 L274.142,20.516 C274.842,21.44 276.06,22.168 277.642,22.168 Z M284.306,22 L285.398,22 L285.398,12.382 L284.516,12.382 L282.15,13.992 L282.626,14.804 L284.306,13.712 L284.306,22 Z M290.788,22.168 C292.79,22.168 294.134,21.006 294.134,19.396 C294.134,18.01 293.042,17.296 292.062,17.072 C293.056,16.778 293.924,16.05 293.924,14.818 C293.924,13.278 292.58,12.214 290.746,12.214 C289.248,12.214 288.184,12.942 287.456,13.908 L288.184,14.566 C288.87,13.74 289.626,13.208 290.69,13.208 C291.894,13.208 292.818,13.936 292.818,14.944 C292.818,16.036 291.852,16.652 290.564,16.638 L289.528,16.624 L289.528,17.632 L290.55,17.632 C292.062,17.632 293.028,18.206 293.028,19.34 C293.028,20.432 292.132,21.174 290.788,21.174 C289.612,21.174 288.674,20.614 288.044,19.802 L287.288,20.516 C287.988,21.44 289.206,22.168 290.788,22.168 Z M297.452,22 L298.544,22 L298.544,12.382 L297.662,12.382 L295.296,13.992 L295.772,14.804 L297.452,13.712 L297.452,22 Z" id="#313131" fill="#000000"></path>
                            <path d="M227.986667,24 L226.946667,21.52 L220.306667,21.52 L219.266667,24 L216.486667,24 L222.226667,10.26 L225.006667,10.26 L230.746667,24 L227.986667,24 Z M221.206667,19.36 L226.046667,19.36 L223.626667,13.58 L221.206667,19.36 Z M236.57,13.42 C239.31,13.42 241.01,15.16 241.01,17.78 L241.01,24 L238.63,24 L238.63,22.76 C237.87,23.72 236.57,24.24 235.37,24.24 C233.17,24.24 231.51,22.94 231.51,20.94 C231.51,18.9 233.41,17.5 235.73,17.5 C236.67,17.5 237.69,17.7 238.63,18.06 L238.63,17.78 C238.63,16.58 237.97,15.42 236.09,15.42 C235.11,15.42 234.17,15.76 233.29,16.2 L232.45,14.5 C233.91,13.78 235.27,13.42 236.57,13.42 Z M235.91,22.46 C237.09,22.46 238.35,21.86 238.63,20.76 L238.63,19.6 C237.87,19.34 237.01,19.2 236.09,19.2 C234.87,19.2 233.89,19.88 233.89,20.86 C233.89,21.84 234.75,22.46 235.91,22.46 Z" id="Aa" fill="#000000"></path>
                        </g>
                        <g id="yellow-copy" transform="translate(0.000000, 48.000000)">
                            <rect id="1-1" fill="#EBAFA6" x="0" y="0" width="6" height="36"></rect>
                            <path d="M20.666,15.756 L19.014,15.756 L18.286,18.64 L19.938,18.64 L19.728,19.494 L18.076,19.494 L17.446,22 L16.522,22 L17.152,19.494 L15.052,19.494 L14.422,22 L13.498,22 L14.128,19.494 L12.546,19.494 L12.756,18.64 L14.338,18.64 L15.066,15.756 L13.47,15.756 L13.68,14.902 L15.29,14.902 L15.92,12.382 L16.844,12.382 L16.214,14.902 L18.314,14.902 L18.944,12.382 L19.868,12.382 L19.238,14.902 L20.876,14.902 L20.666,15.756 Z M17.362,18.64 L18.09,15.756 L15.99,15.756 L15.262,18.64 L17.362,18.64 Z M29.444,13.418 L29.444,12.382 L22.542,12.382 L22.542,22 L29.444,22 L29.444,20.964 L23.648,20.964 L23.648,17.618 L28.87,17.618 L28.87,16.582 L23.648,16.582 L23.648,13.418 L29.444,13.418 Z M31.53,22 L31.53,12.382 L35.94,12.382 C37.494,12.382 38.586,13.376 38.586,14.776 C38.586,15.798 38.082,16.386 37.214,16.89 C38.32,17.45 38.964,18.318 38.964,19.368 C38.964,20.908 37.774,22 36.108,22 L31.53,22 Z M32.622,16.456 L35.66,16.456 C36.724,16.456 37.48,15.812 37.48,14.916 C37.48,14.02 36.724,13.376 35.66,13.376 L32.622,13.376 L32.622,16.456 Z M32.622,21.006 L35.828,21.006 C37.018,21.006 37.858,20.264 37.858,19.228 C37.858,18.192 37.018,17.45 35.828,17.45 L32.622,17.45 L32.622,21.006 Z M48.694,22 L47.728,19.816 L42.366,19.816 L41.4,22 L40.21,22 L44.452,12.382 L45.642,12.382 L49.884,22 L48.694,22 Z M42.814,18.78 L47.28,18.78 L45.054,13.726 L42.814,18.78 Z M58.34,13.418 L58.34,12.382 L51.438,12.382 L51.438,22 L52.544,22 L52.544,17.618 L57.766,17.618 L57.766,16.582 L52.544,16.582 L52.544,13.418 L58.34,13.418 Z M67.79,22 L66.824,19.816 L61.462,19.816 L60.496,22 L59.306,22 L63.548,12.382 L64.738,12.382 L68.98,22 L67.79,22 Z M61.91,18.78 L66.376,18.78 L64.15,13.726 L61.91,18.78 Z M74.09,15.994 C75.84,15.994 77.31,17.086 77.31,18.99 C77.31,20.768 75.924,22.168 73.922,22.168 C71.318,22.168 70.268,20.054 70.268,17.338 C70.268,14.468 71.976,12.214 74.16,12.214 C75.336,12.214 76.176,12.676 76.89,13.362 L76.288,14.216 C75.686,13.628 75.056,13.208 74.132,13.208 C72.592,13.208 71.374,15.028 71.374,17.338 L71.374,17.464 C71.962,16.54 72.956,15.994 74.09,15.994 Z M73.908,21.23 C75.35,21.23 76.204,20.11 76.204,19.046 C76.204,17.73 75.182,16.932 73.894,16.932 C72.676,16.932 71.738,17.66 71.5,18.724 C71.78,20.18 72.564,21.23 73.908,21.23 Z" id="#EBAFA6" fill="#000000"></path>
                            <rect id="1-2" fill="#F5DBD9" x="96" y="0" width="86" height="36" rx="3"></rect>
                            <path d="M115.666,15.756 L114.014,15.756 L113.286,18.64 L114.938,18.64 L114.728,19.494 L113.076,19.494 L112.446,22 L111.522,22 L112.152,19.494 L110.052,19.494 L109.422,22 L108.498,22 L109.128,19.494 L107.546,19.494 L107.756,18.64 L109.338,18.64 L110.066,15.756 L108.47,15.756 L108.68,14.902 L110.29,14.902 L110.92,12.382 L111.844,12.382 L111.214,14.902 L113.314,14.902 L113.944,12.382 L114.868,12.382 L114.238,14.902 L115.876,14.902 L115.666,15.756 Z M112.362,18.64 L113.09,15.756 L110.99,15.756 L110.262,18.64 L112.362,18.64 Z M124.444,13.418 L124.444,12.382 L117.542,12.382 L117.542,22 L118.648,22 L118.648,17.618 L123.87,17.618 L123.87,16.582 L118.648,16.582 L118.648,13.418 L124.444,13.418 Z M129.134,22.168 C131.108,22.168 132.55,20.908 132.55,19.004 C132.55,17.1 131.108,16.008 129.372,16.008 C128.49,16.008 127.832,16.302 127.314,16.652 L127.412,13.418 L132.032,13.418 L132.032,12.382 L126.348,12.382 L126.208,17.324 L127.006,17.716 C127.608,17.268 128.322,16.974 129.148,16.974 C130.492,16.974 131.444,17.814 131.444,19.046 C131.444,20.264 130.506,21.188 129.176,21.188 C128.112,21.188 127.202,20.656 126.46,19.844 L125.746,20.642 C126.53,21.538 127.65,22.168 129.134,22.168 Z M134.664,22 L134.664,12.382 L137.912,12.382 C140.964,12.382 143.12,14.37 143.12,17.184 C143.12,19.998 140.964,22 137.912,22 L134.664,22 Z M135.756,21.006 L137.912,21.006 C140.32,21.006 142.014,19.424 142.014,17.184 C142.014,14.958 140.32,13.376 137.912,13.376 L135.756,13.376 L135.756,21.006 Z M145.332,22 L145.332,12.382 L149.742,12.382 C151.296,12.382 152.388,13.376 152.388,14.776 C152.388,15.798 151.884,16.386 151.016,16.89 C152.122,17.45 152.766,18.318 152.766,19.368 C152.766,20.908 151.576,22 149.91,22 L145.332,22 Z M146.424,16.456 L149.462,16.456 C150.526,16.456 151.282,15.812 151.282,14.916 C151.282,14.02 150.526,13.376 149.462,13.376 L146.424,13.376 L146.424,16.456 Z M146.424,21.006 L149.63,21.006 C150.82,21.006 151.66,20.264 151.66,19.228 C151.66,18.192 150.82,17.45 149.63,17.45 L146.424,17.45 L146.424,21.006 Z M154.88,22 L154.88,12.382 L158.128,12.382 C161.18,12.382 163.336,14.37 163.336,17.184 C163.336,19.998 161.18,22 158.128,22 L154.88,22 Z M155.972,21.006 L158.128,21.006 C160.536,21.006 162.23,19.424 162.23,17.184 C162.23,14.958 160.536,13.376 158.128,13.376 L155.972,13.376 L155.972,21.006 Z M168.46,12.214 C171.064,12.214 172.114,14.328 172.114,17.044 C172.114,19.914 170.406,22.168 168.222,22.168 C167.046,22.168 166.206,21.706 165.492,21.02 L166.094,20.166 C166.696,20.754 167.326,21.174 168.25,21.174 C169.79,21.174 171.008,19.354 171.008,17.044 L171.008,16.918 C170.42,17.842 169.426,18.388 168.292,18.388 C166.542,18.388 165.072,17.296 165.072,15.392 C165.072,13.614 166.458,12.214 168.46,12.214 Z M168.488,17.45 C169.706,17.45 170.644,16.722 170.882,15.658 C170.602,14.202 169.818,13.152 168.474,13.152 C167.032,13.152 166.178,14.272 166.178,15.336 C166.178,16.652 167.2,17.45 168.488,17.45 Z" id="#F5DBD9" fill="#000000"></path>
                            <path d="M259.666,15.756 L258.014,15.756 L257.286,18.64 L258.938,18.64 L258.728,19.494 L257.076,19.494 L256.446,22 L255.522,22 L256.152,19.494 L254.052,19.494 L253.422,22 L252.498,22 L253.128,19.494 L251.546,19.494 L251.756,18.64 L253.338,18.64 L254.066,15.756 L252.47,15.756 L252.68,14.902 L254.29,14.902 L254.92,12.382 L255.844,12.382 L255.214,14.902 L257.314,14.902 L257.944,12.382 L258.868,12.382 L258.238,14.902 L259.876,14.902 L259.666,15.756 Z M256.362,18.64 L257.09,15.756 L254.99,15.756 L254.262,18.64 L256.362,18.64 Z M269.368,22 L268.402,19.816 L263.04,19.816 L262.074,22 L260.884,22 L265.126,12.382 L266.316,12.382 L270.558,22 L269.368,22 Z M263.488,18.78 L267.954,18.78 L265.728,13.726 L263.488,18.78 Z M275.066,22.168 C277.068,22.168 278.412,21.006 278.412,19.396 C278.412,18.01 277.32,17.296 276.34,17.072 C277.334,16.778 278.202,16.05 278.202,14.818 C278.202,13.278 276.858,12.214 275.024,12.214 C273.526,12.214 272.462,12.942 271.734,13.908 L272.462,14.566 C273.148,13.74 273.904,13.208 274.968,13.208 C276.172,13.208 277.096,13.936 277.096,14.944 C277.096,16.036 276.13,16.652 274.842,16.638 L273.806,16.624 L273.806,17.632 L274.828,17.632 C276.34,17.632 277.306,18.206 277.306,19.34 C277.306,20.432 276.41,21.174 275.066,21.174 C273.89,21.174 272.952,20.614 272.322,19.802 L271.566,20.516 C272.266,21.44 273.484,22.168 275.066,22.168 Z M279.896,22 L286.532,22 L286.532,20.964 L281.646,20.964 L284.166,18.78 C285.79,17.38 286.434,16.344 286.434,15.042 C286.434,13.32 285.034,12.214 283.368,12.214 C281.856,12.214 280.778,12.928 279.98,14.062 L280.75,14.692 C281.408,13.796 282.206,13.194 283.326,13.194 C284.348,13.194 285.328,13.88 285.328,15.056 C285.328,16.008 284.768,16.932 283.41,18.094 L279.896,21.09 L279.896,22 Z M289.976,22 L291.068,22 L291.068,12.382 L290.186,12.382 L287.82,13.992 L288.296,14.804 L289.976,13.712 L289.976,22 Z M297.228,22.168 C294.876,22.168 293.224,20.11 293.224,17.184 C293.224,14.272 294.876,12.214 297.228,12.214 C299.566,12.214 301.218,14.272 301.218,17.184 C301.218,20.11 299.566,22.168 297.228,22.168 Z M297.228,21.16 C298.922,21.16 300.112,19.508 300.112,17.184 C300.112,14.86 298.922,13.222 297.228,13.222 C295.534,13.222 294.33,14.86 294.33,17.184 C294.33,19.508 295.534,21.16 297.228,21.16 Z M306.874,22.168 C304.522,22.168 302.87,20.11 302.87,17.184 C302.87,14.272 304.522,12.214 306.874,12.214 C309.212,12.214 310.864,14.272 310.864,17.184 C310.864,20.11 309.212,22.168 306.874,22.168 Z M306.874,21.16 C308.568,21.16 309.758,19.508 309.758,17.184 C309.758,14.86 308.568,13.222 306.874,13.222 C305.18,13.222 303.976,14.86 303.976,17.184 C303.976,19.508 305.18,21.16 306.874,21.16 Z" id="#A32100" fill="#000000"></path>
                            <path d="M227.986667,24 L226.946667,21.52 L220.306667,21.52 L219.266667,24 L216.486667,24 L222.226667,10.26 L225.006667,10.26 L230.746667,24 L227.986667,24 Z M221.206667,19.36 L226.046667,19.36 L223.626667,13.58 L221.206667,19.36 Z M236.57,13.42 C239.31,13.42 241.01,15.16 241.01,17.78 L241.01,24 L238.63,24 L238.63,22.76 C237.87,23.72 236.57,24.24 235.37,24.24 C233.17,24.24 231.51,22.94 231.51,20.94 C231.51,18.9 233.41,17.5 235.73,17.5 C236.67,17.5 237.69,17.7 238.63,18.06 L238.63,17.78 C238.63,16.58 237.97,15.42 236.09,15.42 C235.11,15.42 234.17,15.76 233.29,16.2 L232.45,14.5 C233.91,13.78 235.27,13.42 236.57,13.42 Z M235.91,22.46 C237.09,22.46 238.35,21.86 238.63,20.76 L238.63,19.6 C237.87,19.34 237.01,19.2 236.09,19.2 C234.87,19.2 233.89,19.88 233.89,20.86 C233.89,21.84 234.75,22.46 235.91,22.46 Z" id="Aa" fill="#A32100"></path>
                        </g>
                        <g id="yellow-copy-2" transform="translate(0.000000, 96.000000)">
                            <rect id="1-1" fill="#60B515" x="0" y="0" width="6" height="36"></rect>
                            <path d="M20.666,15.756 L19.014,15.756 L18.286,18.64 L19.938,18.64 L19.728,19.494 L18.076,19.494 L17.446,22 L16.522,22 L17.152,19.494 L15.052,19.494 L14.422,22 L13.498,22 L14.128,19.494 L12.546,19.494 L12.756,18.64 L14.338,18.64 L15.066,15.756 L13.47,15.756 L13.68,14.902 L15.29,14.902 L15.92,12.382 L16.844,12.382 L16.214,14.902 L18.314,14.902 L18.944,12.382 L19.868,12.382 L19.238,14.902 L20.876,14.902 L20.666,15.756 Z M17.362,18.64 L18.09,15.756 L15.99,15.756 L15.262,18.64 L17.362,18.64 Z M26.098,15.994 C27.848,15.994 29.318,17.086 29.318,18.99 C29.318,20.768 27.932,22.168 25.93,22.168 C23.326,22.168 22.276,20.054 22.276,17.338 C22.276,14.468 23.984,12.214 26.168,12.214 C27.344,12.214 28.184,12.676 28.898,13.362 L28.296,14.216 C27.694,13.628 27.064,13.208 26.14,13.208 C24.6,13.208 23.382,15.028 23.382,17.338 L23.382,17.464 C23.97,16.54 24.964,15.994 26.098,15.994 Z M25.916,21.23 C27.358,21.23 28.212,20.11 28.212,19.046 C28.212,17.73 27.19,16.932 25.902,16.932 C24.684,16.932 23.746,17.66 23.508,18.724 C23.788,20.18 24.572,21.23 25.916,21.23 Z M34.988,22.168 C32.636,22.168 30.984,20.11 30.984,17.184 C30.984,14.272 32.636,12.214 34.988,12.214 C37.326,12.214 38.978,14.272 38.978,17.184 C38.978,20.11 37.326,22.168 34.988,22.168 Z M34.988,21.16 C36.682,21.16 37.872,19.508 37.872,17.184 C37.872,14.86 36.682,13.222 34.988,13.222 C33.294,13.222 32.09,14.86 32.09,17.184 C32.09,19.508 33.294,21.16 34.988,21.16 Z M41.12,22 L41.12,12.382 L45.53,12.382 C47.084,12.382 48.176,13.376 48.176,14.776 C48.176,15.798 47.672,16.386 46.804,16.89 C47.91,17.45 48.554,18.318 48.554,19.368 C48.554,20.908 47.364,22 45.698,22 L41.12,22 Z M42.212,16.456 L45.25,16.456 C46.314,16.456 47.07,15.812 47.07,14.916 C47.07,14.02 46.314,13.376 45.25,13.376 L42.212,13.376 L42.212,16.456 Z M42.212,21.006 L45.418,21.006 C46.608,21.006 47.448,20.264 47.448,19.228 C47.448,18.192 46.608,17.45 45.418,17.45 L42.212,17.45 L42.212,21.006 Z M53.524,22.168 C55.498,22.168 56.94,20.908 56.94,19.004 C56.94,17.1 55.498,16.008 53.762,16.008 C52.88,16.008 52.222,16.302 51.704,16.652 L51.802,13.418 L56.422,13.418 L56.422,12.382 L50.738,12.382 L50.598,17.324 L51.396,17.716 C51.998,17.268 52.712,16.974 53.538,16.974 C54.882,16.974 55.834,17.814 55.834,19.046 C55.834,20.264 54.896,21.188 53.566,21.188 C52.502,21.188 51.592,20.656 50.85,19.844 L50.136,20.642 C50.92,21.538 52.04,22.168 53.524,22.168 Z M60.258,22 L61.35,22 L61.35,12.382 L60.468,12.382 L58.102,13.992 L58.578,14.804 L60.258,13.712 L60.258,22 Z M66.852,22.168 C68.826,22.168 70.268,20.908 70.268,19.004 C70.268,17.1 68.826,16.008 67.09,16.008 C66.208,16.008 65.55,16.302 65.032,16.652 L65.13,13.418 L69.75,13.418 L69.75,12.382 L64.066,12.382 L63.926,17.324 L64.724,17.716 C65.326,17.268 66.04,16.974 66.866,16.974 C68.21,16.974 69.162,17.814 69.162,19.046 C69.162,20.264 68.224,21.188 66.894,21.188 C65.83,21.188 64.92,20.656 64.178,19.844 L63.464,20.642 C64.248,21.538 65.368,22.168 66.852,22.168 Z" id="#60B515" fill="#000000"></path>
                            <rect id="1-2" fill="#DFF0D0" x="96" y="0" width="86" height="36" rx="3"></rect>
                            <path d="M115.666,15.756 L114.014,15.756 L113.286,18.64 L114.938,18.64 L114.728,19.494 L113.076,19.494 L112.446,22 L111.522,22 L112.152,19.494 L110.052,19.494 L109.422,22 L108.498,22 L109.128,19.494 L107.546,19.494 L107.756,18.64 L109.338,18.64 L110.066,15.756 L108.47,15.756 L108.68,14.902 L110.29,14.902 L110.92,12.382 L111.844,12.382 L111.214,14.902 L113.314,14.902 L113.944,12.382 L114.868,12.382 L114.238,14.902 L115.876,14.902 L115.666,15.756 Z M112.362,18.64 L113.09,15.756 L110.99,15.756 L110.262,18.64 L112.362,18.64 Z M117.752,22 L117.752,12.382 L121,12.382 C124.052,12.382 126.208,14.37 126.208,17.184 C126.208,19.998 124.052,22 121,22 L117.752,22 Z M118.844,21.006 L121,21.006 C123.408,21.006 125.102,19.424 125.102,17.184 C125.102,14.958 123.408,13.376 121,13.376 L118.844,13.376 L118.844,21.006 Z M135.112,13.418 L135.112,12.382 L128.21,12.382 L128.21,22 L129.316,22 L129.316,17.618 L134.538,17.618 L134.538,16.582 L129.316,16.582 L129.316,13.418 L135.112,13.418 Z M143.638,13.418 L143.638,12.382 L136.736,12.382 L136.736,22 L137.842,22 L137.842,17.618 L143.064,17.618 L143.064,16.582 L137.842,16.582 L137.842,13.418 L143.638,13.418 Z M148.986,22.168 C146.634,22.168 144.982,20.11 144.982,17.184 C144.982,14.272 146.634,12.214 148.986,12.214 C151.324,12.214 152.976,14.272 152.976,17.184 C152.976,20.11 151.324,22.168 148.986,22.168 Z M148.986,21.16 C150.68,21.16 151.87,19.508 151.87,17.184 C151.87,14.86 150.68,13.222 148.986,13.222 C147.292,13.222 146.088,14.86 146.088,17.184 C146.088,19.508 147.292,21.16 148.986,21.16 Z M155.118,22 L155.118,12.382 L158.366,12.382 C161.418,12.382 163.574,14.37 163.574,17.184 C163.574,19.998 161.418,22 158.366,22 L155.118,22 Z M156.21,21.006 L158.366,21.006 C160.774,21.006 162.468,19.424 162.468,17.184 C162.468,14.958 160.774,13.376 158.366,13.376 L156.21,13.376 L156.21,21.006 Z M169.3,22.168 C166.948,22.168 165.296,20.11 165.296,17.184 C165.296,14.272 166.948,12.214 169.3,12.214 C171.638,12.214 173.29,14.272 173.29,17.184 C173.29,20.11 171.638,22.168 169.3,22.168 Z M169.3,21.16 C170.994,21.16 172.184,19.508 172.184,17.184 C172.184,14.86 170.994,13.222 169.3,13.222 C167.606,13.222 166.402,14.86 166.402,17.184 C166.402,19.508 167.606,21.16 169.3,21.16 Z" id="#DFF0D0" fill="#000000"></path>
                            <path d="M259.666,15.756 L258.014,15.756 L257.286,18.64 L258.938,18.64 L258.728,19.494 L257.076,19.494 L256.446,22 L255.522,22 L256.152,19.494 L254.052,19.494 L253.422,22 L252.498,22 L253.128,19.494 L251.546,19.494 L251.756,18.64 L253.338,18.64 L254.066,15.756 L252.47,15.756 L252.68,14.902 L254.29,14.902 L254.92,12.382 L255.844,12.382 L255.214,14.902 L257.314,14.902 L257.944,12.382 L258.868,12.382 L258.238,14.902 L259.876,14.902 L259.666,15.756 Z M256.362,18.64 L257.09,15.756 L254.99,15.756 L254.262,18.64 L256.362,18.64 Z M261.122,22 L267.758,22 L267.758,20.964 L262.872,20.964 L265.392,18.78 C267.016,17.38 267.66,16.344 267.66,15.042 C267.66,13.32 266.26,12.214 264.594,12.214 C263.082,12.214 262.004,12.928 261.206,14.062 L261.976,14.692 C262.634,13.796 263.432,13.194 264.552,13.194 C265.574,13.194 266.554,13.88 266.554,15.056 C266.554,16.008 265.994,16.932 264.636,18.094 L261.122,21.09 L261.122,22 Z M273.344,15.994 C275.094,15.994 276.564,17.086 276.564,18.99 C276.564,20.768 275.178,22.168 273.176,22.168 C270.572,22.168 269.522,20.054 269.522,17.338 C269.522,14.468 271.23,12.214 273.414,12.214 C274.59,12.214 275.43,12.676 276.144,13.362 L275.542,14.216 C274.94,13.628 274.31,13.208 273.386,13.208 C271.846,13.208 270.628,15.028 270.628,17.338 L270.628,17.464 C271.216,16.54 272.21,15.994 273.344,15.994 Z M273.162,21.23 C274.604,21.23 275.458,20.11 275.458,19.046 C275.458,17.73 274.436,16.932 273.148,16.932 C271.93,16.932 270.992,17.66 270.754,18.724 C271.034,20.18 271.818,21.23 273.162,21.23 Z M282.066,15.994 C283.816,15.994 285.286,17.086 285.286,18.99 C285.286,20.768 283.9,22.168 281.898,22.168 C279.294,22.168 278.244,20.054 278.244,17.338 C278.244,14.468 279.952,12.214 282.136,12.214 C283.312,12.214 284.152,12.676 284.866,13.362 L284.264,14.216 C283.662,13.628 283.032,13.208 282.108,13.208 C280.568,13.208 279.35,15.028 279.35,17.338 L279.35,17.464 C279.938,16.54 280.932,15.994 282.066,15.994 Z M281.884,21.23 C283.326,21.23 284.18,20.11 284.18,19.046 C284.18,17.73 283.158,16.932 281.87,16.932 C280.652,16.932 279.714,17.66 279.476,18.724 C279.756,20.18 280.54,21.23 281.884,21.23 Z M290.354,12.214 C292.958,12.214 294.008,14.328 294.008,17.044 C294.008,19.914 292.3,22.168 290.116,22.168 C288.94,22.168 288.1,21.706 287.386,21.02 L287.988,20.166 C288.59,20.754 289.22,21.174 290.144,21.174 C291.684,21.174 292.902,19.354 292.902,17.044 L292.902,16.918 C292.314,17.842 291.32,18.388 290.186,18.388 C288.436,18.388 286.966,17.296 286.966,15.392 C286.966,13.614 288.352,12.214 290.354,12.214 Z M290.382,17.45 C291.6,17.45 292.538,16.722 292.776,15.658 C292.496,14.202 291.712,13.152 290.368,13.152 C288.926,13.152 288.072,14.272 288.072,15.336 C288.072,16.652 289.094,17.45 290.382,17.45 Z M299.678,22.168 C297.326,22.168 295.674,20.11 295.674,17.184 C295.674,14.272 297.326,12.214 299.678,12.214 C302.016,12.214 303.668,14.272 303.668,17.184 C303.668,20.11 302.016,22.168 299.678,22.168 Z M299.678,21.16 C301.372,21.16 302.562,19.508 302.562,17.184 C302.562,14.86 301.372,13.222 299.678,13.222 C297.984,13.222 296.78,14.86 296.78,17.184 C296.78,19.508 297.984,21.16 299.678,21.16 Z M309.324,22.168 C306.972,22.168 305.32,20.11 305.32,17.184 C305.32,14.272 306.972,12.214 309.324,12.214 C311.662,12.214 313.314,14.272 313.314,17.184 C313.314,20.11 311.662,22.168 309.324,22.168 Z M309.324,21.16 C311.018,21.16 312.208,19.508 312.208,17.184 C312.208,14.86 311.018,13.222 309.324,13.222 C307.63,13.222 306.426,14.86 306.426,17.184 C306.426,19.508 307.63,21.16 309.324,21.16 Z" id="#266900" fill="#000000"></path>
                            <path d="M227.986667,24 L226.946667,21.52 L220.306667,21.52 L219.266667,24 L216.486667,24 L222.226667,10.26 L225.006667,10.26 L230.746667,24 L227.986667,24 Z M221.206667,19.36 L226.046667,19.36 L223.626667,13.58 L221.206667,19.36 Z M236.57,13.42 C239.31,13.42 241.01,15.16 241.01,17.78 L241.01,24 L238.63,24 L238.63,22.76 C237.87,23.72 236.57,24.24 235.37,24.24 C233.17,24.24 231.51,22.94 231.51,20.94 C231.51,18.9 233.41,17.5 235.73,17.5 C236.67,17.5 237.69,17.7 238.63,18.06 L238.63,17.78 C238.63,16.58 237.97,15.42 236.09,15.42 C235.11,15.42 234.17,15.76 233.29,16.2 L232.45,14.5 C233.91,13.78 235.27,13.42 236.57,13.42 Z M235.91,22.46 C237.09,22.46 238.35,21.86 238.63,20.76 L238.63,19.6 C237.87,19.34 237.01,19.2 236.09,19.2 C234.87,19.2 233.89,19.88 233.89,20.86 C233.89,21.84 234.75,22.46 235.91,22.46 Z" id="Aa" fill="#266900"></path>
                        </g>
                        <g id="yellow-copy-3" transform="translate(0.000000, 144.000000)">
                            <rect id="1-1" fill="#49AFD9" x="0" y="0" width="6" height="36"></rect>
                            <path d="M20.666,15.756 L19.014,15.756 L18.286,18.64 L19.938,18.64 L19.728,19.494 L18.076,19.494 L17.446,22 L16.522,22 L17.152,19.494 L15.052,19.494 L14.422,22 L13.498,22 L14.128,19.494 L12.546,19.494 L12.756,18.64 L14.338,18.64 L15.066,15.756 L13.47,15.756 L13.68,14.902 L15.29,14.902 L15.92,12.382 L16.844,12.382 L16.214,14.902 L18.314,14.902 L18.944,12.382 L19.868,12.382 L19.238,14.902 L20.876,14.902 L20.666,15.756 Z M17.362,18.64 L18.09,15.756 L15.99,15.756 L15.262,18.64 L17.362,18.64 Z M26.938,22 L26.938,19.662 L22.136,19.662 L21.996,18.752 L26.77,12.382 L28.03,12.382 L28.03,18.668 L29.472,18.668 L29.472,19.662 L28.03,19.662 L28.03,22 L26.938,22 Z M23.242,18.668 L26.938,18.668 L26.938,13.698 L23.242,18.668 Z M34.386,12.214 C36.99,12.214 38.04,14.328 38.04,17.044 C38.04,19.914 36.332,22.168 34.148,22.168 C32.972,22.168 32.132,21.706 31.418,21.02 L32.02,20.166 C32.622,20.754 33.252,21.174 34.176,21.174 C35.716,21.174 36.934,19.354 36.934,17.044 L36.934,16.918 C36.346,17.842 35.352,18.388 34.218,18.388 C32.468,18.388 30.998,17.296 30.998,15.392 C30.998,13.614 32.384,12.214 34.386,12.214 Z M34.414,17.45 C35.632,17.45 36.57,16.722 36.808,15.658 C36.528,14.202 35.744,13.152 34.4,13.152 C32.958,13.152 32.104,14.272 32.104,15.336 C32.104,16.652 33.126,17.45 34.414,17.45 Z M47.812,22 L46.846,19.816 L41.484,19.816 L40.518,22 L39.328,22 L43.57,12.382 L44.76,12.382 L49.002,22 L47.812,22 Z M41.932,18.78 L46.398,18.78 L44.172,13.726 L41.932,18.78 Z M57.458,13.418 L57.458,12.382 L50.556,12.382 L50.556,22 L51.662,22 L51.662,17.618 L56.884,17.618 L56.884,16.582 L51.662,16.582 L51.662,13.418 L57.458,13.418 Z M59.292,22 L59.292,12.382 L62.54,12.382 C65.592,12.382 67.748,14.37 67.748,17.184 C67.748,19.998 65.592,22 62.54,22 L59.292,22 Z M60.384,21.006 L62.54,21.006 C64.948,21.006 66.642,19.424 66.642,17.184 C66.642,14.958 64.948,13.376 62.54,13.376 L60.384,13.376 L60.384,21.006 Z M72.872,12.214 C75.476,12.214 76.526,14.328 76.526,17.044 C76.526,19.914 74.818,22.168 72.634,22.168 C71.458,22.168 70.618,21.706 69.904,21.02 L70.506,20.166 C71.108,20.754 71.738,21.174 72.662,21.174 C74.202,21.174 75.42,19.354 75.42,17.044 L75.42,16.918 C74.832,17.842 73.838,18.388 72.704,18.388 C70.954,18.388 69.484,17.296 69.484,15.392 C69.484,13.614 70.87,12.214 72.872,12.214 Z M72.9,17.45 C74.118,17.45 75.056,16.722 75.294,15.658 C75.014,14.202 74.23,13.152 72.886,13.152 C71.444,13.152 70.59,14.272 70.59,15.336 C70.59,16.652 71.612,17.45 72.9,17.45 Z" id="#49AFD9" fill="#000000"></path>
                            <rect id="1-2" fill="#E1F1F6" x="96" y="0" width="86" height="36" rx="3"></rect>
                            <path d="M115.666,15.756 L114.014,15.756 L113.286,18.64 L114.938,18.64 L114.728,19.494 L113.076,19.494 L112.446,22 L111.522,22 L112.152,19.494 L110.052,19.494 L109.422,22 L108.498,22 L109.128,19.494 L107.546,19.494 L107.756,18.64 L109.338,18.64 L110.066,15.756 L108.47,15.756 L108.68,14.902 L110.29,14.902 L110.92,12.382 L111.844,12.382 L111.214,14.902 L113.314,14.902 L113.944,12.382 L114.868,12.382 L114.238,14.902 L115.876,14.902 L115.666,15.756 Z M112.362,18.64 L113.09,15.756 L110.99,15.756 L110.262,18.64 L112.362,18.64 Z M124.444,13.418 L124.444,12.382 L117.542,12.382 L117.542,22 L124.444,22 L124.444,20.964 L118.648,20.964 L118.648,17.618 L123.87,17.618 L123.87,16.582 L118.648,16.582 L118.648,13.418 L124.444,13.418 Z M127.734,22 L128.826,22 L128.826,12.382 L127.944,12.382 L125.578,13.992 L126.054,14.804 L127.734,13.712 L127.734,22 Z M138.164,13.418 L138.164,12.382 L131.262,12.382 L131.262,22 L132.368,22 L132.368,17.618 L137.59,17.618 L137.59,16.582 L132.368,16.582 L132.368,13.418 L138.164,13.418 Z M141.202,22 L142.294,22 L142.294,12.382 L141.412,12.382 L139.046,13.992 L139.522,14.804 L141.202,13.712 L141.202,22 Z M151.632,13.418 L151.632,12.382 L144.73,12.382 L144.73,22 L145.836,22 L145.836,17.618 L151.058,17.618 L151.058,16.582 L145.836,16.582 L145.836,13.418 L151.632,13.418 Z M156.812,15.994 C158.562,15.994 160.032,17.086 160.032,18.99 C160.032,20.768 158.646,22.168 156.644,22.168 C154.04,22.168 152.99,20.054 152.99,17.338 C152.99,14.468 154.698,12.214 156.882,12.214 C158.058,12.214 158.898,12.676 159.612,13.362 L159.01,14.216 C158.408,13.628 157.778,13.208 156.854,13.208 C155.314,13.208 154.096,15.028 154.096,17.338 L154.096,17.464 C154.684,16.54 155.678,15.994 156.812,15.994 Z M156.63,21.23 C158.072,21.23 158.926,20.11 158.926,19.046 C158.926,17.73 157.904,16.932 156.616,16.932 C155.398,16.932 154.46,17.66 154.222,18.724 C154.502,20.18 155.286,21.23 156.63,21.23 Z" id="#E1F1F6" fill="#000000"></path>
                            <path d="M259.666,15.756 L258.014,15.756 L257.286,18.64 L258.938,18.64 L258.728,19.494 L257.076,19.494 L256.446,22 L255.522,22 L256.152,19.494 L254.052,19.494 L253.422,22 L252.498,22 L253.128,19.494 L251.546,19.494 L251.756,18.64 L253.338,18.64 L254.066,15.756 L252.47,15.756 L252.68,14.902 L254.29,14.902 L254.92,12.382 L255.844,12.382 L255.214,14.902 L257.314,14.902 L257.944,12.382 L258.868,12.382 L258.238,14.902 L259.876,14.902 L259.666,15.756 Z M256.362,18.64 L257.09,15.756 L254.99,15.756 L254.262,18.64 L256.362,18.64 Z M265.266,22.168 C262.914,22.168 261.262,20.11 261.262,17.184 C261.262,14.272 262.914,12.214 265.266,12.214 C267.604,12.214 269.256,14.272 269.256,17.184 C269.256,20.11 267.604,22.168 265.266,22.168 Z M265.266,21.16 C266.96,21.16 268.15,19.508 268.15,17.184 C268.15,14.86 266.96,13.222 265.266,13.222 C263.572,13.222 262.368,14.86 262.368,17.184 C262.368,19.508 263.572,21.16 265.266,21.16 Z M274.912,22.168 C272.56,22.168 270.908,20.11 270.908,17.184 C270.908,14.272 272.56,12.214 274.912,12.214 C277.25,12.214 278.902,14.272 278.902,17.184 C278.902,20.11 277.25,22.168 274.912,22.168 Z M274.912,21.16 C276.606,21.16 277.796,19.508 277.796,17.184 C277.796,14.86 276.606,13.222 274.912,13.222 C273.218,13.222 272.014,14.86 272.014,17.184 C272.014,19.508 273.218,21.16 274.912,21.16 Z M285.23,22 L285.23,19.662 L280.428,19.662 L280.288,18.752 L285.062,12.382 L286.322,12.382 L286.322,18.668 L287.764,18.668 L287.764,19.662 L286.322,19.662 L286.322,22 L285.23,22 Z M281.534,18.668 L285.23,18.668 L285.23,13.698 L281.534,18.668 Z M297.382,22 L296.416,19.816 L291.054,19.816 L290.088,22 L288.898,22 L293.14,12.382 L294.33,12.382 L298.572,22 L297.382,22 Z M291.502,18.78 L295.968,18.78 L293.742,13.726 L291.502,18.78 Z M300.952,22 L302.212,22 L306.356,13.208 L306.356,12.382 L299.846,12.382 L299.846,13.418 L305.054,13.418 L300.952,22 Z M312.25,22.168 C309.898,22.168 308.246,20.11 308.246,17.184 C308.246,14.272 309.898,12.214 312.25,12.214 C314.588,12.214 316.24,14.272 316.24,17.184 C316.24,20.11 314.588,22.168 312.25,22.168 Z M312.25,21.16 C313.944,21.16 315.134,19.508 315.134,17.184 C315.134,14.86 313.944,13.222 312.25,13.222 C310.556,13.222 309.352,14.86 309.352,17.184 C309.352,19.508 310.556,21.16 312.25,21.16 Z" id="#004A70" fill="#000000"></path>
                            <path d="M227.986667,24 L226.946667,21.52 L220.306667,21.52 L219.266667,24 L216.486667,24 L222.226667,10.26 L225.006667,10.26 L230.746667,24 L227.986667,24 Z M221.206667,19.36 L226.046667,19.36 L223.626667,13.58 L221.206667,19.36 Z M236.57,13.42 C239.31,13.42 241.01,15.16 241.01,17.78 L241.01,24 L238.63,24 L238.63,22.76 C237.87,23.72 236.57,24.24 235.37,24.24 C233.17,24.24 231.51,22.94 231.51,20.94 C231.51,18.9 233.41,17.5 235.73,17.5 C236.67,17.5 237.69,17.7 238.63,18.06 L238.63,17.78 C238.63,16.58 237.97,15.42 236.09,15.42 C235.11,15.42 234.17,15.76 233.29,16.2 L232.45,14.5 C233.91,13.78 235.27,13.42 236.57,13.42 Z M235.91,22.46 C237.09,22.46 238.35,21.86 238.63,20.76 L238.63,19.6 C237.87,19.34 237.01,19.2 236.09,19.2 C234.87,19.2 233.89,19.88 233.89,20.86 C233.89,21.84 234.75,22.46 235.91,22.46 Z" id="Aa" fill="#004A70"></path>
                        </g>
                    </g>
                    <path d="M0.222,10 L0.222,1.069 L4.317,1.069 C5.76,1.069 6.774,1.992 6.774,3.292 C6.774,4.241 6.306,4.787 5.5,5.255 C6.527,5.775 7.125,6.581 7.125,7.556 C7.125,8.986 6.02,10 4.473,10 L0.222,10 Z M1.236,4.852 L4.057,4.852 C5.045,4.852 5.747,4.254 5.747,3.422 C5.747,2.59 5.045,1.992 4.057,1.992 L1.236,1.992 L1.236,4.852 Z M1.236,9.077 L4.213,9.077 C5.318,9.077 6.098,8.388 6.098,7.426 C6.098,6.464 5.318,5.775 4.213,5.775 L1.236,5.775 L1.236,9.077 Z M11.7031667,10.156 C9.81816666,10.156 8.21916666,8.544 8.21916666,6.633 C8.21916666,4.722 9.81816666,3.123 11.7031667,3.123 C13.5881667,3.123 15.1741667,4.722 15.1741667,6.633 C15.1741667,8.544 13.5881667,10.156 11.7031667,10.156 Z M11.7031667,9.285 C13.0291667,9.285 14.1471667,8.076 14.1471667,6.633 C14.1471667,5.203 13.0291667,3.994 11.7031667,3.994 C10.3641667,3.994 9.24616666,5.203 9.24616666,6.633 C9.24616666,8.076 10.3641667,9.285 11.7031667,9.285 Z M17.5813333,4.592 L17.5813333,3.279 L16.6063333,3.279 L16.6063333,10 L17.5813333,10 L17.5813333,6.243 C17.5813333,4.93 18.6603333,3.994 20.1813333,3.994 L20.1813333,3.123 C18.9463333,3.123 17.9843333,3.695 17.5813333,4.592 Z M26.5145,0.913 L27.4895,0.913 L27.4895,10 L26.5145,10 L26.5145,8.739 C26.0075,9.623 25.1495,10.156 24.0705,10.156 C22.3025,10.156 20.9765,8.7 20.9765,6.633 C20.9765,4.579 22.3025,3.123 24.0705,3.123 C25.1495,3.123 26.0075,3.656 26.5145,4.54 L26.5145,0.913 Z M24.2525,9.285 C25.5785,9.285 26.5145,8.18 26.5145,6.633 C26.5145,5.086 25.5785,3.994 24.2525,3.994 C22.9395,3.994 22.0035,5.086 22.0035,6.633 C22.0035,8.18 22.9395,9.285 24.2525,9.285 Z M32.3146666,9.285 C33.1076666,9.285 34.0176666,8.934 34.4336666,8.479 L35.0316666,9.116 C34.4466666,9.753 33.2636666,10.156 32.3276666,10.156 C30.5336666,10.156 28.9216666,8.687 28.9216666,6.62 C28.9216666,4.618 30.4296666,3.123 32.2366666,3.123 C34.2646666,3.123 35.4216666,4.657 35.4216666,7.01 L29.9226666,7.01 C30.0656666,8.323 30.9886666,9.285 32.3146666,9.285 Z M32.2756666,3.994 C31.0796666,3.994 30.1176666,4.839 29.9356666,6.139 L34.4596666,6.139 C34.3296666,4.93 33.6146666,3.994 32.2756666,3.994 Z M37.8158333,4.592 L37.8158333,3.279 L36.8408333,3.279 L36.8408333,10 L37.8158333,10 L37.8158333,6.243 C37.8158333,4.93 38.8948333,3.994 40.4158333,3.994 L40.4158333,3.123 C39.1808333,3.123 38.2188333,3.695 37.8158333,4.592 Z" id="Border" fill="#5E737F"></path>
                    <path d="M103.436,2.031 L103.436,1.069 L97.027,1.069 L97.027,10 L98.054,10 L98.054,5.931 L102.903,5.931 L102.903,4.969 L98.054,4.969 L98.054,2.031 L103.436,2.031 Z M105.115167,2.057 C105.466167,2.057 105.752167,1.758 105.752167,1.407 C105.752167,1.069 105.466167,0.77 105.115167,0.77 C104.751167,0.77 104.465167,1.069 104.465167,1.407 C104.465167,1.758 104.751167,2.057 105.115167,2.057 Z M104.621167,10 L105.596167,10 L105.596167,3.279 L104.621167,3.279 L104.621167,10 Z M107.288333,10 L108.263333,10 L108.263333,0.913 L107.288333,0.913 L107.288333,10 Z M109.9685,10 L110.9435,10 L110.9435,0.913 L109.9685,0.913 L109.9685,10 Z" id="Fill" fill="#5E737F"></path>
                    <path d="M219.588,10 L220.602,10 L220.602,2.031 L223.605,2.031 L223.605,1.069 L216.585,1.069 L216.585,2.031 L219.588,2.031 L219.588,10 Z M227.936167,9.285 C228.729167,9.285 229.639167,8.934 230.055167,8.479 L230.653167,9.116 C230.068167,9.753 228.885167,10.156 227.949167,10.156 C226.155167,10.156 224.543167,8.687 224.543167,6.62 C224.543167,4.618 226.051167,3.123 227.858167,3.123 C229.886167,3.123 231.043167,4.657 231.043167,7.01 L225.544167,7.01 C225.687167,8.323 226.610167,9.285 227.936167,9.285 Z M227.897167,3.994 C226.701167,3.994 225.739167,4.839 225.557167,6.139 L230.081167,6.139 C229.951167,4.93 229.236167,3.994 227.897167,3.994 Z M238.130333,10 L235.543333,6.568 L238.026333,3.279 L236.882333,3.279 L234.971333,5.814 L233.047333,3.279 L231.903333,3.279 L234.399333,6.568 L231.799333,10 L232.943333,10 L234.971333,7.322 L236.986333,10 L238.130333,10 Z M242.2145,9.012 C242.0715,9.168 241.8115,9.285 241.5125,9.285 C241.1225,9.285 240.7845,8.934 240.7845,8.44 L240.7845,4.15 L242.4355,4.15 L242.4355,3.279 L240.7845,3.279 L240.7845,1.433 L239.8095,1.433 L239.8095,3.279 L238.7565,3.279 L238.7565,4.15 L239.8095,4.15 L239.8095,8.44 C239.8095,9.441 240.4855,10.156 241.4475,10.156 C241.9025,10.156 242.3445,10 242.6955,9.727 L242.2145,9.012 Z" id="Text" fill="#5E737F"></path>
                </g>
            </g>
        </g>
    </g>
</svg>