<!--
  ~ Copyright (c) 2016-2017 VMWare, Inc. All Rights Reserved.
  ~ This software is released under MIT License.
  ~ The full license information can be found in LICENSE in the root directory of this project.
  -->

<svg xmlns="http://www.w3.org/2000/svg" xmlns:xlink="http://www.w3.org/1999/xlink" viewBox="0 0 408 296"><defs><clipPath id="7cbb9328-72f3-4255-bcdf-c50f354a800a"><path d="M391.64-160.5H379.28a8.34,8.34,0,0,0-8.31,8.31v24.92a8.34,8.34,0,0,0,8.31,8.31h4.15v12.46L395.89-119h20.77a8.34,8.34,0,0,0,8.31-8.31v-7.56a4.58,4.58,0,0,1-.83.08" fill="none" clip-rule="evenodd"/></clipPath></defs><title>Row2 Box L</title><g id="fd45bde8-820d-43cd-b06a-f4240ffe6dde" data-name="Layer 1"><rect width="408" height="296" fill="#eee"/></g><g id="ee8eb997-d6fa-4cf6-a82d-aa68bf5a175a" data-name="Layer 2"><rect x="24.5" y="22.5" width="359" height="251" fill="#fff"/><path d="M383,23V273H25V23H383m1-1H24V274H384V22Z" fill="#737373"/><rect x="25" y="50" width="89" height="223" fill="#eee"/><rect x="25" y="23" width="358" height="27" fill="#313131"/><rect x="37" y="31" width="72" height="9" fill="#797b7c"/><circle cx="367.5" cy="35.25" r="6" fill="#797b7c"/><rect x="37" y="61" width="67" height="6" fill="#ccc"/><rect x="37" y="78" width="67" height="6" fill="#ccc"/><rect x="37" y="95" width="67" height="6" fill="#ccc"/><rect x="37" y="112" width="67" height="6" fill="#ccc"/><rect x="37" y="129" width="67" height="6" fill="#ccc"/><rect x="37" y="146" width="67" height="6" fill="#ccc"/><rect x="37" y="163" width="67" height="6" fill="#ccc"/><rect x="126" y="59" width="56" height="9" fill="#ccc"/><rect x="114" y="50" width="1" height="223" fill="#8f9ba3"/><path d="M127.63,190.5H367.37a3.13,3.13,0,0,1,3.13,3.13V208.5a0,0,0,0,1,0,0h-246a0,0,0,0,1,0,0V193.63a3.13,3.13,0,0,1,3.13-3.13Z" fill="#f7f7f7" stroke="#ccc" stroke-miterlimit="10"/><rect x="138" y="197" width="61" height="4" fill="#ccc"/><rect x="232" y="197" width="34" height="4" fill="#ccc"/><rect x="318" y="197" width="35" height="4" fill="#ccc"/><rect x="124.5" y="208.5" width="246" height="18" fill="#fff" stroke="#ccc" stroke-miterlimit="10"/><rect x="138" y="215" width="61" height="4" fill="#ccc"/><rect x="232" y="215" width="34" height="4" fill="#ccc"/><rect x="318" y="215" width="35" height="4" fill="#ccc"/><rect x="124.5" y="226.5" width="246" height="18" fill="#fff" stroke="#ccc" stroke-miterlimit="10"/><rect x="138" y="233" width="61" height="4" fill="#ccc"/><rect x="232" y="233" width="34" height="4" fill="#ccc"/><rect x="318" y="233" width="35" height="4" fill="#ccc"/><rect x="124.5" y="244.5" width="246" height="18" fill="#fff" stroke="#ccc" stroke-miterlimit="10"/><rect x="138" y="251" width="61" height="4" fill="#ccc"/><rect x="232" y="251" width="34" height="4" fill="#ccc"/><rect x="318" y="251" width="35" height="4" fill="#ccc"/><rect x="252.5" y="79.5" width="117" height="99" rx="3" ry="3" fill="#a3acb2" stroke="#a3acb2" stroke-miterlimit="10"/><rect x="124.5" y="79.5" width="117" height="99" rx="3" ry="3" fill="#a3acb2" stroke="#a3acb2" stroke-miterlimit="10"/><rect x="252.5" y="78.5" width="117" height="99" rx="3" ry="3" fill="#fff" stroke="#a3acb2" stroke-miterlimit="10"/><rect x="262" y="88" width="66" height="6" fill="#ccc"/><rect x="311" y="112" width="46" height="4" fill="#ccc"/><rect x="311" y="122" width="33" height="4" fill="#ccc"/><path d="M271.42,136.49a14.82,14.82,0,1,1,20.95-.45" fill="none" stroke="#318700" stroke-miterlimit="10" stroke-width="4" fill-rule="evenodd"/><rect x="262" y="158" width="33" height="12" rx="1.5" ry="1.5" fill="#0079B8"/><rect x="300" y="158" width="33" height="12" rx="1.5" ry="1.5" fill="#0079B8"/><rect x="124.5" y="78.5" width="117" height="99" rx="3" ry="3" fill="#fff" stroke="#a3acb2" stroke-miterlimit="10"/><rect x="134" y="88" width="66" height="6" fill="#ccc"/><rect x="183" y="112" width="46" height="4" fill="#ccc"/><rect x="183" y="122" width="33" height="4" fill="#ccc"/><path d="M143.42,136.49a14.82,14.82,0,1,1,21-.45" fill="none" stroke="#e12200" stroke-miterlimit="10" stroke-width="4" fill-rule="evenodd"/><rect x="134" y="158" width="33" height="12" rx="1.5" ry="1.5" fill="#0079B8"/><rect x="172" y="158" width="33" height="12" rx="1.5" ry="1.5" fill="#0079B8"/></g></svg>