<?xml version="1.0" encoding="UTF-8" standalone="no"?>
<svg width="420px" height="192px" viewBox="0 0 420 192" version="1.1" xmlns="http://www.w3.org/2000/svg" xmlns:xlink="http://www.w3.org/1999/xlink">
    <!-- Generator: Sketch 44.1 (41455) - http://www.bohemiancoding.com/sketch -->
    <title>img-4L-icon</title>
    <desc>Created with Sketch.</desc>
    <defs>
        <polygon id="path-1" points="0 0 420 0 420 190.689954 419.160444 191.308594 407.149778 182.458339 395.139111 191.308594 383.128444 182.458339 371.117778 191.308594 359.107111 182.458339 347.096444 191.308594 335.085778 182.458339 323.075111 191.308594 311.064444 182.458339 299.053778 191.308594 287.043111 182.458339 275.032444 191.308594 263.021778 182.458339 251.011111 191.308594 239.000444 182.458339 226.989778 191.308594 214.979111 182.458339 202.968444 191.308594 190.957778 182.458339 178.947111 191.308594 166.936444 182.458339 154.925778 191.308594 142.915111 182.458339 130.904444 191.308594 118.893778 182.458339 106.883111 191.308594 94.8724444 182.458339 82.8617778 191.308594 70.8511111 182.458339 58.8404444 191.308594 46.8297778 182.458339 34.8191111 191.308594 22.8084444 182.458339 10.7977778 191.308594 0 183.352076"></polygon>
        <polygon id="path-3" points="0 0 420 0 420 190.689954 419.160444 191.308594 407.149778 182.458339 395.139111 191.308594 383.128444 182.458339 371.117778 191.308594 359.107111 182.458339 347.096444 191.308594 335.085778 182.458339 323.075111 191.308594 311.064444 182.458339 299.053778 191.308594 287.043111 182.458339 275.032444 191.308594 263.021778 182.458339 251.011111 191.308594 239.000444 182.458339 226.989778 191.308594 214.979111 182.458339 202.968444 191.308594 190.957778 182.458339 178.947111 191.308594 166.936444 182.458339 154.925778 191.308594 142.915111 182.458339 130.904444 191.308594 118.893778 182.458339 106.883111 191.308594 94.8724444 182.458339 82.8617778 191.308594 70.8511111 182.458339 58.8404444 191.308594 46.8297778 182.458339 34.8191111 191.308594 22.8084444 182.458339 10.7977778 191.308594 0 183.352076"></polygon>
    </defs>
    <g id="Page-1" stroke="none" stroke-width="1" fill="none" fill-rule="evenodd">
        <g id="img-4L-icon">
            <g id="Group">
                <g id="Rectangle-2-+-Rectangle-2-Copy-4-+-Rectangle-6-Copy-7-+-info-74747-copy-3-+-info-74747-copy-6-+-Rectangle-6-Copy-8-+-Rectangle-6-Copy-9-+-Rectangle-6-Copy-10-+-Rectangle-6-Copy-17-Mask">
                    <mask id="mask-2" fill="white">
                        <use xlink:href="#path-1"></use>
                    </mask>
                    <use id="Mask---jagged" fill="#EEEEEE" xlink:href="#path-1"></use>
                    <rect id="Rectangle-2" fill="#FFFFFF" mask="url(#mask-2)" x="24" y="20" width="372" height="213"></rect>
                    <polyline id="Rectangle-2-Copy-4" stroke="#CCCCCC" stroke-linecap="square" mask="url(#mask-2)" points="24 233 24 20 24 20 396 20 396 233"></polyline>
                    <path d="M56,47.0024733 C56,46.4488226 56.4444416,46 57.0012552,46 L236.998745,46 C237.551723,46 238,46.455761 238,47.0024733 L238,56.9975267 C238,57.5511774 237.555558,58 236.998745,58 L57.0012552,58 C56.4482772,58 56,57.544239 56,56.9975267 L56,47.0024733 Z" id="Rectangle-6-Copy-7" fill="#EEEEEE" mask="url(#mask-2)"></path>
                    <g id="info-74747" mask="url(#mask-2)">
                        <g transform="translate(244.000000, 42.000000)" id="Page-1">
                            <g>
                                <path d="M7.95346667,3 C8.4688,3 8.8868,3.418 8.8868,3.93333333 C8.8868,4.44866667 8.4688,4.86666667 7.95346667,4.86666667 C7.43813333,4.86666667 7.02013333,4.44866667 7.02013333,3.93333333 C7.02013333,3.418 7.43813333,3 7.95346667,3" id="Fill-1" fill="#747474"></path>
                                <path d="M10,11.3333333 L8.66666667,11.3333333 L8.66666667,6 L6.66666667,6 C6.29866667,6 6,6.29866667 6,6.66666667 C6,7.03466667 6.29866667,7.33333333 6.66666667,7.33333333 L7.33333333,7.33333333 L7.33333333,11.3333333 L6,11.3333333 C5.632,11.3333333 5.33333333,11.6313333 5.33333333,12 C5.33333333,12.3686667 5.632,12.6666667 6,12.6666667 L10,12.6666667 C10.3686667,12.6666667 10.6666667,12.3686667 10.6666667,12 C10.6666667,11.6313333 10.3686667,11.3333333 10,11.3333333" id="Fill-3" fill="#747474"></path>
                                <path d="M8,14.6666667 C4.318,14.6666667 1.33333333,11.6813333 1.33333333,8 C1.33333333,4.318 4.318,1.33333333 8,1.33333333 C11.6813333,1.33333333 14.6666667,4.318 14.6666667,8 C14.6666667,11.6813333 11.6813333,14.6666667 8,14.6666667 M8,0 C3.582,0 0,3.582 0,8 C0,12.418 3.582,16 8,16 C12.418,16 16,12.418 16,8 C16,3.582 12.418,0 8,0" id="Fill-5" fill="#747474"></path>
                            </g>
                        </g>
                    </g>
                    <g id="info-74747" mask="url(#mask-2)">
                        <g transform="translate(273.000000, 102.000000)" id="Page-1">
                            <g>
                                <path d="M7.95346667,3 C8.4688,3 8.8868,3.418 8.8868,3.93333333 C8.8868,4.44866667 8.4688,4.86666667 7.95346667,4.86666667 C7.43813333,4.86666667 7.02013333,4.44866667 7.02013333,3.93333333 C7.02013333,3.418 7.43813333,3 7.95346667,3" id="Fill-1" fill="#747474"></path>
                                <path d="M10,11.3333333 L8.66666667,11.3333333 L8.66666667,6 L6.66666667,6 C6.29866667,6 6,6.29866667 6,6.66666667 C6,7.03466667 6.29866667,7.33333333 6.66666667,7.33333333 L7.33333333,7.33333333 L7.33333333,11.3333333 L6,11.3333333 C5.632,11.3333333 5.33333333,11.6313333 5.33333333,12 C5.33333333,12.3686667 5.632,12.6666667 6,12.6666667 L10,12.6666667 C10.3686667,12.6666667 10.6666667,12.3686667 10.6666667,12 C10.6666667,11.6313333 10.3686667,11.3333333 10,11.3333333" id="Fill-3" fill="#747474"></path>
                                <path d="M8,14.6666667 C4.318,14.6666667 1.33333333,11.6813333 1.33333333,8 C1.33333333,4.318 4.318,1.33333333 8,1.33333333 C11.6813333,1.33333333 14.6666667,4.318 14.6666667,8 C14.6666667,11.6813333 11.6813333,14.6666667 8,14.6666667 M8,0 C3.582,0 0,3.582 0,8 C0,12.418 3.582,16 8,16 C12.418,16 16,12.418 16,8 C16,3.582 12.418,0 8,0" id="Fill-5" fill="#747474"></path>
                            </g>
                        </g>
                    </g>
                    <path d="M56,77.0024733 C56,76.4488226 56.4442603,76 57.0031462,76 L279.996854,76 C280.550876,76 281,76.455761 281,77.0024733 L281,86.9975267 C281,87.5511774 280.55574,88 279.996854,88 L57.0031462,88 C56.4491238,88 56,87.544239 56,86.9975267 L56,77.0024733 Z" id="Rectangle-6-Copy-8" fill="#EEEEEE" mask="url(#mask-2)"></path>
                    <path d="M56,107.002473 C56,106.448823 56.4483563,106 56.9996064,106 L266.000394,106 C266.552461,106 267,106.455761 267,107.002473 L267,116.997527 C267,117.551177 266.551644,118 266.000394,118 L56.9996064,118 C56.4475391,118 56,117.544239 56,116.997527 L56,107.002473 Z" id="Rectangle-6-Copy-9" fill="#EEEEEE" mask="url(#mask-2)"></path>
                    <path d="M56,137.002473 C56,136.448823 56.4476817,136 57.0071451,136 L215.992855,136 C216.549086,136 217,136.455761 217,137.002473 L217,146.997527 C217,147.551177 216.552318,148 215.992855,148 L57.0071451,148 C56.4509142,148 56,147.544239 56,146.997527 L56,137.002473 Z" id="Rectangle-6-Copy-10" fill="#EEEEEE" mask="url(#mask-2)"></path>
                    <path d="M56,167.002473 C56,166.448823 56.4470265,166 57.0078199,166 L250.99218,166 C251.548784,166 252,166.455761 252,167.002473 L252,176.997527 C252,177.551177 251.552974,178 250.99218,178 L57.0078199,178 C56.4512163,178 56,177.544239 56,176.997527 L56,167.002473 Z" id="Rectangle-6-Copy-17" fill="#EEEEEE" mask="url(#mask-2)"></path>
                </g>
                <mask id="mask-4" fill="white">
                    <use xlink:href="#path-3"></use>
                </mask>
                <path stroke="#CCCCCC" d="M0.5,0.5 L0.5,183.099427 L10.7977778,190.687512 L22.8084444,181.837257 L34.8191111,190.687512 L46.8297778,181.837257 L58.8404444,190.687512 L70.8511111,181.837257 L82.8617778,190.687512 L94.8724444,181.837257 L106.883111,190.687512 L118.893778,181.837257 L130.904444,190.687512 L142.915111,181.837257 L154.925778,190.687512 L166.936444,181.837257 L178.947111,190.687512 L190.957778,181.837257 L202.968444,190.687512 L214.979111,181.837257 L226.989778,190.687512 L239.000444,181.837257 L251.011111,190.687512 L263.021778,181.837257 L275.032444,190.687512 L287.043111,181.837257 L299.053778,190.687512 L311.064444,181.837257 L323.075111,190.687512 L335.085778,181.837257 L347.096444,190.687512 L359.107111,181.837257 L371.117778,190.687512 L383.128444,181.837257 L395.139111,190.687512 L407.149778,181.837257 L419.160444,190.687512 L419.5,190.437305 L419.5,0.5 L0.5,0.5 Z"></path>
            </g>
        </g>
    </g>
</svg>