<svg xmlns="http://www.w3.org/2000/svg" xmlns:xlink="http://www.w3.org/1999/xlink" width="693" height="520"><defs><linearGradient id="a" x1="316.49" y1="217.88" x2="583.34" y2="217.88" gradientUnits="userSpaceOnUse"><stop offset="0" stop-color="#004a6e"/><stop offset=".51" stop-color="#004a6e"/><stop offset=".59" stop-color="#004a6e" stop-opacity=".92"/><stop offset=".71" stop-color="#004a6e" stop-opacity=".72"/><stop offset=".86" stop-color="#004a6e" stop-opacity=".38"/><stop offset="1" stop-color="#004a6e" stop-opacity="0"/></linearGradient><linearGradient id="e" x1="333.73" y1="191.41" x2="410" y2="191.41" xlink:href="#a"/><linearGradient id="c" x1="92.72" y1="373.93" x2="144.58" y2="373.93" gradientUnits="userSpaceOnUse"><stop offset="0" stop-color="#004a6e" stop-opacity="0"/><stop offset=".14" stop-color="#004a6e" stop-opacity=".38"/><stop offset=".29" stop-color="#004a6e" stop-opacity=".72"/><stop offset=".41" stop-color="#004a6e" stop-opacity=".92"/><stop offset=".49" stop-color="#004a6e"/><stop offset="1" stop-color="#004a6e"/></linearGradient><linearGradient id="f" x1="139.53" y1="348.47" x2="207.39" y2="348.47" xlink:href="#a"/><linearGradient id="d" x1="249.26" y1="209.91" x2="684.05" y2="209.91" gradientUnits="userSpaceOnUse"><stop offset="0" stop-color="#1f891f"/><stop offset=".49" stop-color="#80c64e"/><stop offset="1" stop-color="#1f891f"/></linearGradient><linearGradient id="g" x1="133.44" y1="199.07" x2="181.44" y2="239.07" gradientUnits="userSpaceOnUse"><stop offset="0" stop-color="#002538"/><stop offset=".25" stop-color="#002a40" stop-opacity=".85"/><stop offset=".65" stop-color="#003956" stop-opacity=".45"/><stop offset="1" stop-color="#004a6e" stop-opacity="0"/></linearGradient><linearGradient id="b" x1="4.74" y1="212.64" x2="98.05" y2="334.91" gradientUnits="userSpaceOnUse"><stop offset=".09" stop-color="#1f891f"/><stop offset=".56" stop-color="#80c64e"/><stop offset="1" stop-color="#1f891f"/></linearGradient><linearGradient id="h" x1="41.35" y1="-319.82" x2="99.51" y2="-319.82" gradientTransform="rotate(9.11 -3108.78 155.836)" gradientUnits="userSpaceOnUse"><stop offset=".09" stop-color="#f6b5ff"/><stop offset=".98" stop-color="#a770ff"/></linearGradient><linearGradient id="i" x1="73.87" y1="-335.46" x2="52.12" y2="-301.65" gradientTransform="rotate(9.11 -3108.78 155.836)" gradientUnits="userSpaceOnUse"><stop offset="0" stop-color="#ffe2ff"/><stop offset=".48" stop-color="#ffe2ff" stop-opacity="0"/></linearGradient><linearGradient id="j" x1="172.5" y1="423.08" x2="274.75" y2="423.08" xlink:href="#a"/><linearGradient id="k" x1="559.16" y1="235.5" x2="638.65" y2="205.5" xlink:href="#a"/><linearGradient id="l" x1="536.32" y1="327.09" x2="690" y2="327.09" xlink:href="#b"/><linearGradient id="m" x1="577.06" y1="290.26" x2="598.05" y2="290.26" gradientUnits="userSpaceOnUse"><stop offset="0" stop-color="#80c64e"/><stop offset=".87" stop-color="#80c64e" stop-opacity="0"/></linearGradient><linearGradient id="n" x1="554.25" y1="334.7" x2="662.5" y2="334.7" xlink:href="#c"/><linearGradient id="o" x1="-325.55" y1="1258.73" x2="-337.63" y2="1242.45" gradientTransform="rotate(-49.41 -1376.214 13.127)" gradientUnits="userSpaceOnUse"><stop offset=".05" stop-color="#6a53a3"/><stop offset=".38" stop-color="#01678c" stop-opacity="0"/></linearGradient><linearGradient id="p" x1="220.25" y1="38.9" x2="193.85" y2="41.19" gradientTransform="rotate(.38 -1115.356 1033.522)" gradientUnits="userSpaceOnUse"><stop offset=".05" stop-color="#6a53a3"/><stop offset=".4" stop-color="#01aec1"/><stop offset="1" stop-color="#01678c" stop-opacity="0"/></linearGradient><linearGradient id="q" x1="192.64" y1="50.83" x2="279.46" y2="50.83" gradientUnits="userSpaceOnUse"><stop offset=".01" stop-color="#c6e345"/><stop offset=".28" stop-color="#45b649"/><stop offset=".6" stop-color="#01678c"/><stop offset=".95" stop-color="#6a53a3"/></linearGradient><linearGradient id="r" x1="193.43" y1="67.21" x2="229.2" y2="53.7" gradientUnits="userSpaceOnUse"><stop offset="0" stop-color="#ff66af"/><stop offset=".66" stop-color="#6417ff" stop-opacity="0"/></linearGradient><linearGradient id="s" x1="151.22" y1="67.9" x2="190.73" y2="67.9" gradientTransform="rotate(.38 -1115.356 1033.522)" gradientUnits="userSpaceOnUse"><stop offset="0" stop-color="#0094d2"/><stop offset=".25" stop-color="#1678dc"/><stop offset=".8" stop-color="#4e32f5"/><stop offset="1" stop-color="#6417ff"/></linearGradient><linearGradient id="t" x1="218.42" y1="6.89" x2="229.81" y2="47.17" gradientTransform="rotate(.38 -1115.356 1033.522)" gradientUnits="userSpaceOnUse"><stop offset=".05" stop-color="#45a8ff"/><stop offset=".27" stop-color="#45a8ff"/><stop offset=".84" stop-color="#45a8ff" stop-opacity="0"/></linearGradient><linearGradient id="u" x1="218.42" y1="6.89" x2="225.74" y2="32.78" gradientTransform="rotate(.38 -1115.356 1033.522)" gradientUnits="userSpaceOnUse"><stop offset=".05" stop-color="#6a53a3"/><stop offset=".54" stop-color="#6754a2" stop-opacity=".93"/><stop offset="1" stop-color="#01678c" stop-opacity=".4"/></linearGradient><linearGradient id="v" x1="355.88" y1="194.76" x2="430.49" y2="194.76" gradientUnits="userSpaceOnUse"><stop offset="0" stop-color="#1f5e34"/><stop offset=".83" stop-color="#1f891f" stop-opacity="0"/></linearGradient><linearGradient id="w" x1="285.82" y1="184.73" x2="464.01" y2="184.73" xlink:href="#d"/></defs><g data-name="Layer 2"><path fill="#004a6e" d="M378.13 451.81l-105.3-62 105.1-62 105.29 61.95-105.09 62.05z"/><path fill="#964221" d="M377.73 149.9l-104.95 62.14 44.06 25.99 29.1 17.17 31.94 18.84 105.1-62-105.25-62.14z"/><path fill="#0094d2" d="M483.71 87.61L377.73 149.9l176.54 104.21v93.58L378.13 451.81l105.88 62.68 178.6-105.69.3-215.21-179.2-105.98z"/><path d="M459.88 194.15c-39.18-3.75-90.29 22.22-143.39 43.51l7.45 4.32c49.53-21.22 96.33-45.49 133.45-40.9 17.15 2.12 26.76 1.53 41.05 20l13 7.61c-5.44-9.69-20.65-31.59-51.56-34.54z" fill="url(#a)" opacity=".11"/><path d="M336.27 244.79l-2.54 2.72 7.83 4.64c36.79-38.12 43.73-69.85 59.77-102.48 1.77-3.59 6.8-16 8.67-19l-7.22 5.16c-15.24 30.61-20.57 58.64-66.51 108.96z" opacity=".16" fill="url(#e)"/><path fill="#f18a21" d="M201.19 347.69v-93.58L377.73 149.9 271.75 87.61 92.56 193.59l.29 215.21 178.6 105.69 106.68-62.68-176.94-104.12z"/><path d="M92.72 315.74v9.09c13.7 16 28.91 33.06 39.55 58.95 3.51 8.55 9.05 25.22-2.61 38.89a27.4 27.4 0 0 1-5.4 4.72l8 4.74a6.9 6.9 0 0 0 .73-.52c12.75-11.48 14.94-30.74 6.72-50.75-12.77-31.11-31.85-47.71-46.99-65.12z" fill="url(#c)" opacity=".14"/><path d="M201.19 347.69l-.11-33.26c-7.08 1.77-15 4-23.37 6.91-28.34 9.8-38.18 59.51-38.18 59.51s28.36 6.93 48.74-7.53c6.52-4.63 13.14-12.91 19.12-22z" opacity=".14" fill="url(#f)"/><path d="M133.17 380.43s-17.38-53.23 4.39-73.93a240.75 240.75 0 0 1 43.09-32.65s6.6 58-5.05 80.23-42.43 26.35-42.43 26.35z" fill="#abd037"/><path d="M180.65 273.85s6.6 58-5.05 80.23-42.43 26.35-42.43 26.35z" fill="#2a9e59"/><path d="M649.5 325.16s-10-34.45 1.83-54.49c13-22 38.61-26.37 38.61-26.37s3.11 45.1-6.68 61.93-33.76 18.93-33.76 18.93z" fill="#abd037"/><path d="M662.82 257.29a51.33 51.33 0 0 0-11.49 13.38c-11.84 20-1.83 54.49-1.83 54.49a57.86 57.86 0 0 0 13.23-3.16z" fill="#3aaf72"/><path d="M689.94 244.3s9.39 36.7-6.68 61.93c-10.46 16.42-33.76 18.93-33.76 18.93z" fill="#39a839"/><path d="M606 177.07s-42.75-7.39-56.78-30.18c-18.7-30.36 0-56.93 0-56.93s47.54 19.13 58.27 38.54-1.49 48.57-1.49 48.57z" fill="#abd037"/><path fill="#964221" d="M377.73 149.9l-104.95 62.14 44.06 25.99 29.1 17.17 31.94 18.84 105.1-62-105.25-62.14z"/><path d="M459.88 194.15c-39.18-3.75-90.29 22.22-143.39 43.51l7.45 4.32c49.53-21.22 96.33-45.49 133.45-40.9 17.15 2.12 26.76 1.53 41.05 20l13 7.61c-5.44-9.69-20.65-31.59-51.56-34.54z" fill="url(#a)" opacity=".11"/><path d="M541 121.48a53.42 53.42 0 0 0 8.21 25.41c14 22.79 56.78 30.18 56.78 30.18a87.32 87.32 0 0 0 4.33-14.6z" fill="#3aaf72"/><path d="M549.23 90s47 12.65 57.77 32c15 27-1 55.07-1 55.07z" fill="#39a839"/><path d="M642.59 169.57s-4.92-19.24-.16-38.87c5.15-21.23 26-26 26-26s14.74 16 3.24 38.93a51.86 51.86 0 0 1-29.08 25.94zM70 296.12s-6.35-16.64-3.7-33.12c2.9-17.82 22.7-16.23 22.7-16.23zM451.12 138.38s37.72 2.4 40.07 34.09c1.66 22.38-6.45 24.64-6.45 24.64zM423.88 68.07s-9.19-6-17.9-1.19c-4.89 2.7-12.35 7.9-14.37 22.29-4.06 28.74 0 42.59 0 42.59z" fill="#abd037"/><path d="M423.88 68.07s-44.55 14.47-44.25 41.55c.18 16.4 12 22.14 12 22.14z" fill="#39a839"/><path d="M681.8 179.22c-6.67-11-31.77-13.3-69.87 2.63-28.62 12-60.25 40.6-85.5 49.48s-30.86-8.76-34.83-17.33-17.12-33-45.59-36.15c-42.32-4.65-100.65 36.55-158.41 57.68-34.63 12.67-36.65-.82-27.48-16.42l-5.09 3c-10.7 17-9.22 36 27.94 23 59-20.64 117.54-66.51 160.87-60.34 19.55 2.78 27.83.89 48.79 43.45 7.68 15.57 22.93 14.66 33.49 11 25.24-8.88 59.94-39.36 88.55-51.32 38.11-15.92 59.71-14.91 63.53-2.58 3.57 11.51-15.34 25.74-15.34 25.74l-.31 10.63a81.11 81.11 0 0 0 13.77-14.55c10.68-14.27 7.98-23.77 5.48-27.92z" fill="url(#d)"/><path d="M97.68 165.13a63.12 63.12 0 0 0-12.78-7.58c-15.45-7.05-38.9 6.5-38.9 6.5L89.53 188z" fill="#abd037"/><path d="M128 165.38a83.53 83.53 0 0 0 9.71-11.22c18.56-25.83 3.9-63.2 3.9-63.2s-35.93 12.47-51.48 36.42c-12.13 18.72-8.44 45.51-6.24 56.33z" fill="#2d4ff7" opacity=".67"/><path d="M82.77 182.82s-8.9-22.2-17.75-45.25c-14.18-36.93 16.79-61.42 16.79-61.42s32.3 22 30.94 49.45c-1.51 30.48-29.98 57.22-29.98 57.22z" fill="#909bfc"/><path d="M90.1 127.85c-11.57 17.83-8.77 43-6.58 54.66 4.61-4.58 27.83-29 29.19-56.44a39.26 39.26 0 0 0-3.45-17.52c-7.26 5.26-14.26 11.7-19.16 19.3z" fill="#4f47b2" opacity=".8"/><path d="M170.55 189.33c-5.48 12-12 12.67-12 12.67s10.13.67 15.83 12.67-2.71 40.33-2.71 40.33L137 224.67s7 8-2.54 26.66C126.63 266.71 118 270 118 270s3-23.25-7.92-38.5c-12.33-17.21-17.08-15-17.08-15l-.43-22.91 77.36-47.92s15.5 11 .62 43.66z" opacity=".14" fill="url(#g)"/><path d="M82.07 182.51s13-31.46 39.7-41.68 63.05.83 63.05.83-10.13 38.85-40.34 48.81c-33.48 11.06-62.41-7.96-62.41-7.96z" fill="#4b74e8"/><path d="M144.48 190.47c30.21-10 40.34-48.81 40.34-48.81s-1.11-.33-3.06-.83L98.63 190c11.56 3.73 28.05 6.34 45.85.47z" fill="#7150a5" opacity=".8"/><path d="M121.52 140.28c-22.14 8.49-34.87 31.6-38.56 39.2.22 1.32.45 2.51.66 3.56l.17.09c1.5-.25 14.78-2.6 25.46-7.18 14-6 22.5-14 28.22-22.34A50.66 50.66 0 0 0 145 136a72.38 72.38 0 0 0-23.48 4.28z" fill="#6e50cc" opacity=".8"/><path d="M127.72 372.2C104.21 315 59.41 306.82 57 252.53c-2.53-56.9 40.8-81.2 40.8-81.2l-10.16-2.86S46 192.49 48.5 249.39c2.41 54.29 48.27 68.51 71.78 125.72 3.51 8.55 9.05 25.22-2.61 38.89-8.65 10.12-27.77 13.6-36 15-13.6 2.32-32.34 4-29.67-5.67 2.8-10.14 29.67-25.58 41-31.7v-7.38c-12.77 7.54-45.93 28.52-47 43.42-.69 9.54 21.74 12 43.67 7.33 15.39-3.25 29.3-10.35 31.33-12.06 12.75-11.48 14.94-30.74 6.72-50.74z" fill="url(#b)"/><path d="M17.5 111.41l71 68.78s23.32-8.19 6-45-77-23.78-77-23.78z" fill="#c86af9" opacity=".67"/><path d="M82.66 170.28s-17.32-2.63-26 6.91c-12.27 13.48-6.33 25.41-6.33 25.41l40.14-14z" fill="#5dc15d"/><path d="M82.66 170.28s-11.43-1.73-20.37 2.72l27.24 15 .3-.85z" fill="#2a9e59"/><path d="M84.79 179.37a55.21 55.21 0 0 1 31.46-7.57c12.15.72 29.36 8.18 37.5 16.15 20.52 20.08 6.24 42 6.24 42z" fill="#cb87ff"/><path d="M144.48 190.47a45.76 45.76 0 0 0 8.12-3.59c-8.52-7.55-24.74-14.39-36.35-15.08a55.21 55.21 0 0 0-31.46 7.57l17.36 11.68c11.27 3.11 26.26 4.72 42.33-.58z" fill="#844ddb" opacity=".9"/><circle cx="110.26" cy="127.2" r="2.4" fill="#fefefe" opacity=".94"/><circle cx="121.99" cy="149.03" r="2.23" fill="#fefefe" opacity=".94"/><circle cx="113.29" cy="154.59" r="2.23" fill="#fefefe" opacity=".94"/><circle cx="107.47" cy="148.98" r="3.03" fill="#fefefe" opacity=".94"/><circle cx="115.21" cy="176.83" r="3.87" fill="#fefefe" opacity=".94"/><path d="M89.46 217.06a67.44 67.44 0 0 0 18.33-.81c18.65-3.58 25.12-13.22 25.12-13.22l-51.29-47.45c-.94 16.65 3.85 43.03 7.84 61.48z" fill="url(#h)"/><path d="M89.46 217.06a67.44 67.44 0 0 0 18.33-.81c18.65-3.58 25.12-13.22 25.12-13.22l-51.29-47.45c-.94 16.65 3.85 43.03 7.84 61.48z" fill="url(#i)"/><path d="M202.5 392c-33.2 18.8-45.92 31.58-51.17 47.33-3.82 11.47-.64 26.2 13.17 30.67 17.5 5.67 31-.36 31-.36l-8.45-5c-6.38 1.3-13.18 1.76-18.35-.24-14.38-5.56-13-20.38-7.71-29.06 8.75-14.25 16.94-21.82 40-36 21-12.92 45.24-19.41 55.67-21.66a202.81 202.81 0 0 1 44.34-4.35l10.5-6.33a214.92 214.92 0 0 0-50.75 4c-24.61 5.13-48.24 15.33-58.25 21z" fill="#1f891f"/><path d="M88.78 329.27S76.63 316.57 60 311.19c-18-5.82-30.45 8.15-30.45 8.15s5.49 18.78 27.49 20.49a42.73 42.73 0 0 0 31.74-10.56z" fill="#2a9e59"/><path d="M92.55 193.59v.87c.35-.39.71-.77 1.06-1.14z" fill="#6d4a24" opacity=".36"/><path d="M267.25 385.83s-22.75 2.5-57.25 28c-11.88 8.78-30.55 27.26-37.5 41.5l8.5 5s12.7-21.45 32.75-38.25c29.25-24.5 61-31.5 61-31.5z" opacity=".14" fill="url(#j)"/><g opacity=".59"><path d="M611.78 204.86c-24.35 8.22-51.79 28.1-75.23 38.86l13 6.28c22.55-11.62 42.69-31.25 64.44-38.59 21.93-7.41 38.28-9.75 48.94-8.1v-7.69c-12.12-1.8-29.15 1.81-51.15 9.24z" fill="url(#k)" opacity=".28"/></g><path d="M662.75 333.15c-19.88-8.08-41.35-13.23-61.32-18.89-6.3-4.68-17.61-14.32-20.36-25-3.88-15 12.3-20.4 12.3-20.4l-3.17.91s-15.93 6.13-12.71 21.23c1.89 8.84 10.2 16.4 16.76 21.15-13.68-4.08-26.44-8.6-37.23-14.75-28.11-16-2.52-29.1-2.52-29.1v-9.58s-15.91 8.54-18 20.5c-1.12 6.4 3 15.4 12.79 21 28.11 16 69.64 22.13 105.62 37.22 46.3 19.42 17.66 42 7.84 48.43v9.56c10.41-6.8 55.73-39.64 0-62.28z" fill="url(#l)"/><path d="M598.05 311.63c-6.34-5.18-14.67-13.41-17-22.34-3.88-15 12.3-20.4 12.3-20.4l-3.17.91s-15.93 6.13-12.71 21.23c1.54 7.19 7.33 13.54 13 18.22z" fill="url(#m)"/><path d="M554.25 315.75v6.81c28.92 10.33 66 17.22 99.71 27.94 3.15 1 6 2.06 8.54 3.16v-12.78l-1.32-.42c-36.71-11.21-77.18-11.95-106.93-24.71z" fill="url(#n)" opacity=".17"/><path d="M249.91 46.38a41.78 41.78 0 0 0 4.24-18.2c0-14.74-11.75-24.11-11.75-24.11" opacity=".34" fill="url(#o)"/><path d="M238 58.22a34.52 34.52 0 0 0-4.41-7c-7.57-9.5-19.65-16.54-29.39-17.67l18.38 30.63z" opacity=".37" fill="url(#p)"/><path d="M264.35 29.21A53.82 53.82 0 0 1 246.67 43a83.89 83.89 0 0 1-32.44 7.86 13.87 13.87 0 0 0-8.16-2.13c-7.92.44-13.92 7.56-13.4 15.9a16 16 0 0 0 1.72 6.27l1.27-.24a52 52 0 0 0 33.58-2.17c11.78-4.79 17.83-18 19.68-21.07l30.54-15.65z" fill="url(#q)"/><path d="M206.07 48.72c-7.92.44-13.92 7.56-13.4 15.9a16 16 0 0 0 1.72 6.27l1.27-.24a51 51 0 0 0 26.1.25c.08-.23 1.51-5.88-.36-10.75-1.93-5-7.17-9.3-7.17-9.3a13.87 13.87 0 0 0-8.16-2.13z" fill="url(#r)"/><circle cx="200.84" cy="58.32" r="1.35" fill="#fff"/><path d="M197.15 70.45s-5.16.44-17.72 5.35a230.57 230.57 0 0 0-21.89 9.87 96.68 96.68 0 0 1 14.21-8.92 211 211 0 0 1 21.41-9.53z" fill="url(#s)"/><path d="M242.29 36.42l5.16-5.26a24.14 24.14 0 0 0-1.51-4.82L239 33l6.09-8.32a23.48 23.48 0 0 0-3.84-5.29l-7.2 11.13 5.4-12.81a22.37 22.37 0 0 0-7.25-4.05l-12.49 47.72a23.16 23.16 0 0 0 2.78.28c13.11.45 24.48-10.19 25.4-23.78a25.24 25.24 0 0 0-.2-5.31z" opacity=".7" fill="url(#t)"/><path d="M242.29 36.42l5.16-5.26a24.14 24.14 0 0 0-1.51-4.82L239 33l6.09-8.32a23.48 23.48 0 0 0-3.84-5.29l-7.2 11.13 5.4-12.81a22.37 22.37 0 0 0-7.25-4.05l-12.49 47.72a23.16 23.16 0 0 0 2.78.28c13.11.45 24.48-10.19 25.4-23.78a25.24 25.24 0 0 0-.2-5.31z" opacity=".7" fill="url(#u)"/><path fill="none" stroke="#a3c1d1" stroke-linecap="round" stroke-miterlimit="10" stroke-width="4" d="M453.84 51.03"/><path d="M452.51 41c-.54-10.24 1.34-20.63 5.87-28.39C469.26-6 488.67 7 480.56 26.34 469.55 52.57 437 61 403 52.25c-35-9-44.66-28.66-85-26.14a50.41 50.41 0 0 0-23.3 7.65" fill="none" stroke="#a3c1d1" stroke-linecap="round" stroke-miterlimit="10" stroke-width="4" stroke-dasharray="0 10.14"/><path fill="none" stroke="#a3c1d1" stroke-linecap="round" stroke-miterlimit="10" stroke-width="4" d="M562 57"/><path d="M552.75 60.68c-19.5 7-57.26 16.82-79.75 9.32-8.75-2.92-14.62-8.49-17.49-14.28" fill="none" stroke="#a3c1d1" stroke-linecap="round" stroke-miterlimit="10" stroke-width="4" stroke-dasharray="0 9.96"/><path fill="none" stroke="#a3c1d1" stroke-linecap="round" stroke-miterlimit="10" stroke-width="4" d="M453.84 51.03"/><path d="M355.35 102.46s-6.1 4.86-3.73 10.65 14.16 11.68 14.16 11.68 1-8.26-2.79-14.24-7.64-8.09-7.64-8.09z" fill="#2d4ff7" opacity=".67"/><path d="M345.69 106.26s-3.74 8.45 1.3 13.48 19.42 5.2 19.42 5.2S363.5 115.5 357 111s-11.31-4.74-11.31-4.74z" fill="#e1bbff"/><path d="M605.28 263.44s-7.67-3.47-13.63-1-8.93 11.77-8.93 11.77 10.17 3.26 16 1.58c9.38-2.68 6.56-12.35 6.56-12.35z" fill="#4067d3"/><path d="M598.62 259.44s-6.33-3.41-10.51.25-5.11 14.87-5.11 14.87 8.18.79 12.37-2.07c6.71-4.62 3.25-13.05 3.25-13.05z" fill="#e1bbff"/><path d="M355.88 211.51c27-13.58 52.37-25.49 74.61-27.13l-.27-6.38c-21 2.44-44.81 12.78-70 24.78z" fill="url(#v)"/><path d="M392 129.62c-5.53 11.76-9.65 23.09-14.86 35.33 1.33-10.86 1.44-25.36-5-35a22.84 22.84 0 0 0-9-8v1.79a20.17 20.17 0 0 1 6.83 6.94c8.17 13.37 4.47 35.46 2.2 45.38-8.63 18.31-21 39.24-44.2 66.62-30.2 35.57-39.79 23.65-35.24-2.91-17.3 30.68-.94 53 34.57 16.57 40-41 47.73-83.22 63.81-118.41 21.62-47.33 53.1-39.95 65.66-34.57l7.23-4.24c-9.4-4.01-49.37-17.54-72 30.5z" fill="url(#w)"/><path d="M365.78 124.79h-6.45a17.83 17.83 0 0 1-5.5-1l9.84-5.33 1.08-5.12a16.68 16.68 0 0 1 1.63 5 15.87 15.87 0 0 1-.6 6.45z" fill="#39a839"/><path d="M582.17 275.83s.16-1.83.66-5.33 1.5-4.5 1.5-4.5l1 4.83a17.21 17.21 0 0 1 4.67.84 23.13 23.13 0 0 1 5.17 2.5 16.44 16.44 0 0 1-6.5 2.5 12.59 12.59 0 0 1-6.5-.84z" fill="#abd037"/></g></svg>