<?xml version="1.0" encoding="UTF-8" standalone="no"?>
<svg width="420px" height="192px" viewBox="0 0 420 192" version="1.1" xmlns="http://www.w3.org/2000/svg" xmlns:xlink="http://www.w3.org/1999/xlink">
    <!-- Generator: Sketch 44.1 (41455) - http://www.bohemiancoding.com/sketch -->
    <title>img-4R-icon</title>
    <desc>Created with Sketch.</desc>
    <defs>
        <polygon id="path-1" points="0 0 420 0 420 190.689954 419.160444 191.308594 407.149778 182.458339 395.139111 191.308594 383.128444 182.458339 371.117778 191.308594 359.107111 182.458339 347.096444 191.308594 335.085778 182.458339 323.075111 191.308594 311.064444 182.458339 299.053778 191.308594 287.043111 182.458339 275.032444 191.308594 263.021778 182.458339 251.011111 191.308594 239.000444 182.458339 226.989778 191.308594 214.979111 182.458339 202.968444 191.308594 190.957778 182.458339 178.947111 191.308594 166.936444 182.458339 154.925778 191.308594 142.915111 182.458339 130.904444 191.308594 118.893778 182.458339 106.883111 191.308594 94.8724444 182.458339 82.8617778 191.308594 70.8511111 182.458339 58.8404444 191.308594 46.8297778 182.458339 34.8191111 191.308594 22.8084444 182.458339 10.7977778 191.308594 0 183.352076"></polygon>
    </defs>
    <g id="Page-1" stroke="none" stroke-width="1" fill="none" fill-rule="evenodd">
        <g id="img-4R-icon">
            <g id="img-4R">
                <mask id="mask-2" fill="white">
                    <use xlink:href="#path-1"></use>
                </mask>
                <use id="Mask---jagged" fill="#EEEEEE" fill-rule="evenodd" xlink:href="#path-1"></use>
                <path d="M27,20 L393,20 L393,20 C394.656854,20 396,21.3431458 396,23 L396,61 L24,61 L24,23 L24,23 C24,21.3431458 25.3431458,20 27,20 Z" id="Rectangle-2-Copy" fill="#FAFAFA" fill-rule="evenodd" mask="url(#mask-2)"></path>
                <rect id="Rectangle-2-Copy-3" fill="#FFFFFF" fill-rule="evenodd" mask="url(#mask-2)" x="24" y="60" width="372" height="179"></rect>
                <path d="M231,71.0024733 C231,70.4488226 231.438659,70 232.000424,70 L307.999576,70 C308.552095,70 309,70.455761 309,71.0024733 L309,80.9975267 C309,81.5511774 308.561341,82 307.999576,82 L232.000424,82 C231.447905,82 231,81.544239 231,80.9975267 L231,71.0024733 Z" id="Rectangle-6-Copy-7" fill="#EEEEEE" fill-rule="evenodd" mask="url(#mask-2)"></path>
                <path d="M231,41.9953976 C231,41.4456547 231.446055,41 231.998984,41 L292.001016,41 C292.55274,41 293,41.4556644 293,41.9953976 L293,50.0046024 C293,50.5543453 292.553945,51 292.001016,51 L231.998984,51 C231.44726,51 231,50.5443356 231,50.0046024 L231,41.9953976 Z" id="Rectangle-6-Copy-15" fill="#DDDDDD" fill-rule="evenodd" mask="url(#mask-2)"></path>
                <g id="info-74747" mask="url(#mask-2)" stroke-width="1" fill-rule="evenodd">
                    <g transform="translate(367.000000, 68.000000)" id="Page-1">
                        <g>
                            <path d="M7.95346667,3 C8.4688,3 8.8868,3.418 8.8868,3.93333333 C8.8868,4.44866667 8.4688,4.86666667 7.95346667,4.86666667 C7.43813333,4.86666667 7.02013333,4.44866667 7.02013333,3.93333333 C7.02013333,3.418 7.43813333,3 7.95346667,3" id="Fill-1" fill="#747474"></path>
                            <path d="M10,11.3333333 L8.66666667,11.3333333 L8.66666667,6 L6.66666667,6 C6.29866667,6 6,6.29866667 6,6.66666667 C6,7.03466667 6.29866667,7.33333333 6.66666667,7.33333333 L7.33333333,7.33333333 L7.33333333,11.3333333 L6,11.3333333 C5.632,11.3333333 5.33333333,11.6313333 5.33333333,12 C5.33333333,12.3686667 5.632,12.6666667 6,12.6666667 L10,12.6666667 C10.3686667,12.6666667 10.6666667,12.3686667 10.6666667,12 C10.6666667,11.6313333 10.3686667,11.3333333 10,11.3333333" id="Fill-3" fill="#747474"></path>
                            <path d="M8,14.6666667 C4.318,14.6666667 1.33333333,11.6813333 1.33333333,8 C1.33333333,4.318 4.318,1.33333333 8,1.33333333 C11.6813333,1.33333333 14.6666667,4.318 14.6666667,8 C14.6666667,11.6813333 11.6813333,14.6666667 8,14.6666667 M8,0 C3.582,0 0,3.582 0,8 C0,12.418 3.582,16 8,16 C12.418,16 16,12.418 16,8 C16,3.582 12.418,0 8,0" id="Fill-5" fill="#747474"></path>
                        </g>
                    </g>
                </g>
                <g id="info-74747" mask="url(#mask-2)" stroke-width="1" fill-rule="evenodd">
                    <g transform="translate(367.000000, 128.000000)" id="Page-1">
                        <g>
                            <path d="M7.95346667,3 C8.4688,3 8.8868,3.418 8.8868,3.93333333 C8.8868,4.44866667 8.4688,4.86666667 7.95346667,4.86666667 C7.43813333,4.86666667 7.02013333,4.44866667 7.02013333,3.93333333 C7.02013333,3.418 7.43813333,3 7.95346667,3" id="Fill-1" fill="#747474"></path>
                            <path d="M10,11.3333333 L8.66666667,11.3333333 L8.66666667,6 L6.66666667,6 C6.29866667,6 6,6.29866667 6,6.66666667 C6,7.03466667 6.29866667,7.33333333 6.66666667,7.33333333 L7.33333333,7.33333333 L7.33333333,11.3333333 L6,11.3333333 C5.632,11.3333333 5.33333333,11.6313333 5.33333333,12 C5.33333333,12.3686667 5.632,12.6666667 6,12.6666667 L10,12.6666667 C10.3686667,12.6666667 10.6666667,12.3686667 10.6666667,12 C10.6666667,11.6313333 10.3686667,11.3333333 10,11.3333333" id="Fill-3" fill="#747474"></path>
                            <path d="M8,14.6666667 C4.318,14.6666667 1.33333333,11.6813333 1.33333333,8 C1.33333333,4.318 4.318,1.33333333 8,1.33333333 C11.6813333,1.33333333 14.6666667,4.318 14.6666667,8 C14.6666667,11.6813333 11.6813333,14.6666667 8,14.6666667 M8,0 C3.582,0 0,3.582 0,8 C0,12.418 3.582,16 8,16 C12.418,16 16,12.418 16,8 C16,3.582 12.418,0 8,0" id="Fill-5" fill="#747474"></path>
                        </g>
                    </g>
                </g>
                <g id="table1" mask="url(#mask-2)" stroke-width="1" fill-rule="evenodd">
                    <g transform="translate(23.000000, 20.000000)" id="Group-10">
                        <g>
                            <path d="M0.26677068,69.5 L371.737859,69.5" id="Line" stroke="#EEEEEE" stroke-linecap="square"></path>
                            <path d="M0.26677068,40.5 L371.737859,40.5" id="Line-Copy-3" stroke="#EEEEEE" stroke-linecap="square"></path>
                            <path d="M0.26677068,100.5 L371.737859,100.5" id="Line-Copy" stroke="#EEEEEE" stroke-linecap="square"></path>
                            <path d="M0.26677068,130.5 L371.737859,130.5" id="Line-Copy-2" stroke="#EEEEEE" stroke-linecap="square"></path>
                            <path d="M0.26677068,160.5 L371.737859,160.5" id="Line-Copy-5" stroke="#EEEEEE" stroke-linecap="square"></path>
                            <path d="M208,81.0024733 C208,80.4488226 208.454057,80 208.991639,80 L304.008361,80 C304.556028,80 305,80.455761 305,81.0024733 L305,90.9975267 C305,91.5511774 304.545943,92 304.008361,92 L208.991639,92 C208.443972,92 208,91.544239 208,90.9975267 L208,81.0024733 Z" id="Rectangle-6-Copy-8" fill="#EEEEEE"></path>
                            <path d="M208,111.002473 C208,110.448823 208.446705,110 208.990958,110 L298.009042,110 C298.556333,110 299,110.455761 299,111.002473 L299,120.997527 C299,121.551177 298.553295,122 298.009042,122 L208.990958,122 C208.443667,122 208,121.544239 208,120.997527 L208,111.002473 Z" id="Rectangle-6-Copy-9" fill="#EEEEEE"></path>
                            <path d="M208,141.002473 C208,140.448823 208.451943,140 209.001877,140 L290.998123,140 C291.551444,140 292,140.455761 292,141.002473 L292,150.997527 C292,151.551177 291.548057,152 290.998123,152 L209.001877,152 C208.448556,152 208,151.544239 208,150.997527 L208,141.002473 Z" id="Rectangle-6-Copy-10" fill="#EEEEEE"></path>
                            <path d="M47,22.9953976 C47,22.4456547 47.4472428,22 48.0041702,22 L118.99583,22 C119.550418,22 120,22.4556644 120,22.9953976 L120,31.0046024 C120,31.5543453 119.552757,32 118.99583,32 L48.0041702,32 C47.4495823,32 47,31.5443356 47,31.0046024 L47,22.9953976 Z" id="Rectangle-6-Copy-14" fill="#DDDDDD"></path>
                            <path d="M47,82.0024733 C47,81.4488226 47.4540574,81 47.9916389,81 L143.008361,81 C143.556028,81 144,81.455761 144,82.0024733 L144,91.9975267 C144,92.5511774 143.545943,93 143.008361,93 L47.9916389,93 C47.4439719,93 47,92.544239 47,91.9975267 L47,82.0024733 Z" id="Rectangle-6-Copy-13" fill="#EEEEEE"></path>
                            <path d="M47,49.0024733 C47,48.4488226 47.4519429,48 48.0018775,48 L129.998123,48 C130.551444,48 131,48.455761 131,49.0024733 L131,58.9975267 C131,59.5511774 130.548057,60 129.998123,60 L48.0018775,60 C47.4485558,60 47,59.544239 47,58.9975267 L47,49.0024733 Z" id="Rectangle-6-Copy-16" fill="#EEEEEE"></path>
                            <path d="M47,112.002473 C47,111.448823 47.4472428,111 48.0041702,111 L118.99583,111 C119.550418,111 120,111.455761 120,112.002473 L120,121.997527 C120,122.551177 119.552757,123 118.99583,123 L48.0041702,123 C47.4495823,123 47,122.544239 47,121.997527 L47,112.002473 Z" id="Rectangle-6-Copy-12" fill="#EEEEEE"></path>
                            <path d="M47,142.002473 C47,141.448823 47.4519429,141 48.0018775,141 L129.998123,141 C130.551444,141 131,141.455761 131,142.002473 L131,151.997527 C131,152.551177 130.548057,153 129.998123,153 L48.0018775,153 C47.4485558,153 47,152.544239 47,151.997527 L47,142.002473 Z" id="Rectangle-6-Copy-11" fill="#EEEEEE"></path>
                            <path d="M1,219 L1,4.05555556 L1,4.05555556 C1,1.81573407 2.34314575,4.11448532e-16 4,0 L4,0 L370,0 L370,0 C371.656854,-4.11448532e-16 373,1.81573407 373,4.05555556 L373,219" id="Rectangle-2-Copy-2" stroke="#CCCCCC" stroke-linecap="square"></path>
                        </g>
                    </g>
                </g>
                <path d="M0.5,0.5 L0.5,183.099427 L10.7977778,190.687512 L22.8084444,181.837257 L34.8191111,190.687512 L46.8297778,181.837257 L58.8404444,190.687512 L70.8511111,181.837257 L82.8617778,190.687512 L94.8724444,181.837257 L106.883111,190.687512 L118.893778,181.837257 L130.904444,190.687512 L142.915111,181.837257 L154.925778,190.687512 L166.936444,181.837257 L178.947111,190.687512 L190.957778,181.837257 L202.968444,190.687512 L214.979111,181.837257 L226.989778,190.687512 L239.000444,181.837257 L251.011111,190.687512 L263.021778,181.837257 L275.032444,190.687512 L287.043111,181.837257 L299.053778,190.687512 L311.064444,181.837257 L323.075111,190.687512 L335.085778,181.837257 L347.096444,190.687512 L359.107111,181.837257 L371.117778,190.687512 L383.128444,181.837257 L395.139111,190.687512 L407.149778,181.837257 L419.160444,190.687512 L419.5,190.437305 L419.5,0.5 L0.5,0.5 Z" id="Mask---jagged" stroke="#CCCCCC" stroke-width="1"></path>
            </g>
        </g>
    </g>
</svg>