<svg version="1.1" width="36" height="36"  viewBox="0 0 36 36" preserveAspectRatio="xMidYMid meet" xmlns="http://www.w3.org/2000/svg" xmlns:xlink="http://www.w3.org/1999/xlink">
    <title>align-right-line</title>
    <path d="M31,1a1,1,0,0,0-1,1V34a1,1,0,0,0,2,0V2A1,1,0,0,0,31,1Z" class="clr-i-outline clr-i-outline-path-1"></path><path d="M4,21v8a1,1,0,0,0,1,1H28V20H5A1,1,0,0,0,4,21Zm2,1H26v6H6Z" class="clr-i-outline clr-i-outline-path-2"></path><path d="M12,7v8a1,1,0,0,0,1,1H28V6H13A1,1,0,0,0,12,7Zm2,1H26v6H14Z" class="clr-i-outline clr-i-outline-path-3"></path>
    <rect x="0" y="0" width="36" height="36" fill-opacity="0"/>
</svg>