<svg version="1.1" width="36" height="36"  viewBox="0 0 36 36" preserveAspectRatio="xMidYMid meet" xmlns="http://www.w3.org/2000/svg" xmlns:xlink="http://www.w3.org/1999/xlink">
    <title>align-top-line</title>
    <path d="M34,4H2A1,1,0,0,0,2,6H34a1,1,0,0,0,0-2Z" class="clr-i-outline clr-i-outline-path-1"></path><path d="M6,31a1,1,0,0,0,1,1h8a1,1,0,0,0,1-1V8H6ZM8,10h6V30H8Z" class="clr-i-outline clr-i-outline-path-2"></path><path d="M20,23a1,1,0,0,0,1,1h8a1,1,0,0,0,1-1V8H20Zm2-13h6V22H22Z" class="clr-i-outline clr-i-outline-path-3"></path>
    <rect x="0" y="0" width="36" height="36" fill-opacity="0"/>
</svg>