<svg version="1.1" width="36" height="36"  viewBox="0 0 36 36" preserveAspectRatio="xMidYMid meet" xmlns="http://www.w3.org/2000/svg" xmlns:xlink="http://www.w3.org/1999/xlink">
    <title>language-solid</title>
    <polygon points="11,16.5 10,19.6 12,19.6 11,16.5 	" class="clr-i-solid clr-i-solid-path-1"></polygon><path d="M30.3,3h-16v5h4v2h-13c-1.7,0-3,1.3-3,3v11c0,1.7,1.3,3,3,3h1v5.1l6.3-5.1h6.7v-7h11c1.7,0,3-1.3,3-3V6
		C33.3,4.3,32,3,30.3,3z M13.1,22.9l-0.5-1.6H9.5l-0.6,1.6H6.5L9.8,14h2.4l3.3,8.9L13.1,22.9z M28.3,15v2c-1.3,0-2.7-0.4-3.9-1
		c-1.2,0.6-2.6,0.9-4,1l-0.1-2c0.7,0,1.4-0.1,2.1-0.3c-0.9-0.9-1.5-2-1.8-3.2h2.1c0.3,0.9,0.9,1.6,1.6,2.2c1.1-0.9,1.8-2.2,1.9-3.7
		h-6V8h3V6h2v2h3.3l0.1,1c0.1,2.1-0.7,4.2-2.2,5.7C27.1,14.9,27.7,15,28.3,15z" class="clr-i-solid clr-i-solid-path-2"></path>
    <rect x="0" y="0" width="36" height="36" fill-opacity="0"/>
</svg>