<svg version="1.1" width="36" height="36"  viewBox="0 0 36 36" preserveAspectRatio="xMidYMid meet" xmlns="http://www.w3.org/2000/svg" xmlns:xlink="http://www.w3.org/1999/xlink">
    <title>cd-dvd-line</title>
    <path d="M18,2A16,16,0,1,0,34,18,16,16,0,0,0,18,2Zm0,30A14,14,0,1,1,32,18,14,14,0,0,1,18,32Z" class="clr-i-outline clr-i-outline-path-1"></path><path d="M22.33,18a4.46,4.46,0,1,0-4.45,4.46A4.46,4.46,0,0,0,22.33,18ZM17.88,20.9A2.86,2.86,0,1,1,20.73,18,2.86,2.86,0,0,1,17.88,20.9Z" class="clr-i-outline clr-i-outline-path-2"></path><path d="M17.88,7.43H18V5.84h-.12A12.21,12.21,0,0,0,5.68,17.75h1.6A10.61,10.61,0,0,1,17.88,7.43Z" class="clr-i-outline clr-i-outline-path-3"></path><path d="M30.08,18H28.49v0A10.61,10.61,0,0,1,18.25,28.63v1.6A12.22,12.22,0,0,0,30.09,18S30.08,18,30.08,18Z" class="clr-i-outline clr-i-outline-path-4"></path><path d="M18,11V9.44h-.12a8.62,8.62,0,0,0-8.6,8.32h1.6a7,7,0,0,1,7-6.72Z" class="clr-i-outline clr-i-outline-path-5"></path><path d="M18.25,25v1.6A8.61,8.61,0,0,0,26.48,18v0h-1.6v0A7,7,0,0,1,18.25,25Z" class="clr-i-outline clr-i-outline-path-6"></path>
    <rect x="0" y="0" width="36" height="36" fill-opacity="0"/>
</svg>