<svg version="1.1" width="36" height="36"  viewBox="0 0 36 36" preserveAspectRatio="xMidYMid meet" xmlns="http://www.w3.org/2000/svg" xmlns:xlink="http://www.w3.org/1999/xlink">
    <title>data-cluster-solid-alerted</title>
    <path d="M17,9.48V7.91c0-2.52-3.77-3.84-7.5-3.84S2,5.4,2,7.91V18.24C2,20.4,4.77,21.67,7.9,22L8,21.93v-6.7C8,12.08,11.7,9.74,17,9.48Z" class="clr-i-solid--alerted clr-i-solid-path-1--alerted"></path><path d="M19,13.56a3.68,3.68,0,0,1-.39-2.7l-.66,0c-4.93,0-8.65,1.88-8.65,4.38V27.54c0,2.5,3.72,4.38,8.65,4.38s8.65-1.88,8.65-4.38V25.38A13.58,13.58,0,0,1,18,28a16.77,16.77,0,0,1-6-1V25.27a14.5,14.5,0,0,0,6,1.17c4.21,0,7.65-1.23,8.63-3.23V20.47C24.8,22,21.72,23,18,23a16.77,16.77,0,0,1-6-1V20.23a14.5,14.5,0,0,0,6,1.17c4.21,0,7.65-1.11,8.63-3.11V15.4H22.23A3.69,3.69,0,0,1,19,13.56Z" class="clr-i-solid--alerted clr-i-solid-path-2--alerted"></path><path d="M22,4.8c-1.75.63-3,1.68-3,3.12V9.48l.27,0Z" class="clr-i-solid--alerted clr-i-solid-path-3--alerted"></path><path d="M33.68,15.4H28v6.53l.05.06c3.13-.32,5.9-1.6,5.9-3.75V15.38Z" class="clr-i-solid--alerted clr-i-solid-path-4--alerted"></path><path d="M26.85,1.14,21.13,11A1.28,1.28,0,0,0,22.23,13H33.68A1.28,1.28,0,0,0,34.78,11L29.06,1.14A1.28,1.28,0,0,0,26.85,1.14Z" class="clr-i-solid--alerted clr-i-solid-path-5--alerted clr-i-alert"></path>
    <rect x="0" y="0" width="36" height="36" fill-opacity="0"/>
</svg>