<svg version="1.1" width="36" height="36"  viewBox="0 0 36 36" preserveAspectRatio="xMidYMid meet" xmlns="http://www.w3.org/2000/svg" xmlns:xlink="http://www.w3.org/1999/xlink">
    <title>link-line</title>
    <path d="M17.6,24.32l-2.46,2.44a4,4,0,0,1-5.62,0,3.92,3.92,0,0,1,0-5.55l4.69-4.65a4,4,0,0,1,5.62,0,3.86,3.86,0,0,1,1,1.71A2,2,0,0,0,21.1,18l1.29-1.28a5.89,5.89,0,0,0-1.15-1.62,6,6,0,0,0-8.44,0L8.1,19.79a5.91,5.91,0,0,0,0,8.39,6,6,0,0,0,8.44,0l3.65-3.62c-.17,0-.33,0-.5,0A8,8,0,0,1,17.6,24.32Z" class="clr-i-outline clr-i-outline-path-1"></path><path d="M28.61,7.82a6,6,0,0,0-8.44,0l-3.65,3.62c.17,0,.33,0,.49,0h0a8,8,0,0,1,2.1.28l2.46-2.44a4,4,0,0,1,5.62,0,3.92,3.92,0,0,1,0,5.55l-4.69,4.65a4,4,0,0,1-5.62,0,3.86,3.86,0,0,1-1-1.71,2,2,0,0,0-.28.23l-1.29,1.28a5.89,5.89,0,0,0,1.15,1.62,6,6,0,0,0,8.44,0l4.69-4.65a5.92,5.92,0,0,0,0-8.39Z" class="clr-i-outline clr-i-outline-path-2"></path>
    <rect x="0" y="0" width="36" height="36" fill-opacity="0"/>
</svg>