<svg version="1.1" width="36" height="36"  viewBox="0 0 36 36" preserveAspectRatio="xMidYMid meet" xmlns="http://www.w3.org/2000/svg" xmlns:xlink="http://www.w3.org/1999/xlink">
    <title>network-switch-solid</title>
    <path d="M33.91,18.47,30.78,8.41A2,2,0,0,0,28.87,7H7.13A2,2,0,0,0,5.22,8.41L2.09,18.48a2,2,0,0,0-.09.59V27a2,2,0,0,0,2,2H32a2,2,0,0,0,2-2V19.06A2,2,0,0,0,33.91,18.47ZM8.92,25H7.12V22h1.8Zm5,0h-1.8V22h1.8Zm5,0h-1.8V22h1.8Zm5,0H22.1V22h1.8Zm5,0H27.1V22h1.8ZM31,19.4H5V18H31Z" class="clr-i-solid clr-i-solid-path-1"></path>
    <rect x="0" y="0" width="36" height="36" fill-opacity="0"/>
</svg>