<svg version="1.1" width="36" height="36"  viewBox="0 0 36 36" preserveAspectRatio="xMidYMid meet" xmlns="http://www.w3.org/2000/svg" xmlns:xlink="http://www.w3.org/1999/xlink">
    <title>rack-server-line</title>
    <rect class="clr-i-outline clr-i-outline-path-1" x="6" y="9" width="2" height="2"></rect><rect class="clr-i-outline clr-i-outline-path-2" x="10" y="9" width="14" height="2"></rect><rect class="clr-i-outline clr-i-outline-path-3" x="6" y="17" width="2" height="2"></rect><rect class="clr-i-outline clr-i-outline-path-4" x="10" y="17" width="14" height="2"></rect><path class="clr-i-outline clr-i-outline-path-5" d="M32,5H4A2,2,0,0,0,2,7V29a2,2,0,0,0,2,2H32a2,2,0,0,0,2-2V7A2,2,0,0,0,32,5ZM4,7H32v6H4Zm0,8H32v6H4ZM4,29V23H32v6Z"></path><rect class="clr-i-outline clr-i-outline-path-6" x="6" y="25" width="2" height="2"></rect><rect class="clr-i-outline clr-i-outline-path-7" x="10" y="25" width="14" height="2"></rect>
    <rect x="0" y="0" width="36" height="36" fill-opacity="0"/>
</svg>