<svg version="1.1" width="36" height="36"  viewBox="0 0 36 36" preserveAspectRatio="xMidYMid meet" xmlns="http://www.w3.org/2000/svg" xmlns:xlink="http://www.w3.org/1999/xlink">
    <title>storage-outline-alerted</title>
    <path class="clr-i-outline--alerted clr-i-outline-path-1--alerted" d="M19.51,9.09,18,9.11A37.6,37.6,0,0,1,7,7.76V9.85a43.53,43.53,0,0,0,11,1.27h.61A3.66,3.66,0,0,1,19,9.89Z"></path><path class="clr-i-outline--alerted clr-i-outline-path-2--alerted" d="M28.83,15.4A38.37,38.37,0,0,1,18,16.7,37.45,37.45,0,0,1,7,15.34v2.08A43.33,43.33,0,0,0,18,18.7c4,0,9.93-.48,13-2v5.17c-.33.86-5.06,2.45-13,2.45A37.45,37.45,0,0,1,7,22.92V25a43.33,43.33,0,0,0,11,1.28c4,0,9.93-.48,13-2v5.1c-.35.86-5.08,2.45-13,2.45S5.3,30.2,5,29.37V6.82C5.3,6,10,4.36,18,4.36c1.5,0,2.89.06,4.15.16l1.1-1.9c-1.86-.18-3.7-.26-5.25-.26-5.57,0-15,.93-15,4.43V29.37c0,3.49,9.43,4.43,15,4.43s15-.93,15-4.43v-14Z"></path><path class="clr-i-outline--alerted clr-i-outline-path-3--alerted clr-i-alert" d="M26.85,1.14,21.13,11A1.28,1.28,0,0,0,22.23,13H33.68A1.28,1.28,0,0,0,34.78,11L29.06,1.14A1.28,1.28,0,0,0,26.85,1.14Z"></path>
    <rect x="0" y="0" width="36" height="36" fill-opacity="0"/>
</svg>