<svg xmlns="http://www.w3.org/2000/svg" width="693" height="520" viewBox="0 0 693 520"><defs><style>.a6eb901b-9c66-4d73-8da9-dd5924e5abdf,.a77d32f3-80ee-4a46-ace4-81af538229c5,.aac1a522-9365-4ced-a212-4eb0b707eff5,.afcfcaee-62db-497b-8497-935dd63b3f3b,.b882ec07-36d2-442d-96b9-48d479830feb,.be47062e-369f-45c0-a662-58e4506b6720,.f43ca439-2b75-4cdc-bc54-33e4a2aada76{fill:none;}.a6eb901b-9c66-4d73-8da9-dd5924e5abdf,.aac1a522-9365-4ced-a212-4eb0b707eff5,.b4400c24-60c1-4dc0-baed-a866b8606fde,.b882ec07-36d2-442d-96b9-48d479830feb{stroke:#0094d2;}.a6eb901b-9c66-4d73-8da9-dd5924e5abdf,.a77d32f3-80ee-4a46-ace4-81af538229c5,.aac1a522-9365-4ced-a212-4eb0b707eff5,.afcfcaee-62db-497b-8497-935dd63b3f3b,.b4400c24-60c1-4dc0-baed-a866b8606fde,.b882ec07-36d2-442d-96b9-48d479830feb,.be47062e-369f-45c0-a662-58e4506b6720{stroke-miterlimit:10;}.a12e0caf-af2e-4eba-b1b8-dfa5423fa365,.a944faec-c232-4a81-83a5-9f71476f50f0,.b106f7db-3e1e-424e-8a2f-85bd4032eca0,.b240c287-c22b-4431-ace5-ad9931f43604,.b38f9a9f-e7a3-4ce8-8c7f-2005bb71f3de,.bf13f036-6237-432b-83df-3443c9dfaf84,.e38a2bfd-efa8-47ac-91bf-a0659be89043,.efa4407b-3e79-4cd7-97d3-cea1ead40279,.ff3efdad-993c-4f31-8bb7-61466681d8cc{fill:#0094d2;}.aac1a522-9365-4ced-a212-4eb0b707eff5,.b240c287-c22b-4431-ace5-ad9931f43604,.ff3efdad-993c-4f31-8bb7-61466681d8cc{opacity:0.4;}.a944faec-c232-4a81-83a5-9f71476f50f0{opacity:0.5;}.a6eb901b-9c66-4d73-8da9-dd5924e5abdf,.a77d32f3-80ee-4a46-ace4-81af538229c5,.afcfcaee-62db-497b-8497-935dd63b3f3b{stroke-width:2px;}.aac1a522-9365-4ced-a212-4eb0b707eff5,.afcfcaee-62db-497b-8497-935dd63b3f3b,.f43ca439-2b75-4cdc-bc54-33e4a2aada76{stroke-linecap:round;}.aac1a522-9365-4ced-a212-4eb0b707eff5{stroke-width:4px;}.a3f9e5ae-21ed-40f6-b6ef-7489d11b391f,.a4ef084c-b68e-42ef-9d98-6f5650ec4c58,.b32101dc-78e2-44cb-bbb3-3e31d808cc7f,.e3cc8d83-300e-4850-a697-e48900322434,.fc63f863-a3f9-4681-b7a4-3b1574ec8299,.ff57ece1-e298-4e5e-88af-3c1179b2efe6{fill:#f18a21;}.fc63f863-a3f9-4681-b7a4-3b1574ec8299{opacity:0.9;}.ff57ece1-e298-4e5e-88af-3c1179b2efe6{opacity:0.75;}.a3f9e5ae-21ed-40f6-b6ef-7489d11b391f{opacity:0.65;}.e38a2bfd-efa8-47ac-91bf-a0659be89043,.e3cc8d83-300e-4850-a697-e48900322434{opacity:0.55;}.a4ef084c-b68e-42ef-9d98-6f5650ec4c58{opacity:0.25;}.b106f7db-3e1e-424e-8a2f-85bd4032eca0{opacity:0.8;}.bf13f036-6237-432b-83df-3443c9dfaf84{opacity:0.7;}.b38f9a9f-e7a3-4ce8-8c7f-2005bb71f3de{opacity:0.3;}.efa4407b-3e79-4cd7-97d3-cea1ead40279{opacity:0.19;}.b7fd88b8-581d-46b1-acee-f00a5df1c664{fill:#004a6e;}.a3ee5dea-ea43-40e2-9355-d08d4153651e{fill:#964221;}.be47062e-369f-45c0-a662-58e4506b6720,.f43ca439-2b75-4cdc-bc54-33e4a2aada76{stroke:#3f3f3f;stroke-width:3px;}.f43ca439-2b75-4cdc-bc54-33e4a2aada76{stroke-linejoin:round;}.a77d32f3-80ee-4a46-ace4-81af538229c5{stroke:#1878a8;}.afcfcaee-62db-497b-8497-935dd63b3f3b{stroke:#ffb14a;}.ff3efdad-993c-4f31-8bb7-61466681d8cc{font-size:37.32px;font-family:Metropolis-SemiBold, Metropolis;font-weight:600;}.b4400c24-60c1-4dc0-baed-a866b8606fde{fill:#fafafa;}</style></defs><g id="fd0875e1-5f77-4be4-9d5b-c2d4858b5c78" data-name="Layer 3"><circle class="b882ec07-36d2-442d-96b9-48d479830feb" cx="518.09" cy="53.27" r="8.05"/><circle class="b882ec07-36d2-442d-96b9-48d479830feb" cx="482.15" cy="9.05" r="4.81"/><circle class="b882ec07-36d2-442d-96b9-48d479830feb" cx="174.33" cy="79.9" r="4.81"/><line class="b882ec07-36d2-442d-96b9-48d479830feb" x1="556.56" y1="2.08" x2="556.56" y2="23.95"/><line class="b882ec07-36d2-442d-96b9-48d479830feb" x1="567.5" y1="13.01" x2="545.62" y2="13.01"/><line class="b882ec07-36d2-442d-96b9-48d479830feb" x1="680.74" y1="103.8" x2="680.74" y2="125.68"/><line class="b882ec07-36d2-442d-96b9-48d479830feb" x1="691.68" y1="114.74" x2="669.8" y2="114.74"/><line class="b882ec07-36d2-442d-96b9-48d479830feb" x1="73.04" y1="50.63" x2="73.04" y2="72.5"/><line class="b882ec07-36d2-442d-96b9-48d479830feb" x1="83.98" y1="61.57" x2="62.1" y2="61.57"/><rect class="b240c287-c22b-4431-ace5-ad9931f43604" x="42.02" y="106.48" width="49.91" height="14.26" rx="1.22"/><rect class="b882ec07-36d2-442d-96b9-48d479830feb" x="40.16" y="102.96" width="49.91" height="14.26" rx="1.22"/><rect class="b882ec07-36d2-442d-96b9-48d479830feb" x="40.16" y="123.1" width="49.91" height="14.26" rx="1.22"/><rect class="b882ec07-36d2-442d-96b9-48d479830feb" x="40.16" y="143.24" width="49.91" height="14.26" rx="1.22"/><circle class="b882ec07-36d2-442d-96b9-48d479830feb" cx="138.63" cy="14.01" r="5.09"/><circle class="a944faec-c232-4a81-83a5-9f71476f50f0" cx="138.63" cy="14.01" r="2.36"/><rect class="b240c287-c22b-4431-ace5-ad9931f43604" x="148.37" y="10.87" width="42.86" height="4.88" rx="2.44"/><circle class="b882ec07-36d2-442d-96b9-48d479830feb" cx="138.63" cy="28.21" r="5.09"/><rect class="b240c287-c22b-4431-ace5-ad9931f43604" x="148.37" y="25.07" width="42.86" height="4.88" rx="2.44"/><circle class="b882ec07-36d2-442d-96b9-48d479830feb" cx="138.63" cy="42.41" r="5.09"/><rect class="b240c287-c22b-4431-ace5-ad9931f43604" x="148.37" y="39.28" width="42.86" height="4.88" rx="2.44"/><rect class="a6eb901b-9c66-4d73-8da9-dd5924e5abdf" x="617.21" y="136.7" width="45.06" height="45.06" rx="3"/><path class="b240c287-c22b-4431-ace5-ad9931f43604" d="M638.25,94.72H592.32a3,3,0,0,0-3,3v45.94a3,3,0,0,0,3,3h45.93a3,3,0,0,0,3-3V97.72A3,3,0,0,0,638.25,94.72Zm-12.87,35.66H599.9a2,2,0,0,1,0-4h25.48a2,2,0,0,1,0,4Zm0-9.13H599.9a2,2,0,0,1,0-4h25.48a2,2,0,0,1,0,4Zm4.81-9.14H599.9a2,2,0,0,1,0-4h30.29a2,2,0,0,1,0,4Z"/><line class="aac1a522-9365-4ced-a212-4eb0b707eff5" x1="624.35" y1="150.47" x2="654.64" y2="150.47"/><line class="aac1a522-9365-4ced-a212-4eb0b707eff5" x1="624.35" y1="159.61" x2="649.83" y2="159.61"/><line class="aac1a522-9365-4ced-a212-4eb0b707eff5" x1="624.35" y1="168.74" x2="649.83" y2="168.74"/></g><g id="bce3228c-5340-40bc-b9ae-07268499d38b" data-name="Layer 2"><rect class="fc63f863-a3f9-4681-b7a4-3b1574ec8299" x="21.59" y="191.55" width="19.07" height="19.07"/><rect class="ff57ece1-e298-4e5e-88af-3c1179b2efe6" x="21.59" y="214.76" width="19.07" height="19.07"/><rect class="a3f9e5ae-21ed-40f6-b6ef-7489d11b391f" x="21.59" y="237.97" width="19.07" height="19.07"/><rect class="e3cc8d83-300e-4850-a697-e48900322434" x="21.59" y="261.18" width="19.07" height="19.07"/><rect class="a4ef084c-b68e-42ef-9d98-6f5650ec4c58" x="21.59" y="284.39" width="19.07" height="19.07"/><rect class="b106f7db-3e1e-424e-8a2f-85bd4032eca0" x="44.8" y="191.55" width="19.07" height="19.07"/><rect class="bf13f036-6237-432b-83df-3443c9dfaf84" x="44.8" y="214.76" width="19.07" height="19.07"/><rect class="e38a2bfd-efa8-47ac-91bf-a0659be89043" x="44.8" y="237.97" width="19.07" height="19.07"/><rect class="b38f9a9f-e7a3-4ce8-8c7f-2005bb71f3de" x="44.8" y="261.18" width="19.07" height="19.07"/><rect class="efa4407b-3e79-4cd7-97d3-cea1ead40279" x="44.8" y="284.39" width="19.07" height="19.07"/><polygon class="b7fd88b8-581d-46b1-acee-f00a5df1c664" points="340.48 335.79 260 288.4 340.32 241.02 420.8 288.37 340.48 335.79"/><polygon class="a3ee5dea-ea43-40e2-9355-d08d4153651e" points="340.18 105.05 259.96 152.54 340.29 199.92 420.61 152.54 340.18 105.05"/><polygon class="a12e0caf-af2e-4eba-b1b8-dfa5423fa365" points="421.18 57.44 340.18 105.05 475.1 184.69 475.1 256.21 340.48 335.79 421.4 383.69 557.9 302.92 558.13 138.44 421.18 57.44"/><polygon class="b32101dc-78e2-44cb-bbb3-3e31d808cc7f" points="205.25 256.21 205.25 184.69 340.18 105.05 259.17 57.44 122.22 138.44 122.44 302.92 258.95 383.69 340.48 335.79 205.25 256.21"/><line class="be47062e-369f-45c0-a662-58e4506b6720" x1="393.61" y1="123.05" x2="456.17" y2="79.45"/><line class="be47062e-369f-45c0-a662-58e4506b6720" x1="225.15" y1="361.95" x2="292.57" y2="318.03"/><path class="a12e0caf-af2e-4eba-b1b8-dfa5423fa365" d="M359.52,75.78,323.93,32.49l-.23.22-12.35-1.24a7.69,7.69,0,0,1-6.48-5l-2.14-5.87h11.4l-9.29-11.3L288.51.94l5.42,17.3,54.68,66.51a7.06,7.06,0,0,0,10.91-9Z"/><path class="f43ca439-2b75-4cdc-bc54-33e4a2aada76" d="M344.56,17.68l9.33.27a15.83,15.83,0,0,1,11.84,5.84l7.74,9.53"/><path class="f43ca439-2b75-4cdc-bc54-33e4a2aada76" d="M366.72,18.67h0a20.82,20.82,0,0,1,17.1,9L407.47,61.8"/><path class="f43ca439-2b75-4cdc-bc54-33e4a2aada76" d="M344.51,98.26,323.28,85.65a33.5,33.5,0,0,1-14.76-27.51l-.1-12,3.13-1.32a5.55,5.55,0,0,1,7.52,3.68l1.43,5.38a16.13,16.13,0,0,0,12.57,11.69h0"/><path class="b32101dc-78e2-44cb-bbb3-3e31d808cc7f" d="M387.74,423.43l-54.68-66.51a7.07,7.07,0,0,0-10.92,9l35.59,43.29L358,409l12.35,1.24a7.7,7.7,0,0,1,6.48,5l2.14,5.87h-11.4l9.29,11.3,16.33,8.33Z"/><path class="f43ca439-2b75-4cdc-bc54-33e4a2aada76" d="M337.1,424l-9.33-.27a15.83,15.83,0,0,1-11.84-5.84l-7.74-9.53"/><path class="f43ca439-2b75-4cdc-bc54-33e4a2aada76" d="M315,423h0a20.82,20.82,0,0,1-17.11-9l-23.65-34.17"/><path class="f43ca439-2b75-4cdc-bc54-33e4a2aada76" d="M337.15,343.41,358.38,356a33.54,33.54,0,0,1,14.77,27.51l.09,12-3.13,1.32a5.55,5.55,0,0,1-7.52-3.68l-1.43-5.38a16.13,16.13,0,0,0-12.56-11.69h0"/><circle class="be47062e-369f-45c0-a662-58e4506b6720" cx="426.91" cy="76.49" r="6.64"/><circle class="be47062e-369f-45c0-a662-58e4506b6720" cx="255.4" cy="363.67" r="6.64"/><path class="a77d32f3-80ee-4a46-ace4-81af538229c5" d="M446.81,96.39l90.95,52a3.94,3.94,0,0,1,2,3.35l1.84,134.86a3.88,3.88,0,0,1-1.9,3.4L417.43,363.7"/><path class="a77d32f3-80ee-4a46-ace4-81af538229c5" d="M426,109.66l90.95,52a3.94,3.94,0,0,1,2,3.34l1.82,106.43a3.94,3.94,0,0,1-1.87,3.41l-128.9,79.4"/><path class="a77d32f3-80ee-4a46-ace4-81af538229c5" d="M407.8,120.91l87.27,48.33a3.87,3.87,0,0,1,2,3.34l1.81,88.35a3.9,3.9,0,0,1-1.93,3.45l-120.76,71"/><line class="afcfcaee-62db-497b-8497-935dd63b3f3b" x1="232.96" y1="74.37" x2="280.27" y2="74.37"/><line class="afcfcaee-62db-497b-8497-935dd63b3f3b" x1="194.23" y1="98.2" x2="317.6" y2="98.2"/><line class="afcfcaee-62db-497b-8497-935dd63b3f3b" x1="153.95" y1="124.83" x2="304.19" y2="124.83"/><line class="afcfcaee-62db-497b-8497-935dd63b3f3b" x1="123.92" y1="152.73" x2="236.54" y2="152.73"/><line class="afcfcaee-62db-497b-8497-935dd63b3f3b" x1="124.57" y1="184.16" x2="202.36" y2="184.16"/><line class="afcfcaee-62db-497b-8497-935dd63b3f3b" x1="124.57" y1="215.42" x2="201.71" y2="215.42"/><line class="afcfcaee-62db-497b-8497-935dd63b3f3b" x1="124.57" y1="247.82" x2="201.06" y2="248.61"/><line class="afcfcaee-62db-497b-8497-935dd63b3f3b" x1="126.54" y1="280.23" x2="238.17" y2="280.23"/><line class="afcfcaee-62db-497b-8497-935dd63b3f3b" x1="135" y1="308.72" x2="282.87" y2="308.72"/><line class="afcfcaee-62db-497b-8497-935dd63b3f3b" x1="182.83" y1="335.26" x2="258.18" y2="335.26"/><line class="afcfcaee-62db-497b-8497-935dd63b3f3b" x1="257.2" y1="60.37" x2="257.2" y2="144.81"/><line class="afcfcaee-62db-497b-8497-935dd63b3f3b" x1="258.18" y1="292.28" x2="258.18" y2="336.21"/><line class="afcfcaee-62db-497b-8497-935dd63b3f3b" x1="222.96" y1="87.85" x2="222.96" y2="169.47"/><line class="afcfcaee-62db-497b-8497-935dd63b3f3b" x1="223.95" y1="269.86" x2="223.95" y2="357.06"/><line class="afcfcaee-62db-497b-8497-935dd63b3f3b" x1="187.57" y1="102.82" x2="187.57" y2="338.18"/><line class="afcfcaee-62db-497b-8497-935dd63b3f3b" x1="152.63" y1="123" x2="152.63" y2="317.67"/><line class="afcfcaee-62db-497b-8497-935dd63b3f3b" x1="295.7" y1="81.34" x2="295.7" y2="128.11"/><rect class="b882ec07-36d2-442d-96b9-48d479830feb" x="602.18" y="303.42" width="64.93" height="39.09"/><text class="ff3efdad-993c-4f31-8bb7-61466681d8cc" transform="translate(609.72 333.32)">Aa</text><line class="b882ec07-36d2-442d-96b9-48d479830feb" x1="602.12" y1="333.83" x2="667.4" y2="333.83"/><rect class="b4400c24-60c1-4dc0-baed-a866b8606fde" x="599.23" y="300.56" width="4.75" height="4.75"/><rect class="b4400c24-60c1-4dc0-baed-a866b8606fde" x="664.92" y="300.56" width="4.75" height="4.75"/><rect class="b4400c24-60c1-4dc0-baed-a866b8606fde" x="599.23" y="339.7" width="4.75" height="4.75"/><rect class="b4400c24-60c1-4dc0-baed-a866b8606fde" x="664.92" y="339.7" width="4.75" height="4.75"/><path class="f43ca439-2b75-4cdc-bc54-33e4a2aada76" d="M319.21,402.15l12.56,13.21a18.41,18.41,0,0,0,13.37,5.74h33.79l-2.14-5.87a7.7,7.7,0,0,0-6.48-5L358,409a17.82,17.82,0,0,1-15-11.8L341,391.72"/><path class="f43ca439-2b75-4cdc-bc54-33e4a2aada76" d="M362.45,39.52,349.89,26.3a18.45,18.45,0,0,0-13.37-5.74H302.73l2.14,5.87a7.69,7.69,0,0,0,6.48,5l12.35,1.24a17.82,17.82,0,0,1,15,11.8L340.65,50"/></g></svg>