<svg version="1.1" width="36" height="36"  viewBox="0 0 36 36" preserveAspectRatio="xMidYMid meet" xmlns="http://www.w3.org/2000/svg" xmlns:xlink="http://www.w3.org/1999/xlink">
    <title>cloud-line</title>
    <path class="clr-i-outline clr-i-outline-path-1" d="M27.14,33H10.62C5.67,33,1,28.19,1,23.1a10,10,0,0,1,8-9.75,10.19,10.19,0,0,1,20.33,1.06A10.07,10.07,0,0,1,29,16.66a8.29,8.29,0,0,1,6,8C35,29.1,31.33,33,27.14,33ZM19.09,6.23a8.24,8.24,0,0,0-8.19,8l0,.87-.86.1A7.94,7.94,0,0,0,3,23.1c0,4,3.77,7.9,7.62,7.9H27.14C30.21,31,33,28,33,24.65a6.31,6.31,0,0,0-5.37-6.26l-1.18-.18.39-1.13A8.18,8.18,0,0,0,19.09,6.23Z"></path>
    <rect x="0" y="0" width="36" height="36" fill-opacity="0"/>
</svg>