<svg version="1.1" width="36" height="36"  viewBox="0 0 36 36" preserveAspectRatio="xMidYMid meet" xmlns="http://www.w3.org/2000/svg" xmlns:xlink="http://www.w3.org/1999/xlink">
    <title>info-circle-line</title>
    <circle class="clr-i-outline clr-i-outline-path-1" cx="17.93" cy="11.9" r="1.4"></circle><path class="clr-i-outline clr-i-outline-path-2" d="M21,23H19V15H16a1,1,0,0,0,0,2h1v6H15a1,1,0,1,0,0,2h6a1,1,0,0,0,0-2Z"></path><path class="clr-i-outline clr-i-outline-path-3" d="M18,6A12,12,0,1,0,30,18,12,12,0,0,0,18,6Zm0,22A10,10,0,1,1,28,18,10,10,0,0,1,18,28Z"></path>
    <rect x="0" y="0" width="36" height="36" fill-opacity="0"/>
</svg>