<svg version="1.1" width="36" height="36"  viewBox="0 0 36 36" preserveAspectRatio="xMidYMid meet" xmlns="http://www.w3.org/2000/svg" xmlns:xlink="http://www.w3.org/1999/xlink">
    <title>heart-broken-solid</title>
    <path d="M33,7.64c-1.34-2.75-5.2-5-9.69-3.69A11.55,11.55,0,0,0,18.19,7.5a16.89,16.89,0,0,0-2.48,4.56L22.27,15,16.7,20.26,19,23l-1.57,1.34-3.6-4.22,4.74-4.51-5.44-2.41a19.49,19.49,0,0,1,2.3-5.5,14.77,14.77,0,0,1,1.06-1.54l.06,0a9.66,9.66,0,0,0-3.89-2.18C8.19,2.66,4.34,4.89,3,7.64c-1.88,3.85-1.1,8.18,2.32,12.87C8,24.18,11.83,27.9,17.39,32.22a1,1,0,0,0,1.23,0c5.55-4.31,9.39-8,12.07-11.71C34.1,15.82,34.88,11.49,33,7.64Z" class="clr-i-solid clr-i-solid-path-1"></path>
    <rect x="0" y="0" width="36" height="36" fill-opacity="0"/>
</svg>