<svg version="1.1" width="36" height="36"  viewBox="0 0 36 36" preserveAspectRatio="xMidYMid meet" xmlns="http://www.w3.org/2000/svg" xmlns:xlink="http://www.w3.org/1999/xlink">
    <title>thumbs-down-line</title>
    <path d="M12,10c2.92-1.82,7.3-4,9.37-4h6a16.68,16.68,0,0,1,3.31,6.08A26.71,26.71,0,0,1,32,20H23V30a2.05,2.05,0,0,1-1.26,1.69c-.77-2-2.62-6.57-4.23-8.72A11.39,11.39,0,0,0,12,19.09v2.13a9.13,9.13,0,0,1,3.91,3c1.88,2.51,4.29,9.11,4.31,9.17a1,1,0,0,0,1.19.63C22.75,33.62,25,32.4,25,30V22h8a1,1,0,0,0,1-1,29,29,0,0,0-1.4-9.62c-1.89-5.4-4.1-7.14-4.2-7.22A1,1,0,0,0,27.79,4H21.37C18.94,4,14.83,6,12,7.63Z" class="clr-i-outline clr-i-outline-path-1"></path><path d="M2,5H9a1,1,0,0,1,1,1V22a1,1,0,0,1-1,1H2ZM8,7H4V21H8Z" class="clr-i-outline clr-i-outline-path-2"></path>
    <rect x="0" y="0" width="36" height="36" fill-opacity="0"/>
</svg>