<svg version="1.1" width="36" height="36"  viewBox="0 0 36 36" preserveAspectRatio="xMidYMid meet" xmlns="http://www.w3.org/2000/svg" xmlns:xlink="http://www.w3.org/1999/xlink">
    <title>thumbs-down-solid</title>
    <path d="M16.37,23.84c2.12,2.84,4.76,10.07,4.76,10.07S24,33.13,24,30.71V21h9.77a29.46,29.46,0,0,0-1.44-9.74C30.39,5.68,28.2,4,28.2,4H21.35C19.1,4,15,5.9,12,7.65v12.8A10.84,10.84,0,0,1,16.37,23.84Z" class="clr-i-solid clr-i-solid-path-1"></path><path d="M9,23a1,1,0,0,0,1-1V6A1,1,0,0,0,9,5H2V23Z" class="clr-i-solid clr-i-solid-path-2"></path>
    <rect x="0" y="0" width="36" height="36" fill-opacity="0"/>
</svg>