<svg version="1.1" width="36" height="36"  viewBox="0 0 36 36" preserveAspectRatio="xMidYMid meet" xmlns="http://www.w3.org/2000/svg" xmlns:xlink="http://www.w3.org/1999/xlink">
    <title>compass-line</title>
    <path d="M20.82,15.31h0L10.46,9c-.46-.26-1.11.37-.86.84l6.15,10.56,10.56,6.15a.66.66,0,0,0,.84-.86Zm-4,4,3-3,4.55,7.44Z" class="clr-i-outline clr-i-outline-path-1"></path><path d="M18,2A16,16,0,1,0,34,18,16,16,0,0,0,18,2Zm1,29.95V29.53H17v2.42A14,14,0,0,1,4.05,19H6.47V17H4.05A14,14,0,0,1,17,4.05V6.47h2V4.05A14,14,0,0,1,31.95,17H29.53v2h2.42A14,14,0,0,1,19,31.95Z" class="clr-i-outline clr-i-outline-path-2"></path>
    <rect x="0" y="0" width="36" height="36" fill-opacity="0"/>
</svg>