<svg version="1.1" width="36" height="36"  viewBox="0 0 36 36" preserveAspectRatio="xMidYMid meet" xmlns="http://www.w3.org/2000/svg" xmlns:xlink="http://www.w3.org/1999/xlink">
    <title>alarm-clock-solid</title>
    <path d="M31.47,3.84a5.78,5.78,0,0,0-7.37-.63,16.08,16.08,0,0,1,8.2,7.65A5.73,5.73,0,0,0,31.47,3.84Z" class="clr-i-solid clr-i-solid-path-1"></path><path d="M11.42,3.43a5.77,5.77,0,0,0-7.64.41,5.72,5.72,0,0,0-.38,7.64A16.08,16.08,0,0,1,11.42,3.43Z" class="clr-i-solid clr-i-solid-path-2"></path><path d="M18,4A14,14,0,0,0,8.11,27.88L5.56,30.43A1,1,0,1,0,7,31.84l2.66-2.66a13.9,13.9,0,0,0,16.88-.08l2.74,2.74a1,1,0,0,0,1.41-1.41L28,27.78A14,14,0,0,0,18,4Zm7.47,17.43a1,1,0,0,1-1.33.47L17,18.44V9.69a1,1,0,0,1,2,0v7.5L25,20.1A1,1,0,0,1,25.49,21.43Z" class="clr-i-solid clr-i-solid-path-3"></path>
    <rect x="0" y="0" width="36" height="36" fill-opacity="0"/>
</svg>