<svg version="1.1" width="36" height="36"  viewBox="0 0 36 36" preserveAspectRatio="xMidYMid meet" xmlns="http://www.w3.org/2000/svg" xmlns:xlink="http://www.w3.org/1999/xlink">
    <title>firewall-line</title>
    <path d="M32,6H4A2,2,0,0,0,2,8V28a2,2,0,0,0,2,2H32a2,2,0,0,0,2-2V8A2,2,0,0,0,32,6ZM4,8H32v5.08H23.8v-4H22v4H14v-4H12v4H4Zm0,7H32v6.08H28.92V16.27H27v4.81H18.92V16.27H17v4.81H8.9V16.27H7v4.81H4ZM23.8,28V24.27H22.2V28H14V24.27h-1.6V28H4V23H32v5Z" class="clr-i-outline clr-i-outline-path-1"></path>
    <rect x="0" y="0" width="36" height="36" fill-opacity="0"/>
</svg>