<svg version="1.1" width="36" height="36"  viewBox="0 0 36 36" preserveAspectRatio="xMidYMid meet" xmlns="http://www.w3.org/2000/svg" xmlns:xlink="http://www.w3.org/1999/xlink">
    <title>no-access-line</title>
    <path d="M18,2A16,16,0,1,0,34,18,16,16,0,0,0,18,2Zm0,30A14,14,0,1,1,32,18,14,14,0,0,1,18,32Z" class="clr-i-outline clr-i-outline-path-1"></path><path d="M27.15,15H8.85A1.85,1.85,0,0,0,7,16.85v2.29A1.85,1.85,0,0,0,8.85,21H27.15A1.85,1.85,0,0,0,29,19.15V16.85A1.85,1.85,0,0,0,27.15,15Zm.25,4.15a.25.25,0,0,1-.25.25H8.85a.25.25,0,0,1-.25-.25V16.85a.25.25,0,0,1,.25-.25H27.15a.25.25,0,0,1,.25.25Z" class="clr-i-outline clr-i-outline-path-2"></path>
    <rect x="0" y="0" width="36" height="36" fill-opacity="0"/>
</svg>