<svg version="1.1" width="36" height="36"  viewBox="0 0 36 36" preserveAspectRatio="xMidYMid meet" xmlns="http://www.w3.org/2000/svg" xmlns:xlink="http://www.w3.org/1999/xlink">
    <title>paste-line</title>
    <path d="M30,12H26v2h4v2h2V14A2,2,0,0,0,30,12Z" class="clr-i-outline clr-i-outline-path-1"></path><rect x="30" y="18" width="2" height="6" class="clr-i-outline clr-i-outline-path-2"></rect><path d="M30,30H28v2h2a2,2,0,0,0,2-2V26H30Z" class="clr-i-outline clr-i-outline-path-3"></path><path d="M24,22V6a2,2,0,0,0-2-2H6A2,2,0,0,0,4,6V22a2,2,0,0,0,2,2H22A2,2,0,0,0,24,22ZM6,6H22V22H6Z" class="clr-i-outline clr-i-outline-path-4"></path><rect x="20" y="30" width="6" height="2" class="clr-i-outline clr-i-outline-path-5"></rect><path d="M14,26H12v4a2,2,0,0,0,2,2h4V30H14Z" class="clr-i-outline clr-i-outline-path-6"></path>
    <rect x="0" y="0" width="36" height="36" fill-opacity="0"/>
</svg>