<svg version="1.1" width="36" height="36"  viewBox="0 0 36 36" preserveAspectRatio="xMidYMid meet" xmlns="http://www.w3.org/2000/svg" xmlns:xlink="http://www.w3.org/1999/xlink">
    <title>scroll-outline-alerted</title>
    <path d="M28.08,15.4V29.54a2.5,2.5,0,0,1-2.5,2.5H10.24a4.47,4.47,0,0,0,.76-2.5v-23a2.5,2.5,0,0,1,5,0v4.54h2.61A3.66,3.66,0,0,1,19,9.89l.44-.76H18V6.58a4.48,4.48,0,0,0-.76-2.5H22.4l1.15-2H13.5A4.5,4.5,0,0,0,9,6.58v23a2.5,2.5,0,1,1-5,0V26H7.19V24H2v5.5A4.5,4.5,0,0,0,6.5,34H25.58a4.5,4.5,0,0,0,4.5-4.5V15.4Z" class="clr-i-outline--alerted clr-i-outline-path-1--alerted"></path><path d="M26.85,1.14,21.13,11A1.28,1.28,0,0,0,22.23,13H33.68A1.28,1.28,0,0,0,34.78,11L29.06,1.14A1.28,1.28,0,0,0,26.85,1.14Z" class="clr-i-outline--alerted clr-i-outline-path-2--alerted clr-i-alert"></path>
    <rect x="0" y="0" width="36" height="36" fill-opacity="0"/>
</svg>