<?xml version="1.0" encoding="UTF-8"?>
<svg width="258px" height="122px" viewBox="0 0 258 122" version="1.1" xmlns="http://www.w3.org/2000/svg" xmlns:xlink="http://www.w3.org/1999/xlink">
    <!-- Generator: Sketch 42 (36781) - http://www.bohemiancoding.com/sketch -->
    <title>example_tree_interacting</title>
    <desc>Created with Sketch.</desc>
    <defs></defs>
    <g id="Page-1-New-Layout" stroke="none" stroke-width="1" fill="none" fill-rule="evenodd">
        <g id="Outlined-Text" transform="translate(-700.000000, -2655.000000)">
            <g id="example_tree_interacting" transform="translate(702.000000, 2657.000000)">
                <g id="line2" transform="translate(2.000000, 2.000000)">
                    <g id="example_tree_expanding">
                        <g id="Group-Copy" transform="translate(61.000000, 42.000000)" fill="#565656">
                            <path d="M0.106,10 L0.106,0.382 L4.012,0.382 C6,0.382 7.554,1.656 7.554,3.462 C7.554,5.268 6,6.542 4.012,6.542 L1.198,6.542 L1.198,10 L0.106,10 Z M1.198,5.506 L3.816,5.506 C5.384,5.506 6.448,4.75 6.448,3.462 C6.448,2.174 5.384,1.418 3.816,1.418 L1.198,1.418 L1.198,5.506 Z M12.02,2.594 C13.994,2.594 14.96,3.84 14.96,5.59 L14.96,10 L13.91,10 L13.91,8.866 C13.392,9.72 12.314,10.168 11.362,10.168 C9.836,10.168 8.716,9.286 8.716,7.858 C8.716,6.416 10.004,5.45 11.558,5.45 C12.342,5.45 13.168,5.618 13.91,5.856 L13.91,5.59 C13.91,4.61 13.518,3.49 11.95,3.49 C11.222,3.49 10.494,3.812 9.836,4.148 L9.416,3.294 C10.452,2.776 11.32,2.594 12.02,2.594 Z M11.544,9.244 C12.496,9.244 13.63,8.754 13.91,7.732 L13.91,6.626 C13.252,6.444 12.51,6.332 11.726,6.332 C10.648,6.332 9.738,6.948 9.738,7.816 C9.738,8.712 10.522,9.244 11.544,9.244 Z M17.102,10 L18.152,10 L18.152,0.214 L17.102,0.214 L17.102,10 Z M23.64,10.168 C21.61,10.168 19.888,8.432 19.888,6.374 C19.888,4.316 21.61,2.594 23.64,2.594 C25.67,2.594 27.378,4.316 27.378,6.374 C27.378,8.432 25.67,10.168 23.64,10.168 Z M23.64,9.23 C25.068,9.23 26.272,7.928 26.272,6.374 C26.272,4.834 25.068,3.532 23.64,3.532 C22.198,3.532 20.994,4.834 20.994,6.374 C20.994,7.928 22.198,9.23 23.64,9.23 Z M41.042,10 L40.076,7.816 L34.714,7.816 L33.748,10 L32.558,10 L36.8,0.382 L37.99,0.382 L42.232,10 L41.042,10 Z M35.162,6.78 L39.628,6.78 L37.402,1.726 L35.162,6.78 Z M43.744,10 L44.794,10 L44.794,0.214 L43.744,0.214 L43.744,10 Z M50.1,8.936 C49.946,9.104 49.666,9.23 49.344,9.23 C48.924,9.23 48.56,8.852 48.56,8.32 L48.56,3.7 L50.338,3.7 L50.338,2.762 L48.56,2.762 L48.56,0.774 L47.51,0.774 L47.51,2.762 L46.376,2.762 L46.376,3.7 L47.51,3.7 L47.51,8.32 C47.51,9.398 48.238,10.168 49.274,10.168 C49.764,10.168 50.24,10 50.618,9.706 L50.1,8.936 Z M55.462,10.168 C53.432,10.168 51.71,8.432 51.71,6.374 C51.71,4.316 53.432,2.594 55.462,2.594 C57.492,2.594 59.2,4.316 59.2,6.374 C59.2,8.432 57.492,10.168 55.462,10.168 Z M55.462,9.23 C56.89,9.23 58.094,7.928 58.094,6.374 C58.094,4.834 56.89,3.532 55.462,3.532 C54.02,3.532 52.816,4.834 52.816,6.374 C52.816,7.928 54.02,9.23 55.462,9.23 Z M61.496,11.862 C62.336,10.812 62.574,10.336 62.574,9.776 C62.574,9.132 62.252,8.656 61.72,8.656 C61.272,8.656 60.95,9.006 60.95,9.398 C60.95,9.818 61.286,10.168 61.706,10.168 C61.594,10.602 61.356,11.036 60.978,11.47 L61.496,11.862 Z M73.284,10.168 C74.614,10.168 75.846,9.594 76.742,8.698 L76,7.942 C75.3,8.684 74.334,9.16 73.284,9.16 C71.212,9.16 69.462,7.34 69.462,5.184 C69.462,3.042 71.212,1.222 73.284,1.222 C74.334,1.222 75.3,1.698 76,2.44 L76.742,1.684 C75.846,0.774 74.614,0.214 73.284,0.214 C70.624,0.214 68.356,2.482 68.356,5.184 C68.356,7.886 70.624,10.168 73.284,10.168 Z M86.08,10 L85.114,7.816 L79.752,7.816 L78.786,10 L77.596,10 L81.838,0.382 L83.028,0.382 L87.27,10 L86.08,10 Z M80.2,6.78 L84.666,6.78 L82.44,1.726 L80.2,6.78 Z M95.572,12.38 L96.132,11.778 C94.606,10.224 93.766,8.572 93.766,6.29 C93.766,3.994 94.606,2.356 96.132,0.788 L95.572,0.2 C93.696,1.768 92.646,3.868 92.646,6.29 C92.646,8.698 93.696,10.812 95.572,12.38 Z M104.644,0.382 L104.644,4.582 L98.974,4.582 L98.974,0.382 L97.882,0.382 L97.882,10 L98.974,10 L98.974,5.618 L104.644,5.618 L104.644,10 L105.736,10 L105.736,0.382 L104.644,0.382 Z M111.168,9.23 C112.022,9.23 113.002,8.852 113.45,8.362 L114.094,9.048 C113.464,9.734 112.19,10.168 111.182,10.168 C109.25,10.168 107.514,8.586 107.514,6.36 C107.514,4.204 109.138,2.594 111.084,2.594 C113.268,2.594 114.514,4.246 114.514,6.78 L108.592,6.78 C108.746,8.194 109.74,9.23 111.168,9.23 Z M111.126,3.532 C109.838,3.532 108.802,4.442 108.606,5.842 L113.478,5.842 C113.338,4.54 112.568,3.532 111.126,3.532 Z M119.176,2.594 C121.15,2.594 122.116,3.84 122.116,5.59 L122.116,10 L121.066,10 L121.066,8.866 C120.548,9.72 119.47,10.168 118.518,10.168 C116.992,10.168 115.872,9.286 115.872,7.858 C115.872,6.416 117.16,5.45 118.714,5.45 C119.498,5.45 120.324,5.618 121.066,5.856 L121.066,5.59 C121.066,4.61 120.674,3.49 119.106,3.49 C118.378,3.49 117.65,3.812 116.992,4.148 L116.572,3.294 C117.608,2.776 118.476,2.594 119.176,2.594 Z M118.7,9.244 C119.652,9.244 120.786,8.754 121.066,7.732 L121.066,6.626 C120.408,6.444 119.666,6.332 118.882,6.332 C117.804,6.332 116.894,6.948 116.894,7.816 C116.894,8.712 117.678,9.244 118.7,9.244 Z M129.914,0.214 L130.964,0.214 L130.964,10 L129.914,10 L129.914,8.642 C129.368,9.594 128.444,10.168 127.282,10.168 C125.378,10.168 123.95,8.6 123.95,6.374 C123.95,4.162 125.378,2.594 127.282,2.594 C128.444,2.594 129.368,3.168 129.914,4.12 L129.914,0.214 Z M127.478,9.23 C128.906,9.23 129.914,8.04 129.914,6.374 C129.914,4.708 128.906,3.532 127.478,3.532 C126.064,3.532 125.056,4.708 125.056,6.374 C125.056,8.04 126.064,9.23 127.478,9.23 Z M138.846,2.762 L139.896,2.762 L139.896,12.408 L138.846,12.408 L138.846,8.642 C138.3,9.594 137.376,10.168 136.214,10.168 C134.31,10.168 132.882,8.6 132.882,6.374 C132.882,4.162 134.31,2.594 136.214,2.594 C137.376,2.594 138.3,3.168 138.846,4.12 L138.846,2.762 Z M136.41,9.23 C137.838,9.23 138.846,8.04 138.846,6.374 C138.846,4.708 137.838,3.532 136.41,3.532 C134.996,3.532 133.988,4.708 133.988,6.374 C133.988,8.04 134.996,9.23 136.41,9.23 Z M147.218,2.762 L147.218,7.368 C147.218,8.376 146.196,9.23 144.978,9.23 C143.914,9.23 143.172,8.404 143.172,7.228 L143.172,2.762 L142.122,2.762 L142.122,7.368 C142.122,9.006 143.242,10.168 144.838,10.168 C145.86,10.168 146.798,9.608 147.218,8.838 L147.218,10 L148.268,10 L148.268,2.762 L147.218,2.762 Z M153.35,2.594 C155.324,2.594 156.29,3.84 156.29,5.59 L156.29,10 L155.24,10 L155.24,8.866 C154.722,9.72 153.644,10.168 152.692,10.168 C151.166,10.168 150.046,9.286 150.046,7.858 C150.046,6.416 151.334,5.45 152.888,5.45 C153.672,5.45 154.498,5.618 155.24,5.856 L155.24,5.59 C155.24,4.61 154.848,3.49 153.28,3.49 C152.552,3.49 151.824,3.812 151.166,4.148 L150.746,3.294 C151.782,2.776 152.65,2.594 153.35,2.594 Z M152.874,9.244 C153.826,9.244 154.96,8.754 155.24,7.732 L155.24,6.626 C154.582,6.444 153.84,6.332 153.056,6.332 C151.978,6.332 151.068,6.948 151.068,7.816 C151.068,8.712 151.852,9.244 152.874,9.244 Z M159.58,4.176 L159.58,2.762 L158.53,2.762 L158.53,10 L159.58,10 L159.58,5.954 C159.58,4.54 160.742,3.532 162.38,3.532 L162.38,2.594 C161.05,2.594 160.014,3.21 159.58,4.176 Z M167.014,8.936 C166.86,9.104 166.58,9.23 166.258,9.23 C165.838,9.23 165.474,8.852 165.474,8.32 L165.474,3.7 L167.252,3.7 L167.252,2.762 L165.474,2.762 L165.474,0.774 L164.424,0.774 L164.424,2.762 L163.29,2.762 L163.29,3.7 L164.424,3.7 L164.424,8.32 C164.424,9.398 165.152,10.168 166.188,10.168 C166.678,10.168 167.154,10 167.532,9.706 L167.014,8.936 Z M172.278,9.23 C173.132,9.23 174.112,8.852 174.56,8.362 L175.204,9.048 C174.574,9.734 173.3,10.168 172.292,10.168 C170.36,10.168 168.624,8.586 168.624,6.36 C168.624,4.204 170.248,2.594 172.194,2.594 C174.378,2.594 175.624,4.246 175.624,6.78 L169.702,6.78 C169.856,8.194 170.85,9.23 172.278,9.23 Z M172.236,3.532 C170.948,3.532 169.912,4.442 169.716,5.842 L174.588,5.842 C174.448,4.54 173.678,3.532 172.236,3.532 Z M178.494,4.176 L178.494,2.762 L177.444,2.762 L177.444,10 L178.494,10 L178.494,5.954 C178.494,4.54 179.656,3.532 181.294,3.532 L181.294,2.594 C179.964,2.594 178.928,3.21 178.494,4.176 Z M185.312,10.168 C186.81,10.168 187.958,9.314 187.958,7.984 C187.958,6.612 186.754,6.22 185.592,5.856 C184.248,5.422 183.716,5.226 183.716,4.596 C183.716,3.896 184.388,3.532 185.2,3.532 C185.844,3.532 186.558,3.756 187.286,4.218 L187.79,3.406 C187.02,2.902 186.096,2.594 185.2,2.594 C183.758,2.594 182.666,3.406 182.666,4.722 C182.666,5.758 183.338,6.276 185.088,6.78 C186.068,7.06 186.908,7.312 186.908,8.096 C186.908,8.782 186.264,9.23 185.312,9.23 C184.514,9.23 183.688,8.922 182.862,8.32 L182.316,9.09 C183.184,9.79 184.304,10.168 185.312,10.168 Z M189.834,12.38 C191.71,10.812 192.76,8.698 192.76,6.29 C192.76,3.868 191.71,1.768 189.834,0.2 L189.274,0.788 C190.8,2.356 191.64,3.994 191.64,6.29 C191.64,8.572 190.8,10.224 189.274,11.778 L189.834,12.38 Z" id="Palo-Alto,-CA-(Headq"></path>
                        </g>
                        <g id="Group-3" transform="translate(60.000000, 74.000000)" fill="#565656">
                            <path d="M4.438,10.154 C6.678,10.154 7.826,8.908 7.826,7.382 C7.826,5.688 6.51,5.03 4.676,4.596 C3.038,4.204 2.086,3.854 2.086,2.86 C2.086,1.978 2.954,1.194 4.144,1.194 C5.152,1.194 6.104,1.656 6.902,2.426 L7.574,1.572 C6.692,0.76 5.628,0.2 4.2,0.2 C2.352,0.2 0.98,1.404 0.98,2.944 C0.98,4.61 2.198,5.212 4.13,5.66 C5.81,6.052 6.72,6.458 6.72,7.48 C6.72,8.348 5.964,9.16 4.48,9.16 C3.136,9.16 2.142,8.586 1.33,7.774 L0.644,8.628 C1.61,9.58 2.856,10.154 4.438,10.154 Z M12.908,9.23 C13.762,9.23 14.742,8.852 15.19,8.362 L15.834,9.048 C15.204,9.734 13.93,10.168 12.922,10.168 C10.99,10.168 9.254,8.586 9.254,6.36 C9.254,4.204 10.878,2.594 12.824,2.594 C15.008,2.594 16.254,4.246 16.254,6.78 L10.332,6.78 C10.486,8.194 11.48,9.23 12.908,9.23 Z M12.866,3.532 C11.578,3.532 10.542,4.442 10.346,5.842 L15.218,5.842 C15.078,4.54 14.308,3.532 12.866,3.532 Z M20.916,2.594 C22.89,2.594 23.856,3.84 23.856,5.59 L23.856,10 L22.806,10 L22.806,8.866 C22.288,9.72 21.21,10.168 20.258,10.168 C18.732,10.168 17.612,9.286 17.612,7.858 C17.612,6.416 18.9,5.45 20.454,5.45 C21.238,5.45 22.064,5.618 22.806,5.856 L22.806,5.59 C22.806,4.61 22.414,3.49 20.846,3.49 C20.118,3.49 19.39,3.812 18.732,4.148 L18.312,3.294 C19.348,2.776 20.216,2.594 20.916,2.594 Z M20.44,9.244 C21.392,9.244 22.526,8.754 22.806,7.732 L22.806,6.626 C22.148,6.444 21.406,6.332 20.622,6.332 C19.544,6.332 18.634,6.948 18.634,7.816 C18.634,8.712 19.418,9.244 20.44,9.244 Z M29.176,8.936 C29.022,9.104 28.742,9.23 28.42,9.23 C28,9.23 27.636,8.852 27.636,8.32 L27.636,3.7 L29.414,3.7 L29.414,2.762 L27.636,2.762 L27.636,0.774 L26.586,0.774 L26.586,2.762 L25.452,2.762 L25.452,3.7 L26.586,3.7 L26.586,8.32 C26.586,9.398 27.314,10.168 28.35,10.168 C28.84,10.168 29.316,10 29.694,9.706 L29.176,8.936 Z M34.356,8.936 C34.202,9.104 33.922,9.23 33.6,9.23 C33.18,9.23 32.816,8.852 32.816,8.32 L32.816,3.7 L34.594,3.7 L34.594,2.762 L32.816,2.762 L32.816,0.774 L31.766,0.774 L31.766,2.762 L30.632,2.762 L30.632,3.7 L31.766,3.7 L31.766,8.32 C31.766,9.398 32.494,10.168 33.53,10.168 C34.02,10.168 34.496,10 34.874,9.706 L34.356,8.936 Z M36.358,10 L37.408,10 L37.408,0.214 L36.358,0.214 L36.358,10 Z M42.798,9.23 C43.652,9.23 44.632,8.852 45.08,8.362 L45.724,9.048 C45.094,9.734 43.82,10.168 42.812,10.168 C40.88,10.168 39.144,8.586 39.144,6.36 C39.144,4.204 40.768,2.594 42.714,2.594 C44.898,2.594 46.144,4.246 46.144,6.78 L40.222,6.78 C40.376,8.194 41.37,9.23 42.798,9.23 Z M42.756,3.532 C41.468,3.532 40.432,4.442 40.236,5.842 L45.108,5.842 C44.968,4.54 44.198,3.532 42.756,3.532 Z M48.426,11.862 C49.266,10.812 49.504,10.336 49.504,9.776 C49.504,9.132 49.182,8.656 48.65,8.656 C48.202,8.656 47.88,9.006 47.88,9.398 C47.88,9.818 48.216,10.168 48.636,10.168 C48.524,10.602 48.286,11.036 47.908,11.47 L48.426,11.862 Z M58.366,10 L59.444,10 L62.132,1.81 L64.806,10 L65.884,10 L69.174,0.382 L67.942,0.382 L65.282,8.166 L62.734,0.382 L61.516,0.382 L58.968,8.166 L56.308,0.382 L55.076,0.382 L58.366,10 Z M78.624,10 L77.658,7.816 L72.296,7.816 L71.33,10 L70.14,10 L74.382,0.382 L75.572,0.382 L79.814,10 L78.624,10 Z M72.744,6.78 L77.21,6.78 L74.984,1.726 L72.744,6.78 Z" id="Seattle,-WA"></path>
                        </g>
                        <g id="Group-3-Copy" transform="translate(60.000000, 106.000000)" fill="#565656">
                            <path d="M8.932,10 L7.966,7.816 L2.604,7.816 L1.638,10 L0.448,10 L4.69,0.382 L5.88,0.382 L10.122,10 L8.932,10 Z M3.052,6.78 L7.518,6.78 L5.292,1.726 L3.052,6.78 Z M16.73,2.762 L16.73,7.368 C16.73,8.376 15.708,9.23 14.49,9.23 C13.426,9.23 12.684,8.404 12.684,7.228 L12.684,2.762 L11.634,2.762 L11.634,7.368 C11.634,9.006 12.754,10.168 14.35,10.168 C15.372,10.168 16.31,9.608 16.73,8.838 L16.73,10 L17.78,10 L17.78,2.762 L16.73,2.762 Z M22.484,10.168 C23.982,10.168 25.13,9.314 25.13,7.984 C25.13,6.612 23.926,6.22 22.764,5.856 C21.42,5.422 20.888,5.226 20.888,4.596 C20.888,3.896 21.56,3.532 22.372,3.532 C23.016,3.532 23.73,3.756 24.458,4.218 L24.962,3.406 C24.192,2.902 23.268,2.594 22.372,2.594 C20.93,2.594 19.838,3.406 19.838,4.722 C19.838,5.758 20.51,6.276 22.26,6.78 C23.24,7.06 24.08,7.312 24.08,8.096 C24.08,8.782 23.436,9.23 22.484,9.23 C21.686,9.23 20.86,8.922 20.034,8.32 L19.488,9.09 C20.356,9.79 21.476,10.168 22.484,10.168 Z M30.044,8.936 C29.89,9.104 29.61,9.23 29.288,9.23 C28.868,9.23 28.504,8.852 28.504,8.32 L28.504,3.7 L30.282,3.7 L30.282,2.762 L28.504,2.762 L28.504,0.774 L27.454,0.774 L27.454,2.762 L26.32,2.762 L26.32,3.7 L27.454,3.7 L27.454,8.32 C27.454,9.398 28.182,10.168 29.218,10.168 C29.708,10.168 30.184,10 30.562,9.706 L30.044,8.936 Z M32.564,1.446 C32.942,1.446 33.25,1.124 33.25,0.746 C33.25,0.382 32.942,0.06 32.564,0.06 C32.172,0.06 31.864,0.382 31.864,0.746 C31.864,1.124 32.172,1.446 32.564,1.446 Z M32.032,10 L33.082,10 L33.082,2.762 L32.032,2.762 L32.032,10 Z M38.64,2.594 C37.618,2.594 36.68,3.154 36.26,3.924 L36.26,2.762 L35.21,2.762 L35.21,10 L36.26,10 L36.26,5.394 C36.26,4.386 37.282,3.532 38.5,3.532 C39.564,3.532 40.306,4.358 40.306,5.534 L40.306,10 L41.356,10 L41.356,5.394 C41.356,3.756 40.236,2.594 38.64,2.594 Z M44.044,11.862 C44.884,10.812 45.122,10.336 45.122,9.776 C45.122,9.132 44.8,8.656 44.268,8.656 C43.82,8.656 43.498,9.006 43.498,9.398 C43.498,9.818 43.834,10.168 44.254,10.168 C44.142,10.602 43.904,11.036 43.526,11.47 L44.044,11.862 Z M54.04,10 L55.132,10 L55.132,1.418 L58.366,1.418 L58.366,0.382 L50.806,0.382 L50.806,1.418 L54.04,1.418 L54.04,10 Z M68.222,0.382 L66.892,0.382 L63.882,4.316 L60.872,0.382 L59.528,0.382 L63.21,5.198 L59.528,10 L60.858,10 L63.868,6.066 L66.878,10 L68.222,10 L64.54,5.184 L68.222,0.382 Z" id="Austin,-TX"></path>
                        </g>
                        <g id="line2-copy-3">
                            <path d="M41.222,20.168 C43.574,20.168 45.24,18.446 45.24,16.01 L45.24,10.382 L44.148,10.382 L44.148,16.01 C44.148,17.858 42.93,19.174 41.222,19.174 C39.514,19.174 38.296,17.858 38.296,16.01 L38.296,10.382 L37.204,10.382 L37.204,16.01 C37.204,18.446 38.87,20.168 41.222,20.168 Z M50.882,20.154 C53.122,20.154 54.27,18.908 54.27,17.382 C54.27,15.688 52.954,15.03 51.12,14.596 C49.482,14.204 48.53,13.854 48.53,12.86 C48.53,11.978 49.398,11.194 50.588,11.194 C51.596,11.194 52.548,11.656 53.346,12.426 L54.018,11.572 C53.136,10.76 52.072,10.2 50.644,10.2 C48.796,10.2 47.424,11.404 47.424,12.944 C47.424,14.61 48.642,15.212 50.574,15.66 C52.254,16.052 53.164,16.458 53.164,17.48 C53.164,18.348 52.408,19.16 50.924,19.16 C49.58,19.16 48.586,18.586 47.774,17.774 L47.088,18.628 C48.054,19.58 49.3,20.154 50.882,20.154 Z M63.958,20 L62.992,17.816 L57.63,17.816 L56.664,20 L55.474,20 L59.716,10.382 L60.906,10.382 L65.148,20 L63.958,20 Z M58.078,16.78 L62.544,16.78 L60.318,11.726 L58.078,16.78 Z" id="USA" fill="#565656"></path>
                            <g id="caret-open-32" stroke="#9A9A9A" stroke-linecap="round" stroke-linejoin="round">
                                <g id="caret-open-copy" transform="translate(10.666667, 13.866667)">
                                    <polyline id="Rectangle-11" stroke-width="1.5" points="10.6666667 1.11022302e-15 5.26827145 5.33333333 2.77555756e-15 0.128555501"></polyline>
                                </g>
                            </g>
                        </g>
                    </g>
                </g>
                <circle id="Oval-3" stroke="#853FB3" stroke-width="3" cx="17.5" cy="17.5" r="17.5"></circle>
            </g>
        </g>
    </g>
</svg>