<svg version="1.1" width="36" height="36"  viewBox="0 0 36 36" preserveAspectRatio="xMidYMid meet" xmlns="http://www.w3.org/2000/svg" xmlns:xlink="http://www.w3.org/1999/xlink">
    <title>underline-line</title>
    <path d="M18,28.17c5.08,0,8.48-3.08,8.48-9V8.54a1.15,1.15,0,1,0-2.3,0v10.8c0,4.44-2.38,6.71-6.13,6.71s-6.21-2.47-6.21-6.85V8.54a1.15,1.15,0,1,0-2.3,0v10.8C9.53,25.09,13,28.17,18,28.17Z" class="clr-i-outline clr-i-outline-path-1"></path><path d="M31,30H5a1.11,1.11,0,0,0,0,2.21H31A1.11,1.11,0,0,0,31,30Z" class="clr-i-outline clr-i-outline-path-2"></path>
    <rect x="0" y="0" width="36" height="36" fill-opacity="0"/>
</svg>