<svg version="1.1" width="36" height="36"  viewBox="0 0 36 36" preserveAspectRatio="xMidYMid meet" xmlns="http://www.w3.org/2000/svg" xmlns:xlink="http://www.w3.org/1999/xlink">
    <title>bubble-exclamation-line</title>
    <path class="clr-i-outline clr-i-outline-path-1" d="M18,2.5c-8.82,0-16,6.28-16,14s7.18,14,16,14a18,18,0,0,0,4.88-.68l5.53,3.52a1,1,0,0,0,1.54-.84l0-6.73a13,13,0,0,0,4-9.27C34,8.78,26.82,2.5,18,2.5ZM28.29,24.61a1,1,0,0,0-.32.73l0,5.34-4.38-2.79a1,1,0,0,0-.83-.11A16,16,0,0,1,18,28.5c-7.72,0-14-5.38-14-12s6.28-12,14-12,14,5.38,14,12A11.08,11.08,0,0,1,28.29,24.61Z"></path><path class="clr-i-outline clr-i-outline-path-2" d="M18,20.63a1,1,0,0,0,1-1V8.48a1,1,0,1,0-2,0V19.61A1,1,0,0,0,18,20.63Z"></path><circle class="clr-i-outline clr-i-outline-path-3" cx="18" cy="24.04" r="1.33"></circle>
    <rect x="0" y="0" width="36" height="36" fill-opacity="0"/>
</svg>