<svg version="1.1" width="36" height="36"  viewBox="0 0 36 36" preserveAspectRatio="xMidYMid meet" xmlns="http://www.w3.org/2000/svg" xmlns:xlink="http://www.w3.org/1999/xlink">
    <title>bug-line</title>
    <circle class="clr-i-outline clr-i-outline-path-1" cx="23.56" cy="17.74" r="1.95"></circle><circle class="clr-i-outline clr-i-outline-path-2" cx="22.42" cy="25.88" r="1.58"></circle><circle class="clr-i-outline clr-i-outline-path-3" cx="12.86" cy="17.74" r="1.95"></circle><circle class="clr-i-outline clr-i-outline-path-4" cx="13.99" cy="25.88" r="1.58"></circle><path class="clr-i-outline clr-i-outline-path-5" d="M30.83,20H29a19.29,19.29,0,0,0-1.18-5.73l1.46-.79a1,1,0,0,0-.95-1.76l-3,1.64A17.65,17.65,0,0,1,27,20.72C27,27,23.8,31.23,18.8,31.62V15H17.2V31.62C12.22,31.21,9,27,9,20.72a17.74,17.74,0,0,1,1.73-7.34L7.7,11.72a1,1,0,0,0-.95,1.76l1.5.8A19.38,19.38,0,0,0,7.07,20H5.17a1,1,0,0,0,0,2H7.1a14.62,14.62,0,0,0,1.66,6.17L6.87,29.49A1,1,0,1,0,8,31.12l1.84-1.29A10.38,10.38,0,0,0,18,33.66a10.38,10.38,0,0,0,8.14-3.81L28,31.12a1,1,0,1,0,1.15-1.64l-1.86-1.3A14.61,14.61,0,0,0,28.94,22h1.89a1,1,0,0,0,0-2Z"></path><path class="clr-i-outline clr-i-outline-path-6" d="M11.51,5.36a1.67,1.67,0,0,0,1.07-.51A3.21,3.21,0,0,1,13.76,6a16.38,16.38,0,0,0-2.65,2.89,2,2,0,0,0,1.61,3.19H23.32A2,2,0,0,0,25.1,11a2,2,0,0,0-.17-2.1A16.34,16.34,0,0,0,22.25,6a3.21,3.21,0,0,1,1.17-1.11A1.68,1.68,0,1,0,23,3.27,4.77,4.77,0,0,0,21,5a5.81,5.81,0,0,0-2.93-1,5.83,5.83,0,0,0-3,1A4.77,4.77,0,0,0,13,3.27a1.68,1.68,0,1,0-1.49,2.09ZM18,6.07c1.45,0,3.53,1.57,5.31,4h0l-10.6,0C14.49,7.63,16.56,6.07,18,6.07Z"></path>
    <rect x="0" y="0" width="36" height="36" fill-opacity="0"/>
</svg>