<svg version="1.1" width="36" height="36"  viewBox="0 0 36 36" preserveAspectRatio="xMidYMid meet" xmlns="http://www.w3.org/2000/svg" xmlns:xlink="http://www.w3.org/1999/xlink">
    <title>bullseye-solid</title>
    <path d="M19,18.85a1,1,0,0,1-1.41,0l-3-3A4,4,0,0,0,13.91,18,4.09,4.09,0,1,0,18,13.91a4,4,0,0,0-2,.55l3,3A1,1,0,0,1,19,18.85Z" class="clr-i-solid clr-i-solid-path-1"></path><path d="M18,2a15.92,15.92,0,0,0-4.25.59l1.6,3.89A11.89,11.89,0,1,1,6.49,15.3L2.61,13.68A16,16,0,1,0,18,2Z" class="clr-i-solid clr-i-solid-path-2"></path><path d="M8,15.94A10.17,10.17,0,1,0,16,8l1.69,4.11.31,0A5.88,5.88,0,1,1,12.12,18c0-.12,0-.23,0-.35Z" class="clr-i-solid clr-i-solid-path-3"></path><path d="M8.2,13.34a.5.5,0,0,0,.35.15H12.2l2.35,2.35A4.09,4.09,0,0,1,16,14.46L13.53,12V8.51a.5.5,0,0,0-.15-.35L7.79,2.57a.5.5,0,0,0-.85.35v4H3a.5.5,0,0,0-.35.85Z" class="clr-i-solid clr-i-solid-path-4"></path>
    <rect x="0" y="0" width="36" height="36" fill-opacity="0"/>
</svg>