<svg version="1.1" width="36" height="36"  viewBox="0 0 36 36" preserveAspectRatio="xMidYMid meet" xmlns="http://www.w3.org/2000/svg" xmlns:xlink="http://www.w3.org/1999/xlink">
    <title>list-solid</title>
    <path d="M28,2H8A2,2,0,0,0,6,4V32a2,2,0,0,0,2,2H28a2,2,0,0,0,2-2V4A2,2,0,0,0,28,2ZM13,26H11V24h2Zm0-4H11V20h2Zm0-4H11V16h2Zm0-4H11V12h2Zm0-4H11V8h2ZM25,26H15V24H25Zm0-4H15V20H25Zm0-4H15V16H25Zm0-4H15V12H25Zm0-4H15V8H25Z" class="clr-i-solid clr-i-solid-path-1"></path>
    <rect x="0" y="0" width="36" height="36" fill-opacity="0"/>
</svg>