<svg version="1.1" width="36" height="36"  viewBox="0 0 36 36" preserveAspectRatio="xMidYMid meet" xmlns="http://www.w3.org/2000/svg" xmlns:xlink="http://www.w3.org/1999/xlink">
    <title>printer-line</title>
    <path d="M29,9H27V5H9V9H7a4,4,0,0,0-4,4V24H6.92V22.09H5V13a2,2,0,0,1,2-2H29a2,2,0,0,1,2,2v9H29.08V24H33V13A4,4,0,0,0,29,9ZM25,9H11V7H25Z" class="clr-i-outline clr-i-outline-path-1"></path><path d="M28,18H8a1,1,0,0,0,0,2H9V32H27V20h1a1,1,0,0,0,0-2ZM25,30H11V20H25Z" class="clr-i-outline clr-i-outline-path-2"></path><rect x="27" y="13.04" width="2" height="2" class="clr-i-outline clr-i-outline-path-3"></rect>
    <rect x="0" y="0" width="36" height="36" fill-opacity="0"/>
</svg>