<svg version="1.1" width="36" height="36"  viewBox="0 0 36 36" preserveAspectRatio="xMidYMid meet" xmlns="http://www.w3.org/2000/svg" xmlns:xlink="http://www.w3.org/1999/xlink">
    <title>remove-line</title>
    <path class="clr-i-outline clr-i-outline-path-1" d="M19.61,18l4.86-4.86a1,1,0,0,0-1.41-1.41L18.2,16.54l-4.89-4.89a1,1,0,0,0-1.41,1.41L16.78,18,12,22.72a1,1,0,1,0,1.41,1.41l4.77-4.77,4.74,4.74a1,1,0,0,0,1.41-1.41Z"></path><path class="clr-i-outline clr-i-outline-path-2" d="M18,34A16,16,0,1,1,34,18,16,16,0,0,1,18,34ZM18,4A14,14,0,1,0,32,18,14,14,0,0,0,18,4Z"></path>
    <rect x="0" y="0" width="36" height="36" fill-opacity="0"/>
</svg>