<svg version="1.1" width="36" height="36"  viewBox="0 0 36 36" preserveAspectRatio="xMidYMid meet" xmlns="http://www.w3.org/2000/svg" xmlns:xlink="http://www.w3.org/1999/xlink">
    <title>shrink-line</title>
    <path class="clr-i-outline clr-i-outline-path-1" d="M32,15H22.41l9.25-9.25a1,1,0,0,0-1.41-1.41L21,13.59V4a1,1,0,0,0-2,0V17H32a1,1,0,0,0,0-2Z"></path><path class="clr-i-outline clr-i-outline-path-2" d="M4,19a1,1,0,0,0,0,2h9.59L4.33,30.25a1,1,0,1,0,1.41,1.41L15,22.41V32a1,1,0,0,0,2,0V19Z"></path>
    <rect x="0" y="0" width="36" height="36" fill-opacity="0"/>
</svg>