<svg version="1.1" width="36" height="36"  viewBox="0 0 36 36" preserveAspectRatio="xMidYMid meet" xmlns="http://www.w3.org/2000/svg" xmlns:xlink="http://www.w3.org/1999/xlink">
    <title>zoom-in-line</title>
    <path d="M16,4A12,12,0,1,0,28,16,12,12,0,0,0,16,4Zm0,21.91A10,10,0,1,1,26,16,10,10,0,0,1,16,25.91Z" class="clr-i-outline clr-i-outline-path-1"></path><path d="M31.71,29.69l-5.17-5.17A13.68,13.68,0,0,1,25.15,26l5.15,5.15a1,1,0,0,0,1.41-1.41Z" class="clr-i-outline clr-i-outline-path-2"></path><path d="M21,15H17V11a1,1,0,0,0-2,0v4H11a1,1,0,0,0,0,2h4v4a1,1,0,0,0,2,0V17h4a1,1,0,0,0,0-2Z" class="clr-i-outline clr-i-outline-path-3"></path>
    <rect x="0" y="0" width="36" height="36" fill-opacity="0"/>
</svg>