<svg version="1.1" width="36" height="36"  viewBox="0 0 36 36" preserveAspectRatio="xMidYMid meet" xmlns="http://www.w3.org/2000/svg" xmlns:xlink="http://www.w3.org/1999/xlink">
    <title>email-outline-alerted</title>
    <path class="clr-i-outline--alerted clr-i-outline-path-1--alerted" d="M33.68,15.26H32V26.71l-7.36-7.36-1.41,1.41L30.46,28H5.66l7-7.24-1.44-1.39L4,26.84V9.52L16.43,21.89a2,2,0,0,0,2.82,0l6.66-6.63H23.08l-5.24,5.21L5.31,8H20.06l1.15-2H4A2,2,0,0,0,2,8V28a2,2,0,0,0,2,2H32a2,2,0,0,0,2-2V15.24Z"></path><path class="clr-i-outline--alerted clr-i-outline-path-2--alerted clr-i-alert" d="M26.85,1l-5.72,9.91a1.28,1.28,0,0,0,1.1,1.91H33.68a1.28,1.28,0,0,0,1.1-1.91L29.06,1A1.28,1.28,0,0,0,26.85,1Z"></path>
    <rect x="0" y="0" width="36" height="36" fill-opacity="0"/>
</svg>