<svg version="1.1" width="36" height="36"  viewBox="0 0 36 36" preserveAspectRatio="xMidYMid meet" xmlns="http://www.w3.org/2000/svg" xmlns:xlink="http://www.w3.org/1999/xlink">
    <title>neutral-face-solid</title>
    <path d="M18,2A16,16,0,1,0,34,18,16,16,0,0,0,18,2Zm7.05,21.06a1,1,0,0,1-1,1h-12a1,1,0,0,1,0-2h12A1,1,0,0,1,25.05,23.06ZM27,14.28a1.8,1.8,0,1,1-1.8-1.8A1.8,1.8,0,0,1,27,14.28Zm-15.8,1.8a1.8,1.8,0,1,1,1.8-1.8A1.8,1.8,0,0,1,11.16,16.08Z" class="clr-i-solid clr-i-solid-path-1"></path>
    <rect x="0" y="0" width="36" height="36" fill-opacity="0"/>
</svg>