<svg version="1.1" width="36" height="36"  viewBox="0 0 36 36" preserveAspectRatio="xMidYMid meet" xmlns="http://www.w3.org/2000/svg" xmlns:xlink="http://www.w3.org/1999/xlink">
    <title>half-star-line</title>
    <path class="clr-i-outline clr-i-outline-path-1" d="M34,16.78a2.22,2.22,0,0,0-1.29-4l-9-.34a.23.23,0,0,1-.2-.15L20.4,3.89a2.22,2.22,0,0,0-4.17,0l-3.1,8.43a.23.23,0,0,1-.2.15l-9,.34a2.22,2.22,0,0,0-1.29,4l7.06,5.55a.22.22,0,0,1,.08.24L7.35,31.21A2.23,2.23,0,0,0,9.49,34a2.22,2.22,0,0,0,1.24-.38l7.46-5a.22.22,0,0,1,.25,0l7.46,5a2.22,2.22,0,0,0,3.38-2.45l-2.45-8.64a.23.23,0,0,1,.08-.24ZM18.33,26.62h0a2.21,2.21,0,0,0-1.24.38L9.62,32a.22.22,0,0,1-.34-.25l2.45-8.64A2.21,2.21,0,0,0,11,20.76L3.9,15.21a.22.22,0,0,1,.13-.4l9-.34A2.22,2.22,0,0,0,15,13l3.1-8.43a.2.2,0,0,1,.21-.15h0Z"></path>
    <rect x="0" y="0" width="36" height="36" fill-opacity="0"/>
</svg>