<svg version="1.1" width="36" height="36"  viewBox="0 0 36 36" preserveAspectRatio="xMidYMid meet" xmlns="http://www.w3.org/2000/svg" xmlns:xlink="http://www.w3.org/1999/xlink">
    <title>neutral-face-line</title>
    <path d="M24.05,22.06h-12a1,1,0,0,0,0,2h12a1,1,0,0,0,0-2Z" class="clr-i-outline clr-i-outline-path-1"></path><path d="M18,2A16,16,0,1,0,34,18,16,16,0,0,0,18,2Zm0,30A14,14,0,1,1,32,18,14,14,0,0,1,18,32Z" class="clr-i-outline clr-i-outline-path-2"></path><circle cx="25.16" cy="14.28" r="1.8" class="clr-i-outline clr-i-outline-path-3"></circle><circle cx="11.16" cy="14.28" r="1.8" class="clr-i-outline clr-i-outline-path-4"></circle>
    <rect x="0" y="0" width="36" height="36" fill-opacity="0"/>
</svg>