<svg version="1.1" width="36" height="36"  viewBox="0 0 36 36" preserveAspectRatio="xMidYMid meet" xmlns="http://www.w3.org/2000/svg" xmlns:xlink="http://www.w3.org/1999/xlink">
    <title>sad-face-line</title>
    <path d="M18,2A16,16,0,1,0,34,18,16,16,0,0,0,18,2Zm0,30A14,14,0,1,1,32,18,14,14,0,0,1,18,32Z" class="clr-i-outline clr-i-outline-path-1"></path><circle cx="25.16" cy="14.28" r="1.8" class="clr-i-outline clr-i-outline-path-2"></circle><circle cx="11.41" cy="14.28" r="1.8" class="clr-i-outline clr-i-outline-path-3"></circle><path d="M18.16,20a9,9,0,0,0-7.33,3.78,1,1,0,1,0,1.63,1.16,7,7,0,0,1,11.31-.13,1,1,0,0,0,1.6-1.2A9,9,0,0,0,18.16,20Z" class="clr-i-outline clr-i-outline-path-4"></path>
    <rect x="0" y="0" width="36" height="36" fill-opacity="0"/>
</svg>