<svg width="855" height="303" xmlns="http://www.w3.org/2000/svg"><g fill="none" fill-rule="evenodd"><path d="M56 73.5h219" stroke="#DDD" stroke-width="2" stroke-linecap="square"/><path d="M57 73h601" stroke="#9B9B9B" stroke-width="2" stroke-linecap="square"/><text font-family="Metropolis-Medium, Metropolis" font-size="13" font-weight="400" fill="#000"><tspan x="647" y="109">Connected</tspan></text><g transform="translate(645 54)"><circle fill="#FFF" cx="18" cy="18" r="16"/><path d="M18 32c-7.732 0-14-6.268-14-14S10.268 4 18 4s14 6.268 14 14-6.268 14-14 14m0-30C9.164 2 2 9.164 2 18s7.164 16 16 16 16-7.164 16-16S26.836 2 18 2" fill="#747474"/></g><text font-family="Metropolis-Medium, Metropolis" font-size="13" font-weight="400" fill="#000"><tspan x="439" y="109">Make KMS trust vCenter</tspan></text><g transform="translate(439 54)"><circle fill="#FFF" cx="18" cy="18" r="16"/><path d="M18 32c-7.732 0-14-6.268-14-14S10.268 4 18 4s14 6.268 14 14-6.268 14-14 14m0-30C9.164 2 2 9.164 2 18s7.164 16 16 16 16-7.164 16-16S26.836 2 18 2" fill="#007CBB"/><circle fill="#007CBB" cx="18" cy="18" r="8"/></g><text font-family="Metropolis-Medium, Metropolis" font-size="13" font-weight="400" fill="#000"><tspan x="233" y="109">Make vCenter trust KMS</tspan></text><g transform="translate(233 54)"><circle fill="#FFF" cx="18" cy="18" r="16"/><path d="M18 32c-7.732 0-14-6.268-14-14S10.268 4 18 4s14 6.268 14 14-6.268 14-14 14m0-30C9.164 2 2 9.164 2 18s7.164 16 16 16 16-7.164 16-16S26.836 2 18 2" fill="#60B515"/><path d="M28 12.06a1 1 0 0 0-1.41 0l-11.1 11.05-6-6a1.017 1.017 0 0 0-1.436-.055A1.019 1.019 0 0 0 8 18.49l7.45 7.45L28 13.47a1 1 0 0 0 0-1.41" fill="#60B515"/></g><text font-family="Metropolis-Medium, Metropolis" font-size="13" font-weight="400" fill="#000"><tspan x="28" y="109">Add KMS</tspan></text><g transform="translate(25 54)"><circle fill="#FFF" cx="18" cy="18" r="16"/><path d="M18 32c-7.732 0-14-6.268-14-14S10.268 4 18 4s14 6.268 14 14-6.268 14-14 14m0-30C9.164 2 2 9.164 2 18s7.164 16 16 16 16-7.164 16-16S26.836 2 18 2" fill="#60B515"/><path d="M28 12.06a1 1 0 0 0-1.41 0l-11.1 11.05-6-6a1.017 1.017 0 0 0-1.436-.055A1.019 1.019 0 0 0 8 18.49l7.45 7.45L28 13.47a1 1 0 0 0 0-1.41" fill="#60B515"/></g><text font-family="Metropolis-Regular, Metropolis" font-size="11" fill="#565656"><tspan x="441" y="162">Root CA certificate requested. </tspan> <tspan x="441" y="178">Upload it to the KMS to complete </tspan> <tspan x="441" y="194">the connection. </tspan></text><text transform="translate(441 244)" fill="#007CBB" font-family="Metropolis-SemiBold, Metropolis" font-size="11" font-weight="500" letter-spacing="1"><tspan x="11.885" y="11">ACTIO</tspan> <tspan x="51.623" y="11">N</tspan></text><rect x=".5" y=".5" width="71" height="23" rx="3" stroke="#007CBB" transform="translate(441 209)"/><text transform="translate(453 214)" fill="#007CBB" font-family="Metropolis-SemiBold, Metropolis" font-size="11" font-weight="500" letter-spacing="1"><tspan x="-.115" y="11">ACTIO</tspan> <tspan x="39.623" y="11">N</tspan></text><text font-family="Metropolis-Medium, Metropolis" font-size="13" font-weight="400" fill="#737373"><tspan x="439.438" y="134">Three days ago</tspan></text></g></svg>
