<svg width="601" height="253" xmlns="http://www.w3.org/2000/svg" xmlns:xlink="http://www.w3.org/1999/xlink"><defs><rect id="a" width="112" height="24" rx="3"/></defs><g fill="none" fill-rule="evenodd"><text font-family="Metropolis-Regular, Metropolis" font-size="13" fill="#565656" transform="translate(-24 55)"><tspan x="369" y="92">Upload in </tspan> <tspan x="369" y="108">progress</tspan></text><g transform="translate(345 181)"><use fill="#CCC" opacity=".4" xlink:href="#a"/><text opacity=".4" font-family="Metropolis-SemiBold, Metropolis" font-size="11" font-weight="500" letter-spacing="1" fill="#565656"><tspan x="30.122" y="16">UPLOAD</tspan></text></g><text transform="translate(357 186)" fill="#565656" font-family="Metropolis-SemiBold, Metropolis" font-size="11" font-weight="500" letter-spacing="1" opacity=".6"><tspan x="18.242" y="11">UPLOAD</tspan></text><path d="M52 76.593h151M206 76.593h151M377 76.593h151" stroke="#9B9B9B" stroke-linecap="square" stroke-width="2"/><text font-family="Metropolis-Medium, Metropolis" font-size="13" font-weight="400" fill="#565656"><tspan x="515" y="111">Step four</tspan></text><g transform="translate(515 59)"><circle fill="#FFF" cx="18" cy="18" r="16"/><path d="M18 32c-7.732 0-14-6.268-14-14S10.268 4 18 4s14 6.268 14 14-6.268 14-14 14m0-30C9.164 2 2 9.164 2 18s7.164 16 16 16 16-7.164 16-16S26.836 2 18 2" fill="#747474"/></g><text font-family="Metropolis-Medium, Metropolis" font-size="13" font-weight="400" fill="#565656"><tspan x="345" y="111">Step three</tspan></text><g transform="translate(345 59)"><circle fill="#FFF" cx="18" cy="18" r="18"/><g stroke-width="2.8"><path d="M32.874 18.123c0 8.147-6.604 14.751-14.751 14.751-8.147 0-14.751-6.604-14.751-14.751 0-8.147 6.604-14.751 14.751-14.751 8.147 0 14.751 6.604 14.751 14.751z" stroke="#000" opacity=".15"/><path d="M8.433 29.243C2.292 23.89 1.653 14.573 7.005 8.43a14.751 14.751 0 0 1 11.118-5.059" stroke="#007CBB"/></g></g><text font-family="Metropolis-Medium, Metropolis" font-size="13" font-weight="400" fill="#565656"><tspan x="192" y="111">Step two</tspan></text><g transform="translate(187 59)"><circle fill="#FFF" cx="18" cy="18" r="16"/><path d="M18 32c-7.732 0-14-6.268-14-14S10.268 4 18 4s14 6.268 14 14-6.268 14-14 14m0-30C9.164 2 2 9.164 2 18s7.164 16 16 16 16-7.164 16-16S26.836 2 18 2" fill="#60B515"/><path d="M28 12.06a1 1 0 0 0-1.41 0l-11.1 11.05-6-6a1.017 1.017 0 0 0-1.436-.055A1.019 1.019 0 0 0 8 18.49l7.45 7.45L28 13.47a1 1 0 0 0 0-1.41" fill="#60B515"/></g><text font-family="Metropolis-Medium, Metropolis" font-size="13" font-weight="400" fill="#565656"><tspan x="26" y="111">Step one</tspan></text><g transform="translate(26 59)"><circle fill="#FFF" cx="18" cy="18" r="16"/><path d="M18 32c-7.732 0-14-6.268-14-14S10.268 4 18 4s14 6.268 14 14-6.268 14-14 14m0-30C9.164 2 2 9.164 2 18s7.164 16 16 16 16-7.164 16-16S26.836 2 18 2" fill="#60B515"/><path d="M28 12.06a1 1 0 0 0-1.41 0l-11.1 11.05-6-6a1.017 1.017 0 0 0-1.436-.055A1.019 1.019 0 0 0 8 18.49l7.45 7.45L28 13.47a1 1 0 0 0 0-1.41" fill="#60B515"/></g></g></svg>
