<svg version="1.1" width="36" height="36"  viewBox="0 0 36 36" preserveAspectRatio="xMidYMid meet" xmlns="http://www.w3.org/2000/svg" xmlns:xlink="http://www.w3.org/1999/xlink">
    <title>box-plot-line</title>
    <path class="clr-i-outline clr-i-outline-path-1" d="M32,5H4A2,2,0,0,0,2,7V29a2,2,0,0,0,2,2H32a2,2,0,0,0,2-2V7A2,2,0,0,0,32,5ZM4,29V7H32V29Z"></path><path d="M 7 12 L 17 12 L 17 26 L 7 26 L 7 12 Z M 8.6 24.4 L 15.4 24.4 L 15.4 18.8 L 8.6 18.8 L 8.6 24.4 Z M 15.4 13.6 L 8.6 13.6 L 8.6 17.2 L 15.4 17.2 L 15.4 13.6 Z" class="clr-i-outline clr-i-outline-path-2"></path><path d="M 19 24 L 29 24 L 29 10 L 19 10 L 19 24 Z M 20.6 11.6 L 27.4 11.6 L 27.4 17.2 L 20.6 17.2 L 20.6 11.6 Z M 27.4 22.4 L 20.6 22.4 L 20.6 18.8 L 27.4 18.8 L 27.4 22.4 Z" class="clr-i-outline clr-i-outline-path-3"></path>
    <rect x="0" y="0" width="36" height="36" fill-opacity="0"/>
</svg>