<svg version="1.1" width="36" height="36"  viewBox="0 0 36 36" preserveAspectRatio="xMidYMid meet" xmlns="http://www.w3.org/2000/svg" xmlns:xlink="http://www.w3.org/1999/xlink">
    <title>scatter-plot-outline-alerted</title>
    <path class="clr-i-outline--alerted clr-i-outline-path-1--alerted" d="M 34 29 C 34 30.105 33.105 31 32 31 L 4 31 C 2.895 31 2 30.105 2 29 L 2 7 C 2 5.895 2.895 5 4 5 L 21.958 5 L 20.786 7 L 4 7 L 4 29 L 32 29 L 32 15.357 L 34 15.357 Z"></path><path class="clr-i-outline--alerted clr-i-outline-path-2--alerted" d="M 9.101 15.8 C 9.413 16.111 9.919 16.111 10.231 15.8 L 11.391 14.64 L 12.551 15.8 C 12.964 16.256 13.717 16.094 13.905 15.507 C 14.002 15.208 13.914 14.881 13.681 14.67 L 12.531 13.54 L 13.691 12.38 C 14.147 11.966 13.985 11.214 13.399 11.025 C 13.1 10.929 12.772 11.017 12.561 11.25 L 11.401 12.41 L 10.231 11.22 C 9.817 10.763 9.065 10.926 8.877 11.512 C 8.78 11.811 8.868 12.139 9.101 12.35 L 10.261 13.54 L 9.101 14.67 C 8.789 14.982 8.789 15.487 9.101 15.8 Z"></path><path class="clr-i-outline--alerted clr-i-outline-path-3--alerted" d="M 15.176 25.536 C 15.488 25.847 15.994 25.847 16.306 25.536 L 17.466 24.376 L 18.626 25.536 C 19.039 25.992 19.792 25.83 19.98 25.243 C 20.077 24.944 19.989 24.617 19.756 24.406 L 18.606 23.276 L 19.766 22.116 C 20.222 21.702 20.06 20.95 19.474 20.761 C 19.175 20.665 18.847 20.753 18.636 20.986 L 17.476 22.146 L 16.306 20.956 C 15.892 20.499 15.14 20.662 14.952 21.248 C 14.855 21.547 14.943 21.875 15.176 22.086 L 16.336 23.276 L 15.176 24.406 C 14.864 24.718 14.864 25.223 15.176 25.536 Z"></path><path class="clr-i-outline--alerted clr-i-outline-path-4--alerted" d="M 22.912 20.343 C 23.224 20.654 23.73 20.654 24.042 20.343 L 25.202 19.183 L 26.362 20.343 C 26.775 20.799 27.528 20.637 27.716 20.05 C 27.813 19.751 27.725 19.424 27.492 19.213 L 26.342 18.083 L 27.502 16.923 C 27.958 16.509 27.796 15.757 27.21 15.568 C 26.911 15.472 26.583 15.56 26.372 15.793 L 25.212 16.953 L 24.042 15.763 C 23.628 15.306 22.876 15.469 22.688 16.055 C 22.591 16.354 22.679 16.682 22.912 16.893 L 24.072 18.083 L 22.912 19.213 C 22.6 19.525 22.6 20.03 22.912 20.343 Z"></path><path class="clr-i-outline--alerted clr-i-outline-path-5--alerted clr-i-alert" d="M 26.854 1.144 L 21.134 11.004 C 20.579 11.818 21.114 12.928 22.097 13.001 C 22.142 13.005 22.188 13.006 22.234 13.004 L 33.684 13.004 C 34.669 13.036 35.319 11.991 34.855 11.122 C 34.834 11.081 34.81 11.042 34.784 11.004 L 29.064 1.144 C 28.57 0.299 27.348 0.299 26.854 1.144 Z"></path>
    <rect x="0" y="0" width="36" height="36" fill-opacity="0"/>
</svg>