<svg version="1.1" width="36" height="36"  viewBox="0 0 36 36" preserveAspectRatio="xMidYMid meet" xmlns="http://www.w3.org/2000/svg" xmlns:xlink="http://www.w3.org/1999/xlink">
    <title>avatar-solid-alerted</title>
    <path d="M30.61,24.52a17.16,17.16,0,0,0-25.22,0,1.51,1.51,0,0,0-.39,1v6A1.5,1.5,0,0,0,6.5,33h23A1.5,1.5,0,0,0,31,31.5v-6A1.51,1.51,0,0,0,30.61,24.52Z" class="clr-i-solid--alerted clr-i-solid-path-1--alerted"></path><path d="M18,17a7,7,0,0,0,4.45-1.6h-.22A3.68,3.68,0,0,1,19,9.89l3.16-5.47A7,7,0,1,0,18,17Z" class="clr-i-solid--alerted clr-i-solid-path-2--alerted"></path><path d="M26.85,1.14,21.13,11A1.28,1.28,0,0,0,22.23,13H33.68A1.28,1.28,0,0,0,34.78,11L29.06,1.14A1.28,1.28,0,0,0,26.85,1.14Z" class="clr-i-solid--alerted clr-i-solid-path-3--alerted clr-i-alert"></path>
    <rect x="0" y="0" width="36" height="36" fill-opacity="0"/>
</svg>