<svg version="1.1" width="36" height="36"  viewBox="0 0 36 36" preserveAspectRatio="xMidYMid meet" xmlns="http://www.w3.org/2000/svg" xmlns:xlink="http://www.w3.org/1999/xlink">
    <title>filter-grid-line</title>
    <path class="clr-i-outline clr-i-outline-path-1" d="M15,25.86l2,1V20.27a1,1,0,0,0-.29-.7L10.23,13H25.79l-6.47,6.57a1,1,0,0,0-.29.7L19,28l2,1V20.68L27.58,14A1.46,1.46,0,0,0,28,13V12a1,1,0,0,0-1-1H9a1,1,0,0,0-1,1v1a1.46,1.46,0,0,0,.42,1L15,20.68Z"></path>
    <rect x="0" y="0" width="36" height="36" fill-opacity="0"/>
</svg>