<svg version="1.1" width="36" height="36"  viewBox="0 0 36 36" preserveAspectRatio="xMidYMid meet" xmlns="http://www.w3.org/2000/svg" xmlns:xlink="http://www.w3.org/1999/xlink">
    <title>step-forward-2-line</title>
    <path d="M7.08,6.52a1.68,1.68,0,0,0,0,2.4L16.51,18,7.12,27.08a1.7,1.7,0,0,0,2.36,2.44h0L21.4,18,9.48,6.47A1.69,1.69,0,0,0,7.08,6.52Z" class="clr-i-outline clr-i-outline-path-1"></path><path d="M26.49,5a1.7,1.7,0,0,0-1.7,1.7V29.3a1.7,1.7,0,0,0,3.4,0V6.7A1.7,1.7,0,0,0,26.49,5Z" class="clr-i-outline clr-i-outline-path-2"></path>
    <rect x="0" y="0" width="36" height="36" fill-opacity="0"/>
</svg>