<svg version="1.1" width="36" height="36"  viewBox="0 0 36 36" preserveAspectRatio="xMidYMid meet" xmlns="http://www.w3.org/2000/svg" xmlns:xlink="http://www.w3.org/1999/xlink">
    <title>bar-chart-solid</title>
    <path class="clr-i-solid clr-i-solid-path-1" d="M 34 7 L 34 29 C 34 30.105 33.105 31 32 31 L 4 31 C 2.895 31 2 30.105 2 29 L 2 7 C 2 5.895 2.895 5 4 5 L 32 5 C 33.105 5 34 5.895 34 7 Z M 7 26 L 13 26 L 13 10 L 7 10 Z M 15 26 L 21 26 L 21 19 L 15 19 Z M 23 26 L 29 26 L 29 16 L 23 16 Z"></path>
    <rect x="0" y="0" width="36" height="36" fill-opacity="0"/>
</svg>