<svg version="1.1" width="36" height="36"  viewBox="0 0 36 36" preserveAspectRatio="xMidYMid meet" xmlns="http://www.w3.org/2000/svg" xmlns:xlink="http://www.w3.org/1999/xlink">
    <title>bubble-chart-solid</title>
    <path class="clr-i-solid clr-i-solid-path-1" d="M 34 7 L 34 29 C 34 30.105 33.105 31 32 31 L 4 31 C 2.896 31 2 30.105 2 29 L 2 7 C 2 5.896 2.896 5 4 5 L 32 5 C 33.105 5 34 5.896 34 7 Z M 11 10 C 8.791 10 7 11.791 7 14 C 7 16.209 8.791 18 11 18 C 13.209 18 15 16.209 15 14 C 15 11.791 13.209 10 11 10 Z M 26 15 C 24.343 15 23 16.343 23 18 C 23 19.657 24.343 21 26 21 C 27.657 21 29 19.657 29 18 C 29 16.343 27.657 15 26 15 Z M 18 20 C 16.343 20 15 21.343 15 23 C 15 24.657 16.343 26 18 26 C 19.657 26 21 24.657 21 23 C 21 21.343 19.657 20 18 20 Z"></path>
    <rect x="0" y="0" width="36" height="36" fill-opacity="0"/>
</svg>