<!--
  ~ Copyright (c) 2016-2017 VMWare, Inc. All Rights Reserved.
  ~ This software is released under MIT License.
  ~ The full license information can be found in LICENSE in the root directory of this project.
  -->

<svg xmlns="http://www.w3.org/2000/svg" xmlns:xlink="http://www.w3.org/1999/xlink" viewBox="0 0 264 192"><defs><clipPath id="173433bf-ad8c-415e-9dab-6d7973d4e3cb"><path d="M-231.36,116.5h-12.36a8.34,8.34,0,0,0-8.31,8.31v24.92a8.34,8.34,0,0,0,8.31,8.31h4.15V170.5L-227.11,158h20.77a8.34,8.34,0,0,0,8.31-8.31v-7.56a4.58,4.58,0,0,1-.83.08" fill="none" clip-rule="evenodd"/></clipPath></defs><title>Row1 Box R</title><g id="e315e14e-3c23-4d66-8b44-fcda997ecd51" data-name="Layer 1"><rect width="264" height="192" fill="#eee"/></g><g id="6c610d40-389e-4c93-a200-25280e0ebfd5" data-name="Layer 2"><rect x="12.5" y="12.5" width="239" height="167" fill="#fff"/><path d="M251,13V179H13V13H251m1-1H12V180H252V12Z" fill="#737373"/><rect x="13" y="31" width="59" height="148" fill="#dbdbdb"/><rect x="13" y="13" width="238" height="18" fill="#485969"/><rect x="21" y="19" width="48" height="6" fill="#a0b5c9"/><circle cx="241" cy="21" r="4" fill="#a0b5c9"/><rect x="21" y="38" width="44" height="4" fill="#b2b2b2"/><rect x="80" y="38" width="37" height="6" fill="#ccc"/><rect x="21" y="49" width="44" height="4" fill="#b2b2b2"/><rect x="21" y="60" width="44" height="4" fill="#b2b2b2"/><rect x="21" y="71" width="44" height="4" fill="#b2b2b2"/><rect x="21" y="82" width="44" height="4" fill="#b2b2b2"/><rect x="21" y="93" width="44" height="4" fill="#b2b2b2"/><rect x="21" y="104" width="44" height="4" fill="#b2b2b2"/><rect x="72" y="31" width="1" height="148" fill="#8f9ba3"/><path d="M81.59,59.5H241.41a2.09,2.09,0,0,1,2.09,2.09V71.5a0,0,0,0,1,0,0H79.5a0,0,0,0,1,0,0V61.59a2.09,2.09,0,0,1,2.09-2.09Z" fill="#f7f7f7" stroke="#ccc" stroke-miterlimit="10"/><rect x="88" y="65" width="41" height="3" fill="#ccc"/><rect x="151" y="65" width="23" height="3" fill="#ccc"/><rect x="208" y="65" width="23" height="3" fill="#ccc"/><rect x="79.5" y="71.5" width="164" height="12" fill="#fff" stroke="#ccc" stroke-miterlimit="10"/><rect x="88" y="76" width="41" height="3" fill="#ccc"/><rect x="151" y="76" width="23" height="3" fill="#ccc"/><rect x="208" y="76" width="23" height="3" fill="#ccc"/><rect x="79.5" y="83.5" width="164" height="12" fill="#fff" stroke="#ccc" stroke-miterlimit="10"/><rect x="88" y="88" width="41" height="3" fill="#ccc"/><rect x="151" y="88" width="23" height="3" fill="#ccc"/><rect x="208" y="88" width="23" height="3" fill="#ccc"/><rect x="79.5" y="95.5" width="164" height="12" fill="#fff" stroke="#ccc" stroke-miterlimit="10"/><rect x="88" y="100" width="41" height="3" fill="#ccc"/><rect x="151" y="100" width="23" height="3" fill="#ccc"/><rect x="208" y="100" width="23" height="3" fill="#ccc"/><rect x="79.5" y="107.5" width="164" height="12" fill="#fff" stroke="#ccc" stroke-miterlimit="10"/><rect x="88" y="112" width="41" height="3" fill="#ccc"/><rect x="151" y="112" width="23" height="3" fill="#ccc"/><rect x="208" y="112" width="23" height="3" fill="#ccc"/><rect x="79.5" y="119.5" width="164" height="12" fill="#fff" stroke="#ccc" stroke-miterlimit="10"/><rect x="88" y="124" width="41" height="3" fill="#ccc"/><rect x="151" y="124" width="23" height="3" fill="#ccc"/><rect x="208" y="124" width="23" height="3" fill="#ccc"/><rect x="79.5" y="131.5" width="164" height="12" fill="#fff" stroke="#ccc" stroke-miterlimit="10"/><rect x="88" y="136" width="41" height="3" fill="#ccc"/><rect x="151" y="136" width="23" height="3" fill="#ccc"/><rect x="208" y="136" width="23" height="3" fill="#ccc"/><path d="M79.5,143.5h164a0,0,0,0,1,0,0v9.91a2.09,2.09,0,0,1-2.09,2.09H81.59a2.09,2.09,0,0,1-2.09-2.09V143.5A0,0,0,0,1,79.5,143.5Z" fill="#f7f7f7" stroke="#ccc" stroke-miterlimit="10"/></g></svg>