<!--
  ~ Copyright (c) 2016-2017 VMWare, Inc. All Rights Reserved.
  ~ This software is released under MIT License.
  ~ The full license information can be found in LICENSE in the root directory of this project.
  -->

<svg id="4e7fa416-f643-43b8-a027-9b76231dc65f" data-name="Layer 1" xmlns="http://www.w3.org/2000/svg" viewBox="0 0 264 192"><title>Row1 box C</title><rect width="264" height="192" fill="#eee"/><path d="M94,71.55c7.17,0,15.7-3.69,17.81-11.38V51.84a62,62,0,0,0-16.44-2.21c-8.11,0-15,4.64-15,11.17C80.36,67.54,86.26,71.55,94,71.55Zm3.59-50c14.85,0,22.12,9.38,22.12,22.55V77.24h-7.9V68.7c-3.9,6.43-12,9.8-19.18,9.8-11.48,0-19.91-6.64-19.91-17.38S82.36,43,94.06,43a59.49,59.49,0,0,1,17.7,3.06v-2c0-7.38-3-15.81-14.75-15.81-5.48,0-11,2.43-15.91,5l-3.16-6.43C85.74,22.87,92.27,21.5,97.54,21.5Z" fill="#313131" fill-rule="evenodd"/><path d="M195.62,69.49a1.79,1.79,0,0,0-.58,1.32v9.61l-7.88-5a1.8,1.8,0,0,0-1.5-.2,28.89,28.89,0,0,1-8.56,1.3c-13.9,0-25.2-9.69-25.2-21.62s11.3-21.61,25.2-21.61S202.29,43,202.29,54.88A20,20,0,0,1,195.62,69.49ZM177.1,29.67c-15.88,0-28.8,11.31-28.8,25.21S161.22,80.1,177.1,80.1a32.21,32.21,0,0,0,8.78-1.23l10,6.34a1.79,1.79,0,0,0,1.84.07,1.81,1.81,0,0,0,.93-1.58V71.58a23.42,23.42,0,0,0,7.2-16.7C205.89,41,193,29.67,177.1,29.67Z" fill="#313131"/><path d="M177.47,62.17a1.73,1.73,0,0,0,1.67-1.78V40.61a1.67,1.67,0,1,0-3.34,0V60.36a1.84,1.84,0,0,0,.48,1.27A1.62,1.62,0,0,0,177.47,62.17Z" fill="#313131"/><circle cx="177.47" cy="68.83" r="2.5" fill="#313131"/><path d="M56.93,175.12V160.54H54.28a9.82,9.82,0,0,1-9.81-9.81V125.81A9.82,9.82,0,0,1,54.28,116H73v3H54.28a6.81,6.81,0,0,0-6.81,6.81v24.92a6.82,6.82,0,0,0,6.81,6.81h5.65v10.34l10.34-10.34H91.66a6.82,6.82,0,0,0,6.81-6.81v-7.56h3v7.56a9.82,9.82,0,0,1-9.81,9.81H71.51Z" fill="#313131"/><path d="M121,154.12l-14.59-14.58H84a7.51,7.51,0,0,1-7.5-7.5V104.81A9.82,9.82,0,0,1,86.28,95h37.38a9.82,9.82,0,0,1,9.81,9.81v24.92a9.82,9.82,0,0,1-9.81,9.81H121ZM86.28,98a6.81,6.81,0,0,0-6.81,6.81V132a4.51,4.51,0,0,0,4.5,4.5h23.7L118,146.88V136.54h5.65a6.82,6.82,0,0,0,6.81-6.81V104.81A6.81,6.81,0,0,0,123.66,98Z" fill="#313131"/><path d="M194.56,127.57a14.08,14.08,0,0,1-5.63,2.35q-3.48.74-7.29,1.2c-2.55.31-5.11.67-7.7,1.07a28.27,28.27,0,0,0-7,1.94,12.74,12.74,0,0,0-5,3.82,10.64,10.64,0,0,0-1.94,6.76,9.23,9.23,0,0,0,1.14,4.75,9.36,9.36,0,0,0,2.94,3.15,12.51,12.51,0,0,0,4.22,1.74,23.14,23.14,0,0,0,5.08.53,26.85,26.85,0,0,0,9.64-1.54,20.1,20.1,0,0,0,6.56-3.88,15.27,15.27,0,0,0,3.75-5.08,13,13,0,0,0,1.21-5.16ZM213,163.05q-2.94,1.74-8.17,1.74a9.74,9.74,0,0,1-7-2.48q-2.61-2.48-2.61-8.1a27.24,27.24,0,0,1-10.91,8.1A37.68,37.68,0,0,1,162,163.72a20.68,20.68,0,0,1-7.3-3.35,16,16,0,0,1-4.88-6,20,20,0,0,1-1.81-8.91,20.34,20.34,0,0,1,2-9.64,17.65,17.65,0,0,1,5.29-6.09,24.09,24.09,0,0,1,7.49-3.54,86.21,86.21,0,0,1,8.64-2q4.68-.95,8.9-1.41a49.29,49.29,0,0,0,7.43-1.34,12.35,12.35,0,0,0,5.09-2.54,6.21,6.21,0,0,0,1.87-4.89,11.32,11.32,0,0,0-1.41-6,9.55,9.55,0,0,0-3.61-3.48,14.78,14.78,0,0,0-4.95-1.61,37.12,37.12,0,0,0-5.42-.4,24.16,24.16,0,0,0-12.05,2.74Q162.42,108,162,115.66H150.65a24.67,24.67,0,0,1,2.67-10.84,20.31,20.31,0,0,1,6.43-7.17,27.07,27.07,0,0,1,9.17-4,48.65,48.65,0,0,1,11-1.2,64.28,64.28,0,0,1,9.31.67,24.48,24.48,0,0,1,8.37,2.74,16.18,16.18,0,0,1,6,5.83,18.59,18.59,0,0,1,2.28,9.77v35.61a26.88,26.88,0,0,0,.46,5.89c.32,1.25,1.37,1.87,3.15,1.87a11.17,11.17,0,0,0,3.48-.67Z" fill="#313131" fill-rule="evenodd"/></svg>