<!--
  ~ Copyright (c) 2016-2017 VMWare, Inc. All Rights Reserved.
  ~ This software is released under MIT License.
  ~ The full license information can be found in LICENSE in the root directory of this project.
  -->

<svg id="ceb58a7f-8f7e-47b7-a68e-f1bda948f733" data-name="Layer 1" xmlns="http://www.w3.org/2000/svg" xmlns:xlink="http://www.w3.org/1999/xlink" viewBox="0 0 408 136"><defs><clipPath id="080ddd38-1825-4a00-91be-cc3b99d55230"><path d="M393.64-1384.5H381.28a8.34,8.34,0,0,0-8.31,8.31v24.92a8.34,8.34,0,0,0,8.31,8.31h4.15v12.46L397.89-1343h20.77a8.34,8.34,0,0,0,8.31-8.31v-7.56a4.58,4.58,0,0,1-.83.08" fill="none" clip-rule="evenodd"/></clipPath></defs><title>Row6 Box R</title><polygon points="399 136 408 127 396 116 408 104 396 93 408 81 396 70 408 58 396 47 408 35 396 24 408 12 396 1 397 0 0 0 0 136 399 136" fill="#9b9b9b" fill-rule="evenodd"/><rect width="358" height="136" fill="#f3ff17"/><path d="M314.83,30.77,316,32a4.64,4.64,0,0,1-3.1,1.18,3.93,3.93,0,0,1-4-4,3.86,3.86,0,0,1,3.88-4c2.37,0,3.74,1.79,3.74,4.61h-5.76a2.13,2.13,0,0,0,2.11,1.79A3,3,0,0,0,314.83,30.77Zm-4.08-2.39h4a1.89,1.89,0,0,0-1.93-1.64A2.11,2.11,0,0,0,310.75,28.38Z"/><path d="M7.43,29.13a4.09,4.09,0,0,1,4.1-4,4,4,0,0,1,2.9,1.24l-1.21,1.07a2.36,2.36,0,0,0-1.7-.77,2.46,2.46,0,0,0,0,4.92,2.36,2.36,0,0,0,1.74-.8l1.21,1.05a4,4,0,0,1-3,1.28A4.09,4.09,0,0,1,7.43,29.13Z"/><path d="M24.08,25.32V33h-1.8v-1a2.83,2.83,0,0,1-2.36,1.19,2.78,2.78,0,0,1-2.84-3V25.32h1.75v4.5a1.63,1.63,0,0,0,1.61,1.78,1.81,1.81,0,0,0,1.84-1.45V25.32Z"/><path d="M26.77,32l.81-1.25a4.37,4.37,0,0,0,2.56.88c.72,0,1.22-.31,1.22-.78s-.66-.78-1.53-1c-1.66-.43-2.71-.9-2.72-2.26s1.18-2.41,2.88-2.41a5.43,5.43,0,0,1,2.93.92l-.76,1.31A4.27,4.27,0,0,0,30,26.68c-.63,0-1.12.25-1.12.68s.4.63,1.56,1,2.68.8,2.68,2.4-1.21,2.4-3,2.4A5.47,5.47,0,0,1,26.77,32Z"/><path d="M41.44,30.77,42.57,32a4.6,4.6,0,0,1-3.1,1.18,3.93,3.93,0,0,1-4-4,3.87,3.87,0,0,1,3.89-4c2.36,0,3.73,1.79,3.73,4.61H37.34a2.14,2.14,0,0,0,2.12,1.79A3.05,3.05,0,0,0,41.44,30.77Zm-4.08-2.39h4a1.9,1.9,0,0,0-1.94-1.64A2.1,2.1,0,0,0,37.36,28.38Z"/><path d="M53.5,22.63V33H51.7V31.78a3.15,3.15,0,0,1-2.65,1.35c-2,0-3.5-1.65-3.5-4s1.48-4,3.5-4A3.14,3.14,0,0,1,51.7,26.5V22.63Zm-1.8,6.5a2.23,2.23,0,0,0-2.16-2.45,2.25,2.25,0,0,0-2.2,2.45,2.27,2.27,0,0,0,2.2,2.47A2.24,2.24,0,0,0,51.7,29.13Z"/><path d="M61.43,25.32h1.9l2.22,5.55,2.17-5.55h1.92L66.41,33h-1.7Z"/><path d="M77.17,30.77,78.31,32a4.64,4.64,0,0,1-3.1,1.18,3.93,3.93,0,0,1-4-4,3.86,3.86,0,0,1,3.88-4c2.37,0,3.74,1.79,3.74,4.61H73.08a2.13,2.13,0,0,0,2.11,1.79A3,3,0,0,0,77.17,30.77Zm-4.08-2.39h4a1.89,1.89,0,0,0-1.93-1.64A2.11,2.11,0,0,0,73.09,28.38Z"/><path d="M86.21,25.14v1.54a2.45,2.45,0,0,0-2.73,2.42V33H81.67V25.32h1.81V26.8A2.9,2.9,0,0,1,86.21,25.14Z"/><path d="M93.09,32.53a2.59,2.59,0,0,1-1.62.6,2.08,2.08,0,0,1-2.16-2.2V26.81H88.2V25.32h1.11v-2.1h1.76v2.1h1.72v1.49H91.07v3.9a.8.8,0,0,0,.75.89,1.09,1.09,0,0,0,.75-.28Z"/><path d="M95.6,23.13a1,1,0,1,1,1,1A1.05,1.05,0,0,1,95.6,23.13Zm.12,2.19h1.8V33h-1.8Z"/><path d="M100.34,29.13a4.09,4.09,0,0,1,4.11-4,4,4,0,0,1,2.89,1.24l-1.21,1.07a2.34,2.34,0,0,0-1.7-.77,2.47,2.47,0,0,0,0,4.92,2.33,2.33,0,0,0,1.74-.8l1.21,1.05a4,4,0,0,1-3,1.28A4.09,4.09,0,0,1,100.34,29.13Z"/><path d="M116.63,28.36V33h-1.76V32a3.13,3.13,0,0,1-2.41,1.09,2.56,2.56,0,0,1-2.85-2.43c0-1.51,1.41-2.54,3.12-2.54a6,6,0,0,1,2.14.41v-.21A1.66,1.66,0,0,0,113,26.62a4.6,4.6,0,0,0-2.07.58l-.62-1.26a6.9,6.9,0,0,1,3-.8A3,3,0,0,1,116.63,28.36Zm-1.76,2.2v-.85a5.6,5.6,0,0,0-1.87-.3c-.91,0-1.63.5-1.63,1.23s.64,1.18,1.49,1.18A2,2,0,0,0,114.87,30.56Z"/><path d="M119.8,22.63h1.8V33h-1.8Z"/><path d="M124.31,32l.81-1.25a4.34,4.34,0,0,0,2.55.88c.73,0,1.23-.31,1.23-.78s-.67-.78-1.54-1c-1.65-.43-2.7-.9-2.71-2.26s1.18-2.41,2.88-2.41a5.43,5.43,0,0,1,2.92.92l-.75,1.31a4.3,4.3,0,0,0-2.17-.69c-.64,0-1.13.25-1.13.68s.4.63,1.57,1,2.67.8,2.67,2.4-1.21,2.4-3,2.4A5.44,5.44,0,0,1,124.31,32Z"/><path d="M138.72,23.13a1,1,0,1,1,1,1A1.05,1.05,0,0,1,138.72,23.13Zm.12,2.19h1.8V33h-1.8Z"/><path d="M143.34,32l.81-1.25a4.37,4.37,0,0,0,2.56.88c.72,0,1.22-.31,1.22-.78s-.66-.78-1.53-1c-1.66-.43-2.71-.9-2.72-2.26s1.18-2.41,2.88-2.41a5.43,5.43,0,0,1,2.93.92l-.76,1.31a4.24,4.24,0,0,0-2.17-.69c-.63,0-1.12.25-1.12.68s.4.63,1.56,1,2.68.8,2.68,2.4-1.21,2.4-3,2.4A5.47,5.47,0,0,1,143.34,32Z"/><path d="M157.47,29.13a4.1,4.1,0,0,1,4.11-4,4,4,0,0,1,2.89,1.24l-1.21,1.07a2.34,2.34,0,0,0-1.7-.77,2.47,2.47,0,0,0,0,4.92,2.36,2.36,0,0,0,1.75-.8l1.21,1.05a4,4,0,0,1-3,1.28A4.1,4.1,0,0,1,157.47,29.13Z"/><path d="M171.74,25.14v1.54A2.45,2.45,0,0,0,169,29.1V33H167.2V25.32H169V26.8A2.9,2.9,0,0,1,171.74,25.14Z"/><path d="M181.26,25.32V33h-1.8v-1a2.83,2.83,0,0,1-2.36,1.19,2.78,2.78,0,0,1-2.84-3V25.32H176v4.5a1.63,1.63,0,0,0,1.61,1.78,1.81,1.81,0,0,0,1.84-1.45V25.32Z"/><path d="M184.07,29.13a4.09,4.09,0,0,1,4.1-4,4,4,0,0,1,2.9,1.24l-1.21,1.07a2.36,2.36,0,0,0-1.7-.77,2.46,2.46,0,0,0,0,4.92,2.36,2.36,0,0,0,1.74-.8l1.21,1.05a4,4,0,0,1-3,1.28A4.09,4.09,0,0,1,184.07,29.13Z"/><path d="M193.64,23.13a1,1,0,0,1,2.05,0,1,1,0,1,1-2.05,0Zm.11,2.19h1.81V33h-1.81Z"/><path d="M205.38,28.36V33h-1.76V32a3.13,3.13,0,0,1-2.41,1.09,2.56,2.56,0,0,1-2.85-2.43c0-1.51,1.4-2.54,3.12-2.54a6,6,0,0,1,2.14.41v-.21a1.66,1.66,0,0,0-1.88-1.74,4.6,4.6,0,0,0-2.06.58l-.62-1.26a6.87,6.87,0,0,1,3-.8A3,3,0,0,1,205.38,28.36Zm-1.76,2.2v-.85a5.62,5.62,0,0,0-1.88-.3c-.9,0-1.62.5-1.62,1.23s.63,1.18,1.49,1.18A2,2,0,0,0,203.62,30.56Z"/><path d="M208.55,22.63h1.8V33h-1.8Z"/><path d="M223.3,32.53a2.55,2.55,0,0,1-1.62.6,2.09,2.09,0,0,1-2.16-2.2V26.81h-1.11V25.32h1.11v-2.1h1.76v2.1H223v1.49h-1.73v3.9a.81.81,0,0,0,.75.89,1.11,1.11,0,0,0,.76-.28Z"/><path d="M225.53,29.13a4.1,4.1,0,1,1,4.09,4A4.09,4.09,0,0,1,225.53,29.13Zm6.41,0a2.33,2.33,0,1,0-2.32,2.47A2.42,2.42,0,0,0,231.94,29.13Z"/><path d="M241.51,29.13a4.09,4.09,0,1,1,4.09,4A4.09,4.09,0,0,1,241.51,29.13Zm6.41,0a2.33,2.33,0,1,0-2.32,2.47A2.42,2.42,0,0,0,247.92,29.13Z"/><path d="M259.45,25.32V33h-1.8v-1a2.83,2.83,0,0,1-2.36,1.19,2.78,2.78,0,0,1-2.84-3V25.32h1.75v4.5a1.63,1.63,0,0,0,1.61,1.78,1.81,1.81,0,0,0,1.84-1.45V25.32Z"/><path d="M267.24,25.14v1.54a2.45,2.45,0,0,0-2.74,2.42V33h-1.8V25.32h1.8V26.8A2.93,2.93,0,0,1,267.24,25.14Z"/><path d="M274.47,25.32h1.91l2.21,5.55,2.17-5.55h1.92L279.45,33h-1.7Z"/><path d="M291.23,28.36V33h-1.75V32a3.16,3.16,0,0,1-2.41,1.09c-1.63,0-2.85-1-2.85-2.43s1.4-2.54,3.11-2.54a6.07,6.07,0,0,1,2.15.41v-.21a1.66,1.66,0,0,0-1.88-1.74,4.64,4.64,0,0,0-2.07.58l-.62-1.26a6.9,6.9,0,0,1,3-.8A3,3,0,0,1,291.23,28.36Zm-1.75,2.2v-.85a5.66,5.66,0,0,0-1.88-.3c-.9,0-1.63.5-1.63,1.23s.64,1.18,1.5,1.18A2,2,0,0,0,289.48,30.56Z"/><path d="M294.41,22.63h1.8V33h-1.8Z"/><path d="M306.4,25.32V33h-1.8v-1a2.85,2.85,0,0,1-2.37,1.19,2.77,2.77,0,0,1-2.83-3V25.32h1.74v4.5a1.64,1.64,0,0,0,1.61,1.78,1.81,1.81,0,0,0,1.85-1.45V25.32Z"/><path d="M.94,25.14a3.74,3.74,0,0,0-.94.13V26.9a2.16,2.16,0,0,1,.94-.22,2.42,2.42,0,0,1,2.32,2.45A2.43,2.43,0,0,1,.94,31.6,2.16,2.16,0,0,1,0,31.38V33a4.25,4.25,0,0,0,.94.12,4,4,0,1,0,0-8Z"/><path d="M8,49.69v4.6H6.26v-.92a3.13,3.13,0,0,1-2.41,1.09A2.56,2.56,0,0,1,1,52c0-1.51,1.4-2.54,3.12-2.54a6,6,0,0,1,2.14.41v-.21A1.66,1.66,0,0,0,4.38,48a4.6,4.6,0,0,0-2.06.58L1.7,47.27a6.87,6.87,0,0,1,3-.8A3,3,0,0,1,8,49.69Zm-1.76,2.2V51a5.88,5.88,0,0,0-1.88-.3c-.9,0-1.62.5-1.62,1.23s.63,1.18,1.49,1.18A2,2,0,0,0,6.26,51.89Z"/><path d="M11.19,44H13V54.29h-1.8Z"/><path d="M16.21,44H18V54.29h-1.8Z"/><path d="M29.24,50.46c0,2.35-1.48,4-3.5,4a3.12,3.12,0,0,1-2.66-1.38v3.75h-1.8V46.65h1.8v1.21a3.13,3.13,0,0,1,2.66-1.39C27.76,46.47,29.24,48.13,29.24,50.46Zm-1.79,0a2.2,2.2,0,1,0-2.2,2.47A2.24,2.24,0,0,0,27.45,50.46Z"/><path d="M38.69,49.69v4.6H36.93v-.92a3.13,3.13,0,0,1-2.41,1.09A2.56,2.56,0,0,1,31.67,52c0-1.51,1.41-2.54,3.12-2.54a6,6,0,0,1,2.14.41v-.21A1.66,1.66,0,0,0,35.05,48a4.6,4.6,0,0,0-2.06.58l-.62-1.26a6.9,6.9,0,0,1,3-.8A3,3,0,0,1,38.69,49.69Zm-1.76,2.2V51a5.88,5.88,0,0,0-1.88-.3c-.9,0-1.62.5-1.62,1.23s.64,1.18,1.49,1.18A2,2,0,0,0,36.93,51.89Z"/><path d="M46.44,46.47V48a2.45,2.45,0,0,0-2.73,2.42v3.86h-1.8V46.65h1.8v1.48A2.92,2.92,0,0,1,46.44,46.47Z"/><path d="M53.06,50.06l3,4.23H54l-2.15-3-1.08,1.14v1.91H49V44h1.81v6.31l3.31-3.62H56.2Z"/><path d="M66.23,46.65H68v1.49H66.23v6.15H64.47V48.14H63.36V46.65h1.11v-.8a2.1,2.1,0,0,1,2.16-2.2,2.6,2.6,0,0,1,1.62.61l-.52,1.15a1.09,1.09,0,0,0-.75-.28.8.8,0,0,0-.75.88Z"/><path d="M70.5,44.46a1,1,0,0,1,2,0,1,1,0,1,1-2,0Zm.11,2.19h1.81v7.64H70.61Z"/><path d="M83.12,46.65v6.82c0,2-1.65,3.36-4,3.36a5.46,5.46,0,0,1-3.27-1l.66-1.32a3.62,3.62,0,0,0,2.35.8c1.51,0,2.45-.72,2.45-1.87v-1a3.18,3.18,0,0,1-2.61,1.3,3.63,3.63,0,0,1,0-7.26,3.13,3.13,0,0,1,2.61,1.32V46.65Zm-1.8,3.44a2.09,2.09,0,1,0-2.1,2.1A2,2,0,0,0,81.32,50.09Z"/><path d="M93.34,46.65v7.64h-1.8v-1a2.83,2.83,0,0,1-2.36,1.19,2.78,2.78,0,0,1-2.84-3V46.65h1.74v4.51a1.63,1.63,0,0,0,1.61,1.77,1.81,1.81,0,0,0,1.85-1.45V46.65Z"/><path d="M101.12,46.47V48a2.45,2.45,0,0,0-2.73,2.42v3.86h-1.8V46.65h1.8v1.48A2.92,2.92,0,0,1,101.12,46.47Z"/><path d="M109.22,52.1l1.13,1.18a4.6,4.6,0,0,1-3.1,1.18,3.92,3.92,0,0,1-4-4,3.87,3.87,0,0,1,3.89-4c2.36,0,3.73,1.79,3.73,4.61h-5.76a2.14,2.14,0,0,0,2.12,1.79A3,3,0,0,0,109.22,52.1Zm-4.08-2.39h4a1.9,1.9,0,0,0-1.94-1.64A2.1,2.1,0,0,0,105.14,49.71Z"/><path d="M113.58,53.28a1.16,1.16,0,0,1,1.19-1.13,1.16,1.16,0,0,1,0,2.31A1.17,1.17,0,0,1,113.58,53.28Z"/><path d="M328.36,136V104.16c0-1.74-2-3.16-4.37-3.16H107.38c-2.42,0-4.38,1.42-4.38,3.16V136Z" fill="#0a0a0a"/><path d="M104,136V104.16c0-1.17,1.55-2.16,3.38-2.16H324c1.83,0,3.37,1,3.37,2.16V136h2V104.16c0-2.33-2.36-4.16-5.37-4.16H107.38c-3,0-5.38,1.83-5.38,4.16V136Z" fill="#ee1dff"/><path d="M135.17,127.18a4.32,4.32,0,0,1,7.44-2.93l-1.07,1a2.69,2.69,0,0,0-2-1,2.9,2.9,0,0,0,0,5.79,2.71,2.71,0,0,0,2.05-1l1.06,1a4.3,4.3,0,0,1-3.11,1.35A4.36,4.36,0,0,1,135.17,127.18Z" fill="#f3ff17"/><path d="M150.41,129.94v1.36h-5.72v-8.24h1.49v6.88Z" fill="#f3ff17"/><path d="M152.65,123.06h1.48v8.24h-1.48Z" fill="#f3ff17"/><path d="M156.55,127.18a4.31,4.31,0,0,1,7.43-2.93l-1.07,1a2.68,2.68,0,0,0-2-1,2.9,2.9,0,0,0,0,5.79,2.74,2.74,0,0,0,2.05-1l1,1a4.28,4.28,0,0,1-3.1,1.35A4.35,4.35,0,0,1,156.55,127.18Z" fill="#f3ff17"/><path d="M166.23,123.06h1.5v4l3.61-4h1.83l-3.29,3.64,3.53,4.6h-1.84l-2.73-3.55-1.11,1.2v2.35h-1.5Z" fill="#f3ff17"/><path d="M186.86,123.06v8.24h-1.49v-3.51h-4.12v3.51h-1.5v-8.24h1.5v3.36h4.12v-3.36Z" fill="#f3ff17"/><path d="M191.07,124.43v2h4.26v1.37h-4.26v2.15h4.7v1.36h-6.2v-8.24h6.2v1.37Z" fill="#f3ff17"/><path d="M203.25,131.3l-1.95-2.77h-1.59v2.77h-1.5v-8.24h3.58a2.83,2.83,0,0,1,3.09,2.74,2.7,2.7,0,0,1-2,2.58L205,131.3Zm-3.54-4.15h1.92c1,0,1.72-.51,1.72-1.35s-.7-1.36-1.72-1.36h-1.92Z" fill="#f3ff17"/><path d="M208.73,124.43v2H213v1.37h-4.26v2.15h4.7v1.36h-6.2v-8.24h6.2v1.37Z" fill="#f3ff17"/><path d="M222.48,124.43h-2.64v-1.37h6.77v1.37H224v6.87h-1.49Z" fill="#f3ff17"/><path d="M228.14,127.18a4.32,4.32,0,1,1,4.33,4.27A4.34,4.34,0,0,1,228.14,127.18Zm7.11,0a2.8,2.8,0,1,0-2.78,2.9A2.87,2.87,0,0,0,235.25,127.18Z" fill="#f3ff17"/><path d="M243.08,130.1l.86-1.06a4,4,0,0,0,2.71,1.11c1,0,1.55-.5,1.55-1.09s-.59-.91-1.91-1.22c-1.7-.4-2.89-.89-2.89-2.44s1.22-2.49,3-2.49a4.58,4.58,0,0,1,3.12,1.15l-.81,1.1a3.68,3.68,0,0,0-2.37-1c-.82,0-1.39.5-1.39,1.08s.61.91,1.92,1.21c1.72.39,2.87.94,2.87,2.44s-1.13,2.51-3.1,2.51A5,5,0,0,1,243.08,130.1Z" fill="#f3ff17"/><path d="M252.09,127.79v-4.73h1.5v4.68a2.15,2.15,0,1,0,4.28,0v-4.68h1.49v4.73a3.64,3.64,0,1,1-7.27,0Z" fill="#f3ff17"/><path d="M262.19,123.06h4a2.19,2.19,0,0,1,2.44,2.07A2,2,0,0,1,267.5,127a2.25,2.25,0,0,1-1.11,4.35h-4.2Zm3.68,3.37c.74,0,1.26-.43,1.26-1a1.12,1.12,0,0,0-1.26-1h-2.19v2.07Zm.22,3.58a1.19,1.19,0,1,0,0-2.35h-2.41V130Z" fill="#f3ff17"/><path d="M271.52,123.06H273l2.72,5,2.72-5h1.49v8.24h-1.49v-5.5l-2.72,5-2.72-5v5.5h-1.49Z" fill="#f3ff17"/><path d="M281.79,123.06h1.48v8.24h-1.48Z" fill="#f3ff17"/><path d="M287.22,124.43h-2.64v-1.37h6.77v1.37h-2.64v6.87h-1.49Z" fill="#f3ff17"/><path d="M208.91,6.77v4.86h-1.75V7.12a1.63,1.63,0,0,0-1.61-1.77,1.8,1.8,0,0,0-1.84,1.45v4.83h-1.8V4h1.8V5a2.84,2.84,0,0,1,2.36-1.2A2.78,2.78,0,0,1,208.91,6.77Z"/><path d="M211.56,10.65l.82-1.25a4.32,4.32,0,0,0,2.55.88c.72,0,1.23-.31,1.23-.78s-.67-.78-1.54-1c-1.65-.43-2.7-.9-2.72-2.26s1.18-2.41,2.88-2.41a5.43,5.43,0,0,1,2.93.92L217,6a4.15,4.15,0,0,0-2.17-.69c-.63,0-1.12.25-1.12.68s.4.63,1.57,1,2.67.8,2.67,2.4-1.21,2.4-3,2.4A5.47,5.47,0,0,1,211.56,10.65Z"/><path d="M226.23,9.44l1.14,1.18a4.65,4.65,0,0,1-3.11,1.18,3.93,3.93,0,0,1-4-4,3.86,3.86,0,0,1,3.88-4c2.36,0,3.74,1.79,3.74,4.61h-5.76a2.13,2.13,0,0,0,2.11,1.79A3,3,0,0,0,226.23,9.44Zm-4.08-2.39h4a1.9,1.9,0,0,0-1.94-1.64A2.11,2.11,0,0,0,222.15,7.05Z"/><path d="M235.27,3.81V5.35a2.45,2.45,0,0,0-2.74,2.42v3.86h-1.8V4h1.8V5.47A2.93,2.93,0,0,1,235.27,3.81Z"/><path d="M237.1,4H239l2.22,5.55L243.39,4h1.92l-3.24,7.64h-1.7Z"/><path d="M253.86,7v4.6H252.1v-.92a3.13,3.13,0,0,1-2.41,1.09,2.56,2.56,0,0,1-2.85-2.43c0-1.51,1.4-2.54,3.12-2.54a6,6,0,0,1,2.14.41V7a1.66,1.66,0,0,0-1.88-1.74,4.6,4.6,0,0,0-2.06.58l-.62-1.26a6.87,6.87,0,0,1,3-.8A3,3,0,0,1,253.86,7Zm-1.76,2.2V8.38a5.62,5.62,0,0,0-1.88-.3c-.9,0-1.62.5-1.62,1.23s.63,1.18,1.49,1.18A2,2,0,0,0,252.1,9.23Z"/><path d="M261.36,11.2a2.59,2.59,0,0,1-1.63.6,2.08,2.08,0,0,1-2.15-2.2V5.48h-1.11V4h1.11V1.89h1.76V4h1.72V5.48h-1.72v3.9a.8.8,0,0,0,.75.89,1.09,1.09,0,0,0,.75-.28Z"/><path d="M263.87,1.8a1,1,0,0,1,2.05,0,1,1,0,1,1-2.05,0ZM264,4h1.8v7.64H264Z"/><path d="M268.28,4h1.91l2.21,5.55L274.57,4h1.93l-3.24,7.64h-1.7Z"/><path d="M284,9.44l1.13,1.18a4.6,4.6,0,0,1-3.1,1.18,3.94,3.94,0,0,1-4-4,3.87,3.87,0,0,1,3.89-4c2.36,0,3.74,1.79,3.74,4.61h-5.77a2.14,2.14,0,0,0,2.12,1.79A3,3,0,0,0,284,9.44ZM280,7.05h4A1.9,1.9,0,0,0,282,5.41,2.11,2.11,0,0,0,280,7.05Z"/><path d="M288.48,1.3h1.81V11.63h-1.81Z"/><path d="M293.39,13.89l.38-1.3a2.29,2.29,0,0,0,1,.28,1,1,0,0,0,1-.5l.33-.68L292.81,4h1.91L297,9.69,299,4h1.87l-3.24,8.17a2.83,2.83,0,0,1-2.61,2.13A3.64,3.64,0,0,1,293.39,13.89Z"/><path d="M8.27,9.44l1.14,1.18A4.65,4.65,0,0,1,6.3,11.8a3.93,3.93,0,0,1-4-4,3.86,3.86,0,0,1,3.88-4c2.36,0,3.74,1.79,3.74,4.61H4.18a2.13,2.13,0,0,0,2.11,1.79A3,3,0,0,0,8.27,9.44ZM4.19,7.05h4A1.9,1.9,0,0,0,6.27,5.41,2.11,2.11,0,0,0,4.19,7.05Z"/><path d="M17.31,3.81V5.35a2.45,2.45,0,0,0-2.74,2.42v3.86h-1.8V4h1.8V5.47A2.93,2.93,0,0,1,17.31,3.81Z"/><path d="M26.46,7v4.6H24.7v-.92a3.12,3.12,0,0,1-2.4,1.09c-1.63,0-2.85-1-2.85-2.43s1.4-2.54,3.11-2.54a6,6,0,0,1,2.14.41V7a1.65,1.65,0,0,0-1.87-1.74,4.6,4.6,0,0,0-2.07.58l-.62-1.26a6.9,6.9,0,0,1,3-.8A3,3,0,0,1,26.46,7ZM24.7,9.23V8.38a5.56,5.56,0,0,0-1.87-.3c-.9,0-1.63.5-1.63,1.23s.64,1.18,1.5,1.18A2,2,0,0,0,24.7,9.23Z"/><path d="M34,11.2a2.59,2.59,0,0,1-1.62.6,2.09,2.09,0,0,1-2.16-2.2V5.48H29.07V4h1.11V1.89h1.76V4h1.73V5.48H31.94v3.9a.8.8,0,0,0,.75.89,1.13,1.13,0,0,0,.76-.28Z"/><path d="M36.47,1.8a1,1,0,0,1,1-1,1,1,0,0,1,1,1,1,1,0,0,1-1,1A1.05,1.05,0,0,1,36.47,1.8ZM36.59,4h1.8v7.64h-1.8Z"/><path d="M40.89,4h1.9L45,9.54,47.18,4H49.1l-3.24,7.64H44.17Z"/><path d="M56.63,9.44l1.14,1.18a4.64,4.64,0,0,1-3.1,1.18,3.93,3.93,0,0,1-4-4,3.86,3.86,0,0,1,3.88-4c2.37,0,3.74,1.79,3.74,4.61H52.54a2.13,2.13,0,0,0,2.11,1.79A3,3,0,0,0,56.63,9.44ZM52.55,7.05h4a1.9,1.9,0,0,0-1.93-1.64A2.11,2.11,0,0,0,52.55,7.05Z"/><path d="M61.09,1.3h1.8V11.63h-1.8Z"/><path d="M66,13.89l.38-1.3a2.33,2.33,0,0,0,1,.28,1,1,0,0,0,1-.5l.33-.68L65.41,4h1.91l2.23,5.7L71.65,4h1.86l-3.24,8.17a2.82,2.82,0,0,1-2.61,2.13A3.67,3.67,0,0,1,66,13.89Z"/><path d="M86.16,3.81V5.35a2.45,2.45,0,0,0-2.73,2.42v3.86h-1.8V4h1.8V5.47A2.92,2.92,0,0,1,86.16,3.81Z"/><path d="M88.6,1.8a1,1,0,0,1,2.05,0,1,1,0,1,1-2.05,0ZM88.72,4h1.8v7.64h-1.8Z"/><path d="M101.23,4v6.82c0,2-1.66,3.36-4,3.36a5.47,5.47,0,0,1-3.28-1l.66-1.32a3.64,3.64,0,0,0,2.35.8c1.51,0,2.45-.72,2.45-1.88v-1a3.17,3.17,0,0,1-2.61,1.29,3.42,3.42,0,0,1-3.44-3.63,3.41,3.41,0,0,1,3.44-3.62,3.1,3.1,0,0,1,2.61,1.32V4ZM99.42,7.43a2.09,2.09,0,0,0-4.18,0,2.09,2.09,0,1,0,4.18,0Z"/><path d="M111.47,6.77v4.86h-1.74V7.12a1.63,1.63,0,0,0-1.61-1.77A1.77,1.77,0,0,0,106.26,7v4.63h-1.8V1.3h1.8V5a2.86,2.86,0,0,1,5.21,1.73Z"/><path d="M119,11.2a2.59,2.59,0,0,1-1.63.6,2.09,2.09,0,0,1-2.16-2.2V5.48h-1.1V4h1.1V1.89H117V4h1.73V5.48H117v3.9a.81.81,0,0,0,.76.89,1.09,1.09,0,0,0,.75-.28Z"/><path d="M121.34,6.78h4V8.36h-4Z"/><path d="M127.73,10.65l.81-1.25a4.37,4.37,0,0,0,2.56.88c.72,0,1.22-.31,1.22-.78s-.66-.78-1.53-1c-1.66-.43-2.7-.9-2.72-2.26s1.18-2.41,2.88-2.41a5.43,5.43,0,0,1,2.93.92L133.12,6A4.15,4.15,0,0,0,131,5.35c-.63,0-1.12.25-1.12.68s.4.63,1.56,1,2.68.8,2.68,2.4-1.21,2.4-3,2.4A5.47,5.47,0,0,1,127.73,10.65Z"/><path d="M136.74,1.8a1,1,0,0,1,2,0,1,1,0,1,1-2,0ZM136.86,4h1.8v7.64h-1.8Z"/><path d="M141.57,10.31l4.05-4.74h-4V4H148V5.3l-4.06,4.75H148v1.58h-6.45Z"/><path d="M150.75,1.8a1,1,0,0,1,2.06,0,1,1,0,1,1-2.06,0ZM150.87,4h1.8v7.64h-1.8Z"/><path d="M162.89,6.77v4.86h-1.74V7.12a1.63,1.63,0,0,0-1.61-1.77,1.81,1.81,0,0,0-1.85,1.45v4.83h-1.8V4h1.8V5a2.85,2.85,0,0,1,2.37-1.2A2.78,2.78,0,0,1,162.89,6.77Z"/><path d="M173.56,4v6.82c0,2-1.66,3.36-4,3.36a5.47,5.47,0,0,1-3.28-1l.66-1.32a3.62,3.62,0,0,0,2.35.8c1.51,0,2.45-.72,2.45-1.88v-1a3.17,3.17,0,0,1-2.61,1.29,3.42,3.42,0,0,1-3.44-3.63,3.41,3.41,0,0,1,3.44-3.62,3.1,3.1,0,0,1,2.61,1.32V4Zm-1.81,3.44a2.09,2.09,0,0,0-4.18,0,2.09,2.09,0,1,0,4.18,0Z"/><path d="M181.81,7.8a4.09,4.09,0,0,1,4.1-4,4,4,0,0,1,2.9,1.24L187.6,6.12a2.36,2.36,0,0,0-1.7-.77,2.41,2.41,0,0,0-2.31,2.45,2.42,2.42,0,0,0,2.31,2.47,2.36,2.36,0,0,0,1.74-.8l1.21,1a4,4,0,0,1-3,1.28A4.09,4.09,0,0,1,181.81,7.8Z"/><path d="M190.93,7.8a4.1,4.1,0,0,1,8.19,0,4.1,4.1,0,0,1-8.19,0Zm6.41,0A2.33,2.33,0,1,0,195,10.27,2.43,2.43,0,0,0,197.34,7.8Z"/></svg>