<!--
  ~ Copyright (c) 2016-2017 VMWare, Inc. All Rights Reserved.
  ~ This software is released under MIT License.
  ~ The full license information can be found in LICENSE in the root directory of this project.
  -->

<svg xmlns="http://www.w3.org/2000/svg" xmlns:xlink="http://www.w3.org/1999/xlink" viewBox="0 0 408 296"><defs><clipPath id="20fc1300-1c64-4fe4-be4a-d265cec3655c"><path d="M-69.36-1000.5H-81.72A8.34,8.34,0,0,0-90-992.19v24.92A8.34,8.34,0,0,0-81.72-959h4.15v12.46L-65.11-959h20.77A8.34,8.34,0,0,0-36-967.27v-7.56a4.58,4.58,0,0,1-.83.08" fill="none" clip-rule="evenodd"/></clipPath></defs><title>row5 Box R</title><g id="b7e360e6-8cfa-4bdf-b340-094dd41a5a01" data-name="Layer 1"><rect width="408" height="296" fill="#eee"/></g><g id="d4051430-b45a-45a9-8d5a-59f868f5f336" data-name="Layer 2"><rect x="24" y="23" width="360" height="252" fill="#5e6f75"/><rect x="25" y="52" width="89" height="222" fill="#fff"/><rect x="25" y="24" width="358" height="27" fill="#268fef"/><rect x="37" y="32" width="72" height="9" fill="#c0e1ff"/><circle cx="367.5" cy="36.25" r="6" fill="#c0e1ff"/><rect x="37" y="62" width="67" height="6" fill="#597784"/><rect x="37" y="79" width="67" height="6" fill="#597784"/><rect x="37" y="96" width="67" height="6" fill="#597784"/><rect x="37" y="113" width="67" height="6" fill="#597784"/><rect x="37" y="130" width="67" height="6" fill="#597784"/><rect x="37" y="147" width="67" height="6" fill="#597784"/><rect x="37" y="164" width="67" height="6" fill="#597784"/><rect x="126" y="60" width="56" height="9" fill="#ccc"/><rect x="114" y="51" width="1" height="222" fill="#506972"/><path d="M127.63,191.5H367.37a3.13,3.13,0,0,1,3.13,3.13V209.5a0,0,0,0,1,0,0h-246a0,0,0,0,1,0,0V194.63a3.13,3.13,0,0,1,3.13-3.13Z" fill="#fff" stroke="#ccc" stroke-miterlimit="10"/><rect x="138" y="198" width="61" height="4" fill="#597784"/><rect x="232" y="198" width="34" height="4" fill="#597784"/><rect x="318" y="198" width="35" height="4" fill="#597784"/><rect x="124.5" y="209.5" width="246" height="18" fill="#2a3e46" stroke="#ccc" stroke-miterlimit="10"/><rect x="138" y="216" width="61" height="4" fill="#597784"/><rect x="232" y="216" width="34" height="4" fill="#597784"/><rect x="318" y="216" width="35" height="4" fill="#597784"/><rect x="124.5" y="227.5" width="246" height="18" fill="#2a3e46" stroke="#ccc" stroke-miterlimit="10"/><rect x="138" y="234" width="61" height="4" fill="#597784"/><rect x="232" y="234" width="34" height="4" fill="#597784"/><rect x="318" y="234" width="35" height="4" fill="#597784"/><rect x="124.5" y="245.5" width="246" height="18" fill="#2a3e46" stroke="#ccc" stroke-miterlimit="10"/><rect x="138" y="252" width="61" height="4" fill="#597784"/><rect x="232" y="252" width="34" height="4" fill="#597784"/><rect x="318" y="252" width="35" height="4" fill="#597784"/><rect x="252.5" y="80.5" width="117" height="99" rx="3" ry="3" fill="#ccc" stroke="#ccc" stroke-miterlimit="10"/><rect x="124.5" y="80.5" width="117" height="99" rx="3" ry="3" fill="#ccc" stroke="#ccc" stroke-miterlimit="10"/><rect x="252.5" y="79.5" width="117" height="99" rx="3" ry="3" fill="#2a3e46" stroke="#ccc" stroke-miterlimit="10"/><rect x="262" y="89" width="66" height="6" fill="#ccc"/><rect x="311" y="113" width="46" height="4" fill="#ccc"/><rect x="311" y="123" width="33" height="4" fill="#ccc"/><path d="M271.42,137.49a14.82,14.82,0,1,1,20.95-.45" fill="none" stroke="#60b515" stroke-miterlimit="10" stroke-width="4" fill-rule="evenodd"/><rect x="262" y="159" width="33" height="12" rx="1.5" ry="1.5" fill="#7a45ce"/><rect x="300" y="159" width="33" height="12" rx="1.5" ry="1.5" fill="#7a45ce"/><rect x="124.5" y="79.5" width="117" height="99" rx="3" ry="3" fill="#2a3e46" stroke="#ccc" stroke-miterlimit="10"/><rect x="134" y="89" width="66" height="6" fill="#ccc"/><rect x="183" y="113" width="46" height="4" fill="#ccc"/><rect x="183" y="123" width="33" height="4" fill="#ccc"/><path d="M143.42,137.49a14.82,14.82,0,1,1,21-.45" fill="none" stroke="#f54f47" stroke-miterlimit="10" stroke-width="4" fill-rule="evenodd"/><rect x="134" y="159" width="33" height="12" rx="1.5" ry="1.5" fill="#7a45ce"/><rect x="172" y="159" width="33" height="12" rx="1.5" ry="1.5" fill="#7a45ce"/></g></svg>