<svg version="1.1" width="36" height="36"  viewBox="0 0 36 36" preserveAspectRatio="xMidYMid meet" xmlns="http://www.w3.org/2000/svg" xmlns:xlink="http://www.w3.org/1999/xlink">
    <title>align-center-line</title>
    <path d="M31,20H19V16h6a1,1,0,0,0,1-1V7a1,1,0,0,0-1-1H19V2a1,1,0,0,0-2,0V6H11a1,1,0,0,0-1,1v8a1,1,0,0,0,1,1h6v4H5a1,1,0,0,0-1,1v8a1,1,0,0,0,1,1H17v4a1,1,0,0,0,2,0V30H31a1,1,0,0,0,1-1V21A1,1,0,0,0,31,20ZM12,14V8H24v6ZM30,28H6V22H30Z" class="clr-i-outline clr-i-outline-path-1"></path>
    <rect x="0" y="0" width="36" height="36" fill-opacity="0"/>
</svg>