<svg version="1.1" width="36" height="36"  viewBox="0 0 36 36" preserveAspectRatio="xMidYMid meet" xmlns="http://www.w3.org/2000/svg" xmlns:xlink="http://www.w3.org/1999/xlink">
    <title>center-text-line</title>
    <path d="M30.88,8H5.12a1.1,1.1,0,0,0,0,2.2H30.88a1.1,1.1,0,1,0,0-2.2Z" class="clr-i-outline clr-i-outline-path-1"></path><path d="M25.5,16.2a1.1,1.1,0,1,0,0-2.2h-15a1.1,1.1,0,1,0,0,2.2Z" class="clr-i-outline clr-i-outline-path-2"></path><path d="M30.25,20H5.75a1.1,1.1,0,0,0,0,2.2h24.5a1.1,1.1,0,0,0,0-2.2Z" class="clr-i-outline clr-i-outline-path-3"></path><path d="M24.88,26H11.12a1.1,1.1,0,1,0,0,2.2H24.88a1.1,1.1,0,1,0,0-2.2Z" class="clr-i-outline clr-i-outline-path-4"></path>
    <rect x="0" y="0" width="36" height="36" fill-opacity="0"/>
</svg>