<svg id="7b32bca8-314e-43dd-b11a-1adc3e6a5fdc" data-name="Layer 1" xmlns="http://www.w3.org/2000/svg" xmlns:xlink="http://www.w3.org/1999/xlink" width="578.06" height="249.03" viewBox="0 0 578.06 249.03"><defs><linearGradient id="1a2bd7de-5940-4b60-81d6-c2d661ac3046" x1="112.29" y1="192.22" x2="133.42" y2="192.22" gradientUnits="userSpaceOnUse"><stop offset="0.01" stop-color="#a6d8e7"/><stop offset="1" stop-color="#80bdcf"/></linearGradient><linearGradient id="f234d76f-a5d9-40a7-ba94-5373cf3c18a6" x1="62.84" y1="149.94" x2="194.03" y2="149.94" xlink:href="#1a2bd7de-5940-4b60-81d6-c2d661ac3046"/><linearGradient id="36928319-5d6c-422c-91c0-b1c875bb5319" x1="49.76" y1="95.48" x2="171.75" y2="205.51" gradientUnits="userSpaceOnUse"><stop offset="0.01" stop-color="#a6d8e7"/><stop offset="0.95" stop-color="#80bdcf"/></linearGradient><linearGradient id="72d4e2fe-4ea7-4fb6-9bbc-b783899d52e4" x1="143.65" y1="119.3" x2="127.65" y2="97.3" gradientUnits="userSpaceOnUse"><stop offset="0" stop-color="#ea5b34"/><stop offset="1" stop-color="#ff8563"/></linearGradient><radialGradient id="c1567e1c-b3f3-4e85-9bf0-d04f3df4fefd" cx="84.72" cy="135.45" r="34.39" gradientUnits="userSpaceOnUse"><stop offset="0.2" stop-color="#efb395"/><stop offset="1" stop-color="#efb395" stop-opacity="0"/></radialGradient><linearGradient id="8009a64c-c64e-4905-bdec-770eebf7b248" x1="490.14" y1="172.05" x2="532.44" y2="172.05" xlink:href="#1a2bd7de-5940-4b60-81d6-c2d661ac3046"/><linearGradient id="4eeb82c1-4380-489b-86f0-7b3cf27d8a9c" x1="449.58" y1="120.54" x2="541.42" y2="168.52" xlink:href="#1a2bd7de-5940-4b60-81d6-c2d661ac3046"/><linearGradient id="a6b626ca-c4be-437c-aaeb-dd88068fede7" x1="220.79" y1="100.17" x2="308.79" y2="100.17" xlink:href="#1a2bd7de-5940-4b60-81d6-c2d661ac3046"/></defs><title>Artboard 2</title><path d="M115.36,223.77c27.16,1,153.87,1.26,225-4.5,31-2.52-2.56-13.1-58.56-14.1-37.57-.67-113.61-1.29-135,0-32.55,2-97,0-115.42,9.6C18.72,221.35,76.36,222.27,115.36,223.77Z" fill="#d9e4ea"/><path d="M464.73,222.91c13.82,1.32,35.87,2.59,54.48-2.23,8.11-2.11-2-8.1-14.91-10.05-9.82-1.49-41.29-5-54.48,3.91C443.56,218.77,454.49,221.93,464.73,222.91Z" fill="#d9e4ea"/><path d="M124.82,192.11a14.72,14.72,0,0,1,6.6-9.89c5-3.32-.39-9.48-5.81-5.84a16.49,16.49,0,0,0-7.5,10.73c-.83,4.45.77,10.28,2.41,14.66a53.89,53.89,0,0,0-5.61,1.1c-4,1-3.4,4.66,1.59,5.77a24.47,24.47,0,0,0,7,.47c3-.21,4.1-2.43,3.06-4.91A21.83,21.83,0,0,1,124.82,192.11Z" fill="url(#1a2bd7de-5940-4b60-81d6-c2d661ac3046)"/><path d="M147.24,103.17a27.77,27.77,0,0,0-7,.53c-2.41.36-31.54,2.59-55.78,20.81-9.18,6.2-21.61,21.87-21.61,32.45,0,13.55,8.28,19.55,22.28,27.55s37.32,12.47,62.12,12.24a46.79,46.79,0,0,0,0-93.58Z" fill="url(#f234d76f-a5d9-40a7-ba94-5373cf3c18a6)"/><path d="M90.45,64.84c28.23,0,57.34,28.79,57.34,62.41s-27,64.92-58.81,64.92S24.3,167.83,24.3,130.73,51.64,64.84,90.45,64.84Z" fill="url(#36928319-5d6c-422c-91c0-b1c875bb5319)"/><path d="M142.81,103.34c-.77.08-1.61.19-2.58.36-2.41.36-31.54,2.59-55.78,20.81-9.18,6.2-21.61,21.87-21.61,32.45,0,13.55,8.28,19.55,22.28,27.55a74.43,74.43,0,0,0,15.24,6.31c26.58-6.33,47.43-34.06,47.43-63.57A61,61,0,0,0,142.81,103.34Z" fill="#c4e5f2"/><ellipse cx="130.75" cy="95.56" rx="2.94" ry="3.59" transform="translate(-10.35 16.08) rotate(-6.77)" fill="#62767f"/><ellipse cx="98.62" cy="101.15" rx="3.73" ry="4.56" transform="translate(-11.24 12.33) rotate(-6.77)" fill="#62767f"/><path d="M107.45,140.17c3.75.5,11.5,1.5,19.75-1s12.06-9.53,14.41-8.76,2.75,3.8,1.59,7.26c-2.11,6.35-5.95,13.54-14.78,15.07-7.77,1.34-15-1.8-20.37-5.31S103.7,139.67,107.45,140.17Z" fill="#555b53"/><path d="M118.69,111s25.43-11.62,32.76-9.45,2.75,8.6-3.09,14.48-23.7,7.59-23.7,7.59S116.87,115.72,118.69,111Z" fill="url(#72d4e2fe-4ea7-4fb6-9bbc-b783899d52e4)"/><path d="M115.79,142.7s-.14,6.7,3.55,5.3,3.07-5.84,3.07-5.84Z" fill="#d6d8d6"/><path d="M133.64,136.58s2.67,4.43,4.71,1.92-.25-5.12-.25-5.12Z" fill="#d6d8d6"/><ellipse cx="84.72" cy="135.45" rx="33.46" ry="36.14" opacity="0.6" fill="url(#c1567e1c-b3f3-4e85-9bf0-d04f3df4fefd)"/><path d="M95.45,72.17s-4-35,34-56" fill="none" stroke="#0081a7" stroke-miterlimit="10" stroke-width="3"/><path d="M49,92.17s-14.5-31,1.4-59.77" fill="none" stroke="#0081a7" stroke-miterlimit="10" stroke-width="3"/><circle cx="53.45" cy="29.41" r="5.76" fill="none" stroke="#0081a7" stroke-miterlimit="10" stroke-width="3"/><circle cx="133.42" cy="14.64" r="5.47" fill="none" stroke="#0081a7" stroke-miterlimit="10" stroke-width="3"/><path d="M515.2,175.31c-12.92-2.29-15.56-13.71-16.53-15.68s-3.91-4.67-6.3-2.33S489.5,162,491,165.69s5.08,13.38,18,15.68c4.49.79,10.79-.6,15.61-2a40,40,0,0,0,.25,5.11c.4,3.64,2.81,4.88,4.74.35.61-1.42,2.51-4.55,2.77-5.85.77-3.91-2-5.73-5.34-4.73A26.12,26.12,0,0,1,515.2,175.31Z" fill="url(#8009a64c-c64e-4905-bdec-770eebf7b248)"/><circle cx="484.29" cy="138.67" r="44.5" fill="url(#4eeb82c1-4380-489b-86f0-7b3cf27d8a9c)"/><path d="M522.4,92.63a40.84,40.84,0,0,1,22.83,53.05" fill="none" stroke="#a4d3dd" stroke-miterlimit="10" stroke-width="3"/><path d="M531.31,83.54a47.65,47.65,0,0,1,28,61.28" fill="none" stroke="#a4d3dd" stroke-miterlimit="10" stroke-width="3"/><circle cx="328.79" cy="117.17" r="43.5" fill="#bfcc72"/><circle cx="264.79" cy="100.17" r="44" fill="url(#a6b626ca-c4be-437c-aaeb-dd88068fede7)"/><path d="M285.29,117.17a43.26,43.26,0,0,0,4.47,19.22,44,44,0,0,0,14.69-55.28A43.46,43.46,0,0,0,285.29,117.17Z" fill="#6b8c4c" opacity="0.44"/><circle cx="207.29" cy="136.67" r="45.5" fill="#97ceb5"/><path d="M172,110a45.49,45.49,0,0,0,14.83,67.15A46.72,46.72,0,0,0,172,110Z" fill="#284866" opacity="0.37"/><path d="M221.31,93.39a44.62,44.62,0,0,0-.52,6.78,44,44,0,0,0,31.63,42.23,47.13,47.13,0,0,0,.37-5.73A45.51,45.51,0,0,0,221.31,93.39Z" fill="#284866" opacity="0.37"/><path d="M221.31,93.39a44.62,44.62,0,0,0-.52,6.78,44,44,0,0,0,31.63,42.23,47.13,47.13,0,0,0,.37-5.73A45.51,45.51,0,0,0,221.31,93.39Z" fill="#6b8c4c" opacity="0.44"/><path d="M315.45,162.51c-.92-9.65,11.92-11,11.92-11s2.15-3-.51-4.31a8.44,8.44,0,0,0-5.43-.49s-13.78,2.79-12.86,12.45c.32,3.35,3,7.6,5.44,10.78a44.38,44.38,0,0,0-4.54,1.12c-3.17,1-3.73,2.91.78,3.46a59.6,59.6,0,0,0,5.9.89c3.68-.16,4.68-2.5,3-4.68A17,17,0,0,1,315.45,162.51Z" fill="#6b8c4c"/><path d="M455.07,175.46c6-11.65,17.72-10.79,19.88-11.12s5.63-2.35,4.1-5.32-3.64-4.14-7.6-3.85-14.28.88-20.31,12.53c-2.09,4.05-2.63,10.48-2.69,15.5a39.32,39.32,0,0,0-5-1.27c-3.59-.7-5.49,1.23-1.74,4.42,1.18,1,3.61,3.74,4.77,4.38,3.5,1.89,6.07-.23,6.1-3.7A26.13,26.13,0,0,1,455.07,175.46Z" fill="#6b9daa"/><path d="M157.26,191.14c-2-4.58-1.43-8.32.08-11.2,2.53-4.81-5.87-8.26-8.55-3a13.71,13.71,0,0,0-.39,12.28c1.86,4.25,6.68,8.81,10.68,12.1a41.46,41.46,0,0,0-4.32,3c-2.95,2.35-.3,5.39,4.77,4.52a22.78,22.78,0,0,0,6.45-2.16c2.57-1.31,2.21-3.66-.15-5.48C162.88,199,159.16,195.46,157.26,191.14Z" fill="#6b9daa"/><path d="M229.85,174.92a12.55,12.55,0,0,1,1.78-11.11c3.24-4.53-4.58-8.75-8-3.82a14,14,0,0,0-2.25,12.15c1.21,4.39,5.3,9.39,8.77,13a45.76,45.76,0,0,0-4.76,2.61c-3.28,2.05-1.1,5.32,4,4.95a24,24,0,0,0,6.74-1.53c2.75-1,2.75-3.42.68-5.45C234.25,183.23,231.08,179.4,229.85,174.92Z" fill="#5b8c74"/><path d="M269,139c-.8-4.78,1.07-4.07,3.29-6.63,3.7-4.27-3.65-9-7.61-4.34-2.53,3-4.54,5.39-3.71,10.36.74,4.44,7.37,7.85,10.45,11.7a47.09,47.09,0,0,0-5,2.27c-3.49,1.81-1.66,5.19,3.52,5.18a24.42,24.42,0,0,0,6.87-1.06c2.85-.86,3.1-3.21,1.25-5.36C275.73,148.47,269.75,143.55,269,139Z" fill="#6b9daa"/></svg>