<svg version="1.1" width="36" height="36"  viewBox="0 0 36 36" preserveAspectRatio="xMidYMid meet" xmlns="http://www.w3.org/2000/svg" xmlns:xlink="http://www.w3.org/1999/xlink">
    <title>pause-line</title>
    <path class="clr-i-outline clr-i-outline-path-1" d="M12.93,32H6.07A2.07,2.07,0,0,1,4,29.93V6.07A2.07,2.07,0,0,1,6.07,4h6.87A2.07,2.07,0,0,1,15,6.07V29.93A2.07,2.07,0,0,1,12.93,32ZM13,6H6V30h7Z"></path><path class="clr-i-outline clr-i-outline-path-2" d="M29.93,32H23.07A2.07,2.07,0,0,1,21,29.93V6.07A2.07,2.07,0,0,1,23.07,4h6.87A2.07,2.07,0,0,1,32,6.07V29.93A2.07,2.07,0,0,1,29.93,32ZM30,6H23V30h7Z"></path>
    <rect x="0" y="0" width="36" height="36" fill-opacity="0"/>
</svg>