<svg version="1.1" width="36" height="36"  viewBox="0 0 36 36" preserveAspectRatio="xMidYMid meet" xmlns="http://www.w3.org/2000/svg" xmlns:xlink="http://www.w3.org/1999/xlink">
    <title>step-forward-line</title>
    <path class="clr-i-outline clr-i-outline-path-1" d="M5,32.23a2,2,0,0,1-2-2V5.77A2,2,0,0,1,6.17,4.14L23.23,16.38a2,2,0,0,1,0,3.25h0L6.17,31.86A2,2,0,0,1,5,32.23ZM5,5.77V30.23L22.07,18Z"></path><path class="clr-i-outline clr-i-outline-path-2" d="M31,32H28a2,2,0,0,1-2-2V6a2,2,0,0,1,2-2h3a2,2,0,0,1,2,2V30A2,2,0,0,1,31,32ZM28,6V30h3V6Z"></path>
    <rect x="0" y="0" width="36" height="36" fill-opacity="0"/>
</svg>