<?xml version="1.0" encoding="UTF-8" standalone="no"?>
<svg width="367px" height="210px" viewBox="0 0 367 210" version="1.1" xmlns="http://www.w3.org/2000/svg" xmlns:xlink="http://www.w3.org/1999/xlink">
    <!-- Generator: Sketch 41.2 (35397) - http://www.bohemiancoding.com/sketch -->
    <title>Group 11</title>
    <desc>Created with Sketch.</desc>
    <defs>
        <rect id="path-1" x="0" y="0" width="359" height="202" rx="3"></rect>
        <filter x="-50%" y="-50%" width="200%" height="200%" filterUnits="objectBoundingBox" id="filter-2">
            <feMorphology radius="1" operator="dilate" in="SourceAlpha" result="shadowSpreadOuter1"></feMorphology>
            <feOffset dx="0" dy="2" in="shadowSpreadOuter1" result="shadowOffsetOuter1"></feOffset>
            <feGaussianBlur stdDeviation="1" in="shadowOffsetOuter1" result="shadowBlurOuter1"></feGaussianBlur>
            <feColorMatrix values="0 0 0 0 0   0 0 0 0 0   0 0 0 0 0  0 0 0 0.0701992754 0" type="matrix" in="shadowBlurOuter1"></feColorMatrix>
        </filter>
    </defs>
    <g id="Page-1-New-Layout" stroke="none" stroke-width="1" fill="none" fill-rule="evenodd">
        <g id="Jehad's-Version" transform="translate(-297.000000, -1835.000000)">
            <g id="Group-11" transform="translate(301.000000, 1837.000000)">
                <g id="background">
                    <use fill="black" fill-opacity="1" filter="url(#filter-2)" xlink:href="#path-1"></use>
                    <use fill="#FFFFFF" fill-rule="evenodd" xlink:href="#path-1"></use>
                </g>
                <g id="Button/Primary" transform="translate(257.000000, 143.000000)">
                    <rect id="background" fill="#007CBB" x="0" y="0" width="78" height="36" rx="3"></rect>
                    <text id="OK" font-family="Metropolis-SemiBold, Metropolis" font-size="12" font-weight="500" letter-spacing="1" fill="#FFFFFF">
                        <tspan x="28.524" y="22">OK</tspan>
                    </text>
                </g>
                <text id="Would-you-like-to-ad" font-family="Metropolis-Regular, Metropolis" font-size="14" font-weight="normal" line-spacing="24" fill="#565656">
                    <tspan x="24" y="83">Would you like to add the tag “Production” to </tspan>
                    <tspan x="24" y="107">the virtual machine “Palo Alto”?</tspan>
                </text>
                <g id="Icon/Dismiss-modal" transform="translate(321.000000, 24.000000)" fill="#9A9A9A">
                    <path d="M9.17564397,8.00325903 L15.8076322,1.37127084 C16.0794531,1.05386318 16.0611775,0.58071691 15.7656828,0.285222197 C15.4701881,-0.0102725164 14.9970418,-0.0285481049 14.6796342,0.243272848 L8.04764598,6.87526104 L1.41565779,0.235272862 C1.10196061,-0.0784242961 0.593357007,-0.0784242861 0.279659836,0.235272884 C-0.0340373344,0.548970055 -0.0340373444,1.05757366 0.279659814,1.37127084 L6.91964799,8.00325903 L0.279659814,14.6352472 C0.0513592926,14.8307588 -0.048085158,15.137741 0.0222121643,15.429981 C0.0925094865,15.7222209 0.320684101,15.9503955 0.612924042,16.0206929 C0.905163984,16.0909902 1.21214625,15.9915457 1.40765781,15.7632452 L8.04764598,9.13125702 L14.6796342,15.7632452 C14.9970418,16.0350662 15.4701881,16.0167906 15.7656828,15.7212959 C16.0611775,15.4258012 16.0794531,14.9526549 15.8076322,14.6352472 L9.17564397,8.00325903 Z" id="Shape"></path>
                </g>
                <text id="Confirm-adding-a-tag" font-family="Metropolis-Light, Metropolis" font-size="22" font-weight="300" line-spacing="24" fill="#000000">
                    <tspan x="24" y="45">Confirm adding a tag</tspan>
                </text>
            </g>
        </g>
    </g>
</svg>