<svg version="1.1" width="36" height="36"  viewBox="0 0 36 36" preserveAspectRatio="xMidYMid meet" xmlns="http://www.w3.org/2000/svg" xmlns:xlink="http://www.w3.org/1999/xlink">
                <title>bar-chart-solid</title>
                <path class="clr-i-solid clr-i-solid-path-1" d="M33,30H30V7a2,2,0,0,0-2-2H26a2,2,0,0,0-2,2V30H21V12a2,2,0,0,0-2-2H17a2,2,0,0,0-2,2V30H12V18a2,2,0,0,0-2-2H8a2,2,0,0,0-2,2V30H3a1,1,0,0,0,0,2H33a1,1,0,0,0,0-2Z"></path>
                <rect x="0" y="0" width="36" height="36" fill-opacity="0"/>
            </svg>