<svg version="1.1" width="36" height="36"  viewBox="0 0 36 36" preserveAspectRatio="xMidYMid meet" xmlns="http://www.w3.org/2000/svg" xmlns:xlink="http://www.w3.org/1999/xlink">
    <title>camera-line</title>
    <path d="M32,8H24.7L23.64,5.28A2,2,0,0,0,21.78,4H14.22a2,2,0,0,0-1.87,1.28L11.3,8H4a2,2,0,0,0-2,2V30a2,2,0,0,0,2,2H32a2,2,0,0,0,2-2V10A2,2,0,0,0,32,8Zm0,22H4V10h8.67l1.55-4h7.56l1.55,4H32Z" class="clr-i-outline clr-i-outline-path-1"></path><path d="M9,19a9,9,0,1,0,9-9A9,9,0,0,0,9,19Zm16.4,0A7.4,7.4,0,1,1,18,11.6,7.41,7.41,0,0,1,25.4,19Z" class="clr-i-outline clr-i-outline-path-2"></path><path d="M9.37,12.83a.8.8,0,0,0-.8-.8H6.17a.8.8,0,0,0,0,1.6h2.4A.8.8,0,0,0,9.37,12.83Z" class="clr-i-outline clr-i-outline-path-3"></path><path d="M12.34,19a5.57,5.57,0,0,0,3.24,5l.85-1.37a4,4,0,1,1,4.11-6.61l.86-1.38A5.56,5.56,0,0,0,12.34,19Z" class="clr-i-outline clr-i-outline-path-4"></path>
    <rect x="0" y="0" width="36" height="36" fill-opacity="0"/>
</svg>