<?xml version="1.0" encoding="UTF-8" standalone="no"?>
<svg width="864px" height="336px" viewBox="0 0 864 336" version="1.1" xmlns="http://www.w3.org/2000/svg" xmlns:xlink="http://www.w3.org/1999/xlink">
    <!-- Generator: Sketch 44.1 (41455) - http://www.bohemiancoding.com/sketch -->
    <title>img2-states</title>
    <desc>Created with Sketch.</desc>
    <defs>
        <path d="M34,117 L34,213.008306 C34,214.648799 35.3469424,216 37.0084801,216 L378.99152,216 C380.651996,216 382,214.660573 382,213.008306 L382,2.99169366 C382,1.35120093 380.653058,0 378.99152,0 L37.0084801,0 C35.3480038,0 34,1.33942688 34,2.99169366 L34,105 L22,105 L34,117 Z" id="path-1"></path>
    </defs>
    <g id="Page-1" stroke="none" stroke-width="1" fill="none" fill-rule="evenodd">
        <g id="img2-states">
            <g>
                <rect id="Rectangle-8" fill="#EEEEEE" fill-rule="evenodd" x="0" y="0" width="864" height="336"></rect>
                <g id="Group-3" stroke-width="1" fill-rule="evenodd" transform="translate(76.000000, 29.000000)">
                    <rect id="Rectangle-4-Copy" fill="#FAFAFA" x="0" y="0" width="165" height="256"></rect>
                    <text id="Default" font-family="Metropolis-Regular, Metropolis" font-size="12" font-weight="normal" line-spacing="16" fill="#853FB3">
                        <tspan x="0" y="272">Default</tspan>
                    </text>
                    <g id="info-74747" transform="translate(69.000000, 124.000000)" fill="#747474">
                        <g id="Page-1">
                            <path d="M7.95346667,3 C8.4688,3 8.8868,3.418 8.8868,3.93333333 C8.8868,4.44866667 8.4688,4.86666667 7.95346667,4.86666667 C7.43813333,4.86666667 7.02013333,4.44866667 7.02013333,3.93333333 C7.02013333,3.418 7.43813333,3 7.95346667,3" id="Fill-1"></path>
                            <path d="M10,11.3333333 L8.66666667,11.3333333 L8.66666667,6 L6.66666667,6 C6.29866667,6 6,6.29866667 6,6.66666667 C6,7.03466667 6.29866667,7.33333333 6.66666667,7.33333333 L7.33333333,7.33333333 L7.33333333,11.3333333 L6,11.3333333 C5.632,11.3333333 5.33333333,11.6313333 5.33333333,12 C5.33333333,12.3686667 5.632,12.6666667 6,12.6666667 L10,12.6666667 C10.3686667,12.6666667 10.6666667,12.3686667 10.6666667,12 C10.6666667,11.6313333 10.3686667,11.3333333 10,11.3333333" id="Fill-3"></path>
                            <path d="M8,14.6666667 C4.318,14.6666667 1.33333333,11.6813333 1.33333333,8 C1.33333333,4.318 4.318,1.33333333 8,1.33333333 C11.6813333,1.33333333 14.6666667,4.318 14.6666667,8 C14.6666667,11.6813333 11.6813333,14.6666667 8,14.6666667 M8,0 C3.582,0 0,3.582 0,8 C0,12.418 3.582,16 8,16 C12.418,16 16,12.418 16,8 C16,3.582 12.418,0 8,0" id="Fill-5"></path>
                        </g>
                    </g>
                    <text id="French" font-family="Metropolis-Regular, Metropolis" font-size="14" font-weight="normal" line-spacing="24" fill="#565656">
                        <tspan x="24" y="62">French</tspan>
                    </text>
                    <text id="Languages" font-family="Metropolis-Medium, Metropolis" font-size="14" font-weight="400" line-spacing="24" fill="#313131">
                        <tspan x="24" y="32">Languages</tspan>
                    </text>
                    <text id="Spanish" font-family="Metropolis-Regular, Metropolis" font-size="14" font-weight="normal" line-spacing="24" fill="#565656">
                        <tspan x="24" y="86">Spanish</tspan>
                    </text>
                    <text id="Mandarin" font-family="Metropolis-Regular, Metropolis" font-size="14" font-weight="normal" line-spacing="24" fill="#565656">
                        <tspan x="24" y="110">Mandarin</tspan>
                    </text>
                    <text id="Elvish" font-family="Metropolis-Regular, Metropolis" font-size="14" font-weight="normal" line-spacing="24" fill="#565656">
                        <tspan x="24" y="134">Elvish</tspan>
                    </text>
                </g>
                <g id="Group-5" stroke-width="1" fill-rule="evenodd" transform="translate(292.000000, 29.000000)">
                    <rect id="Rectangle-4" fill="#FAFAFA" x="0" y="0" width="496" height="256"></rect>
                    <text id="On-hover---icon-beco" font-family="Metropolis-Regular, Metropolis" font-size="12" font-weight="normal" line-spacing="16" fill="#853FB3">
                        <tspan x="0" y="272">On hover - icon becomes blue</tspan>
                        <tspan x="0" y="288">On click - popover is displayed</tspan>
                    </text>
                    <text id="French" font-family="Metropolis-Regular, Metropolis" font-size="14" font-weight="normal" line-spacing="24" fill="#565656">
                        <tspan x="24" y="62">French</tspan>
                    </text>
                    <text id="Languages" font-family="Metropolis-Medium, Metropolis" font-size="14" font-weight="400" line-spacing="24" fill="#313131">
                        <tspan x="24" y="32">Languages</tspan>
                    </text>
                    <text id="Spanish-Copy" font-family="Metropolis-Regular, Metropolis" font-size="14" font-weight="normal" line-spacing="24" fill="#565656">
                        <tspan x="24" y="86">Spanish</tspan>
                    </text>
                    <text id="Mandarin-Copy" font-family="Metropolis-Regular, Metropolis" font-size="14" font-weight="normal" line-spacing="24" fill="#565656">
                        <tspan x="24" y="110">Mandarin</tspan>
                    </text>
                    <text id="Elvish-Copy" font-family="Metropolis-Regular, Metropolis" font-size="14" font-weight="normal" line-spacing="24" fill="#565656">
                        <tspan x="24" y="134">Elvish</tspan>
                    </text>
                </g>
                <g id="with-title-copy-4" stroke-width="1" fill-rule="evenodd" transform="translate(361.000000, 56.000000)">
                    <g id="Combined-Shape">
                        <use fill="#FFFFFF" fill-rule="evenodd" xlink:href="#path-1"></use>
                        <path stroke="#9A9A9A" stroke-width="1" d="M23.2071068,105.5 L34.5,116.792893 L34.5,213.008306 C34.5,214.3764 35.626841,215.5 37.0084801,215.5 L378.99152,215.5 C380.376872,215.5 381.5,214.383411 381.5,213.008306 L381.5,2.99169366 C381.5,1.62359981 380.373159,0.5 378.99152,0.5 L37.0084801,0.5 C35.6231282,0.5 34.5,1.61658935 34.5,2.99169366 L34.5,105.5 L23.2071068,105.5 Z"></path>
                    </g>
                    <text id="A-fictional-language" font-family="Metropolis-Regular, Metropolis" font-size="14" font-weight="normal" line-spacing="24" fill="#565656">
                        <tspan x="58" y="38">A fictional language created by J. R. R. </tspan>
                        <tspan x="58" y="62">Tolkien, author of The Hobbit and The Lord </tspan>
                        <tspan x="58" y="86">of the Rings. It is spoken by the tribe of </tspan>
                        <tspan x="58" y="110">elves in The Lord of the Rings. This course </tspan>
                        <tspan x="58" y="134">covers basic Quenya — one of the two </tspan>
                        <tspan x="58" y="158">major Elvish dialects.</tspan>
                    </text>
                    <text id="Learn-more" font-family="Metropolis-Regular, Metropolis" font-size="14" font-weight="normal" line-spacing="24" fill="#0079B8">
                        <tspan x="57.9" y="182">Learn more</tspan>
                    </text>
                    <g id="info-0079B8" transform="translate(0.000000, 97.000000)" fill="#0079B8">
                        <g id="Page-1">
                            <path d="M7.95346667,3 C8.4688,3 8.8868,3.418 8.8868,3.93333333 C8.8868,4.44866667 8.4688,4.86666667 7.95346667,4.86666667 C7.43813333,4.86666667 7.02013333,4.44866667 7.02013333,3.93333333 C7.02013333,3.418 7.43813333,3 7.95346667,3" id="Fill-1"></path>
                            <path d="M10,11.3333333 L8.66666667,11.3333333 L8.66666667,6 L6.66666667,6 C6.29866667,6 6,6.29866667 6,6.66666667 C6,7.03466667 6.29866667,7.33333333 6.66666667,7.33333333 L7.33333333,7.33333333 L7.33333333,11.3333333 L6,11.3333333 C5.632,11.3333333 5.33333333,11.6313333 5.33333333,12 C5.33333333,12.3686667 5.632,12.6666667 6,12.6666667 L10,12.6666667 C10.3686667,12.6666667 10.6666667,12.3686667 10.6666667,12 C10.6666667,11.6313333 10.3686667,11.3333333 10,11.3333333" id="Fill-3"></path>
                            <path d="M8,14.6666667 C4.318,14.6666667 1.33333333,11.6813333 1.33333333,8 C1.33333333,4.318 4.318,1.33333333 8,1.33333333 C11.6813333,1.33333333 14.6666667,4.318 14.6666667,8 C14.6666667,11.6813333 11.6813333,14.6666667 8,14.6666667 M8,0 C3.582,0 0,3.582 0,8 C0,12.418 3.582,16 8,16 C12.418,16 16,12.418 16,8 C16,3.582 12.418,0 8,0" id="Fill-5"></path>
                        </g>
                    </g>
                    <path d="M370,21 L366,17 L370,13 C369.875144,13.0363581 369.875144,12.5379666 370,12 C369.272632,11.9231476 368.784217,11.9231476 368,12 L365,16 L362,12 C361.215783,11.9231476 360.727368,11.9231476 360,12 C360.124856,12.5379666 360.124856,13.0363581 360,13 L364,17 L360,21 C359.924686,20.9636419 359.924686,21.4620334 360,22 C360.527198,22.0768524 361.015613,22.0768524 361,22 L365,18 L369,22 C368.984387,22.0768524 369.472802,22.0768524 370,22 C370.075314,21.4620334 370.075314,20.9636419 370,21" id="Fill-1" fill="#747474"></path>
                </g>
                <g id="arrow-right" transform="translate(247.000000, 146.000000)" stroke="#853FB3" stroke-width="1" stroke-linecap="square">
                    <path d="M2.1171875,9.5 L37.50641,9.5" id="Line"></path>
                    <polyline id="Triangle" points="26 0 38 9.5 38 9.5 26 19"></polyline>
                </g>
            </g>
        </g>
    </g>
</svg>