<svg width="160" height="100" viewBox="0 0 160 100" fill="none" xmlns="http://www.w3.org/2000/svg">
<path fill-rule="evenodd" clip-rule="evenodd" d="M37.9995 49.9961C37.9995 44.4732 42.4767 39.9961 47.9995 39.9961C50.6517 39.9961 53.1952 41.0497 55.0706 42.925C56.9459 44.8004 57.9995 47.3439 57.9995 49.9961C57.9995 55.5189 53.5224 59.9961 47.9995 59.9961C42.4767 59.9961 37.9995 55.5189 37.9995 49.9961ZM46.9162 50.6364C46.9162 51.2347 47.4013 51.7197 47.9996 51.7197C48.5979 51.7197 49.0829 51.2347 49.0829 50.6364V45.6364C49.0829 45.038 48.5979 44.553 47.9996 44.553C47.4013 44.553 46.9162 45.038 46.9162 45.6364V50.6364ZM47.9995 58.33C43.3971 58.33 39.6662 54.599 39.6662 49.9967C39.6662 45.3943 43.3971 41.6633 47.9995 41.6633C52.6019 41.6633 56.3328 45.3943 56.3328 49.9967C56.3328 52.2068 55.4549 54.3264 53.8921 55.8892C52.3293 57.452 50.2096 58.33 47.9995 58.33ZM49.2078 54.1797C49.2078 54.87 48.6482 55.4297 47.9578 55.4297C47.2675 55.4297 46.7078 54.87 46.7078 54.1797C46.7078 53.4893 47.2675 52.9297 47.9578 52.9297C48.6482 52.9297 49.2078 53.4893 49.2078 54.1797Z" fill="#FF5233"/>
<path fill-rule="evenodd" clip-rule="evenodd" d="M82.1577 41.3361L90.2743 56.2861V56.3111C90.6946 57.0862 90.6755 58.0253 90.2242 58.7826C89.7729 59.54 88.956 60.0036 88.0743 60.0028H71.841C70.9518 60.0085 70.1265 59.5415 69.6736 58.7763C69.2207 58.0111 69.2082 57.0629 69.641 56.2861L77.766 41.3361C78.2038 40.5319 79.0462 40.0312 79.9618 40.0312C80.8775 40.0312 81.7199 40.5319 82.1577 41.3361ZM88.0744 58.31C88.3686 58.31 88.641 58.1548 88.791 57.9017C88.9419 57.6489 88.9482 57.3353 88.8077 57.0767L80.691 42.1267C80.5456 41.8572 80.264 41.6892 79.9577 41.6892C79.6514 41.6892 79.3698 41.8572 79.2244 42.1267L71.1077 57.0767C70.9662 57.3352 70.9718 57.6493 71.1225 57.9026C71.2731 58.1559 71.5463 58.3108 71.841 58.31H88.0744ZM79.9577 56.4789C80.648 56.4789 81.2077 55.9192 81.2077 55.2289C81.2077 54.5385 80.648 53.9789 79.9577 53.9789C79.2673 53.9789 78.7077 54.5385 78.7077 55.2289C78.7077 55.9192 79.2673 56.4789 79.9577 56.4789ZM81.0827 51.6856C81.0827 52.2839 80.5976 52.7689 79.9993 52.7689C79.7091 52.7689 79.431 52.6525 79.2274 52.4457C79.0237 52.239 78.9115 51.9591 78.916 51.6689V46.6689C78.916 46.0706 79.401 45.5856 79.9993 45.5856C80.5976 45.5856 81.0827 46.0706 81.0827 46.6689V51.6856Z" fill="#C68D20"/>
<path fill-rule="evenodd" clip-rule="evenodd" d="M102 49.9961C102 44.4732 106.477 39.9961 112 39.9961C114.652 39.9961 117.195 41.0497 119.071 42.925C120.946 44.8004 122 47.3439 122 49.9961C122 55.5189 117.522 59.9961 112 59.9961C106.477 59.9961 102 55.5189 102 49.9961ZM113.108 44.9141C113.108 45.5584 112.586 46.0807 111.941 46.0807C111.297 46.0807 110.775 45.5584 110.775 44.9141C110.775 44.2697 111.297 43.7474 111.941 43.7474C112.586 43.7474 113.108 44.2697 113.108 44.9141ZM112 58.33C107.397 58.33 103.666 54.599 103.666 49.9967C103.666 45.3943 107.397 41.6633 112 41.6633C116.602 41.6633 120.333 45.3943 120.333 49.9967C120.333 52.2068 119.455 54.3264 117.892 55.8892C116.329 57.452 114.21 58.33 112 58.33ZM112.833 54.1623H114.499C114.96 54.1623 115.333 54.5353 115.333 54.9956C115.333 55.4558 114.96 55.8289 114.499 55.8289H109.499C109.039 55.8289 108.666 55.4558 108.666 54.9956C108.666 54.5353 109.039 54.1623 109.499 54.1623H111.166V49.1623H110.333C109.873 49.1623 109.499 48.7892 109.499 48.3289C109.499 47.8687 109.873 47.4956 110.333 47.4956H112.833V54.1623Z" fill="#58A6DE"/>
</svg>
