<svg width="86" height="29" viewBox="0 0 86 29" fill="none" xmlns="http://www.w3.org/2000/svg">
<path fill-rule="evenodd" clip-rule="evenodd" d="M4.77783 14.3333C4.77783 9.05594 9.056 4.77777 14.3334 4.77777C16.8677 4.77777 19.2982 5.78451 21.0902 7.57653C22.8822 9.36854 23.8889 11.799 23.8889 14.3333C23.8889 19.6107 19.6108 23.8889 14.3334 23.8889C9.056 23.8889 4.77783 19.6107 4.77783 14.3333ZM13.2983 14.9465C13.2983 15.5182 13.7618 15.9816 14.3335 15.9816C14.9052 15.9816 15.3687 15.5182 15.3687 14.9465V10.1687C15.3687 9.59696 14.9052 9.1335 14.3335 9.1335C13.7618 9.1335 13.2983 9.59696 13.2983 10.1687V14.9465ZM14.3333 22.2963C9.93551 22.2963 6.37037 18.7312 6.37037 14.3333C6.37037 9.93551 9.93551 6.37037 14.3333 6.37037C18.7312 6.37037 22.2963 9.93551 22.2963 14.3333C22.2963 16.4452 21.4573 18.4707 19.964 19.964C18.4707 21.4573 16.4452 22.2963 14.3333 22.2963ZM15.4881 18.3308C15.4881 18.9904 14.9533 19.5252 14.2937 19.5252C13.634 19.5252 13.0992 18.9904 13.0992 18.3308C13.0992 17.6711 13.634 17.1363 14.2937 17.1363C14.9533 17.1363 15.4881 17.6711 15.4881 18.3308Z" fill="#EC5144"/>
<path fill-rule="evenodd" clip-rule="evenodd" d="M45.0622 6.05188L52.8181 20.3374V20.3613C53.2197 21.1019 53.2015 21.9993 52.7702 22.723C52.3389 23.4467 51.5583 23.8897 50.7159 23.8889H35.204C34.3544 23.8944 33.5658 23.4481 33.133 22.7169C32.7001 21.9857 32.6883 21.0797 33.1018 20.3374L40.8657 6.05188C41.284 5.28335 42.089 4.80499 42.9639 4.80499C43.8389 4.80499 44.6439 5.28335 45.0622 6.05188ZM50.7162 22.2724C50.9973 22.2724 51.2576 22.1241 51.401 21.8823C51.5451 21.6407 51.5512 21.3411 51.4169 21.0939L43.661 6.80837C43.522 6.55083 43.2529 6.3903 42.9602 6.3903C42.6676 6.3903 42.3985 6.55083 42.2595 6.80837L34.5036 21.0939C34.3684 21.341 34.3737 21.6411 34.5177 21.8831C34.6616 22.1252 34.9227 22.2732 35.2043 22.2724H50.7162ZM42.9602 20.5206C43.6199 20.5206 44.1546 19.9858 44.1546 19.3261C44.1546 18.6665 43.6199 18.1317 42.9602 18.1317C42.3005 18.1317 41.7657 18.6665 41.7657 19.3261C41.7657 19.9858 42.3005 20.5206 42.9602 20.5206ZM44.0353 15.9419C44.0353 16.5136 43.5718 16.977 43.0001 16.977C42.7228 16.9771 42.457 16.8658 42.2624 16.6682C42.0678 16.4706 41.9607 16.2032 41.9649 15.9259V11.1482C41.9649 10.5764 42.4284 10.113 43.0001 10.113C43.5718 10.113 44.0353 10.5764 44.0353 11.1482V15.9419Z" fill="#C68D20"/>
<path fill-rule="evenodd" clip-rule="evenodd" d="M62.1113 14.3333C62.1113 9.05594 66.3895 4.77777 71.6669 4.77777C74.2012 4.77777 76.6317 5.78451 78.4237 7.57653C80.2157 9.36854 81.2224 11.799 81.2224 14.3333C81.2224 19.6107 76.9443 23.8889 71.6669 23.8889C66.3895 23.8889 62.1113 19.6107 62.1113 14.3333ZM72.7257 9.47593C72.7257 10.0916 72.2266 10.5907 71.6109 10.5907C70.9952 10.5907 70.4961 10.0916 70.4961 9.47593C70.4961 8.86023 70.9952 8.36111 71.6109 8.36111C72.2266 8.36111 72.7257 8.86023 72.7257 9.47593ZM71.6668 22.2963C67.269 22.2963 63.7039 18.7312 63.7039 14.3333C63.7039 9.93551 67.269 6.37037 71.6668 6.37037C76.0647 6.37037 79.6298 9.93551 79.6298 14.3333C79.6298 16.4452 78.7908 18.4707 77.2975 19.964C75.8041 21.4573 73.7787 22.2963 71.6668 22.2963ZM72.4631 18.3148H74.0557C74.4955 18.3148 74.852 18.6713 74.852 19.1111C74.852 19.5509 74.4955 19.9074 74.0557 19.9074H69.2779C68.8382 19.9074 68.4816 19.5509 68.4816 19.1111C68.4816 18.6713 68.8382 18.3148 69.2779 18.3148H70.8705V13.537H70.0742C69.6345 13.537 69.2779 13.1805 69.2779 12.7407C69.2779 12.301 69.6345 11.9444 70.0742 11.9444H72.4631V18.3148Z" fill="#58A6DE"/>
</svg>
