<svg width="160" height="100" fill="none" xmlns="http://www.w3.org/2000/svg"><path fill="#F3F5F7" d="M31.5 12.512h97v18h-97z"/><rect x="38.5" y="21.512" width="40" height="2" rx="1" fill="#A9B7C6"/><path stroke="#435970" stroke-linecap="round" d="M32 30.528h96m-7.62-10.65-3.394 3.394-3.394-3.394"/><path stroke="#435970" d="M31.5 30.528h97"/><g filter="url(#combobox__a)"><rect x="31.5" y="35.512" width="80" height="51.976" rx="2" fill="#fff"/><rect x="32" y="36.012" width="79" height="50.976" rx="1.5" stroke="#A9B7C6"/></g><path d="M38.5 55.512a1 1 0 0 1 1-1h58a1 1 0 0 1 0 2h-58a1 1 0 0 1-1-1Zm0 10a1 1 0 0 1 1-1h45a1 1 0 0 1 0 2h-45a1 1 0 0 1-1-1Zm0 10a1 1 0 0 1 1-1h54a1 1 0 0 1 0 2h-54a1 1 0 0 1-1-1Zm0-30a1 1 0 0 1 1-1h48a1 1 0 1 1 0 2h-48a1 1 0 0 1-1-1Z" fill="#C5CED8" opacity=".5"/><defs><filter id="combobox__a" x="27.5" y="33.512" width="88" height="59.976" filterUnits="userSpaceOnUse" color-interpolation-filters="sRGB"><feFlood flood-opacity="0" result="BackgroundImageFix"/><feColorMatrix in="SourceAlpha" values="0 0 0 0 0 0 0 0 0 0 0 0 0 0 0 0 0 0 127 0" result="hardAlpha"/><feOffset dy="2"/><feGaussianBlur stdDeviation="2"/><feColorMatrix values="0 0 0 0 0.579757 0 0 0 0 0.632335 0 0 0 0 0.66191 0 0 0 0.3 0"/><feBlend in2="BackgroundImageFix" result="effect1_dropShadow_1410_2172"/><feBlend in="SourceGraphic" in2="effect1_dropShadow_1410_2172" result="shape"/></filter></defs></svg>