<svg width="160" height="100" viewBox="0 0 160 100" fill="none" xmlns="http://www.w3.org/2000/svg">
<g filter="url(#filter0_d_2215:3875)">
<rect x="13.9995" y="49" width="129" height="24" rx="2" fill="white"/>
<rect x="14.4995" y="49.5" width="128" height="23" rx="1.5" stroke="#ACB9BE"/>
</g>
<path d="M26.9995 63.8819H27.8645V57.1181H26.9995V63.8819Z" fill="#4F6169"/>
<path d="M32.0702 63.1336C31.9482 63.2518 31.7264 63.3404 31.4714 63.3404C31.1387 63.3404 30.8503 63.0745 30.8503 62.7004V59.4515H32.2588V58.7918H30.8503V57.3938H30.0186V58.7918H29.1203V59.4515H30.0186V62.7004C30.0186 63.4585 30.5952 64 31.4159 64C31.8041 64 32.1811 63.8819 32.4806 63.6751L32.0702 63.1336Z" fill="#4F6169"/>
<path d="M35.908 63.3404C34.7769 63.3404 33.9895 62.6118 33.8675 61.6174H38.5585C38.5585 59.8354 37.5715 58.6737 35.8415 58.6737C34.3 58.6737 33.0135 59.8059 33.0135 61.3221C33.0135 62.8875 34.3887 64 35.9191 64C36.7176 64 37.7268 63.6948 38.2258 63.2124L37.7157 62.73C37.3608 63.0745 36.5845 63.3404 35.908 63.3404ZM35.8748 59.3333C37.017 59.3333 37.627 60.0422 37.7379 60.9578H33.8786C34.0338 59.9733 34.8545 59.3333 35.8748 59.3333Z" fill="#4F6169"/>
<path d="M45.9705 58.6737C45.0611 58.6737 44.3513 59.166 44.1739 59.8847C43.8855 59.1463 43.1758 58.6737 42.2664 58.6737C41.5123 58.6737 40.8912 59.0084 40.6029 59.5401V58.7918H39.7711V63.8819H40.6029V60.6428C40.6029 59.8748 41.2461 59.3333 42.1555 59.3333C42.9318 59.3333 43.4752 59.9142 43.4752 60.7412V63.8819H44.307V60.6428C44.307 59.8748 44.9502 59.3333 45.8596 59.3333C46.6359 59.3333 47.1793 59.9142 47.1793 60.7412V63.8819H48.011V60.6428C48.011 59.4909 47.1682 58.6737 45.9705 58.6737Z" fill="#4F6169"/>
<path d="M53.4599 63.8819H54.3249V57.1181H53.6262L51.752 58.2504L52.1291 58.8214L53.4599 58.0534V63.8819Z" fill="#4F6169"/>
<path d="M55.6863 63.8819H60.943V63.1533H57.0725L59.0687 61.6174C60.3552 60.6329 60.8653 59.9044 60.8653 58.9887C60.8653 57.7778 59.7563 57 58.4366 57C57.2389 57 56.385 57.5021 55.7528 58.2996L56.3628 58.7426C56.884 58.1125 57.5161 57.6892 58.4033 57.6892C59.2129 57.6892 59.9892 58.1716 59.9892 58.9986C59.9892 59.6681 59.5456 60.3179 58.4699 61.135L55.6863 63.2419V63.8819Z" fill="#4F6169"/>
<path d="M64.5002 64C66.0861 64 67.1507 63.1828 67.1507 62.0506C67.1507 61.0759 66.2857 60.5738 65.5094 60.4163C66.2968 60.2096 66.9844 59.6976 66.9844 58.8312C66.9844 57.7482 65.9197 57 64.4669 57C63.2803 57 62.4375 57.512 61.8608 58.1913L62.4375 58.654C62.9809 58.0731 63.5798 57.699 64.4226 57.699C65.3763 57.699 66.1083 58.211 66.1083 58.9198C66.1083 59.6878 65.3431 60.121 64.3228 60.1111L63.5021 60.1013V60.8101H64.3117C65.5094 60.8101 66.2746 61.2138 66.2746 62.0113C66.2746 62.7792 65.5649 63.301 64.5002 63.301C63.5687 63.301 62.8256 62.9072 62.3266 62.3361L61.7277 62.8383C62.2822 63.488 63.247 64 64.5002 64Z" fill="#4F6169"/>
<path d="M71.8791 63.8819H72.7442V62.2377H73.8864V61.5387H72.7442V57.1181H71.7461L67.9644 61.5977L68.0753 62.2377H71.8791V63.8819ZM68.9514 61.5387L71.8791 58.0436V61.5387H68.9514Z" fill="#4F6169"/>
<path d="M77.2935 64C78.8572 64 79.9995 63.1139 79.9995 61.775C79.9995 60.436 78.8572 59.6681 77.4821 59.6681C76.7834 59.6681 76.2622 59.8748 75.8518 60.121L75.9295 57.8467H79.5892V57.1181H75.0866L74.9757 60.5935L75.6079 60.8692C76.0847 60.5541 76.6503 60.3474 77.3046 60.3474C78.3693 60.3474 79.1234 60.9381 79.1234 61.8045C79.1234 62.661 78.3804 63.3108 77.3268 63.3108C76.484 63.3108 75.7631 62.9367 75.1754 62.3657L74.6098 62.9269C75.2308 63.557 76.118 64 77.2935 64Z" fill="#4F6169"/>
<rect width="117" height="24" transform="translate(14 22)" fill="#F1F6F8"/>
<line x1="14.5" y1="46.0156" x2="130.5" y2="46.0156" stroke="#2D4048" stroke-linecap="round"/>
<path d="M124.394 32.3047L121 35.6988L117.606 32.3047" stroke="#2D4048"/>
<rect x="40.0803" y="26" width="1" height="14" fill="#2D4048"/>
<path d="M23.848 37.2943H24.784V29.0503H24.028L22 30.4303L22.408 31.1263L23.848 30.1903V37.2943Z" fill="#2D4048"/>
<path d="M26.2571 37.2943H31.9451V36.4062H27.7571L29.9171 34.5343C31.3091 33.3343 31.8611 32.4463 31.8611 31.3303C31.8611 29.8543 30.6611 28.9062 29.2331 28.9062C27.9371 28.9062 27.0131 29.5182 26.3291 30.4902L26.9891 31.0303C27.5531 30.2623 28.2371 29.7463 29.1971 29.7463C30.0731 29.7463 30.9131 30.3342 30.9131 31.3422C30.9131 32.1582 30.4331 32.9502 29.2691 33.9462L26.2571 36.5143V37.2943Z" fill="#2D4048"/>
<path d="M35.7942 37.4382C37.5102 37.4382 38.6622 36.4423 38.6622 35.0623C38.6622 33.8742 37.7262 33.2623 36.8862 33.0703C37.7382 32.8183 38.4822 32.1943 38.4822 31.1383C38.4822 29.8183 37.3302 28.9062 35.7582 28.9062C34.4742 28.9062 33.5622 29.5303 32.9382 30.3583L33.5622 30.9223C34.1502 30.2143 34.7982 29.7583 35.7102 29.7583C36.7422 29.7583 37.5342 30.3822 37.5342 31.2463C37.5342 32.1823 36.7062 32.7102 35.6022 32.6982L34.7142 32.6863V33.5503H35.5902C36.8862 33.5503 37.7142 34.0423 37.7142 35.0143C37.7142 35.9503 36.9462 36.5863 35.7942 36.5863C34.7862 36.5863 33.9822 36.1063 33.4422 35.4103L32.7942 36.0223C33.3942 36.8142 34.4382 37.4382 35.7942 37.4382Z" fill="#2D4048"/>
<defs>
<filter id="filter0_d_2215:3875" x="9.99951" y="47" width="137" height="32" filterUnits="userSpaceOnUse" color-interpolation-filters="sRGB">
<feFlood flood-opacity="0" result="BackgroundImageFix"/>
<feColorMatrix in="SourceAlpha" type="matrix" values="0 0 0 0 0 0 0 0 0 0 0 0 0 0 0 0 0 0 127 0" result="hardAlpha"/>
<feOffset dy="2"/>
<feGaussianBlur stdDeviation="2"/>
<feColorMatrix type="matrix" values="0 0 0 0 0 0 0 0 0 0 0 0 0 0 0 0 0 0 0.15 0"/>
<feBlend mode="normal" in2="BackgroundImageFix" result="effect1_dropShadow_2215:3875"/>
<feBlend mode="normal" in="SourceGraphic" in2="effect1_dropShadow_2215:3875" result="shape"/>
</filter>
</defs>
</svg>
