<svg width="119" height="72" viewBox="0 0 119 72" fill="none" xmlns="http://www.w3.org/2000/svg">
<path d="M0.5 2.23125C0.5 1.2751 1.27511 0.5 2.23125 0.5H116.769C117.725 0.5 118.5 1.27511 118.5 2.23125V69.77C118.5 70.7254 117.725 71.5 116.77 71.5H2.23C1.27455 71.5 0.5 70.7254 0.5 69.77V2.23125Z" fill="#F2F2F2" stroke="#A7A7A7"/>
<rect x="1" y="11" width="117" height="52" fill="white"/>
<line x1="0.743652" y1="10.6281" x2="118.256" y2="10.6281" stroke="#D3D3D3" stroke-width="0.74375"/>
<line x1="0.743652" y1="62.6281" x2="118.256" y2="62.6281" stroke="#D3D3D3" stroke-width="0.74375"/>
<rect opacity="0.4" width="34" height="2" rx="0.600219" transform="matrix(1 0 0 -1 65 21)" fill="#A7A7A7"/>
<rect opacity="0.4" width="12.4596" height="2" rx="0.600219" transform="matrix(1 0 0 -1 36.5776 21)" fill="#A7A7A7"/>
<rect opacity="0.4" width="19" height="2" rx="0.600219" transform="matrix(1 0 0 -1 8 21)" fill="#A7A7A7"/>
<rect x="1" y="26" width="117" height="10" fill="#D5EAF8"/>
<rect opacity="0.8" width="38.8447" height="2" rx="0.600219" transform="matrix(1 0 0 -1 65.1553 32)" fill="#A7A7A7"/>
<rect opacity="0.8" width="16" height="2" rx="0.600219" transform="matrix(1 0 0 -1 37 32)" fill="#A7A7A7"/>
<rect opacity="0.8" width="14.7815" height="2" rx="0.600219" transform="matrix(1 0 0 -1 8 32)" fill="#A7A7A7"/>
<rect opacity="0.4" width="36" height="2" rx="0.600219" transform="matrix(1 0 0 -1 65 43)" fill="#A7A7A7"/>
<rect opacity="0.4" width="13" height="2" rx="0.600219" transform="matrix(1 0 0 -1 37 43)" fill="#A7A7A7"/>
<rect opacity="0.4" width="17" height="2" rx="0.600219" transform="matrix(1 0 0 -1 8 43)" fill="#A7A7A7"/>
<rect opacity="0.4" width="31" height="2" rx="0.600219" transform="matrix(1 0 0 -1 65 54)" fill="#A7A7A7"/>
<rect opacity="0.4" width="10" height="2" rx="0.600219" transform="matrix(1 0 0 -1 37 54)" fill="#A7A7A7"/>
<rect opacity="0.4" width="13" height="2" rx="0.600219" transform="matrix(1 0 0 -1 8 54)" fill="#A7A7A7"/>
<rect opacity="0.6" width="21.5687" height="0.740741" rx="0.37037" transform="matrix(1 0 0 -1 66 7)" fill="#3A3A3A"/>
<rect opacity="0.6" width="12.6437" height="0.740741" rx="0.37037" transform="matrix(1 0 0 -1 37 7)" fill="#3A3A3A"/>
<rect opacity="0.6" width="11.1562" height="0.740741" rx="0.37037" transform="matrix(1 0 0 -1 8.18115 7)" fill="#3A3A3A"/>
</svg>
