<svg width="106" height="97" viewBox="0 0 106 97" fill="none" xmlns="http://www.w3.org/2000/svg">
<g filter="url(#filter0_d)">
<rect x="4" y="1" width="98" height="89" rx="3" fill="white"/>
<rect x="4.5" y="1.5" width="97" height="88" rx="2.5" stroke="#A7A7A7"/>
</g>
<rect opacity="0.4" x="18" y="10" width="37" height="2" rx="1" fill="#A7A7A7"/>
<rect x="61" y="36" width="16" height="16" fill="#D5EAF8"/>
<rect opacity="0.4" x="19" y="26" width="4" height="4" fill="#A7A7A7"/>
<rect opacity="0.4" x="19" y="41" width="4" height="4" fill="#A7A7A7"/>
<rect opacity="0.4" x="19" y="56" width="4" height="4" fill="#A7A7A7"/>
<rect opacity="0.4" x="19" y="71" width="4" height="4" fill="#A7A7A7"/>
<rect opacity="0.4" x="35" y="26" width="4" height="4" fill="#A7A7A7"/>
<rect opacity="0.4" x="35" y="41" width="4" height="4" fill="#A7A7A7"/>
<rect opacity="0.4" x="35" y="56" width="4" height="4" fill="#A7A7A7"/>
<rect opacity="0.4" x="35" y="71" width="4" height="4" fill="#A7A7A7"/>
<rect opacity="0.4" x="51" y="26" width="4" height="4" fill="#A7A7A7"/>
<rect opacity="0.4" x="51" y="41" width="4" height="4" fill="#A7A7A7"/>
<rect opacity="0.4" x="51" y="56" width="4" height="4" fill="#A7A7A7"/>
<rect opacity="0.4" x="51" y="71" width="4" height="4" fill="#A7A7A7"/>
<rect opacity="0.4" x="67" y="26" width="4" height="4" fill="#A7A7A7"/>
<rect opacity="0.4" x="67" y="41" width="4" height="4" fill="#A7A7A7"/>
<rect opacity="0.4" x="67" y="56" width="4" height="4" fill="#A7A7A7"/>
<rect opacity="0.4" x="83" y="26" width="4" height="4" fill="#A7A7A7"/>
<rect opacity="0.4" x="83" y="41" width="4" height="4" fill="#A7A7A7"/>
<rect opacity="0.4" x="83" y="56" width="4" height="4" fill="#A7A7A7"/>
<defs>
<filter id="filter0_d" x="0" y="0" width="106" height="97" filterUnits="userSpaceOnUse" color-interpolation-filters="sRGB">
<feFlood flood-opacity="0" result="BackgroundImageFix"/>
<feColorMatrix in="SourceAlpha" type="matrix" values="0 0 0 0 0 0 0 0 0 0 0 0 0 0 0 0 0 0 127 0"/>
<feOffset dy="3"/>
<feGaussianBlur stdDeviation="2"/>
<feColorMatrix type="matrix" values="0 0 0 0 0 0 0 0 0 0 0 0 0 0 0 0 0 0 0.15 0"/>
<feBlend mode="normal" in2="BackgroundImageFix" result="effect1_dropShadow"/>
<feBlend mode="normal" in="SourceGraphic" in2="effect1_dropShadow" result="shape"/>
</filter>
</defs>
</svg>
