<svg width="160" height="104" fill="none" xmlns="http://www.w3.org/2000/svg"><g filter="url(#dropdown__a)"><rect x="42.918" y="18.387" width="74.163" height="79.225" rx="2" fill="#fff"/><rect x="43.418" y="18.887" width="73.163" height="78.225" rx="1.5" stroke="#A9B7C6"/></g><path d="M53.918 30.837c0-.8.65-1.45 1.45-1.45h38.1c.8 0 1.45.65 1.45 1.45v.1c0 .801-.65 1.45-1.45 1.45h-38.1c-.8 0-1.45-.649-1.45-1.45v-.1Zm0 11c0-.8.65-1.45 1.45-1.45h38.1c.8 0 1.45.65 1.45 1.45v.1c0 .801-.65 1.45-1.45 1.45h-38.1c-.8 0-1.45-.649-1.45-1.45v-.1Zm0 11c0-.8.65-1.45 1.45-1.45h38.1c.8 0 1.45.65 1.45 1.45v.1c0 .801-.65 1.45-1.45 1.45h-38.1c-.8 0-1.45-.649-1.45-1.45v-.1Zm0 11c0-.8.65-1.45 1.45-1.45h38.1c.8 0 1.45.65 1.45 1.45v.1c0 .801-.65 1.45-1.45 1.45h-38.1c-.8 0-1.45-.649-1.45-1.45v-.1Zm0 11c0-.8.65-1.45 1.45-1.45h46.1c.801 0 1.45.65 1.45 1.45v.1a1.45 1.45 0 0 1-1.45 1.45h-46.1c-.8 0-1.45-.649-1.45-1.45v-.1Zm0 11c0-.8.65-1.45 1.45-1.45h35.1c.8 0 1.45.65 1.45 1.45v.1c0 .801-.65 1.45-1.45 1.45h-35.1c-.8 0-1.45-.649-1.45-1.45v-.1Z" fill="#C5CED8" opacity=".5"/><rect x="42.918" y="2.387" width="50" height="14" rx="1" fill="#47A6D7"/><path d="m89.025 8.63-2.091 2.151-2.091-2.151" stroke="#fff" stroke-linecap="round"/><defs><filter id="dropdown__a" x="38.918" y="16.387" width="82.163" height="87.225" filterUnits="userSpaceOnUse" color-interpolation-filters="sRGB"><feFlood flood-opacity="0" result="BackgroundImageFix"/><feColorMatrix in="SourceAlpha" values="0 0 0 0 0 0 0 0 0 0 0 0 0 0 0 0 0 0 127 0" result="hardAlpha"/><feOffset dy="2"/><feGaussianBlur stdDeviation="2"/><feColorMatrix values="0 0 0 0 0.579757 0 0 0 0 0.632335 0 0 0 0 0.66191 0 0 0 0.3 0"/><feBlend in2="BackgroundImageFix" result="effect1_dropShadow_1410_2111"/><feBlend in="SourceGraphic" in2="effect1_dropShadow_1410_2111" result="shape"/></filter></defs></svg>