<svg width="160" height="100" viewBox="0 0 160 100" fill="none" xmlns="http://www.w3.org/2000/svg">
<path d="M82 23C82 22.4477 82.4477 22 83 22H135C135.552 22 136 22.4477 136 23C136 23.5523 135.552 24 135 24H83C82.4477 24 82 23.5523 82 23Z" fill="#A9B7C6"/>
<line x1="79" y1="28.5" x2="139" y2="28.5" stroke="#22343C"/>
<path d="M21 23C21 22.4477 21.4477 22 22 22H64C64.5523 22 65 22.4477 65 23C65 23.5523 64.5523 24 64 24H22C21.4477 24 21 23.5523 21 23Z" fill="#C5CED8"/>
<path d="M82 47C82 46.4477 82.4477 46 83 46H125C125.552 46 126 46.4477 126 47C126 47.5523 125.552 48 125 48H83C82.4477 48 82 47.5523 82 47Z" fill="#A9B7C6"/>
<line x1="79" y1="52.5" x2="139" y2="52.5" stroke="#22343C"/>
<path d="M21 47C21 46.4477 21.4477 46 22 46H64C64.5523 46 65 46.4477 65 47C65 47.5523 64.5523 48 64 48H22C21.4477 48 21 47.5523 21 47Z" fill="#C5CED8"/>
<path d="M82 71C82 70.4477 82.4477 70 83 70H100C100.552 70 101 70.4477 101 71C101 71.5523 100.552 72 100 72H83C82.4477 72 82 71.5523 82 71Z" fill="#A9B7C6"/>
<line x1="79" y1="76.5" x2="105" y2="76.5" stroke="#22343C"/>
<path d="M21 71C21 70.4477 21.4477 70 22 70H64C64.5523 70 65 70.4477 65 71C65 71.5523 64.5523 72 64 72H22C21.4477 72 21 71.5523 21 71Z" fill="#C5CED8"/>
</svg>
