<svg width="160" height="100" fill="none" xmlns="http://www.w3.org/2000/svg"><path d="M43.546 27.517a1.443 1.443 0 1 0 0-2.885 1.443 1.443 0 0 0 0 2.885Zm8.765 0a1.443 1.443 0 1 0 0-2.885 1.443 1.443 0 0 0 0 2.885Zm3.899-17.074a.64.64 0 0 0-.494-.237h-13.35l.417 1.282h12.093l-1.712 7.694h-9.617l-2.93-9.277a.641.641 0 0 0-.424-.417l-2.628-.808a.644.644 0 1 0-.379 1.231l2.302.705 2.943 9.297-1.02.86-.083.083a1.706 1.706 0 0 0-.083 2.173 1.77 1.77 0 0 0 1.449.641h10.7a.641.641 0 0 0 0-1.282H42.592a.43.43 0 0 1-.417-.443.513.513 0 0 1 .058-.198l1.545-1.282h9.9a.642.642 0 0 0 .64-.5l2.033-8.977a.642.642 0 0 0-.14-.545ZM80.275 17.9a4.489 4.489 0 1 0 0-8.978 4.489 4.489 0 0 0 0 8.977Zm0-7.694a3.206 3.206 0 1 1 0 6.412 3.206 3.206 0 0 1 0-6.412Zm7.995 12.419a11.009 11.009 0 0 0-15.983 0 1.282 1.282 0 0 0-.347.878v3.373a1.282 1.282 0 0 0 1.283 1.282h14.105a1.282 1.282 0 0 0 1.282-1.282v-3.373a1.277 1.277 0 0 0-.34-.878Zm-.942 4.25H73.223v-3.378a9.726 9.726 0 0 1 14.105 0v3.379Z" fill="#889AAF"/><g clip-path="url(#icons__a)" fill="#889AAF"><path d="M123.313 24.843a9.374 9.374 0 0 1-1.609-1.878 8.111 8.111 0 0 1-.866-3.084v-3.167a6.929 6.929 0 0 0-6.052-6.892v-.828a.853.853 0 0 0-.223-.655.853.853 0 0 0-.633-.278.86.86 0 0 0-.856.933v.84a6.924 6.924 0 0 0-5.982 6.88v3.167a8.093 8.093 0 0 1-.866 3.084 9.253 9.253 0 0 1-1.583 1.878.64.64 0 0 0-.218.481v.872a.638.638 0 0 0 .641.641h17.824a.64.64 0 0 0 .641-.64v-.873a.633.633 0 0 0-.218-.48Zm-17.555.712a10.492 10.492 0 0 0 1.565-1.923 9.145 9.145 0 0 0 1.058-3.751v-3.167a5.601 5.601 0 0 1 5.412-5.778 5.605 5.605 0 0 1 5.789 5.778v3.167a9.145 9.145 0 0 0 1.058 3.75c.443.701.968 1.347 1.564 1.924h-16.446Zm8.253 3.425a1.713 1.713 0 0 0 1.654-1.463h-3.373a1.719 1.719 0 0 0 1.719 1.462Z"/></g><path d="M46.605 46.012a4.489 4.489 0 1 0 0 8.977 4.489 4.489 0 0 0 0-8.977Zm0 7.694a3.206 3.206 0 1 1 0-6.413 3.206 3.206 0 0 1 0 6.413Z" fill="#889AAF"/><path d="m56.03 48.384-1.795-.577-.385-.961.898-1.667a1.078 1.078 0 0 0-.193-1.218l-1.539-1.54a1.077 1.077 0 0 0-1.218-.192l-1.667.898-.962-.385-.577-1.795a1.045 1.045 0 0 0-.961-.705h-2.18a.898.898 0 0 0-.898.77l-.577 1.794c-.364.06-.712.191-1.026.385l-1.667-.898a1.077 1.077 0 0 0-1.218.193l-1.539 1.539a1.077 1.077 0 0 0-.192 1.218l.833 1.603c-.128.32-.256.705-.384 1.026l-1.796.577a1.046 1.046 0 0 0-.705.961v2.18a1.02 1.02 0 0 0 .77.962l1.795.577.384.962-.897 1.667a1.077 1.077 0 0 0 .192 1.218l1.539 1.539a1.078 1.078 0 0 0 1.218.192l1.667-.898.962.385.577 1.86a1.046 1.046 0 0 0 .962.705h2.18a1.046 1.046 0 0 0 .961-.706l.578-1.859.961-.385 1.667.898a1.077 1.077 0 0 0 1.218-.192l1.54-1.54a1.077 1.077 0 0 0 .192-1.217l-.898-1.667.385-.962 1.859-.577a1.045 1.045 0 0 0 .705-.962v-2.18a1.096 1.096 0 0 0-.77-1.026Zm-.513 3.014-2.308.705-.064.32-.577 1.347-.193.32 1.154 2.116-1.282 1.283-2.116-1.154-.32.192c-.424.246-.876.44-1.347.577l-.32.064-.706 2.308h-1.795l-.705-2.308-.32-.064-1.347-.577-.32-.192-2.117 1.154-1.282-1.282 1.154-2.116-.192-.32a6.082 6.082 0 0 1-.577-1.347l-.064-.32-2.308-.706v-1.795l2.18-.642.128-.32c.125-.495.32-.97.577-1.41l.192-.321-1.09-2.116 1.282-1.282 2.052 1.154.32-.193a5.493 5.493 0 0 1 1.411-.577l.32-.128.706-2.244h1.795l.706 2.244.32.128c.47.138.923.331 1.347.577l.32.193 2.116-1.154 1.282 1.282-1.154 2.116.193.32a6.1 6.1 0 0 1 .577 1.347l.064.32 2.308.706v1.795Zm27.097-9.008h-.67a2.513 2.513 0 0 0-.907-1.2 2.454 2.454 0 0 0-2.844 0 2.513 2.513 0 0 0-.907 1.2h-.536a1.531 1.531 0 0 0-1.078.458c-.286.29-.448.684-.451 1.095v2.329h8.923v-2.33a1.578 1.578 0 0 0-.452-1.094 1.531 1.531 0 0 0-1.078-.458Zm.255 2.588h-6.374v-1.133c0-.042.017-.084.047-.114s.07-.047.113-.047h1.714l.077-.718a.797.797 0 0 1 .35-.576 1.265 1.265 0 0 1 1.726.191c.14.164.237.36.282.572l.057.544h1.849c.042 0 .083.017.112.047.03.03.047.072.047.114v1.12Zm6.534 6.508h-7.598l1.81-1.83a.651.651 0 0 0 .14-.709.65.65 0 0 0-.347-.351.63.63 0 0 0-.698.14l-3.346 3.397 3.346 3.397a.636.636 0 0 0 1.09-.46.704.704 0 0 0-.184-.453l-1.81-1.837h7.597a.63.63 0 0 0 .45-.19.652.652 0 0 0 0-.915.633.633 0 0 0-.45-.189Z" fill="#889AAF"/><path d="M86.694 50.154h1.275v-6.03a1.09 1.09 0 0 0-.3-.763 1.059 1.059 0 0 0-.745-.324H85.47v1.294h1.223v5.822Zm0 9.704H72.672V44.331h1.275v-1.294h-1.504a1.05 1.05 0 0 0-.742.322 1.082 1.082 0 0 0-.303.758v15.948a1.09 1.09 0 0 0 .3.764 1.06 1.06 0 0 0 .745.323h14.48a1.05 1.05 0 0 0 .743-.321c.196-.203.305-.475.303-.76v-5.997h-1.275v5.784Z" fill="#889AAF"/><g clip-path="url(#icons__b)" fill="#889AAF"><path d="m124.083 50.045-9.617-9.618a.643.643 0 0 0-.904 0l-9.618 9.618a.64.64 0 0 0 .904.904l9.162-9.162 9.162 9.168a.643.643 0 0 0 1.058-.462.642.642 0 0 0-.153-.442l.006-.006Z"/><path d="M120.422 59.476h-3.206v-6.411h-6.411v6.411h-3.206V50.5l-1.283 1.282v7.694a1.285 1.285 0 0 0 1.283 1.283h4.488v-6.412h3.847v6.412h4.488a1.284 1.284 0 0 0 1.282-1.283V51.63l-1.282-1.283v9.13Z"/></g><path d="M116.506 73.483h-9.015a1.206 1.206 0 0 0-1.173 1.225v15.503a1.204 1.204 0 0 0 1.173 1.225h13.041a1.204 1.204 0 0 0 1.173-1.225v-11.65l-5.199-5.078Zm-.193 1.597 3.847 3.783h-3.847V75.08ZM107.6 90.153V74.766h7.694v5.129h5.129v10.258H107.6ZM77.073 76.282l-3.496 3.495a.641.641 0 0 0 0 .907l.259.258c.25.25.656.25.907 0l3.495-3.495a.641.641 0 0 0 0-.907l-.258-.258a.641.641 0 0 0-.907 0Z" fill="#889AAF"/><path d="m83.705 81.69.404-.404a3.206 3.206 0 0 0 .013-4.533l-3.392-3.372a3.206 3.206 0 0 0-4.533 0l-5.482 5.482a3.206 3.206 0 0 0 0 4.533l3.373 3.372a3.206 3.206 0 0 0 4.532 0l.257-.256 1.398 1.385h2.205v1.923h2.366v1.045l1.84 1.853h3.847v-4.2l-6.828-6.828Zm5.546 9.746h-2.013l-1.135-1.129v-1.795h-2.36v-1.923h-2.956l-1.923-1.924-1.154 1.2a1.924 1.924 0 0 1-2.718 0l-3.373-3.405a1.923 1.923 0 0 1 0-2.719l5.488-5.488a1.924 1.924 0 0 1 2.719 0l3.372 3.372a1.924 1.924 0 0 1 0 2.719l-1.282 1.282 7.335 7.425v2.385ZM51.78 81.819h-4.597v-4.597a.641.641 0 0 0-1.283 0v4.597h-4.597a.641.641 0 0 0 0 1.282H45.9v4.597a.641.641 0 1 0 1.283 0v-4.597h4.597a.64.64 0 1 0 0-1.282Z" fill="#889AAF"/><path d="M46.54 72.2a10.259 10.259 0 1 0 .001 20.518 10.259 10.259 0 0 0 0-20.517Zm0 19.236a8.976 8.976 0 1 1 0-17.953 8.976 8.976 0 0 1 0 17.953Z" fill="#889AAF"/><defs><clipPath id="icons__a"><path fill="#fff" transform="translate(102.47 7)" d="M0 0h23.082v23.082H0z"/></clipPath><clipPath id="icons__b"><path fill="#fff" transform="translate(102.47 38.96)" d="M0 0h23.082v23.082H0z"/></clipPath></defs></svg>