<svg xmlns="http://www.w3.org/2000/svg" width="600" height="400" viewBox="0 0 600 400"><defs><style>.cls-1{fill:#b0bdc1;}.cls-2{fill:#ff7212;}.cls-23,.cls-28,.cls-3{fill:#fff;}.cls-4{fill:#113d56;}.cls-5,.cls-7{fill:#b4cfdb;}.cls-10,.cls-11,.cls-12,.cls-13,.cls-14,.cls-16,.cls-19,.cls-20,.cls-21,.cls-22,.cls-25,.cls-26,.cls-27,.cls-29,.cls-6{fill:none;}.cls-14,.cls-21,.cls-26,.cls-27,.cls-28,.cls-6{stroke:#113d56;}.cls-10,.cls-11,.cls-12,.cls-13,.cls-14,.cls-16,.cls-19,.cls-20,.cls-22,.cls-25,.cls-26,.cls-27,.cls-28,.cls-29,.cls-6{stroke-miterlimit:10;}.cls-12,.cls-13,.cls-16,.cls-20,.cls-21,.cls-22,.cls-23,.cls-25,.cls-27,.cls-6{stroke-width:2px;}.cls-7{opacity:0.5;}.cls-8{fill:#fafafa;}.cls-18,.cls-9{fill:#05a9e2;}.cls-9{opacity:0.6;}.cls-10,.cls-12{stroke:#b4cfdb;}.cls-10,.cls-11{stroke-width:5px;}.cls-10{opacity:0.52;}.cls-11,.cls-23{stroke:#058bc4;}.cls-13,.cls-19,.cls-22,.cls-29{stroke:#fff;}.cls-15{fill:#058bc4;}.cls-16,.cls-20{stroke:#ff7212;}.cls-17{fill:#78caea;opacity:0.51;}.cls-20,.cls-21,.cls-22,.cls-26,.cls-27{stroke-linecap:round;}.cls-21,.cls-23{stroke-linejoin:round;}.cls-22{opacity:0.35;}.cls-24{fill:#85daff;}.cls-25{stroke:#c6dbe3;}.cls-29{stroke-width:1.4px;}</style></defs><g id="Layer_17" data-name="Layer 17"><circle class="cls-1" cx="31.94" cy="150.75" r="1.75"/><circle class="cls-1" cx="47.15" cy="150.75" r="1.75"/><circle class="cls-1" cx="62.35" cy="150.75" r="1.75"/><circle class="cls-1" cx="77.55" cy="150.75" r="1.75"/><circle class="cls-1" cx="92.76" cy="150.75" r="1.75"/><circle class="cls-1" cx="31.94" cy="165.25" r="1.75"/><circle class="cls-1" cx="47.15" cy="165.25" r="1.75"/><circle class="cls-1" cx="62.35" cy="165.25" r="1.75"/><circle class="cls-1" cx="77.55" cy="165.25" r="1.75"/><circle class="cls-1" cx="92.76" cy="165.25" r="1.75"/><circle class="cls-1" cx="31.94" cy="179.75" r="1.75"/><circle class="cls-1" cx="47.15" cy="179.75" r="1.75"/><circle class="cls-1" cx="62.35" cy="179.75" r="1.75"/><circle class="cls-1" cx="77.55" cy="179.75" r="1.75"/><circle class="cls-1" cx="92.76" cy="179.75" r="1.75"/><circle class="cls-1" cx="31.94" cy="194.24" r="1.75"/><circle class="cls-1" cx="47.15" cy="194.24" r="1.75"/><circle class="cls-1" cx="62.35" cy="194.24" r="1.75"/><circle class="cls-1" cx="77.55" cy="194.24" r="1.75"/><circle class="cls-1" cx="92.76" cy="194.24" r="1.75"/><circle class="cls-1" cx="31.94" cy="208.74" r="1.75"/><circle class="cls-1" cx="47.15" cy="208.74" r="1.75"/><circle class="cls-1" cx="62.35" cy="208.74" r="1.75"/><circle class="cls-1" cx="77.55" cy="208.74" r="1.75"/><circle class="cls-1" cx="92.76" cy="208.74" r="1.75"/><circle class="cls-1" cx="31.94" cy="223.23" r="1.75"/><circle class="cls-1" cx="47.15" cy="223.23" r="1.75"/><circle class="cls-1" cx="62.35" cy="223.23" r="1.75"/><circle class="cls-1" cx="77.55" cy="223.23" r="1.75"/><circle class="cls-1" cx="92.76" cy="223.23" r="1.75"/><circle class="cls-1" cx="31.94" cy="237.73" r="1.75"/><circle class="cls-1" cx="47.15" cy="237.73" r="1.75"/><circle class="cls-1" cx="62.35" cy="237.73" r="1.75"/><circle class="cls-1" cx="77.55" cy="237.73" r="1.75"/><circle class="cls-1" cx="92.76" cy="237.73" r="1.75"/><circle class="cls-1" cx="31.94" cy="252.23" r="1.75"/><circle class="cls-1" cx="47.15" cy="252.23" r="1.75"/><circle class="cls-1" cx="62.35" cy="252.23" r="1.75"/><circle class="cls-1" cx="77.55" cy="252.23" r="1.75"/><circle class="cls-1" cx="92.76" cy="252.23" r="1.75"/><circle class="cls-1" cx="31.94" cy="266.72" r="1.75"/><circle class="cls-1" cx="47.15" cy="266.72" r="1.75"/><circle class="cls-1" cx="62.35" cy="266.72" r="1.75"/><circle class="cls-1" cx="77.55" cy="266.72" r="1.75"/><circle class="cls-1" cx="92.76" cy="266.72" r="1.75"/></g><g id="fill0"><polygon class="cls-2" points="496.47 240.76 333.21 251.36 331.98 232.43 566.85 217.17 568.07 236.1 507.96 240.01 505.24 242.19 570.2 237.97 568.71 215.04 329.86 230.56 331.34 253.49 493.84 242.93 496.47 240.76"/><polygon class="cls-3" points="479.3 246.22 469.96 241.31 476.58 240.09 484.66 243.36 479.3 246.22"/><path class="cls-4" d="M454.79,249.38c-9.7,10.78-33,36.26-43.32,52.62-11.16,17.62-25.54,51.41-25.54,51.41H354.49a36.44,36.44,0,0,1,7.37-4.75c3.87-1.78,11-4.1,11-4.1s17.47-42.43,26.85-62.21Q411,258.41,422.6,236.5C429.37,244.15,448,241.74,454.79,249.38Z"/><path class="cls-5" d="M389,361.81c-.09,10.58,7.18,18.73,18.32,19.29,11.95.59,24.26-7.78,29.29-19.29Z"/><path class="cls-5" d="M438.85,349.59c-.74-9.66-7.77-16.9-18.24-17.42-11.29-.56-22.88,6.88-28.37,17.42Z"/><path class="cls-4" d="M434.83,352.42l21.06-52.34s-13.53-30.61-20.08-46.55c7.2-2.4,26.19-17.46,26.19-17.46l15.18,58.32A11.53,11.53,0,0,1,476,303L452.51,344.4s2.13,1.31,5.57,3.11a17.13,17.13,0,0,1,5.56,4.91Z"/><path class="cls-6" d="M373.36,208.34H319.25a5.57,5.57,0,0,1-5.57-5.58V51.65a5.57,5.57,0,0,1,5.57-5.58H543.61a5.57,5.57,0,0,1,5.57,5.58V189.9"/><line class="cls-6" x1="313.68" y1="66.9" x2="549.9" y2="66.9"/><line class="cls-6" x1="333.06" y1="89.15" x2="376.14" y2="89.15"/><line class="cls-6" x1="333.06" y1="107.1" x2="371.83" y2="107.1"/><line class="cls-6" x1="333.06" y1="125.05" x2="379.73" y2="125.05"/><line class="cls-6" x1="333.06" y1="143" x2="376.14" y2="143"/><line class="cls-6" x1="333.06" y1="160.95" x2="371.83" y2="160.95"/><line class="cls-6" x1="333.06" y1="178.9" x2="379.73" y2="178.9"/><path class="cls-7" d="M582.24,48.65H462a4.24,4.24,0,0,0-4.24,4.25v55.87l12.39-11.62H582.24a4.24,4.24,0,0,0,4.24-4.24v-40A4.24,4.24,0,0,0,582.24,48.65Z"/><line class="cls-6" x1="444.35" y1="89.15" x2="515.44" y2="89.15"/><line class="cls-6" x1="444.35" y1="107.1" x2="511.13" y2="107.1"/><line class="cls-6" x1="444.35" y1="125.05" x2="519.03" y2="125.05"/><line class="cls-6" x1="444.35" y1="143" x2="515.44" y2="143"/><line class="cls-6" x1="444.35" y1="160.95" x2="511.13" y2="160.95"/><line class="cls-6" x1="444.35" y1="178.9" x2="519.03" y2="178.9"/><line class="cls-6" x1="400.56" y1="89.15" x2="421.14" y2="89.15"/><line class="cls-6" x1="400.56" y1="107.1" x2="421.14" y2="107.1"/><line class="cls-6" x1="400.56" y1="125.05" x2="421.14" y2="125.05"/><line class="cls-6" x1="400.56" y1="143" x2="421.14" y2="143"/><line class="cls-6" x1="400.56" y1="160.95" x2="421.14" y2="160.95"/><line class="cls-6" x1="400.56" y1="178.9" x2="421.14" y2="178.9"/><path class="cls-5" d="M542.44,133.7a2,2,0,0,1-2-2V84.13a2,2,0,1,1,4,0v47.59A2,2,0,0,1,542.44,133.7Z"/><polygon class="cls-8" points="473.57 129.53 488.85 151.8 473.06 182.32 484.48 197.65 480.99 218.6 393.01 213.8 422.48 166.65 424.23 136.96 456.98 114.25 473.57 129.53"/><path class="cls-9" d="M244.21,51h-5.05V44.88h-9.64V51h-10.4V44.88h-9.64V51H199.07V44.88h-9.64V51h-5.64a1.44,1.44,0,0,0-1.44,1.44v29.5a1.44,1.44,0,0,0,1.44,1.44h60.42a1.44,1.44,0,0,0,1.44-1.44V52.44A1.44,1.44,0,0,0,244.21,51Z"/><circle class="cls-10" cx="219.87" cy="167.78" r="25.39"/><path class="cls-11" d="M219.87,142.39a25.39,25.39,0,1,1-16.76,44.46"/><rect class="cls-12" x="69.74" y="194.47" width="119.4" height="23" rx="1.98"/><polyline class="cls-12" points="177.29 210.14 181.46 205.97 177.29 201.79"/><rect class="cls-12" x="91.77" y="229.63" width="119.4" height="23" rx="1.98"/><polyline class="cls-12" points="199.31 245.3 203.48 241.12 199.31 236.95"/><rect class="cls-12" x="113.8" y="264.79" width="119.4" height="23" rx="1.98"/><polyline class="cls-12" points="221.34 280.45 225.51 276.28 221.34 272.11"/><rect class="cls-12" x="136" y="63" width="64.78" height="64.78" rx="7.68"/><path class="cls-13" d="M182.36,63h10.75a7.67,7.67,0,0,1,7.67,7.68V83.87"/><rect class="cls-14" x="73.89" y="135.91" width="44.3" height="22.55" rx="11.27"/><circle class="cls-14" cx="106.77" cy="147.21" r="7.67"/><path class="cls-15" d="M281,33.7A7.92,7.92,0,1,1,273,25.78,7.93,7.93,0,0,1,281,33.7ZM273,30.57a3.14,3.14,0,1,0,3.14,3.13A3.13,3.13,0,0,0,273,30.57Z"/><circle class="cls-12" cx="273.03" cy="63.07" r="7.3"/><ellipse class="cls-16" cx="318.9" cy="349.97" rx="20.34" ry="8.7" transform="translate(-132.78 491.96) rotate(-65.11)"/><ellipse class="cls-16" cx="297.94" cy="349.97" rx="15.37" ry="6.57" transform="translate(-144.92 472.95) rotate(-65.11)"/><ellipse class="cls-16" cx="278.6" cy="349.77" rx="11.67" ry="4.99" transform="translate(-155.93 455.29) rotate(-65.11)"/><circle class="cls-12" cx="273.03" cy="91.47" r="7.3"/><path class="cls-15" d="M165.75,100.28H152.32l-2.25,5.25h-4.2l11.07-25.76h4.2l11.06,25.76H168Zm-1.46-3.41L159,84.64l-5.25,12.23Z"/><path class="cls-15" d="M190.63,93.79v11.74H187v-2.66a8.07,8.07,0,0,1-6.45,3.11c-4.13,0-7.17-2.4-7.17-6.19s3.49-6.45,7.77-6.45a18.94,18.94,0,0,1,5.85,1v-.6c0-2.43-1.13-5-5-5a12.42,12.42,0,0,0-5.48,1.61l-1.35-2.74a16.58,16.58,0,0,1,7.35-2C187.75,85.69,190.63,89,190.63,93.79ZM187,99.46V96.87a18,18,0,0,0-5.29-.75c-2.59,0-4.76,1.46-4.76,3.56s1.87,3.38,4.31,3.38S186.36,101.86,187,99.46Z"/><path class="cls-17" d="M300.51,96.66h79.55a5.21,5.21,0,0,1,5.2,5.21v33l-9.93-10.61H300.51a5.21,5.21,0,0,1-5.21-5.21V101.87A5.21,5.21,0,0,1,300.51,96.66Z"/><path class="cls-18" d="M293.64,83.78h79.55a5.2,5.2,0,0,1,5.2,5.21v33l-9.93-10.61H293.64a5.21,5.21,0,0,1-5.21-5.21V89A5.21,5.21,0,0,1,293.64,83.78Z"/><polygon class="cls-4" points="444.75 163.15 457.19 169.7 470.51 175.16 449.99 209.87 446.71 193.5 431.65 173.63 444.75 163.15"/><polygon class="cls-4" points="483.39 251.46 462.11 244.58 467.02 232.79 491.9 233.12 483.39 251.46"/><path class="cls-4" d="M455.67,176.25l19.11,9.39a7.2,7.2,0,0,1,3.91,7.77l-6.43,34.8-42.57,12-15.5-29.91,17.9-31.87Z"/><line class="cls-19" x1="467.67" y1="206.92" x2="461.45" y2="228.86"/><polygon class="cls-3" points="474.41 151.23 470.73 171.57 467.45 170.58 462.01 177.8 457.41 177.78 453.26 187.82 441.72 177.7 448.64 145.91 474.41 151.23"/><ellipse class="cls-20" cx="464.73" cy="160.81" rx="4.91" ry="3.82" transform="translate(208.76 580.71) rotate(-77.72)"/><line class="cls-20" x1="474.89" y1="158.17" x2="472.11" y2="165.96"/><path class="cls-21" d="M471.6,154.86l.22,6.77v8.73l-4.39-.63s-4,7.85-5.42,8.07c-3.37.51-10.73-5.21-10.73-5.21"/><line class="cls-20" x1="468.66" y1="160.73" x2="473.15" y2="160.73"/><rect class="cls-2" x="310.71" y="224.22" width="277.54" height="20.97" transform="translate(-29.38 67.94) rotate(-8.37)"/><line class="cls-22" x1="381.86" y1="244.13" x2="338.28" y2="250.55"/><line class="cls-22" x1="472.9" y1="230.74" x2="387.77" y2="243.26"/><path class="cls-3" d="M434.71,233.67l26.63,13.09-12.84,4.17a5.19,5.19,0,0,1-5.34-1.16l-4.24-5-17.09-7.66Z"/><path class="cls-4" d="M437.55,173.2,425.32,176c-3.15,2.11-6.88,8-8.78,11.32l-17.78,30.7a8.36,8.36,0,0,0,1.56,10.33l27.84,19.48,15.72-16.59-22.27-13.1,21-18.78Z"/><line class="cls-20" x1="455.67" y1="159.44" x2="461" y2="160"/><path class="cls-19" d="M447.15,199.61l-2.4-10.26c-1.75-5-3.19-6-6.11-9.17l-7-6.55"/><polyline class="cls-19" points="443.88 231.26 417.68 220.35 429.03 198.96"/><path class="cls-23" d="M593.45,32.69H473.25A4.24,4.24,0,0,0,469,36.93V92.8l12.39-11.61H593.45A4.24,4.24,0,0,0,597.69,77v-40A4.24,4.24,0,0,0,593.45,32.69Z"/><circle class="cls-24" cx="486.21" cy="50.92" r="9.37"/><line class="cls-25" x1="507.3" y1="46.47" x2="574.1" y2="46.47"/><line class="cls-25" x1="507.3" y1="58.26" x2="550.52" y2="58.26"/><path class="cls-18" d="M479.72,150.86c-.6-13.25-9.23-18.64-19.31-18.64-10.72,0-21.07,7.26-19.4,20.62a35.49,35.49,0,0,0,1.18,7.08l9.51,2.15a6.37,6.37,0,0,0,7.39-4.57c.71-2.27,1.15-4.2,1.27-4.66h19.45C479.81,152.17,479.75,151.52,479.72,150.86Z"/><path class="cls-6" d="M476.66,151.3c-.59-13.25-9.22-18.64-19.31-18.64-10.71,0-21.07,7.26-19.4,20.61a35.37,35.37,0,0,0,1.18,7.08l9.51,2.16a6.37,6.37,0,0,0,7.39-4.57c.71-2.28,1.16-4.2,1.28-4.67h19.44C476.75,152.61,476.69,152,476.66,151.3Z"/><path class="cls-6" d="M346.51,353.3h131l-3.56,4.62a10,10,0,0,1-7.9,3.89H357.32a10,10,0,0,1-8.49-4.74Z"/><path class="cls-6" d="M431.84,362.35c-5.2,9.93-16.23,17.22-27.21,17.2-10.72,0-18.1-7-18.79-16.58"/><path class="cls-6" d="M387.49,352.71c4.4-11.43,16.5-20.2,28.56-20.18,11.53,0,19.2,8.1,18.83,18.82"/><path class="cls-6" d="M415.66,365.52a15.23,15.23,0,0,1-8.25,2.6c-4.71,0-8.16-2.62-9.29-6.45"/><path class="cls-6" d="M401.37,349.75a16.2,16.2,0,0,1,11.9-5.79,9.62,9.62,0,0,1,7.82,3.55"/><line class="cls-26" x1="297.17" y1="353.3" x2="346.51" y2="353.3"/><line class="cls-26" x1="264.32" y1="353.3" x2="282.66" y2="353.3"/><line class="cls-26" x1="250.24" y1="353.3" x2="257.44" y2="353.3"/><line class="cls-26" x1="338.22" y1="319.68" x2="379.26" y2="319.68"/><line class="cls-26" x1="329.05" y1="298.72" x2="391.48" y2="298.72"/><line class="cls-26" x1="307.22" y1="298.72" x2="321.62" y2="298.72"/><line class="cls-26" x1="361.36" y1="305.27" x2="387.55" y2="305.27"/><line class="cls-26" x1="342.58" y1="305.27" x2="352.19" y2="305.27"/><line class="cls-6" x1="333.41" y1="384.41" x2="477.5" y2="384.41"/><path class="cls-27" d="M508.88,239.78l-6.82,5.78a11.66,11.66,0,0,1-6.39,1.64c-4.09,0-13.92-.33-13.92-.33"/><path class="cls-3" d="M454.46,240.43l-2.58-1a6.58,6.58,0,0,0-4.25-.11l-6.15,1.95,4.84,2.13,1.7,1.14.61-.11.27.11.46-.25,9.84-1.88a3.16,3.16,0,0,0,2.58-3.11h0Z"/></g><g id="Layer_11" data-name="Layer 11"><rect class="cls-14" x="3.5" y="235.5" width="48.17" height="48.16"/><rect class="cls-28" x="1.5" y="232.5" width="5" height="5"/><rect class="cls-28" x="49.5" y="232.5" width="5" height="5"/><rect class="cls-28" x="1.5" y="281.5" width="5" height="5"/><rect class="cls-28" x="49.5" y="281.5" width="5" height="5"/><path class="cls-16" d="M48.66,258.51,33,243.57a.37.37,0,0,0-.62.27v7.95H8.94a.37.37,0,0,0-.37.37V265.4a.38.38,0,0,0,.37.37H32.39v8A.36.36,0,0,0,33,274L48.66,259A.37.37,0,0,0,48.66,258.51Z"/><rect class="cls-6" x="56.18" y="316.8" width="9.47" height="6.16" transform="translate(-208.35 136.76) rotate(-45)"/><circle class="cls-4" cx="49.81" cy="308.77" r="2.39"/><line class="cls-6" x1="39.07" y1="298.17" x2="49.48" y2="308.58"/><path class="cls-6" d="M62.08,314.35,61,308.14a6.54,6.54,0,0,0-4.42-5.09l-16.49-5.38a1.1,1.1,0,0,0-1.38,1.38l5.38,16.49A6.54,6.54,0,0,0,49.16,320l6.22,1.1"/><circle class="cls-29" cx="324.24" cy="252.44" r="6.19"/><path class="cls-3" d="M324.31,253.57a.69.69,0,0,1-.68-.61l-.5-3.9a.68.68,0,0,1,.6-.77.7.7,0,0,1,.78.6l.49,3.9a.69.69,0,0,1-.6.77Z"/><path class="cls-3" d="M324.69,256.06a.9.9,0,0,1-.64-.26.94.94,0,0,1-.26-.63.9.9,0,0,1,.26-.63.94.94,0,0,1,1.27,0,.9.9,0,0,1,.26.63.94.94,0,0,1-.26.63A.89.89,0,0,1,324.69,256.06Z"/></g></svg>