<svg xmlns="http://www.w3.org/2000/svg" width="468" height="468" viewBox="0 0 468 468"><defs><style>.cls-1{opacity:0.58;}.cls-2,.cls-5{fill:#78caea;}.cls-3{fill:#ffa143;}.cls-4{fill:#d7dfe2;}.cls-5{opacity:0.3;}.cls-6{fill:#fafafa;}.cls-7{fill:#05a9e2;}.cls-8{fill:#ff8a0b;}.cls-9{fill:#0476a8;opacity:0.17;}.cls-10,.cls-13{fill:#fff;}.cls-10{stroke:#fff;stroke-width:6px;}.cls-10,.cls-16{stroke-miterlimit:10;}.cls-11{fill:#1b5d77;}.cls-12{fill:#113d56;}.cls-14{fill:#327a96;}.cls-15{fill:#114154;}.cls-16,.cls-17,.cls-18{fill:none;}.cls-16{stroke:#0476a8;stroke-width:3px;}.cls-16,.cls-18{stroke-linecap:round;}.cls-18{stroke:#113d56;stroke-linejoin:round;stroke-width:2px;}</style></defs><g id="fill0"><g class="cls-1"><rect class="cls-2" x="57.2" y="174.17" width="10.43" height="4.34" rx="2.17"/><rect class="cls-2" x="84.75" y="173.44" width="41.15" height="4.34" rx="2.17"/><rect class="cls-2" x="57.2" y="190.99" width="10.43" height="4.34" rx="2.17"/><rect class="cls-2" x="84.75" y="190.26" width="52.97" height="4.34" rx="2.17"/><rect class="cls-2" x="57.2" y="207.81" width="10.43" height="4.34" rx="2.17"/><rect class="cls-3" x="84.75" y="207.09" width="27.84" height="4.34" rx="2.17"/><rect class="cls-2" x="57.2" y="224.63" width="10.43" height="4.34" rx="2.17"/><rect class="cls-4" x="98.86" y="223.91" width="43.1" height="4.34" rx="2.17"/><rect class="cls-2" x="57.2" y="241.45" width="10.43" height="4.34" rx="2.17"/><rect class="cls-4" x="98.86" y="240.73" width="33.69" height="4.34" rx="2.17"/><rect class="cls-2" x="57.2" y="258.27" width="10.43" height="4.34" rx="2.17"/><rect class="cls-2" x="98.86" y="257.55" width="23.66" height="4.34" rx="2.17"/><rect class="cls-2" x="57.2" y="275.09" width="10.43" height="4.34" rx="2.17"/><rect class="cls-3" x="84.75" y="274.37" width="32.84" height="4.34" rx="2.17"/><rect class="cls-2" x="57.2" y="291.91" width="10.43" height="4.34" rx="2.17"/><rect class="cls-3" x="84.75" y="291.19" width="28.53" height="4.34" rx="2.17"/><rect class="cls-2" x="57.2" y="308.73" width="10.43" height="4.34" rx="2.17"/><rect class="cls-4" x="84.75" y="308.01" width="35.37" height="4.34" rx="2.17"/><rect class="cls-2" x="57.2" y="325.55" width="10.43" height="4.34" rx="2.17"/><rect class="cls-3" x="84.75" y="324.83" width="23.66" height="4.34" rx="2.17"/></g><circle class="cls-5" cx="330.12" cy="111.09" r="68.13"/><rect class="cls-2" x="252.27" y="67.1" width="4.62" height="4.62"/><rect class="cls-2" x="263.5" y="67.1" width="4.62" height="4.62"/><rect class="cls-2" x="274.73" y="67.1" width="4.62" height="4.62"/><rect class="cls-6" x="285.96" y="67.1" width="4.62" height="4.62"/><rect class="cls-6" x="297.19" y="67.1" width="4.62" height="4.62"/></g><g id="FILL1"><path class="cls-4" d="M221.32,321.51h10.16l-4.15-5.39-10.82-14,9.18-26.91,22.63,5.33V231.89a2.89,2.89,0,0,0-2.89-2.89H154.89a2.89,2.89,0,0,0-2.89,2.89V302.4l52.62,14.5Z"/><path class="cls-7" d="M346.05,303.53l4.27,1V227.89a2.89,2.89,0,0,0-2.89-2.89H256.89a2.89,2.89,0,0,0-2.89,2.89v54Z"/><rect class="cls-8" x="205" y="125" width="96.32" height="92.51" rx="2.89"/><path class="cls-9" d="M298.43,125h-35a68.23,68.23,0,0,0,37.91,47.84V127.89A2.89,2.89,0,0,0,298.43,125Z"/><polygon class="cls-10" points="248.43 141.35 248.43 141.35 248.43 141.35 226.77 149.07 230.08 177.7 248.43 187.87 248.43 187.87 248.43 187.87 266.77 177.7 270.08 149.07 248.43 141.35"/><polygon class="cls-11" points="248.43 141.35 248.43 141.35 248.43 141.35 226.77 149.07 230.08 177.7 248.43 187.87 248.43 187.87 248.43 187.87 266.77 177.7 270.08 149.07 248.43 141.35"/><polygon class="cls-12" points="248.43 141.35 248.43 146.52 248.43 146.49 248.43 170.05 248.43 170.05 248.43 187.87 248.43 187.87 266.77 177.7 270.08 149.07 248.43 141.35"/><path class="cls-13" d="M248.43,146.49l-13.54,30.35h5.05l2.72-6.79h11.49l2.72,6.79h5l-13.48-30.35Zm3.95,19.37h-7.91l4-9.51Z"/><path class="cls-6" d="M166.3,265.29c0,4.33,4.23,8.37,10.9,10.65-1.34,6.71-.24,12.11,3.41,14.22s9.34.66,14.65-4c5.17,4.45,10.4,6.21,14,4.09s4.89-7.94,3.53-14.85c6.94-2.3,10.83-5.74,10.83-10.13,0-4.23-4.24-7.89-10.82-10.16,1.47-7.2.23-12.47-3.58-14.66-3.66-2.12-8.95-.27-14.2,4.29-5.46-4.85-10.7-6.33-14.49-4.13s-4.71,7.63-3.37,14.45C170.75,257.33,166.3,261.07,166.3,265.29Z"/><path class="cls-12" d="M211.45,257.38c-.55-.19-1.09-.36-1.64-.52.09-.37.17-.74.25-1.12,1.24-6,.43-10.88-2.34-12.47s-7,.06-11.39,3.88c-.44.38-.86.77-1.27,1.17-.28-.27-.56-.53-.85-.78-4.6-4.09-9.21-5.81-12-4.21s-3.44,6.1-2.32,11.81c.11.57.24,1.13.38,1.69-.66.19-1.29.38-1.89.59-5.39,1.88-8.84,4.83-8.84,7.89s3.7,6.32,9.32,8.24c.45.16.91.3,1.38.43-.15.6-.29,1.21-.4,1.82-1.07,5.61-.24,10.07,2.41,11.6s7.33,0,11.79-4c.36-.3.71-.63,1.07-1,.45.44.9.85,1.37,1.26,4.33,3.73,8.61,5.23,11.26,3.7s3.62-6.37,2.46-12.19c-.09-.45-.19-.9-.3-1.36l.94-.3c5.84-1.93,9.64-5.06,9.64-8.26s-3.55-6-9.05-7.93Z"/><path class="cls-6" d="M210.18,271.5c-.28.1-.56.19-.86.27a50.82,50.82,0,0,0-2.57-6.45,50.78,50.78,0,0,0,2.47-6.36c.53.15,1,.31,1.52.48,4.71,1.62,7.59,4,7.59,5.87s-3.11,4.52-8.15,6.19Zm-2.09,4.15a18.34,18.34,0,0,1,.24,6.72,4.51,4.51,0,0,1-1.66,3.17c-1.61.93-5-.28-8.75-3.47-.42-.36-.85-.75-1.28-1.17a50.2,50.2,0,0,0,4.27-5.42,50.52,50.52,0,0,0,6.9-1.06c.11.42.2.83.28,1.23Zm-21.16,9.73c-1.57.55-2.82.57-3.57.13-1.61-.93-2.28-4.5-1.37-9.3.11-.57.24-1.13.38-1.69a51.14,51.14,0,0,0,6.86,1,53.68,53.68,0,0,0,4.37,5.4c-.31.31-.64.61-1,.9a18.51,18.51,0,0,1-5.7,3.57Zm-7.35-13.89a18.6,18.6,0,0,1-5.94-3.15,4.53,4.53,0,0,1-1.9-3c0-1.86,2.77-4.22,7.38-5.83.58-.2,1.16-.39,1.75-.55a52.44,52.44,0,0,0,2.48,6.43,53,53,0,0,0-2.51,6.53C180.42,271.77,180,271.63,179.58,271.49Zm2.47-16.76c-1-4.9-.33-8.59,1.27-9.51s5.48.42,9.45,3.94c.25.23.51.46.76.71a52.8,52.8,0,0,0-4.34,5.37,52.21,52.21,0,0,0-6.79,1.06c-.13-.52-.25-1.05-.35-1.57Zm22,5.42c-.5-.86-1-1.71-1.55-2.55a47,47,0,0,1,4.64.82,43.38,43.38,0,0,1-1.63,4.38c-.47-.89-1-1.77-1.46-2.65Zm-9-8.73c1,1.09,2,2.31,3,3.62q-3-.14-6,0a46.65,46.65,0,0,1,3-3.62Zm-9,8.75c-.5.86-1,1.74-1.44,2.63-.63-1.5-1.17-3-1.62-4.41,1.46-.32,3-.59,4.62-.79C187.06,258.44,186.54,259.3,186,260.17Zm1.61,13c-1.67-.19-3.24-.44-4.7-.75.45-1.46,1-3,1.65-4.5.47.89,1,1.77,1.45,2.64S187.09,272.31,187.65,273.17Zm7.47,6.18c-1-1.12-2.06-2.35-3.07-3.67,1,0,2,.06,3,.06s2.07,0,3.08-.07A45.3,45.3,0,0,1,195.12,279.35Zm10.39-11.51a47.09,47.09,0,0,1,1.71,4.48,45.29,45.29,0,0,1-4.76.81c.54-.85,1.06-1.72,1.57-2.59s1-1.79,1.48-2.7Zm-3.37,1.61q-1.15,2-2.44,3.95c-1.51.1-3.07.16-4.67.16s-3.12-.05-4.61-.15q-1.32-1.92-2.49-4c-.77-1.34-1.5-2.7-2.17-4.1.67-1.4,1.39-2.76,2.17-4.11h0q1.15-2,2.47-3.93c1.51-.11,3.06-.17,4.63-.17s3.14.06,4.65.17c.87,1.28,1.68,2.59,2.46,3.92s1.5,2.7,2.19,4.09q-1,2.1-2.19,4.12Zm4.49-24.3c1.71,1,2.37,4.95,1.3,10.16-.07.33-.15.67-.23,1a52.46,52.46,0,0,0-6.81-1.08,51,51,0,0,0-4.31-5.37c.38-.37.78-.73,1.17-1.08,3.77-3.27,7.28-4.56,8.88-3.64Z"/><path class="cls-12" d="M195,260.76a4.55,4.55,0,1,1-4.54,4.55,4.55,4.55,0,0,1,4.54-4.55"/><polygon class="cls-10" points="306.51 248.17 301.16 257.55 295.8 248.17 278.24 248.17 301.16 287.74 324.08 248.17 306.51 248.17"/><polygon class="cls-14" points="301.22 271.96 287.44 248.17 278.24 248.17 301.16 287.74 324.08 248.17 315 248.17 301.22 271.96"/><polygon class="cls-12" points="315 248.17 306.51 248.17 301.16 257.55 295.8 248.17 287.44 248.17 301.22 271.96 315 248.17"/></g><g id="lne"><path class="cls-15" d="M261.4,213.51H203.89a3.89,3.89,0,0,1-3.89-3.89V122.89a3.89,3.89,0,0,1,3.89-3.89h90.54a3.89,3.89,0,0,1,3.89,3.89v78.17a1,1,0,0,1-2,0V122.89a1.89,1.89,0,0,0-1.89-1.89H203.89a1.89,1.89,0,0,0-1.89,1.89v86.73a1.89,1.89,0,0,0,1.89,1.89H261.4a1,1,0,0,1,0,2Z"/><polyline class="cls-16" points="357.41 108.11 329.64 88.24 357.41 68.37"/><polyline class="cls-16" points="395.38 108.11 423.15 88.24 395.38 68.37"/><line class="cls-16" x1="390.33" y1="50.58" x2="365.55" y2="125.89"/><path class="cls-12" d="M251,255.6a1,1,0,0,0,1-1V221.89a1.89,1.89,0,0,1,1.89-1.89h90.54a1.89,1.89,0,0,1,1.89,1.89V303.6l2,.47V221.89a3.89,3.89,0,0,0-3.89-3.89H253.89a3.89,3.89,0,0,0-3.89,3.89V254.6A1,1,0,0,0,251,255.6Z"/><path class="cls-12" d="M147,297.34a1,1,0,0,0,1-1V225.89a1.89,1.89,0,0,1,1.89-1.89h90.54a1.89,1.89,0,0,1,1.89,1.89V279.1l2,.47V225.89a3.89,3.89,0,0,0-3.89-3.89H149.89a3.89,3.89,0,0,0-3.89,3.89v70.45A1,1,0,0,0,147,297.34Z"/><path class="cls-12" d="M227.63,316.51l-1.55-2H203a1,1,0,0,0-1,1,1,1,0,0,0,.39.77l.81.23Z"/><circle class="cls-2" cx="199.79" cy="356.78" r="1.98"/><path class="cls-2" d="M203.26,361.07a2,2,0,1,0,2,2A2,2,0,0,0,203.26,361.07Z"/><path class="cls-2" d="M210.69,361.07a2,2,0,1,0,2,2A2,2,0,0,0,210.69,361.07Z"/><path class="cls-2" d="M218.12,361.07a2,2,0,1,0,2,2A2,2,0,0,0,218.12,361.07Z"/><path class="cls-2" d="M225.55,361.07a2,2,0,1,0,2,2A2,2,0,0,0,225.55,361.07Z"/><path class="cls-2" d="M233,361.07a2,2,0,1,0,2,2A2,2,0,0,0,233,361.07Z"/><path class="cls-2" d="M240.41,361.07a2,2,0,1,0,2,2A2,2,0,0,0,240.41,361.07Z"/><path class="cls-2" d="M199.79,367.51a2,2,0,1,0,2,2A2,2,0,0,0,199.79,367.51Z"/><path class="cls-2" d="M207.22,367.51a2,2,0,1,0,2,2A2,2,0,0,0,207.22,367.51Z"/><path class="cls-2" d="M214.65,367.51a2,2,0,1,0,2,2A2,2,0,0,0,214.65,367.51Z"/><path class="cls-2" d="M222.08,367.51a2,2,0,1,0,2,2A2,2,0,0,0,222.08,367.51Z"/><path class="cls-2" d="M229.51,367.51a2,2,0,1,0,2,2A2,2,0,0,0,229.51,367.51Z"/><path class="cls-2" d="M236.94,367.51a2,2,0,1,0,2,2A2,2,0,0,0,236.94,367.51Z"/><path class="cls-2" d="M242.39,369.49a2,2,0,1,0,2-2A2,2,0,0,0,242.39,369.49Z"/><path class="cls-2" d="M203.26,373.8a2,2,0,1,0,2,2A2,2,0,0,0,203.26,373.8Z"/><path class="cls-2" d="M210.69,373.8a2,2,0,1,0,2,2A2,2,0,0,0,210.69,373.8Z"/><path class="cls-2" d="M218.12,373.8a2,2,0,1,0,2,2A2,2,0,0,0,218.12,373.8Z"/><path class="cls-2" d="M225.55,373.8a2,2,0,1,0,2,2A2,2,0,0,0,225.55,373.8Z"/><path class="cls-2" d="M233,373.8a2,2,0,1,0,2,2A2,2,0,0,0,233,373.8Z"/><path class="cls-2" d="M240.41,373.8a2,2,0,1,0,2,2A2,2,0,0,0,240.41,373.8Z"/><circle class="cls-2" cx="214.65" cy="382.22" r="1.98"/><path class="cls-2" d="M222.08,380.24a2,2,0,1,0,2,2A2,2,0,0,0,222.08,380.24Z"/><path class="cls-2" d="M229.51,380.24a2,2,0,1,0,2,2A2,2,0,0,0,229.51,380.24Z"/><path class="cls-2" d="M236.94,380.24a2,2,0,1,0,2,2A2,2,0,0,0,236.94,380.24Z"/><path class="cls-2" d="M242.39,382.22a2,2,0,1,0,2-2A2,2,0,0,0,242.39,382.22Z"/><path class="cls-2" d="M240.41,386.51a2,2,0,1,0,2,2A2,2,0,0,0,240.41,386.51Z"/><path class="cls-2" d="M247.73,361.07a2,2,0,1,0,2,2A2,2,0,0,0,247.73,361.07Z"/><path class="cls-2" d="M255.16,361.07a2,2,0,1,0,2,2A2,2,0,0,0,255.16,361.07Z"/><path class="cls-2" d="M251.7,367.51a2,2,0,1,0,2,2A2,2,0,0,0,251.7,367.51Z"/><path class="cls-2" d="M259.13,367.51a2,2,0,1,0,2,2A2,2,0,0,0,259.13,367.51Z"/><path class="cls-2" d="M266.56,367.51a2,2,0,1,0,2,2A2,2,0,0,0,266.56,367.51Z"/><path class="cls-2" d="M274,367.51a2,2,0,1,0,2,2A2,2,0,0,0,274,367.51Z"/><path class="cls-2" d="M281.42,367.51a2,2,0,1,0,2,2A2,2,0,0,0,281.42,367.51Z"/><path class="cls-2" d="M288.85,367.51a2,2,0,1,0,2,2A2,2,0,0,0,288.85,367.51Z"/><path class="cls-2" d="M296.28,367.51a2,2,0,1,0,2,2A2,2,0,0,0,296.28,367.51Z"/><path class="cls-2" d="M303.71,367.51a2,2,0,1,0,2,2A2,2,0,0,0,303.71,367.51Z"/><path class="cls-2" d="M247.73,373.8a2,2,0,1,0,2,2A2,2,0,0,0,247.73,373.8Z"/><path class="cls-2" d="M255.16,373.8a2,2,0,1,0,2,2A2,2,0,0,0,255.16,373.8Z"/><path class="cls-2" d="M262.6,373.8a2,2,0,1,0,2,2A2,2,0,0,0,262.6,373.8Z"/><path class="cls-2" d="M270,373.8a2,2,0,1,0,2,2A2,2,0,0,0,270,373.8Z"/><path class="cls-2" d="M277.46,373.8a2,2,0,1,0,2,2A2,2,0,0,0,277.46,373.8Z"/><path class="cls-2" d="M284.89,373.8a2,2,0,1,0,2,2A2,2,0,0,0,284.89,373.8Z"/><path class="cls-2" d="M292.32,373.8a2,2,0,1,0,2,2A2,2,0,0,0,292.32,373.8Z"/><path class="cls-2" d="M299.75,373.8a2,2,0,1,0,2,2A2,2,0,0,0,299.75,373.8Z"/><path class="cls-2" d="M307.18,373.8a2,2,0,1,0,2,2A2,2,0,0,0,307.18,373.8Z"/><circle class="cls-2" cx="251.7" cy="382.22" r="1.98"/><path class="cls-2" d="M259.13,380.24a2,2,0,1,0,2,2A2,2,0,0,0,259.13,380.24Z"/><circle class="cls-2" cx="266.56" cy="382.22" r="1.98"/><path class="cls-2" d="M274,380.24a2,2,0,1,0,2,2A2,2,0,0,0,274,380.24Z"/><circle class="cls-2" cx="281.42" cy="382.22" r="1.98"/><path class="cls-2" d="M288.85,380.24a2,2,0,1,0,2,2A2,2,0,0,0,288.85,380.24Z"/><path class="cls-2" d="M296.28,380.24a2,2,0,1,0,2,2A2,2,0,0,0,296.28,380.24Z"/><path class="cls-2" d="M303.71,380.24a2,2,0,1,0,2,2A2,2,0,0,0,303.71,380.24Z"/><path class="cls-2" d="M311.15,380.24a2,2,0,1,0,2,2A2,2,0,0,0,311.15,380.24Z"/><path class="cls-2" d="M247.73,386.51a2,2,0,1,0,2,2A2,2,0,0,0,247.73,386.51Z"/><path class="cls-2" d="M255.16,386.51a2,2,0,1,0,2,2A2,2,0,0,0,255.16,386.51Z"/><path class="cls-2" d="M262.6,386.51a2,2,0,1,0,2,2A2,2,0,0,0,262.6,386.51Z"/><path class="cls-2" d="M270,386.51a2,2,0,1,0,2,2A2,2,0,0,0,270,386.51Z"/><path class="cls-2" d="M277.46,386.51a2,2,0,1,0,2,2A2,2,0,0,0,277.46,386.51Z"/><path class="cls-2" d="M284.89,386.51a2,2,0,1,0,2,2A2,2,0,0,0,284.89,386.51Z"/><path class="cls-2" d="M292.32,386.51a2,2,0,1,0,2,2A2,2,0,0,0,292.32,386.51Z"/><path class="cls-2" d="M299.75,386.51a2,2,0,1,0,2,2A2,2,0,0,0,299.75,386.51Z"/><path class="cls-2" d="M307.18,386.51a2,2,0,1,0,2,2A2,2,0,0,0,307.18,386.51Z"/><circle class="cls-2" cx="266.56" cy="394.93" r="1.98"/><path class="cls-2" d="M274,393a2,2,0,1,0,2,2A2,2,0,0,0,274,393Z"/><circle class="cls-2" cx="281.42" cy="394.93" r="1.98"/><path class="cls-2" d="M288.85,393a2,2,0,1,0,2,2A2,2,0,0,0,288.85,393Z"/><path class="cls-2" d="M296.28,393a2,2,0,1,0,2,2A2,2,0,0,0,296.28,393Z"/><path class="cls-2" d="M303.71,393a2,2,0,1,0,2,2A2,2,0,0,0,303.71,393Z"/><path class="cls-2" d="M311.15,393a2,2,0,1,0,2,2A2,2,0,0,0,311.15,393Z"/><path class="cls-2" d="M292.32,399.05a2,2,0,1,0,2,2A2,2,0,0,0,292.32,399.05Z"/><path class="cls-2" d="M299.75,399.05a2,2,0,1,0,2,2A2,2,0,0,0,299.75,399.05Z"/><path class="cls-2" d="M307.18,399.05a2,2,0,1,0,2,2A2,2,0,0,0,307.18,399.05Z"/><path class="cls-2" d="M296.28,405.49a2,2,0,1,0,2,2A2,2,0,0,0,296.28,405.49Z"/><path class="cls-2" d="M303.71,405.49a2,2,0,1,0,2,2A2,2,0,0,0,303.71,405.49Z"/><path class="cls-2" d="M311.15,405.49a2,2,0,1,0,2,2A2,2,0,0,0,311.15,405.49Z"/><path class="cls-2" d="M299.75,415.73a2,2,0,1,0-2-2A2,2,0,0,0,299.75,415.73Z"/><path class="cls-2" d="M307.18,415.73a2,2,0,1,0-2-2A2,2,0,0,0,307.18,415.73Z"/><path class="cls-2" d="M303.71,422.17a2,2,0,1,0-2-2A2,2,0,0,0,303.71,422.17Z"/><path class="cls-2" d="M311.15,422.17a2,2,0,1,0-2-2A2,2,0,0,0,311.15,422.17Z"/><path class="cls-2" d="M314.61,373.8a2,2,0,1,0,2,2A2,2,0,0,0,314.61,373.8Z"/><path class="cls-2" d="M314.61,386.51a2,2,0,1,0,2,2A2,2,0,0,0,314.61,386.51Z"/><path class="cls-2" d="M318.58,393a2,2,0,1,0,2,2A2,2,0,0,0,318.58,393Z"/><path class="cls-2" d="M314.61,399.05a2,2,0,1,0,2,2A2,2,0,0,0,314.61,399.05Z"/><path class="cls-2" d="M322.05,399.05a2,2,0,1,0,2,2A2,2,0,0,0,322.05,399.05Z"/><path class="cls-2" d="M318.58,405.49a2,2,0,1,0,2,2A2,2,0,0,0,318.58,405.49Z"/><path class="cls-2" d="M314.61,415.73a2,2,0,1,0-2-2A2,2,0,0,0,314.61,415.73Z"/><path class="cls-2" d="M322.05,415.73a2,2,0,1,0-2-2A2,2,0,0,0,322.05,415.73Z"/><path class="cls-2" d="M318.58,422.17a2,2,0,1,0-2-2A2,2,0,0,0,318.58,422.17Z"/><path class="cls-2" d="M326,422.17a2,2,0,1,0-2-2A2,2,0,0,0,326,422.17Z"/><path class="cls-17" d="M195.94,361.08l.39,3.88a2,2,0,0,0-.39-3.88Z"/><path class="cls-17" d="M197.52,376.8a2,2,0,0,0-.24-2.36Z"/><path class="cls-2" d="M326,409.45a2,2,0,0,0,.77-.15l-.95-3.79a2,2,0,0,0,.18,3.94Z"/><path class="cls-17" d="M322,390.47l-.94-3.7a2,2,0,0,0-1,1.72A2,2,0,0,0,322,390.47Z"/><path class="cls-2" d="M318.58,384.2a2,2,0,0,0,1.64-.88l-.72-2.85a2.05,2.05,0,0,0-.92-.23,2,2,0,0,0,0,4Z"/><path class="cls-18" d="M118.06,311.94c12.05,9.44,57.45,36.41,76.35,46.16,18.4,9.48,39.82,10.93,39.82,10.93"/><path class="cls-18" d="M378.94,403.49s-18.05-66-27.89-76.46c-15.55-16.58-32.18-17.27-46.6-20.34-17.16-3.65-28.33-6.06-40-9.66-8.4-2.58-13.85-4.69-15.76-5.44a204.37,204.37,0,0,1-26.25-12.47c-2,5.25-5,11.6-7,16.85"/><path class="cls-18" d="M213.88,287A104.65,104.65,0,0,0,239.12,315c15.93,12.26,32.12,18,43.67,21.27"/><path class="cls-18" d="M223.51,290.28s1.75,2.41,6.78,4.37,8.53.88,8.53.88l6.56-8.53"/><path class="cls-18" d="M261.35,333.16c-10.37,3.37-25.05,6.26-41.56,3.06-10.4-2-18.22-5.81-32.38-12.69-13.93-6.76-35.28-16.43-47.88-22.08a13.23,13.23,0,0,0-16.17,4.35,31.2,31.2,0,0,1-5.3,6.14"/><path class="cls-18" d="M129.88,329.88c8.31,8.68,26.19,21.74,44,30.62,11.51,5.76,30.53,16.42,57.75,22.32,26.44,5.72,56.77,4.59,63,4.26s9.73,1.42,12.15,5.58c1.28,2.22,4.89,16.12,5.25,17.72"/><path class="cls-2" d="M285.79,402.79a2,2,0,1,0-2.88-1.76,1.93,1.93,0,0,0,.36,1.14Z"/><path class="cls-2" d="M279.42,401.22a1.11,1.11,0,0,0,0-.19,2,2,0,0,0-3.81-.75Z"/><path class="cls-2" d="M260.33,396.5a2,2,0,1,0-3.18-1.57,1.94,1.94,0,0,0,.18.83Z"/><path class="cls-2" d="M253.67,394.85a2,2,0,0,0-3.68-.91Z"/><path class="cls-2" d="M234.21,390a2,2,0,1,0-3.21-1.55,1.94,1.94,0,0,0,.17.8Z"/><path class="cls-2" d="M227.52,388.39a2,2,0,0,0-3.66-.91Z"/><path class="cls-2" d="M208.53,383.69a1.94,1.94,0,0,0,.67-1.47,2,2,0,1,0-4,0,2,2,0,0,0,.13.69Z"/><path class="cls-17" d="M201.75,382a2,2,0,0,0-3.59-.88Z"/><path class="cls-2" d="M310.13,367.8a2,2,0,1,0,2.42.3Z"/><path class="cls-2" d="M283.57,364.52a2,2,0,0,0,1.32.51,1.9,1.9,0,0,0,.92-.23Z"/><path class="cls-2" d="M275.54,363.53a2,2,0,0,0,3.66.45Z"/><path class="cls-2" d="M268.1,362.62a2,2,0,0,0-.05.43,2,2,0,0,0,3.95.05Z"/><path class="cls-2" d="M261.11,361.75a2,2,0,0,0-.5,1.3,2,2,0,1,0,3.74-.9Z"/><path class="cls-2" d="M227.94,357.66a2,2,0,0,0,1.77,1.1,1.93,1.93,0,0,0,1.49-.7Z"/><path class="cls-2" d="M220.11,356.7s0,.05,0,.08a2,2,0,0,0,3.92.4Z"/><path class="cls-2" d="M212.93,355.81a2,2,0,1,0,3.7,1,1.77,1.77,0,0,0-.08-.52Z"/><path class="cls-2" d="M208.48,355.26l-2.12-.26a2,2,0,1,0,2.12.26Z"/></g></svg>