<svg width="160" height="100" viewBox="0 0 160 100" fill="none" xmlns="http://www.w3.org/2000/svg">
<rect x="6" y="38" width="148" height="21" fill="#F1F6F8"/>
<line x1="6" y1="60.5" x2="154" y2="60.5" stroke="#0099DB" stroke-width="2"/>
<rect x="38" y="40.9609" width="1" height="14.5405" fill="#22343C"/>
<path d="M17.5718 54.5013H18.5918L14.9558 46.2573H13.9358L10.2998 54.5013H11.3198L12.1478 52.6293H16.7438L17.5718 54.5013ZM12.5318 51.7413L14.4518 47.4093L16.3598 51.7413H12.5318Z" fill="#22343C"/>
<path d="M24.0943 48.1533C23.0983 48.1533 22.3063 48.6453 21.8383 49.4613V46.1133H20.9383V54.5013H21.8383V53.3373C22.3063 54.1533 23.0983 54.6453 24.0943 54.6453C25.7263 54.6453 26.9503 53.3013 26.9503 51.3933C26.9503 49.4973 25.7263 48.1533 24.0943 48.1533ZM23.9263 53.8413C22.7023 53.8413 21.8383 52.8213 21.8383 51.3933C21.8383 49.9653 22.7023 48.9573 23.9263 48.9573C25.1383 48.9573 26.0023 49.9653 26.0023 51.3933C26.0023 52.8213 25.1383 53.8413 23.9263 53.8413Z" fill="#22343C"/>
<path d="M32.2195 54.6453C33.0835 54.6453 33.8755 54.2853 34.4635 53.6973L33.8395 53.0853C33.4195 53.5533 32.8435 53.8413 32.2195 53.8413C30.9835 53.8413 29.9515 52.7253 29.9515 51.3933C29.9515 50.0733 30.9835 48.9573 32.2195 48.9573C32.8315 48.9573 33.3955 49.2333 33.8035 49.6773L34.4275 49.0653C33.8395 48.5013 33.0595 48.1533 32.2195 48.1533C30.4795 48.1533 29.0035 49.6293 29.0035 51.3933C29.0035 53.1573 30.4795 54.6453 32.2195 54.6453Z" fill="#22343C"/>
</svg>
