<svg width="102" height="21" viewBox="0 0 102 21" fill="none" xmlns="http://www.w3.org/2000/svg">
<rect x="2" width="100" height="21" fill="#C4C4C4" fill-opacity="0.15"/>
<line x1="9.49948e-08" y1="20" x2="100" y2="20" stroke="#6FB3D6" stroke-width="2"/>
<rect x="34" width="1" height="17" fill="#3D3D3D"/>
<path d="M13.572 16H14.592L10.956 7.756H9.936L6.3 16H7.32L8.148 14.128H12.744L13.572 16ZM8.532 13.24L10.452 8.908L12.36 13.24H8.532ZM20.0945 9.652C19.0985 9.652 18.3065 10.144 17.8385 10.96V7.612H16.9385V16H17.8385V14.836C18.3065 15.652 19.0985 16.144 20.0945 16.144C21.7265 16.144 22.9505 14.8 22.9505 12.892C22.9505 10.996 21.7265 9.652 20.0945 9.652ZM19.9265 15.34C18.7025 15.34 17.8385 14.32 17.8385 12.892C17.8385 11.464 18.7025 10.456 19.9265 10.456C21.1385 10.456 22.0025 11.464 22.0025 12.892C22.0025 14.32 21.1385 15.34 19.9265 15.34ZM28.2197 16.144C29.0837 16.144 29.8757 15.784 30.4637 15.196L29.8397 14.584C29.4197 15.052 28.8437 15.34 28.2197 15.34C26.9837 15.34 25.9517 14.224 25.9517 12.892C25.9517 11.572 26.9837 10.456 28.2197 10.456C28.8317 10.456 29.3957 10.732 29.8037 11.176L30.4277 10.564C29.8397 10 29.0597 9.652 28.2197 9.652C26.4797 9.652 25.0037 11.128 25.0037 12.892C25.0037 14.656 26.4797 16.144 28.2197 16.144Z" fill="#676767"/>
</svg>
