<svg width="160" height="100" fill="none" xmlns="http://www.w3.org/2000/svg"><rect x="38.5" y="25.5" width="73" height="19" rx="9.5" stroke="#009ADB"/><path d="M50.624 36.248v-4.744h-.808V37h3.72v-.752h-2.912Zm5.514.848a2.182 2.182 0 0 0 2.176-2.168c0-1.192-.984-2.16-2.176-2.16-1.192 0-2.176.968-2.176 2.16 0 1.192.984 2.168 2.176 2.168Zm0-.688c-.76 0-1.384-.664-1.384-1.48s.624-1.472 1.384-1.472c.76 0 1.384.656 1.384 1.472s-.624 1.48-1.384 1.48Zm3.829-2.736v-.808h-.792V37h.792v-2.2c0-.8.624-1.344 1.536-1.344v-.688c-.72 0-1.28.352-1.536.904Zm4.165 2.768c-.736 0-1.248-.528-1.344-1.256h3.304c0-1.472-.736-2.416-2-2.416-1.144 0-2.08.912-2.08 2.152 0 1.272.992 2.176 2.136 2.176.584 0 1.312-.248 1.672-.64l-.464-.488c-.256.272-.776.472-1.224.472Zm-.024-3.016c.72 0 1.136.512 1.216 1.176h-2.528c.12-.712.648-1.176 1.312-1.176Zm7.444-.656c-.648 0-1.152.4-1.28.984a1.424 1.424 0 0 0-1.384-.984c-.536 0-.968.264-1.176.688v-.592h-.792V37h.792v-2.584c0-.568.416-.96 1.016-.96.512 0 .872.424.872 1.032V37h.776v-2.584c0-.568.424-.96 1.016-.96.512 0 .88.424.88 1.032V37h.768v-2.632c0-.936-.624-1.6-1.488-1.6Zm5.091-.592a.48.48 0 0 0 .472-.48.478.478 0 0 0-.472-.472.485.485 0 0 0-.48.472c0 .256.216.48.48.48Zm-.4 4.824h.792v-4.136h-.792V37Zm4.242-4.232c-.632 0-1.144.304-1.464.8v-.704h-.792v5.512h.792v-2.088c.32.504.832.808 1.464.808 1.096 0 1.904-.896 1.904-2.168 0-1.264-.808-2.16-1.904-2.16Zm-.184 3.64c-.752 0-1.28-.616-1.28-1.48s.528-1.472 1.28-1.472 1.288.608 1.288 1.472-.536 1.48-1.288 1.48Zm4.344.688c.913 0 1.569-.496 1.569-1.28 0-.824-.72-1.048-1.4-1.248-.704-.216-.984-.312-.984-.632 0-.344.335-.528.752-.528.376 0 .792.144 1.2.4l.328-.56a2.806 2.806 0 0 0-1.528-.48c-.872 0-1.504.496-1.504 1.256 0 .672.48.944 1.423 1.208.528.144.96.272.96.664 0 .336-.311.56-.808.56-.456 0-.952-.184-1.407-.52l-.36.544c.496.4 1.151.616 1.76.616Zm5.207-4.232v2.568c0 .544-.504.976-1.136.976-.56 0-.952-.424-.952-1.048v-2.496h-.776v2.632c0 .952.632 1.6 1.544 1.6.568 0 1.072-.28 1.32-.688V37h.792v-4.136h-.792Zm6.631-.096c-.648 0-1.152.4-1.28.984a1.424 1.424 0 0 0-1.384-.984c-.536 0-.968.264-1.176.688v-.592h-.792V37h.792v-2.584c0-.568.416-.96 1.016-.96.512 0 .872.424.872 1.032V37h.776v-2.584c0-.568.424-.96 1.016-.96.512 0 .88.424.88 1.032V37h.768v-2.632c0-.936-.624-1.6-1.488-1.6Z" fill="#A9B7C6"/><rect x="38.5" y="55.5" width="84" height="19" rx="9.5" fill="#fff" stroke="#AE50D3"/><path d="M51.624 66.248v-4.744h-.808V67h3.72v-.752h-2.912Zm5.514.848a2.182 2.182 0 0 0 2.176-2.168c0-1.192-.984-2.16-2.176-2.16-1.192 0-2.176.968-2.176 2.16 0 1.192.984 2.168 2.176 2.168Zm0-.688c-.76 0-1.384-.664-1.384-1.48s.624-1.472 1.384-1.472c.76 0 1.384.656 1.384 1.472s-.624 1.48-1.384 1.48Zm3.829-2.736v-.808h-.792V67h.792v-2.2c0-.8.624-1.344 1.536-1.344v-.688c-.72 0-1.28.352-1.536.904Zm4.165 2.768c-.736 0-1.248-.528-1.344-1.256h3.304c0-1.472-.736-2.416-2-2.416-1.144 0-2.08.912-2.08 2.152 0 1.272.992 2.176 2.136 2.176.584 0 1.312-.248 1.672-.64l-.464-.488c-.256.272-.776.472-1.224.472Zm-.024-3.016c.72 0 1.136.512 1.216 1.176h-2.528c.12-.712.648-1.176 1.312-1.176Zm7.444-.656c-.648 0-1.152.4-1.28.984a1.424 1.424 0 0 0-1.384-.984c-.536 0-.968.264-1.176.688v-.592h-.792V67h.792v-2.584c0-.568.416-.96 1.016-.96.512 0 .872.424.872 1.032V67h.776v-2.584c0-.568.424-.96 1.016-.96.512 0 .88.424.88 1.032V67h.768v-2.632c0-.936-.624-1.6-1.488-1.6Zm5.091-.592a.48.48 0 0 0 .472-.48.478.478 0 0 0-.472-.472.485.485 0 0 0-.48.472c0 .256.216.48.48.48Zm-.4 4.824h.792v-4.136h-.792V67Zm4.242-4.232c-.632 0-1.144.304-1.464.8v-.704h-.792v5.512h.792v-2.088c.32.504.832.808 1.464.808 1.096 0 1.904-.896 1.904-2.168 0-1.264-.808-2.16-1.904-2.16Zm-.184 3.64c-.752 0-1.28-.616-1.28-1.48s.528-1.472 1.28-1.472 1.288.608 1.288 1.472-.536 1.48-1.288 1.48Zm4.344.688c.913 0 1.569-.496 1.569-1.28 0-.824-.72-1.048-1.4-1.248-.704-.216-.984-.312-.984-.632 0-.344.335-.528.752-.528.376 0 .792.144 1.2.4l.328-.56a2.806 2.806 0 0 0-1.528-.48c-.872 0-1.504.496-1.504 1.256 0 .672.48.944 1.423 1.208.528.144.96.272.96.664 0 .336-.311.56-.808.56-.456 0-.952-.184-1.407-.52l-.36.544c.496.4 1.151.616 1.76.616Zm5.207-4.232v2.568c0 .544-.504.976-1.136.976-.56 0-.952-.424-.952-1.048v-2.496h-.776v2.632c0 .952.632 1.6 1.544 1.6.568 0 1.072-.28 1.32-.688V67h.792v-4.136h-.792Zm6.631-.096c-.648 0-1.152.4-1.28.984a1.424 1.424 0 0 0-1.384-.984c-.536 0-.968.264-1.176.688v-.592h-.792V67h.792v-2.584c0-.568.416-.96 1.016-.96.512 0 .872.424.872 1.032V67h.776v-2.584c0-.568.424-.96 1.016-.96.512 0 .88.424.88 1.032V67h.768v-2.632c0-.936-.624-1.6-1.488-1.6Z" fill="#A9B7C6"/><circle cx="113" cy="65" r="7" fill="#BB70DB"/><path d="M112.819 68.112c1.465 0 2.464-.859 2.464-2.184 0-1.288-.98-2.016-2.119-2.016-.551 0-.971.168-1.297.392l.056-1.652h3.005v-1.064h-4.097l-.094 3.407.794.336c.364-.28.802-.448 1.306-.448.766 0 1.279.438 1.279 1.092 0 .625-.504 1.129-1.279 1.129-.644 0-1.241-.327-1.726-.812l-.691.83c.569.598 1.353.99 2.399.99Z" fill="#fff"/></svg>