<svg width="828" height="278" viewBox="0 0 828 278" fill="none" xmlns="http://www.w3.org/2000/svg">
<g opacity="0.66">
<path opacity="0.66" d="M643.792 54.136C644.265 53.8041 644.102 52.7567 643.429 51.7965C642.755 50.8364 641.825 50.3271 641.352 50.659C640.879 50.9909 641.042 52.0383 641.716 52.9984C642.39 53.9586 643.319 54.4679 643.792 54.136Z" fill="#85999E"/>
<path opacity="0.66" d="M657.42 66.5124C657.894 66.1831 657.736 65.1363 657.067 64.1745C656.399 63.2127 655.473 62.6999 654.999 63.0293C654.525 63.3586 654.683 64.4053 655.352 65.3672C656.02 66.329 656.946 66.8417 657.42 66.5124Z" fill="#85999E"/>
<path opacity="0.66" d="M669.712 72.8868C670.185 72.5549 670.022 71.5075 669.348 70.5473C668.674 69.5872 667.745 69.0779 667.272 69.4098C666.799 69.7417 666.962 70.7891 667.635 71.7492C668.309 72.7094 669.239 73.2187 669.712 72.8868Z" fill="#85999E"/>
<path opacity="0.66" d="M682.671 82.2611C683.144 81.9292 682.982 80.8818 682.308 79.9217C681.634 78.9615 680.704 78.4522 680.231 78.7841C679.758 79.116 679.921 80.1634 680.595 81.1236C681.269 82.0837 682.198 82.593 682.671 82.2611Z" fill="#85999E"/>
<path opacity="0.66" d="M695.633 91.6384C696.106 91.3065 695.943 90.2591 695.269 89.299C694.595 88.3388 693.666 87.8295 693.193 88.1614C692.72 88.4933 692.883 89.5408 693.556 90.5009C694.23 91.4611 695.16 91.9703 695.633 91.6384Z" fill="#85999E"/>
<path opacity="0.66" d="M643.792 66.4944C644.265 66.1625 644.102 65.1151 643.428 64.1549C642.754 63.1948 641.825 62.6855 641.352 63.0174C640.879 63.3493 641.042 64.3967 641.715 65.3568C642.389 66.317 643.319 66.8263 643.792 66.4944Z" fill="#85999E"/>
<path opacity="0.66" d="M656.753 75.8683C657.226 75.5364 657.064 74.489 656.39 73.5288C655.716 72.5687 654.786 72.0594 654.313 72.3913C653.84 72.7232 654.003 73.7706 654.677 74.7308C655.351 75.6909 656.281 76.2002 656.753 75.8683Z" fill="#85999E"/>
<path opacity="0.66" d="M669.715 85.2456C670.188 84.9137 670.025 83.8663 669.351 82.9062C668.677 81.946 667.748 81.4367 667.275 81.7686C666.802 82.1005 666.965 83.1479 667.638 84.1081C668.312 85.0682 669.242 85.5775 669.715 85.2456Z" fill="#85999E"/>
<path opacity="0.66" d="M682.673 94.6229C683.146 94.291 682.983 93.2436 682.309 92.2835C681.635 91.3233 680.706 90.814 680.233 91.146C679.76 91.4779 679.923 92.5253 680.596 93.4854C681.27 94.4456 682.2 94.9548 682.673 94.6229Z" fill="#85999E"/>
<path opacity="0.66" d="M696.176 107.227C696.65 106.898 696.492 105.851 695.823 104.89C695.155 103.928 694.228 103.415 693.755 103.744C693.281 104.074 693.439 105.12 694.107 106.082C694.776 107.044 695.702 107.557 696.176 107.227Z" fill="#85999E"/>
<path opacity="0.66" d="M643.792 78.8498C644.264 78.5179 644.102 77.4705 643.428 76.5104C642.754 75.5502 641.824 75.0409 641.351 75.3729C640.879 75.7048 641.041 76.7522 641.715 77.7123C642.389 78.6724 643.319 79.1817 643.792 78.8498Z" fill="#85999E"/>
<path opacity="0.66" d="M656.753 88.2271C657.226 87.8952 657.063 86.8478 656.389 85.8877C655.716 84.9275 654.786 84.4182 654.313 84.7501C653.84 85.0821 654.003 86.1295 654.677 87.0896C655.35 88.0498 656.28 88.559 656.753 88.2271Z" fill="#85999E"/>
<path opacity="0.66" d="M669.715 97.6045C670.188 97.2726 670.025 96.2252 669.351 95.265C668.677 94.3049 667.748 93.7956 667.275 94.1275C666.802 94.4594 666.964 95.5068 667.638 96.4669C668.312 97.4271 669.242 97.9364 669.715 97.6045Z" fill="#85999E"/>
<path opacity="0.66" d="M682.676 106.981C683.149 106.649 682.986 105.602 682.312 104.642C681.639 103.682 680.709 103.172 680.236 103.504C679.763 103.836 679.926 104.884 680.6 105.844C681.273 106.804 682.203 107.313 682.676 106.981Z" fill="#85999E"/>
<path opacity="0.66" d="M695.632 116.352C696.105 116.02 695.942 114.973 695.268 114.013C694.595 113.053 693.665 112.543 693.192 112.875C692.719 113.207 692.882 114.255 693.556 115.215C694.23 116.175 695.159 116.684 695.632 116.352Z" fill="#85999E"/>
<path opacity="0.66" d="M643.795 91.2087C644.268 90.8768 644.105 89.8294 643.431 88.8692C642.757 87.9091 641.828 87.3998 641.355 87.7317C640.882 88.0636 641.045 89.111 641.718 90.0711C642.392 91.0313 643.322 91.5406 643.795 91.2087Z" fill="#85999E"/>
<path opacity="0.66" d="M656.753 100.586C657.226 100.254 657.063 99.2066 656.389 98.2465C655.715 97.2864 654.786 96.7771 654.313 97.109C653.84 97.4409 654.003 98.4883 654.676 99.4485C655.35 100.409 656.28 100.918 656.753 100.586Z" fill="#85999E"/>
<path opacity="0.66" d="M669.714 109.963C670.187 109.631 670.025 108.584 669.351 107.624C668.677 106.664 667.747 106.154 667.274 106.486C666.801 106.818 666.964 107.866 667.638 108.826C668.312 109.786 669.241 110.295 669.714 109.963Z" fill="#85999E"/>
<path opacity="0.66" d="M682.676 119.337C683.149 119.005 682.986 117.957 682.312 116.997C681.638 116.037 680.709 115.528 680.236 115.86C679.763 116.192 679.926 117.239 680.599 118.199C681.273 119.159 682.203 119.669 682.676 119.337Z" fill="#85999E"/>
<path opacity="0.66" d="M695.635 128.711C696.108 128.379 695.945 127.332 695.272 126.372C694.598 125.412 693.668 124.902 693.195 125.234C692.722 125.566 692.885 126.613 693.559 127.574C694.233 128.534 695.162 129.043 695.635 128.711Z" fill="#85999E"/>
<path opacity="0.66" d="M643.794 103.567C644.267 103.235 644.105 102.188 643.431 101.228C642.757 100.267 641.827 99.7582 641.354 100.09C640.881 100.422 641.044 101.469 641.718 102.43C642.392 103.39 643.321 103.899 643.794 103.567Z" fill="#85999E"/>
<path opacity="0.66" d="M656.756 112.944C657.229 112.612 657.066 111.565 656.392 110.605C655.718 109.645 654.789 109.135 654.316 109.467C653.843 109.799 654.006 110.847 654.679 111.807C655.353 112.767 656.283 113.276 656.756 112.944Z" fill="#85999E"/>
<path opacity="0.66" d="M669.714 122.322C670.187 121.99 670.024 120.942 669.35 119.982C668.676 119.022 667.747 118.513 667.274 118.845C666.801 119.177 666.964 120.224 667.638 121.184C668.311 122.144 669.241 122.654 669.714 122.322Z" fill="#85999E"/>
<path opacity="0.66" d="M682.675 131.696C683.148 131.364 682.985 130.316 682.312 129.356C681.638 128.396 680.708 127.887 680.235 128.219C679.762 128.551 679.925 129.598 680.599 130.558C681.273 131.518 682.202 132.028 682.675 131.696Z" fill="#85999E"/>
<path opacity="0.66" d="M695.635 141.07C696.108 140.738 695.945 139.691 695.271 138.731C694.597 137.77 693.668 137.261 693.195 137.593C692.722 137.925 692.885 138.972 693.558 139.932C694.232 140.893 695.162 141.402 695.635 141.07Z" fill="#85999E"/>
<path opacity="0.66" d="M643.794 115.926C644.267 115.594 644.104 114.547 643.43 113.586C642.756 112.626 641.827 112.117 641.354 112.449C640.881 112.781 641.044 113.828 641.718 114.788C642.391 115.749 643.321 116.258 643.794 115.926Z" fill="#85999E"/>
<path opacity="0.66" d="M656.755 125.303C657.228 124.971 657.066 123.924 656.392 122.964C655.718 122.004 654.788 121.494 654.315 121.826C653.842 122.158 654.005 123.206 654.679 124.166C655.353 125.126 656.282 125.635 656.755 125.303Z" fill="#85999E"/>
<path opacity="0.66" d="M669.717 134.677C670.19 134.345 670.027 133.298 669.353 132.338C668.68 131.378 667.75 130.868 667.277 131.2C666.804 131.532 666.967 132.58 667.641 133.54C668.314 134.5 669.244 135.009 669.717 134.677Z" fill="#85999E"/>
<path opacity="0.66" d="M682.675 144.054C683.148 143.722 682.985 142.675 682.311 141.715C681.638 140.754 680.708 140.245 680.235 140.577C679.762 140.909 679.925 141.956 680.599 142.917C681.272 143.877 682.202 144.386 682.675 144.054Z" fill="#85999E"/>
<path opacity="0.66" d="M695.635 153.428C696.108 153.096 695.945 152.049 695.271 151.089C694.597 150.129 693.667 149.62 693.195 149.951C692.722 150.283 692.884 151.331 693.558 152.291C694.232 153.251 695.162 153.76 695.635 153.428Z" fill="#85999E"/>
<path opacity="0.66" d="M643.794 128.285C644.267 127.953 644.104 126.905 643.43 125.945C642.756 124.985 641.827 124.476 641.354 124.808C640.881 125.14 641.044 126.187 641.717 127.147C642.391 128.107 643.321 128.617 643.794 128.285Z" fill="#85999E"/>
<path opacity="0.66" d="M656.755 137.659C657.228 137.327 657.065 136.279 656.392 135.319C655.718 134.359 654.788 133.85 654.315 134.182C653.842 134.514 654.005 135.561 654.679 136.521C655.353 137.481 656.282 137.991 656.755 137.659Z" fill="#85999E"/>
<path opacity="0.66" d="M669.717 147.036C670.19 146.704 670.027 145.657 669.353 144.697C668.679 143.736 667.749 143.227 667.277 143.559C666.804 143.891 666.966 144.938 667.64 145.899C668.314 146.859 669.244 147.368 669.717 147.036Z" fill="#85999E"/>
<path opacity="0.66" d="M682.678 156.413C683.151 156.081 682.988 155.034 682.315 154.073C681.641 153.113 680.711 152.604 680.238 152.936C679.765 153.268 679.928 154.315 680.602 155.275C681.276 156.236 682.205 156.745 682.678 156.413Z" fill="#85999E"/>
<path opacity="0.66" d="M695.634 165.787C696.107 165.455 695.944 164.408 695.27 163.448C694.597 162.488 693.667 161.978 693.194 162.31C692.721 162.642 692.884 163.69 693.558 164.65C694.231 165.61 695.161 166.119 695.634 165.787Z" fill="#85999E"/>
<path opacity="0.66" d="M643.795 140.643C644.268 140.311 644.105 139.263 643.432 138.303C642.758 137.343 641.828 136.834 641.355 137.166C640.882 137.498 641.045 138.545 641.719 139.505C642.393 140.465 643.322 140.975 643.795 140.643Z" fill="#85999E"/>
<path opacity="0.66" d="M656.755 150.017C657.228 149.685 657.065 148.638 656.391 147.678C655.717 146.718 654.788 146.208 654.315 146.54C653.842 146.872 654.005 147.919 654.679 148.88C655.352 149.84 656.282 150.349 656.755 150.017Z" fill="#85999E"/>
<path opacity="0.66" d="M669.716 159.394C670.189 159.063 670.026 158.015 669.353 157.055C668.679 156.095 667.749 155.586 667.276 155.917C666.803 156.249 666.966 157.297 667.64 158.257C668.314 159.217 669.243 159.726 669.716 159.394Z" fill="#85999E"/>
<path opacity="0.66" d="M682.678 168.772C683.151 168.44 682.988 167.392 682.314 166.432C681.641 165.472 680.711 164.963 680.238 165.295C679.765 165.627 679.928 166.674 680.602 167.634C681.275 168.594 682.205 169.104 682.678 168.772Z" fill="#85999E"/>
<path opacity="0.66" d="M695.637 178.143C696.11 177.811 695.947 176.763 695.274 175.803C694.6 174.843 693.67 174.334 693.197 174.666C692.724 174.998 692.887 176.045 693.561 177.005C694.235 177.965 695.164 178.475 695.637 178.143Z" fill="#85999E"/>
<path opacity="0.66" d="M643.798 153.002C644.271 152.67 644.108 151.622 643.435 150.662C642.761 149.702 641.831 149.193 641.358 149.525C640.885 149.857 641.048 150.904 641.722 151.864C642.396 152.824 643.325 153.334 643.798 153.002Z" fill="#85999E"/>
<path opacity="0.66" d="M656.754 162.376C657.227 162.044 657.065 160.997 656.391 160.037C655.717 159.076 654.787 158.567 654.314 158.899C653.841 159.231 654.004 160.278 654.678 161.238C655.352 162.199 656.281 162.708 656.754 162.376Z" fill="#85999E"/>
<path opacity="0.66" d="M669.716 171.753C670.189 171.421 670.026 170.374 669.352 169.414C668.679 168.454 667.749 167.944 667.276 168.276C666.803 168.608 666.966 169.656 667.64 170.616C668.313 171.576 669.243 172.085 669.716 171.753Z" fill="#85999E"/>
<path opacity="0.66" d="M682.86 184.412C683.334 184.083 683.176 183.036 682.507 182.074C681.839 181.112 680.913 180.599 680.439 180.929C679.965 181.258 680.123 182.305 680.792 183.267C681.46 184.228 682.386 184.741 682.86 184.412Z" fill="#85999E"/>
<path opacity="0.66" d="M695.639 190.504C696.112 190.172 695.949 189.125 695.275 188.165C694.601 187.204 693.672 186.695 693.199 187.027C692.726 187.359 692.889 188.406 693.563 189.367C694.236 190.327 695.166 190.836 695.639 190.504Z" fill="#85999E"/>
</g>
<path opacity="0.28" d="M518.752 131.386L393.745 59.2129V203.555L518.752 131.386Z" fill="#0094D2"/>
<path d="M521.019 119.199L386.085 41.2948V197.103L521.019 119.199Z" stroke="black" stroke-width="0.349896" stroke-miterlimit="10"/>
<path opacity="0.28" d="M427.222 134.315L332.163 79.43V189.196L427.222 134.315Z" fill="#0094D2"/>
<path opacity="0.2" d="M355.585 139.958L284.374 98.8454V181.071L355.585 139.958Z" fill="#0094D2"/>
<path opacity="0.18" d="M291.851 148.51L247.212 122.736V174.283L291.851 148.51Z" fill="#0094D2"/>
<path opacity="0.18" d="M267.212 176.39L235.784 158.244V194.535L267.212 176.39Z" fill="#0094D2"/>
<path opacity="0.18" d="M213.755 213.975L190.483 200.539V227.408L213.755 213.975Z" fill="#0094D2"/>
<path opacity="0.18" d="M260.441 123.835L237.17 110.403V137.271L260.441 123.835Z" fill="#0094D2"/>
<path opacity="0.18" d="M232.359 143.251L209.091 129.815V156.687L232.359 143.251Z" fill="#0094D2"/>
<path d="M564.78 140.763L604.392 117.89V85.6893L536.894 124.661L564.78 140.763Z" fill="#0094D2"/>
<path opacity="0.37" d="M536.894 202.604L604.392 241.571V209.374L564.78 186.501L536.894 202.604Z" fill="#0094D2"/>
<path d="M564.78 186.501V140.763L536.894 124.661V202.603L564.78 186.501Z" fill="white"/>
<path opacity="0.37" d="M644.007 186.501L604.392 209.374V241.571L671.894 202.604L644.007 186.501Z" fill="#0094D2"/>
<path d="M644.007 186.501V140.763L671.894 124.661V202.603" fill="white"/>
<path d="M671.894 124.661L604.392 85.6893V117.89L644.007 140.763L671.894 124.661Z" fill="#004A6E"/>
<path d="M564.781 140.763L604.392 163.632L644.007 140.763L604.392 117.89L564.781 140.763Z" fill="white"/>
<path d="M564.781 140.763L604.392 163.632V209.374L564.781 186.501V140.763Z" fill="#F18A21"/>
<path d="M644.007 140.763L604.392 163.632V209.374L644.007 186.501V140.763Z" fill="#0094D2"/>
<path d="M569.721 147.677L609.333 170.55V216.288L569.721 193.419V147.677Z" stroke="white" stroke-width="0.349896" stroke-miterlimit="10"/>
<path d="M648.948 147.677L609.333 170.55V216.288L648.948 193.419V147.677Z" stroke="white" stroke-width="0.349896" stroke-miterlimit="10"/>
<path d="M606.016 235.245L673.5 196.284V118.366L606.016 157.324V235.245Z" stroke="black" stroke-width="0.349896" stroke-miterlimit="10"/>
<path d="M606.016 235.245L538.535 196.284V118.366L606.016 157.324V235.245Z" stroke="black" stroke-width="0.349896" stroke-miterlimit="10"/>
<path d="M538.535 118.366L606.016 79.4055L673.5 118.366L606.016 157.324L538.535 118.366Z" stroke="black" stroke-width="0.349896" stroke-miterlimit="10"/>
<path d="M740.407 115.714L770.211 98.5096V64.0974L740.407 81.3018V115.714Z" stroke="black" stroke-width="0.349896" stroke-miterlimit="10"/>
<path d="M740.407 115.714L710.606 98.5096V64.0974L740.407 81.3018V115.714Z" stroke="black" stroke-width="0.349896" stroke-miterlimit="10"/>
<path opacity="0.68" d="M711.068 59.9372L740.872 42.7328L770.673 59.9372L740.872 77.1416L711.068 59.9372Z" fill="#F18A21"/>
<path opacity="0.24" d="M711.068 124.65L740.872 107.446L770.673 124.65L740.872 141.858L711.068 124.65Z" fill="#0094D2"/>
<path opacity="0.25" d="M717.167 141.638L739.83 128.555L762.496 141.638L739.83 154.724L717.167 141.638Z" fill="#0094D2"/>
<path d="M710.606 64.0974L740.407 46.893L770.211 64.0974L740.407 81.3017L710.606 64.0974Z" stroke="black" stroke-width="0.349896" stroke-miterlimit="10"/>
<path opacity="0.68" d="M450.802 244.808L472.656 232.191V206.953L450.802 219.574V244.808Z" fill="#F18A21"/>
<path d="M448.083 243.604L469.938 230.987V205.749L448.083 218.366V243.604Z" stroke="black" stroke-width="0.349896" stroke-miterlimit="10"/>
<path d="M448.083 243.604L426.225 230.987V205.749L448.083 218.366V243.604Z" stroke="black" stroke-width="0.349896" stroke-miterlimit="10"/>
<path d="M426.225 205.749L448.083 193.132L469.938 205.749L448.083 218.367L426.225 205.749Z" stroke="black" stroke-width="0.349896" stroke-miterlimit="10"/>
<path d="M252.446 229.185L234.671 218.923V198.398L252.446 208.66V229.185Z" stroke="black" stroke-width="0.349896" stroke-miterlimit="10"/>
<path d="M234.671 198.398L252.446 188.139L270.217 198.398L252.446 208.66L234.671 198.398Z" stroke="black" stroke-width="0.349896" stroke-miterlimit="10"/>
<path d="M270.217 239.447L287.992 229.185V208.66L270.217 218.923V239.447Z" stroke="black" stroke-width="0.349896" stroke-miterlimit="10"/>
<path d="M287.992 229.185L305.767 218.923V198.398L287.992 208.66V229.185Z" stroke="black" stroke-width="0.349896" stroke-miterlimit="10"/>
<path d="M270.217 239.447L252.446 229.185V208.66L270.217 218.923V239.447Z" stroke="black" stroke-width="0.349896" stroke-miterlimit="10"/>
<path d="M252.446 208.66L270.217 198.398L287.992 208.66L270.217 218.923L252.446 208.66Z" stroke="black" stroke-width="0.349896" stroke-miterlimit="10"/>
<path d="M270.217 198.398L287.992 188.139L305.767 198.398L287.992 208.66L270.217 198.398Z" stroke="black" stroke-width="0.349896" stroke-miterlimit="10"/>
<path d="M216.897 229.185L234.671 218.923V198.398L216.897 208.66V229.185Z" stroke="black" stroke-width="0.349896" stroke-miterlimit="10"/>
<path d="M216.897 229.185L199.122 218.923V198.398L216.897 208.66V229.185Z" stroke="black" stroke-width="0.349896" stroke-miterlimit="10"/>
<path d="M199.122 198.398L216.897 188.139L234.671 198.398L216.897 208.66L199.122 198.398Z" stroke="black" stroke-width="0.349896" stroke-miterlimit="10"/>
<path d="M75.4828 148.597L59.0657 138.93L75.4513 129.266L91.8684 138.923L75.4828 148.597Z" fill="#004A6E"/>
<path d="M75.42 101.529L59.0588 111.218L75.4445 120.882L91.8301 111.218L75.42 101.529Z" fill="#964221"/>
<path d="M91.9455 91.8196L75.4199 101.529L102.943 117.775V132.366L75.4829 148.597L91.991 158.37L119.836 141.893L119.881 108.342L91.9455 91.8196Z" fill="#0094D2"/>
<path d="M47.9006 132.366V117.775L75.4199 101.529L58.8978 91.8196L30.9622 108.342L31.0076 141.893L58.8523 158.37L75.4829 148.597L47.9006 132.366Z" fill="#F18A21"/>
<path opacity="0.18" d="M144.316 221.172C171.791 221.172 194.064 198.899 194.064 171.424C194.064 143.948 171.791 121.675 144.316 121.675C116.841 121.675 94.5676 143.948 94.5676 171.424C94.5676 198.899 116.841 221.172 144.316 221.172Z" fill="#40393F"/>
<path d="M144.192 179.01H137.47L134.286 186.956H128.38H128.352L144.192 151.442V151.466V145.427L118.856 154.461L122.719 187.964L144.192 199.857V179.01Z" fill="white"/>
<path d="M139.566 174.112H144.192V162.981L139.566 174.112Z" fill="white"/>
<g opacity="0.9">
<path opacity="0.9" d="M144.192 179.01H150.913L154.101 186.956H160.004H160.032L144.192 151.442V151.466V145.427L169.531 154.461L165.665 187.964L144.192 199.857V179.01Z" fill="white"/>
<path opacity="0.9" d="M148.818 174.112H144.192V162.981L148.818 174.112Z" fill="white"/>
</g>
<path d="M293.335 75.1507H225.564C225.181 75.1507 224.871 75.4608 224.871 75.8435V87.7784C224.871 88.161 225.181 88.4712 225.564 88.4712H293.335C293.718 88.4712 294.028 88.161 294.028 87.7784V75.8435C294.028 75.4608 293.718 75.1507 293.335 75.1507Z" stroke="black" stroke-width="0.349896" stroke-miterlimit="10"/>
<path d="M287.159 84.2268L289.577 81.809L287.159 79.3913" stroke="black" stroke-width="0.349896" stroke-miterlimit="10"/>
<path d="M314.098 101.753H246.327C245.944 101.753 245.634 102.063 245.634 102.446V114.381C245.634 114.763 245.944 115.073 246.327 115.073H314.098C314.48 115.073 314.791 114.763 314.791 114.381V102.446C314.791 102.063 314.48 101.753 314.098 101.753Z" stroke="black" stroke-width="0.349896" stroke-miterlimit="10"/>
<path d="M307.922 110.829L310.34 108.412L307.922 105.997" stroke="black" stroke-width="0.349896" stroke-miterlimit="10"/>
<path d="M343.157 122.117H275.385C275.003 122.117 274.693 122.427 274.693 122.81V134.745C274.693 135.128 275.003 135.438 275.385 135.438H343.157C343.539 135.438 343.849 135.128 343.849 134.745V122.81C343.849 122.427 343.539 122.117 343.157 122.117Z" stroke="black" stroke-width="0.349896" stroke-miterlimit="10"/>
<path d="M336.978 131.193L339.395 128.776L336.978 126.358" stroke="black" stroke-width="0.349896" stroke-miterlimit="10"/>
<path d="M485.42 38.3715C486.484 38.3715 487.469 37.9125 488.186 37.1959L487.693 36.692C487.1 37.3079 486.293 37.6997 485.42 37.6997C483.673 37.6997 482.195 36.1882 482.195 34.3855C482.195 32.5941 483.673 31.0825 485.42 31.0825C486.293 31.0825 487.1 31.4744 487.693 32.079L488.186 31.5864C487.469 30.8586 486.484 30.4107 485.42 30.4107C483.281 30.4107 481.479 32.2246 481.479 34.3855C481.479 36.5465 483.281 38.3715 485.42 38.3715ZM490.597 37.5542V30.5451H489.881V38.2372H494.874V37.5542H490.597ZM502.098 38.2372H502.881L499.489 30.5451H498.705L495.312 38.2372H496.096L496.891 36.4233H501.303L502.098 38.2372ZM497.205 35.7291L499.097 31.4296L500.989 35.7291H497.205ZM510.335 32.9748C510.335 31.5528 509.137 30.5451 507.559 30.5451H504.401V38.2372H505.118V35.3932H506.943L508.947 38.2372H509.776L507.771 35.382C509.249 35.3037 510.335 34.3295 510.335 32.9748ZM505.118 31.2281H507.424C508.723 31.2281 509.608 31.8999 509.608 32.9748C509.608 34.0384 508.723 34.7102 507.424 34.7102H505.118V31.2281ZM512.165 38.2372H512.881V30.5451H512.165V38.2372ZM517.012 38.2372H517.729V31.2281H520.394V30.5451H514.348V31.2281H517.012V38.2372ZM523.845 38.2372H524.595V35.1021L527.696 30.5451H526.823L524.225 34.3967L521.628 30.5451H520.732L523.845 35.1021V38.2372ZM535.543 38.3715C536.606 38.3715 537.592 37.9125 538.308 37.1959L537.815 36.692C537.222 37.3079 536.416 37.6997 535.543 37.6997C533.796 37.6997 532.318 36.1882 532.318 34.3855C532.318 32.5941 533.796 31.0825 535.543 31.0825C536.416 31.0825 537.222 31.4744 537.815 32.079L538.308 31.5864C537.592 30.8586 536.606 30.4107 535.543 30.4107C533.404 30.4107 531.601 32.2246 531.601 34.3855C531.601 36.5465 533.404 38.3715 535.543 38.3715ZM543.295 38.3715C545.434 38.3715 547.225 36.5465 547.225 34.3855C547.225 32.2246 545.434 30.4107 543.295 30.4107C541.156 30.4107 539.354 32.2246 539.354 34.3855C539.354 36.5465 541.156 38.3715 543.295 38.3715ZM543.295 37.6997C541.548 37.6997 540.07 36.1882 540.07 34.3855C540.07 32.5941 541.548 31.0825 543.295 31.0825C545.03 31.0825 546.497 32.5941 546.497 34.3855C546.497 36.1882 545.03 37.6997 543.295 37.6997ZM555.089 32.9748C555.089 31.5528 553.891 30.5451 552.313 30.5451H549.155V38.2372H549.872V35.3932H551.697L553.701 38.2372H554.529L552.525 35.382C554.003 35.3037 555.089 34.3295 555.089 32.9748ZM549.872 31.2281H552.178C553.477 31.2281 554.362 31.8999 554.362 32.9748C554.362 34.0384 553.477 34.7102 552.178 34.7102H549.872V31.2281ZM562.282 31.2281V30.5451H556.918V38.2372H562.282V37.5542H557.635V34.6654H561.856V33.9713H557.635V31.2281H562.282Z" fill="black"/>
<path d="M590.743 94.1147V120.465" stroke="white" stroke-width="0.699791" stroke-miterlimit="10"/>
<path d="M544.056 51.8193H590.743V78.9782" stroke="black" stroke-width="0.699791" stroke-miterlimit="10"/>
<path d="M44.9015 67.4864C45.9651 67.4864 46.9504 67.0274 47.667 66.3108L47.1744 65.8069C46.581 66.4228 45.7748 66.8146 44.9015 66.8146C43.1548 66.8146 41.6768 65.3031 41.6768 63.5004C41.6768 61.709 43.1548 60.1974 44.9015 60.1974C45.7748 60.1974 46.581 60.5893 47.1744 61.1939L47.667 60.7013C46.9504 59.9735 45.9651 59.5256 44.9015 59.5256C42.7629 59.5256 40.9602 61.3395 40.9602 63.5004C40.9602 65.6614 42.7629 67.4864 44.9015 67.4864ZM50.0786 66.6691V59.66H49.362V67.3521H54.3557V66.6691H50.0786ZM61.579 67.3521H62.3627L58.9701 59.66H58.1864L54.7938 67.3521H55.5776L56.3725 65.5382H60.784L61.579 67.3521ZM56.686 64.844L58.5783 60.5445L60.4705 64.844H56.686ZM69.8169 62.0897C69.8169 60.6677 68.6189 59.66 67.0401 59.66H63.8827V67.3521H64.5993V64.5081H66.4243L68.4285 67.3521H69.2571L67.2529 64.4969C68.7308 64.4186 69.8169 63.4444 69.8169 62.0897ZM64.5993 60.343H66.9058C68.2046 60.343 69.0891 61.0148 69.0891 62.0897C69.0891 63.1533 68.2046 63.8251 66.9058 63.8251H64.5993V60.343ZM71.646 67.3521H72.3626V59.66H71.646V67.3521ZM76.4938 67.3521H77.2104V60.343H79.8752V59.66H73.829V60.343H76.4938V67.3521ZM83.3262 67.3521H84.0764V64.217L87.1779 59.66H86.3045L83.7069 63.5116L81.1093 59.66H80.2135L83.3262 64.217V67.3521ZM97.4761 67.3521H98.2598L94.8673 59.66H94.0835L90.6909 67.3521H91.4747L92.2696 65.5382H96.6811L97.4761 67.3521ZM92.5831 64.844L94.4754 60.5445L96.3676 64.844H92.5831ZM99.7798 67.3521H100.496V60.8244L105.423 67.3521H106.139V59.66H105.423V66.1876L100.496 59.66H99.7798V67.3521ZM111.893 64.0603H114.256V66.0197C113.651 66.5123 112.789 66.8146 111.994 66.8146C110.247 66.8146 108.769 65.3031 108.769 63.5004C108.769 61.709 110.247 60.1974 111.994 60.1974C112.89 60.1974 113.875 60.5781 114.48 61.1939L114.972 60.6901C114.233 59.9735 113.08 59.5256 111.994 59.5256C109.855 59.5256 108.053 61.3395 108.053 63.5004C108.053 65.6614 109.855 67.4864 111.994 67.4864C113.08 67.4864 114.233 67.0274 114.972 66.322V63.3773H111.893V64.0603ZM120.066 67.4864C121.902 67.4864 123.201 66.1428 123.201 64.2394V59.66H122.484V64.2394C122.484 65.751 121.476 66.8258 120.066 66.8258C118.644 66.8258 117.647 65.751 117.647 64.2394V59.66H116.931V64.2394C116.931 66.1428 118.229 67.4864 120.066 67.4864ZM126.268 66.6691V59.66H125.552V67.3521H130.546V66.6691H126.268ZM137.769 67.3521H138.553L135.16 59.66H134.376L130.984 67.3521H131.767L132.562 65.5382H136.974L137.769 67.3521ZM132.876 64.844L134.768 60.5445L136.66 64.844H132.876ZM146.007 62.0897C146.007 60.6677 144.809 59.66 143.23 59.66H140.072V67.3521H140.789V64.5081H142.614L144.618 67.3521H145.447L143.443 64.4969C144.921 64.4186 146.007 63.4444 146.007 62.0897ZM140.789 60.343H143.096C144.394 60.343 145.279 61.0148 145.279 62.0897C145.279 63.1533 144.394 63.8251 143.096 63.8251H140.789V60.343Z" fill="black"/>
</svg>
