<svg width="150" height="100" viewBox="0 0 150 100" fill="none" xmlns="http://www.w3.org/2000/svg">
<path d="M150 0H0V100H150V0Z" fill="#F4F4F4"/>
<g filter="url(#filter0_d)">
<path d="M119 19H30C28.8954 19 28 19.8954 28 21V78C28 79.1046 28.8954 80 30 80H119C120.105 80 121 79.1046 121 78V21C121 19.8954 120.105 19 119 19Z" fill="white"/>
<path d="M119 19.5H30C29.1716 19.5 28.5 20.1716 28.5 21V78C28.5 78.8284 29.1716 79.5 30 79.5H119C119.828 79.5 120.5 78.8284 120.5 78V21C120.5 20.1716 119.828 19.5 119 19.5Z" stroke="#A7A7A7"/>
</g>
<path d="M111.774 28.5L113.386 26.8881C113.452 26.811 113.448 26.696 113.376 26.6241C113.304 26.5523 113.189 26.5479 113.112 26.6139L111.5 28.2259L109.888 26.612C109.812 26.5357 109.688 26.5357 109.612 26.612C109.536 26.6882 109.536 26.8119 109.612 26.8881L111.226 28.5L109.612 30.112C109.556 30.1595 109.532 30.2341 109.549 30.3052C109.566 30.3762 109.622 30.4316 109.693 30.4487C109.764 30.4658 109.839 30.4417 109.886 30.3862L111.5 28.7742L113.112 30.3862C113.189 30.4522 113.304 30.4478 113.376 30.376C113.448 30.3041 113.452 30.1891 113.386 30.112L111.774 28.5Z" fill="#737373"/>
<path opacity="0.4" d="M103.768 36H40C39.4477 36 39 36.4477 39 37C39 37.5523 39.4477 38 40 38H103.768C104.321 38 104.768 37.5523 104.768 37C104.768 36.4477 104.321 36 103.768 36Z" fill="#A7A7A7"/>
<path opacity="0.4" d="M108.751 44H40C39.4477 44 39 44.4477 39 45C39 45.5523 39.4477 46 40 46H108.751C109.303 46 109.751 45.5523 109.751 45C109.751 44.4477 109.303 44 108.751 44Z" fill="#A7A7A7"/>
<path opacity="0.4" d="M106.758 52H40C39.4477 52 39 52.4477 39 53C39 53.5523 39.4477 54 40 54H106.758C107.31 54 107.758 53.5523 107.758 53C107.758 52.4477 107.31 52 106.758 52Z" fill="#A7A7A7"/>
<path opacity="0.4" d="M113 66H94C93.4477 66 93 66.4477 93 67V72C93 72.5523 93.4477 73 94 73H113C113.552 73 114 72.5523 114 72V67C114 66.4477 113.552 66 113 66Z" fill="#A7A7A7"/>
<defs>
<filter id="filter0_d" x="24" y="18" width="101" height="69" filterUnits="userSpaceOnUse" color-interpolation-filters="sRGB">
<feFlood flood-opacity="0" result="BackgroundImageFix"/>
<feColorMatrix in="SourceAlpha" type="matrix" values="0 0 0 0 0 0 0 0 0 0 0 0 0 0 0 0 0 0 127 0"/>
<feOffset dy="3"/>
<feGaussianBlur stdDeviation="2"/>
<feColorMatrix type="matrix" values="0 0 0 0 0 0 0 0 0 0 0 0 0 0 0 0 0 0 0.15 0"/>
<feBlend mode="normal" in2="BackgroundImageFix" result="effect1_dropShadow"/>
<feBlend mode="normal" in="SourceGraphic" in2="effect1_dropShadow" result="shape"/>
</filter>
</defs>
</svg>
