<?xml version="1.0" encoding="UTF-8"?>
<svg width="160px" height="100px" viewBox="0 0 160 100" version="1.1" xmlns="http://www.w3.org/2000/svg" xmlns:xlink="http://www.w3.org/1999/xlink">
    <title>modal (1)</title>
    <g id="Page-1" stroke="none" stroke-width="1" fill="none" fill-rule="evenodd">
        <g id="modal-(1)" fill-rule="nonzero">
            <rect id="Rectangle" fill="#FFFFFF" x="0" y="0" width="160" height="100"></rect>
            <rect id="Rectangle" fill="#4F6169" x="0" y="0" width="160" height="100"></rect>
            <rect id="Rectangle" fill="#000000" opacity="0.1" x="0" y="0" width="160" height="7.91367"></rect>
            <rect id="Rectangle" fill="#FFFFFF" x="37" y="21" width="94.1772" height="61" rx="2"></rect>
            <path d="M122.369,30.4999 L123.981,28.888 C124.047,28.8108 124.043,28.6958 123.971,28.624 C123.899,28.5522 123.784,28.5477 123.707,28.6138 L122.095,30.2258 L120.483,28.6119 C120.407,28.5356 120.283,28.5356 120.207,28.6119 C120.131,28.6881 120.131,28.8117 120.207,28.888 L121.821,30.4999 L120.207,32.1119 C120.151,32.1594 120.127,32.234 120.144,32.305 C120.161,32.3761 120.217,32.4315 120.288,32.4486 C120.359,32.4657 120.434,32.4415 120.481,32.386 L122.095,30.7741 L123.707,32.386 C123.784,32.4521 123.899,32.4477 123.971,32.3758 C124.043,32.304 124.047,32.189 123.981,32.1119 L122.369,30.4999 Z" id="Path" fill="#4F6169"></path>
            <path d="M48,31 C48,30.4477 48.4477,30 49,30 L97,30 C97.5523,30 98,30.4477 98,31 C98,31.5523 97.5523,32 97,32 L49,32 C48.4477,32 48,31.5523 48,31 Z" id="Path" fill="#A9B7C6"></path>
            <path d="M48,47 C48,46.4477 48.4477,46 49,46 L120,46 C120.552,46 121,46.4477 121,47 C121,47.5523 120.552,48 120,48 L49,48 C48.4477,48 48,47.5523 48,47 Z" id="Path" fill="#C5CED8"></path>
            <path d="M48,55 C48,54.4477 48.4477,54 49,54 L105,54 C105.552,54 106,54.4477 106,55 C106,55.5523 105.552,56 105,56 L49,56 C48.4477,56 48,55.5523 48,55 Z" id="Path" fill="#C5CED8"></path>
            <rect id="Rectangle" fill="#A9B7C6" x="102.823" y="68" width="21.2658" height="7" rx="1"></rect>
        </g>
    </g>
</svg>