<svg width="105" height="42" viewBox="0 0 105 42" fill="none" xmlns="http://www.w3.org/2000/svg">
<rect y="23" width="100" height="1" fill="#9A9A9A"/>
<path opacity="0.6" d="M5.954 13.592C6.92 13.592 7.704 12.794 7.704 11.828C7.704 10.876 6.92 10.078 5.954 10.078C4.988 10.078 4.19 10.876 4.19 11.828C4.19 12.794 4.988 13.592 5.954 13.592ZM13.4329 13.592C14.3989 13.592 15.1829 12.794 15.1829 11.828C15.1829 10.876 14.3989 10.078 13.4329 10.078C12.4669 10.078 11.6689 10.876 11.6689 11.828C11.6689 12.794 12.4669 13.592 13.4329 13.592ZM20.9118 13.592C21.8778 13.592 22.6618 12.794 22.6618 11.828C22.6618 10.876 21.8778 10.078 20.9118 10.078C19.9458 10.078 19.1478 10.876 19.1478 11.828C19.1478 12.794 19.9458 13.592 20.9118 13.592ZM28.3907 13.592C29.3567 13.592 30.1407 12.794 30.1407 11.828C30.1407 10.876 29.3567 10.078 28.3907 10.078C27.4247 10.078 26.6267 10.876 26.6267 11.828C26.6267 12.794 27.4247 13.592 28.3907 13.592ZM35.8696 13.592C36.8356 13.592 37.6196 12.794 37.6196 11.828C37.6196 10.876 36.8356 10.078 35.8696 10.078C34.9036 10.078 34.1056 10.876 34.1056 11.828C34.1056 12.794 34.9036 13.592 35.8696 13.592ZM43.3485 13.592C44.3145 13.592 45.0985 12.794 45.0985 11.828C45.0985 10.876 44.3145 10.078 43.3485 10.078C42.3825 10.078 41.5845 10.876 41.5845 11.828C41.5845 12.794 42.3825 13.592 43.3485 13.592ZM50.8274 13.592C51.7934 13.592 52.5774 12.794 52.5774 11.828C52.5774 10.876 51.7934 10.078 50.8274 10.078C49.8614 10.078 49.0634 10.876 49.0634 11.828C49.0634 12.794 49.8614 13.592 50.8274 13.592ZM58.3063 13.592C59.2723 13.592 60.0563 12.794 60.0563 11.828C60.0563 10.876 59.2723 10.078 58.3063 10.078C57.3403 10.078 56.5423 10.876 56.5423 11.828C56.5423 12.794 57.3403 13.592 58.3063 13.592Z" fill="black"/>
</svg>
