<svg width="160" height="100" viewBox="0 0 160 100" fill="none" xmlns="http://www.w3.org/2000/svg">
<path d="M58 38C58 36.8954 58.8954 36 60 36H124C125.105 36 126 36.8954 126 38C126 39.1046 125.105 40 124 40H60C58.8954 40 58 39.1046 58 38Z" fill="#C5CED8"/>
<path opacity="0.8" d="M46.5 38C46.5 40.7614 44.2614 43 41.5 43C38.7386 43 36.5 40.7614 36.5 38C36.5 35.2386 38.7386 33 41.5 33C44.2614 33 46.5 35.2386 46.5 38Z" fill="white" stroke="#00ABF5" stroke-width="6"/>
<path d="M49 62C49 66.1421 45.6421 69.5 41.5 69.5C37.3579 69.5 34 66.1421 34 62C34 57.8579 37.3579 54.5 41.5 54.5C45.6421 54.5 49 57.8579 49 62Z" fill="white" stroke="#ACB9BE"/>
<path d="M58 62C58 60.8954 58.8954 60 60 60H113C114.105 60 115 60.8954 115 62C115 63.1046 114.105 64 113 64H60C58.8954 64 58 63.1046 58 62Z" fill="#C5CED8"/>
</svg>
