<svg width="150" height="93" viewBox="0 0 150 93" fill="none" xmlns="http://www.w3.org/2000/svg">
<path d="M150 0H0V93H150V0Z" fill="white"/>
<path d="M35 9H0V93H35V9Z" fill="#F0F0F0"/>
<path d="M150 0H0V9H150V0Z" fill="#848484" fill-opacity="0.3"/>
<path d="M36 45H1V53H36V45Z" fill="white"/>
<path d="M29.4158 16H6.5C6.22386 16 6 16.2239 6 16.5C6 16.7761 6.22386 17 6.5 17H29.4158C29.6919 17 29.9158 16.7761 29.9158 16.5C29.9158 16.2239 29.6919 16 29.4158 16Z" fill="#A7A7A7"/>
<path d="M26.4263 24H6.5C6.22386 24 6 24.2239 6 24.5C6 24.7761 6.22386 25 6.5 25H26.4263C26.7024 25 26.9263 24.7761 26.9263 24.5C26.9263 24.2239 26.7024 24 26.4263 24Z" fill="#A7A7A7"/>
<path d="M26.4263 32H6.5C6.22386 32 6 32.2239 6 32.5C6 32.7761 6.22386 33 6.5 33H26.4263C26.7024 33 26.9263 32.7761 26.9263 32.5C26.9263 32.2239 26.7024 32 26.4263 32Z" fill="#A7A7A7"/>
<path d="M23.4368 40H6.5C6.22386 40 6 40.2239 6 40.5C6 40.7761 6.22386 41 6.5 41H23.4368C23.7129 41 23.9368 40.7761 23.9368 40.5C23.9368 40.2239 23.7129 40 23.4368 40Z" fill="#A7A7A7"/>
<path d="M28.4193 48H6.5C6.22386 48 6 48.2239 6 48.5C6 48.7761 6.22386 49 6.5 49H28.4193C28.6954 49 28.9193 48.7761 28.9193 48.5C28.9193 48.2239 28.6954 48 28.4193 48Z" fill="#A7A7A7"/>
<path d="M25.4298 56H6.5C6.22386 56 6 56.2239 6 56.5C6 56.7761 6.22386 57 6.5 57H25.4298C25.7059 57 25.9298 56.7761 25.9298 56.5C25.9298 56.2239 25.7059 56 25.4298 56Z" fill="#A7A7A7"/>
<path d="M24.4333 64H6.5C6.22386 64 6 64.2239 6 64.5C6 64.7761 6.22386 65 6.5 65H24.4333C24.7094 65 24.9333 64.7761 24.9333 64.5C24.9333 64.2239 24.7094 64 24.4333 64Z" fill="#A7A7A7"/>
<path d="M27.4228 72H6.5C6.22386 72 6 72.2239 6 72.5C6 72.7761 6.22386 73 6.5 73H27.4228C27.6989 73 27.9228 72.7761 27.9228 72.5C27.9228 72.2239 27.6989 72 27.4228 72Z" fill="#A7A7A7"/>
<path d="M25.4298 80H6.5C6.22386 80 6 80.2239 6 80.5C6 80.7761 6.22386 81 6.5 81H25.4298C25.7059 81 25.9298 80.7761 25.9298 80.5C25.9298 80.2239 25.7059 80 25.4298 80Z" fill="#A7A7A7"/>
<path d="M149.5 0.5H0.5V92.5H149.5V0.5Z" stroke="#A7A7A7"/>
<path d="M35.5 8.5H0.5V92.5H35.5V8.5Z" stroke="#676767"/>
</svg>
