<svg width="160" height="100" fill="none" xmlns="http://www.w3.org/2000/svg"><g filter="url(#Signpost-Right__a)"><path fill-rule="evenodd" clip-rule="evenodd" d="M55 14a3 3 0 0 0-3 3v32a3 3 0 0 0 3 3h36.076l.001 5.359a.2.2 0 0 0 .351.131L96.206 52H133a3 3 0 0 0 3-3V17a3 3 0 0 0-3-3H55Z" fill="#fff"/><path d="M91.076 52h.5a.5.5 0 0 0-.5-.5v.5Zm.001 5.359h-.5.5Zm.351.131-.377-.328.377.328ZM96.206 52v-.5a.5.5 0 0 0-.377.172l.377.328ZM52.5 17a2.5 2.5 0 0 1 2.5-2.5v-1a3.5 3.5 0 0 0-3.5 3.5h1Zm0 32V17h-1v32h1Zm2.5 2.5a2.5 2.5 0 0 1-2.5-2.5h-1a3.5 3.5 0 0 0 3.5 3.5v-1Zm36.076 0H55v1h36.076v-1Zm.501 5.859v-5.36l-1 .001v5.36l1-.001Zm-.526-.197a.3.3 0 0 1 .526.197h-1c0 .647.803.948 1.228.46l-.754-.657Zm4.778-5.49-4.778 5.49.754.657 4.778-5.49-.754-.657ZM133 51.5H96.206v1H133v-1Zm2.5-2.5a2.5 2.5 0 0 1-2.5 2.5v1a3.5 3.5 0 0 0 3.5-3.5h-1Zm0-32v32h1V17h-1Zm-2.5-2.5a2.5 2.5 0 0 1 2.5 2.5h1a3.5 3.5 0 0 0-3.5-3.5v1Zm-78 0h78v-1H55v1Z" fill="#889AAF"/></g><rect x="62" y="24" width="63.775" height="2" rx="1" fill="#A9B7C6"/><rect x="62" y="32" width="63.775" height="2" rx="1" fill="#A9B7C6"/><rect x="62" y="40" width="41.853" height="2" rx="1" fill="#A9B7C6"/><g opacity=".8"><rect opacity=".4" x="24" y="84" width="75.733" height="2" rx="1" fill="#A9B7C6"/><rect opacity=".4" x="24" y="74" width="75.733" height="2" rx="1" fill="#A9B7C6"/><rect opacity=".4" x="24" y="64" width="59.789" height="2" rx="1" fill="#A9B7C6"/><circle cx="90.5" cy="64.5" r="3.5" fill="#47A6D7"/></g><defs><filter id="Signpost-Right__a" x="47.5" y="11.5" width="93" height="52.56" filterUnits="userSpaceOnUse" color-interpolation-filters="sRGB"><feFlood flood-opacity="0" result="BackgroundImageFix"/><feColorMatrix in="SourceAlpha" values="0 0 0 0 0 0 0 0 0 0 0 0 0 0 0 0 0 0 127 0" result="hardAlpha"/><feOffset dy="2"/><feGaussianBlur stdDeviation="2"/><feColorMatrix values="0 0 0 0 0 0 0 0 0 0 0 0 0 0 0 0 0 0 0.15 0"/><feBlend in2="BackgroundImageFix" result="effect1_dropShadow_1410_2397"/><feBlend in="SourceGraphic" in2="effect1_dropShadow_1410_2397" result="shape"/></filter></defs></svg>