<svg width="126" height="83" viewBox="0 0 126 83" fill="none" xmlns="http://www.w3.org/2000/svg">
<rect x="0.5" y="65.5" width="125" height="17" fill="white" stroke="#A7A7A7"/>
<path d="M10.2816 70.1242L13.3596 73.2021L10.2816 76.2801" stroke="#3D3D3D" stroke-linecap="round"/>
<rect x="0.5" y="0.5" width="125" height="17" fill="white" stroke="#A7A7A7"/>
<path d="M10.2816 5.12415L13.3596 8.20215L10.2816 11.2801" stroke="#3D3D3D" stroke-linecap="round"/>
<g opacity="0.5">
<rect x="22" y="49" width="36" height="2" rx="1" fill="#A7A7A7" fill-opacity="0.25"/>
<rect x="22" y="49" width="36" height="2" rx="1" fill="#A7A7A7" fill-opacity="0.25"/>
<rect x="22" y="49" width="36" height="2" rx="1" fill="#A7A7A7" fill-opacity="0.25"/>
<rect x="22" y="49" width="36" height="2" rx="1" fill="#A7A7A7" fill-opacity="0.25"/>
<rect x="22" y="49" width="36" height="2" rx="1" fill="#A7A7A7" fill-opacity="0.25"/>
<rect x="22" y="49" width="36" height="2" rx="1" fill="#A7A7A7"/>
</g>
<g opacity="0.5">
<rect x="22" y="56" width="28" height="2" rx="1" fill="#A7A7A7" fill-opacity="0.25"/>
<rect x="22" y="56" width="28" height="2" rx="1" fill="#A7A7A7" fill-opacity="0.25"/>
<rect x="22" y="56" width="28" height="2" rx="1" fill="#A7A7A7" fill-opacity="0.25"/>
<rect x="22" y="56" width="28" height="2" rx="1" fill="#A7A7A7" fill-opacity="0.25"/>
<rect x="22" y="56" width="28" height="2" rx="1" fill="#A7A7A7" fill-opacity="0.25"/>
<rect x="22" y="56" width="28" height="2" rx="1" fill="#A7A7A7"/>
</g>
<g opacity="0.5">
<rect x="22" y="42" width="30" height="2" rx="1" fill="#A7A7A7" fill-opacity="0.25"/>
<rect x="22" y="42" width="30" height="2" rx="1" fill="#A7A7A7" fill-opacity="0.25"/>
<rect x="22" y="42" width="30" height="2" rx="1" fill="#A7A7A7" fill-opacity="0.25"/>
<rect x="22" y="42" width="30" height="2" rx="1" fill="#A7A7A7" fill-opacity="0.25"/>
<rect x="22" y="42" width="30" height="2" rx="1" fill="#A7A7A7" fill-opacity="0.25"/>
<rect x="22" y="42" width="30" height="2" rx="1" fill="#A7A7A7"/>
</g>
<rect x="0.5" y="17.5" width="125" height="17" fill="#E9F4FB" stroke="#676767"/>
<rect x="67" y="25" width="35.8737" height="2" rx="1" fill="#A7A7A7"/>
<path d="M14.3592 24.202L11.2812 27.28L8.20326 24.202" stroke="#3D3D3D" stroke-linecap="round"/>
<rect x="22" y="25" width="31.8877" height="2" rx="1" fill="#A7A7A7"/>
<g opacity="0.5">
<rect x="68.0806" y="49" width="35.5645" height="2" rx="1" fill="#A7A7A7" fill-opacity="0.25"/>
<rect x="68.0806" y="49" width="35.5645" height="2" rx="1" fill="#A7A7A7" fill-opacity="0.25"/>
<rect x="68.0806" y="49" width="35.5645" height="2" rx="1" fill="#A7A7A7" fill-opacity="0.25"/>
<rect x="68.0806" y="49" width="35.5645" height="2" rx="1" fill="#A7A7A7" fill-opacity="0.25"/>
<rect x="68.0806" y="49" width="35.5645" height="2" rx="1" fill="#A7A7A7" fill-opacity="0.25"/>
<rect x="68.0806" y="49" width="35.5645" height="2" rx="1" fill="#A7A7A7"/>
</g>
<g opacity="0.5">
<rect x="68.0806" y="56" width="29.4677" height="2" rx="1" fill="#A7A7A7" fill-opacity="0.25"/>
<rect x="68.0806" y="56" width="29.4677" height="2" rx="1" fill="#A7A7A7" fill-opacity="0.25"/>
<rect x="68.0806" y="56" width="29.4677" height="2" rx="1" fill="#A7A7A7" fill-opacity="0.25"/>
<rect x="68.0806" y="56" width="29.4677" height="2" rx="1" fill="#A7A7A7" fill-opacity="0.25"/>
<rect x="68.0806" y="56" width="29.4677" height="2" rx="1" fill="#A7A7A7" fill-opacity="0.25"/>
<rect x="68.0806" y="56" width="29.4677" height="2" rx="1" fill="#A7A7A7"/>
</g>
<g opacity="0.5">
<rect x="68.0806" y="42" width="34.5484" height="2" rx="1" fill="#A7A7A7" fill-opacity="0.25"/>
<rect x="68.0806" y="42" width="34.5484" height="2" rx="1" fill="#A7A7A7" fill-opacity="0.25"/>
<rect x="68.0806" y="42" width="34.5484" height="2" rx="1" fill="#A7A7A7" fill-opacity="0.25"/>
<rect x="68.0806" y="42" width="34.5484" height="2" rx="1" fill="#A7A7A7" fill-opacity="0.25"/>
<rect x="68.0806" y="42" width="34.5484" height="2" rx="1" fill="#A7A7A7" fill-opacity="0.25"/>
<rect x="68.0806" y="42" width="34.5484" height="2" rx="1" fill="#A7A7A7"/>
</g>
</svg>
