<svg width="117" height="84" viewBox="0 0 117 84" fill="none" xmlns="http://www.w3.org/2000/svg">
<path d="M116.5 62.5H17.5V83.5H116.5V62.5Z" fill="white" stroke="#A7A7A7"/>
<path d="M33.36 77.144C35.076 77.144 36.228 76.148 36.228 74.768C36.228 73.58 35.292 72.968 34.452 72.776C35.304 72.524 36.048 71.9 36.048 70.844C36.048 69.524 34.896 68.612 33.324 68.612C32.04 68.612 31.128 69.236 30.504 70.064L31.128 70.628C31.716 69.92 32.364 69.464 33.276 69.464C34.308 69.464 35.1 70.088 35.1 70.952C35.1 71.888 34.272 72.416 33.168 72.404L32.28 72.392V73.256H33.156C34.452 73.256 35.28 73.748 35.28 74.72C35.28 75.656 34.512 76.292 33.36 76.292C32.352 76.292 31.548 75.812 31.008 75.116L30.36 75.728C30.96 76.52 32.004 77.144 33.36 77.144Z" fill="#676767"/>
<path d="M116.5 0.5H17.5V21.5H116.5V0.5Z" fill="white" stroke="#A7A7A7"/>
<path d="M33.088 15H34.024V6.756H33.268L31.24 8.136L31.648 8.832L33.088 7.896V15Z" fill="#676767"/>
<path d="M22 1H18V21H22V1Z" fill="#74C44F"/>
<g opacity="0.5">
<path opacity="0.5" d="M74 55H40C39.4477 55 39 55.4477 39 56C39 56.5523 39.4477 57 40 57H74C74.5523 57 75 56.5523 75 56C75 55.4477 74.5523 55 74 55Z" fill="#A7A7A7" fill-opacity="0.25"/>
<path opacity="0.5" d="M74 55H40C39.4477 55 39 55.4477 39 56C39 56.5523 39.4477 57 40 57H74C74.5523 57 75 56.5523 75 56C75 55.4477 74.5523 55 74 55Z" fill="#A7A7A7" fill-opacity="0.25"/>
<path opacity="0.5" d="M74 55H40C39.4477 55 39 55.4477 39 56C39 56.5523 39.4477 57 40 57H74C74.5523 57 75 56.5523 75 56C75 55.4477 74.5523 55 74 55Z" fill="#A7A7A7" fill-opacity="0.25"/>
<path opacity="0.5" d="M74 55H40C39.4477 55 39 55.4477 39 56C39 56.5523 39.4477 57 40 57H74C74.5523 57 75 56.5523 75 56C75 55.4477 74.5523 55 74 55Z" fill="#A7A7A7" fill-opacity="0.25"/>
<path opacity="0.5" d="M74 55H40C39.4477 55 39 55.4477 39 56C39 56.5523 39.4477 57 40 57H74C74.5523 57 75 56.5523 75 56C75 55.4477 74.5523 55 74 55Z" fill="#A7A7A7" fill-opacity="0.25"/>
<path opacity="0.5" d="M74 55H40C39.4477 55 39 55.4477 39 56C39 56.5523 39.4477 57 40 57H74C74.5523 57 75 56.5523 75 56C75 55.4477 74.5523 55 74 55Z" fill="#A7A7A7"/>
</g>
<g opacity="0.5">
<path opacity="0.5" d="M68 48H40C39.4477 48 39 48.4477 39 49C39 49.5523 39.4477 50 40 50H68C68.5523 50 69 49.5523 69 49C69 48.4477 68.5523 48 68 48Z" fill="#A7A7A7" fill-opacity="0.25"/>
<path opacity="0.5" d="M68 48H40C39.4477 48 39 48.4477 39 49C39 49.5523 39.4477 50 40 50H68C68.5523 50 69 49.5523 69 49C69 48.4477 68.5523 48 68 48Z" fill="#A7A7A7" fill-opacity="0.25"/>
<path opacity="0.5" d="M68 48H40C39.4477 48 39 48.4477 39 49C39 49.5523 39.4477 50 40 50H68C68.5523 50 69 49.5523 69 49C69 48.4477 68.5523 48 68 48Z" fill="#A7A7A7" fill-opacity="0.25"/>
<path opacity="0.5" d="M68 48H40C39.4477 48 39 48.4477 39 49C39 49.5523 39.4477 50 40 50H68C68.5523 50 69 49.5523 69 49C69 48.4477 68.5523 48 68 48Z" fill="#A7A7A7" fill-opacity="0.25"/>
<path opacity="0.5" d="M68 48H40C39.4477 48 39 48.4477 39 49C39 49.5523 39.4477 50 40 50H68C68.5523 50 69 49.5523 69 49C69 48.4477 68.5523 48 68 48Z" fill="#A7A7A7" fill-opacity="0.25"/>
<path opacity="0.5" d="M68 48H40C39.4477 48 39 48.4477 39 49C39 49.5523 39.4477 50 40 50H68C68.5523 50 69 49.5523 69 49C69 48.4477 68.5523 48 68 48Z" fill="#A7A7A7"/>
</g>
<path d="M116.5 21.5H17.5V42.5H116.5V21.5Z" fill="white" stroke="#676767"/>
<path d="M30.408 36H36.096V35.112H31.908L34.068 33.24C35.46 32.04 36.012 31.152 36.012 30.036C36.012 28.56 34.812 27.612 33.384 27.612C32.088 27.612 31.164 28.224 30.48 29.196L31.14 29.736C31.704 28.968 32.388 28.452 33.348 28.452C34.224 28.452 35.064 29.04 35.064 30.048C35.064 30.864 34.584 31.656 33.42 32.652L30.408 35.22V36Z" fill="#676767"/>
<path d="M1 11.4583L5.41892 16C8.37952 12.8758 10.0394 11.1242 13 8" stroke="#74C44F" stroke-width="2" stroke-linecap="round" stroke-linejoin="round"/>
</svg>
