<svg width="160" height="100" fill="none" xmlns="http://www.w3.org/2000/svg"><path d="M33.9 83.108c1.287 0 2.151-.747 2.151-1.782 0-.891-.702-1.35-1.332-1.494.64-.189 1.197-.657 1.197-1.449 0-.99-.864-1.674-2.043-1.674-.963 0-1.647.468-2.115 1.089l.468.423c.441-.531.927-.873 1.611-.873.774 0 1.368.468 1.368 1.116 0 .702-.62 1.098-1.449 1.089l-.666-.009v.648h.657c.972 0 1.593.369 1.593 1.098 0 .702-.576 1.179-1.44 1.179-.756 0-1.359-.36-1.764-.882l-.486.459c.45.594 1.233 1.062 2.25 1.062Z" fill="#676767"/><path stroke="#889AAF" d="M22.5 71.5h117v17h-117z"/><path d="M33.566 20h.702v-6.183H33.7l-1.521 1.035.306.522 1.08-.702V20Z" fill="#676767"/><path stroke="#889AAF" d="M22.5 7.5h117v18h-117z"/><path fill="#74C34F" d="M23 8h4v18h-4z"/><path d="M38 64a1 1 0 0 1 1-1h61a1 1 0 0 1 0 2H39a1 1 0 0 1-1-1Zm0-7a1 1 0 0 1 1-1h74a1 1 0 0 1 0 2H39a1 1 0 0 1-1-1Zm0-7a1 1 0 0 1 1-1h65a1 1 0 0 1 0 2H39a1 1 0 0 1-1-1Z" fill="#A9B7C6" opacity=".6"/><path stroke="#435970" d="M22.5 25.5h117v17h-117z"/><path d="M31.762 37h4.266v-.666h-3.141l1.62-1.404c1.044-.9 1.458-1.566 1.458-2.403 0-1.107-.9-1.818-1.971-1.818-.972 0-1.665.459-2.178 1.188l.495.405c.423-.576.936-.963 1.656-.963.657 0 1.287.441 1.287 1.197 0 .612-.36 1.206-1.233 1.953l-2.26 1.926V37Z" fill="#676767"/><path stroke="#435970" d="M22.5 25.5h117v17h-117z"/><path d="M9 16.594 12.314 20 18 14" stroke="#74C44F" stroke-width="2" stroke-linecap="round" stroke-linejoin="round"/></svg>