<svg width="220" height="200" viewBox="0 0 220 200" fill="none" xmlns="http://www.w3.org/2000/svg">
<path d="M184.57 119.77C186.968 119.217 189.256 118.267 191.34 116.96L196.78 119.51L200.78 115.51L198.23 110.06C199.539 107.98 200.489 105.695 201.04 103.3L206.68 101.3V95.6202L201 93.5702C200.451 91.1716 199.501 88.8829 198.19 86.8002L200.74 81.3602L196.74 77.3602L191.3 79.9002C189.217 78.5922 186.929 77.6455 184.53 77.1002L182.53 71.4502H176.89L174.89 77.1002C172.491 77.642 170.201 78.5889 168.12 79.9002L162.68 77.3602L158.68 81.3602L161.23 86.8002C159.916 88.8808 158.966 91.1703 158.42 93.5702L152.78 95.6202V101.26L158.42 103.26C158.967 105.656 159.918 107.942 161.23 110.02L158.68 115.47L162.68 119.47L168.12 116.92C170.203 118.231 172.492 119.181 174.89 119.73L176.89 125.37H182.53L184.57 119.77ZM167.51 98.4402C167.51 96.0292 168.225 93.6724 169.565 91.6678C170.904 89.6632 172.808 88.1007 175.035 87.1781C177.263 86.2555 179.714 86.0141 182.078 86.4844C184.443 86.9548 186.615 88.1158 188.32 89.8206C190.025 91.5254 191.186 93.6974 191.656 96.062C192.126 98.4267 191.885 100.878 190.962 103.105C190.04 105.333 188.477 107.236 186.473 108.576C184.468 109.915 182.111 110.63 179.7 110.63C176.467 110.63 173.367 109.346 171.081 107.06C168.795 104.774 167.51 101.673 167.51 98.4402Z" fill="#7FCCED"/>
<path d="M116.13 119.77C118.525 119.219 120.81 118.269 122.89 116.96L128.33 119.51L132.33 115.51L129.79 110.06C131.1 107.982 132.046 105.696 132.59 103.3L138.24 101.3V95.6202L132.59 93.5702C132.048 91.1708 131.101 88.8813 129.79 86.8002L132.33 81.3602L128.33 77.3602L122.89 79.9002C120.812 78.5906 118.526 77.6438 116.13 77.1002L114.07 71.4502H108.44L106.38 77.1002C103.984 77.6438 101.698 78.5906 99.62 79.9002L94.18 77.3602L90.18 81.3602L92.72 86.8002C91.4087 88.8813 90.4618 91.1708 89.92 93.5702L84.27 95.6202V101.26L89.92 103.26C90.4636 105.656 91.4104 107.942 92.72 110.02L90.18 115.47L94.18 119.47L99.62 117C101.7 118.309 103.985 119.259 106.38 119.81L108.44 125.45H114.07L116.13 119.77ZM99.06 98.4402C99.058 96.0268 99.7719 93.6671 101.111 91.6595C102.451 89.6519 104.355 88.0867 106.584 87.1617C108.813 86.2368 111.267 85.9938 113.634 86.4634C116.001 86.933 118.176 88.0942 119.883 89.8C121.59 91.5058 122.753 93.6796 123.225 96.0464C123.696 98.4133 123.455 100.867 122.532 103.097C121.609 105.326 120.046 107.232 118.039 108.573C116.033 109.914 113.673 110.63 111.26 110.63C108.026 110.63 104.925 109.346 102.637 107.06C100.349 104.775 99.0627 101.674 99.06 98.4402Z" fill="#7FCCED"/>
<path d="M45.9999 118.09C48.3993 117.548 50.6888 116.601 52.7699 115.29L58.2099 117.83L62.2099 113.83L59.6699 108.39C60.9773 106.307 61.9239 104.018 62.4699 101.62L68.1199 99.62V93.94L62.4699 91.94C61.9219 89.5457 60.9754 87.2606 59.6699 85.18L62.2099 79.73L58.2099 75.73L52.7699 78.27C50.6908 76.9482 48.4012 75.9911 45.9999 75.44L43.9999 69.79H38.3099L36.2599 75.44C33.8642 75.9836 31.5783 76.9305 29.4999 78.24L24.0499 75.7L20.0499 79.7L22.5999 85.15C21.2913 87.2301 20.3414 89.5152 19.7899 91.91L14.1499 93.91V99.55L19.7899 101.55C20.3394 103.949 21.2894 106.237 22.5999 108.32L20.0499 113.76L24.0499 117.76L29.4999 115.22C31.5783 116.53 33.8642 117.476 36.2599 118.02L38.3099 123.67H43.9999L45.9999 118.09ZM28.9399 96.76C28.9498 94.3512 29.6731 91.9994 31.0186 90.0013C32.364 88.0033 34.2712 86.4486 36.4995 85.5337C38.7278 84.6187 41.1772 84.3844 43.5386 84.8604C45.8999 85.3364 48.0672 86.5013 49.7671 88.2081C51.4669 89.9148 52.6229 92.087 53.0892 94.4502C53.5555 96.8135 53.3112 99.2619 52.3871 101.486C51.463 103.711 49.9006 105.612 47.8971 106.949C45.8935 108.286 43.5387 109 41.1299 109C39.5249 109 37.9356 108.683 36.4534 108.067C34.9712 107.452 33.6251 106.549 32.4925 105.412C31.3599 104.275 30.4631 102.925 29.8534 101.44C29.2438 99.9556 28.9333 98.3651 28.9399 96.76Z" fill="#7FCCED"/>
<path d="M182.54 122.61C184.793 122.108 186.944 121.225 188.9 120L194.01 122.39L197.76 118.65L195.37 113.53C196.598 111.577 197.488 109.43 198 107.18L203.31 105.25V99.95L198 98C197.488 95.747 196.599 93.5967 195.37 91.64L197.76 86.53L194 82.78L188.89 85.17C186.933 83.9413 184.783 83.0522 182.53 82.54L180.61 77.23H175.31L173.38 82.54C171.12 83.0491 168.962 83.9384 167 85.17L161.88 82.78L158.14 86.53L160.53 91.64C159.308 93.5968 158.429 95.7476 157.93 98L152.63 99.92V105.22L157.93 107.15C158.441 109.402 159.334 111.549 160.57 113.5L158.18 118.62L161.92 122.36L167 120C168.95 121.236 171.098 122.129 173.35 122.64L175.28 127.94H180.58L182.54 122.61ZM165.78 102.61C165.772 100.199 166.479 97.8391 167.813 95.8298C169.146 93.8206 171.045 92.252 173.27 91.3223C175.495 90.3927 177.946 90.1438 180.312 90.6072C182.679 91.0706 184.855 92.2255 186.565 93.9257C188.275 95.6259 189.442 97.795 189.919 100.159C190.396 102.522 190.161 104.975 189.244 107.205C188.327 109.435 186.77 111.343 184.768 112.688C182.767 114.033 180.411 114.754 178 114.76C176.397 114.764 174.808 114.452 173.326 113.841C171.843 113.23 170.496 112.333 169.361 111.2C168.226 110.068 167.325 108.723 166.711 107.242C166.096 105.761 165.78 104.173 165.78 102.57V102.61Z" stroke="#2D4048" stroke-width="2" stroke-linecap="round" stroke-linejoin="round"/>
<path d="M105.67 127.91H111L112.92 122.61C115.175 122.099 117.326 121.206 119.28 119.97L124.39 122.36L128.14 118.62L125.75 113.5C126.978 111.547 127.868 109.4 128.38 107.15L133.69 105.22V99.92L128.35 98C127.838 95.747 126.949 93.5967 125.72 91.64L128.11 86.53L124.36 82.78L119.25 85.17C117.293 83.9413 115.143 83.0522 112.89 82.54L111 77.23H105.7L103.77 82.54C101.52 83.0505 99.3723 83.9398 97.42 85.17L92.3 82.78L88.56 86.53L90.95 91.64C89.7035 93.592 88.8005 95.7431 88.28 98L83 99.92V105.22L88.3 107.15C88.8113 109.402 89.7042 111.549 90.94 113.5L88.55 118.62L92.29 122.36L97.39 120C99.3397 121.238 101.488 122.131 103.74 122.64L105.67 127.91Z" stroke="#2D4048" stroke-width="2" stroke-linecap="round" stroke-linejoin="round"/>
<path d="M108.32 114.76C115.052 114.76 120.51 109.302 120.51 102.57C120.51 95.8375 115.052 90.3799 108.32 90.3799C101.588 90.3799 96.1299 95.8375 96.1299 102.57C96.1299 109.302 101.588 114.76 108.32 114.76Z" stroke="#2D4048" stroke-width="2" stroke-linecap="round" stroke-linejoin="round"/>
<path d="M36.0001 126.24H41.2901L43.2201 120.93C45.4705 120.42 47.6177 119.53 49.5701 118.3L54.6901 120.69L58.4301 116.94L56.0501 111.83C57.2787 109.873 58.1679 107.723 58.6801 105.47L63.9801 103.55V98.2501L58.6801 96.3201C58.1726 94.0813 57.2901 91.9445 56.0701 90.0001L58.4501 84.8801L54.7101 81.1401L49.5901 83.5001C47.6404 82.2625 45.4924 81.3695 43.2401 80.8601L41.3101 75.5601H36.0001L34.0701 80.8601C31.8151 81.3713 29.6642 82.2641 27.7101 83.5001L22.6001 81.1101L18.8501 84.8501L21.2601 90.0001C20.0299 91.9524 19.1406 94.0996 18.6301 96.3501L13.3301 98.2801V103.58L18.6301 105.5C19.1423 107.753 20.0314 109.903 21.2601 111.86L18.8701 116.97L22.6201 120.72L27.7301 118.33C29.6868 119.559 31.8371 120.448 34.0901 120.96L36.0001 126.24Z" stroke="#2D4048" stroke-width="2" stroke-linecap="round" stroke-linejoin="round"/>
<path d="M38.6602 113.09C45.3926 113.09 50.8502 107.632 50.8502 100.9C50.8502 94.1676 45.3926 88.71 38.6602 88.71C31.9279 88.71 26.4702 94.1676 26.4702 100.9C26.4702 107.632 31.9279 113.09 38.6602 113.09Z" stroke="#2D4048" stroke-width="2" stroke-linecap="round" stroke-linejoin="round"/>
<path d="M38.0498 63.2799C44.7124 50.4649 54.7338 39.7026 67.0417 32.1443C79.3496 24.5859 93.4809 20.5161 107.924 20.3703C122.366 20.2244 136.577 24.008 149.035 31.3162C161.493 38.6243 171.73 49.1821 178.65 61.8599" stroke="#2D4048" stroke-width="2" stroke-linecap="round" stroke-linejoin="round"/>
<path d="M179.74 136.07C173.167 149.014 163.181 159.915 150.862 167.596C138.544 175.277 124.36 179.446 109.844 179.652C95.3284 179.858 81.0323 176.093 68.5006 168.764C55.9689 161.436 45.6781 150.822 38.7402 138.07" stroke="#2D4048" stroke-width="2" stroke-linecap="round" stroke-linejoin="round"/>
<path d="M46.9602 57.06L36.9702 63.1L37.8902 51.46" stroke="#2D4048" stroke-width="2" stroke-linecap="round" stroke-linejoin="round"/>
<path d="M170.49 141.48L180.35 135.22L179.69 146.88" stroke="#2D4048" stroke-width="2" stroke-linecap="round" stroke-linejoin="round"/>
</svg>
