<svg width="220" height="200" viewBox="0 0 220 200" fill="none" xmlns="http://www.w3.org/2000/svg">
<path d="M41.5302 158.71C36.9339 158.705 32.5275 156.876 29.2784 153.625C26.0292 150.374 24.2028 145.966 24.2002 141.37V42.2101C24.2028 37.6138 26.0292 33.2064 29.2784 29.9553C32.5275 26.7043 36.9339 24.8754 41.5302 24.8701C42.8476 24.9284 44.0918 25.4927 45.0035 26.4456C45.9151 27.3985 46.424 28.6664 46.424 29.9851C46.424 31.3039 45.9151 32.5717 45.0035 33.5246C44.0918 34.4775 42.8476 35.0418 41.5302 35.1001C39.6453 35.1028 37.8384 35.8527 36.5056 37.1855C35.1728 38.5183 34.4228 40.3252 34.4202 42.2101V141.37C34.4228 143.255 35.1728 145.062 36.5056 146.395C37.8384 147.728 39.6453 148.477 41.5302 148.48C42.8476 148.538 44.0918 149.103 45.0035 150.056C45.9151 151.008 46.424 152.276 46.424 153.595C46.424 154.914 45.9151 156.182 45.0035 157.135C44.0918 158.087 42.8476 158.652 41.5302 158.71Z" fill="#7FCCED"/>
<path d="M181.88 175.13C180.563 175.072 179.318 174.507 178.407 173.555C177.495 172.602 176.986 171.334 176.986 170.015C176.986 168.696 177.495 167.428 178.407 166.476C179.318 165.523 180.563 164.958 181.88 164.9C183.765 164.897 185.572 164.147 186.905 162.815C188.238 161.482 188.987 159.675 188.99 157.79V58.63C188.987 56.7452 188.238 54.9382 186.905 53.6054C185.572 52.2726 183.765 51.5227 181.88 51.52C180.563 51.4618 179.318 50.8974 178.407 49.9445C177.495 48.9917 176.986 47.7238 176.986 46.405C176.986 45.0863 177.495 43.8184 178.407 42.8655C179.318 41.9127 180.563 41.3483 181.88 41.29C186.476 41.2953 190.883 43.1242 194.132 46.3753C197.381 49.6263 199.207 54.0337 199.21 58.63V157.79C199.207 162.386 197.381 166.794 194.132 170.045C190.883 173.296 186.476 175.125 181.88 175.13Z" fill="#7FCCED"/>
<path d="M94.6999 102.21C93.4729 101.456 92.4793 100.376 91.8299 99.09C91.6963 98.8387 91.4826 98.6391 91.2229 98.5228C90.9631 98.4066 90.672 98.3802 90.3955 98.4479C90.119 98.5155 89.873 98.6734 89.6964 98.8966C89.5197 99.1197 89.4224 99.3954 89.4199 99.68V107.35" stroke="#2D4048" stroke-width="2" stroke-linecap="round" stroke-linejoin="round"/>
<path d="M128.52 127H145.52C147.307 127 149.022 126.29 150.286 125.026C151.55 123.762 152.26 122.048 152.26 120.26V99.6801C152.262 99.3955 152.36 99.1199 152.536 98.8967C152.713 98.6736 152.959 98.5157 153.236 98.448C153.512 98.3803 153.803 98.4067 154.063 98.523C154.323 98.6393 154.536 98.8389 154.67 99.0901C155.457 100.645 156.745 101.889 158.326 102.622C159.907 103.354 161.689 103.533 163.384 103.128C165.079 102.724 166.588 101.76 167.668 100.392C168.747 99.0244 169.335 97.3327 169.335 95.5901C169.335 93.8476 168.747 92.1559 167.668 90.7881C166.588 89.4204 165.079 88.4564 163.384 88.0519C161.689 87.6473 159.907 87.8258 158.326 88.5585C156.745 89.2912 155.457 90.5354 154.67 92.0901C154.536 92.3414 154.323 92.541 154.063 92.6573C153.803 92.7736 153.512 92.7999 153.236 92.7323C152.959 92.6646 152.713 92.5067 152.536 92.2836C152.36 92.0604 152.262 91.7848 152.26 91.5001V70.9301C152.26 69.1426 151.55 67.4282 150.286 66.1642C149.022 64.9003 147.307 64.1901 145.52 64.1901H124.91C124.742 64.1915 124.576 64.1596 124.421 64.0964C124.266 64.0331 124.124 63.9398 124.005 63.8217C123.886 63.7037 123.792 63.5632 123.728 63.4085C123.663 63.2537 123.63 63.0878 123.63 62.9201C123.628 62.6874 123.69 62.4585 123.81 62.2591C123.93 62.0596 124.103 61.8973 124.31 61.7901C125.865 61.0032 127.109 59.7152 127.842 58.1342C128.574 56.5531 128.753 54.7713 128.348 53.0763C127.944 51.3814 126.98 49.8722 125.612 48.7925C124.244 47.7128 122.552 47.1255 120.81 47.1255C119.067 47.1255 117.376 47.7128 116.008 48.7925C114.64 49.8722 113.676 51.3814 113.272 53.0763C112.867 54.7713 113.046 56.5531 113.778 58.1342C114.511 59.7152 115.755 61.0032 117.31 61.7901C117.518 61.8959 117.693 62.0576 117.815 62.2572C117.937 62.4568 118.001 62.6863 118 62.9201C117.997 63.2579 117.861 63.5809 117.622 63.8188C117.382 64.0567 117.058 64.1902 116.72 64.1901H96.1599C94.3724 64.1901 92.658 64.9003 91.394 66.1642C90.13 67.4282 89.4199 69.1426 89.4199 70.9301V91.5201C89.4199 91.6891 89.4534 91.8563 89.5183 92.0123C89.5833 92.1683 89.6784 92.3098 89.7984 92.4288C89.9183 92.5478 90.0606 92.6419 90.217 92.7056C90.3735 92.7693 90.541 92.8015 90.7099 92.8001C90.9425 92.8018 91.1709 92.7379 91.369 92.6159C91.567 92.4939 91.7268 92.3186 91.8299 92.1101C92.3159 91.1505 92.9964 90.3025 93.828 89.6202C94.6597 88.9379 95.6242 88.4362 96.6603 88.147C97.6965 87.8578 98.7814 87.7875 99.8462 87.9405C100.911 88.0935 101.932 88.4665 102.845 89.0358C103.758 89.605 104.542 90.3581 105.148 91.2469C105.754 92.1358 106.168 93.1411 106.364 94.1988C106.56 95.2565 106.534 96.3434 106.287 97.3904C106.04 98.4374 105.578 99.4215 104.93 100.28" stroke="#2D4048" stroke-width="2" stroke-linecap="round" stroke-linejoin="round"/>
<path d="M136.31 138.94V131.4L128.76 128.66C128.026 125.472 126.762 122.429 125.02 119.66L128.42 112.38L123.09 107L115.81 110.4C113.041 108.658 109.998 107.394 106.81 106.66L104 99.1201H96.49L93.75 106.67C90.5616 107.404 87.5192 108.668 84.75 110.41L77.43 107L72.1 112.33L75.5 119.61C73.7588 122.381 72.4914 125.423 71.75 128.61L64.21 131.35V138.89L71.75 141.63C72.4914 144.818 73.7588 147.859 75.5 150.63L72.1 158L77.43 163.33L84.71 159.93C87.4792 161.672 90.5216 162.937 93.71 163.67L96.45 171.22H104L106.74 163.67C109.928 162.937 112.971 161.672 115.74 159.93L123.02 163.33L128.35 158L124.95 150.72C126.692 147.951 127.956 144.909 128.69 141.72L136.31 138.94Z" stroke="#2D4048" stroke-width="2" stroke-linecap="round" stroke-linejoin="round"/>
<path d="M100.26 152.51C109.837 152.51 117.6 144.747 117.6 135.17C117.6 125.593 109.837 117.83 100.26 117.83C90.6833 117.83 82.9199 125.593 82.9199 135.17C82.9199 144.747 90.6833 152.51 100.26 152.51Z" stroke="#2D4048" stroke-width="2" stroke-linecap="round" stroke-linejoin="round"/>
<path d="M93.5199 64.7598L80.1099 27.2798L40.1299 139H64.9999" stroke="#2D4048" stroke-width="2" stroke-linecap="round" stroke-linejoin="round"/>
<path d="M32.9998 161.05C29.7588 161.05 26.6506 159.763 24.3589 157.471C22.0672 155.179 20.7798 152.071 20.7798 148.83V49.6702C20.7798 46.4292 22.0672 43.321 24.3589 41.0294C26.6506 38.7377 29.7588 37.4502 32.9998 37.4502" stroke="#2D4048" stroke-width="2" stroke-linecap="round" stroke-linejoin="round"/>
<path d="M171.31 161.05C174.551 161.05 177.659 159.763 179.95 157.471C182.242 155.179 183.53 152.071 183.53 148.83V49.6702C183.53 46.4292 182.242 43.321 179.95 41.0294C177.659 38.7377 174.551 37.4502 171.31 37.4502" stroke="#2D4048" stroke-width="2" stroke-linecap="round" stroke-linejoin="round"/>
</svg>
