<svg width="220" height="200" viewBox="0 0 220 200" fill="none" xmlns="http://www.w3.org/2000/svg">
<path d="M103 118.16C100.973 117.959 98.932 118.377 97.1468 119.358C95.3616 120.34 93.9159 121.84 93.0002 123.66C92.8622 123.928 92.6529 124.153 92.3953 124.31C92.1377 124.467 91.8418 124.55 91.5402 124.55C91.0999 124.55 90.6777 124.375 90.3664 124.064C90.0551 123.752 89.8802 123.33 89.8802 122.89V96.0999C89.8775 93.7757 88.9524 91.5476 87.308 89.9051C85.6635 88.2625 83.4344 87.3399 81.1102 87.3399H54.3302C53.8899 87.3399 53.4677 87.165 53.1564 86.8537C52.8451 86.5424 52.6702 86.1202 52.6702 85.6799C52.6678 85.3791 52.7488 85.0834 52.9041 84.8257C53.0594 84.568 53.283 84.3584 53.5502 84.2199C55.5758 83.1995 57.198 81.5257 58.1547 79.4692C59.1113 77.4127 59.3464 75.0937 58.822 72.887C58.2976 70.6804 57.0443 68.7151 55.2647 67.3089C53.4851 65.9026 51.2833 65.1377 49.0152 65.1377C46.747 65.1377 44.5452 65.9026 42.7656 67.3089C40.986 68.7151 39.7327 70.6804 39.2083 72.887C38.6839 75.0937 38.919 77.4127 39.8756 79.4692C40.8323 81.5257 42.4545 83.1995 44.4802 84.2199C44.75 84.3587 44.976 84.5695 45.1331 84.829C45.2902 85.0885 45.3723 85.3866 45.3702 85.6899C45.3702 86.1302 45.1953 86.5524 44.884 86.8637C44.5726 87.175 44.1504 87.3499 43.7102 87.3499H16.9302C14.6077 87.3499 12.38 88.2712 10.7359 89.9115C9.09177 91.5519 8.16545 93.7774 8.16016 96.0999V122.89C8.16278 123.329 8.33852 123.75 8.64926 124.061C8.96 124.372 9.38071 124.547 9.82016 124.55C10.1235 124.552 10.4215 124.47 10.6811 124.313C10.9406 124.156 11.1514 123.93 11.2902 123.66C12.3108 121.631 13.9858 120.006 16.0444 119.048C18.103 118.089 20.4247 117.853 22.6341 118.378C24.8435 118.902 26.8114 120.157 28.2195 121.938C29.6276 123.72 30.3936 125.924 30.3936 128.195C30.3936 130.466 29.6276 132.67 28.2195 134.452C26.8114 136.233 24.8435 137.488 22.6341 138.012C20.4247 138.537 18.103 138.3 16.0444 137.342C13.9858 136.383 12.3108 134.758 11.2902 132.73C11.1514 132.46 10.9406 132.234 10.6811 132.077C10.4215 131.92 10.1235 131.838 9.82016 131.84C9.38071 131.843 8.96 132.018 8.64926 132.329C8.33852 132.64 8.16278 133.06 8.16016 133.5V160.28C8.16016 162.606 9.08414 164.837 10.7288 166.481C12.3735 168.126 14.6042 169.05 16.9302 169.05H43.7102C44.1504 169.05 44.5726 168.875 44.884 168.564C45.1953 168.252 45.3702 167.83 45.3702 167.39C45.3725 167.089 45.2915 166.793 45.1362 166.536C44.9809 166.278 44.7573 166.068 44.4902 165.93C42.4646 164.909 40.8423 163.236 39.8856 161.179C38.929 159.123 38.6939 156.804 39.2183 154.597C39.7427 152.39 40.996 150.425 42.7756 149.019C44.5552 147.613 46.757 146.848 49.0252 146.848C51.2933 146.848 53.4951 147.613 55.2747 149.019C57.0543 150.425 58.3076 152.39 58.832 154.597C59.3564 156.804 59.1213 159.123 58.1647 161.179C57.208 163.236 55.5858 164.909 53.5602 165.93C53.2904 166.066 53.0641 166.275 52.9068 166.533C52.7496 166.791 52.6676 167.088 52.6702 167.39C52.6702 167.83 52.8451 168.252 53.1564 168.564C53.4677 168.875 53.8899 169.05 54.3302 169.05H81.1102C83.4361 169.05 85.6668 168.126 87.3115 166.481C88.9562 164.837 89.8802 162.606 89.8802 160.28V133.5C89.8802 133.06 90.0551 132.637 90.3664 132.326C90.6777 132.015 91.0999 131.84 91.5402 131.84C91.8418 131.84 92.1377 131.923 92.3953 132.08C92.6529 132.237 92.8622 132.462 93.0002 132.73C93.7888 134.293 94.9711 135.624 96.4306 136.592C97.8901 137.559 99.5764 138.13 101.324 138.247C103.071 138.365 104.818 138.025 106.394 137.262C107.97 136.499 109.32 135.338 110.311 133.894C111.302 132.451 111.899 130.774 112.045 129.029C112.191 127.284 111.879 125.531 111.141 123.943C110.404 122.355 109.265 120.986 107.837 119.972C106.41 118.958 104.743 118.334 103 118.16Z" fill="#7FCCED"/>
<path d="M107.88 123C105.853 122.799 103.812 123.217 102.027 124.198C100.242 125.18 98.7958 126.68 97.8801 128.5C97.7421 128.768 97.5328 128.993 97.2752 129.15C97.0176 129.307 96.7217 129.39 96.4201 129.39V129.39C95.9798 129.39 95.5576 129.215 95.2463 128.904C94.9349 128.593 94.7601 128.17 94.7601 127.73V101C94.7653 99.8458 94.5427 98.7019 94.1049 97.6339C93.6672 96.5659 93.0229 95.5948 92.2091 94.7764C91.3953 93.9579 90.4279 93.3081 89.3624 92.8643C88.2969 92.4205 87.1543 92.1913 86.0001 92.19H59.18C58.7398 92.19 58.3176 92.0151 58.0063 91.7038C57.6949 91.3925 57.5201 90.9703 57.5201 90.53V90.53C57.5154 90.2287 57.5954 89.9321 57.751 89.674C57.9065 89.4159 58.1314 89.2066 58.4001 89.07C60.4257 88.0496 62.0479 86.3758 63.0046 84.3193C63.9612 82.2628 64.1963 79.9438 63.6719 77.7371C63.1475 75.5305 61.8942 73.5652 60.1146 72.159C58.335 70.7527 56.1332 69.9878 53.8651 69.9878C51.5969 69.9878 49.3951 70.7527 47.6155 72.159C45.8359 73.5652 44.5826 75.5305 44.0582 77.7371C43.5338 79.9438 43.7689 82.2628 44.7255 84.3193C45.6822 86.3758 47.3044 88.0496 49.3301 89.07C49.5998 89.2088 49.8259 89.4196 49.983 89.6791C50.1401 89.9386 50.2222 90.2367 50.2201 90.54V90.54C50.2201 90.9803 50.0452 91.4025 49.7338 91.7138C49.4225 92.0251 49.0003 92.2 48.5601 92.2H21.7801C20.625 92.1987 19.481 92.4256 18.4139 92.8676C17.3468 93.3096 16.3774 93.9581 15.5616 94.7757C14.7458 95.5934 14.0995 96.5642 13.6599 97.6324C13.2204 98.7005 12.9961 99.845 13.0001 101V127.79C13.0027 128.229 13.1784 128.65 13.4892 128.961C13.7999 129.272 14.2206 129.447 14.6601 129.45C14.9634 129.452 15.2614 129.37 15.521 129.213C15.7805 129.056 15.9913 128.83 16.1301 128.56C17.1507 126.532 18.8257 124.907 20.8843 123.948C22.9429 122.989 25.2646 122.753 27.474 123.278C29.6834 123.802 31.6513 125.057 33.0594 126.838C34.4675 128.62 35.2335 130.824 35.2335 133.095C35.2335 135.366 34.4675 137.57 33.0594 139.352C31.6513 141.133 29.6834 142.388 27.474 142.912C25.2646 143.437 22.9429 143.201 20.8843 142.242C18.8257 141.283 17.1507 139.659 16.1301 137.63C15.9913 137.36 15.7805 137.134 15.521 136.977C15.2614 136.82 14.9634 136.738 14.6601 136.74V136.74C14.2291 136.742 13.8157 136.911 13.5063 137.211C13.1969 137.511 13.0155 137.919 13.0001 138.35V165.13C13.0001 167.456 13.924 169.687 15.5687 171.331C17.2134 172.976 19.4441 173.9 21.7701 173.9H48.5601C49.0003 173.9 49.4225 173.725 49.7338 173.414C50.0452 173.103 50.2201 172.68 50.2201 172.24V172.24C50.2202 171.94 50.1383 171.645 49.9832 171.388C49.8281 171.13 49.6057 170.92 49.34 170.78C47.3144 169.76 45.6922 168.086 44.7355 166.029C43.7789 163.973 43.5438 161.654 44.0682 159.447C44.5926 157.24 45.8459 155.275 47.6255 153.869C49.4051 152.463 51.6069 151.698 53.875 151.698C56.1432 151.698 58.345 152.463 60.1246 153.869C61.9042 155.275 63.1575 157.24 63.6819 159.447C64.2063 161.654 63.9712 163.973 63.0146 166.029C62.0579 168.086 60.4357 169.76 58.41 170.78C58.1403 170.916 57.914 171.125 57.7567 171.383C57.5995 171.641 57.5175 171.938 57.5201 172.24V172.24C57.5201 172.68 57.6949 173.103 58.0063 173.414C58.3176 173.725 58.7398 173.9 59.18 173.9H86.0001C88.326 173.9 90.5567 172.976 92.2014 171.331C93.8461 169.687 94.7701 167.456 94.7701 165.13V138.35C94.7701 137.91 94.9449 137.488 95.2563 137.176C95.5676 136.865 95.9898 136.69 96.4301 136.69V136.69C96.7317 136.69 97.0276 136.773 97.2852 136.93C97.5428 137.087 97.7521 137.312 97.8901 137.58C98.6787 139.143 99.861 140.474 101.32 141.442C102.78 142.409 104.466 142.98 106.213 143.098C107.961 143.215 109.708 142.875 111.284 142.112C112.86 141.349 114.21 140.188 115.201 138.744C116.192 137.301 116.789 135.624 116.935 133.879C117.081 132.134 116.769 130.381 116.031 128.793C115.293 127.205 114.155 125.836 112.727 124.822C111.3 123.808 109.632 123.184 107.89 123.01L107.88 123Z" stroke="#2D4048" stroke-width="2" stroke-linecap="round" stroke-linejoin="round"/>
<path d="M74.2798 79.8101V57.0701C74.2797 54.7528 75.1969 52.5296 76.8308 50.8864C78.4647 49.2431 80.6825 48.3133 82.9998 48.3001H109.79C110.23 48.3001 110.652 48.1252 110.964 47.8139C111.275 47.5026 111.45 47.0803 111.45 46.6401C111.45 46.3384 111.367 46.0425 111.21 45.7849C111.053 45.5273 110.828 45.318 110.56 45.1801C108.531 44.1595 106.906 42.4844 105.948 40.4258C104.989 38.3673 104.753 36.0455 105.278 33.8361C105.802 31.6267 107.057 29.6589 108.838 28.2508C110.62 26.8427 112.824 26.0767 115.095 26.0767C117.366 26.0767 119.57 26.8427 121.352 28.2508C123.133 29.6589 124.387 31.6267 124.912 33.8361C125.436 36.0455 125.2 38.3673 124.242 40.4258C123.283 42.4844 121.658 44.1595 119.63 45.1801C119.362 45.318 119.136 45.5273 118.979 45.7849C118.822 46.0425 118.74 46.3384 118.74 46.6401C118.74 47.0803 118.915 47.5026 119.226 47.8139C119.537 48.1252 119.96 48.3001 120.4 48.3001H147.18C148.336 48.2935 149.481 48.5155 150.551 48.9533C151.621 49.391 152.594 50.036 153.413 50.851C154.233 51.666 154.884 52.6351 155.327 53.7024C155.771 54.7697 156 55.9142 156 57.0701V58.6601" stroke="#2D4048" stroke-width="2" stroke-linecap="round" stroke-linejoin="round"/>
<path d="M117 148.57H143.49C143.709 148.57 143.926 148.613 144.128 148.697C144.33 148.781 144.513 148.905 144.667 149.06C144.822 149.215 144.944 149.399 145.027 149.602C145.109 149.804 145.151 150.021 145.15 150.24C145.152 150.543 145.07 150.841 144.913 151.101C144.756 151.361 144.53 151.571 144.26 151.71C142.232 152.731 140.607 154.406 139.648 156.464C138.69 158.523 138.453 160.845 138.978 163.054C139.502 165.263 140.757 167.231 142.538 168.639C144.32 170.048 146.524 170.814 148.795 170.814C151.066 170.814 153.27 170.048 155.052 168.639C156.833 167.231 158.088 165.263 158.612 163.054C159.137 160.845 158.901 158.523 157.942 156.464C156.983 154.406 155.359 152.731 153.33 151.71C153.059 151.57 152.833 151.357 152.676 151.096C152.519 150.835 152.437 150.535 152.44 150.23C152.443 149.791 152.618 149.37 152.929 149.059C153.24 148.748 153.661 148.573 154.1 148.57H180.89C183.213 148.57 185.441 147.647 187.084 146.004C188.727 144.362 189.65 142.133 189.65 139.81V113C189.65 112.56 189.825 112.138 190.136 111.826C190.448 111.515 190.87 111.34 191.31 111.34C191.611 111.335 191.908 111.415 192.166 111.571C192.424 111.727 192.633 111.951 192.77 112.22C193.791 114.249 195.466 115.874 197.524 116.832C199.583 117.791 201.905 118.027 204.114 117.502C206.323 116.978 208.291 115.723 209.699 113.942C211.107 112.16 211.873 109.956 211.873 107.685C211.873 105.414 211.107 103.21 209.699 101.428C208.291 99.6469 206.323 98.3924 204.114 97.8679C201.905 97.3434 199.583 97.5796 197.524 98.5381C195.466 99.4967 193.791 101.122 192.77 103.15C192.631 103.42 192.42 103.646 192.161 103.803C191.901 103.96 191.603 104.042 191.3 104.04C190.86 104.04 190.438 103.865 190.126 103.554C189.815 103.243 189.64 102.82 189.64 102.38V75.6301C189.64 73.3059 188.717 71.0767 187.075 69.4323C185.432 67.7879 183.204 66.8627 180.88 66.8601H154.08C153.861 66.8601 153.645 66.9034 153.442 66.9874C153.24 67.0715 153.057 67.1946 152.903 67.3498C152.748 67.505 152.626 67.6892 152.544 67.8918C152.461 68.0943 152.419 68.3113 152.42 68.5301C152.417 68.8322 152.499 69.1291 152.657 69.3871C152.814 69.6451 153.04 69.854 153.31 69.9901C155.339 71.0107 156.964 72.6858 157.922 74.7443C158.881 76.8029 159.117 79.1246 158.592 81.334C158.068 83.5434 156.813 85.5113 155.032 86.9194C153.25 88.3275 151.046 89.0935 148.775 89.0935C146.504 89.0935 144.3 88.3275 142.518 86.9194C140.737 85.5113 139.482 83.5434 138.958 81.334C138.433 79.1246 138.67 76.8029 139.628 74.7443C140.587 72.6858 142.212 71.0107 144.24 69.9901C144.566 69.8146 144.824 69.536 144.974 69.1979C145.124 68.8599 145.158 68.4815 145.07 68.1222C144.982 67.7629 144.777 67.4431 144.487 67.2128C144.198 66.9826 143.84 66.855 143.47 66.8501H116.69C114.364 66.8501 112.133 67.7741 110.489 69.4188C108.844 71.0635 107.92 73.2942 107.92 75.6201V102.4C107.915 102.772 108.037 103.135 108.265 103.43C108.492 103.725 108.813 103.934 109.175 104.023C109.536 104.112 109.917 104.076 110.256 103.922C110.595 103.767 110.871 103.502 111.04 103.17C112.061 101.145 113.736 99.5244 115.792 98.5688C117.848 97.6132 120.167 97.379 122.373 97.9039C124.579 98.4288 126.544 99.6823 127.949 101.462C129.355 103.241 130.12 105.442 130.12 107.71C130.12 109.978 129.355 112.179 127.949 113.959C126.544 115.738 124.579 116.991 122.373 117.516C120.167 118.041 117.848 117.807 115.792 116.851C113.736 115.896 112.061 114.275 111.04 112.25C110.904 111.98 110.695 111.754 110.437 111.597C110.179 111.44 109.882 111.358 109.58 111.36C109.167 111.358 108.769 111.511 108.463 111.789C108.158 112.067 107.968 112.449 107.93 112.86" stroke="#2D4048" stroke-width="2" stroke-linecap="round" stroke-linejoin="round"/>
</svg>
