<svg width="200" height="200" viewBox="0 0 200 200" fill="none" xmlns="http://www.w3.org/2000/svg">
<path d="M131.9 48.54H42.8499C42.4044 48.54 41.977 48.717 41.662 49.0321C41.3469 49.3472 41.1699 49.7745 41.1699 50.22V56.62H133.58V50.22C133.58 49.7745 133.403 49.3472 133.088 49.0321C132.773 48.717 132.345 48.54 131.9 48.54V48.54Z" fill="#7FCCED"/>
<path d="M134.39 51.6602H45.98C44.8754 51.6602 43.98 52.5556 43.98 53.6602V168.78C43.98 169.885 44.8754 170.78 45.98 170.78H134.39C135.495 170.78 136.39 169.885 136.39 168.78V53.6602C136.39 52.5556 135.495 51.6602 134.39 51.6602Z" stroke="#2D4048" stroke-width="2" stroke-linecap="round" stroke-linejoin="round"/>
<path d="M55.2002 42.0002C55.2002 41.5891 55.3635 41.1949 55.6542 40.9042C55.9449 40.6135 56.3391 40.4502 56.7502 40.4502H146.06C146.264 40.4489 146.466 40.4881 146.655 40.5655C146.844 40.6429 147.015 40.7571 147.159 40.9013C147.303 41.0454 147.417 41.2168 147.495 41.4055C147.572 41.5942 147.612 41.7963 147.61 42.0002V158C147.612 158.204 147.572 158.406 147.495 158.595C147.417 158.784 147.303 158.955 147.159 159.099C147.015 159.243 146.844 159.358 146.655 159.435C146.466 159.512 146.264 159.552 146.06 159.55" stroke="#2D4048" stroke-width="2" stroke-linecap="round" stroke-linejoin="round"/>
<path d="M66.4199 30.76C66.4212 30.5548 66.4632 30.3518 66.5436 30.1629C66.624 29.9741 66.741 29.803 66.888 29.6598C67.035 29.5165 67.209 29.4038 67.3999 29.3284C67.5907 29.2529 67.7947 29.216 67.9999 29.22H157.32C157.728 29.22 158.12 29.3823 158.409 29.6711C158.698 29.9599 158.86 30.3516 158.86 30.76V146.76C158.861 146.963 158.822 147.164 158.746 147.352C158.669 147.54 158.556 147.711 158.412 147.855C158.269 147.999 158.099 148.114 157.912 148.192C157.724 148.27 157.523 148.31 157.32 148.31" stroke="#2D4048" stroke-width="2" stroke-linecap="round" stroke-linejoin="round"/>
<path d="M44.6299 58.3398H135.83" stroke="#2D4048" stroke-width="2" stroke-linecap="round" stroke-linejoin="round"/>
<path d="M59.1001 73.3301H88.5001" stroke="#2D4048" stroke-width="2" stroke-linecap="round" stroke-linejoin="round"/>
<path d="M59.1001 80.0498H88.5001" stroke="#2D4048" stroke-width="2" stroke-linecap="round" stroke-linejoin="round"/>
<path d="M59.1001 86.77H88.5001" stroke="#2D4048" stroke-width="2" stroke-linecap="round" stroke-linejoin="round"/>
<path d="M120.24 96.6602H57.9199V117.87H120.24V96.6602Z" fill="#7FCCED"/>
<path d="M93.5599 126.8H57.9199V134.96H93.5599V126.8Z" fill="#7FCCED"/>
</svg>
