<svg width="160" height="100" fill="none" xmlns="http://www.w3.org/2000/svg"><path stroke="#C5CED8" d="M5 58.5h150"/><path fill-rule="evenodd" clip-rule="evenodd" d="M50 59H5v-2h45v2Z" fill="#47A6D7"/><path d="M10.872 50h.624v-5.496h-.624V50Zm3.591-.608a.595.595 0 0 1-.432.168c-.24 0-.448-.216-.448-.52V46.4H14.6v-.536h-1.016v-1.136h-.6v1.136h-.648v.536h.648v2.64c0 .616.416 1.056 1.008 1.056.28 0 .552-.096.768-.264l-.296-.44Zm2.702.168c-.816 0-1.384-.592-1.472-1.4h3.384c0-1.448-.712-2.392-1.96-2.392-1.112 0-2.04.92-2.04 2.152 0 1.272.992 2.176 2.096 2.176.576 0 1.304-.248 1.664-.64l-.368-.392c-.256.28-.816.496-1.304.496Zm-.024-3.256c.824 0 1.264.576 1.344 1.32h-2.784c.112-.8.704-1.32 1.44-1.32Zm7.216-.536c-.656 0-1.168.4-1.296.984-.208-.6-.72-.984-1.376-.984-.544 0-.992.272-1.2.704v-.608h-.6V50h.6v-2.632c0-.624.464-1.064 1.12-1.064.56 0 .952.472.952 1.144V50h.6v-2.632c0-.624.464-1.064 1.12-1.064.56 0 .952.472.952 1.144V50h.6v-2.632c0-.936-.608-1.6-1.472-1.6Zm7.141 4.328c1.528 0 2.808-1.304 2.808-2.848 0-1.544-1.28-2.84-2.808-2.84-1.52 0-2.816 1.296-2.816 2.84 0 1.544 1.296 2.848 2.816 2.848Zm0-.576c-1.184 0-2.184-1.04-2.184-2.272 0-1.224 1-2.264 2.184-2.264 1.184 0 2.176 1.04 2.176 2.264 0 1.232-.992 2.272-2.176 2.272Zm5.724-3.752c-.592 0-1.12.312-1.36.752v-.656h-.6V50h.6v-2.632c0-.584.576-1.064 1.28-1.064.608 0 1.032.464 1.032 1.144V50h.6v-2.632c0-.952-.632-1.6-1.552-1.6Zm4.388 3.792c-.816 0-1.384-.592-1.472-1.4h3.384c0-1.448-.712-2.392-1.96-2.392-1.112 0-2.04.92-2.04 2.152 0 1.272.992 2.176 2.096 2.176.576 0 1.304-.248 1.664-.64l-.368-.392c-.256.28-.816.496-1.304.496Zm-.024-3.256c.824 0 1.264.576 1.344 1.32h-2.784c.112-.8.704-1.32 1.44-1.32Z" fill="#32475D"/><path d="M60.872 50h.624v-5.496h-.624V50Zm3.591-.608a.595.595 0 0 1-.432.168c-.24 0-.448-.216-.448-.52V46.4H64.6v-.536h-1.016v-1.136h-.6v1.136h-.648v.536h.648v2.64c0 .616.416 1.056 1.008 1.056.28 0 .552-.096.768-.264l-.296-.44Zm2.702.168c-.816 0-1.384-.592-1.472-1.4h3.384c0-1.448-.712-2.392-1.96-2.392-1.112 0-2.04.92-2.04 2.152 0 1.272.992 2.176 2.096 2.176.576 0 1.304-.248 1.664-.64l-.368-.392c-.256.28-.816.496-1.304.496Zm-.024-3.256c.824 0 1.264.576 1.344 1.32h-2.784c.112-.8.704-1.32 1.44-1.32Zm7.216-.536c-.656 0-1.168.4-1.296.984-.208-.6-.72-.984-1.376-.984-.544 0-.992.272-1.2.704v-.608h-.6V50h.6v-2.632c0-.624.464-1.064 1.12-1.064.56 0 .952.472.952 1.144V50h.6v-2.632c0-.624.464-1.064 1.12-1.064.56 0 .952.472.952 1.144V50h.6v-2.632c0-.936-.608-1.6-1.472-1.6ZM80.282 50h.624v-4.904h1.848v-.592h-4.32v.592h1.848V50Zm3.983 0h.568l1.112-3.304L87.041 50h.568l1.392-4.136h-.64L87.33 49.2l-1.128-3.336h-.52L84.553 49.2l-1.032-3.336h-.64L84.265 50Zm7.135.096c1.168 0 2.128-.976 2.128-2.168 0-1.192-.96-2.16-2.128-2.16-1.176 0-2.136.968-2.136 2.16 0 1.192.96 2.168 2.136 2.168Zm0-.536c-.832 0-1.512-.736-1.512-1.632 0-.896.68-1.624 1.512-1.624.824 0 1.504.728 1.504 1.624 0 .896-.68 1.632-1.504 1.632Zm19.472.44h.624v-5.496h-.624V50Zm3.591-.608a.595.595 0 0 1-.432.168c-.24 0-.448-.216-.448-.52V46.4h1.016v-.536h-1.016v-1.136h-.6v1.136h-.648v.536h.648v2.64c0 .616.416 1.056 1.008 1.056.28 0 .552-.096.768-.264l-.296-.44Zm2.702.168c-.816 0-1.384-.592-1.472-1.4h3.384c0-1.448-.712-2.392-1.96-2.392-1.112 0-2.04.92-2.04 2.152 0 1.272.992 2.176 2.096 2.176.576 0 1.304-.248 1.664-.64l-.368-.392c-.256.28-.816.496-1.304.496Zm-.024-3.256c.824 0 1.264.576 1.344 1.32h-2.784c.112-.8.704-1.32 1.44-1.32Zm7.216-.536c-.656 0-1.168.4-1.296.984-.208-.6-.72-.984-1.376-.984-.544 0-.992.272-1.2.704v-.608h-.6V50h.6v-2.632c0-.624.464-1.064 1.12-1.064.56 0 .952.472.952 1.144V50h.6v-2.632c0-.624.464-1.064 1.12-1.064.56 0 .952.472.952 1.144V50h.6v-2.632c0-.936-.608-1.6-1.472-1.6ZM130.282 50h.624v-4.904h1.848v-.592h-4.32v.592h1.848V50Zm5.127-4.232c-.592 0-1.12.312-1.36.752v-2.112h-.6V50h.6v-2.632c0-.584.576-1.064 1.28-1.064.608 0 1.032.464 1.032 1.144V50h.6v-2.632c0-.952-.632-1.6-1.552-1.6Zm3.245.904v-.808h-.6V50h.6v-2.312c0-.808.664-1.384 1.6-1.384v-.536c-.76 0-1.352.352-1.6.904Zm4.116 2.888c-.816 0-1.384-.592-1.472-1.4h3.384c0-1.448-.712-2.392-1.96-2.392-1.112 0-2.04.92-2.04 2.152 0 1.272.992 2.176 2.096 2.176.576 0 1.304-.248 1.664-.64l-.368-.392c-.256.28-.816.496-1.304.496Zm-.024-3.256c.824 0 1.264.576 1.344 1.32h-2.784c.112-.8.704-1.32 1.44-1.32Zm4.488 3.256c-.816 0-1.384-.592-1.472-1.4h3.384c0-1.448-.712-2.392-1.96-2.392-1.112 0-2.04.92-2.04 2.152 0 1.272.992 2.176 2.096 2.176.576 0 1.304-.248 1.664-.64l-.368-.392c-.256.28-.816.496-1.304.496Zm-.024-3.256c.824 0 1.264.576 1.344 1.32h-2.784c.112-.8.704-1.32 1.44-1.32Z" fill="#5A6F87"/></svg>