<svg width="198" height="198" viewBox="0 0 198 198" fill="none" xmlns="http://www.w3.org/2000/svg">
<path d="M0 3C0 1.34314 1.34315 0 3 0H195C196.657 0 198 1.34315 198 3V195C198 196.657 196.657 198 195 198H3C1.34314 198 0 196.657 0 195V3Z" fill="white"/>
<path d="M15.584 22H16.676V13.418H19.91V12.382H12.35V13.418H15.584V22ZM23.8658 14.594C23.1658 14.594 22.2978 14.776 21.2618 15.294L21.6818 16.148C22.3398 15.812 23.0678 15.49 23.7958 15.49C25.3638 15.49 25.7558 16.61 25.7558 17.59V17.856C25.0138 17.618 24.1878 17.45 23.4038 17.45C21.8498 17.45 20.5618 18.416 20.5618 19.858C20.5618 21.286 21.6818 22.168 23.2078 22.168C24.1598 22.168 25.2378 21.72 25.7558 20.866V22H26.8058V17.59C26.8058 15.84 25.8398 14.594 23.8658 14.594ZM23.3898 21.244C22.3678 21.244 21.5838 20.712 21.5838 19.816C21.5838 18.948 22.4938 18.332 23.5718 18.332C24.3558 18.332 25.0978 18.444 25.7558 18.626V19.732C25.4758 20.754 24.3418 21.244 23.3898 21.244ZM32.5508 14.594C31.3888 14.594 30.4648 15.168 29.9188 16.12V12.214H28.8688V22H29.9188V20.642C30.4648 21.594 31.3888 22.168 32.5508 22.168C34.4548 22.168 35.8828 20.6 35.8828 18.374C35.8828 16.162 34.4548 14.594 32.5508 14.594ZM32.3548 21.23C30.9268 21.23 29.9188 20.04 29.9188 18.374C29.9188 16.708 30.9268 15.532 32.3548 15.532C33.7688 15.532 34.7768 16.708 34.7768 18.374C34.7768 20.04 33.7688 21.23 32.3548 21.23ZM39.7955 22.168C41.2935 22.168 42.4415 21.314 42.4415 19.984C42.4415 18.612 41.2375 18.22 40.0755 17.856C38.7315 17.422 38.1995 17.226 38.1995 16.596C38.1995 15.896 38.8715 15.532 39.6835 15.532C40.3275 15.532 41.0415 15.756 41.7695 16.218L42.2735 15.406C41.5035 14.902 40.5795 14.594 39.6835 14.594C38.2415 14.594 37.1495 15.406 37.1495 16.722C37.1495 17.758 37.8215 18.276 39.5715 18.78C40.5515 19.06 41.3915 19.312 41.3915 20.096C41.3915 20.782 40.7475 21.23 39.7955 21.23C38.9975 21.23 38.1715 20.922 37.3455 20.32L36.7995 21.09C37.6675 21.79 38.7875 22.168 39.7955 22.168Z" fill="#3D293C"/>
<path d="M3 1H195V-1H3V1ZM197 3V195H199V3H197ZM195 197H3V199H195V197ZM1 195V3H-1V195H1ZM3 197C1.89543 197 1 196.105 1 195H-1C-1 197.209 0.790857 199 3 199V197ZM197 195C197 196.105 196.105 197 195 197V199C197.209 199 199 197.209 199 195H197ZM195 1C196.105 1 197 1.89543 197 3H199C199 0.790862 197.209 -1 195 -1V1ZM3 -1C0.790862 -1 -1 0.790857 -1 3H1C1 1.89543 1.89543 1 3 1V-1Z" fill="#CCCCCC"/>
<path d="M24 60H174V125H24V60Z" fill="white"/>
<path d="M174 125V60H24V125" stroke="#A7A7A7"/>
<g opacity="0.7">
<rect x="33" y="78" width="18.9333" height="2" rx="1" fill="#676767"/>
</g>
<g opacity="0.8">
<rect x="62" y="78" width="13.9509" height="2" rx="1" fill="#A7A7A7"/>
</g>
<g opacity="0.8">
<rect x="86" y="78" width="11.9579" height="2" rx="1" fill="#A7A7A7"/>
</g>
<g opacity="0.8">
<rect x="135" y="78" width="11.9579" height="2" rx="1" fill="#A7A7A7"/>
</g>
<g opacity="0.8">
<rect x="108" y="78" width="16.9403" height="2" rx="1" fill="#A7A7A7"/>
</g>
<line x1="54" y1="84.7" x2="166" y2="84.7" stroke="#979797" stroke-width="0.6"/>
<line x1="32" y1="84" x2="53" y2="84" stroke="#47A6D7" stroke-width="2"/>
</svg>
