<svg width="160" height="100" fill="none" xmlns="http://www.w3.org/2000/svg"><path d="M7 9.5h146a1.5 1.5 0 0 1 1.5 1.5v78a1.5 1.5 0 0 1-1.5 1.5H7A1.5 1.5 0 0 1 5.5 89V11A1.5 1.5 0 0 1 7 9.5Z" fill="#F3F5F7" stroke="#889AAF"/><path d="M16 16a1 1 0 0 1 1-1h25.22a1 1 0 1 1 0 2H17a1 1 0 0 1-1-1Zm41 0a1 1 0 0 1 1-1h42.78a1 1 0 1 1 0 2H58a1 1 0 0 1-1-1Z" fill="#889AAF" opacity=".6"/><path fill="#fff" d="M6 22h148v57H6z"/><path d="M16 30a1 1 0 0 1 1-1h25.22a1 1 0 1 1 0 2H17a1 1 0 0 1-1-1Zm0 8a1 1 0 0 1 1-1h29a1 1 0 1 1 0 2H17a1 1 0 0 1-1-1Zm0 8a1 1 0 0 1 1-1h23.707a1 1 0 1 1 0 2H17a1 1 0 0 1-1-1Zm0 8a1 1 0 0 1 1-1h25.22a1 1 0 1 1 0 2H17a1 1 0 0 1-1-1Zm0 8a1 1 0 0 1 1-1h29a1 1 0 1 1 0 2H17a1 1 0 0 1-1-1Zm0 8a1 1 0 0 1 1-1h23.707a1 1 0 1 1 0 2H17a1 1 0 0 1-1-1Zm41-40a1 1 0 0 1 1-1h55a1 1 0 0 1 0 2H58a1 1 0 0 1-1-1Zm0 8a1 1 0 0 1 1-1h63a1 1 0 0 1 0 2H58a1 1 0 0 1-1-1Zm0 8a1 1 0 0 1 1-1h52a1 1 0 0 1 0 2H58a1 1 0 0 1-1-1Zm0 8a1 1 0 0 1 1-1h55a1 1 0 0 1 0 2H58a1 1 0 0 1-1-1Zm0 8a1 1 0 0 1 1-1h63a1 1 0 0 1 0 2H58a1 1 0 0 1-1-1Zm0 8a1 1 0 0 1 1-1h52a1 1 0 0 1 0 2H58a1 1 0 0 1-1-1Zm80-40a1 1 0 0 1 1-1h7a1 1 0 0 1 0 2h-7a1 1 0 0 1-1-1Zm0 8a1 1 0 0 1 1-1h7a1 1 0 0 1 0 2h-7a1 1 0 0 1-1-1Zm0 8a1 1 0 0 1 1-1h7a1 1 0 0 1 0 2h-7a1 1 0 0 1-1-1Zm0 8a1 1 0 0 1 1-1h7a1 1 0 0 1 0 2h-7a1 1 0 0 1-1-1Zm0 8a1 1 0 0 1 1-1h7a1 1 0 0 1 0 2h-7a1 1 0 0 1-1-1Zm0 8a1 1 0 0 1 1-1h7a1 1 0 0 1 0 2h-7a1 1 0 0 1-1-1Z" fill="#A9B7C6" opacity=".6"/><path d="M137 16a1 1 0 0 1 1-1h9a1 1 0 0 1 0 2h-9a1 1 0 0 1-1-1Z" fill="#889AAF" opacity=".6"/></svg>