<svg width="160" height="100" viewBox="0 0 160 100" fill="none" xmlns="http://www.w3.org/2000/svg">
<rect x="20.5" y="26.5" width="119" height="48" rx="1.5" fill="white" stroke="#ACB9BE"/>
<path d="M28 35C28 34.4477 28.4477 34 29 34H130C130.552 34 131 34.4477 131 35C131 35.5523 130.552 36 130 36H29C28.4477 36 28 35.5523 28 35Z" fill="#C5CED8"/>
<path d="M28 43C28 42.4477 28.4477 42 29 42H130C130.552 42 131 42.4477 131 43C131 43.5523 130.552 44 130 44H29C28.4477 44 28 43.5523 28 43Z" fill="#C5CED8"/>
<path d="M28 51C28 50.4477 28.4477 50 29 50H86C86.5523 50 87 50.4477 87 51C87 51.5523 86.5523 52 86 52H29C28.4477 52 28 51.5523 28 51Z" fill="#C5CED8"/>
<rect x="90" y="46" width="1" height="8" fill="#4F6169"/>
<path d="M138 65V73H130L138 65Z" fill="#CBD4D8"/>
</svg>
