<svg width="84" height="64" viewBox="0 0 84 64" fill="none" xmlns="http://www.w3.org/2000/svg">
<path d="M82 28.5H2C1.17157 28.5 0.5 29.1716 0.5 30V62C0.5 62.8284 1.17157 63.5 2 63.5H82C82.8284 63.5 83.5 62.8284 83.5 62V30C83.5 29.1716 82.8284 28.5 82 28.5Z" fill="white" stroke="#A7A7A7"/>
<path d="M7 33H6V39H7V33Z" fill="#3D3D3D"/>
<path d="M82 56V62H76L82 56Z" fill="#C4C4C4"/>
<g opacity="0.8">
<path opacity="0.4" d="M50.8175 16H1C0.447715 16 0 16.4477 0 17C0 17.5523 0.447715 18 1 18H50.8175C51.3698 18 51.8175 17.5523 51.8175 17C51.8175 16.4477 51.3698 16 50.8175 16Z" fill="#A7A7A7"/>
<path opacity="0.4" d="M74.7333 8H1C0.447715 8 0 8.44772 0 9C0 9.55228 0.447715 10 1 10H74.7333C75.2856 10 75.7333 9.55228 75.7333 9C75.7333 8.44772 75.2856 8 74.7333 8Z" fill="#A7A7A7"/>
<path opacity="0.4" d="M82.7053 0H1C0.447715 0 0 0.447715 0 1C0 1.55228 0.447715 2 1 2H82.7053C83.2576 2 83.7053 1.55228 83.7053 1C83.7053 0.447715 83.2576 0 82.7053 0Z" fill="#A7A7A7"/>
</g>
</svg>
