<svg width="160" height="94" fill="none" xmlns="http://www.w3.org/2000/svg"><path stroke="#A9B7C6" d="M17 42.5h133"/><circle cx="147" cy="43" r="8" fill="#fff"/><circle cx="14" cy="43" r="8" fill="#74C34F"/><circle cx="58" cy="43" r="8" fill="#74C34F"/><circle cx="103" cy="43" r="6.5" fill="#fff" stroke="#47A6D7" stroke-width="3"/><circle cx="146" cy="43" r="6.5" fill="#fff" stroke="#A9B7C6" stroke-width="3"/><path d="M3 58a1 1 0 0 1 1-1h19a1 1 0 1 1 0 2H4a1 1 0 0 1-1-1Zm44 0a1 1 0 0 1 1-1h19a1 1 0 1 1 0 2H48a1 1 0 0 1-1-1Z" fill="#C5CED8" opacity=".5"/><path d="M92 58a1 1 0 0 1 1-1h20a1 1 0 0 1 0 2H93a1 1 0 0 1-1-1Z" fill="#C5CED8"/><path d="M135 58a1 1 0 0 1 1-1h20a1 1 0 0 1 0 2h-20a1 1 0 0 1-1-1Z" fill="#C5CED8" opacity=".5"/></svg>