<svg width="160" height="100" viewBox="0 0 160 100" fill="none" xmlns="http://www.w3.org/2000/svg">
<rect x="59" y="22" width="42.1667" height="23" rx="11.5" fill="#67CA16"/>
<path fill-rule="evenodd" clip-rule="evenodd" d="M89.6666 42.4436C94.6065 42.4436 98.6111 38.439 98.6111 33.4991C98.6111 28.5593 94.6065 24.5547 89.6666 24.5547C84.7267 24.5547 80.7222 28.5593 80.7222 33.4991C80.7222 38.439 84.7267 42.4436 89.6666 42.4436Z" fill="white"/>
<rect x="59" y="54.7148" width="42.1667" height="23" rx="11.5" fill="#ACB9BE"/>
<path fill-rule="evenodd" clip-rule="evenodd" d="M70.9444 75.1584C75.8843 75.1584 79.8889 71.1539 79.8889 66.214C79.8889 61.2741 75.8843 57.2695 70.9444 57.2695C66.0046 57.2695 62 61.2741 62 66.214C62 71.1539 66.0046 75.1584 70.9444 75.1584Z" fill="white"/>
</svg>
