<svg width="160" height="100" fill="none" xmlns="http://www.w3.org/2000/svg"><g filter="url(#tooltip__a)"><path fill-rule="evenodd" clip-rule="evenodd" d="M48 23a3 3 0 0 0-3 3v25.575a.5.5 0 0 0 .89.312L52.2 44H124a3 3 0 0 0 3-3V26a3 3 0 0 0-3-3H48Z" fill="#5A6F87"/></g><rect opacity=".4" x="57" y="32" width="60" height="3" rx="1.5" fill="#fff"/><path fill-rule="evenodd" clip-rule="evenodd" d="M55.054 58.247A.667.667 0 0 0 54.54 58H40.66l.434 1.333h12.573l-1.78 8h-10l-3.047-9.646a.667.667 0 0 0-.44-.434l-2.733-.84a.67.67 0 0 0-.393 1.28l2.393.734 3.06 9.666-1.093.894-.087.086a1.773 1.773 0 0 0-.053 2.26c.368.448.927.696 1.506.667h11.127a.667.667 0 0 0 0-1.333H40.894A.447.447 0 0 1 40.52 70l1.607-1.333H52.42a.667.667 0 0 0 .667-.52l2.113-9.334a.667.667 0 0 0-.146-.566ZM51 76a1.5 1.5 0 1 0 0-3 1.5 1.5 0 0 0 0 3Zm-7.613-1.5a1.5 1.5 0 1 1-3 0 1.5 1.5 0 0 1 3 0Z" fill="#A9B7C6"/><defs><filter id="tooltip__a" x="41" y="22" width="90" height="37.076" filterUnits="userSpaceOnUse" color-interpolation-filters="sRGB"><feFlood flood-opacity="0" result="BackgroundImageFix"/><feColorMatrix in="SourceAlpha" values="0 0 0 0 0 0 0 0 0 0 0 0 0 0 0 0 0 0 127 0" result="hardAlpha"/><feOffset dy="3"/><feGaussianBlur stdDeviation="2"/><feColorMatrix values="0 0 0 0 0 0 0 0 0 0 0 0 0 0 0 0 0 0 0.15 0"/><feBlend in2="BackgroundImageFix" result="effect1_dropShadow_1456_2590"/><feBlend in="SourceGraphic" in2="effect1_dropShadow_1456_2590" result="shape"/></filter></defs></svg>