<svg width="76" height="79" viewBox="0 0 76 79" fill="none" xmlns="http://www.w3.org/2000/svg">
<rect opacity="0.4" x="12.3877" y="2" width="41.8526" height="3" rx="1.5" fill="#737373"/>
<path d="M7.38772 3L4.19385 6L0.999976 3" stroke="#737373" stroke-linecap="round"/>
<rect opacity="0.4" x="12.5815" y="62.1941" width="41.8526" height="3" rx="1.5" fill="#737373"/>
<path d="M4.3877 60L7.3877 63.1938L4.3877 66.3877" stroke="#737373" stroke-linecap="round"/>
<rect opacity="0.4" x="12.5815" y="74.1941" width="41.8526" height="3" rx="1.5" fill="#737373"/>
<path d="M4.3877 72L7.3877 75.1938L4.3877 78.3877" stroke="#737373" stroke-linecap="round"/>
<rect opacity="0.4" x="26.7754" y="14" width="41.8526" height="3" rx="1.5" fill="#737373"/>
<path d="M21.7754 15L18.5815 18L15.3877 15" stroke="#737373" stroke-linecap="round"/>
<rect opacity="0.4" x="33.7754" y="26" width="41.8526" height="3" rx="1.5" fill="#737373"/>
<rect opacity="0.4" x="33.7754" y="50" width="41.8526" height="3" rx="1.5" fill="#737373"/>
<rect opacity="0.4" x="33.7754" y="38" width="41.8526" height="3" rx="1.5" fill="#737373"/>
</svg>
