<svg width="160" height="101" fill="none" xmlns="http://www.w3.org/2000/svg"><g filter="url(#wizard__a)"><rect x="16" y="6" width="128" height="89" rx="2" fill="#fff"/><path d="M126.167 78.606 130.834 82l-4.667 3.394m-6.046-6.788L115.878 82l4.243 3.394" stroke="#435970" stroke-width=".725" stroke-linecap="round"/><path d="M16 8a2 2 0 0 1 2-2h40v89H18a2 2 0 0 1-2-2V8Z" fill="#F3F5F7"/><rect opacity=".4" x="66" y="22" width="67" height="2" rx="1" fill="#A7A7A7"/><rect opacity=".4" x="66" y="31" width="67" height="2" rx="1" fill="#A7A7A7"/><rect opacity=".4" x="66" y="40" width="67" height="2" rx="1" fill="#A7A7A7"/><rect opacity=".4" x="66" y="49" width="67" height="2" rx="1" fill="#A7A7A7"/><rect opacity=".4" x="66" y="58" width="40" height="2" rx="1" fill="#A7A7A7"/><path d="M27.453 27h.78v-6.87h-.63l-1.69 1.15.34.58 1.2-.78V27Zm-2.44 14h4.74v-.74h-3.49l1.8-1.56c1.16-1 1.62-1.74 1.62-2.67 0-1.23-1-2.02-2.19-2.02-1.08 0-1.85.51-2.42 1.32l.55.45c.47-.64 1.04-1.07 1.84-1.07.73 0 1.43.49 1.43 1.33 0 .68-.4 1.34-1.37 2.17l-2.51 2.14V41Zm2.377 14.12c1.43 0 2.39-.83 2.39-1.98 0-.99-.78-1.5-1.48-1.66.71-.21 1.33-.73 1.33-1.61 0-1.1-.96-1.86-2.27-1.86-1.07 0-1.83.52-2.35 1.21l.52.47c.49-.59 1.03-.97 1.79-.97.86 0 1.52.52 1.52 1.24 0 .78-.69 1.22-1.61 1.21l-.74-.01v.72h.73c1.08 0 1.77.41 1.77 1.22 0 .78-.64 1.31-1.6 1.31-.84 0-1.51-.4-1.96-.98l-.54.51c.5.66 1.37 1.18 2.5 1.18Z" fill="#889AAF"/><rect opacity=".5" x="32" y="51" width="21.923" height="2" rx="1" fill="#A9B7C6"/><path fill="#60C35E" d="M17 18h3v27h-3z"/><rect x="16.5" y="6.5" width="127" height="88" rx="1.5" stroke="#889AAF"/></g><defs><filter id="wizard__a" x="12" y="4" width="136" height="97" filterUnits="userSpaceOnUse" color-interpolation-filters="sRGB"><feFlood flood-opacity="0" result="BackgroundImageFix"/><feColorMatrix in="SourceAlpha" values="0 0 0 0 0 0 0 0 0 0 0 0 0 0 0 0 0 0 127 0" result="hardAlpha"/><feOffset dy="2"/><feGaussianBlur stdDeviation="2"/><feComposite in2="hardAlpha" operator="out"/><feColorMatrix values="0 0 0 0 0.133333 0 0 0 0 0.215686 0 0 0 0 0.309804 0 0 0 0.2 0"/><feBlend in2="BackgroundImageFix" result="effect1_dropShadow_1460_2253"/><feBlend in="SourceGraphic" in2="effect1_dropShadow_1460_2253" result="shape"/></filter></defs></svg>