<svg version="1.1" width="36" height="36"  viewBox="0 0 36 36" preserveAspectRatio="xMidYMid meet" xmlns="http://www.w3.org/2000/svg" xmlns:xlink="http://www.w3.org/1999/xlink">
                <title>bars-line</title>
                <path class="clr-i-outline clr-i-outline-path-1" d="M32,29H4a1,1,0,0,1,0-2H32a1,1,0,0,1,0,2Z"></path><path class="clr-i-outline clr-i-outline-path-2" d="M32,19H4a1,1,0,0,1,0-2H32a1,1,0,0,1,0,2Z"></path><path class="clr-i-outline clr-i-outline-path-3" d="M32,9H4A1,1,0,0,1,4,7H32a1,1,0,0,1,0,2Z"></path>
                <rect x="0" y="0" width="36" height="36" fill-opacity="0"/>
            </svg>