<?xml version="1.0" encoding="UTF-8" standalone="no"?>
<svg width="71px" height="65px" viewBox="0 0 71 65" version="1.1" xmlns="http://www.w3.org/2000/svg" xmlns:xlink="http://www.w3.org/1999/xlink">
    <!-- Generator: Sketch 40.3 (33839) - http://www.bohemiancoding.com/sketch -->
    <title>symbol</title>
    <desc>Created with Sketch.</desc>
    <defs></defs>
    <g id="Landing-page" stroke="none" stroke-width="1" fill="none" fill-rule="evenodd">
        <g id="landing-page" transform="translate(-229.000000, -723.000000)" fill="#EB8D00">
            <g id="02-panel" transform="translate(96.000000, 528.000000)">
                <g id="Sketch" transform="translate(24.000000, 168.000000)">
                    <path d="M169.93979,32.380075 L157.535935,27 L131.464065,27 L119.06021,32.380075 L109,44.0008565 L144.501875,92 L180,44.0008565 L169.93979,32.380075 Z M175.731755,44.4866088 L166.360576,51.8057758 L158.902397,40.8329014 L169.395596,35.7803413 L175.731755,44.4866088 Z M161.826328,53.9772976 L127.173672,53.9772976 L134.274211,41.244224 L154.725906,41.244224 L161.826328,53.9772976 Z M154.697287,29.3795176 L164.285162,33.5518397 L154.658057,38.1325363 L134.341943,38.1325363 L124.714838,33.5518397 L134.196093,29.3767064 L154.697287,29.3795176 Z M119.487222,35.7803413 L129.980421,40.8329014 L122.522242,51.8057758 L113.15118,44.4866088 L119.487222,35.7803413 Z M116.963703,51.6836254 L122.968237,56.4404845 L137.317433,80.0603693 L116.963703,51.6836254 Z M128.007424,57.8567873 L160.992693,57.8567873 L144.501875,87.5372989 L128.007424,57.8567873 Z M151.565384,80.0603693 L165.914581,56.4404845 L171.919115,51.6836254 L151.565384,80.0603693 Z" id="symbol"></path>
                </g>
            </g>
        </g>
    </g>
</svg>