<svg version="1.1" width="36" height="36"  viewBox="0 0 36 36" preserveAspectRatio="xMidYMid meet" xmlns="http://www.w3.org/2000/svg" xmlns:xlink="http://www.w3.org/1999/xlink">
    <title>campervan-line</title>
    <path d="M9.5,24C9.5,24,9.5,24,9.5,24C7.6,24,6,25.6,6,27.5c0,0,0,0,0,0C6,29.4,7.6,31,9.5,31c1.9,0,3.5-1.6,3.5-3.5
		S11.4,24,9.5,24z M9.5,29C8.7,29,8,28.3,8,27.5S8.7,26,9.5,26s1.5,0.7,1.5,1.5S10.3,29,9.5,29z" class="clr-i-outline clr-i-outline-path-1"></path><path d="M23.5,24C23.5,24,23.5,24,23.5,24c-1.9,0-3.5,1.6-3.5,3.5c0,0,0,0,0,0c0,1.9,1.5,3.5,3.5,3.5c1.9,0,3.5-1.6,3.5-3.5
		S25.4,24,23.5,24z M23.5,29c-0.8,0-1.5-0.7-1.5-1.5s0.7-1.5,1.5-1.5s1.5,0.7,1.5,1.5S24.3,29,23.5,29z" class="clr-i-outline clr-i-outline-path-2"></path><path d="M33,20.1V20h-0.1l-3.5-5.5C31,13.6,32,12,32,10.3V9.7C32,7.1,29.9,5,27.3,5h-8.5c-1.9,0-3.7,1.2-4.4,3H5c-1.7,0-3,1.3-3,3
		v17h2V11c0-0.6,0.4-1,1-1h10.9L16,9.2C16.3,7.9,17.4,7,18.7,7h8.5C28.8,7,30,8.2,30,9.7v0.5c0,1.5-1.2,2.7-2.7,2.7H24v9h7.8
		l0.2,0.3V25c0,0.6-0.4,1-1,1h-2v2h2c1.7,0,3-1.3,3-3v-3.3L33,20.1z M26,20v-5h1.5l3.1,5H26z" class="clr-i-outline clr-i-outline-path-3"></path><rect x="19" y="9" width="8" height="2" class="clr-i-outline clr-i-outline-path-4"></rect><polygon points="20,22 22,22 22,13 15,13 15,28 17,28 17,15 20,15 	" class="clr-i-outline clr-i-outline-path-5"></polygon><path d="M6,20h7v-7H6V20z M8,15h3v3H8V15z" class="clr-i-outline clr-i-outline-path-6"></path>
    <rect x="0" y="0" width="36" height="36" fill-opacity="0"/>
</svg>