<svg version="1.1" width="36" height="36"  viewBox="0 0 36 36" preserveAspectRatio="xMidYMid meet" xmlns="http://www.w3.org/2000/svg" xmlns:xlink="http://www.w3.org/1999/xlink">
    <title>map-solid</title>
    <path class="clr-i-solid clr-i-solid-path-1" d="M33.31,7.35,25,9.94V14H23V10.29L14,5.68V9H12V5.27l-9.67,4A.53.53,0,0,0,2,9.75V30.45a.53.53,0,0,0,.74.49L12,27.12V23h2v4.53l9,4.61V28h2v3.79l8.63-2.7a.53.53,0,0,0,.37-.51V7.86A.53.53,0,0,0,33.31,7.35ZM14,21H12V17h2Zm0-6H12V11h2ZM25,26H23V22h2Zm0-6H23V16h2Z"></path>
    <rect x="0" y="0" width="36" height="36" fill-opacity="0"/>
</svg>