<svg version="1.1" width="36" height="36"  viewBox="0 0 36 36" preserveAspectRatio="xMidYMid meet" xmlns="http://www.w3.org/2000/svg" xmlns:xlink="http://www.w3.org/1999/xlink">
    <title>map-marker-solid</title>
    <path class="clr-i-solid clr-i-solid-path-1" d="M18,2A11.79,11.79,0,0,0,6.22,13.73c0,4.67,2.62,8.58,4.54,11.43l.35.52a99.61,99.61,0,0,0,6.14,8l.76.89.76-.89a99.82,99.82,0,0,0,6.14-8l.35-.53c1.91-2.85,4.53-6.75,4.53-11.42A11.79,11.79,0,0,0,18,2Zm0,17a6.56,6.56,0,1,1,6.56-6.56A6.56,6.56,0,0,1,18,19Z"></path><circle class="clr-i-solid clr-i-solid-path-2" cx="18" cy="12.44" r="3.73"></circle>
    <rect x="0" y="0" width="36" height="36" fill-opacity="0"/>
</svg>