<svg version="1.1" width="36" height="36"  viewBox="0 0 36 36" preserveAspectRatio="xMidYMid meet" xmlns="http://www.w3.org/2000/svg" xmlns:xlink="http://www.w3.org/1999/xlink">
    <title>house-solid</title>
    <path class="clr-i-solid clr-i-solid-path-1" d="M33,19a1,1,0,0,1-.71-.29L18,4.41,3.71,18.71a1,1,0,0,1-1.41-1.41l15-15a1,1,0,0,1,1.41,0l15,15A1,1,0,0,1,33,19Z"></path><path class="clr-i-solid clr-i-solid-path-2" d="M18,7.79,6,19.83V32a2,2,0,0,0,2,2h7V24h6V34h7a2,2,0,0,0,2-2V19.76Z"></path>
    <rect x="0" y="0" width="36" height="36" fill-opacity="0"/>
</svg>