<svg version="1.1" width="36" height="36"  viewBox="0 0 36 36" preserveAspectRatio="xMidYMid meet" xmlns="http://www.w3.org/2000/svg" xmlns:xlink="http://www.w3.org/1999/xlink">
    <title>info-standard-solid</title>
    <path class="clr-i-solid clr-i-solid-path-1" d="M18,2.1a16,16,0,1,0,16,16A16,16,0,0,0,18,2.1Zm-.1,5.28a2,2,0,1,1-2,2A2,2,0,0,1,17.9,7.38Zm3.6,21.25h-7a1.4,1.4,0,1,1,0-2.8h2.1v-9.2H15a1.4,1.4,0,1,1,0-2.8h4.4v12h2.1a1.4,1.4,0,1,1,0,2.8Z"></path>
    <rect x="0" y="0" width="36" height="36" fill-opacity="0"/>
</svg>