<svg version="1.1" width="36" height="36"  viewBox="0 0 36 36" preserveAspectRatio="xMidYMid meet" xmlns="http://www.w3.org/2000/svg" xmlns:xlink="http://www.w3.org/1999/xlink">
    <title>warning-line</title>
    <path class="clr-i-outline clr-i-outline-path-1" d="M18,21.32a1.3,1.3,0,0,0,1.3-1.3V14a1.3,1.3,0,1,0-2.6,0v6A1.3,1.3,0,0,0,18,21.32Z"></path><circle class="clr-i-outline clr-i-outline-path-2" cx="17.95" cy="24.27" r="1.5"></circle><path class="clr-i-outline clr-i-outline-path-3" d="M30.33,25.54,20.59,7.6a3,3,0,0,0-5.27,0L5.57,25.54A3,3,0,0,0,8.21,30H27.69a3,3,0,0,0,2.64-4.43Zm-1.78,1.94a1,1,0,0,1-.86.49H8.21a1,1,0,0,1-.88-1.48L17.07,8.55a1,1,0,0,1,1.76,0l9.74,17.94A1,1,0,0,1,28.55,27.48Z"></path>
    <rect x="0" y="0" width="36" height="36" fill-opacity="0"/>
</svg>