<svg version="1.1" width="36" height="36"  viewBox="0 0 36 36" preserveAspectRatio="xMidYMid meet" xmlns="http://www.w3.org/2000/svg" xmlns:xlink="http://www.w3.org/1999/xlink">
    <title>bank-solid-alerted</title>
    <path d="M32.85,27H32v-.85A1.15,1.15,0,0,0,30.85,25H28V17.63H24V25H20V17.63H16V25H12V17.63H8V25H5.15A1.15,1.15,0,0,0,4,26.15V27H3.15A1.15,1.15,0,0,0,2,28.15V31H34V28.15A1.15,1.15,0,0,0,32.85,27Z" class="clr-i-solid--alerted clr-i-solid-path-1--alerted"></path><path d="M22.5,15a3.51,3.51,0,0,1-3-5.26l.14-.24-1.35-.78L14.35,11H11.14l6.72-3.86a.8.8,0,0,1,.8,0l1.75,1,1.65-2.86L18,2.92,2.5,11.83a1,1,0,1,0,1,1.73L5,12.68V16H31V15Z" class="clr-i-solid--alerted clr-i-solid-path-2--alerted"></path><path d="M26.85,1.14,21.13,11A1.28,1.28,0,0,0,22.23,13H33.68A1.28,1.28,0,0,0,34.78,11L29.06,1.14A1.28,1.28,0,0,0,26.85,1.14Z" class="clr-i-solid--alerted clr-i-solid-path-3--alerted clr-i-alert"></path>
    <rect x="0" y="0" width="36" height="36" fill-opacity="0"/>
</svg>