<svg version="1.1" width="36" height="36"  viewBox="0 0 36 36" preserveAspectRatio="xMidYMid meet" xmlns="http://www.w3.org/2000/svg" xmlns:xlink="http://www.w3.org/1999/xlink">
    <title>dollar-solid</title>
    <path class="clr-i-solid clr-i-solid-path-1" d="M18,2A16,16,0,1,0,34,18,16,16,0,0,0,18,2Zm7.65,21.59c-1,3-3.61,3.84-5.9,4v2a1.25,1.25,0,0,1-2.5,0V27.59A11.47,11.47,0,0,1,11,25a1.25,1.25,0,1,1,1.71-1.83,9.11,9.11,0,0,0,4.55,1.94V18.83a9.63,9.63,0,0,1-3.73-1.41,4.8,4.8,0,0,1-1.91-5.84c.59-1.51,2.42-3.23,5.64-3.51V6.25a1.25,1.25,0,0,1,2.5,0V8.11a9.67,9.67,0,0,1,4.9,2A1.25,1.25,0,0,1,23,11.95a7.14,7.14,0,0,0-3.24-1.31v6.13c.6.13,1.24.27,1.91.48a5.85,5.85,0,0,1,3.69,2.82A4.64,4.64,0,0,1,25.65,23.59Z"></path><path class="clr-i-solid clr-i-solid-path-2" d="M20.92,19.64c-.4-.12-.79-.22-1.17-.3v5.76c2-.2,3.07-.9,3.53-2.3a2.15,2.15,0,0,0-.15-1.58A3.49,3.49,0,0,0,20.92,19.64Z"></path><path class="clr-i-solid clr-i-solid-path-3" d="M13.94,12.48a2.31,2.31,0,0,0,1,2.87,6.53,6.53,0,0,0,2.32.92V10.55C15.16,10.8,14.19,11.84,13.94,12.48Z"></path>
    <rect x="0" y="0" width="36" height="36" fill-opacity="0"/>
</svg>