<svg version="1.1" width="36" height="36"  viewBox="0 0 36 36" preserveAspectRatio="xMidYMid meet" xmlns="http://www.w3.org/2000/svg" xmlns:xlink="http://www.w3.org/1999/xlink">
    <title>add-text-line</title>
    <path class="clr-i-outline clr-i-outline-path-1" d="M31,21H13a1,1,0,0,0,0,2H31a1,1,0,0,0,0-2Z"></path><path class="clr-i-outline clr-i-outline-path-2" d="M12,16a1,1,0,0,0,1,1H31a1,1,0,0,0,0-2H13A1,1,0,0,0,12,16Z"></path><path class="clr-i-outline clr-i-outline-path-3" d="M27,27H13a1,1,0,0,0,0,2H27a1,1,0,0,0,0-2Z"></path><path class="clr-i-outline clr-i-outline-path-4" d="M15.89,9a1,1,0,0,0-1-1H10V3.21a1,1,0,0,0-2,0V8H2.89a1,1,0,0,0,0,2H8v5.21a1,1,0,0,0,2,0V10h4.89A1,1,0,0,0,15.89,9Z"></path>
    <rect x="0" y="0" width="36" height="36" fill-opacity="0"/>
</svg>