<svg version="1.1" width="36" height="36"  viewBox="0 0 36 36" preserveAspectRatio="xMidYMid meet" xmlns="http://www.w3.org/2000/svg" xmlns:xlink="http://www.w3.org/1999/xlink">
    <title>balance-line</title>
    <path d="M24,33H12a1,1,0,0,1,0-2H24a1,1,0,0,1,0,2Z" class="clr-i-outline clr-i-outline-path-1"></path><rect x="17" y="9" width="2" height="22.5" class="clr-i-outline clr-i-outline-path-2"></rect><path d="M28,7H8A1,1,0,0,1,8,5H28a1,1,0,0,1,0,2Z" class="clr-i-outline clr-i-outline-path-3"></path><path d="M26.93,24.79a7.23,7.23,0,0,1-5.81-2.89l-.6-.8,1.59-1.21.6.8a5.28,5.28,0,0,0,8.42,0l.6-.8,1.59,1.21-.6.8A7.23,7.23,0,0,1,26.93,24.79Z" class="clr-i-outline clr-i-outline-path-4"></path><path d="M30.51,19.25a.8.8,0,0,1-.73-.48L26.93,12.2l-2.85,6.57a.8.8,0,0,1-1.47-.64L26.2,9.87a.83.83,0,0,1,1.47,0l3.58,8.26a.8.8,0,0,1-.73,1.12Z" class="clr-i-outline clr-i-outline-path-5"></path><path d="M9.68,24.79A7.23,7.23,0,0,1,3.88,21.9l-.6-.8L4.86,19.9l.6.8a5.28,5.28,0,0,0,8.42,0l.6-.8,1.59,1.21-.6.8A7.23,7.23,0,0,1,9.68,24.79Z" class="clr-i-outline clr-i-outline-path-6"></path><path d="M13.26,19.25a.8.8,0,0,1-.73-.48L9.68,12.2,6.84,18.77a.8.8,0,0,1-1.47-.64L8.95,9.87a.83.83,0,0,1,1.47,0L14,18.13a.8.8,0,0,1-.73,1.12Z" class="clr-i-outline clr-i-outline-path-7"></path>
    <rect x="0" y="0" width="36" height="36" fill-opacity="0"/>
</svg>