<svg version="1.1" width="36" height="36"  viewBox="0 0 36 36" preserveAspectRatio="xMidYMid meet" xmlns="http://www.w3.org/2000/svg" xmlns:xlink="http://www.w3.org/1999/xlink">
    <title>circle-arrow-solid</title>
    <path d="M18,2A16,16,0,1,0,34,18,16,16,0,0,0,18,2Zm8,15.57a1.43,1.43,0,0,1-2,0L19.4,13V27.14a1.4,1.4,0,0,1-2.8,0v-14l-4.43,4.43a1.4,1.4,0,0,1-2-2L18.08,7.7,26,15.59A1.4,1.4,0,0,1,26,17.57Z" class="clr-i-solid clr-i-solid-path-1"></path>
    <rect x="0" y="0" width="36" height="36" fill-opacity="0"/>
</svg>