<svg version="1.1" width="36" height="36"  viewBox="0 0 36 36" preserveAspectRatio="xMidYMid meet" xmlns="http://www.w3.org/2000/svg" xmlns:xlink="http://www.w3.org/1999/xlink">
    <title>key-solid-alerted</title>
    <path d="M23.38,16.77l.6-.6a5,5,0,0,0,.63-.77H22.23A3.68,3.68,0,0,1,19,9.89l2.09-3.62L18.71,3.84a5,5,0,0,0-7.07,0L3.09,12.39a5,5,0,0,0,0,7.07l5.26,5.26a5,5,0,0,0,7.07,0l.45-.45,2.1,2.2h3.44v3h3.69v1.63L28,34h6V27.45Zm-8.56-6.59L9.37,15.64a1,1,0,0,1-1.41,0l-.4-.4a1,1,0,0,1,0-1.41L13,8.36a1,1,0,0,1,1.41,0l.4.4A1,1,0,0,1,14.82,10.18ZM32,32H28.86l-1.77-1.76v-2.8H23.41v-3H18.8l-1.52-1.61L22,18.18,32,28.28Z" class="clr-i-solid--alerted clr-i-solid-path-1--alerted"></path><path d="M26.85,1.14,21.13,11A1.28,1.28,0,0,0,22.23,13H33.68A1.28,1.28,0,0,0,34.78,11L29.06,1.14A1.28,1.28,0,0,0,26.85,1.14Z" class="clr-i-solid--alerted clr-i-solid-path-2--alerted clr-i-alert"></path>
    <rect x="0" y="0" width="36" height="36" fill-opacity="0"/>
</svg>