<svg version="1.1" width="36" height="36"  viewBox="0 0 36 36" preserveAspectRatio="xMidYMid meet" xmlns="http://www.w3.org/2000/svg" xmlns:xlink="http://www.w3.org/1999/xlink">
    <title>lightning-line</title>
    <path d="M10.52,34h-3a1,1,0,0,1-.88-1.44L12.55,21H6a1,1,0,0,1-.85-1.54l10.68-17A1,1,0,0,1,16.64,2H30.07a1,1,0,0,1,.77,1.69L21.78,14h5.38a1,1,0,0,1,.73,1.66l-16.63,18A1,1,0,0,1,10.52,34ZM9.18,32h.91L24.86,16H19.59a1,1,0,0,1-.77-1.69L27.88,4H17.19L7.77,19H14.2a1,1,0,0,1,.88,1.44Z" class="clr-i-outline clr-i-outline-path-1"></path>
    <rect x="0" y="0" width="36" height="36" fill-opacity="0"/>
</svg>