<svg version="1.1" width="36" height="36"  viewBox="0 0 36 36" preserveAspectRatio="xMidYMid meet" xmlns="http://www.w3.org/2000/svg" xmlns:xlink="http://www.w3.org/1999/xlink">
    <title>moon-line</title>
    <path d="M31,27.19a1,1,0,0,0-1-.56c-.28,0-.56,0-.85,0A11,11,0,0,1,24.92,5.61a1,1,0,0,0,.61-1,1,1,0,0,0-.67-.91,14.7,14.7,0,0,0-5-.87,15.12,15.12,0,0,0,0,30.24,14.78,14.78,0,0,0,11-4.81A1,1,0,0,0,31,27.19ZM19.89,31.12a13.12,13.12,0,0,1,0-26.24,11.81,11.81,0,0,1,2,.16,13,13,0,0,0,5.72,23.53A12.75,12.75,0,0,1,19.89,31.12Z" class="clr-i-outline clr-i-outline-path-1"></path>
    <rect x="0" y="0" width="36" height="36" fill-opacity="0"/>
</svg>