<svg version="1.1" width="36" height="36"  viewBox="0 0 36 36" preserveAspectRatio="xMidYMid meet" xmlns="http://www.w3.org/2000/svg" xmlns:xlink="http://www.w3.org/1999/xlink">
    <title>objects-line</title>
    <path class="clr-i-outline clr-i-outline-path-1" d="M16.08,14.9a10.41,10.41,0,0,1,1.87-.71l-4-10.77a2,2,0,0,0-3.75,0L2,25.26A2,2,0,0,0,3.92,28h6.94a10,10,0,0,1-.52-2H3.92L12.06,4.12Z"></path><path class="clr-i-outline clr-i-outline-path-2" d="M32,9H22a2,2,0,0,0-2,2v2.85c.23,0,.46,0,.69,0A10.51,10.51,0,0,1,22,13.9V11H32V21H30.65a10.42,10.42,0,0,1,.45,2H32a2,2,0,0,0,2-2V11A2,2,0,0,0,32,9Z"></path><path class="clr-i-outline clr-i-outline-path-3" d="M20.69,15.81a8.5,8.5,0,1,0,8.5,8.5A8.51,8.51,0,0,0,20.69,15.81Zm0,15a6.5,6.5,0,1,1,6.5-6.5A6.51,6.51,0,0,1,20.69,30.81Z"></path>
    <rect x="0" y="0" width="36" height="36" fill-opacity="0"/>
</svg>