<svg version="1.1" width="36" height="36"  viewBox="0 0 36 36" preserveAspectRatio="xMidYMid meet" xmlns="http://www.w3.org/2000/svg" xmlns:xlink="http://www.w3.org/1999/xlink">
    <title>printer-outline-alerted</title>
    <path d="M28,18H8a1,1,0,0,0,0,2H9V32H27V20h1a1,1,0,0,0,0-2ZM25,30H11V20H25Z" class="clr-i-outline--alerted clr-i-outline-path-1--alerted"></path><polygon points="31 15.4 31 22.09 29.08 22.09 29.08 24 33 24 33 15.4 31 15.4" class="clr-i-outline--alerted clr-i-outline-path-2--alerted"></polygon><path d="M5,13a2,2,0,0,1,2-2H18.64A3.65,3.65,0,0,1,19,9.89L19.54,9H11V7h9.71l1.13-2H9V9H7a4,4,0,0,0-4,4V24H6.92V22.09H5Z" class="clr-i-outline--alerted clr-i-outline-path-3--alerted"></path><path d="M26.85,1.14,21.13,11A1.28,1.28,0,0,0,22.23,13H33.68A1.28,1.28,0,0,0,34.78,11L29.06,1.14A1.28,1.28,0,0,0,26.85,1.14Z" class="clr-i-outline--alerted clr-i-outline-path-4--alerted clr-i-alert"></path>
    <rect x="0" y="0" width="36" height="36" fill-opacity="0"/>
</svg>