<svg version="1.1" width="36" height="36"  viewBox="0 0 36 36" preserveAspectRatio="xMidYMid meet" xmlns="http://www.w3.org/2000/svg" xmlns:xlink="http://www.w3.org/1999/xlink">
    <title>resize-line</title>
    <path class="clr-i-outline clr-i-outline-path-1" d="M19,4a1,1,0,0,0,0,2h9.59l-9.25,9.25a1,1,0,1,0,1.41,1.41L30,7.41V17a1,1,0,0,0,2,0V4Z"></path><path class="clr-i-outline clr-i-outline-path-2" d="M4,19a1,1,0,0,1,2,0v9.59l9.25-9.25a1,1,0,1,1,1.41,1.41L7.41,30H17a1,1,0,0,1,0,2H4Z"></path>
    <rect x="0" y="0" width="36" height="36" fill-opacity="0"/>
</svg>