<svg version="1.1" width="36" height="36"  viewBox="0 0 36 36" preserveAspectRatio="xMidYMid meet" xmlns="http://www.w3.org/2000/svg" xmlns:xlink="http://www.w3.org/1999/xlink">
    <title>scissors-solid</title>
    <path class="clr-i-solid clr-i-solid-path-1" d="M33.81,8.13,31.63,6.48a1.92,1.92,0,0,0-2.36,0L10,22.06a5.46,5.46,0,1,0,2,1.81l3.9-3.12L29.27,31.52a1.92,1.92,0,0,0,2.36,0l2.18-1.64L20.94,19ZM7.45,29.75a2.86,2.86,0,1,1,2.86-2.86A2.87,2.87,0,0,1,7.45,29.75Z"></path><path class="clr-i-solid clr-i-solid-path-2" d="M14.3,15.24,12,13.38a5.46,5.46,0,1,0-2,1.81L12.16,17Zm-6.85-2a2.86,2.86,0,1,1,2.86-2.86A2.86,2.86,0,0,1,7.45,13.23Z"></path>
    <rect x="0" y="0" width="36" height="36" fill-opacity="0"/>
</svg>