<svg version="1.1" width="36" height="36"  viewBox="0 0 36 36" preserveAspectRatio="xMidYMid meet" xmlns="http://www.w3.org/2000/svg" xmlns:xlink="http://www.w3.org/1999/xlink">
    <title>tags-outline-alerted</title>
    <circle cx="7.81" cy="11.14" r="1.33" class="clr-i-outline--alerted clr-i-outline-path-1--alerted"></circle><path d="M27.78,19.17,24,15.4H22.23A3.65,3.65,0,0,1,21,15.19l5.33,5.29-9.11,9.21L3.69,16.15V7h9.1l6,5.94a3.68,3.68,0,0,1,.1-2.69L14.2,5.58A1.92,1.92,0,0,0,12.83,5H3.61A1.93,1.93,0,0,0,1.68,6.93v9.22a1.92,1.92,0,0,0,.57,1.36L15.84,31.1a1.93,1.93,0,0,0,2.73,0l9.21-9.21A1.93,1.93,0,0,0,27.78,19.17Z" class="clr-i-outline--alerted clr-i-outline-path-2--alerted"></path><path d="M20.83,6.8,19.58,5.55A1.92,1.92,0,0,0,18.21,5H16.12L19.79,8.6Z" class="clr-i-outline--alerted clr-i-outline-path-3--alerted"></path><path d="M33.16,19.13,29.43,15.4H26.65l5.1,5L21.22,31.07a1.93,1.93,0,0,0,2.73,0l9.21-9.21a1.93,1.93,0,0,0,0-2.73Z" class="clr-i-outline--alerted clr-i-outline-path-4--alerted"></path><path d="M26.85,1.14,21.13,11A1.28,1.28,0,0,0,22.23,13H33.68A1.28,1.28,0,0,0,34.78,11L29.06,1.14A1.28,1.28,0,0,0,26.85,1.14Z" class="clr-i-outline--alerted clr-i-outline-path-5--alerted clr-i-alert"></path>
    <rect x="0" y="0" width="36" height="36" fill-opacity="0"/>
</svg>