<svg version="1.1" width="36" height="36"  viewBox="0 0 36 36" preserveAspectRatio="xMidYMid meet" xmlns="http://www.w3.org/2000/svg" xmlns:xlink="http://www.w3.org/1999/xlink">
    <title>window-restore-line</title>
    <path d="M28,8H14a2,2,0,0,0-2,2v2h2V10H28V20H26v2h2a2,2,0,0,0,2-2V10A2,2,0,0,0,28,8Z" class="clr-i-outline clr-i-outline-path-1"></path><path d="M22,14H8a2,2,0,0,0-2,2V26a2,2,0,0,0,2,2H22a2,2,0,0,0,2-2V16A2,2,0,0,0,22,14ZM8,26V16H22V26Z" class="clr-i-outline clr-i-outline-path-2"></path>
    <rect x="0" y="0" width="36" height="36" fill-opacity="0"/>
</svg>