<?xml version="1.0" encoding="UTF-8" standalone="no"?>
<svg width="367px" height="210px" viewBox="0 0 367 210" version="1.1" xmlns="http://www.w3.org/2000/svg" xmlns:xlink="http://www.w3.org/1999/xlink">
    <!-- Generator: Sketch 41.2 (35397) - http://www.bohemiancoding.com/sketch -->
    <title>Group 12</title>
    <desc>Created with Sketch.</desc>
    <defs>
        <rect id="path-1" x="0" y="0" width="359" height="202" rx="3"></rect>
        <filter x="-50%" y="-50%" width="200%" height="200%" filterUnits="objectBoundingBox" id="filter-2">
            <feMorphology radius="1" operator="dilate" in="SourceAlpha" result="shadowSpreadOuter1"></feMorphology>
            <feOffset dx="0" dy="2" in="shadowSpreadOuter1" result="shadowOffsetOuter1"></feOffset>
            <feGaussianBlur stdDeviation="1" in="shadowOffsetOuter1" result="shadowBlurOuter1"></feGaussianBlur>
            <feColorMatrix values="0 0 0 0 0   0 0 0 0 0   0 0 0 0 0  0 0 0 0.0701992754 0" type="matrix" in="shadowBlurOuter1"></feColorMatrix>
        </filter>
    </defs>
    <g id="Page-1-New-Layout" stroke="none" stroke-width="1" fill="none" fill-rule="evenodd">
        <g id="Jehad's-Version" transform="translate(-729.000000, -1835.000000)">
            <g id="Group-12" transform="translate(733.000000, 1837.000000)">
                <g id="background">
                    <use fill="black" fill-opacity="1" filter="url(#filter-2)" xlink:href="#path-1"></use>
                    <use fill="#FFFFFF" fill-rule="evenodd" xlink:href="#path-1"></use>
                </g>
                <g id="Button/Primary" transform="translate(251.000000, 143.000000)">
                    <rect id="background" fill="#007CBB" x="0" y="0" width="85" height="36" rx="3"></rect>
                    <path d="M36.3878462,22 L38.0438462,22 L34.5998462,13.756 L32.9318462,13.756 L29.4878462,22 L31.1558462,22 L31.7798462,20.512 L35.7638462,20.512 L36.3878462,22 Z M32.3198462,19.216 L33.7718462,15.748 L35.2238462,19.216 L32.3198462,19.216 Z M40.2438462,22 L43.1478462,22 C45.8718462,22 47.7918462,20.284 47.7918462,17.872 C47.7918462,15.46 45.8718462,13.756 43.1478462,13.756 L40.2438462,13.756 L40.2438462,22 Z M41.7438462,20.644 L41.7438462,15.112 L43.3038462,15.112 C45.0438462,15.112 46.2678462,16.252 46.2678462,17.872 C46.2678462,19.492 45.0438462,20.644 43.3038462,20.644 L41.7438462,20.644 Z M50.3758462,22 L53.2798462,22 C56.0038462,22 57.9238462,20.284 57.9238462,17.872 C57.9238462,15.46 56.0038462,13.756 53.2798462,13.756 L50.3758462,13.756 L50.3758462,22 Z M51.8758462,20.644 L51.8758462,15.112 L53.4358462,15.112 C55.1758462,15.112 56.3998462,16.252 56.3998462,17.872 C56.3998462,19.492 55.1758462,20.644 53.4358462,20.644 L51.8758462,20.644 Z" id="ADD" fill="#FFFFFF"></path>
                </g>
                <path d="M27.808,85 L28.886,85 L31.574,76.81 L34.248,85 L35.326,85 L38.616,75.382 L37.384,75.382 L34.724,83.166 L32.176,75.382 L30.958,75.382 L28.41,83.166 L25.75,75.382 L24.518,75.382 L27.808,85 Z M43.558,85.168 C45.588,85.168 47.296,83.432 47.296,81.374 C47.296,79.316 45.588,77.594 43.558,77.594 C41.528,77.594 39.806,79.316 39.806,81.374 C39.806,83.432 41.528,85.168 43.558,85.168 Z M43.558,84.23 C42.116,84.23 40.912,82.928 40.912,81.374 C40.912,79.834 42.116,78.532 43.558,78.532 C44.986,78.532 46.19,79.834 46.19,81.374 C46.19,82.928 44.986,84.23 43.558,84.23 Z M54.128,77.762 L54.128,82.368 C54.128,83.376 53.106,84.23 51.888,84.23 C50.824,84.23 50.082,83.404 50.082,82.228 L50.082,77.762 L49.032,77.762 L49.032,82.368 C49.032,84.006 50.152,85.168 51.748,85.168 C52.77,85.168 53.708,84.608 54.128,83.838 L54.128,85 L55.178,85 L55.178,77.762 L54.128,77.762 Z M57.32,85 L58.37,85 L58.37,75.214 L57.32,75.214 L57.32,85 Z M66.154,75.214 L66.154,79.12 C65.608,78.168 64.684,77.594 63.522,77.594 C61.618,77.594 60.19,79.162 60.19,81.374 C60.19,83.6 61.618,85.168 63.522,85.168 C64.684,85.168 65.608,84.594 66.154,83.642 L66.154,85 L67.204,85 L67.204,75.214 L66.154,75.214 Z M63.718,84.23 C62.304,84.23 61.296,83.04 61.296,81.374 C61.296,79.708 62.304,78.532 63.718,78.532 C65.146,78.532 66.154,79.708 66.154,81.374 C66.154,83.04 65.146,84.23 63.718,84.23 Z M74.568,87.52 C75.562,87.506 76.262,87.044 76.766,85.812 L80.07,77.762 L78.936,77.762 L76.542,83.782 L74.008,77.762 L72.846,77.762 L75.996,85.028 L75.576,85.924 C75.296,86.414 74.988,86.568 74.526,86.568 C74.218,86.568 73.924,86.512 73.672,86.386 L73.42,87.282 C73.756,87.436 74.148,87.52 74.568,87.52 Z M85.152,85.168 C87.182,85.168 88.89,83.432 88.89,81.374 C88.89,79.316 87.182,77.594 85.152,77.594 C83.122,77.594 81.4,79.316 81.4,81.374 C81.4,83.432 83.122,85.168 85.152,85.168 Z M85.152,84.23 C83.71,84.23 82.506,82.928 82.506,81.374 C82.506,79.834 83.71,78.532 85.152,78.532 C86.58,78.532 87.784,79.834 87.784,81.374 C87.784,82.928 86.58,84.23 85.152,84.23 Z M95.722,77.762 L95.722,82.368 C95.722,83.376 94.7,84.23 93.482,84.23 C92.418,84.23 91.676,83.404 91.676,82.228 L91.676,77.762 L90.626,77.762 L90.626,82.368 C90.626,84.006 91.746,85.168 93.342,85.168 C94.364,85.168 95.302,84.608 95.722,83.838 L95.722,85 L96.772,85 L96.772,77.762 L95.722,77.762 Z M102.974,85 L104.024,85 L104.024,75.214 L102.974,75.214 L102.974,85 Z M106.67,76.446 C107.048,76.446 107.356,76.124 107.356,75.746 C107.356,75.382 107.048,75.06 106.67,75.06 C106.278,75.06 105.97,75.382 105.97,75.746 C105.97,76.124 106.278,76.446 106.67,76.446 Z M106.138,85 L107.188,85 L107.188,77.762 L106.138,77.762 L106.138,85 Z M115.644,77.762 L114.3,77.762 L110.338,81.766 L110.338,75.214 L109.288,75.214 L109.288,85 L110.338,85 L110.338,83.082 L111.64,81.794 L114.146,85 L115.462,85 L112.382,81.08 L115.644,77.762 Z M120.166,84.23 C118.738,84.23 117.744,83.194 117.59,81.78 L123.512,81.78 C123.512,79.246 122.266,77.594 120.082,77.594 C118.136,77.594 116.512,79.204 116.512,81.36 C116.512,83.586 118.248,85.168 120.18,85.168 C121.188,85.168 122.462,84.734 123.092,84.048 L122.448,83.362 C122,83.852 121.02,84.23 120.166,84.23 Z M120.124,78.532 C121.566,78.532 122.336,79.54 122.476,80.842 L117.604,80.842 C117.8,79.442 118.836,78.532 120.124,78.532 Z M132.472,83.936 C132.318,84.104 132.038,84.23 131.716,84.23 C131.296,84.23 130.932,83.852 130.932,83.32 L130.932,78.7 L132.71,78.7 L132.71,77.762 L130.932,77.762 L130.932,75.774 L129.882,75.774 L129.882,77.762 L128.748,77.762 L128.748,78.7 L129.882,78.7 L129.882,83.32 C129.882,84.398 130.61,85.168 131.646,85.168 C132.136,85.168 132.612,85 132.99,84.706 L132.472,83.936 Z M137.834,85.168 C139.864,85.168 141.572,83.432 141.572,81.374 C141.572,79.316 139.864,77.594 137.834,77.594 C135.804,77.594 134.082,79.316 134.082,81.374 C134.082,83.432 135.804,85.168 137.834,85.168 Z M137.834,84.23 C136.392,84.23 135.188,82.928 135.188,81.374 C135.188,79.834 136.392,78.532 137.834,78.532 C139.262,78.532 140.466,79.834 140.466,81.374 C140.466,82.928 139.262,84.23 137.834,84.23 Z M150.308,77.594 C149.608,77.594 148.74,77.776 147.704,78.294 L148.124,79.148 C148.782,78.812 149.51,78.49 150.238,78.49 C151.806,78.49 152.198,79.61 152.198,80.59 L152.198,80.856 C151.456,80.618 150.63,80.45 149.846,80.45 C148.292,80.45 147.004,81.416 147.004,82.858 C147.004,84.286 148.124,85.168 149.65,85.168 C150.602,85.168 151.68,84.72 152.198,83.866 L152.198,85 L153.248,85 L153.248,80.59 C153.248,78.84 152.282,77.594 150.308,77.594 Z M149.832,84.244 C148.81,84.244 148.026,83.712 148.026,82.816 C148.026,81.948 148.936,81.332 150.014,81.332 C150.798,81.332 151.54,81.444 152.198,81.626 L152.198,82.732 C151.918,83.754 150.784,84.244 149.832,84.244 Z M161.046,75.214 L161.046,79.12 C160.5,78.168 159.576,77.594 158.414,77.594 C156.51,77.594 155.082,79.162 155.082,81.374 C155.082,83.6 156.51,85.168 158.414,85.168 C159.576,85.168 160.5,84.594 161.046,83.642 L161.046,85 L162.096,85 L162.096,75.214 L161.046,75.214 Z M158.61,84.23 C157.196,84.23 156.188,83.04 156.188,81.374 C156.188,79.708 157.196,78.532 158.61,78.532 C160.038,78.532 161.046,79.708 161.046,81.374 C161.046,83.04 160.038,84.23 158.61,84.23 Z M169.978,75.214 L169.978,79.12 C169.432,78.168 168.508,77.594 167.346,77.594 C165.442,77.594 164.014,79.162 164.014,81.374 C164.014,83.6 165.442,85.168 167.346,85.168 C168.508,85.168 169.432,84.594 169.978,83.642 L169.978,85 L171.028,85 L171.028,75.214 L169.978,75.214 Z M167.542,84.23 C166.128,84.23 165.12,83.04 165.12,81.374 C165.12,79.708 166.128,78.532 167.542,78.532 C168.97,78.532 169.978,79.708 169.978,81.374 C169.978,83.04 168.97,84.23 167.542,84.23 Z M180.492,83.936 C180.338,84.104 180.058,84.23 179.736,84.23 C179.316,84.23 178.952,83.852 178.952,83.32 L178.952,78.7 L180.73,78.7 L180.73,77.762 L178.952,77.762 L178.952,75.774 L177.902,75.774 L177.902,77.762 L176.768,77.762 L176.768,78.7 L177.902,78.7 L177.902,83.32 C177.902,84.398 178.63,85.168 179.666,85.168 C180.156,85.168 180.632,85 181.01,84.706 L180.492,83.936 Z M185.938,77.594 C184.916,77.594 183.978,78.154 183.558,78.924 L183.558,75.214 L182.508,75.214 L182.508,85 L183.558,85 L183.558,80.394 C183.558,79.386 184.58,78.532 185.798,78.532 C186.862,78.532 187.604,79.358 187.604,80.534 L187.604,85 L188.654,85 L188.654,80.394 C188.654,78.756 187.534,77.594 185.938,77.594 Z M194.044,84.23 C192.616,84.23 191.622,83.194 191.468,81.78 L197.39,81.78 C197.39,79.246 196.144,77.594 193.96,77.594 C192.014,77.594 190.39,79.204 190.39,81.36 C190.39,83.586 192.126,85.168 194.058,85.168 C195.066,85.168 196.34,84.734 196.97,84.048 L196.326,83.362 C195.878,83.852 194.898,84.23 194.044,84.23 Z M194.002,78.532 C195.444,78.532 196.214,79.54 196.354,80.842 L191.482,80.842 C191.678,79.442 192.714,78.532 194.002,78.532 Z M206.35,83.936 C206.196,84.104 205.916,84.23 205.594,84.23 C205.174,84.23 204.81,83.852 204.81,83.32 L204.81,78.7 L206.588,78.7 L206.588,77.762 L204.81,77.762 L204.81,75.774 L203.76,75.774 L203.76,77.762 L202.626,77.762 L202.626,78.7 L203.76,78.7 L203.76,83.32 C203.76,84.398 204.488,85.168 205.524,85.168 C206.014,85.168 206.49,85 206.868,84.706 L206.35,83.936 Z M211.292,77.594 C210.592,77.594 209.724,77.776 208.688,78.294 L209.108,79.148 C209.766,78.812 210.494,78.49 211.222,78.49 C212.79,78.49 213.182,79.61 213.182,80.59 L213.182,80.856 C212.44,80.618 211.614,80.45 210.83,80.45 C209.276,80.45 207.988,81.416 207.988,82.858 C207.988,84.286 209.108,85.168 210.634,85.168 C211.586,85.168 212.664,84.72 213.182,83.866 L213.182,85 L214.232,85 L214.232,80.59 C214.232,78.84 213.266,77.594 211.292,77.594 Z M210.816,84.244 C209.794,84.244 209.01,83.712 209.01,82.816 C209.01,81.948 209.92,81.332 210.998,81.332 C211.782,81.332 212.524,81.444 213.182,81.626 L213.182,82.732 C212.902,83.754 211.768,84.244 210.816,84.244 Z M222.002,77.762 L222.002,79.008 C221.442,78.126 220.518,77.594 219.37,77.594 C217.424,77.594 216.038,79.008 216.038,81.024 C216.038,83.04 217.424,84.468 219.37,84.468 C220.518,84.468 221.442,83.936 222.002,83.054 L222.002,84.23 C222.002,85.644 221.022,86.47 219.356,86.47 C218.46,86.47 217.592,86.148 217.032,85.616 L216.57,86.442 C217.228,87.002 218.32,87.408 219.496,87.408 C221.582,87.408 223.052,86.092 223.052,84.23 L223.052,77.762 L222.002,77.762 Z M219.566,83.53 C218.152,83.53 217.144,82.494 217.144,81.024 C217.144,79.568 218.152,78.532 219.566,78.532 C220.994,78.532 222.002,79.568 222.002,81.024 C222.002,82.494 220.994,83.53 219.566,83.53 Z M230.346,75.578 C229.506,76.628 229.268,77.104 229.268,77.664 C229.268,78.308 229.59,78.784 230.122,78.784 C230.57,78.784 230.892,78.434 230.892,78.042 C230.892,77.622 230.556,77.272 230.136,77.272 C230.248,76.838 230.486,76.404 230.864,75.97 L230.346,75.578 Z M233.146,75.578 C232.306,76.628 232.068,77.104 232.068,77.664 C232.068,78.308 232.39,78.784 232.922,78.784 C233.37,78.784 233.692,78.434 233.692,78.042 C233.692,77.622 233.356,77.272 232.936,77.272 C233.048,76.838 233.286,76.404 233.664,75.97 L233.146,75.578 Z M235.876,85 L236.968,85 L236.968,81.542 L239.782,81.542 C241.77,81.542 243.324,80.268 243.324,78.462 C243.324,76.656 241.77,75.382 239.782,75.382 L235.876,75.382 L235.876,85 Z M236.968,80.506 L236.968,76.418 L239.586,76.418 C241.154,76.418 242.218,77.174 242.218,78.462 C242.218,79.75 241.154,80.506 239.586,80.506 L236.968,80.506 Z M245.998,79.176 L245.998,77.762 L244.948,77.762 L244.948,85 L245.998,85 L245.998,80.954 C245.998,79.54 247.16,78.532 248.798,78.532 L248.798,77.594 C247.468,77.594 246.432,78.21 245.998,79.176 Z M253.614,85.168 C255.644,85.168 257.352,83.432 257.352,81.374 C257.352,79.316 255.644,77.594 253.614,77.594 C251.584,77.594 249.862,79.316 249.862,81.374 C249.862,83.432 251.584,85.168 253.614,85.168 Z M253.614,84.23 C252.172,84.23 250.968,82.928 250.968,81.374 C250.968,79.834 252.172,78.532 253.614,78.532 C255.042,78.532 256.246,79.834 256.246,81.374 C256.246,82.928 255.042,84.23 253.614,84.23 Z M264.744,75.214 L264.744,79.12 C264.198,78.168 263.274,77.594 262.112,77.594 C260.208,77.594 258.78,79.162 258.78,81.374 C258.78,83.6 260.208,85.168 262.112,85.168 C263.274,85.168 264.198,84.594 264.744,83.642 L264.744,85 L265.794,85 L265.794,75.214 L264.744,75.214 Z M262.308,84.23 C260.894,84.23 259.886,83.04 259.886,81.374 C259.886,79.708 260.894,78.532 262.308,78.532 C263.736,78.532 264.744,79.708 264.744,81.374 C264.744,83.04 263.736,84.23 262.308,84.23 Z M273.116,77.762 L273.116,82.368 C273.116,83.376 272.094,84.23 270.876,84.23 C269.812,84.23 269.07,83.404 269.07,82.228 L269.07,77.762 L268.02,77.762 L268.02,82.368 C268.02,84.006 269.14,85.168 270.736,85.168 C271.758,85.168 272.696,84.608 273.116,83.838 L273.116,85 L274.166,85 L274.166,77.762 L273.116,77.762 Z M279.668,85.168 C280.676,85.168 281.6,84.748 282.286,84.062 L281.558,83.348 C281.068,83.894 280.396,84.23 279.668,84.23 C278.226,84.23 277.022,82.928 277.022,81.374 C277.022,79.834 278.226,78.532 279.668,78.532 C280.382,78.532 281.04,78.854 281.516,79.372 L282.244,78.658 C281.558,78 280.648,77.594 279.668,77.594 C277.638,77.594 275.916,79.316 275.916,81.374 C275.916,83.432 277.638,85.168 279.668,85.168 Z M287.074,83.936 C286.92,84.104 286.64,84.23 286.318,84.23 C285.898,84.23 285.534,83.852 285.534,83.32 L285.534,78.7 L287.312,78.7 L287.312,77.762 L285.534,77.762 L285.534,75.774 L284.484,75.774 L284.484,77.762 L283.35,77.762 L283.35,78.7 L284.484,78.7 L284.484,83.32 C284.484,84.398 285.212,85.168 286.248,85.168 C286.738,85.168 287.214,85 287.592,84.706 L287.074,83.936 Z M289.594,76.446 C289.972,76.446 290.28,76.124 290.28,75.746 C290.28,75.382 289.972,75.06 289.594,75.06 C289.202,75.06 288.894,75.382 288.894,75.746 C288.894,76.124 289.202,76.446 289.594,76.446 Z M289.062,85 L290.112,85 L290.112,77.762 L289.062,77.762 L289.062,85 Z M295.586,85.168 C297.616,85.168 299.324,83.432 299.324,81.374 C299.324,79.316 297.616,77.594 295.586,77.594 C293.556,77.594 291.834,79.316 291.834,81.374 C291.834,83.432 293.556,85.168 295.586,85.168 Z M295.586,84.23 C294.144,84.23 292.94,82.928 292.94,81.374 C292.94,79.834 294.144,78.532 295.586,78.532 C297.014,78.532 298.218,79.834 298.218,81.374 C298.218,82.928 297.014,84.23 295.586,84.23 Z M304.504,77.594 C303.482,77.594 302.544,78.154 302.124,78.924 L302.124,77.762 L301.074,77.762 L301.074,85 L302.124,85 L302.124,80.394 C302.124,79.386 303.146,78.532 304.364,78.532 C305.428,78.532 306.17,79.358 306.17,80.534 L306.17,85 L307.22,85 L307.22,80.394 C307.22,78.756 306.1,77.594 304.504,77.594 Z M309.908,78.756 C310.748,77.706 310.986,77.23 310.986,76.67 C310.986,76.026 310.664,75.55 310.132,75.55 C309.684,75.55 309.362,75.9 309.362,76.292 C309.362,76.712 309.698,77.062 310.118,77.062 C310.006,77.496 309.768,77.93 309.39,78.364 L309.908,78.756 Z M312.708,78.756 C313.548,77.706 313.786,77.23 313.786,76.67 C313.786,76.026 313.464,75.55 312.932,75.55 C312.484,75.55 312.162,75.9 312.162,76.292 C312.162,76.712 312.498,77.062 312.918,77.062 C312.806,77.496 312.568,77.93 312.19,78.364 L312.708,78.756 Z M323.082,83.936 C322.928,84.104 322.648,84.23 322.326,84.23 C321.906,84.23 321.542,83.852 321.542,83.32 L321.542,78.7 L323.32,78.7 L323.32,77.762 L321.542,77.762 L321.542,75.774 L320.492,75.774 L320.492,77.762 L319.358,77.762 L319.358,78.7 L320.492,78.7 L320.492,83.32 C320.492,84.398 321.22,85.168 322.256,85.168 C322.746,85.168 323.222,85 323.6,84.706 L323.082,83.936 Z M328.444,85.168 C330.474,85.168 332.182,83.432 332.182,81.374 C332.182,79.316 330.474,77.594 328.444,77.594 C326.414,77.594 324.692,79.316 324.692,81.374 C324.692,83.432 326.414,85.168 328.444,85.168 Z M328.444,84.23 C327.002,84.23 325.798,82.928 325.798,81.374 C325.798,79.834 327.002,78.532 328.444,78.532 C329.872,78.532 331.076,79.834 331.076,81.374 C331.076,82.928 329.872,84.23 328.444,84.23 Z M28.242,107.936 C28.088,108.104 27.808,108.23 27.486,108.23 C27.066,108.23 26.702,107.852 26.702,107.32 L26.702,102.7 L28.48,102.7 L28.48,101.762 L26.702,101.762 L26.702,99.774 L25.652,99.774 L25.652,101.762 L24.518,101.762 L24.518,102.7 L25.652,102.7 L25.652,107.32 C25.652,108.398 26.38,109.168 27.416,109.168 C27.906,109.168 28.382,109 28.76,108.706 L28.242,107.936 Z M33.688,101.594 C32.666,101.594 31.728,102.154 31.308,102.924 L31.308,99.214 L30.258,99.214 L30.258,109 L31.308,109 L31.308,104.394 C31.308,103.386 32.33,102.532 33.548,102.532 C34.612,102.532 35.354,103.358 35.354,104.534 L35.354,109 L36.404,109 L36.404,104.394 C36.404,102.756 35.284,101.594 33.688,101.594 Z M41.794,108.23 C40.366,108.23 39.372,107.194 39.218,105.78 L45.14,105.78 C45.14,103.246 43.894,101.594 41.71,101.594 C39.764,101.594 38.14,103.204 38.14,105.36 C38.14,107.586 39.876,109.168 41.808,109.168 C42.816,109.168 44.09,108.734 44.72,108.048 L44.076,107.362 C43.628,107.852 42.648,108.23 41.794,108.23 Z M41.752,102.532 C43.194,102.532 43.964,103.54 44.104,104.842 L39.232,104.842 C39.428,103.442 40.464,102.532 41.752,102.532 Z M53.316,109 L54.324,109 L57.362,101.762 L56.186,101.762 L53.82,107.768 L51.412,101.762 L50.236,101.762 L53.316,109 Z M59.322,100.446 C59.7,100.446 60.008,100.124 60.008,99.746 C60.008,99.382 59.7,99.06 59.322,99.06 C58.93,99.06 58.622,99.382 58.622,99.746 C58.622,100.124 58.93,100.446 59.322,100.446 Z M58.79,109 L59.84,109 L59.84,101.762 L58.79,101.762 L58.79,109 Z M63.102,103.176 L63.102,101.762 L62.052,101.762 L62.052,109 L63.102,109 L63.102,104.954 C63.102,103.54 64.264,102.532 65.902,102.532 L65.902,101.594 C64.572,101.594 63.536,102.21 63.102,103.176 Z M70.536,107.936 C70.382,108.104 70.102,108.23 69.78,108.23 C69.36,108.23 68.996,107.852 68.996,107.32 L68.996,102.7 L70.774,102.7 L70.774,101.762 L68.996,101.762 L68.996,99.774 L67.946,99.774 L67.946,101.762 L66.812,101.762 L66.812,102.7 L67.946,102.7 L67.946,107.32 C67.946,108.398 68.674,109.168 69.71,109.168 C70.2,109.168 70.676,109 71.054,108.706 L70.536,107.936 Z M77.634,101.762 L77.634,106.368 C77.634,107.376 76.612,108.23 75.394,108.23 C74.33,108.23 73.588,107.404 73.588,106.228 L73.588,101.762 L72.538,101.762 L72.538,106.368 C72.538,108.006 73.658,109.168 75.254,109.168 C76.276,109.168 77.214,108.608 77.634,107.838 L77.634,109 L78.684,109 L78.684,101.762 L77.634,101.762 Z M83.766,101.594 C83.066,101.594 82.198,101.776 81.162,102.294 L81.582,103.148 C82.24,102.812 82.968,102.49 83.696,102.49 C85.264,102.49 85.656,103.61 85.656,104.59 L85.656,104.856 C84.914,104.618 84.088,104.45 83.304,104.45 C81.75,104.45 80.462,105.416 80.462,106.858 C80.462,108.286 81.582,109.168 83.108,109.168 C84.06,109.168 85.138,108.72 85.656,107.866 L85.656,109 L86.706,109 L86.706,104.59 C86.706,102.84 85.74,101.594 83.766,101.594 Z M83.29,108.244 C82.268,108.244 81.484,107.712 81.484,106.816 C81.484,105.948 82.394,105.332 83.472,105.332 C84.256,105.332 84.998,105.444 85.656,105.626 L85.656,106.732 C85.376,107.754 84.242,108.244 83.29,108.244 Z M88.848,109 L89.898,109 L89.898,99.214 L88.848,99.214 L88.848,109 Z M103.912,101.594 C102.82,101.594 101.868,102.196 101.574,103.134 C101.182,102.196 100.328,101.594 99.236,101.594 C98.284,101.594 97.5,102.07 97.136,102.826 L97.136,101.762 L96.086,101.762 L96.086,109 L97.136,109 L97.136,104.394 C97.136,103.302 97.948,102.532 99.096,102.532 C100.076,102.532 100.762,103.358 100.762,104.534 L100.762,109 L101.812,109 L101.812,104.394 C101.812,103.302 102.624,102.532 103.772,102.532 C104.752,102.532 105.438,103.358 105.438,104.534 L105.438,109 L106.488,109 L106.488,104.394 C106.488,102.756 105.424,101.594 103.912,101.594 Z M111.556,101.594 C110.856,101.594 109.988,101.776 108.952,102.294 L109.372,103.148 C110.03,102.812 110.758,102.49 111.486,102.49 C113.054,102.49 113.446,103.61 113.446,104.59 L113.446,104.856 C112.704,104.618 111.878,104.45 111.094,104.45 C109.54,104.45 108.252,105.416 108.252,106.858 C108.252,108.286 109.372,109.168 110.898,109.168 C111.85,109.168 112.928,108.72 113.446,107.866 L113.446,109 L114.496,109 L114.496,104.59 C114.496,102.84 113.53,101.594 111.556,101.594 Z M111.08,108.244 C110.058,108.244 109.274,107.712 109.274,106.816 C109.274,105.948 110.184,105.332 111.262,105.332 C112.046,105.332 112.788,105.444 113.446,105.626 L113.446,106.732 C113.166,107.754 112.032,108.244 111.08,108.244 Z M119.998,109.168 C121.006,109.168 121.93,108.748 122.616,108.062 L121.888,107.348 C121.398,107.894 120.726,108.23 119.998,108.23 C118.556,108.23 117.352,106.928 117.352,105.374 C117.352,103.834 118.556,102.532 119.998,102.532 C120.712,102.532 121.37,102.854 121.846,103.372 L122.574,102.658 C121.888,102 120.978,101.594 119.998,101.594 C117.968,101.594 116.246,103.316 116.246,105.374 C116.246,107.432 117.968,109.168 119.998,109.168 Z M127.67,101.594 C126.648,101.594 125.71,102.154 125.29,102.924 L125.29,99.214 L124.24,99.214 L124.24,109 L125.29,109 L125.29,104.394 C125.29,103.386 126.312,102.532 127.53,102.532 C128.594,102.532 129.336,103.358 129.336,104.534 L129.336,109 L130.386,109 L130.386,104.394 C130.386,102.756 129.266,101.594 127.67,101.594 Z M133.032,100.446 C133.41,100.446 133.718,100.124 133.718,99.746 C133.718,99.382 133.41,99.06 133.032,99.06 C132.64,99.06 132.332,99.382 132.332,99.746 C132.332,100.124 132.64,100.446 133.032,100.446 Z M132.5,109 L133.55,109 L133.55,101.762 L132.5,101.762 L132.5,109 Z M139.108,101.594 C138.086,101.594 137.148,102.154 136.728,102.924 L136.728,101.762 L135.678,101.762 L135.678,109 L136.728,109 L136.728,104.394 C136.728,103.386 137.75,102.532 138.968,102.532 C140.032,102.532 140.774,103.358 140.774,104.534 L140.774,109 L141.824,109 L141.824,104.394 C141.824,102.756 140.704,101.594 139.108,101.594 Z M147.214,108.23 C145.786,108.23 144.792,107.194 144.638,105.78 L150.56,105.78 C150.56,103.246 149.314,101.594 147.13,101.594 C145.184,101.594 143.56,103.204 143.56,105.36 C143.56,107.586 145.296,109.168 147.228,109.168 C148.236,109.168 149.51,108.734 150.14,108.048 L149.496,107.362 C149.048,107.852 148.068,108.23 147.214,108.23 Z M147.172,102.532 C148.614,102.532 149.384,103.54 149.524,104.842 L144.652,104.842 C144.848,103.442 145.884,102.532 147.172,102.532 Z M157.35,99.578 C156.51,100.628 156.272,101.104 156.272,101.664 C156.272,102.308 156.594,102.784 157.126,102.784 C157.574,102.784 157.896,102.434 157.896,102.042 C157.896,101.622 157.56,101.272 157.14,101.272 C157.252,100.838 157.49,100.404 157.868,99.97 L157.35,99.578 Z M160.15,99.578 C159.31,100.628 159.072,101.104 159.072,101.664 C159.072,102.308 159.394,102.784 159.926,102.784 C160.374,102.784 160.696,102.434 160.696,102.042 C160.696,101.622 160.36,101.272 159.94,101.272 C160.052,100.838 160.29,100.404 160.668,99.97 L160.15,99.578 Z M162.88,109 L163.972,109 L163.972,105.542 L166.786,105.542 C168.774,105.542 170.328,104.268 170.328,102.462 C170.328,100.656 168.774,99.382 166.786,99.382 L162.88,99.382 L162.88,109 Z M163.972,104.506 L163.972,100.418 L166.59,100.418 C168.158,100.418 169.222,101.174 169.222,102.462 C169.222,103.75 168.158,104.506 166.59,104.506 L163.972,104.506 Z M174.794,101.594 C174.094,101.594 173.226,101.776 172.19,102.294 L172.61,103.148 C173.268,102.812 173.996,102.49 174.724,102.49 C176.292,102.49 176.684,103.61 176.684,104.59 L176.684,104.856 C175.942,104.618 175.116,104.45 174.332,104.45 C172.778,104.45 171.49,105.416 171.49,106.858 C171.49,108.286 172.61,109.168 174.136,109.168 C175.088,109.168 176.166,108.72 176.684,107.866 L176.684,109 L177.734,109 L177.734,104.59 C177.734,102.84 176.768,101.594 174.794,101.594 Z M174.318,108.244 C173.296,108.244 172.512,107.712 172.512,106.816 C172.512,105.948 173.422,105.332 174.5,105.332 C175.284,105.332 176.026,105.444 176.684,105.626 L176.684,106.732 C176.404,107.754 175.27,108.244 174.318,108.244 Z M179.876,109 L180.926,109 L180.926,99.214 L179.876,99.214 L179.876,109 Z M186.414,109.168 C188.444,109.168 190.152,107.432 190.152,105.374 C190.152,103.316 188.444,101.594 186.414,101.594 C184.384,101.594 182.662,103.316 182.662,105.374 C182.662,107.432 184.384,109.168 186.414,109.168 Z M186.414,108.23 C184.972,108.23 183.768,106.928 183.768,105.374 C183.768,103.834 184.972,102.532 186.414,102.532 C187.842,102.532 189.046,103.834 189.046,105.374 C189.046,106.928 187.842,108.23 186.414,108.23 Z M203.816,109 L205.006,109 L200.764,99.382 L199.574,99.382 L195.332,109 L196.522,109 L197.488,106.816 L202.85,106.816 L203.816,109 Z M197.936,105.78 L200.176,100.726 L202.402,105.78 L197.936,105.78 Z M206.518,109 L207.568,109 L207.568,99.214 L206.518,99.214 L206.518,109 Z M212.874,107.936 C212.72,108.104 212.44,108.23 212.118,108.23 C211.698,108.23 211.334,107.852 211.334,107.32 L211.334,102.7 L213.112,102.7 L213.112,101.762 L211.334,101.762 L211.334,99.774 L210.284,99.774 L210.284,101.762 L209.15,101.762 L209.15,102.7 L210.284,102.7 L210.284,107.32 C210.284,108.398 211.012,109.168 212.048,109.168 C212.538,109.168 213.014,109 213.392,108.706 L212.874,107.936 Z M218.236,109.168 C220.266,109.168 221.974,107.432 221.974,105.374 C221.974,103.316 220.266,101.594 218.236,101.594 C216.206,101.594 214.484,103.316 214.484,105.374 C214.484,107.432 216.206,109.168 218.236,109.168 Z M218.236,108.23 C216.794,108.23 215.59,106.928 215.59,105.374 C215.59,103.834 216.794,102.532 218.236,102.532 C219.664,102.532 220.868,103.834 220.868,105.374 C220.868,106.928 219.664,108.23 218.236,108.23 Z M224.27,102.756 C225.11,101.706 225.348,101.23 225.348,100.67 C225.348,100.026 225.026,99.55 224.494,99.55 C224.046,99.55 223.724,99.9 223.724,100.292 C223.724,100.712 224.06,101.062 224.48,101.062 C224.368,101.496 224.13,101.93 223.752,102.364 L224.27,102.756 Z M227.07,102.756 C227.91,101.706 228.148,101.23 228.148,100.67 C228.148,100.026 227.826,99.55 227.294,99.55 C226.846,99.55 226.524,99.9 226.524,100.292 C226.524,100.712 226.86,101.062 227.28,101.062 C227.168,101.496 226.93,101.93 226.552,102.364 L227.07,102.756 Z M231.718,106.298 L232.824,106.298 L232.824,104.506 C234.462,104.156 235.624,103.022 235.624,101.776 C235.624,100.348 234.462,99.214 232.684,99.214 C231.27,99.214 230.262,99.9 229.52,100.824 L230.234,101.538 C230.85,100.782 231.578,100.208 232.628,100.208 C233.804,100.208 234.518,101.02 234.518,101.874 C234.518,102.784 233.356,103.54 231.718,103.68 L231.718,106.298 Z M232.278,109.168 C232.684,109.168 233.02,108.818 233.02,108.398 C233.02,108.006 232.684,107.656 232.278,107.656 C231.844,107.656 231.508,108.006 231.508,108.398 C231.508,108.818 231.844,109.168 232.278,109.168 Z" id="Would-you-like-to-ad" fill="#565656"></path>
                <g id="Icon/Dismiss-modal" transform="translate(321.000000, 24.000000)" fill="#9A9A9A">
                    <path d="M9.17564397,8.00325903 L15.8076322,1.37127084 C16.0794531,1.05386318 16.0611775,0.58071691 15.7656828,0.285222197 C15.4701881,-0.0102725164 14.9970418,-0.0285481049 14.6796342,0.243272848 L8.04764598,6.87526104 L1.41565779,0.235272862 C1.10196061,-0.0784242961 0.593357007,-0.0784242861 0.279659836,0.235272884 C-0.0340373344,0.548970055 -0.0340373444,1.05757366 0.279659814,1.37127084 L6.91964799,8.00325903 L0.279659814,14.6352472 C0.0513592926,14.8307588 -0.048085158,15.137741 0.0222121643,15.429981 C0.0925094865,15.7222209 0.320684101,15.9503955 0.612924042,16.0206929 C0.905163984,16.0909902 1.21214625,15.9915457 1.40765781,15.7632452 L8.04764598,9.13125702 L14.6796342,15.7632452 C14.9970418,16.0350662 15.4701881,16.0167906 15.7656828,15.7212959 C16.0611775,15.4258012 16.0794531,14.9526549 15.8076322,14.6352472 L9.17564397,8.00325903 Z" id="Shape"></path>
                </g>
                <path d="M32.888,42.264 C34.978,42.264 36.914,41.362 38.322,39.954 L37.354,38.964 C36.21,40.174 34.604,40.944 32.888,40.944 C29.456,40.944 26.574,37.974 26.574,34.432 C26.574,30.912 29.456,27.942 32.888,27.942 C34.604,27.942 36.21,28.712 37.354,29.9 L38.322,28.932 C36.914,27.502 34.978,26.622 32.888,26.622 C28.708,26.622 25.144,30.186 25.144,34.432 C25.144,38.678 28.708,42.264 32.888,42.264 Z M45.912,42.264 C49.102,42.264 51.786,39.536 51.786,36.302 C51.786,33.068 49.102,30.362 45.912,30.362 C42.722,30.362 40.016,33.068 40.016,36.302 C40.016,39.536 42.722,42.264 45.912,42.264 Z M45.912,41.01 C43.47,41.01 41.446,38.876 41.446,36.302 C41.446,33.75 43.47,31.616 45.912,31.616 C48.332,31.616 50.356,33.75 50.356,36.302 C50.356,38.876 48.332,41.01 45.912,41.01 Z M59.64,30.362 C57.968,30.362 56.516,31.242 55.9,32.496 L55.9,30.626 L54.536,30.626 L54.536,42 L55.9,42 L55.9,34.762 C55.9,33.002 57.462,31.616 59.464,31.616 C61.268,31.616 62.544,32.958 62.544,34.872 L62.544,42 L63.908,42 L63.908,34.696 C63.908,32.166 62.148,30.362 59.64,30.362 Z M69.606,29.064 C69.606,28.096 70.222,27.414 70.97,27.414 C71.52,27.414 71.982,27.59 72.29,27.898 L72.994,26.886 C72.378,26.424 71.652,26.16 70.882,26.16 C69.342,26.16 68.242,27.37 68.242,29.064 L68.242,30.626 L66.394,30.626 L66.394,31.88 L68.242,31.88 L68.242,42 L69.606,42 L69.606,31.88 L72.532,31.88 L72.532,30.626 L69.606,30.626 L69.606,29.064 Z M75.568,28.404 C76.096,28.404 76.514,27.986 76.514,27.458 C76.514,26.952 76.096,26.512 75.568,26.512 C75.04,26.512 74.622,26.952 74.622,27.458 C74.622,27.986 75.04,28.404 75.568,28.404 Z M74.886,42 L76.25,42 L76.25,30.626 L74.886,30.626 L74.886,42 Z M81.09,32.958 L81.09,30.626 L79.726,30.626 L79.726,42 L81.09,42 L81.09,35.642 C81.09,33.288 82.916,31.616 85.49,31.616 L85.49,30.362 C83.4,30.362 81.728,31.418 81.09,32.958 Z M99.878,30.362 C98.118,30.362 96.622,31.33 96.138,32.826 C95.544,31.33 94.224,30.362 92.508,30.362 C90.946,30.362 89.692,31.11 89.142,32.298 L89.142,30.626 L87.778,30.626 L87.778,42 L89.142,42 L89.142,34.696 C89.142,32.892 90.462,31.616 92.332,31.616 C93.982,31.616 95.126,32.958 95.126,34.872 L95.126,42 L96.49,42 L96.49,34.696 C96.49,32.892 97.81,31.616 99.68,31.616 C101.33,31.616 102.496,32.958 102.496,34.872 L102.496,42 L103.86,42 L103.86,34.696 C103.86,32.166 102.21,30.362 99.878,30.362 Z M118.138,30.362 C117.016,30.362 115.608,30.67 114.112,31.462 L114.662,32.584 C115.696,32.012 116.884,31.572 118.028,31.572 C120.58,31.572 121.328,33.398 121.328,35.07 L121.328,35.532 C120.118,35.136 118.754,34.85 117.522,34.85 C114.97,34.85 113.012,36.39 113.012,38.634 C113.012,40.834 114.772,42.264 117.148,42.264 C118.688,42.264 120.492,41.538 121.328,40.196 L121.328,42 L122.692,42 L122.692,35.07 C122.692,32.32 121.13,30.362 118.138,30.362 Z M117.368,41.032 C115.674,41.032 114.354,40.086 114.354,38.568 C114.354,37.094 115.828,36.038 117.72,36.038 C118.996,36.038 120.25,36.28 121.328,36.61 L121.328,38.436 C120.888,40.196 118.952,41.032 117.368,41.032 Z M135.012,26.622 L135.012,32.848 C134.132,31.308 132.636,30.362 130.766,30.362 C127.84,30.362 125.574,32.914 125.574,36.302 C125.574,39.712 127.84,42.264 130.766,42.264 C132.636,42.264 134.132,41.318 135.012,39.778 L135.012,42 L136.376,42 L136.376,26.622 L135.012,26.622 Z M131.008,41.01 C128.72,41.01 126.982,38.986 126.982,36.302 C126.982,33.618 128.72,31.616 131.008,31.616 C133.362,31.616 135.012,33.552 135.012,36.302 C135.012,39.052 133.362,41.01 131.008,41.01 Z M148.828,26.622 L148.828,32.848 C147.948,31.308 146.452,30.362 144.582,30.362 C141.656,30.362 139.39,32.914 139.39,36.302 C139.39,39.712 141.656,42.264 144.582,42.264 C146.452,42.264 147.948,41.318 148.828,39.778 L148.828,42 L150.192,42 L150.192,26.622 L148.828,26.622 Z M144.824,41.01 C142.536,41.01 140.798,38.986 140.798,36.302 C140.798,33.618 142.536,31.616 144.824,31.616 C147.178,31.616 148.828,33.552 148.828,36.302 C148.828,39.052 147.178,41.01 144.824,41.01 Z M154.35,28.404 C154.878,28.404 155.296,27.986 155.296,27.458 C155.296,26.952 154.878,26.512 154.35,26.512 C153.822,26.512 153.404,26.952 153.404,27.458 C153.404,27.986 153.822,28.404 154.35,28.404 Z M153.668,42 L155.032,42 L155.032,30.626 L153.668,30.626 L153.668,42 Z M163.48,30.362 C161.808,30.362 160.356,31.242 159.74,32.496 L159.74,30.626 L158.376,30.626 L158.376,42 L159.74,42 L159.74,34.762 C159.74,33.002 161.302,31.616 163.304,31.616 C165.108,31.616 166.384,32.958 166.384,34.872 L166.384,42 L167.748,42 L167.748,34.696 C167.748,32.166 165.988,30.362 163.48,30.362 Z M179.936,30.626 L179.936,32.782 C179.056,31.242 177.516,30.362 175.602,30.362 C172.654,30.362 170.454,32.672 170.454,35.752 C170.454,38.854 172.654,41.164 175.602,41.164 C177.494,41.164 179.056,40.262 179.936,38.722 L179.936,40.79 C179.936,43.1 178.286,44.53 175.69,44.53 C174.26,44.53 172.786,44.002 171.862,43.166 L171.246,44.266 C172.28,45.146 174.062,45.784 175.844,45.784 C179.056,45.784 181.3,43.716 181.3,40.79 L181.3,30.626 L179.936,30.626 Z M175.844,39.91 C173.578,39.91 171.862,38.128 171.862,35.752 C171.862,33.398 173.578,31.616 175.844,31.616 C178.22,31.616 179.936,33.332 179.936,35.752 C179.936,38.194 178.22,39.91 175.844,39.91 Z M195.732,30.362 C194.61,30.362 193.202,30.67 191.706,31.462 L192.256,32.584 C193.29,32.012 194.478,31.572 195.622,31.572 C198.174,31.572 198.922,33.398 198.922,35.07 L198.922,35.532 C197.712,35.136 196.348,34.85 195.116,34.85 C192.564,34.85 190.606,36.39 190.606,38.634 C190.606,40.834 192.366,42.264 194.742,42.264 C196.282,42.264 198.086,41.538 198.922,40.196 L198.922,42 L200.286,42 L200.286,35.07 C200.286,32.32 198.724,30.362 195.732,30.362 Z M194.962,41.032 C193.268,41.032 191.948,40.086 191.948,38.568 C191.948,37.094 193.422,36.038 195.314,36.038 C196.59,36.038 197.844,36.28 198.922,36.61 L198.922,38.436 C198.482,40.196 196.546,41.032 194.962,41.032 Z M215.07,40.526 C214.762,40.812 214.278,41.01 213.75,41.01 C213.002,41.01 212.386,40.328 212.386,39.36 L212.386,31.88 L215.246,31.88 L215.246,30.626 L212.386,30.626 L212.386,27.502 L211.022,27.502 L211.022,30.626 L209.174,30.626 L209.174,31.88 L211.022,31.88 L211.022,39.36 C211.022,41.054 212.122,42.264 213.662,42.264 C214.41,42.264 215.18,42 215.774,41.538 L215.07,40.526 Z M222.66,30.362 C221.538,30.362 220.13,30.67 218.634,31.462 L219.184,32.584 C220.218,32.012 221.406,31.572 222.55,31.572 C225.102,31.572 225.85,33.398 225.85,35.07 L225.85,35.532 C224.64,35.136 223.276,34.85 222.044,34.85 C219.492,34.85 217.534,36.39 217.534,38.634 C217.534,40.834 219.294,42.264 221.67,42.264 C223.21,42.264 225.014,41.538 225.85,40.196 L225.85,42 L227.214,42 L227.214,35.07 C227.214,32.32 225.652,30.362 222.66,30.362 Z M221.89,41.032 C220.196,41.032 218.876,40.086 218.876,38.568 C218.876,37.094 220.35,36.038 222.242,36.038 C223.518,36.038 224.772,36.28 225.85,36.61 L225.85,38.436 C225.41,40.196 223.474,41.032 221.89,41.032 Z M239.424,30.626 L239.424,32.782 C238.544,31.242 237.004,30.362 235.09,30.362 C232.142,30.362 229.942,32.672 229.942,35.752 C229.942,38.854 232.142,41.164 235.09,41.164 C236.982,41.164 238.544,40.262 239.424,38.722 L239.424,40.79 C239.424,43.1 237.774,44.53 235.178,44.53 C233.748,44.53 232.274,44.002 231.35,43.166 L230.734,44.266 C231.768,45.146 233.55,45.784 235.332,45.784 C238.544,45.784 240.788,43.716 240.788,40.79 L240.788,30.626 L239.424,30.626 Z M235.332,39.91 C233.066,39.91 231.35,38.128 231.35,35.752 C231.35,33.398 233.066,31.616 235.332,31.616 C237.708,31.616 239.424,33.332 239.424,35.752 C239.424,38.194 237.708,39.91 235.332,39.91 Z" id="Confirm-adding-a-tag" fill="#000000"></path>
            </g>
        </g>
    </g>
</svg>