<svg version="1.1" width="36" height="36"  viewBox="0 0 36 36" preserveAspectRatio="xMidYMid meet" xmlns="http://www.w3.org/2000/svg" xmlns:xlink="http://www.w3.org/1999/xlink">
    <title>administrator-solid</title>
    <circle cx="14.67" cy="8.3" r="6" class="clr-i-solid clr-i-solid-path-1"></circle><path d="M16.44,31.82a2.15,2.15,0,0,1-.38-2.55l.53-1-1.09-.33A2.14,2.14,0,0,1,14,25.84V23.79a2.16,2.16,0,0,1,1.53-2.07l1.09-.33-.52-1a2.17,2.17,0,0,1,.35-2.52,18.92,18.92,0,0,0-2.32-.16A15.58,15.58,0,0,0,2,23.07v7.75a1,1,0,0,0,1,1H16.44Z" class="clr-i-solid clr-i-solid-path-2"></path><path d="M33.7,23.46l-2-.6a6.73,6.73,0,0,0-.58-1.42l1-1.86a.35.35,0,0,0-.07-.43l-1.45-1.46a.38.38,0,0,0-.43-.07l-1.85,1a7.74,7.74,0,0,0-1.43-.6l-.61-2a.38.38,0,0,0-.36-.25H23.84a.38.38,0,0,0-.35.26l-.6,2a6.85,6.85,0,0,0-1.45.61l-1.81-1a.38.38,0,0,0-.44.06l-1.47,1.44a.37.37,0,0,0-.07.44l1,1.82A7.24,7.24,0,0,0,18,22.83l-2,.61a.36.36,0,0,0-.26.35v2.05a.36.36,0,0,0,.26.35l2,.61a7.29,7.29,0,0,0,.6,1.41l-1,1.9a.37.37,0,0,0,.07.44L19.16,32a.38.38,0,0,0,.44.06l1.87-1a7.09,7.09,0,0,0,1.4.57l.6,2.05a.38.38,0,0,0,.36.26h2.05a.38.38,0,0,0,.35-.26l.6-2.05a6.68,6.68,0,0,0,1.38-.57l1.89,1a.38.38,0,0,0,.44-.06L32,30.55a.38.38,0,0,0,.06-.44l-1-1.88a6.92,6.92,0,0,0,.57-1.38l2-.61a.39.39,0,0,0,.27-.35V23.82A.4.4,0,0,0,33.7,23.46Zm-8.83,4.72a3.34,3.34,0,1,1,3.33-3.34A3.34,3.34,0,0,1,24.87,28.18Z" class="clr-i-solid clr-i-solid-path-3"></path>
    <rect x="0" y="0" width="36" height="36" fill-opacity="0"/>
</svg>