<svg version="1.1" width="36" height="36"  viewBox="0 0 36 36" preserveAspectRatio="xMidYMid meet" xmlns="http://www.w3.org/2000/svg" xmlns:xlink="http://www.w3.org/1999/xlink">
    <title>applications-line</title>
    <polygon points="8 8 4 8 4 10 10 10 10 4 8 4 8 8" class="clr-i-outline clr-i-outline-path-1"></polygon><polygon points="19 8 15 8 15 10 21 10 21 4 19 4 19 8" class="clr-i-outline clr-i-outline-path-2"></polygon><polygon points="30 4 30 8 26 8 26 10 32 10 32 4 30 4" class="clr-i-outline clr-i-outline-path-3"></polygon><polygon points="8 19 4 19 4 21 10 21 10 15 8 15 8 19" class="clr-i-outline clr-i-outline-path-4"></polygon><polygon points="19 19 15 19 15 21 21 21 21 15 19 15 19 19" class="clr-i-outline clr-i-outline-path-5"></polygon><polygon points="30 19 26 19 26 21 32 21 32 15 30 15 30 19" class="clr-i-outline clr-i-outline-path-6"></polygon><polygon points="8 30 4 30 4 32 10 32 10 26 8 26 8 30" class="clr-i-outline clr-i-outline-path-7"></polygon><polygon points="19 30 15 30 15 32 21 32 21 26 19 26 19 30" class="clr-i-outline clr-i-outline-path-8"></polygon><polygon points="30 30 26 30 26 32 32 32 32 26 30 26 30 30" class="clr-i-outline clr-i-outline-path-9"></polygon>
    <rect x="0" y="0" width="36" height="36" fill-opacity="0"/>
</svg>