<svg version="1.1" width="36" height="36"  viewBox="0 0 36 36" preserveAspectRatio="xMidYMid meet" xmlns="http://www.w3.org/2000/svg" xmlns:xlink="http://www.w3.org/1999/xlink">
    <title>battery-solid-alerted</title>
    <path d="M26.85,1.14,21.13,11A1.28,1.28,0,0,0,22.23,13H33.68A1.28,1.28,0,0,0,34.78,11L29.06,1.14A1.28,1.28,0,0,0,26.85,1.14Z" class="clr-i-solid--alerted clr-i-solid-path-1--alerted clr-i-alert"></path><path d="M22.23,15.4A3.66,3.66,0,0,1,20.55,15l2.76,4.79L16.9,18.7l3.36,6.73a1.2,1.2,0,0,1-2.15,1.07L12.65,15.56l6,1-2.29-4a1.2,1.2,0,1,1,2.08-1.2l.09.15A3.66,3.66,0,0,1,19,9.89L22.45,4H22V2.62A.6.6,0,0,0,21.42,2H14.58a.6.6,0,0,0-.58.62V4H10A1.09,1.09,0,0,0,9,5.07v28A1,1,0,0,0,10,34H26a1,1,0,0,0,1-.94V15.4Z" class="clr-i-solid--alerted clr-i-solid-path-2--alerted"></path>
    <rect x="0" y="0" width="36" height="36" fill-opacity="0"/>
</svg>