<svg version="1.1" width="36" height="36"  viewBox="0 0 36 36" preserveAspectRatio="xMidYMid meet" xmlns="http://www.w3.org/2000/svg" xmlns:xlink="http://www.w3.org/1999/xlink">
    <title>building-solid</title>
    <path d="M31,8H22V33H33V10A2,2,0,0,0,31,8ZM26,25H24V23h2Zm0-5H24V18h2Zm0-5H24V13h2Zm4,10H28V23h2Zm0-5H28V18h2Zm0-5H28V13h2Z" class="clr-i-solid clr-i-solid-path-1"></path><path d="M17.88,3H6.12A2.12,2.12,0,0,0,4,5.12V33H9V30h6v3h5V5.12A2.12,2.12,0,0,0,17.88,3ZM9,25H7V23H9Zm0-5H7V18H9Zm0-5H7V13H9Zm0-5H7V8H9Zm4,15H11V23h2Zm0-5H11V18h2Zm0-5H11V13h2Zm0-5H11V8h2Zm4,15H15V23h2Zm0-5H15V18h2Zm0-5H15V13h2Zm0-5H15V8h2Z" class="clr-i-solid clr-i-solid-path-2"></path>
    <rect x="0" y="0" width="36" height="36" fill-opacity="0"/>
</svg>