<svg version="1.1" width="36" height="36"  viewBox="0 0 36 36" preserveAspectRatio="xMidYMid meet" xmlns="http://www.w3.org/2000/svg" xmlns:xlink="http://www.w3.org/1999/xlink">
    <title>certificate-outline-alerted</title>
    <rect x="7" y="16" width="11" height="1.6" class="clr-i-outline--alerted clr-i-outline-path-1--alerted"></rect><rect x="7" y="23" width="10" height="1.6" class="clr-i-outline--alerted clr-i-outline-path-2--alerted"></rect><path d="M27.46,17.23a6.36,6.36,0,0,0-4.4,11l-1.94,2.37.9,3.61,3.66-4.46a6.26,6.26,0,0,0,3.55,0l3.66,4.46.9-3.61-1.94-2.37a6.36,6.36,0,0,0-4.4-11Zm0,10.68a4.31,4.31,0,1,1,4.37-4.31A4.35,4.35,0,0,1,27.46,27.91Z" class="clr-i-outline--alerted clr-i-outline-path-3--alerted"></path><path d="M19,13.56A3.66,3.66,0,0,1,18.57,12H7v1.6H19.07Z" class="clr-i-outline--alerted clr-i-outline-path-4--alerted"></path><path d="M33.68,15.4H32v1.16a8.41,8.41,0,0,1,2,1.81v-3Z" class="clr-i-outline--alerted clr-i-outline-path-5--alerted"></path><path d="M4,28V8H20.14l1.15-2H4A2,2,0,0,0,2,8V28a2,2,0,0,0,2,2H19l.57-.7.93-1.14L20.41,28Z" class="clr-i-outline--alerted clr-i-outline-path-6--alerted"></path><path d="M26.85,1.14,21.13,11A1.28,1.28,0,0,0,22.23,13H33.68A1.28,1.28,0,0,0,34.78,11L29.06,1.14A1.28,1.28,0,0,0,26.85,1.14Z" class="clr-i-outline--alerted clr-i-outline-path-7--alerted clr-i-alert"></path>
    <rect x="0" y="0" width="36" height="36" fill-opacity="0"/>
</svg>