<svg version="1.1" width="36" height="36"  viewBox="0 0 36 36" preserveAspectRatio="xMidYMid meet" xmlns="http://www.w3.org/2000/svg" xmlns:xlink="http://www.w3.org/1999/xlink">
    <title>cpu-solid-alerted</title>
    <path d="M32.2,23.55H30v-5.4h2.2a.8.8,0,1,0,0-1.6H30V15.4H25v8.41A1.18,1.18,0,0,1,24,25H13V23H23V15.4h-.77A3.68,3.68,0,0,1,19,9.89L21.29,6H19.35V3.8a.8.8,0,1,0-1.6,0V6h-5.4V3.8a.8.8,0,1,0-1.6,0V6H8.1A2.1,2.1,0,0,0,6,8.1V9.55H3.8a.8.8,0,1,0,0,1.6H6v5.4H3.8a.8.8,0,1,0,0,1.6H6v5.4H3.8a.8.8,0,1,0,0,1.6H6V27.9A2.1,2.1,0,0,0,8.1,30h2.65v2.2a.8.8,0,1,0,1.6,0V30h5.4v2.2a.8.8,0,1,0,1.6,0V30h5.4v2.2a.8.8,0,1,0,1.6,0V30H27.9A2.1,2.1,0,0,0,30,27.9V25.15h2.2a.8.8,0,1,0,0-1.6Z" class="clr-i-solid--alerted clr-i-solid-path-1--alerted"></path><path d="M26.85,1.14,21.13,11A1.28,1.28,0,0,0,22.23,13H33.68A1.28,1.28,0,0,0,34.78,11L29.06,1.14A1.28,1.28,0,0,0,26.85,1.14Z" class="clr-i-solid--alerted clr-i-solid-path-3--alerted clr-i-alert"></path>
    <rect x="0" y="0" width="36" height="36" fill-opacity="0"/>
</svg>