<svg version="1.1" width="36" height="36"  viewBox="0 0 36 36" preserveAspectRatio="xMidYMid meet" xmlns="http://www.w3.org/2000/svg" xmlns:xlink="http://www.w3.org/1999/xlink">
    <title>file-share-line</title>
    <path d="M30,9H16.42L14.11,5.82A2,2,0,0,0,12.49,5H6A2,2,0,0,0,4,7V29a2,2,0,0,0,2,2H30a2,2,0,0,0,2-2V11A2,2,0,0,0,30,9Zm0,20H6V13h7.31a2,2,0,0,0,2-2H6V7h6.49l2.61,3.59a1,1,0,0,0,.81.41H30Z" class="clr-i-outline clr-i-outline-path-1"></path><path d="M21.91,22.48a2.06,2.06,0,0,0-1.44.62l-5.72-2.66V20l5.66-2.65a2.08,2.08,0,1,0,.06-2.94,2.12,2.12,0,0,0-.64,1.48v.23l-5.64,2.66a2.08,2.08,0,1,0-.08,2.95l.08-.08,5.67,2.66v.3a2.09,2.09,0,1,0,2.08-2.1Z" class="clr-i-outline clr-i-outline-path-2"></path>
    <rect x="0" y="0" width="36" height="36" fill-opacity="0"/>
</svg>