<svg version="1.1" width="36" height="36"  viewBox="0 0 36 36" preserveAspectRatio="xMidYMid meet" xmlns="http://www.w3.org/2000/svg" xmlns:xlink="http://www.w3.org/1999/xlink">
    <title>file-share-solid</title>
    <path d="M30,9H16.42L14.11,5.82A2,2,0,0,0,12.49,5H6A2,2,0,0,0,4,7V29a2,2,0,0,0,2,2H30a2,2,0,0,0,2-2V11A2,2,0,0,0,30,9ZM6,7h6.49l2.72,4H6ZM21.94,26.64a2.09,2.09,0,0,1-2.11-2.06l0-.3-5.67-2.66-.08.08a2.08,2.08,0,1,1,.08-2.95l5.64-2.66v-.23a2.08,2.08,0,1,1,.58,1.46L14.75,20v.47l5.72,2.66a2.07,2.07,0,1,1,1.47,3.54Z" class="clr-i-solid clr-i-solid-path-1"></path>
    <rect x="0" y="0" width="36" height="36" fill-opacity="0"/>
</svg>