<svg version="1.1" width="36" height="36"  viewBox="0 0 36 36" preserveAspectRatio="xMidYMid meet" xmlns="http://www.w3.org/2000/svg" xmlns:xlink="http://www.w3.org/1999/xlink">
    <title>flask-line</title>
    <path d="M31.43,27.28,23,14.84V4h1a1,1,0,0,0,0-2H12a1,1,0,0,0,0,2h1V14.84L4.51,27.36A4.29,4.29,0,0,0,5,32.8,4.38,4.38,0,0,0,8.15,34H28a4.24,4.24,0,0,0,3.42-6.72ZM29.85,31a2.62,2.62,0,0,1-2,1H8a2.2,2.2,0,0,1-2.06-1.41,2.68,2.68,0,0,1,.29-2.17l3-4.44,14,0-1.31-2H10.57L15,15.46V4h6V15.46l8.84,13.05A2.23,2.23,0,0,1,29.85,31Z" class="clr-i-outline clr-i-outline-path-1"></path>
    <rect x="0" y="0" width="36" height="36" fill-opacity="0"/>
</svg>