<svg version="1.1" width="36" height="36"  viewBox="0 0 36 36" preserveAspectRatio="xMidYMid meet" xmlns="http://www.w3.org/2000/svg" xmlns:xlink="http://www.w3.org/1999/xlink">
    <title>memory-solid-alerted</title>
    <path d="M32,17V15.07H28V20H24V15.07H22.23A3.68,3.68,0,0,1,20,14.31V20H16V12h2.61A3.68,3.68,0,0,1,19,9.55L20.52,7H4A2,2,0,0,0,2,9v4H4v4H2V27a2,2,0,0,0,2,2H16.61V25.55H19V29H32a2,2,0,0,0,2-2V17ZM12,20H8V12h4Z" class="clr-i-solid--alerted clr-i-solid-path-1--alerted"></path><path d="M26.85.8l-5.72,9.91a1.28,1.28,0,0,0,1.1,1.91H33.68a1.28,1.28,0,0,0,1.1-1.91L29.06.8A1.28,1.28,0,0,0,26.85.8Z" class="clr-i-solid--alerted clr-i-solid-path-2--alerted clr-i-alert"></path>
    <rect x="0" y="0" width="36" height="36" fill-opacity="0"/>
</svg>