<svg version="1.1" width="36" height="36"  viewBox="0 0 36 36" preserveAspectRatio="xMidYMid meet" xmlns="http://www.w3.org/2000/svg" xmlns:xlink="http://www.w3.org/1999/xlink">
    <title>memory-line</title>
    <rect x="8" y="12" width="4" height="8" class="clr-i-outline clr-i-outline-path-1"></rect><rect x="16" y="12" width="4" height="8" class="clr-i-outline clr-i-outline-path-2"></rect><rect x="24" y="12" width="4" height="8" class="clr-i-outline clr-i-outline-path-3"></rect><path d="M15,27H4V17H2V27a2,2,0,0,0,2,2H16.61V25.55h2.26V24H15Z" class="clr-i-outline clr-i-outline-path-4"></path><path d="M32,7H4A2,2,0,0,0,2,9v4H4V9H32v4h2V9A2,2,0,0,0,32,7Z" class="clr-i-outline clr-i-outline-path-5"></path><path d="M32,27H19v2H32a2,2,0,0,0,2-2V17H32Z" class="clr-i-outline clr-i-outline-path-6"></path>
    <rect x="0" y="0" width="36" height="36" fill-opacity="0"/>
</svg>