<svg version="1.1" width="36" height="36"  viewBox="0 0 36 36" preserveAspectRatio="xMidYMid meet" xmlns="http://www.w3.org/2000/svg" xmlns:xlink="http://www.w3.org/1999/xlink">
    <title>mouse-line</title>
    <path class="clr-i-outline clr-i-outline-path-1" d="M18,34A10,10,0,0,1,8,24V12a10,10,0,0,1,20,0V24A10,10,0,0,1,18,34ZM18,4a8,8,0,0,0-8,8V24a8,8,0,0,0,16,0V12A8,8,0,0,0,18,4Z"></path><path class="clr-i-outline clr-i-outline-path-2" d="M18,15a1,1,0,0,1-1-1V10a1,1,0,0,1,2,0v4A1,1,0,0,1,18,15Z"></path>
    <rect x="0" y="0" width="36" height="36" fill-opacity="0"/>
</svg>