<svg version="1.1" width="36" height="36"  viewBox="0 0 36 36" preserveAspectRatio="xMidYMid meet" xmlns="http://www.w3.org/2000/svg" xmlns:xlink="http://www.w3.org/1999/xlink">
    <title>receiver-solid</title>
    <path class="clr-i-solid clr-i-solid-path-1" d="M15.22,20.64a20.37,20.37,0,0,0,7.4,4.79l3.77-3a.67.67,0,0,1,.76,0l7,4.51a2,2,0,0,1,.33,3.18l-3.28,3.24a4,4,0,0,1-3.63,1.07,35.09,35.09,0,0,1-17.15-9A33.79,33.79,0,0,1,1.15,8.6a3.78,3.78,0,0,1,1.1-3.55l3.4-3.28a2,2,0,0,1,3.12.32L13.43,9a.63.63,0,0,1,0,.75l-3.07,3.69A19.75,19.75,0,0,0,15.22,20.64Z"></path>
    <rect x="0" y="0" width="36" height="36" fill-opacity="0"/>
</svg>