<svg version="1.1" width="36" height="36"  viewBox="0 0 36 36" preserveAspectRatio="xMidYMid meet" xmlns="http://www.w3.org/2000/svg" xmlns:xlink="http://www.w3.org/1999/xlink">
    <title>router-solid-alerted</title>
    <path d="M33.82,15.39H28.68L31,17.67l-4.19,4.09a.8.8,0,1,1-1.12-1.14l2.2-2.15H21.63a.8.8,0,0,1,0-1.6h6.27l-1.5-1.47H22.23a3.68,3.68,0,0,1-3-1.51L18,15.15l-4.14-4.1A.8.8,0,1,1,15,9.92l2.21,2.19V5.93a.8.8,0,0,1,1.6,0v4.49A3.65,3.65,0,0,1,19,9.89l4.22-7.31A16,16,0,1,0,34,17.67,16,16,0,0,0,33.82,15.39Zm-23.5,6.35a.8.8,0,0,1-1.13,0L5,17.67l4.19-4.09a.8.8,0,1,1,1.12,1.14l-2.2,2.14h6.27a.8.8,0,0,1,0,1.6H8.11l2.2,2.15A.8.8,0,0,1,10.32,21.74Zm11.82,3.67a.8.8,0,0,1-1.13,0L18.8,23.23V29.4a.8.8,0,0,1-1.6,0V23.23L15,25.42a.8.8,0,1,1-1.13-1.14L18,20.18l4.14,4.1A.8.8,0,0,1,22.14,25.41Z" class="clr-i-solid--alerted clr-i-solid-path-1--alerted"></path><path d="M26.85,1.14,21.13,11A1.28,1.28,0,0,0,22.23,13H33.68A1.28,1.28,0,0,0,34.78,11L29.06,1.14A1.28,1.28,0,0,0,26.85,1.14Z" class="clr-i-solid--alerted clr-i-solid-path-2--alerted clr-i-alert"></path>
    <rect x="0" y="0" width="36" height="36" fill-opacity="0"/>
</svg>