<svg version="1.1" width="36" height="36"  viewBox="0 0 36 36" preserveAspectRatio="xMidYMid meet" xmlns="http://www.w3.org/2000/svg" xmlns:xlink="http://www.w3.org/1999/xlink">
    <title>usb-line</title>
    <path d="M14.29,11.4a1.49,1.49,0,0,1,1.28-.72h1a2.89,2.89,0,0,0,2.75,2.09,3,3,0,0,0,0-5.91,2.9,2.9,0,0,0-2.67,1.82H15.57a3.49,3.49,0,0,0-3,1.66l-3,4.83h2.36Zm5-2.94A1.36,1.36,0,1,1,18,9.81,1.32,1.32,0,0,1,19.33,8.46Z" class="clr-i-outline clr-i-outline-path-1"></path><path d="M34.3,17.37l-6.11-3.66a.7.7,0,0,0-.7,0,.71.71,0,0,0-.36.61V17H6.92a2.33,2.33,0,0,1,.32,1.17,2.47,2.47,0,1,1-2.47-2.46,2.37,2.37,0,0,1,1.15.3l.93-1.76A4.44,4.44,0,1,0,9.15,19h3.58l4.17,6.65a3.49,3.49,0,0,0,3,1.66h1.66v1.28a.79.79,0,0,0,.8.79h4.49a.79.79,0,0,0,.8-.79v-4.4a.79.79,0,0,0-.8-.8H22.34a.8.8,0,0,0-.8.8v1.12H19.88a1.51,1.51,0,0,1-1.28-.72L15.09,19h12v2.66a.69.69,0,0,0,.36.61.67.67,0,0,0,.34.09.65.65,0,0,0,.36-.1l6.11-3.66a.69.69,0,0,0,.34-.6A.71.71,0,0,0,34.3,17.37ZM23.14,25H26v2.8H23.14Zm5.39-4.56V15.55l4,2.42Z" class="clr-i-outline clr-i-outline-path-2"></path>
    <rect x="0" y="0" width="36" height="36" fill-opacity="0"/>
</svg>