<svg version="1.1" width="36" height="36"  viewBox="0 0 36 36" preserveAspectRatio="xMidYMid meet" xmlns="http://www.w3.org/2000/svg" xmlns:xlink="http://www.w3.org/1999/xlink">
    <title>vm-solid-alerted</title>
    <path d="M13.59,12a3.6,3.6,0,0,1,3.6-3.6h2.72L23,3H11A2,2,0,0,0,9,5v8.4h4.59Z" class="clr-i-solid--alerted clr-i-solid-path-1--alerted"></path><path d="M17.19,10a2,2,0,0,0-2,2v1.4H19A3.68,3.68,0,0,1,19,10Z" class="clr-i-solid--alerted clr-i-solid-path-2--alerted"></path><path d="M23.21,15.4A3.55,3.55,0,0,1,23.6,17v8H22V17a2,2,0,0,0-2-2H6a2,2,0,0,0-2,2V31a2,2,0,0,0,2,2H20a2,2,0,0,0,2-2V29.6H17.19a3.6,3.6,0,0,1-3.6-3.6V20h1.6v6a2,2,0,0,0,2,2H30a2,2,0,0,0,2-2V15.4Z" class="clr-i-solid--alerted clr-i-solid-path-3--alerted"></path><path d="M26.85,1.14,21.13,11A1.28,1.28,0,0,0,22.23,13H33.68A1.28,1.28,0,0,0,34.78,11L29.06,1.14A1.28,1.28,0,0,0,26.85,1.14Z" class="clr-i-solid--alerted clr-i-solid-path-4--alerted clr-i-alert"></path>
    <rect x="0" y="0" width="36" height="36" fill-opacity="0"/>
</svg>