<svg version="1.1" width="36" height="36"  viewBox="0 0 36 36" preserveAspectRatio="xMidYMid meet" xmlns="http://www.w3.org/2000/svg" xmlns:xlink="http://www.w3.org/1999/xlink">
    <title>fast-forward-line</title>
    <path class="clr-i-outline clr-i-outline-path-1" d="M17.77,31.92a2,2,0,0,1-.86-.2A1.81,1.81,0,0,1,16,29.93v-6.7L5.24,31.5a1.94,1.94,0,0,1-2.06.22,2,2,0,0,1-1.11-1.79v-24A2,2,0,0,1,3.18,4.12a1.93,1.93,0,0,1,2.06.22L16,12.61V5.91a1.81,1.81,0,0,1,.91-1.79A1.93,1.93,0,0,1,19,4.34l15.32,12a2,2,0,0,1,0,3.15L19,31.5A2,2,0,0,1,17.77,31.92Zm0-12.8V29.93l15.26-12-15.32-12,.06,10.81L4,5.91v24Z"></path>
    <rect x="0" y="0" width="36" height="36" fill-opacity="0"/>
</svg>