<svg version="1.1" width="36" height="36"  viewBox="0 0 36 36" preserveAspectRatio="xMidYMid meet" xmlns="http://www.w3.org/2000/svg" xmlns:xlink="http://www.w3.org/1999/xlink">
    <title>power-solid</title>
    <path class="clr-i-solid clr-i-solid-path-1" d="M18,2A16,16,0,1,0,34,18,16,16,0,0,0,18,2Zm.06,17.68a1.28,1.28,0,0,1-1.29-1.28V8.65a1.29,1.29,0,0,1,2.58,0V18.4A1.28,1.28,0,0,1,18.06,19.68ZM18,27.79A9.88,9.88,0,0,1,12.17,9.85a1.4,1.4,0,0,1,1.94.31,1.37,1.37,0,0,1-.31,1.92,7.18,7.18,0,1,0,11.43,5.8,7.07,7.07,0,0,0-3-5.76A1.37,1.37,0,0,1,22,10.2a1.4,1.4,0,0,1,1.94-.29A9.88,9.88,0,0,1,18,27.79Z"></path>
    <rect x="0" y="0" width="36" height="36" fill-opacity="0"/>
</svg>