<svg version="1.1" width="36" height="36"  viewBox="0 0 36 36" preserveAspectRatio="xMidYMid meet" xmlns="http://www.w3.org/2000/svg" xmlns:xlink="http://www.w3.org/1999/xlink">
                <title>align-bottom-line</title>
                <path d="M34,30H2a1,1,0,0,0,0,2H34a1,1,0,0,0,0-2Z" class="clr-i-outline clr-i-outline-path-1"></path><path d="M16,5a1,1,0,0,0-1-1H7A1,1,0,0,0,6,5V28H16ZM14,26H8V6h6Z" class="clr-i-outline clr-i-outline-path-2"></path><path d="M30,13a1,1,0,0,0-1-1H21a1,1,0,0,0-1,1V28H30ZM28,26H22V14h6Z" class="clr-i-outline clr-i-outline-path-3"></path>
                <rect x="0" y="0" width="36" height="36" fill-opacity="0"/>
            </svg>