<svg version="1.1" width="36" height="36"  viewBox="0 0 36 36" preserveAspectRatio="xMidYMid meet" xmlns="http://www.w3.org/2000/svg" xmlns:xlink="http://www.w3.org/1999/xlink">
                <title>align-left-line</title>
                <path d="M5,1A1,1,0,0,0,4,2V34a1,1,0,0,0,2,0V2A1,1,0,0,0,5,1Z" class="clr-i-outline clr-i-outline-path-1"></path><path d="M31,20H8V30H31a1,1,0,0,0,1-1V21A1,1,0,0,0,31,20Zm-1,8H10V22H30Z" class="clr-i-outline clr-i-outline-path-2"></path><path d="M24,15V7a1,1,0,0,0-1-1H8V16H23A1,1,0,0,0,24,15Zm-2-1H10V8H22Z" class="clr-i-outline clr-i-outline-path-3"></path>
                <rect x="0" y="0" width="36" height="36" fill-opacity="0"/>
            </svg>