<svg id="1dc4b603-65f1-4bbe-a9e4-c53e2ffa805e" data-name="Layer 1" xmlns="http://www.w3.org/2000/svg" viewBox="0 0 407 107"><title>red_green_bttns2</title><g id="d62d16c2-85ff-4702-84e0-5cdca7871744" data-name="Rectangle-9"><polygon id="f224598b-a12f-4c3e-a93b-5cc7aa42804f" data-name="path-1" points="0 0 407 0 395 12 407 23 395 35 407 47 395 59 407 71 395 84 407 96 395 107 0 107 0 0" fill="#4f4f4f"/></g><polygon points="23 23.33 23 83.33 395.46 83.33 407 70.83 395 58.83 407 46.83 395 34.83 406.5 23.33 23 23.33" fill="#e4e4e4"/><rect id="4dbac401-8a50-4ea6-b120-198fa3f42eea" data-name="background" x="36" y="35.5" width="61" height="36" rx="3" ry="3" fill="#d0021b"/><g id="c211a12d-d214-44aa-93fc-b8bc2168af11" data-name="SAVE" style="isolation:isolate"><text transform="translate(48 57.5)" font-size="12" fill="#fff" font-family="Metropolis-Medium, Metropolis" letter-spacing="0.08em" style="isolation:isolate">S<tspan x="8.44" y="0" letter-spacing="-0.01em">A</tspan><tspan x="17.42" y="0">VE</tspan></text></g><rect id="9b312bc8-97a1-4c2a-b397-223ea37a9161" data-name="background" x="107" y="35.5" width="79" height="36" rx="3" ry="3" fill="#417505"/><g id="8f9bf5b4-c00d-4a78-8157-698fc7f889b6" data-name="DELETE" style="isolation:isolate"><text transform="translate(119 57.5)" font-size="12" fill="#fff" font-family="Metropolis-Medium, Metropolis" letter-spacing="0.08em" style="isolation:isolate">DELETE</text></g></svg>