<svg width="548" height="56" xmlns="http://www.w3.org/2000/svg"><g fill="none" fill-rule="evenodd"><path d="M26 15.593h151M180 15.593h151M351 15.593h151" stroke="#9B9B9B" stroke-linecap="square" stroke-width="2"/><text font-family="Metropolis-Medium, Metropolis" font-size="13" font-weight="400" fill="#565656" transform="translate(-50 -6)"><tspan x="539" y="56">Step four</tspan></text><g transform="translate(489 -2)"><circle fill="#FFF" cx="18" cy="18" r="16"/><path d="M18 32c-7.732 0-14-6.268-14-14S10.268 4 18 4s14 6.268 14 14-6.268 14-14 14m0-30C9.164 2 2 9.164 2 18s7.164 16 16 16 16-7.164 16-16S26.836 2 18 2" fill="#60B515"/><path d="M28 12.06a1 1 0 0 0-1.41 0l-11.1 11.05-6-6a1.017 1.017 0 0 0-1.436-.055A1.019 1.019 0 0 0 8 18.49l7.45 7.45L28 13.47a1 1 0 0 0 0-1.41" fill="#60B515"/></g><text font-family="Metropolis-Medium, Metropolis" font-size="13" font-weight="400" fill="#565656" transform="translate(-50 -6)"><tspan x="369" y="56">Step three</tspan></text><g transform="translate(319 -2)"><circle fill="#FFF" cx="18" cy="18" r="16"/><path d="M18 32c-7.732 0-14-6.268-14-14S10.268 4 18 4s14 6.268 14 14-6.268 14-14 14m0-30C9.164 2 2 9.164 2 18s7.164 16 16 16 16-7.164 16-16S26.836 2 18 2" fill="#60B515"/><path d="M28 12.06a1 1 0 0 0-1.41 0l-11.1 11.05-6-6a1.017 1.017 0 0 0-1.436-.055A1.019 1.019 0 0 0 8 18.49l7.45 7.45L28 13.47a1 1 0 0 0 0-1.41" fill="#60B515"/></g><text font-family="Metropolis-Medium, Metropolis" font-size="13" font-weight="400" fill="#565656" transform="translate(-50 -6)"><tspan x="216" y="56">Step two</tspan></text><g transform="translate(161 -2)"><circle fill="#FFF" cx="18" cy="18" r="16"/><path d="M18 32c-7.732 0-14-6.268-14-14S10.268 4 18 4s14 6.268 14 14-6.268 14-14 14m0-30C9.164 2 2 9.164 2 18s7.164 16 16 16 16-7.164 16-16S26.836 2 18 2" fill="#60B515"/><path d="M28 12.06a1 1 0 0 0-1.41 0l-11.1 11.05-6-6a1.017 1.017 0 0 0-1.436-.055A1.019 1.019 0 0 0 8 18.49l7.45 7.45L28 13.47a1 1 0 0 0 0-1.41" fill="#60B515"/></g><text font-family="Metropolis-Medium, Metropolis" font-size="13" font-weight="400" fill="#565656" transform="translate(-50 -6)"><tspan x="50" y="56">Step one</tspan></text><g transform="translate(0 -2)"><circle fill="#FFF" cx="18" cy="18" r="16"/><path d="M18 32c-7.732 0-14-6.268-14-14S10.268 4 18 4s14 6.268 14 14-6.268 14-14 14m0-30C9.164 2 2 9.164 2 18s7.164 16 16 16 16-7.164 16-16S26.836 2 18 2" fill="#60B515"/><path d="M28 12.06a1 1 0 0 0-1.41 0l-11.1 11.05-6-6a1.017 1.017 0 0 0-1.436-.055A1.019 1.019 0 0 0 8 18.49l7.45 7.45L28 13.47a1 1 0 0 0 0-1.41" fill="#60B515"/></g></g></svg>
