<svg width="870" height="393" xmlns="http://www.w3.org/2000/svg"><g fill="none" fill-rule="evenodd"><path d="M91.54 75.593h317" stroke="#9B9B9B" stroke-width="2" stroke-linecap="square"/><text font-family="Metropolis-Medium, Metropolis" font-size="13" font-weight="400" fill="#565656" transform="translate(51 55)"><tspan x="347.493" y="55">Step name 3</tspan></text><g transform="translate(396 58)"><circle fill="#FFF" cx="18" cy="18" r="16"/><path d="M18 32c-7.732 0-14-6.268-14-14S10.268 4 18 4s14 6.268 14 14-6.268 14-14 14m0-30C9.164 2 2 9.164 2 18s7.164 16 16 16 16-7.164 16-16S26.836 2 18 2" fill="#007CBB"/><circle fill="#007CBB" cx="18" cy="18" r="8"/></g><text font-family="Metropolis-Medium, Metropolis" font-size="13" font-weight="400" fill="#565656" transform="translate(51 55)"><tspan x="190" y="55">Step name 2</tspan></text><g transform="translate(238 58)"><circle fill="#FFF" cx="18" cy="18" r="16"/><path d="M18 32c-7.732 0-14-6.268-14-14S10.268 4 18 4s14 6.268 14 14-6.268 14-14 14m0-30C9.164 2 2 9.164 2 18s7.164 16 16 16 16-7.164 16-16S26.836 2 18 2" fill="#60B515"/><path d="M28 12.06a1 1 0 0 0-1.41 0l-11.1 11.05-6-6a1.017 1.017 0 0 0-1.436-.055A1.019 1.019 0 0 0 8 18.49l7.45 7.45L28 13.47a1 1 0 0 0 0-1.41" fill="#60B515"/></g><text font-family="Metropolis-Medium, Metropolis" font-size="13" font-weight="400" fill="#565656" transform="translate(51 55)"><tspan x="29.416" y="55">Step name 1</tspan></text><g transform="translate(77 58)"><circle fill="#FFF" cx="18" cy="18" r="16"/><path d="M18 32c-7.732 0-14-6.268-14-14S10.268 4 18 4s14 6.268 14 14-6.268 14-14 14m0-30C9.164 2 2 9.164 2 18s7.164 16 16 16 16-7.164 16-16S26.836 2 18 2" fill="#60B515"/><path d="M28 12.06a1 1 0 0 0-1.41 0l-11.1 11.05-6-6a1.017 1.017 0 0 0-1.436-.055A1.019 1.019 0 0 0 8 18.49l7.45 7.45L28 13.47a1 1 0 0 0 0-1.41" fill="#60B515"/></g><g><path d="M103 173.593h151M257 173.593h151M428 173.593h151" stroke="#9B9B9B" stroke-linecap="square" stroke-width="2"/><text font-family="Metropolis-Medium, Metropolis" font-size="13" font-weight="400" fill="#565656" transform="translate(27 152)"><tspan x="539" y="56">Step four</tspan></text><g transform="translate(566 156)"><circle fill="#FFF" cx="18" cy="18" r="16"/><path d="M18 32c-7.732 0-14-6.268-14-14S10.268 4 18 4s14 6.268 14 14-6.268 14-14 14m0-30C9.164 2 2 9.164 2 18s7.164 16 16 16 16-7.164 16-16S26.836 2 18 2" fill="#747474"/></g><text font-family="Metropolis-Medium, Metropolis" font-size="13" font-weight="400" fill="#565656" transform="translate(27 152)"><tspan x="369" y="56">Step three</tspan></text><g transform="translate(396 156)"><circle fill="#FFF" cx="18" cy="18" r="16"/><path d="M18 32c-7.732 0-14-6.268-14-14S10.268 4 18 4s14 6.268 14 14-6.268 14-14 14m0-30C9.164 2 2 9.164 2 18s7.164 16 16 16 16-7.164 16-16S26.836 2 18 2" fill="#007CBB"/><circle fill="#007CBB" cx="18" cy="18" r="8"/></g><text font-family="Metropolis-Medium, Metropolis" font-size="13" font-weight="400" fill="#565656" transform="translate(27 152)"><tspan x="216" y="56">Step two</tspan></text><g transform="translate(238 156)"><circle fill="#FFF" cx="18" cy="18" r="16"/><path d="M18 32c-7.732 0-14-6.268-14-14S10.268 4 18 4s14 6.268 14 14-6.268 14-14 14m0-30C9.164 2 2 9.164 2 18s7.164 16 16 16 16-7.164 16-16S26.836 2 18 2" fill="#60B515"/><path d="M28 12.06a1 1 0 0 0-1.41 0l-11.1 11.05-6-6a1.017 1.017 0 0 0-1.436-.055A1.019 1.019 0 0 0 8 18.49l7.45 7.45L28 13.47a1 1 0 0 0 0-1.41" fill="#60B515"/></g><text font-family="Metropolis-Medium, Metropolis" font-size="13" font-weight="400" fill="#565656" transform="translate(27 152)"><tspan x="50" y="56">Step one</tspan></text><g transform="translate(77 156)"><circle fill="#FFF" cx="18" cy="18" r="16"/><path d="M18 32c-7.732 0-14-6.268-14-14S10.268 4 18 4s14 6.268 14 14-6.268 14-14 14m0-30C9.164 2 2 9.164 2 18s7.164 16 16 16 16-7.164 16-16S26.836 2 18 2" fill="#60B515"/><path d="M28 12.06a1 1 0 0 0-1.41 0l-11.1 11.05-6-6a1.017 1.017 0 0 0-1.436-.055A1.019 1.019 0 0 0 8 18.49l7.45 7.45L28 13.47a1 1 0 0 0 0-1.41" fill="#60B515"/></g></g><g><path d="M266 263.5h154.394M410 263.5h154.394" stroke="#9B9B9B" stroke-width="2" stroke-linecap="square"/><text font-family="Metropolis-Medium, Metropolis" font-size="13" font-weight="400" fill="#565656" transform="translate(75 245)"><tspan x="321" y="55">This step has a </tspan> <tspan x="321" y="73">very very very </tspan> <tspan x="321" y="91">long name</tspan></text><path d="M590 263.5h154.394" stroke="#9B9B9B" stroke-width="2" stroke-linecap="square"/><text font-family="Metropolis-Medium, Metropolis" font-size="13" font-weight="400" fill="#565656" transform="translate(75 245)"><tspan x="665" y="55">Step name 5</tspan></text><path d="M103 264.593h137.352" stroke="#9B9B9B" stroke-width="2" stroke-linecap="square"/><text font-family="Metropolis-Medium, Metropolis" font-size="13" font-weight="400" fill="#565656" transform="translate(75 245)"><tspan x="485" y="55">Step name 4</tspan></text><g transform="translate(738 245)"><circle fill="#FFF" cx="18" cy="18" r="16"/><path d="M18 32c-7.732 0-14-6.268-14-14S10.268 4 18 4s14 6.268 14 14-6.268 14-14 14m0-30C9.164 2 2 9.164 2 18s7.164 16 16 16 16-7.164 16-16S26.836 2 18 2" fill="#747474"/></g><g transform="translate(396 245)"><circle fill="#FFF" cx="18" cy="18" r="16"/><path d="M18 32c-7.732 0-14-6.268-14-14S10.268 4 18 4s14 6.268 14 14-6.268 14-14 14m0-30C9.164 2 2 9.164 2 18s7.164 16 16 16 16-7.164 16-16S26.836 2 18 2" fill="#007CBB"/><circle fill="#007CBB" cx="18" cy="18" r="8"/></g><text font-family="Metropolis-Medium, Metropolis" font-size="13" font-weight="400" fill="#565656" transform="translate(75 245)"><tspan x="161" y="55">Step name 2</tspan></text><g transform="translate(238 245)"><circle fill="#FFF" cx="18" cy="18" r="16"/><path d="M18 32c-7.732 0-14-6.268-14-14S10.268 4 18 4s14 6.268 14 14-6.268 14-14 14m0-30C9.164 2 2 9.164 2 18s7.164 16 16 16 16-7.164 16-16S26.836 2 18 2" fill="#60B515"/><path d="M28 12.06a1 1 0 0 0-1.41 0l-11.1 11.05-6-6a1.017 1.017 0 0 0-1.436-.055A1.019 1.019 0 0 0 8 18.49l7.45 7.45L28 13.47a1 1 0 0 0 0-1.41" fill="#60B515"/></g><text font-family="Metropolis-Medium, Metropolis" font-size="13" font-weight="400" fill="#565656" transform="translate(75 245)"><tspan x="0" y="55">Step name 1</tspan></text><g transform="translate(75 245)"><circle fill="#FFF" cx="18" cy="18" r="16"/><path d="M18 32c-7.732 0-14-6.268-14-14S10.268 4 18 4s14 6.268 14 14-6.268 14-14 14m0-30C9.164 2 2 9.164 2 18s7.164 16 16 16 16-7.164 16-16S26.836 2 18 2" fill="#60B515"/><path d="M28 12.06a1 1 0 0 0-1.41 0l-11.1 11.05-6-6a1.017 1.017 0 0 0-1.436-.055A1.019 1.019 0 0 0 8 18.49l7.45 7.45L28 13.47a1 1 0 0 0 0-1.41" fill="#60B515"/></g><g transform="translate(558 245)"><circle fill="#FFF" cx="18" cy="18" r="16"/><path d="M18 32c-7.732 0-14-6.268-14-14S10.268 4 18 4s14 6.268 14 14-6.268 14-14 14m0-30C9.164 2 2 9.164 2 18s7.164 16 16 16 16-7.164 16-16S26.836 2 18 2" fill="#747474"/></g></g></g></svg>
