<svg width="402" height="465" xmlns="http://www.w3.org/2000/svg"><g fill="none" fill-rule="evenodd"><path stroke="#9A9A9A" stroke-width="2" stroke-linecap="square" d="M120 395v-566"/><text font-family="Metropolis-Medium, Metropolis" font-size="13" font-weight="400" fill="#313131"><tspan x="150" y="395">Event 4</tspan></text><g transform="translate(102 376)"><circle fill="#FFF" cx="18" cy="18" r="16"/><path d="M18 32c-7.732 0-14-6.268-14-14S10.268 4 18 4s14 6.268 14 14-6.268 14-14 14m0-30C9.164 2 2 9.164 2 18s7.164 16 16 16 16-7.164 16-16S26.836 2 18 2" fill="#747474"/></g><text font-family="Metropolis-Medium, Metropolis" font-size="13" font-weight="400" fill="#313131"><tspan x="150" y="231">Event 3</tspan></text><g transform="translate(102 212)"><circle fill="#FFF" cx="18" cy="18" r="16"/><path d="M18 32c-7.732 0-14-6.268-14-14S10.268 4 18 4s14 6.268 14 14-6.268 14-14 14m0-30C9.164 2 2 9.164 2 18s7.164 16 16 16 16-7.164 16-16S26.836 2 18 2" fill="#007CBB"/><circle fill="#007CBB" cx="18" cy="18" r="8"/></g><text font-family="Metropolis-Medium, Metropolis" font-size="13" font-weight="400" fill="#313131"><tspan x="150" y="138">Event 2</tspan></text><g transform="translate(102 119)"><circle fill="#FFF" cx="18" cy="18" r="16"/><path d="M18 32c-7.732 0-14-6.268-14-14S10.268 4 18 4s14 6.268 14 14-6.268 14-14 14m0-30C9.164 2 2 9.164 2 18s7.164 16 16 16 16-7.164 16-16S26.836 2 18 2" fill="#60B515"/><path d="M28 12.06a1 1 0 0 0-1.41 0l-11.1 11.05-6-6a1.017 1.017 0 0 0-1.436-.055A1.019 1.019 0 0 0 8 18.49l7.45 7.45L28 13.47a1 1 0 0 0 0-1.41" fill="#60B515"/></g><text font-family="Metropolis-Medium, Metropolis" font-size="13" font-weight="400" fill="#313131"><tspan x="150" y="46">Event 1</tspan></text><text font-family="Metropolis-Medium, Metropolis" font-size="13" font-weight="400" fill="#565656"><tspan x="33.281" y="395">12:02 pm</tspan></text><text font-family="Metropolis-Medium, Metropolis" font-size="13" font-weight="400" fill="#565656"><tspan x="36.167" y="231">12:01 pm</tspan></text><text font-family="Metropolis-Medium, Metropolis" font-size="13" font-weight="400" fill="#565656"><tspan x="31.994" y="138">12:00 pm</tspan></text><text font-family="Metropolis-Medium, Metropolis" font-size="13" font-weight="400" fill="#565656"><tspan x="37.792" y="45">11:59 am</tspan></text><g transform="translate(102 26)"><circle fill="#FFF" cx="18" cy="18" r="16"/><path d="M18 32c-7.732 0-14-6.268-14-14S10.268 4 18 4s14 6.268 14 14-6.268 14-14 14m0-30C9.164 2 2 9.164 2 18s7.164 16 16 16 16-7.164 16-16S26.836 2 18 2" fill="#60B515"/><path d="M28 12.06a1 1 0 0 0-1.41 0l-11.1 11.05-6-6a1.017 1.017 0 0 0-1.436-.055A1.019 1.019 0 0 0 8 18.49l7.45 7.45L28 13.47a1 1 0 0 0 0-1.41" fill="#60B515"/></g><text font-family="Metropolis-Regular, Metropolis" font-size="11" fill="#565656"><tspan x="150" y="255">Root CA certificate requested. Upload it </tspan> <tspan x="150" y="271">to the KMS to complete the connection. </tspan></text><text font-family="Metropolis-Regular, Metropolis" font-size="11" fill="#565656"><tspan x="150" y="162">Cras quis nulla commodo, aliquam lectus </tspan> <tspan x="150" y="178">sed, blandit augue. Cras ullamcorper </tspan> <tspan x="150" y="194">bibendum bibendum. Duis </tspan></text><text font-family="Metropolis-Regular, Metropolis" font-size="11" fill="#565656"><tspan x="150" y="70">Cras quis nulla commodo, aliquam lectus </tspan> <tspan x="150" y="86">sed, blandit augue. Cras ullamcorper </tspan> <tspan x="150" y="102">bibendum bibendum. Duis </tspan></text><text font-family="Metropolis-Regular, Metropolis" font-size="11" fill="#565656"><tspan x="150" y="419">Cras quis nulla commodo, aliquam lectus </tspan> <tspan x="150" y="435">sed, blandit augue. Cras </tspan></text><text transform="translate(150 344)" fill="#007CBB" font-family="Metropolis-SemiBold, Metropolis" font-size="11" font-weight="500" letter-spacing="1"><tspan x="11.701" y="11">CHOOSE ANOTHER METHOD</tspan></text><rect x=".5" y=".5" width="201" height="23" rx="3" stroke="#007CBB" transform="translate(150 310)"/><text transform="translate(162 315)" fill="#007CBB" font-family="Metropolis-SemiBold, Metropolis" font-size="11" font-weight="500" letter-spacing="1"><tspan x="60.206" y="11">REFRESH</tspan></text></g></svg>
