<svg width="601" height="253" xmlns="http://www.w3.org/2000/svg"><g fill="none" fill-rule="evenodd"><path d="M54 76.593h151M208 76.593h151M379 76.593h151" stroke="#9B9B9B" stroke-linecap="square" stroke-width="2"/><text font-family="Metropolis-Medium, Metropolis" font-size="13" font-weight="400" fill="#565656" transform="translate(-22 55)"><tspan x="539" y="56">Step four</tspan></text><g transform="translate(517 59)"><circle fill="#FFF" cx="18" cy="18" r="16"/><path d="M18 32c-7.732 0-14-6.268-14-14S10.268 4 18 4s14 6.268 14 14-6.268 14-14 14m0-30C9.164 2 2 9.164 2 18s7.164 16 16 16 16-7.164 16-16S26.836 2 18 2" fill="#747474"/></g><text font-family="Metropolis-Medium, Metropolis" font-size="13" font-weight="400" fill="#565656" transform="translate(-22 55)"><tspan x="369" y="56">Step three</tspan></text><g transform="translate(347 59)"><circle fill="#FFF" cx="16" cy="16" r="16"/><g transform="translate(2 2)" fill="#C92100"><path d="M16 20.76a1 1 0 0 1-1-1V8.08a1 1 0 0 1 2 0v11.68a1 1 0 0 1-1 1z"/><circle cx="16" cy="23.97" r="1.33"/><path d="M16 32C7.163 32 0 24.837 0 16S7.163 0 16 0s16 7.163 16 16a16 16 0 0 1-16 16zm0-30C8.268 2 2 8.268 2 16s6.268 14 14 14 14-6.268 14-14S23.732 2 16 2z"/></g></g><text font-family="Metropolis-Medium, Metropolis" font-size="13" font-weight="400" fill="#565656" transform="translate(-22 55)"><tspan x="216" y="56">Step two</tspan></text><g transform="translate(189 59)"><circle fill="#FFF" cx="18" cy="18" r="16"/><path d="M18 32c-7.732 0-14-6.268-14-14S10.268 4 18 4s14 6.268 14 14-6.268 14-14 14m0-30C9.164 2 2 9.164 2 18s7.164 16 16 16 16-7.164 16-16S26.836 2 18 2" fill="#60B515"/><path d="M28 12.06a1 1 0 0 0-1.41 0l-11.1 11.05-6-6a1.017 1.017 0 0 0-1.436-.055A1.019 1.019 0 0 0 8 18.49l7.45 7.45L28 13.47a1 1 0 0 0 0-1.41" fill="#60B515"/></g><text font-family="Metropolis-Medium, Metropolis" font-size="13" font-weight="400" fill="#565656" transform="translate(-22 55)"><tspan x="50" y="56">Step one</tspan></text><g transform="translate(28 59)"><circle fill="#FFF" cx="18" cy="18" r="16"/><path d="M18 32c-7.732 0-14-6.268-14-14S10.268 4 18 4s14 6.268 14 14-6.268 14-14 14m0-30C9.164 2 2 9.164 2 18s7.164 16 16 16 16-7.164 16-16S26.836 2 18 2" fill="#60B515"/><path d="M28 12.06a1 1 0 0 0-1.41 0l-11.1 11.05-6-6a1.017 1.017 0 0 0-1.436-.055A1.019 1.019 0 0 0 8 18.49l7.45 7.45L28 13.47a1 1 0 0 0 0-1.41" fill="#60B515"/></g><text font-family="Metropolis-Regular, Metropolis" font-size="13" fill="#565656" transform="translate(-22 55)"><tspan x="369" y="92">Upload failed. Try </tspan> <tspan x="369" y="108">upload again.</tspan></text><g><rect x=".5" y=".5" width="111" height="23" rx="3" stroke="#007CBB" transform="translate(347 181)"/><text transform="translate(359 186)" fill="#007CBB" font-family="Metropolis-SemiBold, Metropolis" font-size="11" font-weight="500" letter-spacing="1"><tspan x="17.345" y="11">UPLOAD</tspan></text></g></g></svg>
