<svg version="1.1" width="36" height="36"  viewBox="0 0 36 36" preserveAspectRatio="xMidYMid meet" xmlns="http://www.w3.org/2000/svg" xmlns:xlink="http://www.w3.org/1999/xlink">
    <title>alarm-clock-outline-alerted</title>
    <path d="M11.42,3.43a5.77,5.77,0,0,0-7.64.41,5.72,5.72,0,0,0-.38,7.64A16.08,16.08,0,0,1,11.42,3.43Z" class="clr-i-outline--alerted clr-i-outline-path-1--alerted"></path><path d="M18.86,9.5a.9.9,0,0,0-1.8,0v9L24.12,22a.9.9,0,1,0,.79-1.62l-6.06-3Z" class="clr-i-outline--alerted clr-i-outline-path-2--alerted"></path><path d="M28,27.78A13.88,13.88,0,0,0,31.77,15.4h-2a12.07,12.07,0,1,1-8.67-9l1-1.8a14,14,0,0,0-14,23.27L5.56,30.43A1,1,0,1,0,7,31.84l2.66-2.66a13.9,13.9,0,0,0,16.88-.08l2.74,2.74a1,1,0,0,0,1.41-1.41Z" class="clr-i-outline--alerted clr-i-outline-path-3--alerted"></path><path d="M26.85,1.14,21.13,11A1.28,1.28,0,0,0,22.23,13H33.68A1.28,1.28,0,0,0,34.78,11L29.06,1.14A1.28,1.28,0,0,0,26.85,1.14Z" class="clr-i-outline--alerted clr-i-outline-path-4--alerted clr-i-alert"></path>
    <rect x="0" y="0" width="36" height="36" fill-opacity="0"/>
</svg>