<svg version="1.1" width="36" height="36"  viewBox="0 0 36 36" preserveAspectRatio="xMidYMid meet" xmlns="http://www.w3.org/2000/svg" xmlns:xlink="http://www.w3.org/1999/xlink">
    <title>hourglass-outline-alerted</title>
    <path d="M29,32H26V24.91a6.67,6.67,0,0,0-2.69-5.33l-1.28-1A6.36,6.36,0,0,0,21,18h0a6.29,6.29,0,0,0,1-.62l1.28-1a6.64,6.64,0,0,0,1.09-1H22.23a3.64,3.64,0,0,1-.78-.09l-.62.46h0a4.66,4.66,0,0,1-1.18.63,1,1,0,0,0-.65.94v1.34a1,1,0,0,0,.65.94,4.67,4.67,0,0,1,1.19.63l1.28,1A4.66,4.66,0,0,1,24,24.91V32H12V24.91a4.66,4.66,0,0,1,1.88-3.72l1.28-1a4.66,4.66,0,0,1,1.18-.63,1,1,0,0,0,.65-.94V17.33a1,1,0,0,0-.65-.94,4.67,4.67,0,0,1-1.19-.63l-1.28-1A4.66,4.66,0,0,1,12,11.09V4H22.45L23.6,2H7A1,1,0,0,0,7,4h3v7.09a6.67,6.67,0,0,0,2.69,5.33l1.28,1A6.36,6.36,0,0,0,15,18h0a6.27,6.27,0,0,0-1,.62l-1.28,1A6.67,6.67,0,0,0,10,24.91V32H7a1,1,0,0,0,0,2H29a1,1,0,0,0,0-2Z" class="clr-i-outline--alerted clr-i-outline-path-1--alerted"></path><path d="M26.85,1.14,21.13,11A1.28,1.28,0,0,0,22.23,13H33.68A1.28,1.28,0,0,0,34.78,11L29.06,1.14A1.28,1.28,0,0,0,26.85,1.14Z" class="clr-i-outline--alerted clr-i-outline-path-2--alerted clr-i-alert"></path>
    <rect x="0" y="0" width="36" height="36" fill-opacity="0"/>
</svg>