<svg version="1.1" width="36" height="36"  viewBox="0 0 36 36" preserveAspectRatio="xMidYMid meet" xmlns="http://www.w3.org/2000/svg" xmlns:xlink="http://www.w3.org/1999/xlink">
    <title>library-line</title>
    <path d="M33.48,29.63,26.74,11.82a2,2,0,0,0-2.58-1.16L21,11.85V8.92A1.92,1.92,0,0,0,19.08,7H14V4.92A1.92,1.92,0,0,0,12.08,3H5A2,2,0,0,0,3,5V32a1,1,0,0,0,1,1H20a1,1,0,0,0,1-1V19.27l5,13.21a1,1,0,0,0,1.29.58l5.61-2.14a1,1,0,0,0,.58-1.29ZM12,8.83V31H5V5h7ZM19,31H14V9h5Zm8.51-.25L21.13,13.92l3.74-1.42,6.39,16.83Z" class="clr-i-outline clr-i-outline-path-1"></path>
    <rect x="0" y="0" width="36" height="36" fill-opacity="0"/>
</svg>