<svg version="1.1" width="36" height="36"  viewBox="0 0 36 36" preserveAspectRatio="xMidYMid meet" xmlns="http://www.w3.org/2000/svg" xmlns:xlink="http://www.w3.org/1999/xlink">
    <title>login-line</title>
    <path d="M28,4H12a2,2,0,0,0-2,2H28V30H12V20.2H10V30a2,2,0,0,0,2,2H28a2,2,0,0,0,2-2V6A2,2,0,0,0,28,4Z" class="clr-i-outline clr-i-outline-path-1"></path><path d="M15.12,18.46a1,1,0,1,0,1.41,1.41l5.79-5.79L16.54,8.29a1,1,0,0,0-1.41,1.41L18.5,13H4a1,1,0,0,0-1,1,1,1,0,0,0,1,1H18.5Z" class="clr-i-outline clr-i-outline-path-2"></path>
    <rect x="0" y="0" width="36" height="36" fill-opacity="0"/>
</svg>