<svg version="1.1" width="36" height="36"  viewBox="0 0 36 36" preserveAspectRatio="xMidYMid meet" xmlns="http://www.w3.org/2000/svg" xmlns:xlink="http://www.w3.org/1999/xlink">
    <title>portrait-solid</title>
    <path d="M28,2H8A2,2,0,0,0,6,4V32a2,2,0,0,0,2,2H28a2,2,0,0,0,2-2V4A2,2,0,0,0,28,2ZM20.52,26.3a1,1,0,0,1,1.36,1.47L18,31.36l-3.88-3.59a1,1,0,0,1,1.36-1.47L17,27.71V8.29L15.48,9.7a1,1,0,0,1-1.36-1.47L18,4.64l3.88,3.59a1,1,0,0,1,.05,1.41,1,1,0,0,1-.73.32,1,1,0,0,1-.68-.26L19,8.29V27.71Z" class="clr-i-solid clr-i-solid-path-1"></path>
    <rect x="0" y="0" width="36" height="36" fill-opacity="0"/>
</svg>