<svg version="1.1" width="36" height="36"  viewBox="0 0 36 36" preserveAspectRatio="xMidYMid meet" xmlns="http://www.w3.org/2000/svg" xmlns:xlink="http://www.w3.org/1999/xlink">
    <title>slider-solid</title>
    <path d="M9,9.29V5A1,1,0,1,0,7,5V9.3a3.22,3.22,0,0,0,0,6.11V31a1,1,0,1,0,2,0V15.43A3.22,3.22,0,0,0,9,9.29Z" class="clr-i-solid clr-i-solid-path-1"></path><path d="M19,21.45V5a1,1,0,1,0-2,0V21.47a3.22,3.22,0,0,0,0,6.11V31a1,1,0,1,0,2,0V27.6a3.22,3.22,0,0,0,0-6.14Z" class="clr-i-solid clr-i-solid-path-2"></path><path d="M29,12.75V5a1,1,0,1,0-2,0v7.76a3.22,3.22,0,0,0,0,6.11V31a1,1,0,1,0,2,0V18.89a3.22,3.22,0,0,0,0-6.14Z" class="clr-i-solid clr-i-solid-path-3"></path>
    <rect x="0" y="0" width="36" height="36" fill-opacity="0"/>
</svg>