<svg version="1.1" width="36" height="36"  viewBox="0 0 36 36" preserveAspectRatio="xMidYMid meet" xmlns="http://www.w3.org/2000/svg" xmlns:xlink="http://www.w3.org/1999/xlink">
    <title>tags-solid-alerted</title>
    <path d="M20.83,6.8,19.58,5.55A1.92,1.92,0,0,0,18.21,5H16.12L19.79,8.6Z" class="clr-i-solid--alerted clr-i-solid-path-1--alerted"></path><path d="M33.16,19.13,29.43,15.4H26.65l5.1,5L21.22,31.07a1.93,1.93,0,0,0,2.73,0l9.21-9.21a1.93,1.93,0,0,0,0-2.73Z" class="clr-i-solid--alerted clr-i-solid-path-2--alerted"></path><path d="M27.78,19.17,24,15.4H22.23a3.67,3.67,0,0,1-3.36-5.15L14.2,5.58A1.92,1.92,0,0,0,12.83,5H3.61A1.93,1.93,0,0,0,1.68,6.93v9.22a1.92,1.92,0,0,0,.57,1.36L15.84,31.1a1.93,1.93,0,0,0,2.73,0l9.21-9.21A1.93,1.93,0,0,0,27.78,19.17ZM6.67,11.72A1.73,1.73,0,1,1,8.4,10,1.73,1.73,0,0,1,6.67,11.72Z" class="clr-i-solid--alerted clr-i-solid-path-3--alerted"></path><path d="M26.85,1.14,21.13,11A1.28,1.28,0,0,0,22.23,13H33.68A1.28,1.28,0,0,0,34.78,11L29.06,1.14A1.28,1.28,0,0,0,26.85,1.14Z" class="clr-i-solid--alerted clr-i-solid-path-4--alerted clr-i-alert"></path>
    <rect x="0" y="0" width="36" height="36" fill-opacity="0"/>
</svg>