<svg version="1.1" width="36" height="36"  viewBox="0 0 36 36" preserveAspectRatio="xMidYMid meet" xmlns="http://www.w3.org/2000/svg" xmlns:xlink="http://www.w3.org/1999/xlink">
    <title>view-list-line</title>
    <rect class="clr-i-outline clr-i-outline-path-1" x="2" y="8" width="2" height="2"></rect><path class="clr-i-outline clr-i-outline-path-2" d="M7,10H31a1,1,0,0,0,0-2H7a1,1,0,0,0,0,2Z"></path><rect class="clr-i-outline clr-i-outline-path-3" x="2" y="14" width="2" height="2"></rect><path class="clr-i-outline clr-i-outline-path-4" d="M31,14H7a1,1,0,0,0,0,2H31a1,1,0,0,0,0-2Z"></path><rect class="clr-i-outline clr-i-outline-path-5" x="2" y="20" width="2" height="2"></rect><path class="clr-i-outline clr-i-outline-path-6" d="M31,20H7a1,1,0,0,0,0,2H31a1,1,0,0,0,0-2Z"></path><rect class="clr-i-outline clr-i-outline-path-7" x="2" y="26" width="2" height="2"></rect><path class="clr-i-outline clr-i-outline-path-8" d="M31,26H7a1,1,0,0,0,0,2H31a1,1,0,0,0,0-2Z"></path>
    <rect x="0" y="0" width="36" height="36" fill-opacity="0"/>
</svg>