<svg version="1.1" width="36" height="36"  viewBox="0 0 36 36" preserveAspectRatio="xMidYMid meet" xmlns="http://www.w3.org/2000/svg" xmlns:xlink="http://www.w3.org/1999/xlink">
    <title>child-arrow-line</title>
    <path d="M24.82,15.8a1,1,0,0,0-1.41,0,1,1,0,0,0,0,1.41L27.2,21H9V3.78a1,1,0,1,0-2,0V21a2,2,0,0,0,2,2H27.15l-3.74,3.75a1,1,0,0,0,0,1.41,1,1,0,0,0,.7.29,1,1,0,0,0,.71-.29L31,22Z" class="clr-i-outline clr-i-outline-path-1"></path>
    <rect x="0" y="0" width="36" height="36" fill-opacity="0"/>
</svg>