<svg version="1.1" width="36" height="36"  viewBox="0 0 36 36" preserveAspectRatio="xMidYMid meet" xmlns="http://www.w3.org/2000/svg" xmlns:xlink="http://www.w3.org/1999/xlink">
    <title>clock-solid</title>
    <path d="M18,2A16,16,0,1,0,34,18,16,16,0,0,0,18,2Zm6.2,21.18a1,1,0,0,1-1.39.28l-5.9-4V10.75a1,1,0,0,1,2,0V18.4l5,3.39A1,1,0,0,1,24.2,23.18ZM23.85,8.23a11.39,11.39,0,1,0-8.54,20.83L15,30.63a13,13,0,1,1,9.7-23.77Z" class="clr-i-solid clr-i-solid-path-1"></path>
    <rect x="0" y="0" width="36" height="36" fill-opacity="0"/>
</svg>