<svg version="1.1" width="36" height="36"  viewBox="0 0 36 36" preserveAspectRatio="xMidYMid meet" xmlns="http://www.w3.org/2000/svg" xmlns:xlink="http://www.w3.org/1999/xlink">
    <title>clock-solid-alerted</title>
    <path d="M33.77,15.39H22.23A3.69,3.69,0,0,1,19,13.56c0-.09-.09-.18-.13-.27V18.4l5,3.39a1,1,0,0,1-1.11,1.66l-5.9-4V10.75a1,1,0,0,1,1.91-.41A3.65,3.65,0,0,1,19,9.89L20.74,7A11.19,11.19,0,0,0,18,6.6a11.39,11.39,0,0,0-2.69,22.47L15,30.63A13,13,0,0,1,18,5a12.8,12.8,0,0,1,3.57.51l1.53-2.66A16,16,0,1,0,34,18,16,16,0,0,0,33.77,15.39Z" class="clr-i-solid--alerted clr-i-solid-path-1--alerted"></path><path d="M26.85,1.14,21.13,11A1.28,1.28,0,0,0,22.23,13H33.68A1.28,1.28,0,0,0,34.78,11L29.06,1.14A1.28,1.28,0,0,0,26.85,1.14Z" class="clr-i-solid--alerted clr-i-solid-path-1--alerted clr-i-alert"></path>
    <rect x="0" y="0" width="36" height="36" fill-opacity="0"/>
</svg>