<svg version="1.1" width="36" height="36"  viewBox="0 0 36 36" preserveAspectRatio="xMidYMid meet" xmlns="http://www.w3.org/2000/svg" xmlns:xlink="http://www.w3.org/1999/xlink">
    <title>filter-off-solid</title>
    <path d="M23.9,18.6L10.3,5.1h22.2C33.3,5,34,5.6,34,6.4c0,0,0,0,0,0.1v1.1c0,0.5-0.2,1-0.6,1.4L23.9,18.6z" class="clr-i-solid clr-i-solid-path-1"></path><path d="M33.5,31L4.1,1.6L2.6,3l2.1,2.1H3.5C2.7,5,2,5.6,2,6.4c0,0,0,0,0,0.1v1.1c0,0.5,0.2,1,0.6,1.4L14,20.5v10.1l8,3.4V22.4
	l10.1,10.1L33.5,31z" class="clr-i-solid clr-i-solid-path-2"></path>
    <rect x="0" y="0" width="36" height="36" fill-opacity="0"/>
</svg>