<svg version="1.1" width="36" height="36"  viewBox="0 0 36 36" preserveAspectRatio="xMidYMid meet" xmlns="http://www.w3.org/2000/svg" xmlns:xlink="http://www.w3.org/1999/xlink">
    <title>group-line</title>
    <path class="clr-i-outline clr-i-outline-path-1" d="M17.9,17.3c2.7,0,4.8-2.2,4.8-4.9c0-2.7-2.2-4.8-4.9-4.8c-2.7,0-4.8,2.2-4.8,4.8C13,15.1,15.2,17.3,17.9,17.3z M17.8,9.6C17.9,9.6,17.9,9.6,17.8,9.6c1.6,0,2.9,1.3,2.9,2.9s-1.3,2.8-2.9,2.8c-1.6,0-2.8-1.3-2.8-2.8C15,10.9,16.3,9.6,17.8,9.6z"></path><path class="clr-i-outline clr-i-outline-path-2" d="M32.7,16.7c-1.9-1.7-4.4-2.6-7-2.5c-0.3,0-0.5,0-0.8,0c-0.2,0.8-0.5,1.5-0.9,2.1c0.6-0.1,1.1-0.1,1.7-0.1c1.9-0.1,3.8,0.5,5.3,1.6V25h2v-8L32.7,16.7z"></path><path class="clr-i-outline clr-i-outline-path-3" d="M23.4,7.8c0.5-1.2,1.9-1.8,3.2-1.3c1.2,0.5,1.8,1.9,1.3,3.2c-0.4,0.9-1.3,1.5-2.2,1.5c-0.2,0-0.5,0-0.7-0.1c0.1,0.5,0.1,1,0.1,1.4c0,0.2,0,0.4,0,0.6c0.2,0,0.4,0.1,0.6,0.1c2.5,0,4.5-2,4.5-4.4c0-2.5-2-4.5-4.4-4.5c-1.6,0-3,0.8-3.8,2.2C22.5,6.8,23,7.2,23.4,7.8z"></path><path class="clr-i-outline clr-i-outline-path-4" d="M12,16.4c-0.4-0.6-0.7-1.3-0.9-2.1c-0.3,0-0.5,0-0.8,0c-2.6-0.1-5.1,0.8-7,2.4L3,17v8h2v-7.2c1.6-1.1,3.4-1.7,5.3-1.6C10.9,16.2,11.5,16.3,12,16.4z"></path><path class="clr-i-outline clr-i-outline-path-5" d="M10.3,13.1c0.2,0,0.4,0,0.6-0.1c0-0.2,0-0.4,0-0.6c0-0.5,0-1,0.1-1.4c-0.2,0.1-0.5,0.1-0.7,0.1c-1.3,0-2.4-1.1-2.4-2.4c0-1.3,1.1-2.4,2.4-2.4c1,0,1.9,0.6,2.3,1.5c0.4-0.5,1-1,1.5-1.4c-1.3-2.1-4-2.8-6.1-1.5c-2.1,1.3-2.8,4-1.5,6.1C7.3,12.3,8.7,13.1,10.3,13.1z"></path><path class="clr-i-outline clr-i-outline-path-6" d="M26.1,22.7l-0.2-0.3c-2-2.2-4.8-3.5-7.8-3.4c-3-0.1-5.9,1.2-7.9,3.4L10,22.7v7.6c0,0.9,0.7,1.7,1.7,1.7c0,0,0,0,0,0h12.8c0.9,0,1.7-0.8,1.7-1.7c0,0,0,0,0,0V22.7z M24.1,30H12v-6.6c1.6-1.6,3.8-2.4,6.1-2.4c2.2-0.1,4.4,0.8,6,2.4V30z"></path>
    <rect x="0" y="0" width="36" height="36" fill-opacity="0"/>
</svg>