<svg version="1.1" width="36" height="36"  viewBox="0 0 36 36" preserveAspectRatio="xMidYMid meet" xmlns="http://www.w3.org/2000/svg" xmlns:xlink="http://www.w3.org/1999/xlink">
    <title>login-solid</title>
    <path d="M28,4H12a2,2,0,0,0-2,2v7h8.5L15.12,9.71a1,1,0,0,1,1.41-1.41l5.79,5.79-5.79,5.79a1,1,0,0,1-1.41-1.41L18.5,15H10V30a2,2,0,0,0,2,2H28a2,2,0,0,0,2-2V6A2,2,0,0,0,28,4Z" class="clr-i-solid clr-i-solid-path-1"></path><path d="M10,13H4a1,1,0,0,0-1,1,1,1,0,0,0,1,1h6Z" class="clr-i-solid clr-i-solid-path-2"></path>
    <rect x="0" y="0" width="36" height="36" fill-opacity="0"/>
</svg>