<svg version="1.1" width="36" height="36"  viewBox="0 0 36 36" preserveAspectRatio="xMidYMid meet" xmlns="http://www.w3.org/2000/svg" xmlns:xlink="http://www.w3.org/1999/xlink">
    <title>logout-solid</title>
    <path d="M23,4H7A2,2,0,0,0,5,6V30a2,2,0,0,0,2,2H23a2,2,0,0,0,2-2V24H15.63a1,1,0,0,1-1-1,1,1,0,0,1,1-1H25V6A2,2,0,0,0,23,4Z" class="clr-i-solid clr-i-solid-path-1"></path><path d="M28.16,17.28a1,1,0,0,0-1.41,1.41L30.13,22H25v2h5.13l-3.38,3.46a1,1,0,1,0,1.41,1.41L34,23.07Z" class="clr-i-solid clr-i-solid-path-2"></path>
    <rect x="0" y="0" width="36" height="36" fill-opacity="0"/>
</svg>