<svg version="1.1" width="36" height="36"  viewBox="0 0 36 36" preserveAspectRatio="xMidYMid meet" xmlns="http://www.w3.org/2000/svg" xmlns:xlink="http://www.w3.org/1999/xlink">
    <title>recycle-solid</title>
    <path d="M20.8,3.1c-3-1.6-6.7-0.6-8.4,2.4l-2.2,3.8l-2-1.1C8.2,8,8,8,7.9,8C7.4,8,7,8.4,7,8.9v7.2c0,0.3,0.1,0.6,0.4,0.8
		c0.1,0.1,0.3,0.1,0.4,0.1c0.2,0,0.3,0,0.4-0.1l6.3-3.6c0.3-0.2,0.4-0.4,0.4-0.8c0-0.3-0.2-0.6-0.4-0.8L12,10.3l2.2-3.8
		c0.4-0.7,1-1.3,1.7-1.7c2-1.1,4.5-0.3,5.6,1.7c0.3,0.5,0.9,0.6,1.4,0.4c0.5-0.3,0.6-0.9,0.4-1.4C22.6,4.5,21.8,3.6,20.8,3.1z" class="clr-i-solid clr-i-solid-path-1"></path><path d="M32.2,21.1l-3-5.3l2.3-1.3c0.3-0.2,0.4-0.4,0.4-0.8c0-0.3-0.2-0.6-0.4-0.8l-6.2-3.6c-0.1-0.1-0.3-0.1-0.4-0.1
		c-0.5,0-0.9,0.4-0.9,0.9v7.2c0,0.3,0.2,0.6,0.4,0.8c0.1,0.1,0.3,0.1,0.4,0.1c0.2,0,0.3-0.1,0.4-0.1l2.2-1.3l3,5.3
		c0.7,1.2,0.7,2.8,0,4c-0.7,1.2-1.9,1.9-3.2,1.9h-0.9c-0.6,0-1,0.4-1,1c0,0.6,0.4,1,1,1h0.9c2.1,0,4-1.1,5-3
		C33.2,25.3,33.2,23,32.2,21.1z" class="clr-i-solid clr-i-solid-path-2"></path><path d="M21.7,28.4l-6.2-3.6c-0.1-0.1-0.3-0.1-0.4-0.1c-0.5,0-0.9,0.4-0.9,0.9v2.6H9.3c-1.5,0-2.9-0.8-3.6-2.1
		c-0.8-1.4-0.8-3.1,0-4.5c0.3-0.5,0.1-1.1-0.4-1.4c-0.5-0.3-1.1-0.1-1.4,0.4c-1.2,2-1.2,4.5,0,6.5c1.1,1.9,3.1,3.1,5.4,3.1h4.8v2.6
		c0,0.3,0.2,0.6,0.4,0.8c0.1,0.1,0.3,0.1,0.4,0.1c0.1,0,0.3,0,0.4-0.1l6.3-3.6c0.3-0.2,0.4-0.4,0.4-0.8
		C22.1,28.8,21.9,28.5,21.7,28.4z" class="clr-i-solid clr-i-solid-path-3"></path>
    <rect x="0" y="0" width="36" height="36" fill-opacity="0"/>
</svg>