<svg version="1.1" width="36" height="36"  viewBox="0 0 36 36" preserveAspectRatio="xMidYMid meet" xmlns="http://www.w3.org/2000/svg" xmlns:xlink="http://www.w3.org/1999/xlink">
    <title>wrench-solid</title>
    <path d="M33.73,27.72,19.67,13.66a8.79,8.79,0,0,0-12-10.5L13,8.53,8.53,13,3.16,7.67a8.79,8.79,0,0,0,10.5,12L27.72,33.73a1.07,1.07,0,0,0,1.5,0l4.51-4.51A1.07,1.07,0,0,0,33.73,27.72ZM29,29a1.38,1.38,0,1,1,0-2A1.38,1.38,0,0,1,29,29Z" class="clr-i-solid clr-i-solid-path-1"></path>
    <rect x="0" y="0" width="36" height="36" fill-opacity="0"/>
</svg>