<svg version="1.1" width="36" height="36"  viewBox="0 0 36 36" preserveAspectRatio="xMidYMid meet" xmlns="http://www.w3.org/2000/svg" xmlns:xlink="http://www.w3.org/1999/xlink">
    <title>boat-solid</title>
    <path d="M34,31c-1.1-0.1-2.1-0.5-3-1.2c-0.5-0.5-1.2-0.8-2-0.8c-0.7,0-1.5,0.3-2,0.8c-0.9,0.8-2,1.1-3.1,1.1c-1.2,0-2.4-0.4-3.3-1.1
	c-1.2-1.1-3-1.1-4.1,0c-0.9,0.8-2.1,1.2-3.4,1.2c-1.2,0-2.3-0.4-3.2-1.2c-0.6-0.5-1.3-0.8-2-0.8c-0.8,0-1.7,0.3-2.3,0.8
	c-1,0.8-2.3,1.2-3.5,1.1V29c0.8,0,1.7-0.3,2.3-0.9c1-0.8,2.2-1.2,3.4-1.1c1.2,0,2.4,0.4,3.3,1.2c1.2,1.1,3,1.1,4.2,0
	c1.9-1.6,4.7-1.6,6.5,0c1.2,1.1,3,1.1,4.1,0c0.9-0.8,2.1-1.2,3.3-1.2c1.1,0,2.2,0.4,3,1.2C32.8,28.7,33,29,34,29L34,31z" class="clr-i-solid clr-i-solid-path-1"></path><path d="M4.1,26.2c0.6-0.5,1.2-0.8,1.9-1V23c0-0.6,0.4-1.1,1-1.1h25L28.4,25h0.2c0.8,0,1.6,0.2,2.2,0.5l2.5-2.2l0.2-0.2
	c0.7-0.9,0.5-2.1-0.4-2.8C32.9,20.1,32.4,20,32,20H7c-1.7,0-3,1.3-3,3L4.1,26.2L4.1,26.2z" class="clr-i-solid clr-i-solid-path-2"></path><path d="M14.9,18.9H8.9c-1.1,0-2-0.9-2-2c0-0.4,0.1-0.8,0.4-1.2l4.1-5.8c0.6-0.9,1.9-1.1,2.8-0.5c0.5,0.4,0.8,1,0.8,1.6V18.9z" class="clr-i-solid clr-i-solid-path-3"></path><path d="M24.3,18.9H16V6.4c0-1.1,0.9-2,2-2c0.7,0,1.3,0.4,1.7,1L26,15.8c0.6,1,0.2,2.2-0.7,2.7C25,18.7,24.6,18.8,24.3,18.9
	L24.3,18.9z" class="clr-i-solid clr-i-solid-path-4"></path>
    <rect x="0" y="0" width="36" height="36" fill-opacity="0"/>
</svg>